G04*
G04 #@! TF.GenerationSoftware,Altium Limited,Altium Designer,22.1.2 (22)*
G04*
G04 Layer_Physical_Order=2*
G04 Layer_Color=36540*
%FSLAX25Y25*%
%MOIN*%
G70*
G04*
G04 #@! TF.SameCoordinates,56094753-5DA1-4506-B589-AA1800A80C84*
G04*
G04*
G04 #@! TF.FilePolarity,Positive*
G04*
G01*
G75*
%ADD26R,0.05906X0.05906*%
%ADD141C,0.06260*%
%ADD142R,0.06260X0.06260*%
%ADD145C,0.05118*%
%ADD152C,0.10243*%
%ADD161C,0.02000*%
%ADD163C,0.06142*%
%ADD167C,0.04567*%
%ADD169O,0.03543X0.06299*%
%ADD171C,0.01987*%
%ADD172C,0.01988*%
G36*
X642210Y288846D02*
X640664Y287899D01*
X638848Y286348D01*
X637298Y284533D01*
X636051Y282498D01*
X635137Y280292D01*
X634580Y277971D01*
X634392Y275590D01*
X634580Y273211D01*
X635137Y270889D01*
X636051Y268684D01*
X637298Y266648D01*
X638848Y264833D01*
X640664Y263282D01*
X642699Y262035D01*
X644905Y261121D01*
X647226Y260564D01*
X649606Y260377D01*
X651986Y260564D01*
X654308Y261121D01*
X656513Y262035D01*
X658549Y263282D01*
X660364Y264833D01*
X661914Y266648D01*
X662161Y267050D01*
X662642Y266915D01*
X662644Y206270D01*
X662144Y206196D01*
X661956Y206814D01*
X661064Y208483D01*
X659864Y209945D01*
X658401Y211146D01*
X656733Y212038D01*
X654922Y212587D01*
X653039Y212772D01*
X651156Y212587D01*
X649345Y212038D01*
X647676Y211146D01*
X646213Y209945D01*
X645013Y208483D01*
X644121Y206814D01*
X643572Y205003D01*
X643386Y203120D01*
X643572Y201237D01*
X644121Y199426D01*
X645013Y197757D01*
X646213Y196295D01*
X647676Y195094D01*
X649345Y194202D01*
X651156Y193653D01*
X653039Y193468D01*
X654922Y193653D01*
X656733Y194202D01*
X658401Y195094D01*
X659864Y196295D01*
X661064Y197757D01*
X661956Y199426D01*
X662144Y200045D01*
X662644Y199970D01*
X662649Y8665D01*
X662168Y8529D01*
X661914Y8942D01*
X660364Y10758D01*
X658549Y12308D01*
X656513Y13556D01*
X654308Y14469D01*
X651986Y15026D01*
X649606Y15214D01*
X647226Y15026D01*
X644905Y14469D01*
X642699Y13556D01*
X640664Y12308D01*
X638848Y10758D01*
X637298Y8942D01*
X636051Y6907D01*
X635137Y4701D01*
X634580Y2380D01*
X634392Y0D01*
X634580Y-2380D01*
X635137Y-4701D01*
X636051Y-6907D01*
X637298Y-8942D01*
X638848Y-10758D01*
X640664Y-12308D01*
X642699Y-13556D01*
X643734Y-13984D01*
X643635Y-14484D01*
X82380D01*
X82159Y-14036D01*
X82346Y-13792D01*
X82704Y-12927D01*
X82826Y-12000D01*
X82704Y-11073D01*
X82346Y-10208D01*
X81776Y-9466D01*
X81034Y-8897D01*
X80170Y-8539D01*
X79243Y-8417D01*
X78315Y-8539D01*
X77451Y-8897D01*
X76709Y-9466D01*
X76139Y-10208D01*
X75781Y-11073D01*
X75659Y-12000D01*
X75781Y-12927D01*
X76139Y-13792D01*
X76327Y-14036D01*
X76105Y-14484D01*
X72380D01*
X72159Y-14036D01*
X72346Y-13792D01*
X72704Y-12927D01*
X72826Y-12000D01*
X72704Y-11073D01*
X72346Y-10208D01*
X71776Y-9466D01*
X71034Y-8897D01*
X70170Y-8539D01*
X69243Y-8417D01*
X68315Y-8539D01*
X67451Y-8897D01*
X66709Y-9466D01*
X66139Y-10208D01*
X65781Y-11073D01*
X65659Y-12000D01*
X65781Y-12927D01*
X66139Y-13792D01*
X66327Y-14036D01*
X66106Y-14484D01*
X62380D01*
X62159Y-14036D01*
X62346Y-13792D01*
X62704Y-12927D01*
X62826Y-12000D01*
X62704Y-11073D01*
X62346Y-10208D01*
X61777Y-9466D01*
X61034Y-8897D01*
X60170Y-8539D01*
X59243Y-8417D01*
X58315Y-8539D01*
X57451Y-8897D01*
X56709Y-9466D01*
X56139Y-10208D01*
X55781Y-11073D01*
X55659Y-12000D01*
X55781Y-12927D01*
X56139Y-13792D01*
X56327Y-14036D01*
X56106Y-14484D01*
X52795D01*
Y-8447D01*
X45690D01*
Y-14484D01*
X5972D01*
X5872Y-13984D01*
X6907Y-13556D01*
X8942Y-12308D01*
X10758Y-10758D01*
X12308Y-8942D01*
X13556Y-6907D01*
X14469Y-4701D01*
X15026Y-2380D01*
X15214Y0D01*
X15026Y2380D01*
X14469Y4701D01*
X13556Y6907D01*
X12308Y8942D01*
X10758Y10758D01*
X8942Y12308D01*
X6907Y13556D01*
X4701Y14469D01*
X2380Y15026D01*
X0Y15214D01*
X-2380Y15026D01*
X-4701Y14469D01*
X-6907Y13556D01*
X-8942Y12308D01*
X-10758Y10758D01*
X-12308Y8942D01*
X-13083Y7679D01*
X-13583Y7820D01*
Y91356D01*
X-13083Y91508D01*
X-12857Y91171D01*
X-12330Y90818D01*
X-11708Y90695D01*
X-11087Y90818D01*
X-10559Y91171D01*
X-10207Y91698D01*
X-10084Y92320D01*
X-10207Y92941D01*
X-10559Y93469D01*
X-11087Y93821D01*
X-11708Y93945D01*
X-12330Y93821D01*
X-12857Y93469D01*
X-13083Y93131D01*
X-13583Y93283D01*
Y101356D01*
X-13083Y101508D01*
X-12857Y101171D01*
X-12330Y100818D01*
X-11708Y100695D01*
X-11087Y100818D01*
X-10559Y101171D01*
X-10207Y101698D01*
X-10084Y102320D01*
X-10207Y102941D01*
X-10559Y103469D01*
X-11087Y103821D01*
X-11708Y103945D01*
X-12330Y103821D01*
X-12857Y103469D01*
X-13083Y103131D01*
X-13583Y103283D01*
Y111356D01*
X-13083Y111508D01*
X-12857Y111171D01*
X-12330Y110818D01*
X-11708Y110695D01*
X-11087Y110818D01*
X-10559Y111171D01*
X-10207Y111698D01*
X-10084Y112320D01*
X-10207Y112941D01*
X-10559Y113469D01*
X-11087Y113821D01*
X-11708Y113944D01*
X-12330Y113821D01*
X-12857Y113469D01*
X-13083Y113131D01*
X-13583Y113283D01*
Y121356D01*
X-13083Y121508D01*
X-12857Y121171D01*
X-12330Y120818D01*
X-11708Y120695D01*
X-11087Y120818D01*
X-10559Y121171D01*
X-10207Y121698D01*
X-10084Y122320D01*
X-10207Y122941D01*
X-10559Y123469D01*
X-11087Y123821D01*
X-11708Y123944D01*
X-12330Y123821D01*
X-12857Y123469D01*
X-13083Y123131D01*
X-13583Y123283D01*
Y267771D01*
X-13083Y267912D01*
X-12308Y266648D01*
X-10758Y264833D01*
X-8942Y263282D01*
X-6907Y262035D01*
X-4701Y261121D01*
X-2380Y260564D01*
X0Y260377D01*
X2380Y260564D01*
X4701Y261121D01*
X6907Y262035D01*
X8942Y263282D01*
X10758Y264833D01*
X12308Y266648D01*
X13556Y268684D01*
X14469Y270889D01*
X15026Y273211D01*
X15214Y275590D01*
X15026Y277971D01*
X14469Y280292D01*
X13556Y282498D01*
X12308Y284533D01*
X10758Y286348D01*
X8942Y287899D01*
X7396Y288846D01*
X7537Y289347D01*
X642069D01*
X642210Y288846D01*
D02*
G37*
%LPC*%
G36*
X571228Y277367D02*
X570254Y277239D01*
X569347Y276863D01*
X568568Y276265D01*
X567970Y275486D01*
X567594Y274579D01*
X567466Y273605D01*
X567594Y272631D01*
X567970Y271724D01*
X568568Y270945D01*
X569347Y270347D01*
X570254Y269971D01*
X571228Y269843D01*
X572202Y269971D01*
X573109Y270347D01*
X573888Y270945D01*
X574486Y271724D01*
X574862Y272631D01*
X574990Y273605D01*
X574862Y274579D01*
X574486Y275486D01*
X573888Y276265D01*
X573109Y276863D01*
X572202Y277239D01*
X571228Y277367D01*
D02*
G37*
G36*
X560441D02*
X559467Y277239D01*
X558560Y276863D01*
X557780Y276265D01*
X557183Y275486D01*
X556807Y274579D01*
X556678Y273605D01*
X556807Y272631D01*
X557183Y271724D01*
X557780Y270945D01*
X558560Y270347D01*
X559467Y269971D01*
X560441Y269843D01*
X561414Y269971D01*
X562322Y270347D01*
X563101Y270945D01*
X563699Y271724D01*
X564075Y272631D01*
X564203Y273605D01*
X564075Y274579D01*
X563699Y275486D01*
X563101Y276265D01*
X562322Y276863D01*
X561414Y277239D01*
X560441Y277367D01*
D02*
G37*
G36*
X549653D02*
X548679Y277239D01*
X547772Y276863D01*
X546993Y276265D01*
X546395Y275486D01*
X546019Y274579D01*
X545891Y273605D01*
X546019Y272631D01*
X546395Y271724D01*
X546993Y270945D01*
X547772Y270347D01*
X548679Y269971D01*
X549653Y269843D01*
X550627Y269971D01*
X551534Y270347D01*
X552313Y270945D01*
X552911Y271724D01*
X553287Y272631D01*
X553415Y273605D01*
X553287Y274579D01*
X552911Y275486D01*
X552313Y276265D01*
X551534Y276863D01*
X550627Y277239D01*
X549653Y277367D01*
D02*
G37*
G36*
X620401Y274650D02*
X619107Y274523D01*
X617862Y274145D01*
X616714Y273532D01*
X615709Y272707D01*
X614884Y271701D01*
X614270Y270554D01*
X613893Y269309D01*
X613765Y268014D01*
X613893Y266720D01*
X614270Y265475D01*
X614884Y264328D01*
X615709Y263322D01*
X616714Y262497D01*
X617862Y261884D01*
X619107Y261506D01*
X620401Y261379D01*
X621696Y261506D01*
X622941Y261884D01*
X624088Y262497D01*
X625094Y263322D01*
X625919Y264328D01*
X626532Y265475D01*
X626910Y266720D01*
X627037Y268014D01*
X626910Y269309D01*
X626532Y270554D01*
X625919Y271701D01*
X625094Y272707D01*
X624088Y273532D01*
X622941Y274145D01*
X621696Y274523D01*
X620401Y274650D01*
D02*
G37*
G36*
X522015D02*
X520721Y274523D01*
X519476Y274145D01*
X518329Y273532D01*
X517323Y272707D01*
X516498Y271701D01*
X515885Y270554D01*
X515507Y269309D01*
X515379Y268014D01*
X515507Y266720D01*
X515885Y265475D01*
X516498Y264328D01*
X517323Y263322D01*
X518329Y262497D01*
X519476Y261884D01*
X520721Y261506D01*
X522015Y261379D01*
X523310Y261506D01*
X524555Y261884D01*
X525702Y262497D01*
X526708Y263322D01*
X527533Y264328D01*
X528146Y265475D01*
X528524Y266720D01*
X528651Y268014D01*
X528524Y269309D01*
X528146Y270554D01*
X527533Y271701D01*
X526708Y272707D01*
X525702Y273532D01*
X524555Y274145D01*
X523310Y274523D01*
X522015Y274650D01*
D02*
G37*
G36*
X565834Y266186D02*
X564860Y266058D01*
X563953Y265682D01*
X563174Y265084D01*
X562576Y264305D01*
X562200Y263398D01*
X562072Y262424D01*
X562200Y261450D01*
X562576Y260543D01*
X563174Y259764D01*
X563953Y259166D01*
X564860Y258790D01*
X565834Y258662D01*
X566808Y258790D01*
X567715Y259166D01*
X568494Y259764D01*
X569092Y260543D01*
X569468Y261450D01*
X569596Y262424D01*
X569468Y263398D01*
X569092Y264305D01*
X568494Y265084D01*
X567715Y265682D01*
X566808Y266058D01*
X565834Y266186D01*
D02*
G37*
G36*
X555047D02*
X554073Y266058D01*
X553166Y265682D01*
X552387Y265084D01*
X551789Y264305D01*
X551413Y263398D01*
X551285Y262424D01*
X551413Y261450D01*
X551789Y260543D01*
X552387Y259764D01*
X553166Y259166D01*
X554073Y258790D01*
X555047Y258662D01*
X556020Y258790D01*
X556928Y259166D01*
X557707Y259764D01*
X558305Y260543D01*
X558681Y261450D01*
X558809Y262424D01*
X558681Y263398D01*
X558305Y264305D01*
X557707Y265084D01*
X556928Y265682D01*
X556020Y266058D01*
X555047Y266186D01*
D02*
G37*
G36*
X265386Y270338D02*
X264091Y270210D01*
X262846Y269832D01*
X261699Y269219D01*
X260694Y268394D01*
X259868Y267388D01*
X259255Y266241D01*
X258877Y264996D01*
X258750Y263702D01*
X258877Y262407D01*
X259255Y261162D01*
X259868Y260015D01*
X260694Y259009D01*
X261699Y258184D01*
X262846Y257571D01*
X264091Y257193D01*
X265386Y257066D01*
X266680Y257193D01*
X267925Y257571D01*
X269073Y258184D01*
X270078Y259009D01*
X270903Y260015D01*
X271517Y261162D01*
X271894Y262407D01*
X272022Y263702D01*
X271894Y264996D01*
X271517Y266241D01*
X270903Y267388D01*
X270078Y268394D01*
X269073Y269219D01*
X267925Y269832D01*
X266680Y270210D01*
X265386Y270338D01*
D02*
G37*
G36*
X167000D02*
X165705Y270210D01*
X164461Y269832D01*
X163313Y269219D01*
X162308Y268394D01*
X161483Y267388D01*
X160869Y266241D01*
X160492Y264996D01*
X160364Y263702D01*
X160492Y262407D01*
X160869Y261162D01*
X161483Y260015D01*
X162308Y259009D01*
X163313Y258184D01*
X164461Y257571D01*
X165705Y257193D01*
X167000Y257066D01*
X168295Y257193D01*
X169539Y257571D01*
X170687Y258184D01*
X171692Y259009D01*
X172518Y260015D01*
X173131Y261162D01*
X173508Y262407D01*
X173636Y263702D01*
X173508Y264996D01*
X173131Y266241D01*
X172518Y267388D01*
X171692Y268394D01*
X170687Y269219D01*
X169539Y269832D01*
X168295Y270210D01*
X167000Y270338D01*
D02*
G37*
G36*
X133000Y270294D02*
X131705Y270166D01*
X130461Y269789D01*
X129313Y269176D01*
X128308Y268350D01*
X127482Y267345D01*
X126869Y266197D01*
X126492Y264953D01*
X126364Y263658D01*
X126492Y262363D01*
X126869Y261119D01*
X127482Y259971D01*
X128308Y258966D01*
X129313Y258140D01*
X130461Y257527D01*
X131705Y257150D01*
X133000Y257022D01*
X134295Y257150D01*
X135539Y257527D01*
X136687Y258140D01*
X137692Y258966D01*
X138517Y259971D01*
X139131Y261119D01*
X139508Y262363D01*
X139636Y263658D01*
X139508Y264953D01*
X139131Y266197D01*
X138517Y267345D01*
X137692Y268350D01*
X136687Y269176D01*
X135539Y269789D01*
X134295Y270166D01*
X133000Y270294D01*
D02*
G37*
G36*
X34614D02*
X33320Y270166D01*
X32075Y269789D01*
X30928Y269176D01*
X29922Y268350D01*
X29097Y267345D01*
X28483Y266197D01*
X28106Y264953D01*
X27978Y263658D01*
X28106Y262363D01*
X28483Y261119D01*
X29097Y259971D01*
X29922Y258966D01*
X30928Y258140D01*
X32075Y257527D01*
X33320Y257150D01*
X34614Y257022D01*
X35909Y257150D01*
X37154Y257527D01*
X38301Y258140D01*
X39307Y258966D01*
X40132Y259971D01*
X40745Y261119D01*
X41123Y262363D01*
X41250Y263658D01*
X41123Y264953D01*
X40745Y266197D01*
X40132Y267345D01*
X39307Y268350D01*
X38301Y269176D01*
X37154Y269789D01*
X35909Y270166D01*
X34614Y270294D01*
D02*
G37*
G36*
X198328Y261841D02*
X190868D01*
Y254381D01*
X198328D01*
Y261841D01*
D02*
G37*
G36*
X237748Y261873D02*
X236774Y261745D01*
X235867Y261369D01*
X235088Y260771D01*
X234490Y259992D01*
X234114Y259085D01*
X233986Y258111D01*
X234114Y257137D01*
X234490Y256230D01*
X235088Y255451D01*
X235867Y254853D01*
X236774Y254477D01*
X237748Y254349D01*
X238722Y254477D01*
X239629Y254853D01*
X240408Y255451D01*
X241006Y256230D01*
X241382Y257137D01*
X241510Y258111D01*
X241382Y259085D01*
X241006Y259992D01*
X240408Y260771D01*
X239629Y261369D01*
X238722Y261745D01*
X237748Y261873D01*
D02*
G37*
G36*
X226961D02*
X225987Y261745D01*
X225080Y261369D01*
X224300Y260771D01*
X223703Y259992D01*
X223327Y259085D01*
X223199Y258111D01*
X223327Y257137D01*
X223703Y256230D01*
X224300Y255451D01*
X225080Y254853D01*
X225987Y254477D01*
X226961Y254349D01*
X227934Y254477D01*
X228842Y254853D01*
X229621Y255451D01*
X230219Y256230D01*
X230594Y257137D01*
X230723Y258111D01*
X230594Y259085D01*
X230219Y259992D01*
X229621Y260771D01*
X228842Y261369D01*
X227934Y261745D01*
X226961Y261873D01*
D02*
G37*
G36*
X216173D02*
X215199Y261745D01*
X214292Y261369D01*
X213513Y260771D01*
X212915Y259992D01*
X212539Y259085D01*
X212411Y258111D01*
X212539Y257137D01*
X212915Y256230D01*
X213513Y255451D01*
X214292Y254853D01*
X215199Y254477D01*
X216173Y254349D01*
X217147Y254477D01*
X218054Y254853D01*
X218833Y255451D01*
X219431Y256230D01*
X219807Y257137D01*
X219935Y258111D01*
X219807Y259085D01*
X219431Y259992D01*
X218833Y260771D01*
X218054Y261369D01*
X217147Y261745D01*
X216173Y261873D01*
D02*
G37*
G36*
X65943Y261797D02*
X58483D01*
Y254338D01*
X65943D01*
Y261797D01*
D02*
G37*
G36*
X105362Y261829D02*
X104388Y261701D01*
X103481Y261326D01*
X102702Y260728D01*
X102104Y259948D01*
X101728Y259041D01*
X101600Y258067D01*
X101728Y257094D01*
X102104Y256186D01*
X102702Y255407D01*
X103481Y254809D01*
X104388Y254433D01*
X105362Y254305D01*
X106336Y254433D01*
X107243Y254809D01*
X108022Y255407D01*
X108620Y256186D01*
X108996Y257094D01*
X109124Y258067D01*
X108996Y259041D01*
X108620Y259948D01*
X108022Y260728D01*
X107243Y261326D01*
X106336Y261701D01*
X105362Y261829D01*
D02*
G37*
G36*
X94575D02*
X93601Y261701D01*
X92694Y261326D01*
X91915Y260728D01*
X91317Y259948D01*
X90941Y259041D01*
X90813Y258067D01*
X90941Y257094D01*
X91317Y256186D01*
X91915Y255407D01*
X92694Y254809D01*
X93601Y254433D01*
X94575Y254305D01*
X95548Y254433D01*
X96456Y254809D01*
X97235Y255407D01*
X97833Y256186D01*
X98209Y257094D01*
X98337Y258067D01*
X98209Y259041D01*
X97833Y259948D01*
X97235Y260728D01*
X96456Y261326D01*
X95548Y261701D01*
X94575Y261829D01*
D02*
G37*
G36*
X83787D02*
X82814Y261701D01*
X81906Y261326D01*
X81127Y260728D01*
X80529Y259948D01*
X80154Y259041D01*
X80025Y258067D01*
X80154Y257094D01*
X80529Y256186D01*
X81127Y255407D01*
X81906Y254809D01*
X82814Y254433D01*
X83787Y254305D01*
X84761Y254433D01*
X85668Y254809D01*
X86448Y255407D01*
X87046Y256186D01*
X87421Y257094D01*
X87550Y258067D01*
X87421Y259041D01*
X87046Y259948D01*
X86448Y260728D01*
X85668Y261326D01*
X84761Y261701D01*
X83787Y261829D01*
D02*
G37*
G36*
X73000D02*
X72026Y261701D01*
X71119Y261326D01*
X70340Y260728D01*
X69742Y259948D01*
X69366Y259041D01*
X69238Y258067D01*
X69366Y257094D01*
X69742Y256186D01*
X70340Y255407D01*
X71119Y254809D01*
X72026Y254433D01*
X73000Y254305D01*
X73974Y254433D01*
X74881Y254809D01*
X75660Y255407D01*
X76258Y256186D01*
X76634Y257094D01*
X76762Y258067D01*
X76634Y259041D01*
X76258Y259948D01*
X75660Y260728D01*
X74881Y261326D01*
X73974Y261701D01*
X73000Y261829D01*
D02*
G37*
G36*
X476500Y281371D02*
X474274Y281195D01*
X472104Y280674D01*
X470041Y279820D01*
X468138Y278654D01*
X466440Y277204D01*
X464991Y275506D01*
X463824Y273603D01*
X462970Y271540D01*
X462449Y269370D01*
X462274Y267144D01*
X462449Y264919D01*
X462970Y262748D01*
X463824Y260685D01*
X464991Y258782D01*
X466440Y257084D01*
X468138Y255635D01*
X470041Y254468D01*
X472104Y253614D01*
X474274Y253093D01*
X476500Y252918D01*
X478725Y253093D01*
X480896Y253614D01*
X482959Y254468D01*
X484862Y255635D01*
X486560Y257084D01*
X488010Y258782D01*
X489176Y260685D01*
X490030Y262748D01*
X490551Y264919D01*
X490727Y267144D01*
X490551Y269370D01*
X490030Y271540D01*
X489176Y273603D01*
X488010Y275506D01*
X486560Y277204D01*
X484862Y278654D01*
X482959Y279820D01*
X480896Y280674D01*
X478725Y281195D01*
X476500Y281371D01*
D02*
G37*
G36*
X341500Y281371D02*
X339275Y281195D01*
X337104Y280674D01*
X335041Y279820D01*
X333138Y278654D01*
X331440Y277204D01*
X329991Y275506D01*
X328824Y273603D01*
X327970Y271540D01*
X327449Y269370D01*
X327274Y267144D01*
X327449Y264919D01*
X327970Y262748D01*
X328824Y260685D01*
X329991Y258782D01*
X331440Y257084D01*
X333138Y255635D01*
X335041Y254468D01*
X337104Y253614D01*
X339275Y253093D01*
X341500Y252918D01*
X343726Y253093D01*
X345896Y253614D01*
X347959Y254468D01*
X349862Y255635D01*
X351560Y257084D01*
X353010Y258782D01*
X354176Y260685D01*
X355030Y262748D01*
X355551Y264919D01*
X355727Y267144D01*
X355551Y269370D01*
X355030Y271540D01*
X354176Y273603D01*
X353010Y275506D01*
X351560Y277204D01*
X349862Y278654D01*
X347959Y279820D01*
X345896Y280674D01*
X343726Y281195D01*
X341500Y281371D01*
D02*
G37*
G36*
X205386Y261873D02*
X204412Y261745D01*
X203505Y261369D01*
X202726Y260771D01*
X202128Y259992D01*
X201752Y259085D01*
X201624Y258111D01*
X201752Y257137D01*
X202128Y256230D01*
X202726Y255451D01*
X203505Y254853D01*
X203740Y254755D01*
X203796Y254191D01*
X203689Y254120D01*
X203336Y253592D01*
X203213Y252971D01*
X203336Y252349D01*
X203689Y251822D01*
X204216Y251469D01*
X204838Y251346D01*
X205459Y251469D01*
X205987Y251822D01*
X206339Y252349D01*
X206463Y252971D01*
X206339Y253592D01*
X206107Y253940D01*
X206295Y254469D01*
X206360Y254477D01*
X207267Y254853D01*
X208046Y255451D01*
X208644Y256230D01*
X209020Y257137D01*
X209148Y258111D01*
X209020Y259085D01*
X208644Y259992D01*
X208046Y260771D01*
X207267Y261369D01*
X206360Y261745D01*
X205386Y261873D01*
D02*
G37*
G36*
X67366Y253483D02*
X66744Y253359D01*
X66217Y253007D01*
X65865Y252479D01*
X65741Y251857D01*
X65865Y251236D01*
X66217Y250709D01*
X66744Y250356D01*
X67366Y250233D01*
X67988Y250356D01*
X68515Y250709D01*
X68867Y251236D01*
X68991Y251857D01*
X68867Y252479D01*
X68515Y253007D01*
X67988Y253359D01*
X67366Y253483D01*
D02*
G37*
G36*
X156377Y233369D02*
X155755Y233245D01*
X155228Y232893D01*
X154876Y232366D01*
X154752Y231744D01*
X154876Y231122D01*
X155228Y230595D01*
X155755Y230243D01*
X156377Y230119D01*
X156999Y230243D01*
X157526Y230595D01*
X157878Y231122D01*
X158002Y231744D01*
X157878Y232366D01*
X157526Y232893D01*
X156999Y233245D01*
X156377Y233369D01*
D02*
G37*
G36*
X181026Y231166D02*
X180404Y231042D01*
X179877Y230690D01*
X179525Y230163D01*
X179401Y229541D01*
X179525Y228919D01*
X179877Y228392D01*
X180404Y228040D01*
X181026Y227916D01*
X181648Y228040D01*
X182175Y228392D01*
X182527Y228919D01*
X182651Y229541D01*
X182527Y230163D01*
X182175Y230690D01*
X181648Y231042D01*
X181026Y231166D01*
D02*
G37*
G36*
X282057Y233608D02*
X274952D01*
Y226503D01*
X282057D01*
Y233608D01*
D02*
G37*
G36*
X268504Y233639D02*
X267577Y233517D01*
X266713Y233159D01*
X265971Y232589D01*
X265401Y231847D01*
X265043Y230983D01*
X264921Y230055D01*
X265043Y229128D01*
X265401Y228264D01*
X265971Y227521D01*
X266713Y226952D01*
X267577Y226594D01*
X268504Y226472D01*
X269432Y226594D01*
X270296Y226952D01*
X271038Y227521D01*
X271608Y228264D01*
X271966Y229128D01*
X272088Y230055D01*
X271966Y230983D01*
X271608Y231847D01*
X271038Y232589D01*
X270296Y233159D01*
X269432Y233517D01*
X268504Y233639D01*
D02*
G37*
G36*
X258504D02*
X257577Y233517D01*
X256713Y233159D01*
X255971Y232589D01*
X255401Y231847D01*
X255043Y230983D01*
X254921Y230055D01*
X255043Y229128D01*
X255401Y228264D01*
X255971Y227521D01*
X256713Y226952D01*
X257577Y226594D01*
X258504Y226472D01*
X259432Y226594D01*
X260296Y226952D01*
X261038Y227521D01*
X261608Y228264D01*
X261966Y229128D01*
X262088Y230055D01*
X261966Y230983D01*
X261608Y231847D01*
X261038Y232589D01*
X260296Y233159D01*
X259432Y233517D01*
X258504Y233639D01*
D02*
G37*
G36*
X248504D02*
X247577Y233517D01*
X246713Y233159D01*
X245971Y232589D01*
X245401Y231847D01*
X245043Y230983D01*
X244921Y230055D01*
X245043Y229128D01*
X245401Y228264D01*
X245971Y227521D01*
X246713Y226952D01*
X247577Y226594D01*
X248504Y226472D01*
X249432Y226594D01*
X250296Y226952D01*
X251038Y227521D01*
X251608Y228264D01*
X251966Y229128D01*
X252088Y230055D01*
X251966Y230983D01*
X251608Y231847D01*
X251038Y232589D01*
X250296Y233159D01*
X249432Y233517D01*
X248504Y233639D01*
D02*
G37*
G36*
X238504D02*
X237577Y233517D01*
X236713Y233159D01*
X235971Y232589D01*
X235401Y231847D01*
X235043Y230983D01*
X234921Y230055D01*
X235043Y229128D01*
X235401Y228264D01*
X235971Y227521D01*
X236713Y226952D01*
X237577Y226594D01*
X238504Y226472D01*
X239432Y226594D01*
X240296Y226952D01*
X241038Y227521D01*
X241608Y228264D01*
X241966Y229128D01*
X242088Y230055D01*
X241966Y230983D01*
X241608Y231847D01*
X241038Y232589D01*
X240296Y233159D01*
X239432Y233517D01*
X238504Y233639D01*
D02*
G37*
G36*
X228504D02*
X227577Y233517D01*
X226713Y233159D01*
X225971Y232589D01*
X225401Y231847D01*
X225043Y230983D01*
X224921Y230055D01*
X225043Y229128D01*
X225401Y228264D01*
X225971Y227521D01*
X226713Y226952D01*
X227577Y226594D01*
X228504Y226472D01*
X229432Y226594D01*
X230296Y226952D01*
X231038Y227521D01*
X231608Y228264D01*
X231966Y229128D01*
X232088Y230055D01*
X231966Y230983D01*
X231608Y231847D01*
X231038Y232589D01*
X230296Y233159D01*
X229432Y233517D01*
X228504Y233639D01*
D02*
G37*
G36*
X206476Y221399D02*
X205855Y221275D01*
X205327Y220923D01*
X204975Y220396D01*
X204851Y219774D01*
X204975Y219152D01*
X205327Y218625D01*
X205855Y218273D01*
X206476Y218149D01*
X207098Y218273D01*
X207625Y218625D01*
X207978Y219152D01*
X208101Y219774D01*
X207978Y220396D01*
X207625Y220923D01*
X207098Y221275D01*
X206476Y221399D01*
D02*
G37*
G36*
X197959Y221148D02*
X197337Y221025D01*
X196810Y220672D01*
X196458Y220145D01*
X196334Y219524D01*
X196458Y218902D01*
X196810Y218374D01*
X197337Y218022D01*
X197959Y217899D01*
X198581Y218022D01*
X199108Y218374D01*
X199460Y218902D01*
X199584Y219524D01*
X199460Y220145D01*
X199108Y220672D01*
X198581Y221025D01*
X197959Y221148D01*
D02*
G37*
G36*
X152648Y218861D02*
X152027Y218738D01*
X151499Y218385D01*
X151147Y217858D01*
X151023Y217236D01*
X151147Y216615D01*
X151499Y216087D01*
X152027Y215735D01*
X152648Y215612D01*
X153270Y215735D01*
X153797Y216087D01*
X154150Y216615D01*
X154273Y217236D01*
X154150Y217858D01*
X153797Y218385D01*
X153270Y218738D01*
X152648Y218861D01*
D02*
G37*
G36*
X206731Y215150D02*
X206109Y215026D01*
X205582Y214674D01*
X205230Y214147D01*
X205106Y213525D01*
X205230Y212903D01*
X205582Y212376D01*
X206109Y212024D01*
X206731Y211900D01*
X207353Y212024D01*
X207880Y212376D01*
X208233Y212903D01*
X208356Y213525D01*
X208233Y214147D01*
X207880Y214674D01*
X207353Y215026D01*
X206731Y215150D01*
D02*
G37*
G36*
X177471Y213293D02*
X176849Y213169D01*
X176322Y212817D01*
X175970Y212290D01*
X175846Y211668D01*
X175970Y211046D01*
X176322Y210519D01*
X176849Y210167D01*
X177471Y210043D01*
X178093Y210167D01*
X178620Y210519D01*
X178972Y211046D01*
X179096Y211668D01*
X178972Y212290D01*
X178620Y212817D01*
X178093Y213169D01*
X177471Y213293D01*
D02*
G37*
G36*
X609062Y212413D02*
X608104Y212287D01*
X607211Y211917D01*
X606444Y211329D01*
X605856Y210562D01*
X605486Y209669D01*
X605360Y208711D01*
X605486Y207752D01*
X605856Y206859D01*
X606444Y206093D01*
X607211Y205504D01*
X608104Y205134D01*
X609062Y205008D01*
X610021Y205134D01*
X610914Y205504D01*
X611681Y206093D01*
X612269Y206859D01*
X612639Y207752D01*
X612765Y208711D01*
X612639Y209669D01*
X612269Y210562D01*
X611681Y211329D01*
X610914Y211917D01*
X610021Y212287D01*
X609062Y212413D01*
D02*
G37*
G36*
X598236D02*
X597277Y212287D01*
X596384Y211917D01*
X595618Y211329D01*
X595029Y210562D01*
X594659Y209669D01*
X594533Y208711D01*
X594659Y207752D01*
X595029Y206859D01*
X595618Y206093D01*
X596384Y205504D01*
X597277Y205134D01*
X598236Y205008D01*
X599194Y205134D01*
X600087Y205504D01*
X600854Y206093D01*
X601442Y206859D01*
X601812Y207752D01*
X601938Y208711D01*
X601812Y209669D01*
X601442Y210562D01*
X600854Y211329D01*
X600087Y211917D01*
X599194Y212287D01*
X598236Y212413D01*
D02*
G37*
G36*
X587448D02*
X586490Y212287D01*
X585597Y211917D01*
X584830Y211329D01*
X584242Y210562D01*
X583872Y209669D01*
X583746Y208711D01*
X583872Y207752D01*
X584242Y206859D01*
X584830Y206093D01*
X585597Y205504D01*
X586490Y205134D01*
X587448Y205008D01*
X588407Y205134D01*
X589300Y205504D01*
X590066Y206093D01*
X590655Y206859D01*
X591025Y207752D01*
X591151Y208711D01*
X591025Y209669D01*
X590655Y210562D01*
X590066Y211329D01*
X589300Y211917D01*
X588407Y212287D01*
X587448Y212413D01*
D02*
G37*
G36*
X576661D02*
X575703Y212287D01*
X574810Y211917D01*
X574043Y211329D01*
X573455Y210562D01*
X573085Y209669D01*
X572959Y208711D01*
X573085Y207752D01*
X573455Y206859D01*
X574043Y206093D01*
X574810Y205504D01*
X575703Y205134D01*
X576661Y205008D01*
X577619Y205134D01*
X578512Y205504D01*
X579279Y206093D01*
X579868Y206859D01*
X580237Y207752D01*
X580364Y208711D01*
X580237Y209669D01*
X579868Y210562D01*
X579279Y211329D01*
X578512Y211917D01*
X577619Y212287D01*
X576661Y212413D01*
D02*
G37*
G36*
X565834D02*
X564876Y212287D01*
X563983Y211917D01*
X563216Y211329D01*
X562628Y210562D01*
X562258Y209669D01*
X562132Y208711D01*
X562258Y207752D01*
X562628Y206859D01*
X563216Y206093D01*
X563983Y205504D01*
X564876Y205134D01*
X565834Y205008D01*
X566792Y205134D01*
X567686Y205504D01*
X568452Y206093D01*
X569041Y206859D01*
X569411Y207752D01*
X569537Y208711D01*
X569411Y209669D01*
X569041Y210562D01*
X568452Y211329D01*
X567686Y211917D01*
X566792Y212287D01*
X565834Y212413D01*
D02*
G37*
G36*
X555047D02*
X554088Y212287D01*
X553195Y211917D01*
X552429Y211329D01*
X551840Y210562D01*
X551470Y209669D01*
X551344Y208711D01*
X551470Y207752D01*
X551840Y206859D01*
X552429Y206093D01*
X553195Y205504D01*
X554088Y205134D01*
X555047Y205008D01*
X556005Y205134D01*
X556898Y205504D01*
X557665Y206093D01*
X558253Y206859D01*
X558623Y207752D01*
X558749Y208711D01*
X558623Y209669D01*
X558253Y210562D01*
X557665Y211329D01*
X556898Y211917D01*
X556005Y212287D01*
X555047Y212413D01*
D02*
G37*
G36*
X97536Y208702D02*
X96578Y208576D01*
X95685Y208207D01*
X94918Y207618D01*
X94330Y206851D01*
X93960Y205958D01*
X93834Y205000D01*
X93960Y204042D01*
X94330Y203149D01*
X94918Y202382D01*
X95685Y201794D01*
X96578Y201424D01*
X97536Y201297D01*
X98494Y201424D01*
X99387Y201794D01*
X100154Y202382D01*
X100742Y203149D01*
X101112Y204042D01*
X101239Y205000D01*
X101112Y205958D01*
X100742Y206851D01*
X100154Y207618D01*
X99387Y208207D01*
X98494Y208576D01*
X97536Y208702D01*
D02*
G37*
G36*
X75922D02*
X74964Y208576D01*
X74071Y208207D01*
X73304Y207618D01*
X72715Y206851D01*
X72346Y205958D01*
X72219Y205000D01*
X72346Y204042D01*
X72715Y203149D01*
X73304Y202382D01*
X74071Y201794D01*
X74964Y201424D01*
X75922Y201297D01*
X76880Y201424D01*
X77773Y201794D01*
X78540Y202382D01*
X79128Y203149D01*
X79498Y204042D01*
X79624Y205000D01*
X79498Y205958D01*
X79128Y206851D01*
X78540Y207618D01*
X77773Y208207D01*
X76880Y208576D01*
X75922Y208702D01*
D02*
G37*
G36*
X65135D02*
X64176Y208576D01*
X63283Y208207D01*
X62516Y207618D01*
X61928Y206851D01*
X61558Y205958D01*
X61432Y205000D01*
X61558Y204042D01*
X61928Y203149D01*
X62516Y202382D01*
X63283Y201794D01*
X64176Y201424D01*
X65135Y201297D01*
X66093Y201424D01*
X66986Y201794D01*
X67753Y202382D01*
X68341Y203149D01*
X68711Y204042D01*
X68837Y205000D01*
X68711Y205958D01*
X68341Y206851D01*
X67753Y207618D01*
X66986Y208207D01*
X66093Y208576D01*
X65135Y208702D01*
D02*
G37*
G36*
X54347D02*
X53389Y208576D01*
X52496Y208207D01*
X51729Y207618D01*
X51141Y206851D01*
X50771Y205958D01*
X50644Y205000D01*
X50771Y204042D01*
X51141Y203149D01*
X51729Y202382D01*
X52496Y201794D01*
X53389Y201424D01*
X54347Y201297D01*
X55305Y201424D01*
X56198Y201794D01*
X56965Y202382D01*
X57554Y203149D01*
X57924Y204042D01*
X58050Y205000D01*
X57924Y205958D01*
X57554Y206851D01*
X56965Y207618D01*
X56198Y208207D01*
X55305Y208576D01*
X54347Y208702D01*
D02*
G37*
G36*
X43520D02*
X42562Y208576D01*
X41669Y208207D01*
X40902Y207618D01*
X40314Y206851D01*
X39944Y205958D01*
X39818Y205000D01*
X39944Y204042D01*
X40314Y203149D01*
X40902Y202382D01*
X41669Y201794D01*
X42562Y201424D01*
X43520Y201297D01*
X44479Y201424D01*
X45372Y201794D01*
X46138Y202382D01*
X46727Y203149D01*
X47097Y204042D01*
X47223Y205000D01*
X47097Y205958D01*
X46727Y206851D01*
X46138Y207618D01*
X45372Y208207D01*
X44479Y208576D01*
X43520Y208702D01*
D02*
G37*
G36*
X32733D02*
X31775Y208576D01*
X30882Y208207D01*
X30115Y207618D01*
X29526Y206851D01*
X29157Y205958D01*
X29030Y205000D01*
X29157Y204042D01*
X29526Y203149D01*
X30115Y202382D01*
X30882Y201794D01*
X31775Y201424D01*
X32733Y201297D01*
X33691Y201424D01*
X34584Y201794D01*
X35351Y202382D01*
X35939Y203149D01*
X36309Y204042D01*
X36435Y205000D01*
X36309Y205958D01*
X35939Y206851D01*
X35351Y207618D01*
X34584Y208207D01*
X33691Y208576D01*
X32733Y208702D01*
D02*
G37*
G36*
X197405Y202630D02*
X196783Y202507D01*
X196256Y202155D01*
X195904Y201627D01*
X195780Y201006D01*
X195904Y200384D01*
X196256Y199857D01*
X196783Y199504D01*
X197405Y199381D01*
X198027Y199504D01*
X198554Y199857D01*
X198906Y200384D01*
X199030Y201006D01*
X198906Y201627D01*
X198554Y202155D01*
X198027Y202507D01*
X197405Y202630D01*
D02*
G37*
G36*
X172061Y200590D02*
X171439Y200467D01*
X170912Y200115D01*
X170560Y199587D01*
X170436Y198966D01*
X170560Y198344D01*
X170912Y197817D01*
X171439Y197464D01*
X172061Y197341D01*
X172683Y197464D01*
X173210Y197817D01*
X173562Y198344D01*
X173686Y198966D01*
X173562Y199587D01*
X173210Y200115D01*
X172683Y200467D01*
X172061Y200590D01*
D02*
G37*
G36*
X213893Y203776D02*
X206787D01*
Y196670D01*
X213893D01*
Y203776D01*
D02*
G37*
G36*
X220340Y203806D02*
X219412Y203684D01*
X218548Y203326D01*
X217806Y202757D01*
X217236Y202015D01*
X216879Y201150D01*
X216756Y200223D01*
X216879Y199295D01*
X217236Y198431D01*
X217806Y197689D01*
X218548Y197120D01*
X219412Y196762D01*
X220340Y196640D01*
X221267Y196762D01*
X222131Y197120D01*
X222874Y197689D01*
X223443Y198431D01*
X223801Y199295D01*
X223923Y200223D01*
X223801Y201150D01*
X223443Y202015D01*
X222874Y202757D01*
X222131Y203326D01*
X221267Y203684D01*
X220340Y203806D01*
D02*
G37*
G36*
X553324Y201200D02*
X545982D01*
Y193859D01*
X553324D01*
Y201200D01*
D02*
G37*
G36*
X625244Y201232D02*
X624285Y201106D01*
X623392Y200736D01*
X622625Y200148D01*
X622037Y199381D01*
X621667Y198488D01*
X621541Y197529D01*
X621667Y196571D01*
X622037Y195678D01*
X622625Y194911D01*
X623392Y194323D01*
X624285Y193953D01*
X625244Y193827D01*
X626202Y193953D01*
X627095Y194323D01*
X627862Y194911D01*
X628450Y195678D01*
X628820Y196571D01*
X628946Y197529D01*
X628820Y198488D01*
X628450Y199381D01*
X627862Y200148D01*
X627095Y200736D01*
X626202Y201106D01*
X625244Y201232D01*
D02*
G37*
G36*
X614456D02*
X613498Y201106D01*
X612605Y200736D01*
X611838Y200148D01*
X611250Y199381D01*
X610880Y198488D01*
X610754Y197529D01*
X610880Y196571D01*
X611250Y195678D01*
X611838Y194911D01*
X612605Y194323D01*
X613498Y193953D01*
X614456Y193827D01*
X615414Y193953D01*
X616307Y194323D01*
X617074Y194911D01*
X617663Y195678D01*
X618033Y196571D01*
X618159Y197529D01*
X618033Y198488D01*
X617663Y199381D01*
X617074Y200148D01*
X616307Y200736D01*
X615414Y201106D01*
X614456Y201232D01*
D02*
G37*
G36*
X603669D02*
X602710Y201106D01*
X601818Y200736D01*
X601051Y200148D01*
X600462Y199381D01*
X600092Y198488D01*
X599966Y197529D01*
X600092Y196571D01*
X600462Y195678D01*
X601051Y194911D01*
X601818Y194323D01*
X602710Y193953D01*
X603669Y193827D01*
X604627Y193953D01*
X605520Y194323D01*
X606287Y194911D01*
X606875Y195678D01*
X607245Y196571D01*
X607371Y197529D01*
X607245Y198488D01*
X606875Y199381D01*
X606287Y200148D01*
X605520Y200736D01*
X604627Y201106D01*
X603669Y201232D01*
D02*
G37*
G36*
X592881D02*
X591923Y201106D01*
X591030Y200736D01*
X590263Y200148D01*
X589675Y199381D01*
X589305Y198488D01*
X589179Y197529D01*
X589305Y196571D01*
X589675Y195678D01*
X590263Y194911D01*
X591030Y194323D01*
X591923Y193953D01*
X592881Y193827D01*
X593840Y193953D01*
X594733Y194323D01*
X595500Y194911D01*
X596088Y195678D01*
X596458Y196571D01*
X596584Y197529D01*
X596458Y198488D01*
X596088Y199381D01*
X595500Y200148D01*
X594733Y200736D01*
X593840Y201106D01*
X592881Y201232D01*
D02*
G37*
G36*
X582015D02*
X581057Y201106D01*
X580164Y200736D01*
X579397Y200148D01*
X578809Y199381D01*
X578439Y198488D01*
X578313Y197529D01*
X578439Y196571D01*
X578809Y195678D01*
X579397Y194911D01*
X580164Y194323D01*
X581057Y193953D01*
X582015Y193827D01*
X582973Y193953D01*
X583867Y194323D01*
X584633Y194911D01*
X585222Y195678D01*
X585592Y196571D01*
X585718Y197529D01*
X585592Y198488D01*
X585222Y199381D01*
X584633Y200148D01*
X583867Y200736D01*
X582973Y201106D01*
X582015Y201232D01*
D02*
G37*
G36*
X571228D02*
X570269Y201106D01*
X569377Y200736D01*
X568610Y200148D01*
X568021Y199381D01*
X567651Y198488D01*
X567525Y197529D01*
X567651Y196571D01*
X568021Y195678D01*
X568610Y194911D01*
X569377Y194323D01*
X570269Y193953D01*
X571228Y193827D01*
X572186Y193953D01*
X573079Y194323D01*
X573846Y194911D01*
X574434Y195678D01*
X574804Y196571D01*
X574930Y197529D01*
X574804Y198488D01*
X574434Y199381D01*
X573846Y200148D01*
X573079Y200736D01*
X572186Y201106D01*
X571228Y201232D01*
D02*
G37*
G36*
X560440D02*
X559482Y201106D01*
X558589Y200736D01*
X557822Y200148D01*
X557234Y199381D01*
X556864Y198488D01*
X556738Y197529D01*
X556864Y196571D01*
X557234Y195678D01*
X557822Y194911D01*
X558589Y194323D01*
X559482Y193953D01*
X560440Y193827D01*
X561399Y193953D01*
X562292Y194323D01*
X563059Y194911D01*
X563647Y195678D01*
X564017Y196571D01*
X564143Y197529D01*
X564017Y198488D01*
X563647Y199381D01*
X563059Y200148D01*
X562292Y200736D01*
X561399Y201106D01*
X560440Y201232D01*
D02*
G37*
G36*
X521858Y212772D02*
X519975Y212587D01*
X518164Y212038D01*
X516495Y211146D01*
X515032Y209945D01*
X513832Y208483D01*
X512940Y206814D01*
X512391Y205003D01*
X512205Y203120D01*
X512391Y201237D01*
X512940Y199426D01*
X513832Y197757D01*
X515032Y196295D01*
X516495Y195094D01*
X518164Y194202D01*
X519975Y193653D01*
X521858Y193468D01*
X523741Y193653D01*
X525552Y194202D01*
X527220Y195094D01*
X528683Y196295D01*
X529883Y197757D01*
X530775Y199426D01*
X531325Y201237D01*
X531510Y203120D01*
X531325Y205003D01*
X530775Y206814D01*
X529883Y208483D01*
X528683Y209945D01*
X527220Y211146D01*
X525552Y212038D01*
X523741Y212587D01*
X521858Y212772D01*
D02*
G37*
G36*
X265996Y194589D02*
X265374Y194466D01*
X264847Y194114D01*
X264494Y193586D01*
X264371Y192965D01*
X264494Y192343D01*
X264847Y191816D01*
X265374Y191463D01*
X265996Y191340D01*
X266617Y191463D01*
X267145Y191816D01*
X267497Y192343D01*
X267620Y192965D01*
X267497Y193586D01*
X267145Y194114D01*
X266617Y194466D01*
X265996Y194589D01*
D02*
G37*
G36*
X288425Y196639D02*
X287803Y196515D01*
X287276Y196163D01*
X286924Y195636D01*
X286800Y195014D01*
X286924Y194392D01*
X287276Y193865D01*
X287803Y193513D01*
X288425Y193389D01*
X289047Y193513D01*
X289139Y193574D01*
X289499Y193213D01*
X289418Y193091D01*
X289294Y192469D01*
X289418Y191848D01*
X289770Y191320D01*
X290297Y190968D01*
X290919Y190845D01*
X291541Y190968D01*
X292068Y191320D01*
X292420Y191848D01*
X292544Y192469D01*
X292420Y193091D01*
X292068Y193618D01*
X291541Y193971D01*
X290919Y194094D01*
X290297Y193971D01*
X290205Y193909D01*
X289845Y194270D01*
X289926Y194392D01*
X290050Y195014D01*
X289926Y195636D01*
X289574Y196163D01*
X289047Y196515D01*
X288425Y196639D01*
D02*
G37*
G36*
X31010Y197490D02*
X23668D01*
Y190148D01*
X31010D01*
Y197490D01*
D02*
G37*
G36*
X102930Y197521D02*
X101971Y197395D01*
X101078Y197025D01*
X100312Y196437D01*
X99723Y195670D01*
X99353Y194777D01*
X99227Y193819D01*
X99353Y192861D01*
X99723Y191968D01*
X100312Y191201D01*
X101078Y190612D01*
X101971Y190243D01*
X102930Y190116D01*
X103888Y190243D01*
X104781Y190612D01*
X105548Y191201D01*
X106136Y191968D01*
X106506Y192861D01*
X106632Y193819D01*
X106506Y194777D01*
X106136Y195670D01*
X105548Y196437D01*
X104781Y197025D01*
X103888Y197395D01*
X102930Y197521D01*
D02*
G37*
G36*
X92142D02*
X91184Y197395D01*
X90291Y197025D01*
X89524Y196437D01*
X88936Y195670D01*
X88566Y194777D01*
X88440Y193819D01*
X88566Y192861D01*
X88936Y191968D01*
X89524Y191201D01*
X90291Y190612D01*
X91184Y190243D01*
X92142Y190116D01*
X93101Y190243D01*
X93994Y190612D01*
X94760Y191201D01*
X95349Y191968D01*
X95719Y192861D01*
X95845Y193819D01*
X95719Y194777D01*
X95349Y195670D01*
X94760Y196437D01*
X93994Y197025D01*
X93101Y197395D01*
X92142Y197521D01*
D02*
G37*
G36*
X81355D02*
X80397Y197395D01*
X79504Y197025D01*
X78737Y196437D01*
X78149Y195670D01*
X77779Y194777D01*
X77652Y193819D01*
X77779Y192861D01*
X78149Y191968D01*
X78737Y191201D01*
X79504Y190612D01*
X80397Y190243D01*
X81355Y190116D01*
X82313Y190243D01*
X83206Y190612D01*
X83973Y191201D01*
X84561Y191968D01*
X84931Y192861D01*
X85057Y193819D01*
X84931Y194777D01*
X84561Y195670D01*
X83973Y196437D01*
X83206Y197025D01*
X82313Y197395D01*
X81355Y197521D01*
D02*
G37*
G36*
X70568D02*
X69609Y197395D01*
X68716Y197025D01*
X67949Y196437D01*
X67361Y195670D01*
X66991Y194777D01*
X66865Y193819D01*
X66991Y192861D01*
X67361Y191968D01*
X67949Y191201D01*
X68716Y190612D01*
X69609Y190243D01*
X70568Y190116D01*
X71526Y190243D01*
X72419Y190612D01*
X73186Y191201D01*
X73774Y191968D01*
X74144Y192861D01*
X74270Y193819D01*
X74144Y194777D01*
X73774Y195670D01*
X73186Y196437D01*
X72419Y197025D01*
X71526Y197395D01*
X70568Y197521D01*
D02*
G37*
G36*
X59701D02*
X58743Y197395D01*
X57850Y197025D01*
X57083Y196437D01*
X56495Y195670D01*
X56125Y194777D01*
X55999Y193819D01*
X56125Y192861D01*
X56495Y191968D01*
X57083Y191201D01*
X57850Y190612D01*
X58743Y190243D01*
X59701Y190116D01*
X60660Y190243D01*
X61553Y190612D01*
X62319Y191201D01*
X62908Y191968D01*
X63278Y192861D01*
X63404Y193819D01*
X63278Y194777D01*
X62908Y195670D01*
X62319Y196437D01*
X61553Y197025D01*
X60660Y197395D01*
X59701Y197521D01*
D02*
G37*
G36*
X48914D02*
X47956Y197395D01*
X47063Y197025D01*
X46296Y196437D01*
X45707Y195670D01*
X45338Y194777D01*
X45211Y193819D01*
X45338Y192861D01*
X45707Y191968D01*
X46296Y191201D01*
X47063Y190612D01*
X47956Y190243D01*
X48914Y190116D01*
X49872Y190243D01*
X50765Y190612D01*
X51532Y191201D01*
X52121Y191968D01*
X52490Y192861D01*
X52617Y193819D01*
X52490Y194777D01*
X52121Y195670D01*
X51532Y196437D01*
X50765Y197025D01*
X49872Y197395D01*
X48914Y197521D01*
D02*
G37*
G36*
X130725Y209062D02*
X128842Y208876D01*
X127031Y208327D01*
X125362Y207435D01*
X123900Y206235D01*
X122699Y204772D01*
X121807Y203103D01*
X121258Y201292D01*
X121073Y199409D01*
X121258Y197526D01*
X121807Y195716D01*
X122699Y194047D01*
X123900Y192584D01*
X125362Y191384D01*
X127031Y190492D01*
X128842Y189943D01*
X130725Y189757D01*
X132608Y189943D01*
X134419Y190492D01*
X136088Y191384D01*
X137550Y192584D01*
X138751Y194047D01*
X139643Y195716D01*
X140192Y197526D01*
X140377Y199409D01*
X140192Y201292D01*
X139643Y203103D01*
X138751Y204772D01*
X137550Y206235D01*
X136088Y207435D01*
X134419Y208327D01*
X132608Y208876D01*
X130725Y209062D01*
D02*
G37*
G36*
X-456D02*
X-2339Y208876D01*
X-4150Y208327D01*
X-5819Y207435D01*
X-7281Y206235D01*
X-8482Y204772D01*
X-9374Y203103D01*
X-9923Y201292D01*
X-10108Y199409D01*
X-9923Y197526D01*
X-9374Y195716D01*
X-8482Y194047D01*
X-7281Y192584D01*
X-5819Y191384D01*
X-4150Y190492D01*
X-2339Y189943D01*
X-456Y189757D01*
X1427Y189943D01*
X3238Y190492D01*
X4907Y191384D01*
X6369Y192584D01*
X7570Y194047D01*
X8462Y195716D01*
X9011Y197526D01*
X9196Y199409D01*
X9011Y201292D01*
X8462Y203103D01*
X7570Y204772D01*
X6369Y206235D01*
X4907Y207435D01*
X3238Y208327D01*
X1427Y208876D01*
X-456Y209062D01*
D02*
G37*
G36*
X279987Y191261D02*
X279365Y191137D01*
X278838Y190785D01*
X278486Y190258D01*
X278362Y189636D01*
X278486Y189014D01*
X278838Y188487D01*
X279365Y188135D01*
X279987Y188011D01*
X280609Y188135D01*
X281136Y188487D01*
X281488Y189014D01*
X281612Y189636D01*
X281488Y190258D01*
X281136Y190785D01*
X280609Y191137D01*
X279987Y191261D01*
D02*
G37*
G36*
X272319D02*
X271697Y191137D01*
X271170Y190785D01*
X270818Y190258D01*
X270694Y189636D01*
X270818Y189014D01*
X271170Y188487D01*
X271697Y188135D01*
X272319Y188011D01*
X272941Y188135D01*
X273468Y188487D01*
X273820Y189014D01*
X273944Y189636D01*
X273820Y190258D01*
X273468Y190785D01*
X272941Y191137D01*
X272319Y191261D01*
D02*
G37*
G36*
X255909Y179625D02*
X255288Y179501D01*
X254761Y179149D01*
X254408Y178622D01*
X254285Y178000D01*
X254408Y177378D01*
X254761Y176851D01*
X255288Y176499D01*
X255909Y176375D01*
X256531Y176499D01*
X257059Y176851D01*
X257411Y177378D01*
X257534Y178000D01*
X257411Y178622D01*
X257059Y179149D01*
X256531Y179501D01*
X255909Y179625D01*
D02*
G37*
G36*
X288088Y178830D02*
X287467Y178706D01*
X286940Y178354D01*
X286587Y177827D01*
X286464Y177205D01*
X286587Y176583D01*
X286940Y176056D01*
X287467Y175704D01*
X288088Y175580D01*
X288710Y175704D01*
X289237Y176056D01*
X289590Y176583D01*
X289713Y177205D01*
X289590Y177827D01*
X289237Y178354D01*
X288710Y178706D01*
X288088Y178830D01*
D02*
G37*
G36*
X213938Y182382D02*
X206832D01*
Y175276D01*
X213938D01*
Y182382D01*
D02*
G37*
G36*
X220385Y182412D02*
X219457Y182290D01*
X218593Y181932D01*
X217851Y181363D01*
X217282Y180621D01*
X216924Y179756D01*
X216802Y178829D01*
X216924Y177901D01*
X217282Y177037D01*
X217851Y176295D01*
X218593Y175726D01*
X219457Y175368D01*
X220385Y175246D01*
X221312Y175368D01*
X222177Y175726D01*
X222919Y176295D01*
X223488Y177037D01*
X223846Y177901D01*
X223968Y178829D01*
X223846Y179756D01*
X223488Y180621D01*
X222919Y181363D01*
X222177Y181932D01*
X221312Y182290D01*
X220385Y182412D01*
D02*
G37*
G36*
X176125Y178366D02*
X175503Y178242D01*
X174976Y177890D01*
X174624Y177363D01*
X174500Y176741D01*
X174624Y176119D01*
X174976Y175592D01*
X175503Y175239D01*
X176125Y175116D01*
X176747Y175239D01*
X177274Y175592D01*
X177626Y176119D01*
X177750Y176741D01*
X177626Y177363D01*
X177274Y177890D01*
X176747Y178242D01*
X176125Y178366D01*
D02*
G37*
G36*
X267911Y176664D02*
X267289Y176541D01*
X266762Y176188D01*
X266410Y175661D01*
X266286Y175039D01*
X266410Y174418D01*
X266762Y173890D01*
X267289Y173538D01*
X267911Y173415D01*
X268533Y173538D01*
X269060Y173890D01*
X269413Y174418D01*
X269536Y175039D01*
X269413Y175661D01*
X269060Y176188D01*
X268533Y176541D01*
X267911Y176664D01*
D02*
G37*
G36*
X296094Y175546D02*
X295473Y175423D01*
X294945Y175070D01*
X294593Y174543D01*
X294469Y173921D01*
X294593Y173300D01*
X294945Y172772D01*
X295473Y172420D01*
X296094Y172296D01*
X296716Y172420D01*
X297243Y172772D01*
X297596Y173300D01*
X297719Y173921D01*
X297596Y174543D01*
X297243Y175070D01*
X296716Y175423D01*
X296094Y175546D01*
D02*
G37*
G36*
X282380Y175483D02*
X281758Y175360D01*
X281231Y175007D01*
X280879Y174480D01*
X280755Y173858D01*
X280879Y173237D01*
X281231Y172709D01*
X281758Y172357D01*
X282380Y172233D01*
X283002Y172357D01*
X283529Y172709D01*
X283881Y173237D01*
X284005Y173858D01*
X283881Y174480D01*
X283529Y175007D01*
X283002Y175360D01*
X282380Y175483D01*
D02*
G37*
G36*
X290761Y171695D02*
X290140Y171571D01*
X289612Y171219D01*
X289260Y170692D01*
X289136Y170070D01*
X289260Y169448D01*
X289612Y168921D01*
X290140Y168569D01*
X290761Y168445D01*
X291383Y168569D01*
X291910Y168921D01*
X292263Y169448D01*
X292386Y170070D01*
X292263Y170692D01*
X291910Y171219D01*
X291383Y171571D01*
X290761Y171695D01*
D02*
G37*
G36*
X272778Y174045D02*
X272156Y173921D01*
X271629Y173569D01*
X271276Y173042D01*
X271153Y172420D01*
X271276Y171798D01*
X271629Y171271D01*
X271959Y171050D01*
Y170487D01*
X271629Y170266D01*
X271276Y169739D01*
X271153Y169117D01*
X271276Y168496D01*
X271629Y167968D01*
X272156Y167616D01*
X272778Y167492D01*
X273399Y167616D01*
X273927Y167968D01*
X274279Y168496D01*
X274402Y169117D01*
X274279Y169739D01*
X273927Y170266D01*
X273596Y170487D01*
Y171050D01*
X273927Y171271D01*
X274279Y171798D01*
X274402Y172420D01*
X274279Y173042D01*
X273927Y173569D01*
X273399Y173921D01*
X272778Y174045D01*
D02*
G37*
G36*
X541235Y173475D02*
X540613Y173351D01*
X540086Y172999D01*
X539734Y172472D01*
X539610Y171850D01*
X539734Y171228D01*
X540086Y170701D01*
X540463Y170449D01*
X540479Y170399D01*
Y169943D01*
X540463Y169893D01*
X540086Y169641D01*
X539734Y169114D01*
X539610Y168492D01*
X539734Y167870D01*
X540086Y167343D01*
X540613Y166991D01*
X541235Y166867D01*
X541857Y166991D01*
X542384Y167343D01*
X542736Y167870D01*
X542860Y168492D01*
X542736Y169114D01*
X542384Y169641D01*
X542007Y169893D01*
X541990Y169943D01*
Y170399D01*
X542007Y170449D01*
X542384Y170701D01*
X542736Y171228D01*
X542860Y171850D01*
X542736Y172472D01*
X542384Y172999D01*
X541857Y173351D01*
X541235Y173475D01*
D02*
G37*
G36*
X240549Y169578D02*
X239927Y169454D01*
X239400Y169102D01*
X239048Y168575D01*
X238924Y167953D01*
X239048Y167331D01*
X239400Y166804D01*
X239927Y166452D01*
X240549Y166328D01*
X241171Y166452D01*
X241698Y166804D01*
X242050Y167331D01*
X242174Y167953D01*
X242050Y168575D01*
X241698Y169102D01*
X241171Y169454D01*
X240549Y169578D01*
D02*
G37*
G36*
X607118Y172681D02*
X606190Y172559D01*
X605326Y172201D01*
X604584Y171631D01*
X604014Y170889D01*
X603656Y170025D01*
X603534Y169097D01*
X603656Y168170D01*
X604014Y167306D01*
X604584Y166563D01*
X605326Y165994D01*
X606190Y165636D01*
X607118Y165514D01*
X608045Y165636D01*
X608909Y165994D01*
X609651Y166563D01*
X610221Y167306D01*
X610579Y168170D01*
X610701Y169097D01*
X610579Y170025D01*
X610221Y170889D01*
X609651Y171631D01*
X608909Y172201D01*
X608045Y172559D01*
X607118Y172681D01*
D02*
G37*
G36*
X597118D02*
X596190Y172559D01*
X595326Y172201D01*
X594584Y171631D01*
X594014Y170889D01*
X593656Y170025D01*
X593534Y169097D01*
X593656Y168170D01*
X594014Y167306D01*
X594584Y166563D01*
X595326Y165994D01*
X596190Y165636D01*
X597118Y165514D01*
X598045Y165636D01*
X598909Y165994D01*
X599651Y166563D01*
X600221Y167306D01*
X600579Y168170D01*
X600701Y169097D01*
X600579Y170025D01*
X600221Y170889D01*
X599651Y171631D01*
X598909Y172201D01*
X598045Y172559D01*
X597118Y172681D01*
D02*
G37*
G36*
X207007Y165387D02*
X206385Y165263D01*
X205858Y164911D01*
X205556Y164459D01*
X205284Y164418D01*
X205011Y164459D01*
X204709Y164911D01*
X204182Y165263D01*
X203560Y165387D01*
X202938Y165263D01*
X202411Y164911D01*
X202059Y164384D01*
X201935Y163762D01*
X202059Y163140D01*
X202411Y162613D01*
X202938Y162261D01*
X203560Y162137D01*
X204182Y162261D01*
X204709Y162613D01*
X205011Y163065D01*
X205284Y163107D01*
X205556Y163065D01*
X205858Y162613D01*
X206385Y162261D01*
X207007Y162137D01*
X207629Y162261D01*
X208156Y162613D01*
X208508Y163140D01*
X208632Y163762D01*
X208508Y164384D01*
X208156Y164911D01*
X207629Y165263D01*
X207007Y165387D01*
D02*
G37*
G36*
X541235Y166170D02*
X540613Y166047D01*
X540086Y165694D01*
X539734Y165167D01*
X539610Y164545D01*
X539734Y163924D01*
X540086Y163396D01*
X540613Y163044D01*
X541235Y162920D01*
X541857Y163044D01*
X542384Y163396D01*
X542736Y163924D01*
X542860Y164545D01*
X542736Y165167D01*
X542384Y165694D01*
X541857Y166047D01*
X541235Y166170D01*
D02*
G37*
G36*
X274943Y165387D02*
X274321Y165263D01*
X273794Y164911D01*
X273442Y164384D01*
X273318Y163762D01*
X273442Y163140D01*
X273794Y162613D01*
X274321Y162261D01*
X274943Y162137D01*
X275565Y162261D01*
X276092Y162613D01*
X276444Y163140D01*
X276568Y163762D01*
X276444Y164384D01*
X276092Y164911D01*
X275565Y165263D01*
X274943Y165387D01*
D02*
G37*
G36*
X241924Y164757D02*
X241302Y164634D01*
X240775Y164281D01*
X240422Y163754D01*
X240299Y163133D01*
X240422Y162511D01*
X240775Y161984D01*
X241302Y161631D01*
X241924Y161507D01*
X242545Y161631D01*
X243073Y161984D01*
X243425Y162511D01*
X243548Y163133D01*
X243425Y163754D01*
X243073Y164281D01*
X242545Y164634D01*
X241924Y164757D01*
D02*
G37*
G36*
X181027Y164621D02*
X180406Y164497D01*
X179878Y164145D01*
X179526Y163618D01*
X179402Y162996D01*
X179526Y162374D01*
X179878Y161847D01*
X180406Y161495D01*
X181027Y161371D01*
X181649Y161495D01*
X182176Y161847D01*
X182529Y162374D01*
X182652Y162996D01*
X182529Y163618D01*
X182176Y164145D01*
X181649Y164497D01*
X181027Y164621D01*
D02*
G37*
G36*
X632618Y163551D02*
X631996Y163427D01*
X631469Y163075D01*
X631116Y162548D01*
X630993Y161926D01*
X631116Y161304D01*
X631469Y160777D01*
X631996Y160425D01*
X632618Y160301D01*
X633240Y160425D01*
X633767Y160777D01*
X634119Y161304D01*
X634243Y161926D01*
X634119Y162548D01*
X633767Y163075D01*
X633240Y163427D01*
X632618Y163551D01*
D02*
G37*
G36*
X628827D02*
X628206Y163427D01*
X627678Y163075D01*
X627326Y162548D01*
X627203Y161926D01*
X627326Y161304D01*
X627678Y160777D01*
X628206Y160425D01*
X628827Y160301D01*
X629449Y160425D01*
X629976Y160777D01*
X630329Y161304D01*
X630452Y161926D01*
X630329Y162548D01*
X629976Y163075D01*
X629449Y163427D01*
X628827Y163551D01*
D02*
G37*
G36*
X625037D02*
X624415Y163427D01*
X623888Y163075D01*
X623536Y162548D01*
X623412Y161926D01*
X623536Y161304D01*
X623888Y160777D01*
X624415Y160425D01*
X625037Y160301D01*
X625659Y160425D01*
X626186Y160777D01*
X626538Y161304D01*
X626662Y161926D01*
X626538Y162548D01*
X626186Y163075D01*
X625659Y163427D01*
X625037Y163551D01*
D02*
G37*
G36*
X287646Y162540D02*
X287024Y162416D01*
X286497Y162064D01*
X286145Y161537D01*
X286021Y160915D01*
X286145Y160293D01*
X286497Y159766D01*
X287024Y159413D01*
X287646Y159290D01*
X288268Y159413D01*
X288795Y159766D01*
X289147Y160293D01*
X289271Y160915D01*
X289147Y161537D01*
X288795Y162064D01*
X288268Y162416D01*
X287646Y162540D01*
D02*
G37*
G36*
X261822Y154536D02*
X261200Y154412D01*
X260673Y154060D01*
X260321Y153533D01*
X260197Y152911D01*
X260321Y152289D01*
X260673Y151762D01*
X261200Y151410D01*
X261822Y151286D01*
X262444Y151410D01*
X262971Y151762D01*
X263323Y152289D01*
X263447Y152911D01*
X263323Y153533D01*
X262971Y154060D01*
X262444Y154412D01*
X261822Y154536D01*
D02*
G37*
G36*
X222679Y152428D02*
X222057Y152304D01*
X221530Y151952D01*
X221177Y151425D01*
X221054Y150803D01*
X221177Y150181D01*
X221530Y149654D01*
X222057Y149302D01*
X222679Y149178D01*
X223300Y149302D01*
X223828Y149654D01*
X224040Y149972D01*
X224511Y149777D01*
X224477Y149603D01*
X224600Y148981D01*
X224953Y148454D01*
X225480Y148102D01*
X226102Y147978D01*
X226723Y148102D01*
X227251Y148454D01*
X227603Y148981D01*
X227727Y149603D01*
X227603Y150225D01*
X227251Y150752D01*
X226723Y151104D01*
X226102Y151228D01*
X225480Y151104D01*
X224953Y150752D01*
X224740Y150434D01*
X224269Y150629D01*
X224304Y150803D01*
X224180Y151425D01*
X223828Y151952D01*
X223300Y152304D01*
X222679Y152428D01*
D02*
G37*
G36*
X231379Y151105D02*
X230757Y150981D01*
X230230Y150629D01*
X229878Y150102D01*
X229754Y149480D01*
X229878Y148858D01*
X230230Y148331D01*
X230757Y147978D01*
X231379Y147855D01*
X232001Y147978D01*
X232528Y148331D01*
X232880Y148858D01*
X233004Y149480D01*
X232880Y150102D01*
X232528Y150629D01*
X232001Y150981D01*
X231379Y151105D01*
D02*
G37*
G36*
X150514Y150079D02*
X149893Y149955D01*
X149365Y149603D01*
X149013Y149076D01*
X148890Y148454D01*
X149013Y147832D01*
X149365Y147305D01*
X149893Y146953D01*
X150514Y146829D01*
X151136Y146953D01*
X151663Y147305D01*
X152016Y147832D01*
X152139Y148454D01*
X152016Y149076D01*
X151663Y149603D01*
X151136Y149955D01*
X150514Y150079D01*
D02*
G37*
G36*
X236062Y141371D02*
X235440Y141247D01*
X234913Y140895D01*
X234561Y140367D01*
X234437Y139746D01*
X234561Y139124D01*
X234913Y138597D01*
X235440Y138244D01*
X236062Y138121D01*
X236684Y138244D01*
X237211Y138597D01*
X237563Y139124D01*
X237687Y139746D01*
X237563Y140367D01*
X237211Y140895D01*
X236684Y141247D01*
X236062Y141371D01*
D02*
G37*
G36*
X251810Y140702D02*
X251188Y140578D01*
X250661Y140226D01*
X250309Y139699D01*
X250185Y139077D01*
X250309Y138455D01*
X250661Y137928D01*
X251188Y137576D01*
X251810Y137452D01*
X252432Y137576D01*
X252959Y137928D01*
X253311Y138455D01*
X253435Y139077D01*
X253311Y139699D01*
X252959Y140226D01*
X252432Y140578D01*
X251810Y140702D01*
D02*
G37*
G36*
X295819Y139063D02*
X295198Y138939D01*
X294670Y138587D01*
X294318Y138060D01*
X294195Y137438D01*
X294318Y136816D01*
X294670Y136289D01*
X295198Y135937D01*
X295819Y135813D01*
X296441Y135937D01*
X296968Y136289D01*
X297321Y136816D01*
X297444Y137438D01*
X297321Y138060D01*
X296968Y138587D01*
X296441Y138939D01*
X295819Y139063D01*
D02*
G37*
G36*
X269477Y138534D02*
X268855Y138410D01*
X268328Y138058D01*
X267975Y137531D01*
X267852Y136909D01*
X267975Y136287D01*
X268328Y135760D01*
X268855Y135408D01*
X269477Y135284D01*
X270099Y135408D01*
X270626Y135760D01*
X270978Y136287D01*
X271102Y136909D01*
X270978Y137531D01*
X270626Y138058D01*
X270099Y138410D01*
X269477Y138534D01*
D02*
G37*
G36*
X200716Y138429D02*
X200094Y138305D01*
X199567Y137953D01*
X199215Y137426D01*
X199091Y136804D01*
X199215Y136182D01*
X199567Y135655D01*
X200094Y135303D01*
X200716Y135179D01*
X201338Y135303D01*
X201865Y135655D01*
X202217Y136182D01*
X202341Y136804D01*
X202217Y137426D01*
X201865Y137953D01*
X201338Y138305D01*
X200716Y138429D01*
D02*
G37*
G36*
X256037Y138518D02*
X255416Y138394D01*
X254888Y138042D01*
X254536Y137515D01*
X254413Y136893D01*
X254536Y136271D01*
X254888Y135744D01*
X255416Y135392D01*
X256037Y135268D01*
X256659Y135392D01*
X256711Y135427D01*
X257267Y135197D01*
X257285Y135103D01*
X257638Y134575D01*
X258165Y134223D01*
X258787Y134100D01*
X259409Y134223D01*
X259936Y134575D01*
X260288Y135103D01*
X260412Y135724D01*
X260288Y136346D01*
X259936Y136873D01*
X259409Y137226D01*
X258787Y137349D01*
X258165Y137226D01*
X258113Y137191D01*
X257557Y137421D01*
X257539Y137515D01*
X257186Y138042D01*
X256659Y138394D01*
X256037Y138518D01*
D02*
G37*
G36*
X216193Y130289D02*
X215571Y130165D01*
X215044Y129813D01*
X214692Y129286D01*
X214568Y128664D01*
X214692Y128042D01*
X215044Y127515D01*
X215571Y127163D01*
X216193Y127039D01*
X216815Y127163D01*
X217342Y127515D01*
X217694Y128042D01*
X217818Y128664D01*
X217694Y129286D01*
X217342Y129813D01*
X216815Y130165D01*
X216193Y130289D01*
D02*
G37*
G36*
X-4208Y128945D02*
X-4830Y128821D01*
X-5357Y128469D01*
X-5710Y127941D01*
X-5833Y127320D01*
X-5710Y126698D01*
X-5357Y126171D01*
X-4830Y125818D01*
X-4208Y125695D01*
X-3587Y125818D01*
X-3059Y126171D01*
X-2707Y126698D01*
X-2583Y127320D01*
X-2707Y127941D01*
X-3059Y128469D01*
X-3587Y128821D01*
X-4208Y128945D01*
D02*
G37*
G36*
X-9208D02*
X-9830Y128821D01*
X-10357Y128469D01*
X-10710Y127941D01*
X-10833Y127320D01*
X-10710Y126698D01*
X-10357Y126171D01*
X-9830Y125818D01*
X-9208Y125695D01*
X-8587Y125818D01*
X-8059Y126171D01*
X-7707Y126698D01*
X-7583Y127320D01*
X-7707Y127941D01*
X-8059Y128469D01*
X-8587Y128821D01*
X-9208Y128945D01*
D02*
G37*
G36*
X202886Y135073D02*
X202265Y134950D01*
X201737Y134597D01*
X201385Y134070D01*
X201261Y133448D01*
X201385Y132826D01*
X201737Y132299D01*
X202265Y131947D01*
X202687Y131863D01*
X202796Y131334D01*
X202766Y131315D01*
X202414Y130788D01*
X202290Y130166D01*
X202414Y129544D01*
X202766Y129017D01*
X203210Y128720D01*
X203295Y128655D01*
X203376Y128138D01*
X203225Y127912D01*
X203101Y127291D01*
X203225Y126669D01*
X203577Y126142D01*
X204105Y125789D01*
X204727Y125666D01*
X205348Y125789D01*
X205875Y126142D01*
X206228Y126669D01*
X206351Y127291D01*
X206228Y127912D01*
X205875Y128440D01*
X205432Y128736D01*
X205347Y128801D01*
X205265Y129318D01*
X205416Y129544D01*
X205540Y130166D01*
X205416Y130788D01*
X205064Y131315D01*
X204537Y131667D01*
X204115Y131751D01*
X204006Y132280D01*
X204035Y132299D01*
X204388Y132826D01*
X204511Y133448D01*
X204388Y134070D01*
X204035Y134597D01*
X203508Y134950D01*
X202886Y135073D01*
D02*
G37*
G36*
X288857Y134744D02*
X288235Y134620D01*
X287708Y134268D01*
X287356Y133741D01*
X287232Y133119D01*
X287356Y132497D01*
X287708Y131970D01*
X288235Y131618D01*
X288422Y131581D01*
Y131071D01*
X288235Y131034D01*
X287708Y130682D01*
X287356Y130154D01*
X287232Y129533D01*
X287356Y128911D01*
X287708Y128384D01*
X288107Y128117D01*
X288136Y128013D01*
Y127665D01*
X288107Y127561D01*
X287708Y127295D01*
X287356Y126767D01*
X287232Y126146D01*
X287356Y125524D01*
X287708Y124997D01*
X288235Y124644D01*
X288857Y124521D01*
X289479Y124644D01*
X290006Y124997D01*
X290358Y125524D01*
X290482Y126146D01*
X290358Y126767D01*
X290006Y127295D01*
X289607Y127561D01*
X289579Y127665D01*
Y128013D01*
X289607Y128117D01*
X290006Y128384D01*
X290358Y128911D01*
X290482Y129533D01*
X290358Y130154D01*
X290006Y130682D01*
X289479Y131034D01*
X289292Y131071D01*
Y131581D01*
X289479Y131618D01*
X290006Y131970D01*
X290358Y132497D01*
X290482Y133119D01*
X290358Y133741D01*
X290006Y134268D01*
X289479Y134620D01*
X288857Y134744D01*
D02*
G37*
G36*
X-1708Y123944D02*
X-2330Y123821D01*
X-2857Y123469D01*
X-3210Y122941D01*
X-3333Y122320D01*
X-3210Y121698D01*
X-2857Y121171D01*
X-2330Y120818D01*
X-1708Y120695D01*
X-1087Y120818D01*
X-559Y121171D01*
X-207Y121698D01*
X-84Y122320D01*
X-207Y122941D01*
X-559Y123469D01*
X-1087Y123821D01*
X-1708Y123944D01*
D02*
G37*
G36*
X-6708D02*
X-7330Y123821D01*
X-7857Y123469D01*
X-8210Y122941D01*
X-8333Y122320D01*
X-8210Y121698D01*
X-7857Y121171D01*
X-7330Y120818D01*
X-6708Y120695D01*
X-6087Y120818D01*
X-5559Y121171D01*
X-5207Y121698D01*
X-5083Y122320D01*
X-5207Y122941D01*
X-5559Y123469D01*
X-6087Y123821D01*
X-6708Y123944D01*
D02*
G37*
G36*
X130770Y123922D02*
X130148Y123798D01*
X129621Y123446D01*
X129269Y122919D01*
X129145Y122297D01*
X129269Y121675D01*
X129621Y121148D01*
X130148Y120796D01*
X130770Y120672D01*
X131392Y120796D01*
X131919Y121148D01*
X132271Y121675D01*
X132395Y122297D01*
X132271Y122919D01*
X131919Y123446D01*
X131392Y123798D01*
X130770Y123922D01*
D02*
G37*
G36*
X202547Y123300D02*
X201925Y123176D01*
X201398Y122824D01*
X201046Y122297D01*
X200922Y121675D01*
X201046Y121053D01*
X201398Y120526D01*
X201925Y120174D01*
X202547Y120050D01*
X202839Y120108D01*
X203278Y119828D01*
X203309Y119731D01*
X203415Y119198D01*
X203768Y118671D01*
X204295Y118319D01*
X204917Y118195D01*
X205538Y118319D01*
X206066Y118671D01*
X206418Y119198D01*
X206541Y119820D01*
X206418Y120442D01*
X206066Y120969D01*
X205538Y121321D01*
X204917Y121445D01*
X204624Y121387D01*
X204185Y121667D01*
X204154Y121764D01*
X204048Y122297D01*
X203696Y122824D01*
X203169Y123176D01*
X202547Y123300D01*
D02*
G37*
G36*
X-4208Y118945D02*
X-4830Y118821D01*
X-5357Y118469D01*
X-5710Y117941D01*
X-5833Y117320D01*
X-5710Y116698D01*
X-5357Y116171D01*
X-4830Y115818D01*
X-4208Y115695D01*
X-3587Y115818D01*
X-3059Y116171D01*
X-2707Y116698D01*
X-2583Y117320D01*
X-2707Y117941D01*
X-3059Y118469D01*
X-3587Y118821D01*
X-4208Y118945D01*
D02*
G37*
G36*
X-9208D02*
X-9830Y118821D01*
X-10357Y118469D01*
X-10710Y117941D01*
X-10833Y117320D01*
X-10710Y116698D01*
X-10357Y116171D01*
X-9830Y115818D01*
X-9208Y115695D01*
X-8587Y115818D01*
X-8059Y116171D01*
X-7707Y116698D01*
X-7583Y117320D01*
X-7707Y117941D01*
X-8059Y118469D01*
X-8587Y118821D01*
X-9208Y118945D01*
D02*
G37*
G36*
X347008Y116664D02*
X346387Y116541D01*
X345859Y116188D01*
X345507Y115661D01*
X345384Y115039D01*
X345507Y114417D01*
X345859Y113890D01*
X346387Y113538D01*
X347008Y113414D01*
X347630Y113538D01*
X348157Y113890D01*
X348510Y114417D01*
X348633Y115039D01*
X348510Y115661D01*
X348157Y116188D01*
X347630Y116541D01*
X347008Y116664D01*
D02*
G37*
G36*
X-1708Y113944D02*
X-2330Y113821D01*
X-2857Y113469D01*
X-3210Y112941D01*
X-3333Y112320D01*
X-3210Y111698D01*
X-2857Y111171D01*
X-2330Y110818D01*
X-1708Y110695D01*
X-1087Y110818D01*
X-559Y111171D01*
X-207Y111698D01*
X-84Y112320D01*
X-207Y112941D01*
X-559Y113469D01*
X-1087Y113821D01*
X-1708Y113944D01*
D02*
G37*
G36*
X-6708D02*
X-7330Y113821D01*
X-7857Y113469D01*
X-8210Y112941D01*
X-8333Y112320D01*
X-8210Y111698D01*
X-7857Y111171D01*
X-7330Y110818D01*
X-6708Y110695D01*
X-6087Y110818D01*
X-5559Y111171D01*
X-5207Y111698D01*
X-5083Y112320D01*
X-5207Y112941D01*
X-5559Y113469D01*
X-6087Y113821D01*
X-6708Y113944D01*
D02*
G37*
G36*
X216381Y110177D02*
X215759Y110053D01*
X215232Y109701D01*
X214880Y109174D01*
X214756Y108552D01*
X214880Y107930D01*
X215232Y107403D01*
X215759Y107051D01*
X216381Y106927D01*
X217003Y107051D01*
X217530Y107403D01*
X217882Y107930D01*
X218006Y108552D01*
X217882Y109174D01*
X217530Y109701D01*
X217003Y110053D01*
X216381Y110177D01*
D02*
G37*
G36*
X290919Y109916D02*
X290297Y109793D01*
X289770Y109440D01*
X289418Y108913D01*
X289294Y108291D01*
X289418Y107669D01*
X289770Y107142D01*
X290297Y106790D01*
X290919Y106666D01*
X291541Y106790D01*
X292068Y107142D01*
X292420Y107669D01*
X292544Y108291D01*
X292420Y108913D01*
X292068Y109440D01*
X291541Y109793D01*
X290919Y109916D01*
D02*
G37*
G36*
X-4208Y108944D02*
X-4830Y108821D01*
X-5357Y108469D01*
X-5710Y107941D01*
X-5833Y107320D01*
X-5710Y106698D01*
X-5357Y106171D01*
X-4830Y105818D01*
X-4208Y105695D01*
X-3587Y105818D01*
X-3059Y106171D01*
X-2707Y106698D01*
X-2583Y107320D01*
X-2707Y107941D01*
X-3059Y108469D01*
X-3587Y108821D01*
X-4208Y108944D01*
D02*
G37*
G36*
X-9208D02*
X-9830Y108821D01*
X-10357Y108469D01*
X-10710Y107941D01*
X-10833Y107320D01*
X-10710Y106698D01*
X-10357Y106171D01*
X-9830Y105818D01*
X-9208Y105695D01*
X-8587Y105818D01*
X-8059Y106171D01*
X-7707Y106698D01*
X-7583Y107320D01*
X-7707Y107941D01*
X-8059Y108469D01*
X-8587Y108821D01*
X-9208Y108944D01*
D02*
G37*
G36*
X82073Y108464D02*
X81451Y108340D01*
X80924Y107988D01*
X80572Y107461D01*
X80448Y106839D01*
X80572Y106217D01*
X80924Y105690D01*
X81451Y105338D01*
X82073Y105214D01*
X82695Y105338D01*
X83222Y105690D01*
X83574Y106217D01*
X83698Y106839D01*
X83574Y107461D01*
X83222Y107988D01*
X82695Y108340D01*
X82073Y108464D01*
D02*
G37*
G36*
X108581Y107574D02*
X107959Y107450D01*
X107432Y107098D01*
X107080Y106570D01*
X106956Y105949D01*
X107080Y105327D01*
X107432Y104800D01*
X107959Y104447D01*
X108581Y104324D01*
X109203Y104447D01*
X109730Y104800D01*
X110082Y105327D01*
X110206Y105949D01*
X110082Y106570D01*
X109730Y107098D01*
X109203Y107450D01*
X108581Y107574D01*
D02*
G37*
G36*
X-1708Y103945D02*
X-2330Y103821D01*
X-2857Y103469D01*
X-3210Y102941D01*
X-3333Y102320D01*
X-3210Y101698D01*
X-2857Y101171D01*
X-2330Y100818D01*
X-1708Y100695D01*
X-1087Y100818D01*
X-559Y101171D01*
X-207Y101698D01*
X-84Y102320D01*
X-207Y102941D01*
X-559Y103469D01*
X-1087Y103821D01*
X-1708Y103945D01*
D02*
G37*
G36*
X-6708D02*
X-7330Y103821D01*
X-7857Y103469D01*
X-8210Y102941D01*
X-8333Y102320D01*
X-8210Y101698D01*
X-7857Y101171D01*
X-7330Y100818D01*
X-6708Y100695D01*
X-6087Y100818D01*
X-5559Y101171D01*
X-5207Y101698D01*
X-5083Y102320D01*
X-5207Y102941D01*
X-5559Y103469D01*
X-6087Y103821D01*
X-6708Y103945D01*
D02*
G37*
G36*
X290276Y102180D02*
X289654Y102056D01*
X289127Y101704D01*
X288774Y101177D01*
X288651Y100555D01*
X288774Y99933D01*
X289127Y99406D01*
X289654Y99054D01*
X290276Y98930D01*
X290897Y99054D01*
X291425Y99406D01*
X291777Y99933D01*
X291900Y100555D01*
X291777Y101177D01*
X291425Y101704D01*
X290897Y102056D01*
X290276Y102180D01*
D02*
G37*
G36*
X221091Y100305D02*
X220469Y100181D01*
X219942Y99829D01*
X219590Y99302D01*
X219466Y98680D01*
X219590Y98058D01*
X219942Y97531D01*
X220469Y97179D01*
X221091Y97055D01*
X221713Y97179D01*
X222240Y97531D01*
X222592Y98058D01*
X222716Y98680D01*
X222592Y99302D01*
X222240Y99829D01*
X221713Y100181D01*
X221091Y100305D01*
D02*
G37*
G36*
X-9208Y98944D02*
X-9830Y98821D01*
X-10357Y98469D01*
X-10710Y97941D01*
X-10833Y97320D01*
X-10710Y96698D01*
X-10357Y96171D01*
X-9830Y95818D01*
X-9208Y95695D01*
X-8587Y95818D01*
X-8059Y96171D01*
X-7707Y96698D01*
X-7583Y97320D01*
X-7707Y97941D01*
X-8059Y98469D01*
X-8587Y98821D01*
X-9208Y98944D01*
D02*
G37*
G36*
X218235Y97448D02*
X217613Y97325D01*
X217086Y96972D01*
X216734Y96445D01*
X216610Y95823D01*
X216734Y95201D01*
X217086Y94674D01*
X217613Y94322D01*
X218235Y94198D01*
X218857Y94322D01*
X219384Y94674D01*
X219736Y95201D01*
X219860Y95823D01*
X219736Y96445D01*
X219384Y96972D01*
X218857Y97325D01*
X218235Y97448D01*
D02*
G37*
G36*
X177822Y97372D02*
X177200Y97248D01*
X176673Y96896D01*
X176321Y96369D01*
X176197Y95747D01*
X176321Y95125D01*
X176673Y94598D01*
X177200Y94246D01*
X177822Y94122D01*
X178444Y94246D01*
X178971Y94598D01*
X179555Y94573D01*
X179747Y94286D01*
X180274Y93934D01*
X180896Y93810D01*
X181517Y93934D01*
X182045Y94286D01*
X182397Y94814D01*
X182520Y95435D01*
X182397Y96057D01*
X182045Y96584D01*
X181517Y96937D01*
X180896Y97060D01*
X180274Y96937D01*
X179747Y96584D01*
X179162Y96610D01*
X178971Y96896D01*
X178444Y97248D01*
X177822Y97372D01*
D02*
G37*
G36*
X199088Y94271D02*
X198466Y94147D01*
X197939Y93795D01*
X197587Y93268D01*
X197463Y92646D01*
X197587Y92024D01*
X197939Y91497D01*
X198466Y91145D01*
X199088Y91021D01*
X199710Y91145D01*
X200237Y91497D01*
X200589Y92024D01*
X200713Y92646D01*
X200589Y93268D01*
X200237Y93795D01*
X199710Y94147D01*
X199088Y94271D01*
D02*
G37*
G36*
X-6708Y93945D02*
X-7330Y93821D01*
X-7857Y93469D01*
X-8210Y92941D01*
X-8333Y92320D01*
X-8210Y91698D01*
X-7857Y91171D01*
X-7330Y90818D01*
X-6708Y90695D01*
X-6087Y90818D01*
X-5559Y91171D01*
X-5207Y91698D01*
X-5083Y92320D01*
X-5207Y92941D01*
X-5559Y93469D01*
X-6087Y93821D01*
X-6708Y93945D01*
D02*
G37*
G36*
X95850Y91815D02*
X95229Y91691D01*
X94701Y91339D01*
X94349Y90812D01*
X94226Y90190D01*
X94349Y89568D01*
X94701Y89041D01*
X95229Y88689D01*
X95850Y88565D01*
X96472Y88689D01*
X96999Y89041D01*
X97352Y89568D01*
X97475Y90190D01*
X97352Y90812D01*
X96999Y91339D01*
X96472Y91691D01*
X95850Y91815D01*
D02*
G37*
G36*
X199067Y89049D02*
X198445Y88925D01*
X197918Y88573D01*
X197566Y88046D01*
X197442Y87424D01*
X197566Y86802D01*
X197918Y86275D01*
X198445Y85923D01*
X199067Y85799D01*
X199689Y85923D01*
X200216Y86275D01*
X200569Y86802D01*
X200692Y87424D01*
X200569Y88046D01*
X200216Y88573D01*
X199689Y88925D01*
X199067Y89049D01*
D02*
G37*
G36*
X-9208Y88945D02*
X-9830Y88821D01*
X-10357Y88469D01*
X-10710Y87941D01*
X-10833Y87320D01*
X-10710Y86698D01*
X-10357Y86171D01*
X-9830Y85818D01*
X-9208Y85695D01*
X-8587Y85818D01*
X-8059Y86171D01*
X-7707Y86698D01*
X-7583Y87320D01*
X-7707Y87941D01*
X-8059Y88469D01*
X-8587Y88821D01*
X-9208Y88945D01*
D02*
G37*
G36*
X289944Y86432D02*
X289322Y86308D01*
X288795Y85956D01*
X288443Y85429D01*
X288319Y84807D01*
X288443Y84185D01*
X288795Y83658D01*
X289322Y83306D01*
X289944Y83182D01*
X290566Y83306D01*
X291093Y83658D01*
X291445Y84185D01*
X291569Y84807D01*
X291445Y85429D01*
X291093Y85956D01*
X290566Y86308D01*
X289944Y86432D01*
D02*
G37*
G36*
X283856D02*
X283234Y86308D01*
X282707Y85956D01*
X282355Y85429D01*
X282231Y84807D01*
X282355Y84185D01*
X282707Y83658D01*
X283234Y83306D01*
X283856Y83182D01*
X284478Y83306D01*
X285005Y83658D01*
X285357Y84185D01*
X285481Y84807D01*
X285357Y85429D01*
X285005Y85956D01*
X284478Y86308D01*
X283856Y86432D01*
D02*
G37*
G36*
X146517Y83810D02*
X145895Y83686D01*
X145368Y83334D01*
X145016Y82807D01*
X144892Y82185D01*
X145016Y81563D01*
X145368Y81036D01*
X145895Y80684D01*
X146517Y80560D01*
X147139Y80684D01*
X147666Y81036D01*
X148018Y81563D01*
X148142Y82185D01*
X148018Y82807D01*
X147666Y83334D01*
X147139Y83686D01*
X146517Y83810D01*
D02*
G37*
G36*
X198715Y79277D02*
X198093Y79153D01*
X197566Y78801D01*
X197214Y78274D01*
X197090Y77652D01*
X197214Y77030D01*
X197566Y76503D01*
X198093Y76151D01*
X198715Y76027D01*
X199337Y76151D01*
X199864Y76503D01*
X200217Y77030D01*
X200340Y77652D01*
X200217Y78274D01*
X199864Y78801D01*
X199337Y79153D01*
X198715Y79277D01*
D02*
G37*
G36*
X214670Y78821D02*
X214048Y78697D01*
X213521Y78345D01*
X213169Y77818D01*
X213045Y77196D01*
X213169Y76574D01*
X213521Y76047D01*
X214048Y75695D01*
X214670Y75571D01*
X215292Y75695D01*
X215819Y76047D01*
X216171Y76574D01*
X216295Y77196D01*
X216171Y77818D01*
X215819Y78345D01*
X215292Y78697D01*
X214670Y78821D01*
D02*
G37*
G36*
X635789Y101365D02*
X620890D01*
X620430Y101175D01*
X620240Y100716D01*
Y74550D01*
X620430Y74090D01*
X620790Y73941D01*
Y73450D01*
X620980Y72991D01*
X621440Y72800D01*
X635840D01*
X636299Y72991D01*
X636489Y73450D01*
Y98250D01*
X636439Y98370D01*
Y100716D01*
X636249Y101175D01*
X635789Y101365D01*
D02*
G37*
G36*
X196490Y73964D02*
X195868Y73841D01*
X195341Y73488D01*
X194988Y72961D01*
X194865Y72339D01*
X194988Y71718D01*
X195341Y71190D01*
X195868Y70838D01*
X196490Y70714D01*
X197111Y70838D01*
X197639Y71190D01*
X197991Y71718D01*
X198115Y72339D01*
X197991Y72961D01*
X197639Y73488D01*
X197111Y73841D01*
X196490Y73964D01*
D02*
G37*
G36*
X216381Y75345D02*
X215759Y75222D01*
X215232Y74870D01*
X214880Y74342D01*
X214756Y73721D01*
X214880Y73099D01*
X214986Y72939D01*
X214799Y72393D01*
X214272Y72040D01*
X213920Y71513D01*
X213796Y70891D01*
X213920Y70270D01*
X214272Y69742D01*
X214799Y69390D01*
X215421Y69266D01*
X216043Y69390D01*
X216570Y69742D01*
X216923Y70270D01*
X217046Y70891D01*
X216923Y71513D01*
X216816Y71672D01*
X217003Y72219D01*
X217530Y72571D01*
X217882Y73099D01*
X218006Y73721D01*
X217882Y74342D01*
X217530Y74870D01*
X217003Y75222D01*
X216381Y75345D01*
D02*
G37*
G36*
X87195Y72208D02*
X86574Y72084D01*
X86046Y71732D01*
X85694Y71205D01*
X85571Y70583D01*
X85694Y69961D01*
X86046Y69434D01*
X86574Y69082D01*
X87195Y68958D01*
X87817Y69082D01*
X88344Y69434D01*
X88697Y69961D01*
X88820Y70583D01*
X88697Y71205D01*
X88344Y71732D01*
X87817Y72084D01*
X87195Y72208D01*
D02*
G37*
G36*
X236293Y71427D02*
X235671Y71303D01*
X235144Y70951D01*
X234792Y70424D01*
X234668Y69802D01*
X234792Y69180D01*
X234893Y69028D01*
X234564Y68622D01*
X234094Y68715D01*
X233472Y68591D01*
X232945Y68239D01*
X232593Y67712D01*
X232469Y67090D01*
X232593Y66468D01*
X232945Y65941D01*
X233472Y65589D01*
X234094Y65465D01*
X234716Y65589D01*
X235243Y65941D01*
X235595Y66468D01*
X235719Y67090D01*
X235595Y67712D01*
X235493Y67864D01*
X235823Y68271D01*
X236293Y68177D01*
X236915Y68301D01*
X237442Y68653D01*
X237794Y69180D01*
X237918Y69802D01*
X237794Y70424D01*
X237442Y70951D01*
X236915Y71303D01*
X236293Y71427D01*
D02*
G37*
G36*
X277723Y72653D02*
X277101Y72529D01*
X276574Y72177D01*
X276222Y71649D01*
X276098Y71028D01*
X276222Y70406D01*
X276574Y69879D01*
X277101Y69526D01*
X277309Y69485D01*
Y68975D01*
X277101Y68934D01*
X276574Y68582D01*
X276428Y68362D01*
X275826D01*
X275735Y68498D01*
X275208Y68850D01*
X274586Y68974D01*
X273965Y68850D01*
X273437Y68498D01*
X273307Y68303D01*
X272706D01*
X272575Y68498D01*
X272048Y68850D01*
X271426Y68974D01*
X270804Y68850D01*
X270277Y68498D01*
X270116Y68257D01*
X269515D01*
X269485Y68301D01*
X268958Y68653D01*
X268337Y68777D01*
X267715Y68653D01*
X267188Y68301D01*
X266835Y67774D01*
X266711Y67152D01*
X266835Y66530D01*
X267188Y66003D01*
X267715Y65651D01*
X268337Y65527D01*
X268958Y65651D01*
X269485Y66003D01*
X269647Y66244D01*
X270248D01*
X270277Y66200D01*
X270804Y65848D01*
X271426Y65724D01*
X272048Y65848D01*
X272575Y66200D01*
X272706Y66395D01*
X273307D01*
X273437Y66200D01*
X273965Y65848D01*
X274586Y65724D01*
X275208Y65848D01*
X275735Y66200D01*
X275882Y66420D01*
X276483D01*
X276574Y66284D01*
X277101Y65931D01*
X277723Y65808D01*
X278345Y65931D01*
X278872Y66284D01*
X279224Y66811D01*
X279348Y67433D01*
X279224Y68055D01*
X278872Y68582D01*
X278345Y68934D01*
X278137Y68975D01*
Y69485D01*
X278345Y69526D01*
X278872Y69879D01*
X279224Y70406D01*
X279348Y71028D01*
X279224Y71649D01*
X278872Y72177D01*
X278345Y72529D01*
X277723Y72653D01*
D02*
G37*
G36*
X141619Y70134D02*
X140997Y70010D01*
X140470Y69658D01*
X140118Y69131D01*
X139994Y68509D01*
X140118Y67887D01*
X140470Y67360D01*
X140997Y67008D01*
X141619Y66884D01*
X142241Y67008D01*
X142768Y67360D01*
X143120Y67887D01*
X143244Y68509D01*
X143120Y69131D01*
X142768Y69658D01*
X142241Y70010D01*
X141619Y70134D01*
D02*
G37*
G36*
X243330Y69713D02*
X242708Y69589D01*
X242181Y69237D01*
X241829Y68709D01*
X241705Y68088D01*
X241829Y67466D01*
X242181Y66939D01*
X242708Y66586D01*
X243330Y66463D01*
X243952Y66586D01*
X244479Y66939D01*
X244831Y67466D01*
X244955Y68088D01*
X244831Y68709D01*
X244479Y69237D01*
X243952Y69589D01*
X243330Y69713D01*
D02*
G37*
G36*
X226102Y68833D02*
X225480Y68710D01*
X224953Y68357D01*
X224600Y67830D01*
X224477Y67208D01*
X224600Y66587D01*
X224953Y66059D01*
X225480Y65707D01*
X226102Y65583D01*
X226723Y65707D01*
X227251Y66059D01*
X227603Y66587D01*
X227727Y67208D01*
X227603Y67830D01*
X227251Y68357D01*
X226723Y68710D01*
X226102Y68833D01*
D02*
G37*
G36*
X239226Y68479D02*
X238604Y68356D01*
X238077Y68003D01*
X237725Y67476D01*
X237601Y66854D01*
X237725Y66233D01*
X238077Y65705D01*
X238604Y65353D01*
X239226Y65229D01*
X239848Y65353D01*
X240375Y65705D01*
X240727Y66233D01*
X240851Y66854D01*
X240727Y67476D01*
X240375Y68003D01*
X239848Y68356D01*
X239226Y68479D01*
D02*
G37*
G36*
X35281Y68329D02*
X34660Y68205D01*
X34132Y67853D01*
X33780Y67326D01*
X33656Y66704D01*
X33780Y66082D01*
X34132Y65555D01*
X34660Y65203D01*
X35281Y65079D01*
X35903Y65203D01*
X36430Y65555D01*
X36783Y66082D01*
X36906Y66704D01*
X36783Y67326D01*
X36430Y67853D01*
X35903Y68205D01*
X35281Y68329D01*
D02*
G37*
G36*
X222284Y67800D02*
X221662Y67676D01*
X221135Y67324D01*
X220783Y66797D01*
X220659Y66175D01*
X220783Y65553D01*
X221135Y65026D01*
X221662Y64674D01*
X222284Y64550D01*
X222906Y64674D01*
X223433Y65026D01*
X223785Y65553D01*
X223909Y66175D01*
X223785Y66797D01*
X223433Y67324D01*
X222906Y67676D01*
X222284Y67800D01*
D02*
G37*
G36*
X228856Y66115D02*
X228234Y65992D01*
X227707Y65640D01*
X227355Y65112D01*
X227231Y64490D01*
X227355Y63869D01*
X227707Y63341D01*
X228234Y62989D01*
X228856Y62866D01*
X229478Y62989D01*
X230005Y63341D01*
X230357Y63869D01*
X230481Y64490D01*
X230357Y65112D01*
X230005Y65640D01*
X229478Y65992D01*
X228856Y66115D01*
D02*
G37*
G36*
X249988Y66078D02*
X249366Y65954D01*
X248839Y65602D01*
X248486Y65074D01*
X248363Y64453D01*
X248486Y63831D01*
X248839Y63304D01*
X249366Y62951D01*
X249988Y62828D01*
X250610Y62951D01*
X251137Y63304D01*
X251489Y63831D01*
X251613Y64453D01*
X251489Y65074D01*
X251137Y65602D01*
X250610Y65954D01*
X249988Y66078D01*
D02*
G37*
G36*
X217497D02*
X216875Y65954D01*
X216348Y65602D01*
X215996Y65074D01*
X215872Y64453D01*
X215996Y63831D01*
X216348Y63304D01*
X216875Y62951D01*
X217497Y62828D01*
X218119Y62951D01*
X218646Y63304D01*
X218998Y63831D01*
X219122Y64453D01*
X218998Y65074D01*
X218646Y65602D01*
X218119Y65954D01*
X217497Y66078D01*
D02*
G37*
G36*
X283463Y65745D02*
X282841Y65621D01*
X282313Y65269D01*
X281961Y64742D01*
X281838Y64120D01*
X281961Y63498D01*
X282313Y62971D01*
X282841Y62618D01*
X283463Y62495D01*
X284084Y62618D01*
X284612Y62971D01*
X284964Y63498D01*
X285087Y64120D01*
X284964Y64742D01*
X284612Y65269D01*
X284084Y65621D01*
X283463Y65745D01*
D02*
G37*
G36*
X246265Y65595D02*
X245643Y65471D01*
X245116Y65119D01*
X244764Y64591D01*
X244640Y63970D01*
X244764Y63348D01*
X245116Y62821D01*
X245643Y62468D01*
X246265Y62345D01*
X246887Y62468D01*
X247414Y62821D01*
X247766Y63348D01*
X247890Y63970D01*
X247766Y64591D01*
X247414Y65119D01*
X246887Y65471D01*
X246265Y65595D01*
D02*
G37*
G36*
X530106Y64621D02*
X529485Y64497D01*
X528957Y64145D01*
X528605Y63618D01*
X528481Y62996D01*
X528605Y62374D01*
X528957Y61847D01*
X529485Y61495D01*
X530106Y61371D01*
X530728Y61495D01*
X531255Y61847D01*
X531608Y62374D01*
X531731Y62996D01*
X531608Y63618D01*
X531255Y64145D01*
X530728Y64497D01*
X530106Y64621D01*
D02*
G37*
G36*
X414074Y62625D02*
X413452Y62501D01*
X412924Y62149D01*
X412572Y61622D01*
X412449Y61000D01*
X412572Y60378D01*
X412924Y59851D01*
X413452Y59499D01*
X414074Y59375D01*
X414695Y59499D01*
X415223Y59851D01*
X415575Y60378D01*
X415698Y61000D01*
X415575Y61622D01*
X415223Y62149D01*
X414695Y62501D01*
X414074Y62625D01*
D02*
G37*
G36*
X410000D02*
X409378Y62501D01*
X408851Y62149D01*
X408499Y61622D01*
X408375Y61000D01*
X408499Y60378D01*
X408851Y59851D01*
X409378Y59499D01*
X410000Y59375D01*
X410622Y59499D01*
X411149Y59851D01*
X411501Y60378D01*
X411625Y61000D01*
X411501Y61622D01*
X411149Y62149D01*
X410622Y62501D01*
X410000Y62625D01*
D02*
G37*
G36*
X193896Y62122D02*
X193274Y61998D01*
X192747Y61646D01*
X192395Y61119D01*
X192271Y60497D01*
X192395Y59875D01*
X192747Y59348D01*
X193274Y58996D01*
X193896Y58872D01*
X194518Y58996D01*
X195045Y59348D01*
X195397Y59875D01*
X195521Y60497D01*
X195397Y61119D01*
X195045Y61646D01*
X194518Y61998D01*
X193896Y62122D01*
D02*
G37*
G36*
X199393Y61225D02*
X198771Y61101D01*
X198244Y60749D01*
X197892Y60222D01*
X197768Y59600D01*
X197892Y58978D01*
X198244Y58451D01*
X198771Y58099D01*
X199393Y57975D01*
X200015Y58099D01*
X200542Y58451D01*
X200894Y58978D01*
X201018Y59600D01*
X200894Y60222D01*
X200542Y60749D01*
X200015Y61101D01*
X199393Y61225D01*
D02*
G37*
G36*
X218831Y54501D02*
X218209Y54377D01*
X217682Y54025D01*
X217330Y53498D01*
X217206Y52876D01*
X217330Y52254D01*
X217682Y51727D01*
X218209Y51375D01*
X218831Y51251D01*
X219453Y51375D01*
X219980Y51727D01*
X220332Y52254D01*
X220456Y52876D01*
X220332Y53498D01*
X219980Y54025D01*
X219453Y54377D01*
X218831Y54501D01*
D02*
G37*
G36*
X223708Y54393D02*
X223086Y54269D01*
X222559Y53917D01*
X222207Y53390D01*
X222083Y52768D01*
X222207Y52146D01*
X222559Y51619D01*
X223086Y51266D01*
X223708Y51143D01*
X224330Y51266D01*
X224857Y51619D01*
X225209Y52146D01*
X225333Y52768D01*
X225209Y53390D01*
X224857Y53917D01*
X224330Y54269D01*
X223708Y54393D01*
D02*
G37*
G36*
X278632Y53708D02*
X278011Y53584D01*
X277484Y53232D01*
X277131Y52705D01*
X277008Y52083D01*
X277131Y51461D01*
X277484Y50934D01*
X278011Y50582D01*
X278632Y50458D01*
X279254Y50582D01*
X279782Y50934D01*
X280134Y51461D01*
X280257Y52083D01*
X280134Y52705D01*
X279782Y53232D01*
X279254Y53584D01*
X278632Y53708D01*
D02*
G37*
G36*
X237257Y52555D02*
X236635Y52431D01*
X236108Y52079D01*
X235756Y51552D01*
X235632Y50930D01*
X235756Y50308D01*
X236108Y49781D01*
X236635Y49429D01*
X237257Y49305D01*
X237879Y49429D01*
X238406Y49781D01*
X238758Y50308D01*
X238882Y50930D01*
X238758Y51552D01*
X238406Y52079D01*
X237879Y52431D01*
X237257Y52555D01*
D02*
G37*
G36*
X594539Y51331D02*
X593918Y51207D01*
X593390Y50855D01*
X593038Y50328D01*
X592914Y49706D01*
X593038Y49084D01*
X593390Y48557D01*
X593918Y48205D01*
X594539Y48081D01*
X595161Y48205D01*
X595688Y48557D01*
X596040Y49084D01*
X596164Y49706D01*
X596040Y50328D01*
X595688Y50855D01*
X595161Y51207D01*
X594539Y51331D01*
D02*
G37*
G36*
X561111Y52966D02*
X560359Y52867D01*
X559657Y52576D01*
X559055Y52114D01*
X558593Y51512D01*
X558302Y50810D01*
X558203Y50057D01*
X558302Y49305D01*
X558593Y48603D01*
X559055Y48001D01*
X559657Y47539D01*
X560359Y47248D01*
X561111Y47149D01*
X561864Y47248D01*
X562566Y47539D01*
X563168Y48001D01*
X563630Y48603D01*
X563921Y49305D01*
X564020Y50057D01*
X563921Y50810D01*
X563630Y51512D01*
X563168Y52114D01*
X562566Y52576D01*
X561864Y52867D01*
X561111Y52966D01*
D02*
G37*
G36*
X551111D02*
X550359Y52867D01*
X549657Y52576D01*
X549055Y52114D01*
X548593Y51512D01*
X548302Y50810D01*
X548203Y50057D01*
X548302Y49305D01*
X548593Y48603D01*
X549055Y48001D01*
X549657Y47539D01*
X550359Y47248D01*
X551111Y47149D01*
X551864Y47248D01*
X552565Y47539D01*
X553168Y48001D01*
X553630Y48603D01*
X553921Y49305D01*
X554020Y50057D01*
X553921Y50810D01*
X553630Y51512D01*
X553168Y52114D01*
X552565Y52576D01*
X551864Y52867D01*
X551111Y52966D01*
D02*
G37*
G36*
X541111D02*
X540359Y52867D01*
X539657Y52576D01*
X539055Y52114D01*
X538593Y51512D01*
X538302Y50810D01*
X538203Y50057D01*
X538302Y49305D01*
X538593Y48603D01*
X539055Y48001D01*
X539657Y47539D01*
X540359Y47248D01*
X541111Y47149D01*
X541864Y47248D01*
X542565Y47539D01*
X543168Y48001D01*
X543630Y48603D01*
X543921Y49305D01*
X544020Y50057D01*
X543921Y50810D01*
X543630Y51512D01*
X543168Y52114D01*
X542565Y52576D01*
X541864Y52867D01*
X541111Y52966D01*
D02*
G37*
G36*
X531111D02*
X530359Y52867D01*
X529657Y52576D01*
X529055Y52114D01*
X528593Y51512D01*
X528302Y50810D01*
X528203Y50057D01*
X528302Y49305D01*
X528593Y48603D01*
X529055Y48001D01*
X529657Y47539D01*
X530359Y47248D01*
X531111Y47149D01*
X531864Y47248D01*
X532565Y47539D01*
X533168Y48001D01*
X533630Y48603D01*
X533921Y49305D01*
X534020Y50057D01*
X533921Y50810D01*
X533630Y51512D01*
X533168Y52114D01*
X532565Y52576D01*
X531864Y52867D01*
X531111Y52966D01*
D02*
G37*
G36*
X213444Y46944D02*
X212823Y46821D01*
X212296Y46469D01*
X211943Y45941D01*
X211820Y45320D01*
X211943Y44698D01*
X212296Y44171D01*
X212823Y43818D01*
X213444Y43695D01*
X214066Y43818D01*
X214594Y44171D01*
X214946Y44698D01*
X215069Y45320D01*
X214946Y45941D01*
X214594Y46469D01*
X214066Y46821D01*
X213444Y46944D01*
D02*
G37*
G36*
X607641Y46818D02*
X607019Y46695D01*
X606492Y46342D01*
X606140Y45815D01*
X606016Y45193D01*
X606140Y44572D01*
X606492Y44044D01*
X607019Y43692D01*
X607641Y43569D01*
X608263Y43692D01*
X608790Y44044D01*
X609142Y44572D01*
X609266Y45193D01*
X609142Y45815D01*
X608790Y46342D01*
X608263Y46695D01*
X607641Y46818D01*
D02*
G37*
G36*
X584782Y45085D02*
X584160Y44961D01*
X583633Y44609D01*
X583281Y44082D01*
X583157Y43460D01*
X583281Y42838D01*
X583633Y42311D01*
X584160Y41959D01*
X584782Y41835D01*
X585404Y41959D01*
X585931Y42311D01*
X586283Y42838D01*
X586407Y43460D01*
X586283Y44082D01*
X585931Y44609D01*
X585404Y44961D01*
X584782Y45085D01*
D02*
G37*
G36*
X227024Y44439D02*
X226402Y44315D01*
X225875Y43963D01*
X225523Y43436D01*
X225399Y42814D01*
X225523Y42192D01*
X225875Y41665D01*
X226402Y41313D01*
X227024Y41189D01*
X227646Y41313D01*
X228173Y41665D01*
X228525Y42192D01*
X228649Y42814D01*
X228525Y43436D01*
X228173Y43963D01*
X227646Y44315D01*
X227024Y44439D01*
D02*
G37*
G36*
X151466Y42221D02*
X150844Y42097D01*
X150317Y41745D01*
X149964Y41217D01*
X149841Y40596D01*
X149964Y39974D01*
X150317Y39447D01*
X150844Y39094D01*
X151466Y38971D01*
X152088Y39094D01*
X152615Y39447D01*
X152967Y39974D01*
X153091Y40596D01*
X152967Y41217D01*
X152615Y41745D01*
X152088Y42097D01*
X151466Y42221D01*
D02*
G37*
G36*
X601263Y40909D02*
X600641Y40786D01*
X600114Y40433D01*
X599762Y39906D01*
X599638Y39285D01*
X599762Y38663D01*
X600114Y38136D01*
X600641Y37783D01*
X601263Y37660D01*
X601885Y37783D01*
X602412Y38136D01*
X602764Y38663D01*
X602888Y39285D01*
X602764Y39906D01*
X602412Y40433D01*
X601885Y40786D01*
X601263Y40909D01*
D02*
G37*
G36*
X616346Y40478D02*
X615724Y40354D01*
X615197Y40002D01*
X614845Y39475D01*
X614721Y38853D01*
X614845Y38232D01*
X615197Y37704D01*
X615724Y37352D01*
X616346Y37228D01*
X616968Y37352D01*
X617495Y37704D01*
X617847Y38232D01*
X617971Y38853D01*
X617847Y39475D01*
X617495Y40002D01*
X616968Y40354D01*
X616346Y40478D01*
D02*
G37*
G36*
X365050Y42304D02*
X364428Y42180D01*
X363901Y41828D01*
X363549Y41301D01*
X363425Y40679D01*
X363549Y40057D01*
X363901Y39530D01*
X364428Y39178D01*
X364724Y39119D01*
X364889Y39086D01*
Y38576D01*
X364724Y38543D01*
X364428Y38485D01*
X363901Y38132D01*
X363549Y37605D01*
X363425Y36983D01*
X363549Y36362D01*
X363901Y35834D01*
X364428Y35482D01*
X365050Y35359D01*
X365672Y35482D01*
X366199Y35834D01*
X366551Y36362D01*
X366675Y36983D01*
X366551Y37605D01*
X366199Y38132D01*
X365672Y38485D01*
X365376Y38543D01*
X365211Y38576D01*
Y39086D01*
X365375Y39119D01*
X365672Y39178D01*
X366199Y39530D01*
X366551Y40057D01*
X366675Y40679D01*
X366551Y41301D01*
X366199Y41828D01*
X365672Y42180D01*
X365050Y42304D01*
D02*
G37*
G36*
X645919Y44028D02*
X635569D01*
Y33678D01*
X645919D01*
Y44028D01*
D02*
G37*
G36*
X140211Y36200D02*
X139589Y36077D01*
X139062Y35724D01*
X138710Y35197D01*
X138586Y34576D01*
X138710Y33954D01*
X139062Y33427D01*
X139589Y33074D01*
X140211Y32951D01*
X140833Y33074D01*
X141360Y33427D01*
X141712Y33954D01*
X141836Y34576D01*
X141712Y35197D01*
X141360Y35724D01*
X140833Y36077D01*
X140211Y36200D01*
D02*
G37*
G36*
X582001Y35984D02*
X581379Y35860D01*
X580852Y35508D01*
X580500Y34981D01*
X580376Y34359D01*
X580500Y33737D01*
X580852Y33210D01*
X581379Y32858D01*
X582001Y32734D01*
X582623Y32858D01*
X583150Y33210D01*
X583502Y33737D01*
X583626Y34359D01*
X583502Y34981D01*
X583150Y35508D01*
X582623Y35860D01*
X582001Y35984D01*
D02*
G37*
G36*
X87405Y35386D02*
X86783Y35262D01*
X86256Y34910D01*
X85904Y34383D01*
X85780Y33761D01*
X85904Y33139D01*
X86256Y32612D01*
X86783Y32260D01*
X87405Y32136D01*
X88027Y32260D01*
X88554Y32612D01*
X88906Y33139D01*
X89030Y33761D01*
X88906Y34383D01*
X88554Y34910D01*
X88027Y35262D01*
X87405Y35386D01*
D02*
G37*
G36*
X246283Y34673D02*
X245662Y34549D01*
X245134Y34197D01*
X244782Y33670D01*
X244658Y33048D01*
X244782Y32426D01*
X245134Y31899D01*
X245662Y31547D01*
X246283Y31423D01*
X246905Y31547D01*
X247432Y31899D01*
X247785Y32426D01*
X247908Y33048D01*
X247785Y33670D01*
X247432Y34197D01*
X246905Y34549D01*
X246283Y34673D01*
D02*
G37*
G36*
X10877Y34528D02*
X10255Y34404D01*
X9728Y34052D01*
X9376Y33525D01*
X9252Y32903D01*
X9376Y32281D01*
X9728Y31754D01*
X10255Y31402D01*
X10877Y31278D01*
X11499Y31402D01*
X12026Y31754D01*
X12378Y32281D01*
X12502Y32903D01*
X12378Y33525D01*
X12026Y34052D01*
X11499Y34404D01*
X10877Y34528D01*
D02*
G37*
G36*
X35066Y34395D02*
X34444Y34272D01*
X33917Y33920D01*
X33565Y33392D01*
X33441Y32770D01*
X33565Y32149D01*
X33917Y31622D01*
X34444Y31269D01*
X35066Y31146D01*
X35688Y31269D01*
X36215Y31622D01*
X36568Y32149D01*
X36691Y32770D01*
X36568Y33392D01*
X36215Y33920D01*
X35688Y34272D01*
X35066Y34395D01*
D02*
G37*
G36*
X135201Y29327D02*
X134579Y29203D01*
X134052Y28851D01*
X133700Y28324D01*
X133576Y27702D01*
X133700Y27080D01*
X134052Y26553D01*
X134579Y26201D01*
X135201Y26077D01*
X135823Y26201D01*
X136350Y26553D01*
X136702Y27080D01*
X136826Y27702D01*
X136702Y28324D01*
X136350Y28851D01*
X135823Y29203D01*
X135201Y29327D01*
D02*
G37*
G36*
X188609Y34658D02*
X178766D01*
X178307Y34468D01*
X178117Y34008D01*
Y26134D01*
X178307Y25675D01*
X178766Y25485D01*
X188609D01*
X189068Y25675D01*
X189258Y26134D01*
Y34008D01*
X189068Y34468D01*
X188609Y34658D01*
D02*
G37*
G36*
X140109Y26933D02*
X139487Y26809D01*
X138960Y26457D01*
X138608Y25930D01*
X138547Y25627D01*
X138349Y25538D01*
X138007Y25472D01*
X137558Y25772D01*
X136936Y25895D01*
X136314Y25772D01*
X135787Y25419D01*
X135435Y24892D01*
X135311Y24270D01*
X135435Y23649D01*
X135787Y23121D01*
X136314Y22769D01*
X136936Y22646D01*
X137558Y22769D01*
X138085Y23121D01*
X138437Y23649D01*
X138497Y23951D01*
X138696Y24040D01*
X139038Y24107D01*
X139487Y23807D01*
X140109Y23683D01*
X140731Y23807D01*
X141258Y24159D01*
X141610Y24686D01*
X141734Y25308D01*
X141610Y25930D01*
X141258Y26457D01*
X140731Y26809D01*
X140109Y26933D01*
D02*
G37*
G36*
X225542Y25895D02*
X224920Y25772D01*
X224393Y25419D01*
X224041Y24892D01*
X223917Y24270D01*
X224041Y23649D01*
X224393Y23121D01*
X224920Y22769D01*
X225542Y22646D01*
X226164Y22769D01*
X226691Y23121D01*
X227043Y23649D01*
X227167Y24270D01*
X227043Y24892D01*
X226691Y25419D01*
X226164Y25772D01*
X225542Y25895D01*
D02*
G37*
G36*
X157686Y25895D02*
X157064Y25772D01*
X156537Y25419D01*
X156185Y24892D01*
X156061Y24270D01*
X156185Y23649D01*
X156537Y23121D01*
X157064Y22769D01*
X157686Y22646D01*
X158308Y22769D01*
X158835Y23121D01*
X159187Y23649D01*
X159311Y24270D01*
X159187Y24892D01*
X158835Y25419D01*
X158308Y25772D01*
X157686Y25895D01*
D02*
G37*
G36*
X366000Y24245D02*
X365378Y24121D01*
X364851Y23769D01*
X364499Y23241D01*
X364375Y22620D01*
X364499Y21998D01*
X364851Y21471D01*
X365378Y21118D01*
X366000Y20995D01*
X366622Y21118D01*
X367149Y21471D01*
X367501Y21998D01*
X367625Y22620D01*
X367501Y23241D01*
X367149Y23769D01*
X366622Y24121D01*
X366000Y24245D01*
D02*
G37*
G36*
X603922Y30312D02*
X603300Y30188D01*
X602773Y29836D01*
X602421Y29309D01*
X602297Y28687D01*
X602421Y28065D01*
X602773Y27538D01*
X603300Y27185D01*
X603624Y27121D01*
X603728Y27100D01*
Y26590D01*
X603624Y26570D01*
X603300Y26505D01*
X602773Y26153D01*
X602421Y25626D01*
X602297Y25004D01*
X602421Y24382D01*
X602773Y23855D01*
X603300Y23503D01*
X603368Y23489D01*
Y22980D01*
X603300Y22966D01*
X602773Y22614D01*
X602421Y22087D01*
X602297Y21465D01*
X602421Y20843D01*
X602773Y20316D01*
X603300Y19964D01*
X603922Y19840D01*
X604544Y19964D01*
X605071Y20316D01*
X605423Y20843D01*
X605547Y21465D01*
X605423Y22087D01*
X605071Y22614D01*
X604544Y22966D01*
X604476Y22980D01*
Y23489D01*
X604544Y23503D01*
X605071Y23855D01*
X605423Y24382D01*
X605547Y25004D01*
X605423Y25626D01*
X605071Y26153D01*
X604544Y26505D01*
X604219Y26570D01*
X604116Y26590D01*
Y27100D01*
X604219Y27121D01*
X604544Y27185D01*
X605071Y27538D01*
X605423Y28065D01*
X605547Y28687D01*
X605423Y29309D01*
X605071Y29836D01*
X604544Y30188D01*
X603922Y30312D01*
D02*
G37*
G36*
X231404Y20535D02*
X230782Y20411D01*
X230255Y20059D01*
X229902Y19532D01*
X229779Y18910D01*
X229902Y18288D01*
X230255Y17761D01*
X230782Y17409D01*
X231404Y17285D01*
X232026Y17409D01*
X232553Y17761D01*
X232905Y18288D01*
X233029Y18910D01*
X232905Y19532D01*
X232553Y20059D01*
X232026Y20411D01*
X231404Y20535D01*
D02*
G37*
G36*
X533995Y22941D02*
X528228D01*
Y17174D01*
X533995D01*
Y22941D01*
D02*
G37*
G36*
X551111Y22966D02*
X550359Y22867D01*
X549657Y22576D01*
X549055Y22114D01*
X548593Y21511D01*
X548302Y20810D01*
X548203Y20057D01*
X548302Y19305D01*
X548593Y18603D01*
X549055Y18001D01*
X549657Y17539D01*
X550359Y17248D01*
X551111Y17149D01*
X551864Y17248D01*
X552565Y17539D01*
X553168Y18001D01*
X553630Y18603D01*
X553921Y19305D01*
X554020Y20057D01*
X553921Y20810D01*
X553630Y21511D01*
X553168Y22114D01*
X552565Y22576D01*
X551864Y22867D01*
X551111Y22966D01*
D02*
G37*
G36*
X541111D02*
X540359Y22867D01*
X539657Y22576D01*
X539055Y22114D01*
X538593Y21511D01*
X538302Y20810D01*
X538203Y20057D01*
X538302Y19305D01*
X538593Y18603D01*
X539055Y18001D01*
X539657Y17539D01*
X540359Y17248D01*
X541111Y17149D01*
X541864Y17248D01*
X542565Y17539D01*
X543168Y18001D01*
X543630Y18603D01*
X543921Y19305D01*
X544020Y20057D01*
X543921Y20810D01*
X543630Y21511D01*
X543168Y22114D01*
X542565Y22576D01*
X541864Y22867D01*
X541111Y22966D01*
D02*
G37*
G36*
X226400Y19386D02*
X225778Y19262D01*
X225251Y18910D01*
X224899Y18383D01*
X224775Y17761D01*
X224899Y17139D01*
X225251Y16612D01*
X225778Y16260D01*
X226400Y16136D01*
X227022Y16260D01*
X227549Y16612D01*
X227901Y17139D01*
X228025Y17761D01*
X227901Y18383D01*
X227549Y18910D01*
X227022Y19262D01*
X226400Y19386D01*
D02*
G37*
G36*
X38186Y17660D02*
X37565Y17536D01*
X37037Y17184D01*
X36685Y16656D01*
X36561Y16035D01*
X36685Y15413D01*
X37037Y14886D01*
X37565Y14533D01*
X38186Y14410D01*
X38808Y14533D01*
X39335Y14886D01*
X39688Y15413D01*
X39811Y16035D01*
X39688Y16656D01*
X39335Y17184D01*
X38808Y17536D01*
X38186Y17660D01*
D02*
G37*
G36*
X536251Y15794D02*
X535630Y15670D01*
X535102Y15318D01*
X534750Y14791D01*
X534626Y14169D01*
X534750Y13547D01*
X535102Y13020D01*
X535630Y12668D01*
X536251Y12544D01*
X536873Y12668D01*
X537400Y13020D01*
X537753Y13547D01*
X537876Y14169D01*
X537753Y14791D01*
X537400Y15318D01*
X536873Y15670D01*
X536251Y15794D01*
D02*
G37*
G36*
X447659Y18177D02*
X441341D01*
Y11859D01*
X447659D01*
Y18177D01*
D02*
G37*
G36*
X436626Y18204D02*
X435801Y18096D01*
X435033Y17777D01*
X434373Y17271D01*
X433867Y16611D01*
X433548Y15843D01*
X433440Y15018D01*
X433548Y14193D01*
X433867Y13425D01*
X434373Y12765D01*
X435033Y12259D01*
X435801Y11940D01*
X436626Y11832D01*
X437451Y11940D01*
X438219Y12259D01*
X438879Y12765D01*
X439385Y13425D01*
X439704Y14193D01*
X439812Y15018D01*
X439704Y15843D01*
X439385Y16611D01*
X438879Y17271D01*
X438219Y17777D01*
X437451Y18096D01*
X436626Y18204D01*
D02*
G37*
G36*
X428752D02*
X427927Y18096D01*
X427159Y17777D01*
X426499Y17271D01*
X425992Y16611D01*
X425674Y15843D01*
X425566Y15018D01*
X425674Y14193D01*
X425992Y13425D01*
X426499Y12765D01*
X427159Y12259D01*
X427927Y11940D01*
X428752Y11832D01*
X429577Y11940D01*
X430345Y12259D01*
X431005Y12765D01*
X431511Y13425D01*
X431830Y14193D01*
X431938Y15018D01*
X431830Y15843D01*
X431511Y16611D01*
X431005Y17271D01*
X430345Y17777D01*
X429577Y18096D01*
X428752Y18204D01*
D02*
G37*
G36*
X420878D02*
X420053Y18096D01*
X419285Y17777D01*
X418625Y17271D01*
X418118Y16611D01*
X417800Y15843D01*
X417692Y15018D01*
X417800Y14193D01*
X418118Y13425D01*
X418625Y12765D01*
X419285Y12259D01*
X420053Y11940D01*
X420878Y11832D01*
X421703Y11940D01*
X422471Y12259D01*
X423131Y12765D01*
X423637Y13425D01*
X423956Y14193D01*
X424064Y15018D01*
X423956Y15843D01*
X423637Y16611D01*
X423131Y17271D01*
X422471Y17777D01*
X421703Y18096D01*
X420878Y18204D01*
D02*
G37*
G36*
X405130D02*
X404305Y18096D01*
X403537Y17777D01*
X402877Y17271D01*
X402371Y16611D01*
X402052Y15843D01*
X401944Y15018D01*
X402052Y14193D01*
X402371Y13425D01*
X402877Y12765D01*
X403537Y12259D01*
X404305Y11940D01*
X405130Y11832D01*
X405955Y11940D01*
X406723Y12259D01*
X407383Y12765D01*
X407889Y13425D01*
X408208Y14193D01*
X408316Y15018D01*
X408208Y15843D01*
X407889Y16611D01*
X407383Y17271D01*
X406723Y17777D01*
X405955Y18096D01*
X405130Y18204D01*
D02*
G37*
G36*
X397256D02*
X396431Y18096D01*
X395663Y17777D01*
X395003Y17271D01*
X394496Y16611D01*
X394178Y15843D01*
X394070Y15018D01*
X394178Y14193D01*
X394496Y13425D01*
X395003Y12765D01*
X395663Y12259D01*
X396431Y11940D01*
X397256Y11832D01*
X398081Y11940D01*
X398849Y12259D01*
X399509Y12765D01*
X400015Y13425D01*
X400334Y14193D01*
X400442Y15018D01*
X400334Y15843D01*
X400015Y16611D01*
X399509Y17271D01*
X398849Y17777D01*
X398081Y18096D01*
X397256Y18204D01*
D02*
G37*
G36*
X373634D02*
X372809Y18096D01*
X372041Y17777D01*
X371381Y17271D01*
X370874Y16611D01*
X370556Y15843D01*
X370447Y15018D01*
X370556Y14193D01*
X370874Y13425D01*
X371381Y12765D01*
X372041Y12259D01*
X372809Y11940D01*
X373634Y11832D01*
X374459Y11940D01*
X375227Y12259D01*
X375887Y12765D01*
X376393Y13425D01*
X376712Y14193D01*
X376820Y15018D01*
X376712Y15843D01*
X376393Y16611D01*
X375887Y17271D01*
X375227Y17777D01*
X374459Y18096D01*
X373634Y18204D01*
D02*
G37*
G36*
X284939Y14459D02*
X284317Y14335D01*
X283790Y13983D01*
X283437Y13456D01*
X283314Y12834D01*
X283437Y12212D01*
X283790Y11685D01*
X284317Y11333D01*
X284939Y11209D01*
X285561Y11333D01*
X286088Y11685D01*
X286440Y12212D01*
X286564Y12834D01*
X286440Y13456D01*
X286088Y13983D01*
X285561Y14335D01*
X284939Y14459D01*
D02*
G37*
G36*
X543078Y13627D02*
X542456Y13504D01*
X541929Y13151D01*
X541577Y12624D01*
X541453Y12002D01*
X541577Y11381D01*
X541929Y10853D01*
X542456Y10501D01*
X543078Y10377D01*
X543700Y10501D01*
X544227Y10853D01*
X544579Y11381D01*
X544703Y12002D01*
X544579Y12624D01*
X544227Y13151D01*
X543700Y13504D01*
X543078Y13627D01*
D02*
G37*
G36*
X531376Y13457D02*
X530754Y13333D01*
X530227Y12981D01*
X529875Y12454D01*
X529751Y11832D01*
X529875Y11210D01*
X530227Y10683D01*
X530754Y10331D01*
X531376Y10207D01*
X531998Y10331D01*
X532525Y10683D01*
X532877Y11210D01*
X533001Y11832D01*
X532877Y12454D01*
X532525Y12981D01*
X531998Y13333D01*
X531376Y13457D01*
D02*
G37*
G36*
X125489Y13191D02*
X124867Y13067D01*
X124340Y12715D01*
X123988Y12188D01*
X123864Y11566D01*
X123988Y10944D01*
X124340Y10417D01*
X124867Y10065D01*
X125489Y9941D01*
X126111Y10065D01*
X126638Y10417D01*
X126990Y10944D01*
X127114Y11566D01*
X126990Y12188D01*
X126638Y12715D01*
X126111Y13067D01*
X125489Y13191D01*
D02*
G37*
G36*
X82073Y12284D02*
X81451Y12161D01*
X80924Y11808D01*
X80572Y11281D01*
X80448Y10659D01*
X80572Y10037D01*
X80924Y9510D01*
X81451Y9158D01*
X82073Y9034D01*
X82695Y9158D01*
X83222Y9510D01*
X83574Y10037D01*
X83698Y10659D01*
X83574Y11281D01*
X83222Y11808D01*
X82695Y12161D01*
X82073Y12284D01*
D02*
G37*
G36*
X362528Y11928D02*
X361906Y11804D01*
X361379Y11452D01*
X361027Y10925D01*
X360903Y10303D01*
X361027Y9681D01*
X361379Y9154D01*
X361906Y8802D01*
X362528Y8678D01*
X363150Y8802D01*
X363677Y9154D01*
X364029Y9681D01*
X364153Y10303D01*
X364029Y10925D01*
X363677Y11452D01*
X363150Y11804D01*
X362528Y11928D01*
D02*
G37*
G36*
X62690Y11678D02*
X62068Y11554D01*
X61541Y11202D01*
X61188Y10675D01*
X61065Y10053D01*
X61188Y9431D01*
X61541Y8904D01*
X62068Y8551D01*
X62690Y8428D01*
X63311Y8551D01*
X63839Y8904D01*
X64191Y9431D01*
X64315Y10053D01*
X64191Y10675D01*
X63839Y11202D01*
X63311Y11554D01*
X62690Y11678D01*
D02*
G37*
G36*
X524704Y10040D02*
X524083Y9917D01*
X523555Y9564D01*
X523203Y9037D01*
X523079Y8415D01*
X523203Y7794D01*
X523555Y7266D01*
X524083Y6914D01*
X524704Y6791D01*
X525326Y6914D01*
X525853Y7266D01*
X526206Y7794D01*
X526329Y8415D01*
X526206Y9037D01*
X525853Y9564D01*
X525326Y9917D01*
X524704Y10040D01*
D02*
G37*
G36*
X200617Y18122D02*
X167152D01*
X166693Y17932D01*
X166502Y17473D01*
Y9599D01*
X166577Y9418D01*
X166182Y9154D01*
X165830Y8627D01*
X165707Y8005D01*
X165830Y7383D01*
X166182Y6856D01*
X166710Y6504D01*
X167332Y6380D01*
X167953Y6504D01*
X168480Y6856D01*
X168833Y7383D01*
X168956Y8005D01*
X168868Y8449D01*
X169173Y8949D01*
X174111D01*
X174416Y8449D01*
X174328Y8005D01*
X174451Y7383D01*
X174803Y6856D01*
X175331Y6504D01*
X175952Y6380D01*
X176574Y6504D01*
X177102Y6856D01*
X177454Y7383D01*
X177577Y8005D01*
X177489Y8449D01*
X177794Y8949D01*
X200617D01*
X201076Y9140D01*
X201266Y9599D01*
Y17473D01*
X201076Y17932D01*
X200617Y18122D01*
D02*
G37*
G36*
X551467Y8253D02*
X550845Y8129D01*
X550318Y7777D01*
X549966Y7250D01*
X549842Y6628D01*
X549966Y6006D01*
X550318Y5479D01*
X550845Y5127D01*
X551467Y5003D01*
X552089Y5127D01*
X552616Y5479D01*
X552969Y6006D01*
X553092Y6628D01*
X552969Y7250D01*
X552616Y7777D01*
X552089Y8129D01*
X551467Y8253D01*
D02*
G37*
G36*
X563142Y8039D02*
X562520Y7915D01*
X561993Y7563D01*
X561640Y7035D01*
X561517Y6414D01*
X561640Y5792D01*
X561993Y5265D01*
X562520Y4913D01*
X563142Y4789D01*
X563763Y4913D01*
X564291Y5265D01*
X564643Y5792D01*
X564767Y6414D01*
X564643Y7035D01*
X564291Y7563D01*
X563763Y7915D01*
X563142Y8039D01*
D02*
G37*
G36*
X580744Y8003D02*
X580122Y7879D01*
X579595Y7527D01*
X579243Y7000D01*
X579119Y6378D01*
X579243Y5756D01*
X579595Y5229D01*
X580122Y4877D01*
X580744Y4753D01*
X581366Y4877D01*
X581893Y5229D01*
X582245Y5756D01*
X582369Y6378D01*
X582245Y7000D01*
X581893Y7527D01*
X581366Y7879D01*
X580744Y8003D01*
D02*
G37*
G36*
X575626D02*
X575004Y7879D01*
X574477Y7527D01*
X574125Y7000D01*
X574001Y6378D01*
X574125Y5756D01*
X574477Y5229D01*
X575004Y4877D01*
X575626Y4753D01*
X576248Y4877D01*
X576775Y5229D01*
X577127Y5756D01*
X577251Y6378D01*
X577127Y7000D01*
X576775Y7527D01*
X576248Y7879D01*
X575626Y8003D01*
D02*
G37*
G36*
X537891D02*
X537269Y7879D01*
X536742Y7527D01*
X536390Y7000D01*
X536266Y6378D01*
X536390Y5756D01*
X536742Y5229D01*
X537269Y4877D01*
X537891Y4753D01*
X538513Y4877D01*
X539040Y5229D01*
X539392Y5756D01*
X539516Y6378D01*
X539392Y7000D01*
X539040Y7527D01*
X538513Y7879D01*
X537891Y8003D01*
D02*
G37*
G36*
X444500Y10330D02*
X443675Y10222D01*
X442907Y9904D01*
X442247Y9397D01*
X441741Y8737D01*
X441422Y7969D01*
X441314Y7144D01*
X441422Y6319D01*
X441741Y5551D01*
X442247Y4891D01*
X442907Y4385D01*
X443675Y4066D01*
X444500Y3958D01*
X445325Y4066D01*
X446093Y4385D01*
X446753Y4891D01*
X447259Y5551D01*
X447578Y6319D01*
X447686Y7144D01*
X447578Y7969D01*
X447259Y8737D01*
X446753Y9397D01*
X446093Y9904D01*
X445325Y10222D01*
X444500Y10330D01*
D02*
G37*
G36*
X436626D02*
X435801Y10222D01*
X435033Y9904D01*
X434373Y9397D01*
X433867Y8737D01*
X433548Y7969D01*
X433440Y7144D01*
X433548Y6319D01*
X433867Y5551D01*
X434373Y4891D01*
X435033Y4385D01*
X435801Y4066D01*
X436626Y3958D01*
X437451Y4066D01*
X438219Y4385D01*
X438879Y4891D01*
X439385Y5551D01*
X439704Y6319D01*
X439812Y7144D01*
X439704Y7969D01*
X439385Y8737D01*
X438879Y9397D01*
X438219Y9904D01*
X437451Y10222D01*
X436626Y10330D01*
D02*
G37*
G36*
X428752D02*
X427927Y10222D01*
X427159Y9904D01*
X426499Y9397D01*
X425992Y8737D01*
X425674Y7969D01*
X425566Y7144D01*
X425674Y6319D01*
X425992Y5551D01*
X426499Y4891D01*
X427159Y4385D01*
X427927Y4066D01*
X428752Y3958D01*
X429577Y4066D01*
X430345Y4385D01*
X431005Y4891D01*
X431511Y5551D01*
X431830Y6319D01*
X431938Y7144D01*
X431830Y7969D01*
X431511Y8737D01*
X431005Y9397D01*
X430345Y9904D01*
X429577Y10222D01*
X428752Y10330D01*
D02*
G37*
G36*
X420878D02*
X420053Y10222D01*
X419285Y9904D01*
X418625Y9397D01*
X418118Y8737D01*
X417800Y7969D01*
X417692Y7144D01*
X417800Y6319D01*
X418118Y5551D01*
X418625Y4891D01*
X419285Y4385D01*
X420053Y4066D01*
X420878Y3958D01*
X421703Y4066D01*
X422471Y4385D01*
X423131Y4891D01*
X423637Y5551D01*
X423956Y6319D01*
X424064Y7144D01*
X423956Y7969D01*
X423637Y8737D01*
X423131Y9397D01*
X422471Y9904D01*
X421703Y10222D01*
X420878Y10330D01*
D02*
G37*
G36*
X413004D02*
X412179Y10222D01*
X411411Y9904D01*
X410751Y9397D01*
X410245Y8737D01*
X409926Y7969D01*
X409818Y7144D01*
X409926Y6319D01*
X410245Y5551D01*
X410751Y4891D01*
X411411Y4385D01*
X412179Y4066D01*
X413004Y3958D01*
X413829Y4066D01*
X414597Y4385D01*
X415257Y4891D01*
X415763Y5551D01*
X416082Y6319D01*
X416190Y7144D01*
X416082Y7969D01*
X415763Y8737D01*
X415257Y9397D01*
X414597Y9904D01*
X413829Y10222D01*
X413004Y10330D01*
D02*
G37*
G36*
X405130D02*
X404305Y10222D01*
X403537Y9904D01*
X402877Y9397D01*
X402371Y8737D01*
X402052Y7969D01*
X401944Y7144D01*
X402052Y6319D01*
X402371Y5551D01*
X402877Y4891D01*
X403537Y4385D01*
X404305Y4066D01*
X405130Y3958D01*
X405955Y4066D01*
X406723Y4385D01*
X407383Y4891D01*
X407889Y5551D01*
X408208Y6319D01*
X408316Y7144D01*
X408208Y7969D01*
X407889Y8737D01*
X407383Y9397D01*
X406723Y9904D01*
X405955Y10222D01*
X405130Y10330D01*
D02*
G37*
G36*
X389382D02*
X388557Y10222D01*
X387789Y9904D01*
X387129Y9397D01*
X386622Y8737D01*
X386304Y7969D01*
X386196Y7144D01*
X386304Y6319D01*
X386622Y5551D01*
X387129Y4891D01*
X387789Y4385D01*
X388557Y4066D01*
X389382Y3958D01*
X390207Y4066D01*
X390975Y4385D01*
X391635Y4891D01*
X392141Y5551D01*
X392460Y6319D01*
X392568Y7144D01*
X392460Y7969D01*
X392141Y8737D01*
X391635Y9397D01*
X390975Y9904D01*
X390207Y10222D01*
X389382Y10330D01*
D02*
G37*
G36*
X381508D02*
X380683Y10222D01*
X379915Y9904D01*
X379255Y9397D01*
X378748Y8737D01*
X378430Y7969D01*
X378322Y7144D01*
X378430Y6319D01*
X378748Y5551D01*
X379255Y4891D01*
X379915Y4385D01*
X380683Y4066D01*
X381508Y3958D01*
X382332Y4066D01*
X383101Y4385D01*
X383761Y4891D01*
X384267Y5551D01*
X384586Y6319D01*
X384694Y7144D01*
X384586Y7969D01*
X384267Y8737D01*
X383761Y9397D01*
X383101Y9904D01*
X382332Y10222D01*
X381508Y10330D01*
D02*
G37*
G36*
X373634D02*
X372809Y10222D01*
X372041Y9904D01*
X371381Y9397D01*
X370874Y8737D01*
X370556Y7969D01*
X370447Y7144D01*
X370556Y6319D01*
X370874Y5551D01*
X371381Y4891D01*
X372041Y4385D01*
X372809Y4066D01*
X373634Y3958D01*
X374459Y4066D01*
X375227Y4385D01*
X375887Y4891D01*
X376393Y5551D01*
X376712Y6319D01*
X376820Y7144D01*
X376712Y7969D01*
X376393Y8737D01*
X375887Y9397D01*
X375227Y9904D01*
X374459Y10222D01*
X373634Y10330D01*
D02*
G37*
G36*
X271634Y7047D02*
X271012Y6923D01*
X270485Y6571D01*
X270133Y6044D01*
X270009Y5422D01*
X270133Y4800D01*
X270485Y4273D01*
X271012Y3920D01*
X271634Y3797D01*
X272256Y3920D01*
X272783Y4273D01*
X273135Y4800D01*
X273259Y5422D01*
X273135Y6044D01*
X272783Y6571D01*
X272256Y6923D01*
X271634Y7047D01*
D02*
G37*
G36*
X547985Y4651D02*
X547363Y4527D01*
X546836Y4175D01*
X546483Y3648D01*
X546360Y3026D01*
X546483Y2404D01*
X546836Y1877D01*
X547363Y1525D01*
X547985Y1401D01*
X548606Y1525D01*
X549133Y1877D01*
X549486Y2404D01*
X549610Y3026D01*
X549486Y3648D01*
X549133Y4175D01*
X548606Y4527D01*
X547985Y4651D01*
D02*
G37*
G36*
X476500Y26371D02*
X474274Y26195D01*
X472104Y25674D01*
X470041Y24820D01*
X468138Y23654D01*
X466440Y22204D01*
X464991Y20506D01*
X463824Y18603D01*
X462970Y16540D01*
X462449Y14370D01*
X462274Y12144D01*
X462449Y9919D01*
X462970Y7748D01*
X463824Y5685D01*
X464991Y3782D01*
X466440Y2084D01*
X468138Y635D01*
X470041Y-532D01*
X472104Y-1386D01*
X474274Y-1907D01*
X476500Y-2082D01*
X478726Y-1907D01*
X480896Y-1386D01*
X482959Y-532D01*
X484862Y635D01*
X486560Y2084D01*
X488010Y3782D01*
X489176Y5685D01*
X490030Y7748D01*
X490551Y9919D01*
X490727Y12144D01*
X490551Y14370D01*
X490030Y16540D01*
X489176Y18603D01*
X488010Y20506D01*
X486560Y22204D01*
X484862Y23654D01*
X482959Y24820D01*
X480896Y25674D01*
X478726Y26195D01*
X476500Y26371D01*
D02*
G37*
G36*
X341500D02*
X339275Y26195D01*
X337104Y25674D01*
X335041Y24820D01*
X333138Y23654D01*
X331440Y22204D01*
X329991Y20506D01*
X328824Y18603D01*
X327970Y16540D01*
X327449Y14370D01*
X327274Y12144D01*
X327449Y9919D01*
X327970Y7748D01*
X328824Y5685D01*
X329991Y3782D01*
X331440Y2084D01*
X333138Y635D01*
X335041Y-532D01*
X337104Y-1386D01*
X339275Y-1907D01*
X341500Y-2082D01*
X343726Y-1907D01*
X345896Y-1386D01*
X347959Y-532D01*
X349862Y635D01*
X351560Y2084D01*
X353010Y3782D01*
X354176Y5685D01*
X355030Y7748D01*
X355551Y9919D01*
X355727Y12144D01*
X355551Y14370D01*
X355030Y16540D01*
X354176Y18603D01*
X353010Y20506D01*
X351560Y22204D01*
X349862Y23654D01*
X347959Y24820D01*
X345896Y25674D01*
X343726Y26195D01*
X341500Y26371D01*
D02*
G37*
G36*
X607241Y4846D02*
X600136D01*
Y-2259D01*
X607241D01*
Y4846D01*
D02*
G37*
G36*
X593688Y4877D02*
X592761Y4755D01*
X591897Y4397D01*
X591154Y3827D01*
X590585Y3085D01*
X590227Y2221D01*
X590105Y1293D01*
X590227Y366D01*
X590585Y-498D01*
X591154Y-1240D01*
X591897Y-1810D01*
X592761Y-2168D01*
X593688Y-2290D01*
X594616Y-2168D01*
X595480Y-1810D01*
X596222Y-1240D01*
X596792Y-498D01*
X597150Y366D01*
X597272Y1293D01*
X597150Y2221D01*
X596792Y3085D01*
X596222Y3827D01*
X595480Y4397D01*
X594616Y4755D01*
X593688Y4877D01*
D02*
G37*
G36*
X181810Y936D02*
X181188Y812D01*
X180661Y460D01*
X180308Y-67D01*
X180185Y-689D01*
X180308Y-1311D01*
X180661Y-1838D01*
X181188Y-2190D01*
X181810Y-2314D01*
X182431Y-2190D01*
X182959Y-1838D01*
X183311Y-1311D01*
X183434Y-689D01*
X183311Y-67D01*
X182959Y460D01*
X182431Y812D01*
X181810Y936D01*
D02*
G37*
G36*
X563587Y904D02*
X562965Y780D01*
X562438Y428D01*
X562086Y-99D01*
X561962Y-721D01*
X562086Y-1343D01*
X562438Y-1870D01*
X562965Y-2222D01*
X563587Y-2346D01*
X564209Y-2222D01*
X564736Y-1870D01*
X565088Y-1343D01*
X565212Y-721D01*
X565088Y-99D01*
X564736Y428D01*
X564209Y780D01*
X563587Y904D01*
D02*
G37*
G36*
X572870Y859D02*
X572248Y735D01*
X571721Y383D01*
X571369Y-144D01*
X571245Y-766D01*
X571369Y-1388D01*
X571721Y-1915D01*
X572248Y-2267D01*
X572870Y-2391D01*
X573492Y-2267D01*
X574019Y-1915D01*
X574371Y-1388D01*
X574495Y-766D01*
X574371Y-144D01*
X574019Y383D01*
X573492Y735D01*
X572870Y859D01*
D02*
G37*
G36*
X550680D02*
X550058Y735D01*
X549531Y383D01*
X549179Y-144D01*
X549055Y-766D01*
X549179Y-1388D01*
X549531Y-1915D01*
X550058Y-2267D01*
X550680Y-2391D01*
X551302Y-2267D01*
X551829Y-1915D01*
X552181Y-1388D01*
X552305Y-766D01*
X552181Y-144D01*
X551829Y383D01*
X551302Y735D01*
X550680Y859D01*
D02*
G37*
G36*
X537763D02*
X537141Y735D01*
X536614Y383D01*
X536262Y-144D01*
X536138Y-766D01*
X536262Y-1388D01*
X536614Y-1915D01*
X537141Y-2267D01*
X537763Y-2391D01*
X538385Y-2267D01*
X538912Y-1915D01*
X539264Y-1388D01*
X539388Y-766D01*
X539264Y-144D01*
X538912Y383D01*
X538385Y735D01*
X537763Y859D01*
D02*
G37*
G36*
X525511D02*
X524889Y735D01*
X524362Y383D01*
X524010Y-144D01*
X523886Y-766D01*
X524010Y-1388D01*
X524362Y-1915D01*
X524889Y-2267D01*
X525511Y-2391D01*
X526133Y-2267D01*
X526660Y-1915D01*
X527012Y-1388D01*
X527136Y-766D01*
X527012Y-144D01*
X526660Y383D01*
X526133Y735D01*
X525511Y859D01*
D02*
G37*
G36*
X168818Y738D02*
X168196Y615D01*
X167669Y262D01*
X167316Y-265D01*
X167193Y-887D01*
X167316Y-1508D01*
X167669Y-2036D01*
X168196Y-2388D01*
X168818Y-2512D01*
X169439Y-2388D01*
X169967Y-2036D01*
X170319Y-1508D01*
X170442Y-887D01*
X170319Y-265D01*
X169967Y262D01*
X169439Y615D01*
X168818Y738D01*
D02*
G37*
G36*
X175979Y711D02*
X175357Y587D01*
X174830Y235D01*
X174477Y-292D01*
X174354Y-914D01*
X174477Y-1536D01*
X174830Y-2063D01*
X175357Y-2415D01*
X175979Y-2539D01*
X176600Y-2415D01*
X177128Y-2063D01*
X177480Y-1536D01*
X177603Y-914D01*
X177480Y-292D01*
X177128Y235D01*
X176600Y587D01*
X175979Y711D01*
D02*
G37*
G36*
X190471Y-1736D02*
X189849Y-1860D01*
X189322Y-2212D01*
X188970Y-2740D01*
X188846Y-3361D01*
X188970Y-3983D01*
X189322Y-4510D01*
X189849Y-4863D01*
X190471Y-4986D01*
X191093Y-4863D01*
X191620Y-4510D01*
X191972Y-3983D01*
X192096Y-3361D01*
X191972Y-2740D01*
X191620Y-2212D01*
X191093Y-1860D01*
X190471Y-1736D01*
D02*
G37*
G36*
X194802Y-1716D02*
X194180Y-1840D01*
X193653Y-2192D01*
X193301Y-2719D01*
X193177Y-3341D01*
X193301Y-3963D01*
X193653Y-4490D01*
X194180Y-4842D01*
X194802Y-4966D01*
X195424Y-4842D01*
X195951Y-4490D01*
X195992Y-4429D01*
X196522Y-4534D01*
X196571Y-4776D01*
X196923Y-5303D01*
X197450Y-5655D01*
X198072Y-5779D01*
X198694Y-5655D01*
X199221Y-5303D01*
X199573Y-4776D01*
X199697Y-4154D01*
X199573Y-3532D01*
X199221Y-3005D01*
X198694Y-2653D01*
X198072Y-2529D01*
X197450Y-2653D01*
X196923Y-3005D01*
X196882Y-3066D01*
X196351Y-2961D01*
X196303Y-2719D01*
X195951Y-2192D01*
X195424Y-1840D01*
X194802Y-1716D01*
D02*
G37*
G36*
X517058Y-2735D02*
X516436Y-2859D01*
X515909Y-3211D01*
X515557Y-3738D01*
X515433Y-4360D01*
X515557Y-4982D01*
X515909Y-5509D01*
X516436Y-5861D01*
X517058Y-5985D01*
X517680Y-5861D01*
X518207Y-5509D01*
X518559Y-4982D01*
X518683Y-4360D01*
X518559Y-3738D01*
X518207Y-3211D01*
X517680Y-2859D01*
X517058Y-2735D01*
D02*
G37*
G36*
X554875Y-5081D02*
X554253Y-5205D01*
X553726Y-5557D01*
X553374Y-6084D01*
X553250Y-6706D01*
X553374Y-7328D01*
X553726Y-7855D01*
X554253Y-8207D01*
X554875Y-8331D01*
X555497Y-8207D01*
X556024Y-7855D01*
X556377Y-7328D01*
X556500Y-6706D01*
X556377Y-6084D01*
X556024Y-5557D01*
X555497Y-5205D01*
X554875Y-5081D01*
D02*
G37*
G36*
X540519D02*
X539897Y-5205D01*
X539370Y-5557D01*
X539018Y-6084D01*
X538894Y-6706D01*
X539018Y-7328D01*
X539370Y-7855D01*
X539897Y-8207D01*
X540519Y-8331D01*
X541141Y-8207D01*
X541668Y-7855D01*
X542020Y-7328D01*
X542144Y-6706D01*
X542020Y-6084D01*
X541668Y-5557D01*
X541141Y-5205D01*
X540519Y-5081D01*
D02*
G37*
G36*
X397626Y-5447D02*
X390521D01*
Y-12553D01*
X397626D01*
Y-5447D01*
D02*
G37*
G36*
X424074Y-5417D02*
X423146Y-5539D01*
X422282Y-5897D01*
X421540Y-6466D01*
X420970Y-7208D01*
X420612Y-8072D01*
X420490Y-9000D01*
X420612Y-9928D01*
X420970Y-10792D01*
X421540Y-11534D01*
X422282Y-12103D01*
X423146Y-12461D01*
X424074Y-12583D01*
X425001Y-12461D01*
X425865Y-12103D01*
X426607Y-11534D01*
X427177Y-10792D01*
X427535Y-9928D01*
X427657Y-9000D01*
X427535Y-8072D01*
X427177Y-7208D01*
X426607Y-6466D01*
X425865Y-5897D01*
X425001Y-5539D01*
X424074Y-5417D01*
D02*
G37*
G36*
X414074D02*
X413146Y-5539D01*
X412282Y-5897D01*
X411540Y-6466D01*
X410970Y-7208D01*
X410612Y-8072D01*
X410490Y-9000D01*
X410612Y-9928D01*
X410970Y-10792D01*
X411540Y-11534D01*
X412282Y-12103D01*
X413146Y-12461D01*
X414074Y-12583D01*
X415001Y-12461D01*
X415865Y-12103D01*
X416607Y-11534D01*
X417177Y-10792D01*
X417535Y-9928D01*
X417657Y-9000D01*
X417535Y-8072D01*
X417177Y-7208D01*
X416607Y-6466D01*
X415865Y-5897D01*
X415001Y-5539D01*
X414074Y-5417D01*
D02*
G37*
G36*
X404073D02*
X403146Y-5539D01*
X402282Y-5897D01*
X401540Y-6466D01*
X400970Y-7208D01*
X400612Y-8072D01*
X400490Y-9000D01*
X400612Y-9928D01*
X400970Y-10792D01*
X401540Y-11534D01*
X402282Y-12103D01*
X403146Y-12461D01*
X404073Y-12583D01*
X405001Y-12461D01*
X405865Y-12103D01*
X406607Y-11534D01*
X407177Y-10792D01*
X407535Y-9928D01*
X407657Y-9000D01*
X407535Y-8072D01*
X407177Y-7208D01*
X406607Y-6466D01*
X405865Y-5897D01*
X405001Y-5539D01*
X404073Y-5417D01*
D02*
G37*
G36*
X186443Y-10375D02*
X185821Y-10499D01*
X185294Y-10851D01*
X184942Y-11378D01*
X184818Y-12000D01*
X184942Y-12622D01*
X185294Y-13149D01*
X185821Y-13501D01*
X186443Y-13625D01*
X187065Y-13501D01*
X187592Y-13149D01*
X187944Y-12622D01*
X188068Y-12000D01*
X187944Y-11378D01*
X187592Y-10851D01*
X187065Y-10499D01*
X186443Y-10375D01*
D02*
G37*
G36*
X129774D02*
X129152Y-10499D01*
X128625Y-10851D01*
X128273Y-11378D01*
X128149Y-12000D01*
X128273Y-12622D01*
X128625Y-13149D01*
X129152Y-13501D01*
X129774Y-13625D01*
X130396Y-13501D01*
X130923Y-13149D01*
X131275Y-12622D01*
X131399Y-12000D01*
X131275Y-11378D01*
X130923Y-10851D01*
X130396Y-10499D01*
X129774Y-10375D01*
D02*
G37*
%LPD*%
D26*
X617118Y169097D02*
D03*
D141*
X232354Y269292D02*
D03*
X221567D02*
D03*
X210780D02*
D03*
X199992D02*
D03*
X576622Y262424D02*
D03*
X587409D02*
D03*
X582015Y273605D02*
D03*
X67606Y269248D02*
D03*
X78394D02*
D03*
X89181D02*
D03*
X99969D02*
D03*
D142*
X592803Y273605D02*
D03*
D145*
X397256Y7144D02*
D03*
X381508Y15018D02*
D03*
X389382D02*
D03*
X413004D02*
D03*
D152*
X650744Y28853D02*
D03*
X630744D02*
D03*
Y48853D02*
D03*
X650744D02*
D03*
D161*
X615385Y129834D02*
D03*
Y133377D02*
D03*
Y126291D02*
D03*
X622865Y129834D02*
D03*
Y133377D02*
D03*
Y126291D02*
D03*
X619322D02*
D03*
Y133377D02*
D03*
Y129834D02*
D03*
D163*
X619850Y208711D02*
D03*
X86749Y205000D02*
D03*
X38127Y193819D02*
D03*
D167*
X561111Y20057D02*
D03*
D169*
X249659Y-8747D02*
D03*
X223675D02*
D03*
D171*
X162358Y17285D02*
D03*
X214620Y123176D02*
D03*
X655461Y241768D02*
D03*
Y161768D02*
D03*
Y41768D02*
D03*
X635461Y241768D02*
D03*
X645461Y221768D02*
D03*
X635461Y201768D02*
D03*
X645461Y181768D02*
D03*
Y21768D02*
D03*
X615461Y281768D02*
D03*
X625461Y261768D02*
D03*
X615461Y241768D02*
D03*
X625461Y221768D02*
D03*
Y181768D02*
D03*
X615461Y161768D02*
D03*
X625461Y21768D02*
D03*
X615461Y1768D02*
D03*
X595461Y281768D02*
D03*
X605461Y261768D02*
D03*
X595461Y241768D02*
D03*
X605461Y221768D02*
D03*
X595461Y201768D02*
D03*
X605461Y181768D02*
D03*
X595461Y161768D02*
D03*
X575461Y281768D02*
D03*
Y241768D02*
D03*
X585461Y221768D02*
D03*
Y181768D02*
D03*
X575461Y161768D02*
D03*
X585461Y21768D02*
D03*
X555461Y281768D02*
D03*
X565461Y221768D02*
D03*
X555461Y161768D02*
D03*
X535461Y281768D02*
D03*
X545461Y261768D02*
D03*
X535461Y241768D02*
D03*
X545461Y221768D02*
D03*
X535461Y201768D02*
D03*
Y161768D02*
D03*
X515461Y281768D02*
D03*
Y241768D02*
D03*
X525461Y181768D02*
D03*
Y21768D02*
D03*
X495461Y281768D02*
D03*
X505461Y261768D02*
D03*
X495461Y241768D02*
D03*
X505461Y221768D02*
D03*
X495461Y201768D02*
D03*
X505461Y181768D02*
D03*
X495461Y161768D02*
D03*
Y121768D02*
D03*
X505461Y101768D02*
D03*
X495461Y81768D02*
D03*
X505461Y21768D02*
D03*
X475461Y241768D02*
D03*
X485461Y221768D02*
D03*
X475461Y201768D02*
D03*
X485461Y181768D02*
D03*
X475461Y121768D02*
D03*
X485461Y101768D02*
D03*
X475461Y81768D02*
D03*
X455461Y281768D02*
D03*
Y241768D02*
D03*
X465461Y221768D02*
D03*
X455461Y201768D02*
D03*
X465461Y181768D02*
D03*
X455461Y161768D02*
D03*
Y121768D02*
D03*
X465461Y101768D02*
D03*
X455461Y1768D02*
D03*
X435461Y281768D02*
D03*
X445461Y261768D02*
D03*
X435461Y241768D02*
D03*
X445461Y221768D02*
D03*
X435461Y201768D02*
D03*
X445461Y181768D02*
D03*
X435461Y161768D02*
D03*
X445461Y141768D02*
D03*
X435461Y121768D02*
D03*
X445461Y101768D02*
D03*
X435461Y81768D02*
D03*
Y41768D02*
D03*
X415461Y281768D02*
D03*
X425461Y261768D02*
D03*
X415461Y241768D02*
D03*
X425461Y221768D02*
D03*
X415461Y201768D02*
D03*
X425461Y181768D02*
D03*
X415461Y161768D02*
D03*
X425461Y141768D02*
D03*
Y101768D02*
D03*
X415461Y81768D02*
D03*
Y41768D02*
D03*
Y1768D02*
D03*
X395461Y281768D02*
D03*
X405461Y261768D02*
D03*
X395461Y241768D02*
D03*
X405461Y221768D02*
D03*
X395461Y201768D02*
D03*
X405461Y181768D02*
D03*
X395461Y161768D02*
D03*
X405461Y141768D02*
D03*
X395461Y121768D02*
D03*
X405461Y101768D02*
D03*
X395461Y81768D02*
D03*
Y41768D02*
D03*
X375461Y281768D02*
D03*
X385461Y261768D02*
D03*
X375461Y241768D02*
D03*
X385461Y221768D02*
D03*
X375461Y201768D02*
D03*
X385461Y181768D02*
D03*
X375461Y161768D02*
D03*
Y121768D02*
D03*
X385461Y101768D02*
D03*
X375461Y81768D02*
D03*
X385461Y61768D02*
D03*
X375461Y41768D02*
D03*
X355461Y281768D02*
D03*
X365461Y261768D02*
D03*
X355461Y241768D02*
D03*
X365461Y221768D02*
D03*
X355461Y201768D02*
D03*
X365461Y181768D02*
D03*
X355461Y161768D02*
D03*
Y121768D02*
D03*
Y81768D02*
D03*
Y1768D02*
D03*
X335461Y281768D02*
D03*
Y241768D02*
D03*
X345461Y221768D02*
D03*
X335461Y201768D02*
D03*
X345461Y181768D02*
D03*
X335461Y161768D02*
D03*
Y121768D02*
D03*
X345461Y101768D02*
D03*
X335461Y81768D02*
D03*
X345461Y61768D02*
D03*
X335461Y41768D02*
D03*
X315461Y281768D02*
D03*
X325461Y261768D02*
D03*
Y221768D02*
D03*
X315461Y201768D02*
D03*
X325461Y181768D02*
D03*
X315461Y161768D02*
D03*
Y121768D02*
D03*
Y41768D02*
D03*
X325461Y21768D02*
D03*
X315461Y1768D02*
D03*
X295461Y281768D02*
D03*
X305461Y261768D02*
D03*
Y221768D02*
D03*
Y181768D02*
D03*
Y61768D02*
D03*
Y21768D02*
D03*
X275461Y281768D02*
D03*
X285461Y261768D02*
D03*
X275461Y121768D02*
D03*
Y81768D02*
D03*
X255461Y281768D02*
D03*
Y241768D02*
D03*
X265461Y181768D02*
D03*
X255461Y121768D02*
D03*
Y1768D02*
D03*
X235461Y281768D02*
D03*
Y201768D02*
D03*
Y121768D02*
D03*
X245461Y101768D02*
D03*
Y21768D02*
D03*
X215461Y281768D02*
D03*
X225461Y221768D02*
D03*
X215461Y201768D02*
D03*
Y1768D02*
D03*
X195461Y281768D02*
D03*
Y81768D02*
D03*
X175461Y281768D02*
D03*
X185461Y261768D02*
D03*
X175461Y201768D02*
D03*
X185461Y141768D02*
D03*
X175461Y121768D02*
D03*
X155461Y281768D02*
D03*
X165461Y141768D02*
D03*
Y101768D02*
D03*
Y61768D02*
D03*
X135461Y281768D02*
D03*
X145461Y261768D02*
D03*
X135461Y241768D02*
D03*
X145461Y221768D02*
D03*
Y141768D02*
D03*
Y101768D02*
D03*
Y61768D02*
D03*
X115461Y281768D02*
D03*
X125461Y261768D02*
D03*
Y221768D02*
D03*
X115461Y201768D02*
D03*
X125461Y141768D02*
D03*
X115461Y121768D02*
D03*
X125461Y101768D02*
D03*
Y61768D02*
D03*
X115461Y41768D02*
D03*
Y1768D02*
D03*
X95461Y281768D02*
D03*
X105461Y221768D02*
D03*
Y181768D02*
D03*
X95461Y121768D02*
D03*
Y81768D02*
D03*
Y41768D02*
D03*
X105461Y21768D02*
D03*
X75461Y281768D02*
D03*
X85461Y221768D02*
D03*
X75461Y161768D02*
D03*
Y121768D02*
D03*
Y81768D02*
D03*
X85461Y61768D02*
D03*
X55461Y281768D02*
D03*
Y241768D02*
D03*
X65461Y221768D02*
D03*
X55461Y161768D02*
D03*
X65461Y141768D02*
D03*
X55461Y121768D02*
D03*
X65461Y101768D02*
D03*
X55461Y81768D02*
D03*
X65461Y61768D02*
D03*
X35461Y281768D02*
D03*
X45461Y261768D02*
D03*
X35461Y241768D02*
D03*
X45461Y221768D02*
D03*
Y181768D02*
D03*
X35461Y161768D02*
D03*
X45461Y141768D02*
D03*
X35461Y121768D02*
D03*
X45461Y101768D02*
D03*
Y61768D02*
D03*
X35461Y41768D02*
D03*
X187680Y228284D02*
D03*
X201166Y197120D02*
D03*
X199701Y173237D02*
D03*
X155260Y172376D02*
D03*
X139583Y154168D02*
D03*
X172471Y223862D02*
D03*
X181880Y144077D02*
D03*
X236339Y159243D02*
D03*
X257226Y170619D02*
D03*
X258604Y164016D02*
D03*
X240775Y139455D02*
D03*
X545637Y-3760D02*
D03*
X283881Y157823D02*
D03*
X569915Y-4252D02*
D03*
X557229Y-3760D02*
D03*
X535297Y-4360D02*
D03*
X290715Y53465D02*
D03*
X309866Y106559D02*
D03*
X186984Y92230D02*
D03*
X533161Y155275D02*
D03*
X531998Y70621D02*
D03*
X254919Y151452D02*
D03*
X232169Y64793D02*
D03*
X275391Y135831D02*
D03*
D172*
X6592Y107046D02*
D03*
Y111770D02*
D03*
Y116495D02*
D03*
Y121219D02*
D03*
Y125944D02*
D03*
Y130668D02*
D03*
Y135392D02*
D03*
X11317Y107046D02*
D03*
Y111770D02*
D03*
Y116495D02*
D03*
Y125944D02*
D03*
Y130668D02*
D03*
Y135392D02*
D03*
X16041Y107046D02*
D03*
Y111770D02*
D03*
Y116495D02*
D03*
Y121219D02*
D03*
Y125944D02*
D03*
Y130668D02*
D03*
Y135392D02*
D03*
X20765Y107046D02*
D03*
Y111770D02*
D03*
Y116495D02*
D03*
Y121219D02*
D03*
Y125944D02*
D03*
Y130668D02*
D03*
Y135392D02*
D03*
X11317Y121219D02*
D03*
M02*
