G04*
G04 #@! TF.GenerationSoftware,Altium Limited,Altium Designer,22.1.2 (22)*
G04*
G04 Layer_Color=16711935*
%FSLAX25Y25*%
%MOIN*%
G70*
G04*
G04 #@! TF.SameCoordinates,56094753-5DA1-4506-B589-AA1800A80C84*
G04*
G04*
G04 #@! TF.FilePolarity,Positive*
G04*
G01*
G75*
%ADD173C,0.00000*%
%ADD174C,0.00591*%
D173*
X223675Y-6384D02*
G03*
X222691Y-7369I0J-984D01*
G01*
X224659D02*
G03*
X223675Y-6384I-984J0D01*
G01*
Y-11109D02*
G03*
X224659Y-10125I0J984D01*
G01*
X222691D02*
G03*
X223675Y-11109I984J0D01*
G01*
X249659Y-6384D02*
G03*
X248675Y-7369I0J-984D01*
G01*
X250643D02*
G03*
X249659Y-6384I-984J0D01*
G01*
Y-11109D02*
G03*
X250643Y-10125I0J984D01*
G01*
X248675D02*
G03*
X249659Y-11109I984J0D01*
G01*
X248675Y-10125D02*
Y-7369D01*
X250643Y-10125D02*
Y-7369D01*
X222690Y-10125D02*
Y-7369D01*
X224659Y-10125D02*
Y-7369D01*
D174*
X95918Y125577D02*
X100181D01*
X101034Y126430D01*
Y128136D01*
X100181Y128988D01*
X95918D01*
X101034Y130694D02*
Y132399D01*
Y131546D01*
X95918D01*
X96771Y130694D01*
X95918Y138368D02*
Y134958D01*
X98476D01*
X97623Y136663D01*
Y137516D01*
X98476Y138368D01*
X100181D01*
X101034Y137516D01*
Y135810D01*
X100181Y134958D01*
M02*
