M48
;Layer_Color=9474304
;FILE_FORMAT=2:4
INCH,LZ
;TYPE=PLATED
T1F00S00C0.0079
T2F00S00C0.0100
T4F00S00C0.0299
T5F00S00C0.0315
T6F00S00C0.0354
T7F00S00C0.0409
T8F00S00C0.0600
T9F00S00C0.0670
T10F00S00C0.1220
T11F00S00C0.1280
T12F00S00C0.1358
;TYPE=NON_PLATED
T13F00S00C0.1201
%
T01
X064546Y002177
X062546
X060392Y002146
X058546Y002177
X058074Y000638
X057563
X057287Y-000077
X056992Y-000425
X056359Y-000072
X056314Y000641
X055147Y000663
X054798Y000303
X055068Y-000077
X054564Y-000376
X054052Y-000671
X05353Y-000436
X053776Y-000077
X053789Y000638
X053625Y001417
X053138Y001183
X05247Y000842
X052551Y-000077
X051706Y-000436
X052546Y002177
X050546
X054308Y0012
X055723Y-000376
X055488Y-000671
X061546Y000177
X045546
X041546
X035546
X036253Y00103
X0366Y002262
X032546Y002177
X031546Y000177
X030546Y002177
X028494Y001283
X027163Y000542
X025546Y000177
X024546Y002177
X02314Y001891
X02264Y001776
X022554Y002427
X021546Y000177
X019807Y-000415
X01948Y-000334
X019047Y-000336
X018181Y-000069
X017598Y-000091
X016882Y-000089
X016733Y000801
X017595
X016236Y001728
X018644Y-0012
X012977
X012549Y001157
X011546Y000177
X010546Y002177
X013694Y002427
X015769Y002427
X008207Y001066
X006269Y001005
X003819Y001603
X-000921Y008732
X-000671Y009232
X-001171
X-000921Y009732
X-000671Y010232
X-000171
X-000421Y010732
X-000921
X-000671Y011232
X-000171
X-000421Y011732
X-000921
X-000671Y012232
X-000171
X-000421Y012732
X-000921
X-001171Y012232
Y011232
Y010232
X000659Y010705
Y011177
Y011649
Y012122
Y012594
Y013067
Y013539
X001132
Y013067
Y012594
X001604
Y012122
Y011649
X001132
Y011177
Y010705
X001604
Y011177
X002077
Y010705
Y011649
Y012122
Y012594
Y013067
X001604
Y013539
X002077
X001132Y012122
X003546Y012177
X005546
X007546
X009546
X011546
X013077Y01223
X012546Y014177
X014546
X015051Y014845
X013958Y015417
X015526Y017238
X014546Y010177
X012546
X010858Y010595
X008207Y010684
X006546Y010177
X004546
X005546Y008177
X007546
X009546
X009585Y009019
X00872Y007058
X008546Y006177
X006546
X004546
X003528Y00667
X003546Y004177
X003507Y003277
X001088Y00329
X00874Y003376
X009546Y004177
X011546
X012546Y006177
X014546
X014162Y006851
X014652Y008218
X015147Y00406
X014021Y003458
X014011Y002531
X01352Y00277
X006546Y014177
X004546
X005546Y016177
X007546
X003546
X018103Y0163
X017613Y017674
X01997Y017324
X020356Y016376
X020701
X022268Y01508
X02261Y01496
X023138Y014948
X023606Y013975
X024077Y013946
X025181Y013908
X025604Y013689
X025879Y013572
X026948Y013691
X027539Y013583
X027546Y012177
X028886Y012615
Y012953
Y013312
X029582Y013744
X028765Y016091
X028388Y015782
X027494Y016376
X027278Y016912
Y017242
X026791Y017504
X025591Y0178
X025723Y017062
X02586Y016402
X026182Y015291
X025492Y015145
X024192Y016313
X024055Y016795
X023634Y015924
X023546Y012177
X025546
X024546Y010177
X022109Y009868
X021823Y009582
X021638Y010855
X021462Y012318
X021619Y012866
X020473Y012729
X020392Y013017
X020289Y013345
X020072Y01368
X020255Y012168
X020492Y011982
X017546Y012177
X017782Y009575
X01809Y009544
X018698Y009223
X019909Y009265
X019907Y008742
X019546Y008177
X019872Y007765
X019649Y007234
X01939Y00605
X019939Y00596
X02175Y006445
X022228Y006618
X02261Y006721
X022886Y006449
X023217Y006479
X023409Y006709
X023629Y00698
X023923Y006685
X024333Y006809
X024627Y006397
X024999Y006445
X026834Y006715
X027143Y006735
X027459
X027772Y006743
Y007103
X028346Y006412
X027863Y005208
X029072Y005347
X030546Y006177
X028994Y008481
X028386
X027546Y008177
X029028Y010056
X029092Y010829
X030987Y010656
X029609Y017392
X029076Y017007
X028809Y01772
X028238Y017386
X018546Y014177
X018188Y014408
X016546Y014177
Y010177
Y006177
X021542Y007089
X021638Y007372
X021467Y00772
X021883Y005288
X022371Y005277
X022702Y004281
X021344Y004532
X023726Y005093
X024628Y003305
X031546Y004177
X033546
X034546Y006177
X035546Y008177
X037546
X039546
X041546
X043546
X044546Y010177
X046546
X045546Y012177
X043546
X044546Y014177
X042546
X040546
X041546Y016177
X043546
X045546
X039546
X037546
X035546
X033546
X031546
Y012177
X033546
X034701Y011504
X034546Y010177
X035546Y012177
X037546
X039546
X040546Y010177
X042546
X038546
Y006177
X041Y0061
X041407
X041546Y004177
X043546
X039546
X037546
X036505Y004068
Y003698
X033546Y008177
X047546
X049546
X050546Y010177
X048546
X049546Y012177
X047546
X049546Y016177
X053546
X054123Y016455
Y016849
Y017185
X055546Y016177
X057546
X059546
X061546
X062504Y016193
X053316Y015528
X0532Y007062
X053011Y0063
X058478Y004346
X0582Y003436
X060126Y003928
X060764Y004519
X061635Y003885
X060392Y002869
Y0025
X059454Y004971
X065546Y004177
Y016177
X063262Y016193
X062883
X064546Y018177
X063546Y020177
X064546Y022177
X065546Y024177
X063546
X061546
X059546
X057546
X058546Y022177
X060546
X062546
Y026177
X060546
X061546Y028177
X059546
X057546
X055546
X053546
X051546
X049546
X050546Y026177
X051546Y024177
X053546
X054546Y026177
Y022177
X056546
X059546Y020177
X060546Y018177
X062546
X058546
X052546
X050546
X048546
X049546Y020177
X047546
X048546Y022177
X050546
X049546Y024177
X047546
X053546Y020177
X045546
X043546
X041546
X039546
X037546
X035546
X033546
X031546
X032546Y022177
X034546
X036546
X038546
X040546
X042546
X044546
X046546
X045546Y024177
X043546
X041546
X039546
X037546
X035546
X033546
X032546Y026177
X033546Y028177
X035546
X037546
X039546
X041546
X043546
X045546
X044546Y026177
X042546
X040546
X038546
X036546
X031546Y028177
X032546Y018177
X034546
X036546
X038546
X040546
X042546
X044546
X046546
X030546
X029092Y019247
X028843Y019501
X027999Y018964
X027232
X0266Y019296
X026546Y018177
X023546Y020177
X021546
X01974Y020101
X020117Y019712
X020673Y021353
X020648Y021977
X019796Y021952
X018768Y022828
X018103Y022954
X017247Y022386
X017747Y021167
X017546Y020177
X017206Y019897
X022546Y022177
X025546Y024177
Y028177
X027546
X029546
X030546Y026177
X028546
X030546Y022177
X023546Y028177
X021546
X019546
X017546
X018546Y026177
X020484Y025297
X014546Y026177
X012546
X013546Y028177
X015546
X011546
X009546
X007546
X005546
X003546
X004546Y026177
X005546Y024177
X003546
X004546Y022177
X006546
X008546
X010546
X012546
X014546
X015265Y021724
X015638Y023174
X013546Y024177
X011546Y020177
X010546Y018177
X004546
X006737Y025186
T02
X061539Y012629
Y012983
Y013338
X061932
X062287
Y012983
X061932
Y012629
X062287
T04
X053111Y002006
X054111
X055111
X056111
Y005006
X055111
X054111
X053111
T05
X037363Y000714
X038151
X038938
X039726
X040513
X0413
X042088
X042875
X043663
X04445
Y001502
X043663
X042875
X042088
X0413
X040513
X039726
X038938
X038151
X037363
T06
X059369Y000129
X060369
X042407Y-0009
X041407
X040407
X039407
X007924Y-0012
X006924
X005924
X004924
X021038Y017883
X022038
X059712Y01691
X060712
X061712
X02785Y023006
X02685
X02585
X02485
X02385
X02285
X022034Y020022
X021034
T07
X054965Y019753
X056044
X057123
X058202
X059288
X060367
X061446
X062524
X061985Y020871
X060906
X059824
X058745
X057666
X056583
X055505
Y026242
X056583
X057662
X058741
X058202Y02736
X057123
X056044
X054965
X05928
X023235Y026929
X022157
X021078
X019999
X020539Y025811
X021617
X022696
X023775
X01946
X010536Y025807
X009457
X008379
X0073
X006221
X006761Y026925
X007839
X008918
X009997
X009754Y0205
X008675
X007592
X006513
X005435
X004352
X003273
X003813Y019382
X004891
X00597
X007057
X008135
X009214
X010293
X002734
T08
X064074Y003885
T09
X063074Y002885
X065074
Y004885
X063074
T10
X065304Y020312
X052186
X013073Y019941
X-000046
T11
X064961Y0
X0
X064961Y027559
X0
T12
X04765Y001214
X03415
X04765Y026714
X03415Y026714
T13
X052202Y026801
X06204
X026539Y02637
X0167
X0133Y026366
X003461
M30
