G04*
G04 #@! TF.GenerationSoftware,Altium Limited,Altium Designer,22.1.2 (22)*
G04*
G04 Layer_Color=32896*
%FSLAX25Y25*%
%MOIN*%
G70*
G04*
G04 #@! TF.SameCoordinates,56094753-5DA1-4506-B589-AA1800A80C84*
G04*
G04*
G04 #@! TF.FilePolarity,Positive*
G04*
G01*
G75*
%ADD16C,0.00500*%
D16*
X221195Y-18589D02*
G03*
X221706Y-17014I-532J1043D01*
G01*
X221918Y-19570D02*
G03*
X223278Y-17393I-408J1768D01*
G01*
X251627Y-17014D02*
G03*
X252139Y-18589I1043J-532D01*
G01*
X250055Y-17400D02*
G03*
X251422Y-19768I1868J-501D01*
G01*
X221195Y-18589D02*
G03*
X221706Y-17014I-532J1043D01*
G01*
X221918Y-19570D02*
G03*
X223278Y-17393I-408J1768D01*
G01*
X251627Y-17014D02*
G03*
X252139Y-18589I1043J-532D01*
G01*
X250055Y-17400D02*
G03*
X251422Y-19768I1868J-501D01*
G01*
X251431Y-19770D02*
X252139Y-18589D01*
X249265Y-19573D02*
Y-17408D01*
X224068Y-19573D02*
X249265D01*
X224068D02*
Y-17408D01*
X221194Y-18589D02*
X221903Y-19573D01*
X221706Y-17014D02*
Y2671D01*
Y-17211D02*
Y-17014D01*
Y-17211D02*
X251627D01*
Y-14455D01*
Y2671D01*
X221706D02*
X251627D01*
X251431Y-19770D02*
X252139Y-18589D01*
X249265Y-19573D02*
Y-17408D01*
X224068Y-19573D02*
X249265D01*
X224068D02*
Y-17408D01*
X221194Y-18589D02*
X221903Y-19573D01*
X221706Y-17014D02*
Y2671D01*
Y-17211D02*
Y-17014D01*
Y-17211D02*
X251627D01*
Y-14455D01*
Y2671D01*
X221706D02*
X251627D01*
M02*
