G04*
G04 #@! TF.GenerationSoftware,Altium Limited,Altium Designer,22.1.2 (22)*
G04*
G04 Layer_Color=65535*
%FSLAX25Y25*%
%MOIN*%
G70*
G04*
G04 #@! TF.SameCoordinates,56094753-5DA1-4506-B589-AA1800A80C84*
G04*
G04*
G04 #@! TF.FilePolarity,Positive*
G04*
G01*
G75*
%ADD10C,0.00984*%
%ADD11C,0.00787*%
%ADD12C,0.02362*%
%ADD13C,0.00600*%
%ADD14C,0.01575*%
%ADD15C,0.00394*%
%ADD16C,0.00500*%
%ADD17C,0.01400*%
%ADD18C,0.00300*%
%ADD19C,0.01000*%
%ADD20C,0.00800*%
G36*
X-7686Y170416D02*
X-7604D01*
Y170334D01*
X-7686D01*
Y170253D01*
X-7767D01*
Y170334D01*
X-7849D01*
Y170416D01*
X-7767D01*
Y170498D01*
X-7686D01*
Y170416D01*
D02*
G37*
G36*
X12289Y169837D02*
X12370D01*
Y169755D01*
X12452D01*
Y169837D01*
X12534D01*
Y169755D01*
X12616D01*
Y169673D01*
X12698D01*
Y169755D01*
X12779D01*
Y169673D01*
X12861D01*
Y169592D01*
X13106D01*
Y169510D01*
X13188D01*
Y169428D01*
X13270D01*
Y169346D01*
X13352D01*
Y169264D01*
X13597D01*
Y169183D01*
X13515D01*
Y169101D01*
X13597D01*
Y169019D01*
X13679D01*
Y168937D01*
X13761D01*
Y168856D01*
X13842D01*
Y168774D01*
Y168692D01*
Y168610D01*
X13924D01*
Y168528D01*
Y168447D01*
Y168365D01*
X14006D01*
Y168283D01*
Y168201D01*
Y168120D01*
X13924D01*
Y168201D01*
X13842D01*
Y168120D01*
X13761D01*
Y168038D01*
X13679D01*
Y168120D01*
X13597D01*
Y168038D01*
X13352D01*
Y167956D01*
X13270D01*
Y168038D01*
X13188D01*
Y167956D01*
X13106D01*
Y167874D01*
X12698D01*
Y167792D01*
X12452D01*
Y167711D01*
X12207D01*
Y167792D01*
Y167874D01*
Y167956D01*
X12125D01*
Y168038D01*
X12043D01*
Y168120D01*
X12125D01*
Y168201D01*
X11880D01*
Y168283D01*
X11798D01*
Y168365D01*
X11716D01*
Y168447D01*
X11635D01*
Y168365D01*
X11553D01*
Y168447D01*
X11471D01*
Y168365D01*
X11389D01*
Y168447D01*
X11307D01*
Y168365D01*
X11062D01*
Y168283D01*
X10980D01*
Y168201D01*
X10735D01*
Y168120D01*
X10817D01*
Y168038D01*
X10571D01*
Y167956D01*
X10653D01*
Y167874D01*
X10490D01*
Y167792D01*
Y167711D01*
X10408D01*
Y167629D01*
X10326D01*
Y167547D01*
X10244D01*
Y167465D01*
Y167384D01*
Y167302D01*
X10163D01*
Y167220D01*
X10081D01*
Y167138D01*
X10163D01*
Y167057D01*
X10081D01*
Y166975D01*
X9999D01*
Y166893D01*
Y166811D01*
Y166729D01*
X9917D01*
Y166648D01*
X9999D01*
Y166566D01*
X9917D01*
Y166484D01*
X9835D01*
Y166402D01*
X9917D01*
Y166321D01*
X9835D01*
Y166239D01*
X9754D01*
Y166157D01*
X9835D01*
Y166075D01*
X9754D01*
Y165993D01*
X9835D01*
Y165912D01*
X9754D01*
Y165830D01*
X9835D01*
Y165748D01*
X9754D01*
Y165666D01*
X9835D01*
Y165585D01*
X9754D01*
Y165503D01*
X9835D01*
Y165421D01*
X9754D01*
Y165339D01*
X9835D01*
Y165257D01*
X9754D01*
Y165176D01*
X9835D01*
Y165094D01*
X9754D01*
Y165012D01*
X9835D01*
Y164930D01*
X9754D01*
Y164848D01*
X9835D01*
Y164767D01*
X9917D01*
Y164685D01*
X9999D01*
Y164603D01*
X10081D01*
Y164521D01*
X10326D01*
Y164440D01*
X10408D01*
Y164358D01*
X10490D01*
Y164440D01*
X10408D01*
Y164521D01*
X10490D01*
Y164440D01*
X10571D01*
Y164358D01*
X10653D01*
Y164440D01*
X10735D01*
Y164521D01*
X10980D01*
Y164603D01*
X11062D01*
Y164521D01*
X11144D01*
Y164603D01*
X11062D01*
Y164685D01*
X11307D01*
Y164767D01*
X11226D01*
Y164848D01*
X11471D01*
Y164930D01*
X11389D01*
Y165012D01*
X11471D01*
Y164930D01*
X11553D01*
Y164848D01*
X11635D01*
Y164930D01*
X11553D01*
Y165012D01*
X11635D01*
Y164930D01*
X11716D01*
Y164848D01*
X11798D01*
Y164767D01*
X11880D01*
Y164685D01*
X11962D01*
Y164767D01*
X11880D01*
Y164848D01*
X11962D01*
Y164767D01*
X12043D01*
Y164685D01*
X12125D01*
Y164603D01*
X12207D01*
Y164685D01*
X12289D01*
Y164603D01*
X12370D01*
Y164521D01*
X12616D01*
Y164440D01*
X12698D01*
Y164358D01*
X12779D01*
Y164440D01*
X12861D01*
Y164358D01*
X12943D01*
Y164276D01*
X12861D01*
Y164194D01*
X12779D01*
Y164113D01*
X12698D01*
Y164031D01*
X12616D01*
Y163949D01*
X12534D01*
Y163867D01*
X12452D01*
Y163785D01*
X12207D01*
Y163704D01*
X12289D01*
Y163622D01*
X12043D01*
Y163540D01*
X11962D01*
Y163458D01*
X11880D01*
Y163377D01*
X11798D01*
Y163458D01*
X11716D01*
Y163377D01*
X11798D01*
Y163295D01*
X11716D01*
Y163377D01*
X11635D01*
Y163295D01*
X11389D01*
Y163213D01*
X11471D01*
Y163131D01*
X11389D01*
Y163213D01*
X11307D01*
Y163131D01*
X10898D01*
Y163049D01*
X10980D01*
Y162968D01*
X10898D01*
Y163049D01*
X10653D01*
Y162968D01*
X10571D01*
Y163049D01*
X10490D01*
Y162968D01*
X10244D01*
Y163049D01*
X10163D01*
Y162968D01*
X9917D01*
Y163049D01*
X9835D01*
Y162968D01*
X9754D01*
Y163049D01*
X9672D01*
Y162968D01*
X9590D01*
Y163049D01*
X9508D01*
Y163131D01*
X9099D01*
Y163213D01*
X9018D01*
Y163295D01*
X8772D01*
Y163377D01*
X8691D01*
Y163458D01*
X8609D01*
Y163540D01*
X8527D01*
Y163622D01*
X8445D01*
Y163704D01*
X8364D01*
Y163785D01*
X8282D01*
Y163867D01*
Y163949D01*
Y164031D01*
X8200D01*
Y164113D01*
X8118D01*
Y164194D01*
Y164276D01*
Y164358D01*
X8036D01*
Y164440D01*
Y164521D01*
Y164603D01*
X7955D01*
Y164685D01*
X8036D01*
Y164767D01*
X7955D01*
Y164848D01*
Y164930D01*
Y165012D01*
Y165094D01*
Y165176D01*
Y165257D01*
Y165339D01*
Y165421D01*
Y165503D01*
Y165585D01*
Y165666D01*
X8036D01*
Y165748D01*
X7955D01*
Y165830D01*
X8036D01*
Y165912D01*
X7955D01*
Y165993D01*
X8036D01*
Y166075D01*
X7955D01*
Y166157D01*
X8036D01*
Y166239D01*
X7955D01*
Y166321D01*
X8118D01*
Y166402D01*
Y166484D01*
X8200D01*
Y166566D01*
X8118D01*
Y166648D01*
X8200D01*
Y166729D01*
X8118D01*
Y166811D01*
X8200D01*
Y166893D01*
X8282D01*
Y166975D01*
X8364D01*
Y167057D01*
X8282D01*
Y167138D01*
X8364D01*
Y167220D01*
X8282D01*
Y167302D01*
X8364D01*
Y167384D01*
X8445D01*
Y167465D01*
X8527D01*
Y167547D01*
X8445D01*
Y167629D01*
X8527D01*
Y167711D01*
X8609D01*
Y167792D01*
X8691D01*
Y167874D01*
X8609D01*
Y167956D01*
X8691D01*
Y168038D01*
X8772D01*
Y168120D01*
X8854D01*
Y168201D01*
Y168283D01*
X9018D01*
Y168365D01*
X8936D01*
Y168447D01*
X9018D01*
Y168528D01*
X9099D01*
Y168610D01*
X9181D01*
Y168692D01*
X9263D01*
Y168774D01*
X9345D01*
Y168856D01*
X9426D01*
Y168937D01*
X9508D01*
Y169019D01*
X9590D01*
Y168937D01*
X9672D01*
Y169019D01*
X9590D01*
Y169101D01*
X9672D01*
Y169183D01*
X9754D01*
Y169101D01*
X9835D01*
Y169183D01*
X9754D01*
Y169264D01*
X9999D01*
Y169346D01*
X10081D01*
Y169428D01*
X10326D01*
Y169510D01*
X10408D01*
Y169592D01*
X10653D01*
Y169673D01*
X10735D01*
Y169592D01*
X10817D01*
Y169673D01*
X10735D01*
Y169755D01*
X10817D01*
Y169673D01*
X10898D01*
Y169755D01*
X11144D01*
Y169837D01*
X11226D01*
Y169755D01*
X11307D01*
Y169837D01*
X11389D01*
Y169755D01*
X11471D01*
Y169837D01*
X11553D01*
Y169919D01*
X11635D01*
Y169837D01*
X11716D01*
Y169755D01*
X11798D01*
Y169837D01*
X11716D01*
Y169919D01*
X11798D01*
Y169837D01*
X11880D01*
Y169919D01*
X11962D01*
Y169837D01*
X12043D01*
Y169755D01*
X12125D01*
Y169837D01*
X12043D01*
Y169919D01*
X12125D01*
Y169837D01*
X12207D01*
Y169755D01*
X12289D01*
Y169837D01*
X12207D01*
Y169919D01*
X12289D01*
Y169837D01*
D02*
G37*
G36*
X-3249Y169673D02*
X-3167D01*
Y169592D01*
X-3085D01*
Y169510D01*
X-3167D01*
Y169428D01*
X-3249D01*
Y169346D01*
Y169264D01*
Y169183D01*
X-3331D01*
Y169101D01*
X-3249D01*
Y169019D01*
X-3331D01*
Y168937D01*
X-3249D01*
Y168856D01*
X-3331D01*
Y168774D01*
X-3412D01*
Y168692D01*
X-3494D01*
Y168610D01*
X-3412D01*
Y168528D01*
X-3494D01*
Y168447D01*
X-3412D01*
Y168365D01*
X-3494D01*
Y168283D01*
X-3412D01*
Y168201D01*
X-3494D01*
Y168120D01*
X-3576D01*
Y168038D01*
X-3494D01*
Y167956D01*
X-3576D01*
Y167874D01*
X-3658D01*
Y167792D01*
X-3576D01*
Y167711D01*
X-3658D01*
Y167629D01*
X-3576D01*
Y167547D01*
X-3658D01*
Y167465D01*
X-3740D01*
Y167384D01*
X-3658D01*
Y167302D01*
X-3740D01*
Y167384D01*
X-3821D01*
Y167302D01*
X-3740D01*
Y167220D01*
X-3821D01*
Y167138D01*
X-3740D01*
Y167057D01*
X-3821D01*
Y166975D01*
X-3740D01*
Y166893D01*
X-3821D01*
Y166811D01*
Y166729D01*
Y166648D01*
X-3903D01*
Y166566D01*
X-3985D01*
Y166484D01*
X-3903D01*
Y166402D01*
X-3985D01*
Y166321D01*
X-3903D01*
Y166239D01*
X-3985D01*
Y166157D01*
X-4067D01*
Y166075D01*
Y165993D01*
Y165912D01*
Y165830D01*
Y165748D01*
X-4148D01*
Y165666D01*
Y165585D01*
Y165503D01*
X-4230D01*
Y165421D01*
X-4312D01*
Y165339D01*
X-4230D01*
Y165257D01*
X-4312D01*
Y165176D01*
X-4394D01*
Y165094D01*
X-4476D01*
Y165012D01*
X-4394D01*
Y164930D01*
X-4476D01*
Y164848D01*
X-4557D01*
Y164767D01*
X-4639D01*
Y164685D01*
X-4557D01*
Y164603D01*
X-4721D01*
Y164521D01*
Y164440D01*
X-4803D01*
Y164358D01*
X-4884D01*
Y164276D01*
X-4966D01*
Y164194D01*
X-5048D01*
Y164113D01*
X-5130D01*
Y164031D01*
X-5212D01*
Y163949D01*
X-5293D01*
Y163867D01*
X-5375D01*
Y163785D01*
X-5457D01*
Y163704D01*
X-5539D01*
Y163622D01*
X-5784D01*
Y163540D01*
X-5866D01*
Y163458D01*
X-5948D01*
Y163377D01*
X-6029D01*
Y163458D01*
X-6111D01*
Y163377D01*
X-6029D01*
Y163295D01*
X-6111D01*
Y163377D01*
X-6193D01*
Y163295D01*
X-6275D01*
Y163213D01*
X-6356D01*
Y163295D01*
X-6438D01*
Y163213D01*
X-6520D01*
Y163131D01*
X-6602D01*
Y163213D01*
X-6684D01*
Y163131D01*
X-6929D01*
Y163049D01*
X-7011D01*
Y163131D01*
X-7092D01*
Y163049D01*
X-7011D01*
Y162968D01*
X-7092D01*
Y163049D01*
X-7174D01*
Y162968D01*
X-7256D01*
Y163049D01*
X-7338D01*
Y162968D01*
X-7419D01*
Y163049D01*
X-7501D01*
Y162968D01*
X-7747D01*
Y163049D01*
X-7828D01*
Y162968D01*
X-8074D01*
Y163049D01*
X-8155D01*
Y162968D01*
X-8237D01*
Y163049D01*
X-8319D01*
Y163131D01*
X-8401D01*
Y163049D01*
X-8319D01*
Y162968D01*
X-8401D01*
Y163049D01*
X-8483D01*
Y163131D01*
X-8891D01*
Y163213D01*
X-8973D01*
Y163295D01*
X-9218D01*
Y163377D01*
X-9300D01*
Y163458D01*
X-9382D01*
Y163540D01*
X-9464D01*
Y163622D01*
X-9546D01*
Y163704D01*
X-9627D01*
Y163785D01*
X-9709D01*
Y163867D01*
X-9791D01*
Y163949D01*
X-9873D01*
Y164031D01*
X-9791D01*
Y164113D01*
X-9873D01*
Y164194D01*
X-9955D01*
Y164276D01*
X-10036D01*
Y164358D01*
X-9955D01*
Y164440D01*
X-10036D01*
Y164521D01*
X-9955D01*
Y164603D01*
X-10036D01*
Y164685D01*
X-9955D01*
Y164767D01*
X-10036D01*
Y164848D01*
X-10118D01*
Y164930D01*
X-10036D01*
Y165012D01*
X-10118D01*
Y165094D01*
X-10036D01*
Y165176D01*
X-10118D01*
Y165257D01*
X-10036D01*
Y165339D01*
X-10118D01*
Y165421D01*
X-10036D01*
Y165503D01*
X-10118D01*
Y165585D01*
X-10036D01*
Y165666D01*
X-9955D01*
Y165748D01*
X-10036D01*
Y165830D01*
X-9955D01*
Y165912D01*
X-10036D01*
Y165993D01*
X-9955D01*
Y166075D01*
X-10036D01*
Y166157D01*
X-9955D01*
Y166239D01*
X-10036D01*
Y166321D01*
X-9955D01*
Y166402D01*
X-9873D01*
Y166484D01*
X-9791D01*
Y166566D01*
X-9873D01*
Y166648D01*
X-9791D01*
Y166729D01*
X-9873D01*
Y166811D01*
X-9791D01*
Y166893D01*
Y166975D01*
Y167057D01*
X-9709D01*
Y166975D01*
X-9627D01*
Y167057D01*
X-9709D01*
Y167138D01*
Y167220D01*
Y167302D01*
X-9627D01*
Y167384D01*
X-9709D01*
Y167465D01*
X-9627D01*
Y167547D01*
X-9709D01*
Y167629D01*
X-9627D01*
Y167711D01*
X-9546D01*
Y167792D01*
Y167874D01*
Y167956D01*
X-9464D01*
Y168038D01*
X-9546D01*
Y168120D01*
X-9464D01*
Y168201D01*
Y168283D01*
Y168365D01*
X-9382D01*
Y168447D01*
Y168528D01*
Y168610D01*
X-9300D01*
Y168692D01*
X-9382D01*
Y168774D01*
X-9300D01*
Y168856D01*
Y168937D01*
Y169019D01*
X-9218D01*
Y169101D01*
Y169183D01*
Y169264D01*
X-9137D01*
Y169346D01*
X-9218D01*
Y169428D01*
X-9137D01*
Y169510D01*
Y169592D01*
Y169673D01*
X-9055D01*
Y169592D01*
X-8973D01*
Y169673D01*
X-9055D01*
Y169755D01*
X-8973D01*
Y169673D01*
X-8891D01*
Y169592D01*
X-8810D01*
Y169673D01*
X-8891D01*
Y169755D01*
X-8810D01*
Y169673D01*
X-8728D01*
Y169592D01*
X-8646D01*
Y169673D01*
X-8728D01*
Y169755D01*
X-8646D01*
Y169673D01*
X-8564D01*
Y169755D01*
X-8483D01*
Y169673D01*
X-8401D01*
Y169592D01*
X-8319D01*
Y169673D01*
X-8401D01*
Y169755D01*
X-8319D01*
Y169673D01*
X-8237D01*
Y169592D01*
X-8155D01*
Y169673D01*
X-8237D01*
Y169755D01*
X-8155D01*
Y169673D01*
X-8074D01*
Y169592D01*
X-7992D01*
Y169673D01*
X-8074D01*
Y169755D01*
X-7992D01*
Y169673D01*
X-7910D01*
Y169755D01*
X-7828D01*
Y169673D01*
X-7747D01*
Y169592D01*
X-7665D01*
Y169673D01*
X-7747D01*
Y169755D01*
X-7665D01*
Y169673D01*
X-7583D01*
Y169592D01*
X-7501D01*
Y169673D01*
X-7583D01*
Y169755D01*
X-7501D01*
Y169673D01*
X-7419D01*
Y169592D01*
X-7338D01*
Y169510D01*
X-7419D01*
Y169428D01*
X-7338D01*
Y169346D01*
X-7419D01*
Y169264D01*
X-7338D01*
Y169183D01*
X-7419D01*
Y169101D01*
X-7501D01*
Y169019D01*
X-7419D01*
Y168937D01*
X-7501D01*
Y168856D01*
X-7583D01*
Y168774D01*
X-7501D01*
Y168692D01*
X-7583D01*
Y168610D01*
X-7501D01*
Y168528D01*
X-7583D01*
Y168447D01*
X-7665D01*
Y168365D01*
X-7747D01*
Y168283D01*
X-7665D01*
Y168201D01*
X-7747D01*
Y168120D01*
X-7665D01*
Y168038D01*
X-7747D01*
Y167956D01*
X-7665D01*
Y167874D01*
X-7747D01*
Y167792D01*
Y167711D01*
Y167629D01*
X-7828D01*
Y167547D01*
X-7910D01*
Y167465D01*
X-7828D01*
Y167384D01*
X-7910D01*
Y167302D01*
X-7828D01*
Y167220D01*
X-7910D01*
Y167138D01*
X-7992D01*
Y167057D01*
Y166975D01*
Y166893D01*
Y166811D01*
Y166729D01*
X-8074D01*
Y166648D01*
X-7992D01*
Y166566D01*
X-8074D01*
Y166484D01*
Y166402D01*
Y166321D01*
X-8155D01*
Y166239D01*
X-8237D01*
Y166157D01*
X-8155D01*
Y166075D01*
X-8237D01*
Y165993D01*
X-8155D01*
Y165912D01*
X-8237D01*
Y165830D01*
Y165748D01*
Y165666D01*
Y165585D01*
Y165503D01*
X-8319D01*
Y165421D01*
Y165339D01*
Y165257D01*
X-8237D01*
Y165176D01*
X-8319D01*
Y165094D01*
X-8237D01*
Y165012D01*
Y164930D01*
Y164848D01*
X-8155D01*
Y164767D01*
X-8237D01*
Y164685D01*
X-8155D01*
Y164603D01*
X-8074D01*
Y164521D01*
X-7992D01*
Y164603D01*
X-8074D01*
Y164685D01*
X-7992D01*
Y164603D01*
X-7910D01*
Y164521D01*
X-7828D01*
Y164440D01*
X-7747D01*
Y164358D01*
X-7665D01*
Y164440D01*
X-7747D01*
Y164521D01*
X-7665D01*
Y164440D01*
X-7583D01*
Y164358D01*
X-7501D01*
Y164440D01*
X-7583D01*
Y164521D01*
X-7501D01*
Y164440D01*
X-7419D01*
Y164358D01*
X-7338D01*
Y164440D01*
X-7256D01*
Y164521D01*
X-7174D01*
Y164440D01*
X-7092D01*
Y164358D01*
X-7011D01*
Y164440D01*
X-7092D01*
Y164521D01*
X-7011D01*
Y164440D01*
X-6929D01*
Y164521D01*
X-6684D01*
Y164603D01*
X-6765D01*
Y164685D01*
X-6684D01*
Y164603D01*
X-6602D01*
Y164685D01*
X-6520D01*
Y164767D01*
X-6438D01*
Y164848D01*
X-6356D01*
Y164930D01*
X-6438D01*
Y165012D01*
X-6356D01*
Y164930D01*
X-6275D01*
Y165012D01*
X-6193D01*
Y165094D01*
X-6275D01*
Y165176D01*
X-6193D01*
Y165257D01*
X-6111D01*
Y165339D01*
X-6029D01*
Y165421D01*
X-6111D01*
Y165503D01*
X-6029D01*
Y165585D01*
X-5948D01*
Y165666D01*
X-5866D01*
Y165748D01*
X-5948D01*
Y165830D01*
X-5866D01*
Y165912D01*
Y165993D01*
Y166075D01*
X-5784D01*
Y165993D01*
X-5702D01*
Y166075D01*
X-5784D01*
Y166157D01*
Y166239D01*
Y166321D01*
X-5702D01*
Y166402D01*
X-5784D01*
Y166484D01*
X-5702D01*
Y166566D01*
X-5784D01*
Y166648D01*
X-5702D01*
Y166729D01*
X-5620D01*
Y166811D01*
Y166893D01*
Y166975D01*
X-5539D01*
Y167057D01*
X-5620D01*
Y167138D01*
X-5539D01*
Y167220D01*
Y167302D01*
Y167384D01*
X-5457D01*
Y167465D01*
Y167547D01*
Y167629D01*
X-5375D01*
Y167711D01*
X-5457D01*
Y167792D01*
X-5375D01*
Y167874D01*
X-5457D01*
Y167956D01*
X-5375D01*
Y168038D01*
X-5293D01*
Y168120D01*
Y168201D01*
Y168283D01*
X-5212D01*
Y168365D01*
X-5293D01*
Y168447D01*
X-5212D01*
Y168528D01*
Y168610D01*
Y168692D01*
X-5130D01*
Y168774D01*
Y168856D01*
Y168937D01*
X-5048D01*
Y169019D01*
X-5130D01*
Y169101D01*
X-5048D01*
Y169183D01*
X-5130D01*
Y169264D01*
X-5048D01*
Y169346D01*
X-4966D01*
Y169428D01*
X-5048D01*
Y169510D01*
X-4966D01*
Y169592D01*
X-4884D01*
Y169673D01*
X-4966D01*
Y169755D01*
X-4884D01*
Y169673D01*
X-4803D01*
Y169592D01*
X-4721D01*
Y169673D01*
X-4803D01*
Y169755D01*
X-4721D01*
Y169673D01*
X-4639D01*
Y169755D01*
X-4557D01*
Y169673D01*
X-4476D01*
Y169592D01*
X-4394D01*
Y169673D01*
X-4476D01*
Y169755D01*
X-4394D01*
Y169673D01*
X-4312D01*
Y169592D01*
X-4230D01*
Y169673D01*
X-4312D01*
Y169755D01*
X-4230D01*
Y169673D01*
X-4148D01*
Y169592D01*
X-4067D01*
Y169673D01*
X-4148D01*
Y169755D01*
X-4067D01*
Y169673D01*
X-3985D01*
Y169755D01*
X-3903D01*
Y169673D01*
X-3821D01*
Y169592D01*
X-3740D01*
Y169673D01*
X-3821D01*
Y169755D01*
X-3740D01*
Y169673D01*
X-3658D01*
Y169592D01*
X-3576D01*
Y169673D01*
X-3658D01*
Y169755D01*
X-3576D01*
Y169673D01*
X-3494D01*
Y169592D01*
X-3412D01*
Y169673D01*
X-3494D01*
Y169755D01*
X-3412D01*
Y169673D01*
X-3331D01*
Y169755D01*
X-3249D01*
Y169673D01*
D02*
G37*
G36*
X3620D02*
X3702D01*
Y169592D01*
X3784D01*
Y169673D01*
X3866D01*
Y169592D01*
X4275D01*
Y169510D01*
X4356D01*
Y169428D01*
X4602D01*
Y169346D01*
X4684D01*
Y169264D01*
X4765D01*
Y169183D01*
X4847D01*
Y169101D01*
X4929D01*
Y169019D01*
Y168937D01*
X5092D01*
Y168856D01*
X5011D01*
Y168774D01*
X5092D01*
Y168692D01*
X5011D01*
Y168610D01*
X5174D01*
Y168528D01*
Y168447D01*
Y168365D01*
Y168283D01*
Y168201D01*
Y168120D01*
Y168038D01*
Y167956D01*
Y167874D01*
Y167792D01*
X5092D01*
Y167711D01*
X5011D01*
Y167629D01*
X5092D01*
Y167547D01*
X5011D01*
Y167465D01*
X4929D01*
Y167384D01*
X4847D01*
Y167302D01*
X4929D01*
Y167220D01*
X4847D01*
Y167138D01*
X4765D01*
Y167057D01*
X4684D01*
Y166975D01*
X4602D01*
Y166893D01*
X4356D01*
Y166811D01*
X4275D01*
Y166729D01*
X4029D01*
Y166648D01*
X3948D01*
Y166566D01*
X3866D01*
Y166484D01*
X4111D01*
Y166402D01*
X4193D01*
Y166321D01*
X4275D01*
Y166239D01*
X4356D01*
Y166157D01*
X4438D01*
Y166075D01*
X4520D01*
Y165993D01*
X4602D01*
Y165912D01*
X4520D01*
Y165830D01*
X4602D01*
Y165748D01*
X4684D01*
Y165666D01*
X4765D01*
Y165585D01*
X4684D01*
Y165666D01*
X4602D01*
Y165585D01*
X4684D01*
Y165503D01*
X4602D01*
Y165421D01*
X4684D01*
Y165339D01*
X4602D01*
Y165257D01*
X4520D01*
Y165176D01*
X4602D01*
Y165094D01*
X4520D01*
Y165012D01*
X4602D01*
Y164930D01*
X4520D01*
Y164848D01*
X4438D01*
Y164767D01*
X4356D01*
Y164685D01*
X4438D01*
Y164603D01*
X4356D01*
Y164521D01*
X4275D01*
Y164440D01*
X4193D01*
Y164358D01*
X4275D01*
Y164276D01*
X4193D01*
Y164194D01*
X4111D01*
Y164113D01*
X4029D01*
Y164031D01*
X3948D01*
Y163949D01*
X3866D01*
Y163867D01*
X3784D01*
Y163785D01*
X3539D01*
Y163704D01*
X3457D01*
Y163622D01*
X3375D01*
Y163540D01*
X3293D01*
Y163622D01*
X3212D01*
Y163540D01*
X3293D01*
Y163458D01*
X3212D01*
Y163540D01*
X3130D01*
Y163458D01*
X3048D01*
Y163377D01*
X2966D01*
Y163458D01*
X2884D01*
Y163377D01*
X2966D01*
Y163295D01*
X2884D01*
Y163377D01*
X2803D01*
Y163295D01*
X2557D01*
Y163213D01*
X2475D01*
Y163295D01*
X2394D01*
Y163213D01*
X2312D01*
Y163295D01*
X2230D01*
Y163213D01*
X2312D01*
Y163131D01*
X2230D01*
Y163213D01*
X2148D01*
Y163131D01*
X2067D01*
Y163213D01*
X1985D01*
Y163131D01*
X1903D01*
Y163213D01*
X1821D01*
Y163131D01*
X1740D01*
Y163213D01*
X1658D01*
Y163131D01*
X1576D01*
Y163213D01*
X1494D01*
Y163131D01*
X1249D01*
Y163213D01*
X1167D01*
Y163131D01*
X922D01*
Y163213D01*
X840D01*
Y163131D01*
X595D01*
Y163213D01*
X513D01*
Y163131D01*
X431D01*
Y163213D01*
X349D01*
Y163131D01*
X268D01*
Y163213D01*
X186D01*
Y163131D01*
X-60D01*
Y163213D01*
X-141D01*
Y163131D01*
X-387D01*
Y163213D01*
X-468D01*
Y163131D01*
X-714D01*
Y163213D01*
X-795D01*
Y163295D01*
X-877D01*
Y163377D01*
X-795D01*
Y163458D01*
X-714D01*
Y163540D01*
X-795D01*
Y163622D01*
X-714D01*
Y163704D01*
X-632D01*
Y163785D01*
X-714D01*
Y163867D01*
X-632D01*
Y163949D01*
X-714D01*
Y164031D01*
X-632D01*
Y164113D01*
Y164194D01*
Y164276D01*
X-550D01*
Y164358D01*
X-468D01*
Y164440D01*
X-550D01*
Y164521D01*
X-468D01*
Y164603D01*
X-550D01*
Y164685D01*
X-468D01*
Y164767D01*
Y164848D01*
Y164930D01*
X-387D01*
Y165012D01*
Y165094D01*
Y165176D01*
X-305D01*
Y165257D01*
X-387D01*
Y165339D01*
X-305D01*
Y165421D01*
Y165503D01*
Y165585D01*
X-223D01*
Y165666D01*
Y165748D01*
Y165830D01*
X-141D01*
Y165912D01*
X-223D01*
Y165993D01*
X-141D01*
Y166075D01*
Y166157D01*
Y166239D01*
X-60D01*
Y166321D01*
Y166402D01*
Y166484D01*
X22D01*
Y166566D01*
X-60D01*
Y166648D01*
X22D01*
Y166729D01*
Y166811D01*
Y166893D01*
X104D01*
Y166975D01*
X186D01*
Y167057D01*
X104D01*
Y167138D01*
X186D01*
Y167220D01*
X104D01*
Y167302D01*
X186D01*
Y167384D01*
Y167465D01*
Y167547D01*
X104D01*
Y167629D01*
X186D01*
Y167547D01*
X268D01*
Y167629D01*
Y167711D01*
Y167792D01*
X349D01*
Y167874D01*
X268D01*
Y167956D01*
X349D01*
Y168038D01*
X268D01*
Y168120D01*
X349D01*
Y168201D01*
X431D01*
Y168283D01*
X349D01*
Y168365D01*
X431D01*
Y168447D01*
X513D01*
Y168528D01*
X431D01*
Y168610D01*
X513D01*
Y168692D01*
X431D01*
Y168774D01*
X513D01*
Y168856D01*
X431D01*
Y168937D01*
X513D01*
Y169019D01*
X595D01*
Y169101D01*
X676D01*
Y169183D01*
X595D01*
Y169264D01*
X676D01*
Y169346D01*
X595D01*
Y169428D01*
X676D01*
Y169510D01*
Y169592D01*
Y169673D01*
X758D01*
Y169592D01*
X840D01*
Y169673D01*
X758D01*
Y169755D01*
X840D01*
Y169673D01*
X922D01*
Y169592D01*
X1004D01*
Y169673D01*
X922D01*
Y169755D01*
X1004D01*
Y169673D01*
X1085D01*
Y169592D01*
X1167D01*
Y169673D01*
X1085D01*
Y169755D01*
X1167D01*
Y169673D01*
X1249D01*
Y169755D01*
X1331D01*
Y169673D01*
X1412D01*
Y169592D01*
X1494D01*
Y169673D01*
X1412D01*
Y169755D01*
X1494D01*
Y169673D01*
X1576D01*
Y169592D01*
X1658D01*
Y169673D01*
X1576D01*
Y169755D01*
X1658D01*
Y169673D01*
X1740D01*
Y169592D01*
X1821D01*
Y169673D01*
X1740D01*
Y169755D01*
X1821D01*
Y169673D01*
X1903D01*
Y169755D01*
X1985D01*
Y169673D01*
X2067D01*
Y169592D01*
X2148D01*
Y169673D01*
X2067D01*
Y169755D01*
X2148D01*
Y169673D01*
X2230D01*
Y169592D01*
X2312D01*
Y169673D01*
X2230D01*
Y169755D01*
X2312D01*
Y169673D01*
X2394D01*
Y169592D01*
X2475D01*
Y169673D01*
X2394D01*
Y169755D01*
X2475D01*
Y169673D01*
X2557D01*
Y169755D01*
X2639D01*
Y169673D01*
X2721D01*
Y169592D01*
X2803D01*
Y169673D01*
X2721D01*
Y169755D01*
X2803D01*
Y169673D01*
X2884D01*
Y169592D01*
X2966D01*
Y169673D01*
X2884D01*
Y169755D01*
X2966D01*
Y169673D01*
X3048D01*
Y169592D01*
X3130D01*
Y169673D01*
X3048D01*
Y169755D01*
X3130D01*
Y169673D01*
X3212D01*
Y169755D01*
X3293D01*
Y169673D01*
X3375D01*
Y169592D01*
X3457D01*
Y169673D01*
X3375D01*
Y169755D01*
X3457D01*
Y169673D01*
X3539D01*
Y169592D01*
X3620D01*
Y169673D01*
X3539D01*
Y169755D01*
X3620D01*
Y169673D01*
D02*
G37*
G36*
X21039Y169592D02*
X21121D01*
Y169510D01*
X21039D01*
Y169428D01*
X21121D01*
Y169346D01*
X21039D01*
Y169264D01*
X20957D01*
Y169183D01*
X20875D01*
Y169101D01*
X20957D01*
Y169019D01*
X20875D01*
Y168937D01*
X20794D01*
Y168856D01*
X20712D01*
Y168774D01*
Y168692D01*
Y168610D01*
X20630D01*
Y168528D01*
X20548D01*
Y168447D01*
X20630D01*
Y168365D01*
X20385D01*
Y168283D01*
X20466D01*
Y168201D01*
X20385D01*
Y168120D01*
X20303D01*
Y168038D01*
Y167956D01*
Y167874D01*
X20221D01*
Y167792D01*
X20139D01*
Y167711D01*
X20057D01*
Y167629D01*
X20139D01*
Y167547D01*
X20057D01*
Y167465D01*
X19976D01*
Y167384D01*
X19894D01*
Y167302D01*
X19976D01*
Y167220D01*
X19894D01*
Y167138D01*
X19812D01*
Y167057D01*
X19730D01*
Y166975D01*
X19812D01*
Y166893D01*
X19649D01*
Y166811D01*
Y166729D01*
X19567D01*
Y166648D01*
Y166566D01*
X19485D01*
Y166484D01*
Y166402D01*
X19403D01*
Y166321D01*
X19321D01*
Y166239D01*
X19240D01*
Y166157D01*
X19321D01*
Y166075D01*
X19240D01*
Y165993D01*
X19158D01*
Y165912D01*
X19076D01*
Y165830D01*
Y165748D01*
X18994D01*
Y165666D01*
Y165585D01*
X18913D01*
Y165503D01*
X18831D01*
Y165421D01*
X18749D01*
Y165339D01*
X18831D01*
Y165257D01*
X18749D01*
Y165176D01*
X18667D01*
Y165094D01*
X18586D01*
Y165012D01*
Y164930D01*
X18504D01*
Y164848D01*
Y164767D01*
X18422D01*
Y164685D01*
X18340D01*
Y164603D01*
X18258D01*
Y164521D01*
X18340D01*
Y164440D01*
X18177D01*
Y164358D01*
Y164276D01*
X18095D01*
Y164194D01*
X18013D01*
Y164113D01*
X17931D01*
Y164031D01*
X18013D01*
Y163949D01*
X17931D01*
Y163867D01*
X17850D01*
Y163785D01*
X17768D01*
Y163704D01*
X17850D01*
Y163622D01*
X17768D01*
Y163704D01*
X17686D01*
Y163622D01*
X17604D01*
Y163540D01*
X17686D01*
Y163458D01*
X17604D01*
Y163377D01*
X17523D01*
Y163458D01*
X17441D01*
Y163377D01*
X17523D01*
Y163295D01*
X17441D01*
Y163213D01*
X17359D01*
Y163131D01*
X17277D01*
Y163049D01*
X17359D01*
Y162968D01*
X17277D01*
Y162886D01*
X17195D01*
Y162804D01*
X17114D01*
Y162722D01*
Y162641D01*
X16950D01*
Y162559D01*
X17032D01*
Y162477D01*
X16950D01*
Y162395D01*
X16868D01*
Y162313D01*
X16786D01*
Y162232D01*
X16705D01*
Y162150D01*
X16623D01*
Y162068D01*
X16705D01*
Y161986D01*
X16623D01*
Y161905D01*
X16541D01*
Y161823D01*
X16459D01*
Y161741D01*
X16541D01*
Y161659D01*
X16459D01*
Y161741D01*
X16378D01*
Y161659D01*
X16296D01*
Y161577D01*
X16378D01*
Y161496D01*
X16296D01*
Y161414D01*
X16378D01*
Y161332D01*
X16296D01*
Y161250D01*
X16378D01*
Y161169D01*
X16296D01*
Y161087D01*
X16378D01*
Y161005D01*
X16296D01*
Y160923D01*
X16378D01*
Y160842D01*
X16296D01*
Y160760D01*
X16378D01*
Y160678D01*
X16296D01*
Y160596D01*
X16378D01*
Y160514D01*
X16296D01*
Y160596D01*
X16214D01*
Y160514D01*
X16296D01*
Y160433D01*
X16214D01*
Y160351D01*
X16132D01*
Y160269D01*
X16214D01*
Y160187D01*
X16132D01*
Y160106D01*
X16050D01*
Y160024D01*
X15969D01*
Y159942D01*
X16050D01*
Y159860D01*
X15969D01*
Y159778D01*
X15887D01*
Y159860D01*
X15805D01*
Y159942D01*
X15723D01*
Y160024D01*
X15642D01*
Y160106D01*
X15723D01*
Y160187D01*
X15642D01*
Y160269D01*
X15560D01*
Y160351D01*
X15315D01*
Y160269D01*
X15396D01*
Y160187D01*
X15151D01*
Y160106D01*
X15069D01*
Y160024D01*
X14987D01*
Y159942D01*
X15069D01*
Y159860D01*
X14987D01*
Y159778D01*
X14906D01*
Y159697D01*
X14824D01*
Y159615D01*
X14906D01*
Y159533D01*
X14824D01*
Y159451D01*
X14906D01*
Y159370D01*
X14987D01*
Y159288D01*
X15233D01*
Y159206D01*
X15315D01*
Y159124D01*
X15560D01*
Y159042D01*
X15642D01*
Y158961D01*
X15887D01*
Y158879D01*
X15969D01*
Y158797D01*
X16214D01*
Y158715D01*
X16296D01*
Y158633D01*
X16541D01*
Y158552D01*
X16623D01*
Y158470D01*
X16950D01*
Y158388D01*
Y158306D01*
X17195D01*
Y158225D01*
X17277D01*
Y158143D01*
X17359D01*
Y158061D01*
X17441D01*
Y158143D01*
X17523D01*
Y158061D01*
X17604D01*
Y157979D01*
X17686D01*
Y157897D01*
X17768D01*
Y157816D01*
X18013D01*
Y157734D01*
X18095D01*
Y157652D01*
X18340D01*
Y157570D01*
X18422D01*
Y157489D01*
X18504D01*
Y157407D01*
X18586D01*
Y157325D01*
X18831D01*
Y157243D01*
X18913D01*
Y157161D01*
X18994D01*
Y157080D01*
X19076D01*
Y156998D01*
X19158D01*
Y157080D01*
X19076D01*
Y157161D01*
X19158D01*
Y157080D01*
X19240D01*
Y156998D01*
X19321D01*
Y156916D01*
X19403D01*
Y156834D01*
X19649D01*
Y156753D01*
X19730D01*
Y156671D01*
X19812D01*
Y156589D01*
X19894D01*
Y156507D01*
X19976D01*
Y156425D01*
X20057D01*
Y156344D01*
X20303D01*
Y156262D01*
X20385D01*
Y156180D01*
X20466D01*
Y156098D01*
X20548D01*
Y156017D01*
X20630D01*
Y155935D01*
X20712D01*
Y155853D01*
X20957D01*
Y155771D01*
X21039D01*
Y155690D01*
X21121D01*
Y155608D01*
X21202D01*
Y155526D01*
X21284D01*
Y155444D01*
X21366D01*
Y155362D01*
X21448D01*
Y155281D01*
X21530D01*
Y155199D01*
X21775D01*
Y155117D01*
X21857D01*
Y155035D01*
X21938D01*
Y154954D01*
X22020D01*
Y154872D01*
X22102D01*
Y154790D01*
X22184D01*
Y154708D01*
X22265D01*
Y154626D01*
X22347D01*
Y154545D01*
X22429D01*
Y154463D01*
X22511D01*
Y154381D01*
X22593D01*
Y154299D01*
X22674D01*
Y154218D01*
X22756D01*
Y154136D01*
X22838D01*
Y154054D01*
X22920D01*
Y153972D01*
X23001D01*
Y153891D01*
X23083D01*
Y153809D01*
X23165D01*
Y153727D01*
X23247D01*
Y153645D01*
X23329D01*
Y153563D01*
X23410D01*
Y153482D01*
X23492D01*
Y153400D01*
X23574D01*
Y153318D01*
X23656D01*
Y153236D01*
X23738D01*
Y153155D01*
X23819D01*
Y153073D01*
X23901D01*
Y152991D01*
X23983D01*
Y152909D01*
X24065D01*
Y152827D01*
X24146D01*
Y152746D01*
X24228D01*
Y152664D01*
X24146D01*
Y152746D01*
X24065D01*
Y152827D01*
X23983D01*
Y152909D01*
X23901D01*
Y152991D01*
X23819D01*
Y153073D01*
X23738D01*
Y153155D01*
X23492D01*
Y153236D01*
X23574D01*
Y153318D01*
X23329D01*
Y153400D01*
Y153482D01*
X23165D01*
Y153563D01*
Y153645D01*
X23001D01*
Y153727D01*
X22920D01*
Y153809D01*
X22838D01*
Y153891D01*
X22756D01*
Y153972D01*
X22674D01*
Y154054D01*
X22593D01*
Y154136D01*
X22511D01*
Y154218D01*
X22429D01*
Y154299D01*
X22347D01*
Y154381D01*
X22265D01*
Y154463D01*
X22020D01*
Y154545D01*
X22102D01*
Y154626D01*
X21857D01*
Y154708D01*
X21775D01*
Y154790D01*
X21693D01*
Y154872D01*
X21611D01*
Y154954D01*
X21530D01*
Y155035D01*
X21448D01*
Y155117D01*
X21366D01*
Y155199D01*
X21284D01*
Y155281D01*
X21039D01*
Y155362D01*
X20957D01*
Y155444D01*
X20875D01*
Y155526D01*
X20794D01*
Y155608D01*
X20712D01*
Y155690D01*
X20630D01*
Y155771D01*
X20548D01*
Y155690D01*
X20630D01*
Y155608D01*
X20548D01*
Y155690D01*
X20466D01*
Y155771D01*
X20385D01*
Y155853D01*
X20303D01*
Y155935D01*
X20221D01*
Y156017D01*
X20139D01*
Y156098D01*
X19894D01*
Y156180D01*
X19812D01*
Y156262D01*
X19730D01*
Y156344D01*
X19649D01*
Y156425D01*
X19403D01*
Y156507D01*
X19321D01*
Y156589D01*
X19240D01*
Y156671D01*
X19158D01*
Y156753D01*
X18913D01*
Y156834D01*
X18831D01*
Y156916D01*
X18749D01*
Y156998D01*
X18667D01*
Y157080D01*
X18586D01*
Y156998D01*
X18667D01*
Y156916D01*
X18586D01*
Y156998D01*
X18504D01*
Y157080D01*
X18422D01*
Y157161D01*
X18340D01*
Y157243D01*
X18095D01*
Y157325D01*
X18013D01*
Y157407D01*
X17931D01*
Y157489D01*
X17850D01*
Y157570D01*
X17604D01*
Y157652D01*
X17523D01*
Y157734D01*
X17277D01*
Y157652D01*
X17359D01*
Y157570D01*
X17441D01*
Y157489D01*
X17523D01*
Y157407D01*
X17441D01*
Y157489D01*
X17359D01*
Y157570D01*
X17277D01*
Y157652D01*
X17195D01*
Y157734D01*
X17114D01*
Y157816D01*
X17195D01*
Y157897D01*
X16950D01*
Y157979D01*
X16868D01*
Y158061D01*
X16786D01*
Y158143D01*
X16705D01*
Y158061D01*
X16623D01*
Y158143D01*
X16541D01*
Y158225D01*
X16459D01*
Y158306D01*
X16378D01*
Y158388D01*
X16296D01*
Y158306D01*
X16378D01*
Y158225D01*
X16296D01*
Y158306D01*
X16214D01*
Y158388D01*
X16132D01*
Y158470D01*
X16050D01*
Y158388D01*
X15969D01*
Y158470D01*
X15887D01*
Y158552D01*
X15642D01*
Y158633D01*
X15560D01*
Y158715D01*
X15315D01*
Y158797D01*
X15233D01*
Y158879D01*
X14987D01*
Y158961D01*
X14906D01*
Y159042D01*
X14497D01*
Y158961D01*
X14579D01*
Y158879D01*
X14497D01*
Y158797D01*
X14415D01*
Y158715D01*
X14333D01*
Y158633D01*
X14415D01*
Y158552D01*
X14333D01*
Y158470D01*
X14251D01*
Y158388D01*
X14170D01*
Y158306D01*
Y158225D01*
Y158143D01*
X14088D01*
Y158061D01*
X14006D01*
Y157979D01*
X14088D01*
Y157897D01*
X14006D01*
Y157816D01*
X13924D01*
Y157897D01*
X13842D01*
Y157979D01*
X13924D01*
Y158061D01*
Y158143D01*
X14006D01*
Y158225D01*
Y158306D01*
X14088D01*
Y158388D01*
X14006D01*
Y158470D01*
X14088D01*
Y158552D01*
X14170D01*
Y158633D01*
Y158715D01*
Y158797D01*
X14251D01*
Y158879D01*
Y158961D01*
Y159042D01*
X14333D01*
Y159124D01*
X14415D01*
Y159206D01*
X14333D01*
Y159288D01*
X14251D01*
Y159206D01*
X14170D01*
Y159288D01*
X14088D01*
Y159370D01*
X13842D01*
Y159451D01*
X13761D01*
Y159533D01*
X13679D01*
Y159451D01*
X13761D01*
Y159370D01*
X13679D01*
Y159451D01*
X13597D01*
Y159533D01*
X13515D01*
Y159451D01*
X13597D01*
Y159370D01*
X13352D01*
Y159288D01*
X13434D01*
Y159206D01*
X13352D01*
Y159288D01*
X13270D01*
Y159206D01*
X13188D01*
Y159124D01*
X13106D01*
Y159042D01*
X12861D01*
Y158961D01*
X12779D01*
Y158879D01*
X12698D01*
Y158797D01*
X12616D01*
Y158715D01*
X12370D01*
Y158633D01*
X12289D01*
Y158552D01*
X12207D01*
Y158470D01*
X12125D01*
Y158552D01*
X12043D01*
Y158633D01*
X12125D01*
Y158715D01*
X12207D01*
Y158797D01*
X12289D01*
Y158879D01*
X12370D01*
Y158961D01*
X12616D01*
Y159042D01*
X12534D01*
Y159124D01*
X12779D01*
Y159206D01*
X12861D01*
Y159288D01*
X12943D01*
Y159370D01*
X13025D01*
Y159288D01*
X13106D01*
Y159370D01*
X13025D01*
Y159451D01*
X13270D01*
Y159533D01*
X13352D01*
Y159615D01*
X13270D01*
Y159697D01*
X13025D01*
Y159778D01*
X12943D01*
Y159860D01*
X12861D01*
Y159778D01*
X12943D01*
Y159697D01*
X12861D01*
Y159778D01*
X12779D01*
Y159860D01*
X12698D01*
Y159942D01*
X12616D01*
Y159860D01*
X12534D01*
Y159942D01*
X12452D01*
Y160024D01*
X12370D01*
Y159942D01*
X12289D01*
Y160024D01*
X12207D01*
Y160106D01*
X12125D01*
Y160024D01*
X12043D01*
Y160106D01*
X11962D01*
Y160187D01*
X11716D01*
Y160269D01*
X11471D01*
Y160351D01*
X11226D01*
Y160433D01*
X11144D01*
Y160351D01*
X11062D01*
Y160433D01*
X10980D01*
Y160514D01*
X10735D01*
Y160596D01*
X10653D01*
Y160514D01*
X10571D01*
Y160596D01*
X10490D01*
Y160678D01*
X10408D01*
Y160596D01*
X10490D01*
Y160514D01*
X10408D01*
Y160596D01*
X10326D01*
Y160678D01*
X9917D01*
Y160760D01*
X9835D01*
Y160842D01*
X9754D01*
Y160760D01*
X9835D01*
Y160678D01*
X9754D01*
Y160760D01*
X9672D01*
Y160842D01*
X9590D01*
Y160760D01*
X9672D01*
Y160678D01*
X9590D01*
Y160760D01*
X9508D01*
Y160842D01*
X9426D01*
Y160923D01*
X9345D01*
Y160842D01*
X9426D01*
Y160760D01*
X9508D01*
Y160678D01*
X9426D01*
Y160760D01*
X9345D01*
Y160842D01*
X9263D01*
Y160923D01*
X9181D01*
Y161005D01*
X9099D01*
Y160923D01*
X9181D01*
Y160842D01*
X9263D01*
Y160760D01*
X9345D01*
Y160678D01*
X9263D01*
Y160760D01*
X9181D01*
Y160842D01*
X9099D01*
Y160923D01*
X9018D01*
Y161005D01*
X8772D01*
Y161087D01*
X8691D01*
Y161169D01*
X8609D01*
Y161087D01*
X8691D01*
Y161005D01*
X8609D01*
Y161087D01*
X8527D01*
Y161169D01*
X8445D01*
Y161087D01*
X8364D01*
Y161169D01*
X8282D01*
Y161087D01*
X8200D01*
Y161169D01*
X8118D01*
Y161087D01*
X8036D01*
Y161169D01*
X7955D01*
Y161087D01*
X8036D01*
Y161005D01*
X8118D01*
Y160923D01*
X8691D01*
Y160842D01*
X8772D01*
Y160760D01*
X8691D01*
Y160842D01*
X8609D01*
Y160760D01*
X8691D01*
Y160678D01*
X8609D01*
Y160760D01*
X8527D01*
Y160842D01*
X8445D01*
Y160760D01*
X8364D01*
Y160842D01*
X8282D01*
Y160760D01*
X8200D01*
Y160842D01*
X7464D01*
Y160923D01*
X7382D01*
Y160842D01*
X7300D01*
Y160923D01*
X7219D01*
Y160842D01*
X7137D01*
Y160923D01*
X7055D01*
Y160842D01*
X6973D01*
Y160923D01*
X6892D01*
Y160842D01*
X6810D01*
Y160923D01*
X6728D01*
Y160842D01*
X6646D01*
Y160923D01*
X6564D01*
Y161005D01*
X6483D01*
Y160923D01*
X6564D01*
Y160842D01*
X6483D01*
Y160923D01*
X6401D01*
Y161005D01*
X6319D01*
Y160923D01*
X6401D01*
Y160842D01*
X6319D01*
Y160923D01*
X6237D01*
Y161005D01*
X6155D01*
Y160923D01*
X6237D01*
Y160842D01*
X6155D01*
Y160923D01*
X6074D01*
Y161005D01*
X5992D01*
Y160923D01*
X5910D01*
Y161005D01*
X5828D01*
Y160923D01*
X5747D01*
Y161005D01*
X5665D01*
Y160923D01*
X5583D01*
Y161005D01*
X5501D01*
Y160923D01*
X5420D01*
Y161005D01*
X5174D01*
Y160923D01*
X5092D01*
Y161005D01*
X4684D01*
Y161087D01*
X4929D01*
Y161169D01*
X5011D01*
Y161087D01*
X5256D01*
Y161169D01*
X5338D01*
Y161087D01*
X5420D01*
Y161169D01*
X5501D01*
Y161087D01*
X5583D01*
Y161169D01*
X5501D01*
Y161250D01*
X5583D01*
Y161169D01*
X5665D01*
Y161087D01*
X5747D01*
Y161169D01*
X5828D01*
Y161087D01*
X5910D01*
Y161169D01*
X5828D01*
Y161250D01*
X5910D01*
Y161169D01*
X5992D01*
Y161087D01*
X6074D01*
Y161169D01*
X6155D01*
Y161250D01*
X6237D01*
Y161169D01*
X6319D01*
Y161087D01*
X6401D01*
Y161169D01*
X6319D01*
Y161250D01*
X6401D01*
Y161169D01*
X6483D01*
Y161250D01*
X6564D01*
Y161169D01*
X6646D01*
Y161250D01*
X6728D01*
Y161169D01*
X6810D01*
Y161250D01*
X6892D01*
Y161169D01*
X6973D01*
Y161250D01*
X7055D01*
Y161169D01*
X7137D01*
Y161250D01*
X7219D01*
Y161169D01*
X7300D01*
Y161087D01*
X7382D01*
Y161005D01*
X7464D01*
Y161087D01*
X7382D01*
Y161169D01*
X7300D01*
Y161250D01*
X7382D01*
Y161169D01*
X7464D01*
Y161087D01*
X7546D01*
Y161005D01*
X7627D01*
Y160923D01*
X7709D01*
Y161005D01*
X7627D01*
Y161087D01*
X7546D01*
Y161169D01*
X7464D01*
Y161250D01*
X7546D01*
Y161332D01*
X7137D01*
Y161414D01*
X7055D01*
Y161496D01*
X6973D01*
Y161414D01*
X7055D01*
Y161332D01*
X6973D01*
Y161414D01*
X6728D01*
Y161496D01*
X6155D01*
Y161577D01*
X6074D01*
Y161496D01*
X5992D01*
Y161577D01*
X5747D01*
Y161659D01*
X5665D01*
Y161577D01*
X5583D01*
Y161659D01*
X5501D01*
Y161577D01*
X5420D01*
Y161659D01*
X4847D01*
Y161741D01*
X4765D01*
Y161659D01*
X4684D01*
Y161741D01*
X4602D01*
Y161659D01*
X4520D01*
Y161741D01*
X4438D01*
Y161659D01*
X4356D01*
Y161741D01*
X4275D01*
Y161823D01*
X4193D01*
Y161741D01*
X4111D01*
Y161823D01*
X4029D01*
Y161741D01*
X4111D01*
Y161659D01*
X4029D01*
Y161741D01*
X3948D01*
Y161823D01*
X3866D01*
Y161741D01*
X3784D01*
Y161823D01*
X3702D01*
Y161741D01*
X3620D01*
Y161823D01*
X2884D01*
Y161905D01*
X4765D01*
Y161823D01*
X4847D01*
Y161905D01*
X4929D01*
Y161823D01*
X5011D01*
Y161741D01*
X5092D01*
Y161823D01*
X5011D01*
Y161905D01*
X5092D01*
Y161823D01*
X5174D01*
Y161905D01*
X5256D01*
Y161823D01*
X5338D01*
Y161741D01*
X5420D01*
Y161823D01*
X5338D01*
Y161905D01*
X5420D01*
Y161823D01*
X5501D01*
Y161741D01*
X5583D01*
Y161823D01*
X5501D01*
Y161905D01*
X5583D01*
Y161823D01*
X5665D01*
Y161741D01*
X5747D01*
Y161823D01*
X5828D01*
Y161741D01*
X5910D01*
Y161823D01*
X5992D01*
Y161741D01*
X6564D01*
Y161659D01*
X6646D01*
Y161741D01*
X6728D01*
Y161659D01*
X6810D01*
Y161741D01*
X6892D01*
Y161659D01*
X6973D01*
Y161741D01*
X7055D01*
Y161659D01*
X7137D01*
Y161577D01*
X7219D01*
Y161659D01*
X7300D01*
Y161577D01*
X7709D01*
Y161496D01*
X7791D01*
Y161577D01*
X7873D01*
Y161496D01*
X8118D01*
Y161414D01*
X8200D01*
Y161496D01*
X8282D01*
Y161414D01*
X8691D01*
Y161332D01*
X8936D01*
Y161250D01*
X9018D01*
Y161332D01*
X8936D01*
Y161414D01*
X9018D01*
Y161332D01*
X9099D01*
Y161250D01*
X9181D01*
Y161332D01*
X9263D01*
Y161250D01*
X9345D01*
Y161332D01*
X9263D01*
Y161414D01*
X9345D01*
Y161332D01*
X9426D01*
Y161250D01*
X9508D01*
Y161169D01*
X9590D01*
Y161087D01*
X9672D01*
Y161169D01*
X9590D01*
Y161250D01*
X9508D01*
Y161332D01*
X9590D01*
Y161250D01*
X9672D01*
Y161169D01*
X9754D01*
Y161087D01*
X10163D01*
Y161005D01*
X10244D01*
Y160923D01*
X10326D01*
Y161005D01*
X10244D01*
Y161087D01*
X10326D01*
Y161005D01*
X10408D01*
Y160923D01*
X10653D01*
Y160842D01*
X10735D01*
Y160923D01*
X10817D01*
Y160842D01*
X10898D01*
Y160760D01*
X11307D01*
Y160678D01*
X11389D01*
Y160596D01*
X11471D01*
Y160678D01*
X11553D01*
Y160596D01*
X11798D01*
Y160514D01*
X11880D01*
Y160433D01*
X11962D01*
Y160514D01*
X12043D01*
Y160433D01*
X12289D01*
Y160351D01*
X12370D01*
Y160269D01*
X12452D01*
Y160351D01*
X12534D01*
Y160269D01*
X12779D01*
Y160187D01*
X12861D01*
Y160106D01*
X13270D01*
Y160024D01*
X13352D01*
Y159942D01*
X13597D01*
Y159860D01*
X13679D01*
Y159942D01*
X13924D01*
Y160024D01*
X13842D01*
Y160106D01*
X13924D01*
Y160024D01*
X14006D01*
Y160106D01*
X14088D01*
Y160187D01*
X14170D01*
Y160106D01*
X14251D01*
Y160187D01*
X14170D01*
Y160269D01*
X14251D01*
Y160351D01*
X14333D01*
Y160269D01*
X14415D01*
Y160351D01*
X14333D01*
Y160433D01*
X14579D01*
Y160514D01*
X14660D01*
Y160596D01*
X14579D01*
Y160678D01*
X14497D01*
Y160760D01*
X14579D01*
Y160678D01*
X14660D01*
Y160760D01*
X14742D01*
Y160842D01*
X14660D01*
Y160923D01*
X14579D01*
Y161005D01*
X14497D01*
Y161087D01*
X14415D01*
Y161005D01*
X14333D01*
Y161087D01*
X14251D01*
Y161169D01*
X14170D01*
Y161087D01*
X14251D01*
Y161005D01*
X14170D01*
Y161087D01*
X14088D01*
Y161169D01*
X14006D01*
Y161250D01*
X14088D01*
Y161332D01*
X14170D01*
Y161414D01*
X14251D01*
Y161496D01*
X14333D01*
Y161577D01*
X14415D01*
Y161659D01*
X14497D01*
Y161741D01*
X14579D01*
Y161823D01*
X14660D01*
Y161905D01*
X14742D01*
Y161986D01*
X14824D01*
Y161905D01*
X14906D01*
Y161986D01*
X14824D01*
Y162068D01*
X14906D01*
Y161986D01*
X14987D01*
Y162068D01*
X15233D01*
Y162150D01*
X15315D01*
Y162068D01*
X15396D01*
Y162150D01*
X15315D01*
Y162232D01*
X15396D01*
Y162150D01*
X15478D01*
Y162068D01*
X15560D01*
Y162150D01*
X15478D01*
Y162232D01*
X15560D01*
Y162313D01*
X15642D01*
Y162395D01*
X15723D01*
Y162477D01*
X15642D01*
Y162559D01*
X15723D01*
Y162641D01*
X15805D01*
Y162722D01*
X15887D01*
Y162804D01*
X15969D01*
Y162886D01*
X16050D01*
Y162968D01*
X15969D01*
Y163049D01*
X16050D01*
Y163131D01*
X16132D01*
Y163213D01*
X16214D01*
Y163295D01*
X16132D01*
Y163377D01*
X16378D01*
Y163458D01*
X16296D01*
Y163540D01*
X16378D01*
Y163622D01*
X16459D01*
Y163704D01*
X16541D01*
Y163785D01*
X16623D01*
Y163867D01*
X16705D01*
Y163949D01*
X16623D01*
Y164031D01*
X16705D01*
Y164113D01*
X16786D01*
Y164031D01*
X16868D01*
Y164113D01*
X16786D01*
Y164194D01*
X16868D01*
Y164276D01*
X16950D01*
Y164358D01*
X17032D01*
Y164440D01*
X16950D01*
Y164521D01*
X17114D01*
Y164603D01*
Y164685D01*
X17195D01*
Y164767D01*
X17277D01*
Y164848D01*
X17359D01*
Y164930D01*
X17277D01*
Y165012D01*
X17523D01*
Y165094D01*
X17441D01*
Y165176D01*
X17523D01*
Y165257D01*
X17604D01*
Y165339D01*
X17686D01*
Y165421D01*
X17768D01*
Y165503D01*
X17850D01*
Y165585D01*
X17768D01*
Y165666D01*
X17931D01*
Y165748D01*
Y165830D01*
X18013D01*
Y165912D01*
X18095D01*
Y165993D01*
X18177D01*
Y166075D01*
X18258D01*
Y166157D01*
X18340D01*
Y166239D01*
X18258D01*
Y166321D01*
X18340D01*
Y166402D01*
X18422D01*
Y166321D01*
X18504D01*
Y166402D01*
X18422D01*
Y166484D01*
X18504D01*
Y166566D01*
X18586D01*
Y166648D01*
X18667D01*
Y166729D01*
X18586D01*
Y166811D01*
X18667D01*
Y166729D01*
X18749D01*
Y166811D01*
X18831D01*
Y166893D01*
X18749D01*
Y166975D01*
X18913D01*
Y167057D01*
Y167138D01*
X18994D01*
Y167220D01*
X19076D01*
Y167302D01*
X19158D01*
Y167384D01*
X19240D01*
Y167465D01*
X19321D01*
Y167547D01*
X19240D01*
Y167629D01*
X19485D01*
Y167711D01*
X19403D01*
Y167792D01*
X19485D01*
Y167874D01*
X19567D01*
Y167956D01*
X19649D01*
Y168038D01*
X19730D01*
Y168120D01*
X19812D01*
Y168201D01*
X19730D01*
Y168283D01*
X19976D01*
Y168365D01*
X19894D01*
Y168447D01*
X20057D01*
Y168528D01*
Y168610D01*
X20139D01*
Y168692D01*
X20221D01*
Y168774D01*
X20303D01*
Y168856D01*
X20385D01*
Y168937D01*
X20466D01*
Y169019D01*
X20548D01*
Y169101D01*
X20630D01*
Y169183D01*
X20712D01*
Y169264D01*
X20794D01*
Y169346D01*
Y169428D01*
X20957D01*
Y169510D01*
X20875D01*
Y169592D01*
X20957D01*
Y169673D01*
X21039D01*
Y169592D01*
D02*
G37*
G36*
X26027Y164603D02*
X26109D01*
Y164521D01*
X26191D01*
Y164603D01*
X26273D01*
Y164521D01*
X26518D01*
Y164440D01*
X26600D01*
Y164358D01*
X26845D01*
Y164276D01*
X26927D01*
Y164194D01*
X27009D01*
Y164113D01*
X27090D01*
Y164031D01*
X27172D01*
Y163949D01*
X27254D01*
Y163867D01*
X27336D01*
Y163785D01*
Y163704D01*
X27417D01*
Y163622D01*
Y163540D01*
X27499D01*
Y163458D01*
X27581D01*
Y163377D01*
Y163295D01*
Y163213D01*
Y163131D01*
Y163049D01*
X27663D01*
Y162968D01*
X27581D01*
Y162886D01*
X27663D01*
Y162804D01*
X27581D01*
Y162722D01*
X27663D01*
Y162641D01*
X27581D01*
Y162559D01*
Y162477D01*
Y162395D01*
Y162313D01*
Y162232D01*
X27499D01*
Y162150D01*
Y162068D01*
Y161986D01*
X27417D01*
Y161905D01*
Y161823D01*
X27336D01*
Y161741D01*
Y161659D01*
X27254D01*
Y161577D01*
Y161496D01*
X27172D01*
Y161414D01*
Y161332D01*
X27090D01*
Y161250D01*
X27009D01*
Y161169D01*
X26927D01*
Y161087D01*
X27009D01*
Y161005D01*
X26927D01*
Y161087D01*
X26845D01*
Y161005D01*
X26763D01*
Y160923D01*
X26681D01*
Y160842D01*
X26600D01*
Y160760D01*
X26681D01*
Y160678D01*
X26600D01*
Y160760D01*
X26518D01*
Y160678D01*
X26436D01*
Y160596D01*
X26354D01*
Y160514D01*
X26109D01*
Y160433D01*
X26027D01*
Y160351D01*
X25782D01*
Y160269D01*
X25537D01*
Y160187D01*
X25455D01*
Y160106D01*
X25537D01*
Y160024D01*
X25455D01*
Y159942D01*
X25537D01*
Y159860D01*
X25618D01*
Y159778D01*
X25700D01*
Y159697D01*
X25618D01*
Y159615D01*
X25700D01*
Y159533D01*
X25618D01*
Y159451D01*
X25782D01*
Y159370D01*
Y159288D01*
X25864D01*
Y159206D01*
Y159124D01*
X25945D01*
Y159042D01*
Y158961D01*
X26027D01*
Y158879D01*
X25945D01*
Y158797D01*
X26109D01*
Y158715D01*
Y158633D01*
X26191D01*
Y158552D01*
Y158470D01*
Y158388D01*
X26273D01*
Y158306D01*
X26354D01*
Y158225D01*
X26273D01*
Y158143D01*
X26354D01*
Y158061D01*
X26436D01*
Y157979D01*
X26354D01*
Y157897D01*
X26273D01*
Y157979D01*
X26191D01*
Y157897D01*
X26109D01*
Y157979D01*
X26027D01*
Y157897D01*
X25945D01*
Y157979D01*
X25864D01*
Y157897D01*
X25782D01*
Y157979D01*
X25700D01*
Y157897D01*
X25618D01*
Y157979D01*
X25537D01*
Y157897D01*
X25455D01*
Y157979D01*
X25373D01*
Y157897D01*
X25291D01*
Y157979D01*
X25210D01*
Y157897D01*
X25128D01*
Y157979D01*
X25046D01*
Y157897D01*
X24964D01*
Y157979D01*
X24882D01*
Y157897D01*
X24801D01*
Y157979D01*
X24719D01*
Y157897D01*
X24637D01*
Y157979D01*
X24555D01*
Y158061D01*
X24474D01*
Y157979D01*
X24555D01*
Y157897D01*
X24474D01*
Y157979D01*
X24392D01*
Y158061D01*
X24310D01*
Y158143D01*
X24392D01*
Y158225D01*
X24310D01*
Y158306D01*
Y158388D01*
Y158470D01*
X24228D01*
Y158552D01*
X24146D01*
Y158633D01*
X24228D01*
Y158715D01*
X24146D01*
Y158797D01*
X24065D01*
Y158879D01*
X23983D01*
Y158961D01*
X24065D01*
Y159042D01*
X23983D01*
Y159124D01*
X23901D01*
Y159206D01*
X23819D01*
Y159288D01*
X23901D01*
Y159370D01*
X23819D01*
Y159451D01*
Y159533D01*
Y159615D01*
X23738D01*
Y159697D01*
X23656D01*
Y159778D01*
X23738D01*
Y159860D01*
X23492D01*
Y159778D01*
X23410D01*
Y159697D01*
Y159615D01*
Y159533D01*
X23329D01*
Y159451D01*
X23410D01*
Y159370D01*
X23329D01*
Y159288D01*
Y159206D01*
Y159124D01*
X23247D01*
Y159042D01*
Y158961D01*
Y158879D01*
X23165D01*
Y158797D01*
X23247D01*
Y158715D01*
X23165D01*
Y158633D01*
X23247D01*
Y158552D01*
X23165D01*
Y158470D01*
X23083D01*
Y158388D01*
X23165D01*
Y158306D01*
X23083D01*
Y158225D01*
X23001D01*
Y158143D01*
X23083D01*
Y158061D01*
X23001D01*
Y157979D01*
X22920D01*
Y157897D01*
X22838D01*
Y157979D01*
X22756D01*
Y157897D01*
X22674D01*
Y157979D01*
X22593D01*
Y157897D01*
X22511D01*
Y157979D01*
X22429D01*
Y157897D01*
X22347D01*
Y157979D01*
X22265D01*
Y157897D01*
X22184D01*
Y157979D01*
X22102D01*
Y157897D01*
X22020D01*
Y157979D01*
X21938D01*
Y157897D01*
X21857D01*
Y157979D01*
X21775D01*
Y157897D01*
X21693D01*
Y157979D01*
X21611D01*
Y157897D01*
X21530D01*
Y157979D01*
X21448D01*
Y157897D01*
X21366D01*
Y157979D01*
X21284D01*
Y157897D01*
X21202D01*
Y157979D01*
X21121D01*
Y158061D01*
X21202D01*
Y158143D01*
Y158225D01*
Y158306D01*
X21284D01*
Y158388D01*
X21202D01*
Y158470D01*
X21284D01*
Y158552D01*
X21202D01*
Y158633D01*
X21284D01*
Y158715D01*
X21366D01*
Y158797D01*
X21448D01*
Y158879D01*
X21366D01*
Y158961D01*
X21448D01*
Y159042D01*
X21366D01*
Y159124D01*
X21448D01*
Y159206D01*
Y159288D01*
Y159370D01*
X21366D01*
Y159451D01*
X21448D01*
Y159370D01*
X21530D01*
Y159451D01*
X21611D01*
Y159533D01*
X21530D01*
Y159615D01*
X21611D01*
Y159697D01*
X21530D01*
Y159778D01*
X21611D01*
Y159860D01*
X21530D01*
Y159942D01*
X21611D01*
Y160024D01*
X21693D01*
Y160106D01*
X21775D01*
Y160187D01*
X21693D01*
Y160269D01*
X21775D01*
Y160351D01*
X21693D01*
Y160433D01*
X21775D01*
Y160514D01*
Y160596D01*
Y160678D01*
Y160760D01*
X21857D01*
Y160842D01*
Y160923D01*
X21938D01*
Y161005D01*
X21857D01*
Y161087D01*
X21938D01*
Y161169D01*
X21857D01*
Y161250D01*
X21938D01*
Y161332D01*
X22020D01*
Y161414D01*
X22102D01*
Y161496D01*
X22020D01*
Y161577D01*
X22102D01*
Y161659D01*
X22020D01*
Y161741D01*
X22102D01*
Y161823D01*
Y161905D01*
Y161986D01*
Y162068D01*
X22184D01*
Y162150D01*
Y162232D01*
X22265D01*
Y162313D01*
X22184D01*
Y162395D01*
X22265D01*
Y162477D01*
X22184D01*
Y162559D01*
X22265D01*
Y162641D01*
X22347D01*
Y162722D01*
Y162804D01*
Y162886D01*
X22429D01*
Y162968D01*
X22347D01*
Y163049D01*
X22429D01*
Y163131D01*
Y163213D01*
Y163295D01*
X22347D01*
Y163377D01*
X22429D01*
Y163295D01*
X22511D01*
Y163377D01*
Y163458D01*
Y163540D01*
X22593D01*
Y163622D01*
X22511D01*
Y163704D01*
X22593D01*
Y163785D01*
X22511D01*
Y163867D01*
X22593D01*
Y163949D01*
X22674D01*
Y164031D01*
X22593D01*
Y164113D01*
X22674D01*
Y164031D01*
X22756D01*
Y164113D01*
X22674D01*
Y164194D01*
X22756D01*
Y164276D01*
X22674D01*
Y164358D01*
X22756D01*
Y164440D01*
X22674D01*
Y164521D01*
X22756D01*
Y164603D01*
X22674D01*
Y164685D01*
X22756D01*
Y164603D01*
X22838D01*
Y164685D01*
X23247D01*
Y164603D01*
X23329D01*
Y164685D01*
X23901D01*
Y164603D01*
X23983D01*
Y164685D01*
X24555D01*
Y164603D01*
X24637D01*
Y164685D01*
X25210D01*
Y164603D01*
X25291D01*
Y164685D01*
X25537D01*
Y164603D01*
X25618D01*
Y164685D01*
X25864D01*
Y164603D01*
X25945D01*
Y164685D01*
X26027D01*
Y164603D01*
D02*
G37*
G36*
X10653Y161332D02*
X10735D01*
Y161250D01*
X10653D01*
Y161332D01*
X10571D01*
Y161414D01*
X10653D01*
Y161332D01*
D02*
G37*
G36*
X10490D02*
X10571D01*
Y161250D01*
X10490D01*
Y161332D01*
X10408D01*
Y161414D01*
X10490D01*
Y161332D01*
D02*
G37*
G36*
X10326D02*
X10408D01*
Y161250D01*
X10326D01*
Y161332D01*
X10244D01*
Y161414D01*
X10326D01*
Y161332D01*
D02*
G37*
G36*
X9999D02*
X10081D01*
Y161250D01*
X9835D01*
Y161332D01*
X9917D01*
Y161414D01*
X9999D01*
Y161332D01*
D02*
G37*
G36*
X9672D02*
X9754D01*
Y161250D01*
X9835D01*
Y161169D01*
X9754D01*
Y161250D01*
X9672D01*
Y161332D01*
X9590D01*
Y161414D01*
X9672D01*
Y161332D01*
D02*
G37*
G36*
X14088Y161005D02*
X14006D01*
Y160923D01*
X13924D01*
Y161005D01*
X13842D01*
Y161087D01*
X14088D01*
Y161005D01*
D02*
G37*
G36*
X9018Y160842D02*
X9099D01*
Y160760D01*
X9181D01*
Y160678D01*
X9099D01*
Y160760D01*
X9018D01*
Y160842D01*
X8936D01*
Y160923D01*
X9018D01*
Y160842D01*
D02*
G37*
G36*
X8854D02*
X8936D01*
Y160760D01*
X9018D01*
Y160678D01*
X8936D01*
Y160760D01*
X8854D01*
Y160842D01*
X8772D01*
Y160923D01*
X8854D01*
Y160842D01*
D02*
G37*
G36*
X12043Y158470D02*
X12125D01*
Y158388D01*
X11880D01*
Y158306D01*
X11798D01*
Y158388D01*
X11716D01*
Y158470D01*
X11962D01*
Y158552D01*
X12043D01*
Y158470D01*
D02*
G37*
G36*
X11716Y158306D02*
X11798D01*
Y158225D01*
X11553D01*
Y158306D01*
X11635D01*
Y158388D01*
X11716D01*
Y158306D01*
D02*
G37*
G36*
X11553Y158143D02*
X11635D01*
Y158061D01*
X11553D01*
Y158143D01*
X11471D01*
Y158225D01*
X11553D01*
Y158143D01*
D02*
G37*
G36*
X11471Y158061D02*
X11389D01*
Y157979D01*
X11307D01*
Y158061D01*
X11226D01*
Y158143D01*
X11471D01*
Y158061D01*
D02*
G37*
G36*
X13842Y157652D02*
X13924D01*
Y157570D01*
X13842D01*
Y157652D01*
X13761D01*
Y157734D01*
X13842D01*
Y157652D01*
D02*
G37*
G36*
X17523Y157243D02*
X17604D01*
Y157161D01*
X17686D01*
Y157080D01*
X17604D01*
Y156998D01*
X17686D01*
Y156916D01*
X17768D01*
Y156834D01*
X17850D01*
Y156753D01*
X17768D01*
Y156671D01*
X17850D01*
Y156589D01*
X17931D01*
Y156507D01*
X18013D01*
Y156425D01*
X17931D01*
Y156344D01*
X18013D01*
Y156262D01*
X18095D01*
Y156180D01*
X18177D01*
Y156098D01*
Y156017D01*
Y155935D01*
X18258D01*
Y155853D01*
X18340D01*
Y155771D01*
X18258D01*
Y155690D01*
X18340D01*
Y155608D01*
X18422D01*
Y155526D01*
X18504D01*
Y155444D01*
Y155362D01*
Y155281D01*
X18586D01*
Y155199D01*
X18667D01*
Y155117D01*
X18586D01*
Y155035D01*
X18749D01*
Y154954D01*
Y154872D01*
X18831D01*
Y154790D01*
X18913D01*
Y154708D01*
X18994D01*
Y154626D01*
X18913D01*
Y154708D01*
X18831D01*
Y154626D01*
X18913D01*
Y154545D01*
X18994D01*
Y154463D01*
X18913D01*
Y154381D01*
X19076D01*
Y154299D01*
Y154218D01*
X19158D01*
Y154136D01*
X19240D01*
Y154054D01*
X19321D01*
Y153972D01*
X19240D01*
Y154054D01*
X19158D01*
Y153972D01*
X19240D01*
Y153891D01*
X19321D01*
Y153809D01*
Y153727D01*
X19403D01*
Y153645D01*
Y153563D01*
X19485D01*
Y153482D01*
X19567D01*
Y153400D01*
X19649D01*
Y153318D01*
X19567D01*
Y153236D01*
X19649D01*
Y153155D01*
X19730D01*
Y153073D01*
X19812D01*
Y152991D01*
X19730D01*
Y152909D01*
X19812D01*
Y152827D01*
X19894D01*
Y152746D01*
X19976D01*
Y152664D01*
X19894D01*
Y152582D01*
X19976D01*
Y152500D01*
X20057D01*
Y152418D01*
X20139D01*
Y152337D01*
X20057D01*
Y152418D01*
X19976D01*
Y152500D01*
X19894D01*
Y152582D01*
X19812D01*
Y152664D01*
X19730D01*
Y152746D01*
Y152827D01*
X19649D01*
Y152909D01*
Y152991D01*
X19567D01*
Y153073D01*
X19485D01*
Y153155D01*
X19403D01*
Y153236D01*
X19485D01*
Y153318D01*
X19321D01*
Y153400D01*
Y153482D01*
X19240D01*
Y153563D01*
X19158D01*
Y153645D01*
X19076D01*
Y153727D01*
Y153809D01*
Y153891D01*
X18994D01*
Y153972D01*
X18913D01*
Y154054D01*
X18831D01*
Y154136D01*
X18749D01*
Y154218D01*
X18831D01*
Y154299D01*
X18586D01*
Y154381D01*
X18667D01*
Y154463D01*
X18586D01*
Y154545D01*
X18504D01*
Y154626D01*
X18422D01*
Y154708D01*
Y154790D01*
Y154872D01*
X18340D01*
Y154954D01*
X18258D01*
Y155035D01*
X18177D01*
Y155117D01*
X18095D01*
Y155199D01*
X18177D01*
Y155281D01*
X18013D01*
Y155362D01*
Y155444D01*
X17931D01*
Y155526D01*
X17850D01*
Y155608D01*
X17768D01*
Y155690D01*
X17850D01*
Y155771D01*
X17768D01*
Y155853D01*
X17686D01*
Y155935D01*
X17604D01*
Y156017D01*
X17523D01*
Y156098D01*
X17441D01*
Y156180D01*
X17686D01*
Y156098D01*
X17604D01*
Y156017D01*
X17686D01*
Y155935D01*
X17768D01*
Y155853D01*
X17850D01*
Y155771D01*
X17931D01*
Y155690D01*
X18013D01*
Y155608D01*
X18095D01*
Y155526D01*
X18177D01*
Y155444D01*
X18095D01*
Y155362D01*
X18177D01*
Y155281D01*
X18258D01*
Y155199D01*
X18340D01*
Y155117D01*
X18422D01*
Y155035D01*
X18504D01*
Y154954D01*
X18586D01*
Y154872D01*
X18667D01*
Y154954D01*
X18586D01*
Y155035D01*
X18504D01*
Y155117D01*
X18422D01*
Y155199D01*
X18504D01*
Y155281D01*
X18422D01*
Y155362D01*
X18340D01*
Y155444D01*
X18258D01*
Y155526D01*
X18340D01*
Y155608D01*
X18258D01*
Y155690D01*
X18177D01*
Y155771D01*
X18095D01*
Y155853D01*
X18177D01*
Y155935D01*
X18095D01*
Y156017D01*
X18013D01*
Y156098D01*
X17931D01*
Y156180D01*
X18013D01*
Y156262D01*
X17931D01*
Y156344D01*
X17850D01*
Y156425D01*
X17768D01*
Y156507D01*
X17850D01*
Y156589D01*
X17768D01*
Y156671D01*
X17686D01*
Y156753D01*
X17604D01*
Y156834D01*
X17686D01*
Y156916D01*
X17604D01*
Y156998D01*
X17523D01*
Y157080D01*
X17441D01*
Y157161D01*
X17523D01*
Y157243D01*
X17441D01*
Y157325D01*
X17523D01*
Y157243D01*
D02*
G37*
G36*
X35677Y164767D02*
X35759D01*
Y164685D01*
X36004D01*
Y164603D01*
X36086D01*
Y164685D01*
X36167D01*
Y164603D01*
X36249D01*
Y164521D01*
X36495D01*
Y164440D01*
X36576D01*
Y164358D01*
X36658D01*
Y164276D01*
X36740D01*
Y164194D01*
X36822D01*
Y164113D01*
X36904D01*
Y164031D01*
X36985D01*
Y163949D01*
X37067D01*
Y163867D01*
X37149D01*
Y163785D01*
X37231D01*
Y163704D01*
X37312D01*
Y163622D01*
X37231D01*
Y163540D01*
X37312D01*
Y163458D01*
X37394D01*
Y163377D01*
X37476D01*
Y163295D01*
X37394D01*
Y163213D01*
X37476D01*
Y163131D01*
X37394D01*
Y163049D01*
X37476D01*
Y162968D01*
Y162886D01*
Y162804D01*
Y162722D01*
Y162641D01*
X37558D01*
Y162559D01*
X37476D01*
Y162477D01*
Y162395D01*
Y162313D01*
X37558D01*
Y162232D01*
X37476D01*
Y162150D01*
X37394D01*
Y162068D01*
X37476D01*
Y161986D01*
Y161905D01*
Y161823D01*
X37394D01*
Y161741D01*
X37476D01*
Y161659D01*
X37394D01*
Y161577D01*
X37476D01*
Y161496D01*
X37394D01*
Y161414D01*
X37476D01*
Y161332D01*
X37394D01*
Y161414D01*
X37312D01*
Y161332D01*
X37394D01*
Y161250D01*
X37312D01*
Y161169D01*
X37231D01*
Y161087D01*
X37312D01*
Y161005D01*
X37231D01*
Y160923D01*
X37312D01*
Y160842D01*
X37231D01*
Y160760D01*
X37149D01*
Y160842D01*
X37067D01*
Y160760D01*
X37149D01*
Y160678D01*
Y160596D01*
Y160514D01*
X37067D01*
Y160433D01*
X37149D01*
Y160351D01*
X37067D01*
Y160269D01*
X36985D01*
Y160187D01*
X36904D01*
Y160106D01*
Y160024D01*
Y159942D01*
X36822D01*
Y159860D01*
X36740D01*
Y159778D01*
X36822D01*
Y159697D01*
X36740D01*
Y159778D01*
X36658D01*
Y159697D01*
X36576D01*
Y159615D01*
X36658D01*
Y159533D01*
X36576D01*
Y159451D01*
X36495D01*
Y159370D01*
X36413D01*
Y159288D01*
X36331D01*
Y159206D01*
X36249D01*
Y159124D01*
X36167D01*
Y159042D01*
X36086D01*
Y158961D01*
X36004D01*
Y158879D01*
X35922D01*
Y158797D01*
X35840D01*
Y158715D01*
X35759D01*
Y158633D01*
X35677D01*
Y158552D01*
X35595D01*
Y158470D01*
X35513D01*
Y158552D01*
X35432D01*
Y158470D01*
X35513D01*
Y158388D01*
X35268D01*
Y158306D01*
X35186D01*
Y158225D01*
X34941D01*
Y158143D01*
X34859D01*
Y158225D01*
X34777D01*
Y158143D01*
X34859D01*
Y158061D01*
X34614D01*
Y157979D01*
X34532D01*
Y158061D01*
X34450D01*
Y157979D01*
X34368D01*
Y157897D01*
X34287D01*
Y157979D01*
X34205D01*
Y157897D01*
X33960D01*
Y157816D01*
X33878D01*
Y157897D01*
X33796D01*
Y157816D01*
X33878D01*
Y157734D01*
X33796D01*
Y157816D01*
X33551D01*
Y157734D01*
X33469D01*
Y157816D01*
X33387D01*
Y157734D01*
X33305D01*
Y157816D01*
X33224D01*
Y157734D01*
X33142D01*
Y157816D01*
X33060D01*
Y157734D01*
X32978D01*
Y157816D01*
X32897D01*
Y157734D01*
X32815D01*
Y157816D01*
X32569D01*
Y157897D01*
X32488D01*
Y157816D01*
X32569D01*
Y157734D01*
X32488D01*
Y157816D01*
X32406D01*
Y157897D01*
X31997D01*
Y157979D01*
X31915D01*
Y158061D01*
X31670D01*
Y158143D01*
X31588D01*
Y158225D01*
X31343D01*
Y158306D01*
X31261D01*
Y158388D01*
X31179D01*
Y158470D01*
X31097D01*
Y158552D01*
X31016D01*
Y158633D01*
X30934D01*
Y158715D01*
X30852D01*
Y158797D01*
X30934D01*
Y158879D01*
X30852D01*
Y158961D01*
X30770D01*
Y159042D01*
X30689D01*
Y159124D01*
X30770D01*
Y159206D01*
X30689D01*
Y159288D01*
X30607D01*
Y159370D01*
X30525D01*
Y159451D01*
X30607D01*
Y159533D01*
X30525D01*
Y159615D01*
X30607D01*
Y159697D01*
X30525D01*
Y159778D01*
X30607D01*
Y159860D01*
X30525D01*
Y159942D01*
X30607D01*
Y160024D01*
X30525D01*
Y160106D01*
X30607D01*
Y160187D01*
X30525D01*
Y160269D01*
X30607D01*
Y160351D01*
X30525D01*
Y160433D01*
X30607D01*
Y160514D01*
X30525D01*
Y160596D01*
X30607D01*
Y160678D01*
X30525D01*
Y160760D01*
X30607D01*
Y160842D01*
Y160923D01*
Y161005D01*
X30525D01*
Y161087D01*
X30607D01*
Y161169D01*
X30689D01*
Y161250D01*
X30770D01*
Y161332D01*
X30689D01*
Y161414D01*
X30770D01*
Y161496D01*
X30689D01*
Y161577D01*
X30770D01*
Y161659D01*
X30852D01*
Y161741D01*
X30770D01*
Y161823D01*
X30852D01*
Y161741D01*
X30934D01*
Y161823D01*
X30852D01*
Y161905D01*
X30934D01*
Y161986D01*
X30852D01*
Y162068D01*
X30934D01*
Y162150D01*
X31016D01*
Y162232D01*
X31097D01*
Y162313D01*
X31016D01*
Y162395D01*
X31097D01*
Y162477D01*
X31179D01*
Y162559D01*
Y162641D01*
Y162722D01*
X31261D01*
Y162804D01*
X31343D01*
Y162886D01*
X31424D01*
Y162968D01*
Y163049D01*
Y163131D01*
X31506D01*
Y163049D01*
X31588D01*
Y163131D01*
X31506D01*
Y163213D01*
X31588D01*
Y163295D01*
X31670D01*
Y163377D01*
X31752D01*
Y163458D01*
X31833D01*
Y163540D01*
X31915D01*
Y163622D01*
X31833D01*
Y163704D01*
X31915D01*
Y163622D01*
X31997D01*
Y163704D01*
X32079D01*
Y163785D01*
X32160D01*
Y163867D01*
X32242D01*
Y163949D01*
X32324D01*
Y164031D01*
X32406D01*
Y164113D01*
X32488D01*
Y164031D01*
X32569D01*
Y164113D01*
Y164194D01*
X32733D01*
Y164276D01*
X32815D01*
Y164358D01*
X33060D01*
Y164440D01*
X33142D01*
Y164521D01*
X33387D01*
Y164603D01*
X33469D01*
Y164685D01*
X33551D01*
Y164603D01*
X33632D01*
Y164685D01*
X33878D01*
Y164767D01*
X33960D01*
Y164685D01*
X34041D01*
Y164767D01*
X34123D01*
Y164685D01*
X34205D01*
Y164767D01*
X34123D01*
Y164848D01*
X34205D01*
Y164767D01*
X34287D01*
Y164848D01*
X34368D01*
Y164767D01*
X34450D01*
Y164685D01*
X34532D01*
Y164767D01*
X34450D01*
Y164848D01*
X34532D01*
Y164767D01*
X34614D01*
Y164848D01*
X34696D01*
Y164767D01*
X34777D01*
Y164848D01*
X34859D01*
Y164767D01*
X34941D01*
Y164848D01*
X35186D01*
Y164767D01*
X35268D01*
Y164848D01*
X35350D01*
Y164767D01*
X35432D01*
Y164685D01*
X35513D01*
Y164767D01*
X35432D01*
Y164848D01*
X35513D01*
Y164767D01*
X35595D01*
Y164685D01*
X35677D01*
Y164767D01*
X35595D01*
Y164848D01*
X35677D01*
Y164767D01*
D02*
G37*
G36*
X45490D02*
X45572D01*
Y164685D01*
X45817D01*
Y164603D01*
X45899D01*
Y164521D01*
X46144D01*
Y164440D01*
X46226D01*
Y164358D01*
X46308D01*
Y164276D01*
X46390D01*
Y164194D01*
X46471D01*
Y164113D01*
X46553D01*
Y164031D01*
X46635D01*
Y163949D01*
X46717D01*
Y163867D01*
X46799D01*
Y163785D01*
X46717D01*
Y163704D01*
X46799D01*
Y163622D01*
Y163540D01*
X46880D01*
Y163458D01*
Y163377D01*
X46962D01*
Y163295D01*
X46880D01*
Y163213D01*
X46962D01*
Y163131D01*
X46880D01*
Y163049D01*
X46799D01*
Y163131D01*
X46717D01*
Y163049D01*
X46635D01*
Y162968D01*
X46553D01*
Y163049D01*
X46471D01*
Y162968D01*
X46226D01*
Y162886D01*
X45981D01*
Y162804D01*
X45572D01*
Y162722D01*
X45327D01*
Y162641D01*
X45081D01*
Y162722D01*
Y162804D01*
Y162886D01*
X44999D01*
Y162968D01*
X44918D01*
Y163049D01*
X44999D01*
Y163131D01*
X44754D01*
Y163213D01*
X44672D01*
Y163295D01*
X44591D01*
Y163377D01*
X44509D01*
Y163295D01*
X44427D01*
Y163377D01*
X44345D01*
Y163458D01*
X44263D01*
Y163377D01*
X44345D01*
Y163295D01*
X44263D01*
Y163377D01*
X44182D01*
Y163295D01*
X44100D01*
Y163377D01*
X44018D01*
Y163295D01*
X43773D01*
Y163213D01*
X43855D01*
Y163131D01*
X43773D01*
Y163213D01*
X43691D01*
Y163131D01*
X43609D01*
Y163049D01*
X43527D01*
Y162968D01*
X43446D01*
Y162886D01*
X43364D01*
Y162804D01*
X43282D01*
Y162722D01*
X43200D01*
Y162641D01*
X43119D01*
Y162559D01*
X43200D01*
Y162477D01*
X43037D01*
Y162395D01*
Y162313D01*
X42955D01*
Y162232D01*
Y162150D01*
Y162068D01*
X42873D01*
Y161986D01*
X42791D01*
Y161905D01*
X42873D01*
Y161823D01*
X42791D01*
Y161741D01*
X42710D01*
Y161659D01*
X42791D01*
Y161577D01*
X42710D01*
Y161496D01*
X42628D01*
Y161414D01*
X42710D01*
Y161332D01*
X42628D01*
Y161250D01*
Y161169D01*
Y161087D01*
X42546D01*
Y161005D01*
X42464D01*
Y160923D01*
X42546D01*
Y160842D01*
X42464D01*
Y160760D01*
X42546D01*
Y160678D01*
X42464D01*
Y160596D01*
X42546D01*
Y160514D01*
X42464D01*
Y160433D01*
X42546D01*
Y160351D01*
X42464D01*
Y160269D01*
X42546D01*
Y160187D01*
X42464D01*
Y160106D01*
X42546D01*
Y160024D01*
X42464D01*
Y159942D01*
X42546D01*
Y159860D01*
X42628D01*
Y159778D01*
X42710D01*
Y159697D01*
X42628D01*
Y159778D01*
X42546D01*
Y159697D01*
X42628D01*
Y159615D01*
X42710D01*
Y159533D01*
X42791D01*
Y159451D01*
X42873D01*
Y159370D01*
X42955D01*
Y159288D01*
X43037D01*
Y159370D01*
X42955D01*
Y159451D01*
X43037D01*
Y159370D01*
X43119D01*
Y159288D01*
X43691D01*
Y159370D01*
X43609D01*
Y159451D01*
X43691D01*
Y159370D01*
X43773D01*
Y159451D01*
X44018D01*
Y159533D01*
X44100D01*
Y159615D01*
X44182D01*
Y159697D01*
X44263D01*
Y159778D01*
X44509D01*
Y159697D01*
X44591D01*
Y159615D01*
X44672D01*
Y159697D01*
X44591D01*
Y159778D01*
X44672D01*
Y159697D01*
X44754D01*
Y159615D01*
X44836D01*
Y159533D01*
X44918D01*
Y159451D01*
X44999D01*
Y159533D01*
X45081D01*
Y159451D01*
X45327D01*
Y159370D01*
X45408D01*
Y159288D01*
X45654D01*
Y159206D01*
X45735D01*
Y159124D01*
Y159042D01*
X45654D01*
Y158961D01*
X45572D01*
Y158879D01*
X45490D01*
Y158797D01*
Y158715D01*
X45245D01*
Y158633D01*
Y158552D01*
X45081D01*
Y158470D01*
X44999D01*
Y158388D01*
X44918D01*
Y158306D01*
X44836D01*
Y158388D01*
X44754D01*
Y158306D01*
X44836D01*
Y158225D01*
X44754D01*
Y158306D01*
X44672D01*
Y158225D01*
X44591D01*
Y158143D01*
X44509D01*
Y158061D01*
X44263D01*
Y157979D01*
X44182D01*
Y158061D01*
X44100D01*
Y157979D01*
X44182D01*
Y157897D01*
X44100D01*
Y157979D01*
X44018D01*
Y157897D01*
X43609D01*
Y157816D01*
X43527D01*
Y157897D01*
X43446D01*
Y157816D01*
X43364D01*
Y157897D01*
X43282D01*
Y157816D01*
X43364D01*
Y157734D01*
X43282D01*
Y157816D01*
X43200D01*
Y157734D01*
X43119D01*
Y157816D01*
X43037D01*
Y157734D01*
X42955D01*
Y157816D01*
X42873D01*
Y157734D01*
X42791D01*
Y157816D01*
X42710D01*
Y157734D01*
X42628D01*
Y157816D01*
X42383D01*
Y157897D01*
X42301D01*
Y157816D01*
X42383D01*
Y157734D01*
X42301D01*
Y157816D01*
X42219D01*
Y157897D01*
X41974D01*
Y157979D01*
X41892D01*
Y158061D01*
X41810D01*
Y157979D01*
X41892D01*
Y157897D01*
X41810D01*
Y157979D01*
X41728D01*
Y158061D01*
X41647D01*
Y158143D01*
X41565D01*
Y158225D01*
X41320D01*
Y158306D01*
X41238D01*
Y158388D01*
X41156D01*
Y158470D01*
X41074D01*
Y158552D01*
X40992D01*
Y158633D01*
Y158715D01*
Y158797D01*
X40911D01*
Y158879D01*
X40829D01*
Y158961D01*
X40747D01*
Y159042D01*
X40665D01*
Y159124D01*
X40747D01*
Y159206D01*
X40665D01*
Y159288D01*
X40747D01*
Y159370D01*
X40665D01*
Y159451D01*
Y159533D01*
Y159615D01*
X40584D01*
Y159697D01*
X40665D01*
Y159778D01*
X40584D01*
Y159860D01*
Y159942D01*
Y160024D01*
Y160106D01*
Y160187D01*
Y160269D01*
Y160351D01*
X40665D01*
Y160433D01*
X40584D01*
Y160514D01*
X40665D01*
Y160596D01*
Y160678D01*
Y160760D01*
Y160842D01*
Y160923D01*
X40747D01*
Y161005D01*
X40665D01*
Y161087D01*
X40747D01*
Y161169D01*
Y161250D01*
Y161332D01*
X40665D01*
Y161414D01*
X40747D01*
Y161332D01*
X40829D01*
Y161414D01*
Y161496D01*
Y161577D01*
X40911D01*
Y161659D01*
X40829D01*
Y161741D01*
X40911D01*
Y161823D01*
X40829D01*
Y161905D01*
X40911D01*
Y161986D01*
X40992D01*
Y162068D01*
X41074D01*
Y162150D01*
X40992D01*
Y162232D01*
X41074D01*
Y162313D01*
X41156D01*
Y162395D01*
X41238D01*
Y162477D01*
X41156D01*
Y162559D01*
X41238D01*
Y162641D01*
X41320D01*
Y162722D01*
X41401D01*
Y162804D01*
X41320D01*
Y162886D01*
X41401D01*
Y162968D01*
X41483D01*
Y163049D01*
X41565D01*
Y163131D01*
X41483D01*
Y163213D01*
X41647D01*
Y163295D01*
Y163377D01*
X41728D01*
Y163458D01*
X41810D01*
Y163540D01*
X41892D01*
Y163622D01*
X41974D01*
Y163704D01*
X42055D01*
Y163785D01*
X42137D01*
Y163867D01*
X42219D01*
Y163949D01*
X42301D01*
Y164031D01*
X42464D01*
Y164113D01*
Y164194D01*
X42710D01*
Y164276D01*
X42791D01*
Y164358D01*
X42873D01*
Y164440D01*
X42955D01*
Y164358D01*
X43037D01*
Y164440D01*
X43119D01*
Y164521D01*
X43200D01*
Y164603D01*
X43282D01*
Y164521D01*
X43364D01*
Y164603D01*
X43282D01*
Y164685D01*
X43364D01*
Y164603D01*
X43446D01*
Y164685D01*
X43855D01*
Y164767D01*
X43936D01*
Y164685D01*
X44018D01*
Y164767D01*
X43936D01*
Y164848D01*
X44018D01*
Y164767D01*
X44100D01*
Y164848D01*
X44182D01*
Y164767D01*
X44263D01*
Y164848D01*
X44345D01*
Y164767D01*
X44427D01*
Y164848D01*
X44672D01*
Y164767D01*
X44754D01*
Y164848D01*
X44999D01*
Y164767D01*
X45081D01*
Y164848D01*
X45163D01*
Y164767D01*
X45245D01*
Y164685D01*
X45327D01*
Y164767D01*
X45245D01*
Y164848D01*
X45327D01*
Y164767D01*
X45408D01*
Y164685D01*
X45490D01*
Y164767D01*
X45408D01*
Y164848D01*
X45490D01*
Y164767D01*
D02*
G37*
G36*
X57593Y164603D02*
X57511D01*
Y164521D01*
X57429D01*
Y164440D01*
X57184D01*
Y164358D01*
X57266D01*
Y164276D01*
X57021D01*
Y164194D01*
X56939D01*
Y164113D01*
X56857D01*
Y164031D01*
X56775D01*
Y163949D01*
X56694D01*
Y163867D01*
X56612D01*
Y163785D01*
X56530D01*
Y163704D01*
X56448D01*
Y163785D01*
X56366D01*
Y163704D01*
X56448D01*
Y163622D01*
X56366D01*
Y163540D01*
X56285D01*
Y163622D01*
X56203D01*
Y163540D01*
X56285D01*
Y163458D01*
X56039D01*
Y163377D01*
X56121D01*
Y163295D01*
X56039D01*
Y163377D01*
X55958D01*
Y163295D01*
X55876D01*
Y163213D01*
X55794D01*
Y163131D01*
X55712D01*
Y163049D01*
X55794D01*
Y162968D01*
X55712D01*
Y163049D01*
X55630D01*
Y162968D01*
X55549D01*
Y162886D01*
X55467D01*
Y162804D01*
X55385D01*
Y162722D01*
X55303D01*
Y162641D01*
X55221D01*
Y162559D01*
X55140D01*
Y162477D01*
X54894D01*
Y162395D01*
Y162313D01*
X54731D01*
Y162232D01*
X54649D01*
Y162150D01*
X54567D01*
Y162068D01*
X54485D01*
Y161986D01*
X54404D01*
Y161905D01*
X54322D01*
Y161823D01*
X54240D01*
Y161741D01*
X54158D01*
Y161823D01*
X54077D01*
Y161741D01*
X54158D01*
Y161659D01*
X53913D01*
Y161577D01*
X53995D01*
Y161496D01*
X53750D01*
Y161414D01*
X53831D01*
Y161332D01*
X53750D01*
Y161414D01*
X53668D01*
Y161332D01*
X53586D01*
Y161250D01*
X53668D01*
Y161169D01*
X53750D01*
Y161087D01*
X53831D01*
Y161005D01*
X53913D01*
Y160923D01*
X53995D01*
Y160842D01*
X53913D01*
Y160760D01*
X53995D01*
Y160678D01*
X54077D01*
Y160596D01*
X54158D01*
Y160514D01*
X54240D01*
Y160433D01*
X54322D01*
Y160351D01*
X54240D01*
Y160269D01*
X54322D01*
Y160187D01*
X54404D01*
Y160106D01*
X54485D01*
Y160024D01*
X54567D01*
Y159942D01*
X54649D01*
Y159860D01*
X54567D01*
Y159778D01*
X54649D01*
Y159697D01*
X54731D01*
Y159615D01*
X54813D01*
Y159533D01*
X54894D01*
Y159451D01*
X54976D01*
Y159370D01*
X54894D01*
Y159288D01*
X55058D01*
Y159206D01*
Y159124D01*
X55140D01*
Y159042D01*
X55221D01*
Y158961D01*
X55303D01*
Y158879D01*
Y158797D01*
X55467D01*
Y158715D01*
X55385D01*
Y158633D01*
X55467D01*
Y158552D01*
X55549D01*
Y158470D01*
X55630D01*
Y158388D01*
X55549D01*
Y158306D01*
X55712D01*
Y158225D01*
Y158143D01*
X55794D01*
Y158061D01*
X55876D01*
Y157979D01*
X55794D01*
Y157897D01*
X55712D01*
Y157979D01*
X55630D01*
Y157897D01*
X55549D01*
Y157979D01*
X55467D01*
Y157897D01*
X55385D01*
Y157979D01*
X55303D01*
Y157897D01*
X55221D01*
Y157979D01*
X55140D01*
Y157897D01*
X55058D01*
Y157979D01*
X54976D01*
Y157897D01*
X54894D01*
Y157979D01*
X54813D01*
Y157897D01*
X54731D01*
Y157979D01*
X54649D01*
Y157897D01*
X54567D01*
Y157979D01*
X54485D01*
Y157897D01*
X54404D01*
Y157979D01*
X54322D01*
Y157897D01*
X54240D01*
Y157979D01*
X54158D01*
Y157897D01*
X54077D01*
Y157979D01*
X53995D01*
Y157897D01*
X53913D01*
Y157979D01*
X53831D01*
Y157897D01*
X53750D01*
Y157979D01*
X53668D01*
Y158061D01*
X53586D01*
Y158143D01*
X53504D01*
Y158225D01*
X53422D01*
Y158306D01*
X53341D01*
Y158388D01*
X53259D01*
Y158470D01*
X53341D01*
Y158552D01*
X53259D01*
Y158633D01*
X53177D01*
Y158715D01*
X53095D01*
Y158797D01*
X53013D01*
Y158879D01*
X52932D01*
Y158961D01*
X53013D01*
Y159042D01*
X52932D01*
Y159124D01*
X52850D01*
Y159206D01*
X52768D01*
Y159288D01*
X52686D01*
Y159370D01*
X52605D01*
Y159451D01*
X52686D01*
Y159533D01*
X52605D01*
Y159615D01*
X52523D01*
Y159697D01*
X52441D01*
Y159778D01*
X52359D01*
Y159860D01*
X52277D01*
Y159942D01*
Y160024D01*
X52114D01*
Y160106D01*
X52196D01*
Y160187D01*
X52114D01*
Y160269D01*
X52032D01*
Y160351D01*
X51950D01*
Y160433D01*
X52032D01*
Y160514D01*
X51950D01*
Y160596D01*
X51869D01*
Y160514D01*
X51787D01*
Y160433D01*
X51869D01*
Y160351D01*
X51787D01*
Y160433D01*
X51705D01*
Y160351D01*
X51623D01*
Y160269D01*
X51705D01*
Y160187D01*
X51623D01*
Y160106D01*
X51705D01*
Y160024D01*
X51623D01*
Y159942D01*
X51705D01*
Y159860D01*
X51623D01*
Y159778D01*
X51542D01*
Y159697D01*
X51623D01*
Y159615D01*
X51542D01*
Y159533D01*
X51460D01*
Y159451D01*
X51542D01*
Y159370D01*
X51460D01*
Y159288D01*
X51542D01*
Y159206D01*
X51460D01*
Y159124D01*
X51378D01*
Y159042D01*
X51460D01*
Y158961D01*
X51378D01*
Y159042D01*
X51296D01*
Y158961D01*
X51378D01*
Y158879D01*
X51296D01*
Y158797D01*
X51378D01*
Y158715D01*
X51296D01*
Y158633D01*
X51378D01*
Y158552D01*
X51296D01*
Y158470D01*
Y158388D01*
Y158306D01*
X51214D01*
Y158225D01*
X51133D01*
Y158143D01*
X51214D01*
Y158061D01*
X51133D01*
Y157979D01*
X51051D01*
Y157897D01*
X50969D01*
Y157979D01*
X50887D01*
Y157897D01*
X50806D01*
Y157979D01*
X50724D01*
Y157897D01*
X50642D01*
Y157979D01*
X50560D01*
Y157897D01*
X50479D01*
Y157979D01*
X50397D01*
Y157897D01*
X50315D01*
Y157979D01*
X50233D01*
Y157897D01*
X50151D01*
Y157979D01*
X50070D01*
Y157897D01*
X49988D01*
Y157979D01*
X49906D01*
Y157897D01*
X49824D01*
Y157979D01*
X49742D01*
Y157897D01*
X49661D01*
Y157979D01*
X49579D01*
Y157897D01*
X49497D01*
Y157979D01*
X49415D01*
Y157897D01*
X49334D01*
Y157979D01*
X49252D01*
Y158061D01*
X49334D01*
Y158143D01*
Y158225D01*
Y158306D01*
X49415D01*
Y158388D01*
X49334D01*
Y158470D01*
X49415D01*
Y158552D01*
X49334D01*
Y158633D01*
X49415D01*
Y158715D01*
X49497D01*
Y158797D01*
X49579D01*
Y158879D01*
X49497D01*
Y158961D01*
X49579D01*
Y159042D01*
X49497D01*
Y159124D01*
X49579D01*
Y159206D01*
Y159288D01*
Y159370D01*
X49661D01*
Y159451D01*
Y159533D01*
Y159615D01*
X49742D01*
Y159697D01*
X49661D01*
Y159778D01*
X49742D01*
Y159860D01*
Y159942D01*
Y160024D01*
X49824D01*
Y160106D01*
Y160187D01*
Y160269D01*
X49906D01*
Y160351D01*
X49824D01*
Y160433D01*
X49906D01*
Y160514D01*
Y160596D01*
Y160678D01*
X49988D01*
Y160760D01*
Y160842D01*
Y160923D01*
X50070D01*
Y161005D01*
X49988D01*
Y161087D01*
X50070D01*
Y161169D01*
X49988D01*
Y161250D01*
X50070D01*
Y161332D01*
X50151D01*
Y161414D01*
X50233D01*
Y161496D01*
X50151D01*
Y161577D01*
X50233D01*
Y161659D01*
X50151D01*
Y161741D01*
X50233D01*
Y161823D01*
X50151D01*
Y161905D01*
X50233D01*
Y161986D01*
X50151D01*
Y162068D01*
X50233D01*
Y161986D01*
X50315D01*
Y162068D01*
Y162150D01*
Y162232D01*
X50397D01*
Y162313D01*
X50315D01*
Y162395D01*
X50397D01*
Y162477D01*
X50315D01*
Y162559D01*
X50397D01*
Y162641D01*
X50479D01*
Y162722D01*
X50397D01*
Y162804D01*
X50479D01*
Y162722D01*
X50560D01*
Y162804D01*
X50479D01*
Y162886D01*
X50560D01*
Y162968D01*
X50479D01*
Y163049D01*
X50560D01*
Y163131D01*
X50479D01*
Y163213D01*
X50560D01*
Y163295D01*
Y163377D01*
X50642D01*
Y163458D01*
Y163540D01*
X50724D01*
Y163622D01*
X50642D01*
Y163704D01*
X50724D01*
Y163785D01*
X50642D01*
Y163867D01*
X50724D01*
Y163949D01*
X50806D01*
Y164031D01*
X50724D01*
Y164113D01*
X50806D01*
Y164031D01*
X50887D01*
Y164113D01*
X50806D01*
Y164194D01*
Y164276D01*
Y164358D01*
X50887D01*
Y164440D01*
X50806D01*
Y164521D01*
X50887D01*
Y164603D01*
X50969D01*
Y164685D01*
X51378D01*
Y164603D01*
X51460D01*
Y164685D01*
X52032D01*
Y164603D01*
X52114D01*
Y164685D01*
X52686D01*
Y164603D01*
X52768D01*
Y164521D01*
Y164440D01*
Y164358D01*
X52686D01*
Y164276D01*
X52605D01*
Y164194D01*
X52686D01*
Y164113D01*
X52605D01*
Y164031D01*
X52686D01*
Y163949D01*
X52605D01*
Y163867D01*
Y163785D01*
Y163704D01*
X52523D01*
Y163622D01*
Y163540D01*
Y163458D01*
X52441D01*
Y163377D01*
X52523D01*
Y163295D01*
X52441D01*
Y163213D01*
Y163131D01*
Y163049D01*
X52359D01*
Y162968D01*
Y162886D01*
Y162804D01*
X52277D01*
Y162722D01*
X52359D01*
Y162641D01*
X52277D01*
Y162559D01*
Y162477D01*
Y162395D01*
X52196D01*
Y162313D01*
Y162232D01*
Y162150D01*
X52114D01*
Y162068D01*
X52359D01*
Y162150D01*
X52441D01*
Y162232D01*
X52523D01*
Y162313D01*
X52441D01*
Y162395D01*
X52523D01*
Y162313D01*
X52605D01*
Y162395D01*
X52686D01*
Y162477D01*
X52768D01*
Y162559D01*
X52850D01*
Y162641D01*
X52932D01*
Y162722D01*
X53177D01*
Y162804D01*
X53095D01*
Y162886D01*
X53341D01*
Y162968D01*
X53422D01*
Y163049D01*
X53504D01*
Y163131D01*
X53586D01*
Y163213D01*
X53668D01*
Y163295D01*
X53750D01*
Y163377D01*
X53831D01*
Y163458D01*
X53913D01*
Y163540D01*
X53995D01*
Y163622D01*
X54077D01*
Y163704D01*
X54322D01*
Y163785D01*
X54240D01*
Y163867D01*
X54485D01*
Y163949D01*
X54404D01*
Y164031D01*
X54485D01*
Y163949D01*
X54567D01*
Y164031D01*
X54649D01*
Y164113D01*
X54731D01*
Y164194D01*
X54813D01*
Y164276D01*
X54894D01*
Y164358D01*
X54976D01*
Y164440D01*
X55058D01*
Y164358D01*
X55140D01*
Y164440D01*
X55058D01*
Y164521D01*
X55140D01*
Y164603D01*
X55221D01*
Y164521D01*
X55303D01*
Y164603D01*
X55221D01*
Y164685D01*
X55303D01*
Y164603D01*
X55385D01*
Y164685D01*
X55958D01*
Y164603D01*
X56039D01*
Y164685D01*
X56612D01*
Y164603D01*
X56694D01*
Y164685D01*
X57266D01*
Y164603D01*
X57348D01*
Y164685D01*
X57593D01*
Y164603D01*
D02*
G37*
G36*
X64789D02*
X64871D01*
Y164521D01*
Y164440D01*
Y164358D01*
X64789D01*
Y164276D01*
X64708D01*
Y164194D01*
X64789D01*
Y164113D01*
X64708D01*
Y164031D01*
X64789D01*
Y163949D01*
X64708D01*
Y163867D01*
X64789D01*
Y163785D01*
X64708D01*
Y163704D01*
X64626D01*
Y163622D01*
X64708D01*
Y163540D01*
X64626D01*
Y163458D01*
X64544D01*
Y163377D01*
X64626D01*
Y163295D01*
X64544D01*
Y163213D01*
X64462D01*
Y163131D01*
X64381D01*
Y163213D01*
X64299D01*
Y163131D01*
X64217D01*
Y163213D01*
X64135D01*
Y163131D01*
X64053D01*
Y163213D01*
X63972D01*
Y163131D01*
X63890D01*
Y163213D01*
X63808D01*
Y163131D01*
X63726D01*
Y163213D01*
X63644D01*
Y163131D01*
X63563D01*
Y163213D01*
X63481D01*
Y163131D01*
X63399D01*
Y163213D01*
X63317D01*
Y163131D01*
X63236D01*
Y163213D01*
X63154D01*
Y163131D01*
X63072D01*
Y163213D01*
X62990D01*
Y163131D01*
X62909D01*
Y163213D01*
X62827D01*
Y163131D01*
X62745D01*
Y163213D01*
X62663D01*
Y163131D01*
X62581D01*
Y163213D01*
X62500D01*
Y163131D01*
X62418D01*
Y163049D01*
X62336D01*
Y162968D01*
X62418D01*
Y162886D01*
X62336D01*
Y162804D01*
X62254D01*
Y162722D01*
X62336D01*
Y162641D01*
X62254D01*
Y162559D01*
X62336D01*
Y162477D01*
X62254D01*
Y162395D01*
X62336D01*
Y162313D01*
X62254D01*
Y162395D01*
X62173D01*
Y162313D01*
X62254D01*
Y162232D01*
X62173D01*
Y162150D01*
X62091D01*
Y162068D01*
X62173D01*
Y161986D01*
X62254D01*
Y162068D01*
X62336D01*
Y161986D01*
X62418D01*
Y161905D01*
X62500D01*
Y161986D01*
X62418D01*
Y162068D01*
X62500D01*
Y161986D01*
X62581D01*
Y162068D01*
X62663D01*
Y161986D01*
X62745D01*
Y161905D01*
X62827D01*
Y161986D01*
X62745D01*
Y162068D01*
X62827D01*
Y161986D01*
X62909D01*
Y162068D01*
X62990D01*
Y161986D01*
X63072D01*
Y161905D01*
X63154D01*
Y161986D01*
X63072D01*
Y162068D01*
X63154D01*
Y161986D01*
X63236D01*
Y162068D01*
X63317D01*
Y161986D01*
X63399D01*
Y161905D01*
X63481D01*
Y161986D01*
X63399D01*
Y162068D01*
X63481D01*
Y161986D01*
X63563D01*
Y162068D01*
X63644D01*
Y161986D01*
X63726D01*
Y161905D01*
X63808D01*
Y161986D01*
X63726D01*
Y162068D01*
X63808D01*
Y161986D01*
X63890D01*
Y162068D01*
X63972D01*
Y161986D01*
X64053D01*
Y161905D01*
X64135D01*
Y161823D01*
Y161741D01*
Y161659D01*
X64053D01*
Y161577D01*
X64135D01*
Y161496D01*
X64053D01*
Y161414D01*
Y161332D01*
Y161250D01*
X63972D01*
Y161169D01*
X63890D01*
Y161087D01*
X63972D01*
Y161005D01*
X63890D01*
Y160923D01*
X63972D01*
Y160842D01*
X63890D01*
Y160760D01*
X63972D01*
Y160678D01*
X63726D01*
Y160596D01*
X63808D01*
Y160514D01*
X63726D01*
Y160596D01*
X63644D01*
Y160678D01*
X63563D01*
Y160596D01*
X63481D01*
Y160678D01*
X63399D01*
Y160596D01*
X63481D01*
Y160514D01*
X63399D01*
Y160596D01*
X63317D01*
Y160678D01*
X63236D01*
Y160596D01*
X63154D01*
Y160678D01*
X63072D01*
Y160596D01*
X62990D01*
Y160678D01*
X62909D01*
Y160596D01*
X62827D01*
Y160678D01*
X62745D01*
Y160596D01*
X62827D01*
Y160514D01*
X62745D01*
Y160596D01*
X62663D01*
Y160678D01*
X62581D01*
Y160596D01*
X62500D01*
Y160678D01*
X62418D01*
Y160596D01*
X62500D01*
Y160514D01*
X62418D01*
Y160596D01*
X62336D01*
Y160678D01*
X62254D01*
Y160596D01*
X62173D01*
Y160678D01*
X62091D01*
Y160596D01*
X62173D01*
Y160514D01*
X62091D01*
Y160596D01*
X62009D01*
Y160678D01*
X61927D01*
Y160596D01*
X61845D01*
Y160678D01*
X61764D01*
Y160596D01*
X61845D01*
Y160514D01*
X61764D01*
Y160433D01*
Y160351D01*
Y160269D01*
X61682D01*
Y160187D01*
X61600D01*
Y160106D01*
X61682D01*
Y160024D01*
X61600D01*
Y159942D01*
X61682D01*
Y159860D01*
X61600D01*
Y159778D01*
Y159697D01*
Y159615D01*
X61518D01*
Y159533D01*
Y159451D01*
Y159370D01*
X61600D01*
Y159451D01*
X61845D01*
Y159370D01*
X61927D01*
Y159451D01*
X62173D01*
Y159370D01*
X62254D01*
Y159451D01*
X62500D01*
Y159370D01*
X62581D01*
Y159451D01*
X62827D01*
Y159370D01*
X62909D01*
Y159451D01*
X63154D01*
Y159370D01*
X63236D01*
Y159451D01*
X63481D01*
Y159370D01*
X63563D01*
Y159288D01*
X63644D01*
Y159206D01*
X63563D01*
Y159124D01*
X63644D01*
Y159042D01*
X63563D01*
Y159124D01*
X63481D01*
Y159042D01*
Y158961D01*
Y158879D01*
X63399D01*
Y158797D01*
X63481D01*
Y158715D01*
X63399D01*
Y158633D01*
X63481D01*
Y158552D01*
X63399D01*
Y158470D01*
Y158388D01*
Y158306D01*
X63317D01*
Y158225D01*
X63236D01*
Y158143D01*
X63317D01*
Y158061D01*
X63236D01*
Y157979D01*
X63154D01*
Y157897D01*
X63072D01*
Y157979D01*
X62990D01*
Y157897D01*
X62909D01*
Y157979D01*
X62827D01*
Y157897D01*
X62745D01*
Y157979D01*
X62663D01*
Y157897D01*
X62581D01*
Y157979D01*
X62500D01*
Y157897D01*
X62418D01*
Y157979D01*
X62336D01*
Y157897D01*
X62254D01*
Y157979D01*
X62173D01*
Y157897D01*
X62091D01*
Y157979D01*
X62009D01*
Y157897D01*
X61927D01*
Y157979D01*
X61845D01*
Y157897D01*
X61764D01*
Y157979D01*
X61682D01*
Y157897D01*
X61600D01*
Y157979D01*
X61518D01*
Y157897D01*
X61436D01*
Y157979D01*
X61355D01*
Y157897D01*
X61273D01*
Y157979D01*
X61191D01*
Y157897D01*
X61109D01*
Y157979D01*
X61028D01*
Y157897D01*
X60946D01*
Y157979D01*
X60864D01*
Y157897D01*
X60782D01*
Y157979D01*
X60701D01*
Y157897D01*
X60619D01*
Y157979D01*
X60537D01*
Y157897D01*
X60455D01*
Y157979D01*
X60374D01*
Y157897D01*
X60292D01*
Y157979D01*
X60210D01*
Y157897D01*
X60128D01*
Y157979D01*
X60046D01*
Y157897D01*
X59965D01*
Y157979D01*
X59883D01*
Y157897D01*
X59801D01*
Y157979D01*
X59719D01*
Y157897D01*
X59637D01*
Y157979D01*
X59556D01*
Y157897D01*
X59474D01*
Y157979D01*
X59392D01*
Y157897D01*
X59310D01*
Y157979D01*
Y158061D01*
Y158143D01*
X59392D01*
Y158225D01*
X59310D01*
Y158306D01*
X59392D01*
Y158388D01*
X59310D01*
Y158470D01*
X59392D01*
Y158552D01*
X59474D01*
Y158633D01*
X59392D01*
Y158715D01*
X59474D01*
Y158797D01*
X59556D01*
Y158879D01*
X59474D01*
Y158961D01*
X59556D01*
Y159042D01*
X59474D01*
Y159124D01*
X59556D01*
Y159206D01*
X59474D01*
Y159288D01*
X59556D01*
Y159370D01*
X59637D01*
Y159451D01*
X59719D01*
Y159533D01*
X59637D01*
Y159615D01*
X59719D01*
Y159697D01*
X59637D01*
Y159778D01*
X59719D01*
Y159860D01*
X59801D01*
Y159942D01*
X59719D01*
Y160024D01*
X59801D01*
Y160106D01*
X59883D01*
Y160187D01*
X59801D01*
Y160269D01*
X59883D01*
Y160351D01*
X59801D01*
Y160433D01*
X59883D01*
Y160514D01*
Y160596D01*
Y160678D01*
X59965D01*
Y160760D01*
X60046D01*
Y160842D01*
X59965D01*
Y160923D01*
X60046D01*
Y161005D01*
X59965D01*
Y161087D01*
X60046D01*
Y161169D01*
Y161250D01*
Y161332D01*
X60128D01*
Y161414D01*
Y161496D01*
Y161577D01*
X60210D01*
Y161659D01*
X60128D01*
Y161741D01*
X60210D01*
Y161823D01*
Y161905D01*
Y161986D01*
X60292D01*
Y162068D01*
Y162150D01*
Y162232D01*
X60374D01*
Y162313D01*
X60292D01*
Y162395D01*
X60374D01*
Y162477D01*
Y162559D01*
Y162641D01*
X60455D01*
Y162722D01*
Y162804D01*
Y162886D01*
X60537D01*
Y162968D01*
X60455D01*
Y163049D01*
X60537D01*
Y163131D01*
X60455D01*
Y163213D01*
X60537D01*
Y163295D01*
X60619D01*
Y163377D01*
X60701D01*
Y163458D01*
X60619D01*
Y163540D01*
X60701D01*
Y163622D01*
X60619D01*
Y163704D01*
X60701D01*
Y163785D01*
Y163867D01*
Y163949D01*
X60619D01*
Y164031D01*
X60701D01*
Y163949D01*
X60782D01*
Y164031D01*
Y164113D01*
Y164194D01*
X60864D01*
Y164276D01*
X60782D01*
Y164358D01*
X60864D01*
Y164440D01*
X60782D01*
Y164521D01*
X60864D01*
Y164603D01*
X60946D01*
Y164685D01*
X61191D01*
Y164603D01*
X61273D01*
Y164685D01*
X61845D01*
Y164603D01*
X61927D01*
Y164685D01*
X62500D01*
Y164603D01*
X62581D01*
Y164685D01*
X63154D01*
Y164603D01*
X63236D01*
Y164685D01*
X63808D01*
Y164603D01*
X63890D01*
Y164685D01*
X64462D01*
Y164603D01*
X64544D01*
Y164685D01*
X64789D01*
Y164603D01*
D02*
G37*
G36*
X64135Y161986D02*
X64217D01*
Y161905D01*
X64135D01*
Y161986D01*
X64053D01*
Y162068D01*
X64135D01*
Y161986D01*
D02*
G37*
G36*
X74112Y164603D02*
X74030D01*
Y164521D01*
X74112D01*
Y164440D01*
X74030D01*
Y164358D01*
X74112D01*
Y164276D01*
X74030D01*
Y164358D01*
X73948D01*
Y164276D01*
X73867D01*
Y164194D01*
X73948D01*
Y164113D01*
X73867D01*
Y164031D01*
X73948D01*
Y163949D01*
X73867D01*
Y163867D01*
X73948D01*
Y163785D01*
X73867D01*
Y163704D01*
Y163622D01*
Y163540D01*
X73785D01*
Y163458D01*
X73703D01*
Y163377D01*
X73785D01*
Y163295D01*
X73703D01*
Y163213D01*
X73621D01*
Y163131D01*
X73540D01*
Y163213D01*
X73458D01*
Y163131D01*
X73376D01*
Y163213D01*
X73294D01*
Y163131D01*
X73212D01*
Y163213D01*
X73131D01*
Y163131D01*
X73049D01*
Y163213D01*
X72967D01*
Y163131D01*
X72885D01*
Y163213D01*
X72803D01*
Y163131D01*
X72722D01*
Y163213D01*
X72640D01*
Y163131D01*
X72558D01*
Y163213D01*
X72476D01*
Y163131D01*
X72395D01*
Y163213D01*
X72313D01*
Y163131D01*
X72231D01*
Y163213D01*
X72149D01*
Y163131D01*
X72067D01*
Y163213D01*
X71986D01*
Y163131D01*
X71904D01*
Y163213D01*
X71822D01*
Y163131D01*
X71740D01*
Y163049D01*
X71822D01*
Y162968D01*
X71740D01*
Y162886D01*
X71659D01*
Y162804D01*
Y162722D01*
Y162641D01*
X71577D01*
Y162559D01*
X71659D01*
Y162477D01*
X71577D01*
Y162395D01*
X71659D01*
Y162313D01*
X71577D01*
Y162232D01*
X71495D01*
Y162150D01*
X71413D01*
Y162068D01*
X71495D01*
Y161986D01*
X71413D01*
Y161905D01*
X71495D01*
Y161823D01*
X71413D01*
Y161741D01*
X71495D01*
Y161659D01*
X71413D01*
Y161577D01*
X71332D01*
Y161496D01*
X71413D01*
Y161414D01*
X71332D01*
Y161332D01*
X71250D01*
Y161250D01*
X71332D01*
Y161169D01*
X71250D01*
Y161087D01*
X71332D01*
Y161005D01*
X71250D01*
Y160923D01*
X71168D01*
Y160842D01*
X71086D01*
Y160760D01*
X71168D01*
Y160678D01*
X71086D01*
Y160596D01*
X71168D01*
Y160514D01*
X71086D01*
Y160433D01*
X71168D01*
Y160351D01*
X71086D01*
Y160269D01*
Y160187D01*
Y160106D01*
X71004D01*
Y160024D01*
X70923D01*
Y159942D01*
X71004D01*
Y159860D01*
X70923D01*
Y159778D01*
X71004D01*
Y159697D01*
X70923D01*
Y159615D01*
X70841D01*
Y159533D01*
X70923D01*
Y159451D01*
X70841D01*
Y159370D01*
Y159288D01*
Y159206D01*
X70759D01*
Y159124D01*
X70841D01*
Y159042D01*
X70759D01*
Y158961D01*
Y158879D01*
Y158797D01*
X70677D01*
Y158715D01*
Y158633D01*
Y158552D01*
X70596D01*
Y158470D01*
X70677D01*
Y158388D01*
X70596D01*
Y158306D01*
X70514D01*
Y158225D01*
Y158143D01*
Y158061D01*
Y157979D01*
Y157897D01*
X70432D01*
Y157979D01*
X70350D01*
Y157897D01*
X70268D01*
Y157979D01*
X70187D01*
Y157897D01*
X70105D01*
Y157979D01*
X70023D01*
Y157897D01*
X69941D01*
Y157979D01*
X69859D01*
Y157897D01*
X69778D01*
Y157979D01*
X69696D01*
Y157897D01*
X69614D01*
Y157979D01*
X69532D01*
Y157897D01*
X69451D01*
Y157979D01*
X69369D01*
Y157897D01*
X69287D01*
Y157979D01*
X69205D01*
Y157897D01*
X69124D01*
Y157979D01*
X69042D01*
Y157897D01*
X68960D01*
Y157979D01*
X68878D01*
Y157897D01*
X68796D01*
Y157979D01*
X68715D01*
Y158061D01*
X68633D01*
Y158143D01*
X68715D01*
Y158225D01*
X68633D01*
Y158306D01*
X68715D01*
Y158388D01*
X68796D01*
Y158470D01*
X68715D01*
Y158552D01*
X68796D01*
Y158633D01*
Y158715D01*
Y158797D01*
X68878D01*
Y158879D01*
X68796D01*
Y158961D01*
X68878D01*
Y159042D01*
X68796D01*
Y159124D01*
X68878D01*
Y159206D01*
X68960D01*
Y159288D01*
X68878D01*
Y159370D01*
X68960D01*
Y159288D01*
X69042D01*
Y159370D01*
X68960D01*
Y159451D01*
X69042D01*
Y159533D01*
X68960D01*
Y159615D01*
X69042D01*
Y159697D01*
Y159778D01*
Y159860D01*
X69124D01*
Y159942D01*
Y160024D01*
Y160106D01*
X69205D01*
Y160187D01*
X69124D01*
Y160269D01*
X69205D01*
Y160351D01*
X69124D01*
Y160433D01*
X69205D01*
Y160514D01*
X69287D01*
Y160596D01*
Y160678D01*
Y160760D01*
X69369D01*
Y160842D01*
X69287D01*
Y160923D01*
X69369D01*
Y161005D01*
Y161087D01*
Y161169D01*
X69451D01*
Y161250D01*
Y161332D01*
Y161414D01*
X69532D01*
Y161496D01*
X69451D01*
Y161577D01*
X69532D01*
Y161659D01*
X69451D01*
Y161741D01*
X69532D01*
Y161823D01*
X69614D01*
Y161905D01*
Y161986D01*
Y162068D01*
X69696D01*
Y162150D01*
X69614D01*
Y162232D01*
X69696D01*
Y162313D01*
Y162395D01*
Y162477D01*
X69778D01*
Y162559D01*
Y162641D01*
Y162722D01*
X69859D01*
Y162804D01*
X69778D01*
Y162886D01*
X69859D01*
Y162968D01*
X69778D01*
Y163049D01*
X69859D01*
Y163131D01*
X69778D01*
Y163213D01*
X69696D01*
Y163131D01*
X69614D01*
Y163213D01*
X69532D01*
Y163131D01*
X69451D01*
Y163213D01*
X69369D01*
Y163131D01*
X69287D01*
Y163213D01*
X69205D01*
Y163131D01*
X69124D01*
Y163213D01*
X69042D01*
Y163131D01*
X68960D01*
Y163213D01*
X68878D01*
Y163131D01*
X68796D01*
Y163213D01*
X68715D01*
Y163131D01*
X68633D01*
Y163213D01*
X68551D01*
Y163131D01*
X68469D01*
Y163213D01*
X68388D01*
Y163131D01*
X68306D01*
Y163213D01*
X68224D01*
Y163131D01*
X68142D01*
Y163213D01*
X68060D01*
Y163295D01*
X67979D01*
Y163377D01*
X68060D01*
Y163458D01*
X67979D01*
Y163540D01*
X68060D01*
Y163622D01*
X68142D01*
Y163704D01*
X68060D01*
Y163785D01*
X68142D01*
Y163867D01*
Y163949D01*
Y164031D01*
X68224D01*
Y164113D01*
Y164194D01*
Y164276D01*
X68142D01*
Y164358D01*
X68306D01*
Y164440D01*
Y164521D01*
X68388D01*
Y164603D01*
X68306D01*
Y164685D01*
X68388D01*
Y164603D01*
X68469D01*
Y164685D01*
X69042D01*
Y164603D01*
X69124D01*
Y164685D01*
X69696D01*
Y164603D01*
X69778D01*
Y164685D01*
X70350D01*
Y164603D01*
X70432D01*
Y164685D01*
X71004D01*
Y164603D01*
X71086D01*
Y164685D01*
X71659D01*
Y164603D01*
X71740D01*
Y164685D01*
X72313D01*
Y164603D01*
X72395D01*
Y164685D01*
X72967D01*
Y164603D01*
X73049D01*
Y164685D01*
X73621D01*
Y164603D01*
X73703D01*
Y164685D01*
X74112D01*
Y164603D01*
D02*
G37*
G36*
X225001Y55839D02*
X223501D01*
Y54839D01*
X225001D01*
Y55839D01*
D02*
G37*
G36*
X207094Y79651D02*
X206094D01*
Y78152D01*
X207094D01*
Y79651D01*
D02*
G37*
G36*
Y99336D02*
X206094D01*
Y97837D01*
X207094D01*
Y99336D01*
D02*
G37*
G36*
Y119022D02*
X206094D01*
Y117522D01*
X207094D01*
Y119022D01*
D02*
G37*
G36*
X226970Y147239D02*
X225470D01*
Y148239D01*
X226970D01*
Y147239D01*
D02*
G37*
G36*
X244686Y55839D02*
X243186D01*
Y54839D01*
X244686D01*
Y55839D01*
D02*
G37*
G36*
X264371D02*
X262871D01*
Y54839D01*
X264371D01*
Y55839D01*
D02*
G37*
G36*
X284056D02*
X282556D01*
Y54839D01*
X284056D01*
Y55839D01*
D02*
G37*
G36*
X246655Y147239D02*
X245155D01*
Y148239D01*
X246655D01*
Y147239D01*
D02*
G37*
G36*
X266340D02*
X264840D01*
Y148239D01*
X266340D01*
Y147239D01*
D02*
G37*
G36*
X286025D02*
X284525D01*
Y148239D01*
X286025D01*
Y147239D01*
D02*
G37*
G36*
X640039Y147172D02*
X635709Y149928D01*
X640039Y152290D01*
Y147172D01*
D02*
G37*
G36*
X299494Y119490D02*
X298494D01*
Y120990D01*
X299494D01*
Y119490D01*
D02*
G37*
G36*
Y99805D02*
X298494D01*
Y101305D01*
X299494D01*
Y99805D01*
D02*
G37*
G36*
Y80120D02*
X298494D01*
Y81620D01*
X299494D01*
Y80120D01*
D02*
G37*
%LPC*%
G36*
X11962Y168365D02*
X11880D01*
Y168283D01*
X11962D01*
Y168365D01*
D02*
G37*
G36*
X12616Y164440D02*
X12534D01*
Y164358D01*
X12616D01*
Y164440D01*
D02*
G37*
G36*
X10326D02*
X10244D01*
Y164358D01*
X10326D01*
Y164440D01*
D02*
G37*
G36*
X2884Y168447D02*
X2803D01*
Y168365D01*
X2557D01*
Y168447D01*
X2475D01*
Y168365D01*
X2067D01*
Y168283D01*
X2148D01*
Y168201D01*
X2067D01*
Y168120D01*
X2148D01*
Y168038D01*
X2067D01*
Y167956D01*
X2148D01*
Y167874D01*
X2067D01*
Y167792D01*
X1985D01*
Y167711D01*
X1903D01*
Y167629D01*
X1985D01*
Y167547D01*
X1903D01*
Y167465D01*
X1985D01*
Y167384D01*
X1903D01*
Y167302D01*
X1985D01*
Y167220D01*
X2067D01*
Y167138D01*
X2148D01*
Y167220D01*
X2230D01*
Y167138D01*
X2475D01*
Y167220D01*
X2557D01*
Y167138D01*
X2639D01*
Y167220D01*
X2721D01*
Y167138D01*
X2803D01*
Y167220D01*
X2721D01*
Y167302D01*
X2803D01*
Y167220D01*
X2884D01*
Y167302D01*
X2966D01*
Y167384D01*
X3048D01*
Y167302D01*
X3130D01*
Y167384D01*
X3048D01*
Y167465D01*
X3130D01*
Y167547D01*
X3212D01*
Y167629D01*
X3293D01*
Y167711D01*
X3212D01*
Y167792D01*
X3293D01*
Y167874D01*
X3212D01*
Y167956D01*
X3293D01*
Y168038D01*
X3212D01*
Y168120D01*
X3293D01*
Y168201D01*
X3212D01*
Y168283D01*
X3130D01*
Y168365D01*
X2884D01*
Y168447D01*
D02*
G37*
G36*
X1985Y167220D02*
X1903D01*
Y167138D01*
X1985D01*
Y167220D01*
D02*
G37*
G36*
X4111Y166402D02*
X4029D01*
Y166321D01*
X4111D01*
Y166402D01*
D02*
G37*
G36*
X2475Y166075D02*
X2394D01*
Y165993D01*
X2475D01*
Y165912D01*
X2394D01*
Y165993D01*
X2312D01*
Y166075D01*
X2230D01*
Y165993D01*
X2312D01*
Y165912D01*
X2230D01*
Y165993D01*
X2148D01*
Y166075D01*
X2067D01*
Y165993D01*
X2148D01*
Y165912D01*
X2067D01*
Y165993D01*
X1985D01*
Y166075D01*
X1903D01*
Y165993D01*
X1985D01*
Y165912D01*
X1903D01*
Y165993D01*
X1821D01*
Y166075D01*
X1740D01*
Y165993D01*
X1821D01*
Y165912D01*
X1740D01*
Y165993D01*
X1658D01*
Y165912D01*
X1576D01*
Y165830D01*
X1494D01*
Y165748D01*
X1412D01*
Y165666D01*
X1494D01*
Y165585D01*
X1412D01*
Y165503D01*
X1494D01*
Y165421D01*
X1412D01*
Y165339D01*
X1494D01*
Y165257D01*
X1412D01*
Y165176D01*
Y165094D01*
Y165012D01*
X1331D01*
Y164930D01*
X1249D01*
Y164848D01*
X1331D01*
Y164767D01*
X1249D01*
Y164685D01*
Y164603D01*
Y164521D01*
X1331D01*
Y164440D01*
X1412D01*
Y164358D01*
X1494D01*
Y164440D01*
X1412D01*
Y164521D01*
X1494D01*
Y164440D01*
X1576D01*
Y164521D01*
X1658D01*
Y164440D01*
X1740D01*
Y164358D01*
X1821D01*
Y164440D01*
X1740D01*
Y164521D01*
X1821D01*
Y164440D01*
X1903D01*
Y164521D01*
X1985D01*
Y164440D01*
X2067D01*
Y164358D01*
X2148D01*
Y164440D01*
X2067D01*
Y164521D01*
X2148D01*
Y164440D01*
X2230D01*
Y164521D01*
X2312D01*
Y164603D01*
X2394D01*
Y164685D01*
X2557D01*
Y164767D01*
Y164848D01*
X2639D01*
Y164930D01*
X2721D01*
Y165012D01*
X2803D01*
Y165094D01*
X2721D01*
Y165176D01*
X2803D01*
Y165257D01*
X2721D01*
Y165339D01*
X2803D01*
Y165421D01*
Y165503D01*
Y165585D01*
X2721D01*
Y165666D01*
X2803D01*
Y165748D01*
X2721D01*
Y165830D01*
X2639D01*
Y165912D01*
X2557D01*
Y165993D01*
X2475D01*
Y166075D01*
D02*
G37*
G36*
X7873Y161169D02*
X7791D01*
Y161087D01*
X7709D01*
Y161169D01*
X7627D01*
Y161087D01*
X7709D01*
Y161005D01*
X7791D01*
Y160923D01*
X7873D01*
Y161005D01*
X7955D01*
Y160923D01*
X8036D01*
Y161005D01*
X7955D01*
Y161087D01*
X7873D01*
Y161169D01*
D02*
G37*
G36*
X14742Y161005D02*
X14660D01*
Y160923D01*
X14742D01*
Y161005D01*
D02*
G37*
G36*
X14251Y159697D02*
X14170D01*
Y159615D01*
X14251D01*
Y159697D01*
D02*
G37*
G36*
X14742Y160024D02*
X14497D01*
Y159942D01*
X14415D01*
Y159860D01*
X14170D01*
Y159778D01*
X14251D01*
Y159697D01*
X14333D01*
Y159615D01*
X14415D01*
Y159533D01*
X14497D01*
Y159615D01*
X14579D01*
Y159697D01*
X14497D01*
Y159778D01*
X14579D01*
Y159860D01*
X14660D01*
Y159942D01*
X14742D01*
Y160024D01*
D02*
G37*
G36*
X15233Y159206D02*
X15151D01*
Y159124D01*
X15233D01*
Y159206D01*
D02*
G37*
G36*
X17195Y158225D02*
X17114D01*
Y158143D01*
X17195D01*
Y158225D01*
D02*
G37*
G36*
X18504Y157243D02*
X18422D01*
Y157161D01*
X18504D01*
Y157243D01*
D02*
G37*
G36*
X19649Y156753D02*
X19567D01*
Y156671D01*
X19649D01*
Y156753D01*
D02*
G37*
G36*
X19812Y156589D02*
X19730D01*
Y156507D01*
X19812D01*
Y156589D01*
D02*
G37*
G36*
X19485D02*
X19403D01*
Y156507D01*
X19485D01*
Y156589D01*
D02*
G37*
G36*
X20466Y155935D02*
X20385D01*
Y155853D01*
X20466D01*
Y155935D01*
D02*
G37*
G36*
X20957Y155771D02*
X20875D01*
Y155690D01*
X20957D01*
Y155771D01*
D02*
G37*
G36*
X21121Y155608D02*
X21039D01*
Y155526D01*
X21121D01*
Y155608D01*
D02*
G37*
G36*
X21938Y154790D02*
X21857D01*
Y154708D01*
X21938D01*
Y154790D01*
D02*
G37*
G36*
X25373Y163295D02*
X24801D01*
Y163213D01*
X24719D01*
Y163295D01*
X24474D01*
Y163213D01*
X24392D01*
Y163295D01*
X24310D01*
Y163213D01*
Y163131D01*
Y163049D01*
X24392D01*
Y162968D01*
X24310D01*
Y163049D01*
X24228D01*
Y162968D01*
X24146D01*
Y162886D01*
X24228D01*
Y162804D01*
X24146D01*
Y162722D01*
X24228D01*
Y162641D01*
X24146D01*
Y162559D01*
X24228D01*
Y162477D01*
X24146D01*
Y162395D01*
X24065D01*
Y162313D01*
X24146D01*
Y162232D01*
X24065D01*
Y162150D01*
X23983D01*
Y162068D01*
X24065D01*
Y161986D01*
X23983D01*
Y161905D01*
X24065D01*
Y161823D01*
X23983D01*
Y161741D01*
X23901D01*
Y161659D01*
X23819D01*
Y161577D01*
X23901D01*
Y161496D01*
X23819D01*
Y161414D01*
X23901D01*
Y161332D01*
X23983D01*
Y161414D01*
X24065D01*
Y161332D01*
X24146D01*
Y161414D01*
X24228D01*
Y161332D01*
X24310D01*
Y161414D01*
X24392D01*
Y161332D01*
X24637D01*
Y161414D01*
X24719D01*
Y161332D01*
X24801D01*
Y161414D01*
X24882D01*
Y161332D01*
X24964D01*
Y161414D01*
X25210D01*
Y161496D01*
X25291D01*
Y161577D01*
X25373D01*
Y161659D01*
X25455D01*
Y161741D01*
X25537D01*
Y161823D01*
X25455D01*
Y161905D01*
X25618D01*
Y161986D01*
Y162068D01*
X25700D01*
Y162150D01*
X25618D01*
Y162232D01*
X25700D01*
Y162313D01*
Y162395D01*
Y162477D01*
X25782D01*
Y162559D01*
X25700D01*
Y162641D01*
X25782D01*
Y162559D01*
X25864D01*
Y162641D01*
X25782D01*
Y162722D01*
Y162804D01*
Y162886D01*
X25700D01*
Y162968D01*
X25618D01*
Y163049D01*
X25700D01*
Y163131D01*
X25455D01*
Y163213D01*
X25373D01*
Y163295D01*
D02*
G37*
G36*
Y160187D02*
X25291D01*
Y160106D01*
X25373D01*
Y160187D01*
D02*
G37*
G36*
X23574Y160024D02*
X23492D01*
Y159942D01*
X23574D01*
Y160024D01*
D02*
G37*
G36*
X18504Y154954D02*
X18422D01*
Y154872D01*
X18504D01*
Y154954D01*
D02*
G37*
G36*
X18667Y154790D02*
X18586D01*
Y154708D01*
X18667D01*
Y154790D01*
D02*
G37*
G36*
X36495Y164440D02*
X36413D01*
Y164358D01*
X36495D01*
Y164440D01*
D02*
G37*
G36*
X34532Y163458D02*
X34450D01*
Y163377D01*
X34532D01*
Y163295D01*
X34450D01*
Y163377D01*
X34368D01*
Y163295D01*
X34287D01*
Y163377D01*
X34205D01*
Y163295D01*
X33960D01*
Y163213D01*
X33878D01*
Y163131D01*
X33796D01*
Y163213D01*
X33714D01*
Y163131D01*
X33632D01*
Y163049D01*
X33551D01*
Y163131D01*
X33469D01*
Y163049D01*
X33551D01*
Y162968D01*
X33305D01*
Y162886D01*
X33387D01*
Y162804D01*
X33142D01*
Y162722D01*
X33224D01*
Y162641D01*
X33142D01*
Y162559D01*
X33060D01*
Y162477D01*
X32978D01*
Y162395D01*
X33060D01*
Y162313D01*
X32978D01*
Y162232D01*
X32897D01*
Y162150D01*
X32815D01*
Y162068D01*
X32897D01*
Y161986D01*
X32815D01*
Y161905D01*
X32733D01*
Y161823D01*
X32651D01*
Y161741D01*
X32733D01*
Y161659D01*
X32651D01*
Y161577D01*
Y161496D01*
Y161414D01*
X32569D01*
Y161332D01*
Y161250D01*
Y161169D01*
X32488D01*
Y161087D01*
X32569D01*
Y161005D01*
X32488D01*
Y160923D01*
Y160842D01*
Y160760D01*
X32569D01*
Y160678D01*
X32488D01*
Y160760D01*
X32406D01*
Y160678D01*
X32488D01*
Y160596D01*
X32406D01*
Y160514D01*
X32488D01*
Y160433D01*
X32406D01*
Y160351D01*
X32488D01*
Y160269D01*
X32406D01*
Y160187D01*
X32488D01*
Y160106D01*
X32569D01*
Y160024D01*
X32488D01*
Y159942D01*
X32569D01*
Y159860D01*
X32488D01*
Y159778D01*
X32569D01*
Y159697D01*
X32651D01*
Y159615D01*
X32733D01*
Y159533D01*
X32815D01*
Y159451D01*
X32897D01*
Y159370D01*
X32978D01*
Y159288D01*
X33060D01*
Y159370D01*
X33142D01*
Y159288D01*
X33878D01*
Y159370D01*
X33960D01*
Y159288D01*
X34041D01*
Y159370D01*
X34123D01*
Y159451D01*
X34368D01*
Y159533D01*
X34450D01*
Y159451D01*
X34532D01*
Y159533D01*
X34450D01*
Y159615D01*
X34532D01*
Y159697D01*
X34614D01*
Y159615D01*
X34696D01*
Y159697D01*
X34614D01*
Y159778D01*
X34696D01*
Y159860D01*
X34777D01*
Y159778D01*
X34859D01*
Y159860D01*
X34777D01*
Y159942D01*
X34859D01*
Y160024D01*
X34941D01*
Y160106D01*
X35023D01*
Y160187D01*
Y160269D01*
X35104D01*
Y160351D01*
Y160433D01*
X35186D01*
Y160514D01*
X35268D01*
Y160596D01*
Y160678D01*
Y160760D01*
X35350D01*
Y160842D01*
Y160923D01*
Y161005D01*
X35432D01*
Y161087D01*
X35513D01*
Y161169D01*
X35432D01*
Y161250D01*
X35513D01*
Y161332D01*
X35432D01*
Y161414D01*
X35513D01*
Y161496D01*
Y161577D01*
Y161659D01*
X35432D01*
Y161741D01*
X35513D01*
Y161659D01*
X35595D01*
Y161741D01*
Y161823D01*
Y161905D01*
X35677D01*
Y161986D01*
X35595D01*
Y162068D01*
X35677D01*
Y162150D01*
X35595D01*
Y162232D01*
X35677D01*
Y162313D01*
X35595D01*
Y162395D01*
Y162477D01*
Y162559D01*
X35513D01*
Y162641D01*
X35432D01*
Y162722D01*
X35513D01*
Y162804D01*
X35432D01*
Y162886D01*
Y162968D01*
Y163049D01*
X35350D01*
Y163131D01*
X35268D01*
Y163213D01*
X35023D01*
Y163295D01*
X34777D01*
Y163377D01*
X34696D01*
Y163295D01*
X34614D01*
Y163377D01*
X34532D01*
Y163458D01*
D02*
G37*
G36*
X31097Y158715D02*
X31016D01*
Y158633D01*
X31097D01*
Y158715D01*
D02*
G37*
G36*
X31424Y158388D02*
X31343D01*
Y158306D01*
X31424D01*
Y158388D01*
D02*
G37*
G36*
X44836Y163295D02*
X44754D01*
Y163213D01*
X44836D01*
Y163295D01*
D02*
G37*
G36*
X42710Y159533D02*
X42628D01*
Y159451D01*
X42710D01*
Y159533D01*
D02*
G37*
G36*
X54158Y160514D02*
X54077D01*
Y160433D01*
X54158D01*
Y160514D01*
D02*
G37*
G36*
X53177Y158879D02*
X53095D01*
Y158797D01*
X53177D01*
Y158879D01*
D02*
G37*
G36*
X69941Y163213D02*
X69859D01*
Y163131D01*
X69941D01*
Y163213D01*
D02*
G37*
%LPD*%
D10*
X199435Y-15696D02*
G03*
X199435Y-15696I-492J0D01*
G01*
X91728Y73160D02*
G03*
X91728Y73160I-492J0D01*
G01*
X538059Y-252D02*
G03*
X538059Y-252I-492J0D01*
G01*
X549761Y-315D02*
G03*
X549761Y-315I-492J0D01*
G01*
X561463Y-315D02*
G03*
X561463Y-315I-492J0D01*
G01*
X573165Y-315D02*
G03*
X573165Y-315I-492J0D01*
G01*
X-593Y82725D02*
G03*
X-593Y82725I-492J0D01*
G01*
X196153Y233702D02*
G03*
X196153Y233702I-492J0D01*
G01*
X453161Y15018D02*
G03*
X453161Y15018I-492J0D01*
G01*
X151396Y80937D02*
G03*
X151396Y80937I-492J0D01*
G01*
X220001Y233559D02*
G03*
X220001Y233559I-492J0D01*
G01*
X526356Y-423D02*
G03*
X526356Y-423I-492J0D01*
G01*
X273522Y20953D02*
G03*
X273522Y20953I-492J0D01*
G01*
X592232Y298014D02*
G03*
X592232Y298014I-492J0D01*
G01*
X79991Y109774D02*
G03*
X79991Y109774I-492J0D01*
G01*
X61218Y79213D02*
G03*
X61218Y79213I-492J0D01*
G01*
X16429Y242520D02*
G03*
X16429Y242520I-492J0D01*
G01*
X641075Y23696D02*
G03*
X641075Y23696I-492J0D01*
G01*
X63768Y233658D02*
G03*
X63768Y233658I-492J0D01*
G01*
X282872Y157323D02*
G03*
X282872Y157323I-492J0D01*
G01*
X150693Y19224D02*
G03*
X150693Y19224I-492J0D01*
G01*
D11*
X118601Y114885D02*
G03*
X118995Y114885I197J0D01*
G01*
D02*
G03*
X118601Y114885I-197J0D01*
G01*
D02*
G03*
X118995Y114885I197J0D01*
G01*
X229187Y5033D02*
G03*
X229187Y5033I-394J0D01*
G01*
X259366Y19133D02*
G03*
X259366Y19133I-394J0D01*
G01*
X528039Y153850D02*
X531527D01*
X528039Y143220D02*
Y153850D01*
X528039Y67250D02*
Y78259D01*
Y67250D02*
X531133D01*
X659086D02*
X661039D01*
Y153850D01*
X635070D02*
X661039D01*
X192818Y95486D02*
X202315D01*
X192818Y102423D02*
X202315D01*
X193355Y112801D02*
X196504D01*
X193355Y118706D02*
X196504D01*
X197557Y124599D02*
X199132D01*
X197557Y127355D02*
X199132D01*
X192853Y103981D02*
X202349D01*
X192853Y110919D02*
X202349D01*
X162428Y30170D02*
Y34500D01*
Y-4673D02*
Y16390D01*
X201896Y-11563D02*
X204258D01*
X210459Y27611D02*
Y28398D01*
Y-4673D02*
Y19146D01*
X162428Y34500D02*
X204947D01*
X36996Y84717D02*
Y116115D01*
X62980Y96627D02*
Y116115D01*
X-5630Y73758D02*
Y76895D01*
X-13135Y73758D02*
Y76895D01*
X222107Y37127D02*
Y49725D01*
X232343Y37127D02*
Y49725D01*
X294364Y163008D02*
Y170929D01*
X287474Y163008D02*
Y170929D01*
X167223Y94609D02*
Y108979D01*
X137105Y94609D02*
X167223D01*
X126672Y107010D02*
X137105Y94609D01*
X126672Y107010D02*
Y108979D01*
X167223Y120790D02*
Y135160D01*
X137105D02*
X167223D01*
X126672Y122759D02*
X137105Y135160D01*
X126672Y120790D02*
Y122759D01*
X155042Y203005D02*
Y203793D01*
X150514Y203005D02*
Y203793D01*
X154177Y177297D02*
Y178084D01*
X149650Y177297D02*
Y178084D01*
X58652Y2729D02*
Y6296D01*
X52353Y2729D02*
Y6296D01*
X155960Y232754D02*
X162850D01*
X155981Y226049D02*
X162871D01*
X186618Y224925D02*
X193508D01*
X186597Y231630D02*
X193487D01*
X-3006Y74152D02*
Y74939D01*
X1128Y74152D02*
Y74939D01*
X87397Y60759D02*
Y64105D01*
X94877Y60759D02*
Y64105D01*
X108437Y90725D02*
Y92300D01*
X105681Y90725D02*
Y92300D01*
X142724Y78114D02*
Y79689D01*
X145480Y78114D02*
Y79689D01*
X259598Y190996D02*
X262157D01*
X259598D02*
Y202413D01*
X262157D01*
Y190996D02*
Y202413D01*
X263535Y190799D02*
X268062D01*
X31919Y44339D02*
Y46898D01*
X20502Y44339D02*
X31919D01*
X20502D02*
Y46898D01*
X31919D01*
X32116Y48276D02*
Y52804D01*
X6740Y44208D02*
Y46767D01*
X-4678Y44208D02*
X6740D01*
X-4678D02*
Y46767D01*
X6740D01*
X6936Y48145D02*
Y52673D01*
X-6793Y143453D02*
X34171D01*
X32380Y92075D02*
X34171D01*
X-6793D02*
X-5022D01*
X-6793D02*
Y143453D01*
X34171Y92075D02*
Y143453D01*
X196736Y60978D02*
X198310D01*
X196736Y58222D02*
X198310D01*
X99676Y47668D02*
Y77196D01*
X115916D02*
X117393D01*
X99676D02*
X101152D01*
X117393Y47668D02*
Y77196D01*
X115916Y47668D02*
X117393D01*
X99676D02*
X101152D01*
X108534Y80149D02*
Y84086D01*
X106566Y82117D02*
X110503D01*
X277748Y238249D02*
Y289154D01*
X154638D02*
X277748D01*
X154638Y238249D02*
Y289154D01*
Y238249D02*
X277748D01*
X450307Y2813D02*
Y19349D01*
X367827D02*
X450307D01*
X367827Y2813D02*
Y19349D01*
Y2813D02*
X450307D01*
X153660Y76213D02*
Y82807D01*
Y62728D02*
Y69323D01*
X173640Y62728D02*
X173739D01*
X159073D02*
X168325D01*
X153660D02*
X153759D01*
X173739Y76213D02*
Y82807D01*
Y62728D02*
Y69323D01*
X173640Y82807D02*
X173739D01*
X159073D02*
X168325D01*
X153660D02*
X153759D01*
X389073Y-14000D02*
Y-4000D01*
X429073D01*
X389073Y-14000D02*
X429073D01*
Y-4000D01*
X223504Y225055D02*
Y235055D01*
X283504Y225055D02*
Y235055D01*
X223504Y225055D02*
X283504D01*
X223504Y235055D02*
X283504D01*
X44243Y-17000D02*
Y-7000D01*
X84243D01*
X44243Y-17000D02*
X84243D01*
Y-7000D01*
X94069Y2786D02*
Y5935D01*
X88164Y2786D02*
Y5935D01*
X89542Y18964D02*
X92691D01*
X89542Y24869D02*
X92691D01*
X76653Y2524D02*
Y5673D01*
X70748Y2524D02*
Y5673D01*
X71931Y19116D02*
X75080D01*
X71931Y25022D02*
X75080D01*
X35037Y19219D02*
X38186D01*
X35037Y25124D02*
X38186D01*
X34767Y2995D02*
Y6145D01*
X40672Y2995D02*
Y6145D01*
X189255Y235609D02*
X190829D01*
X189255Y232853D02*
X190829D01*
X189255Y221194D02*
X190830D01*
X189255Y223950D02*
X190830D01*
X206280Y227063D02*
X208879D01*
X206280D02*
Y230272D01*
X215178Y227063D02*
X217777D01*
Y230272D01*
X565619Y19565D02*
Y50550D01*
X526604Y17774D02*
Y50550D01*
X608654Y43815D02*
X610229D01*
X608654Y46571D02*
X610229D01*
X608724Y51912D02*
X610298D01*
X608724Y49156D02*
X610298D01*
X612606Y40231D02*
X614181D01*
X612606Y37475D02*
X614181D01*
X225385Y173829D02*
Y183829D01*
X205385Y173829D02*
X225385D01*
X205385D02*
Y183829D01*
X225385D01*
X225340Y195223D02*
Y205223D01*
X205340Y195223D02*
X225340D01*
X205340D02*
Y205223D01*
X225340D01*
X260234Y9339D02*
Y15639D01*
X272045Y9339D02*
Y15639D01*
X260234Y9339D02*
X272045D01*
X260234Y15639D02*
X272045D01*
X268896Y30640D02*
Y34577D01*
X270077D01*
X275195D02*
Y38514D01*
X274014Y34577D02*
X275195D01*
X274014Y32608D02*
Y36545D01*
X270077Y32608D02*
Y36545D01*
X271258Y32608D02*
Y36545D01*
Y32608D02*
X272833D01*
Y36545D01*
X271258D02*
X272833D01*
X260628Y42451D02*
X283463D01*
Y26703D02*
Y42451D01*
X260628Y26703D02*
X283463D01*
X260628D02*
Y42451D01*
X509653Y242562D02*
Y293467D01*
Y242562D02*
X632763D01*
Y293467D01*
X509653D02*
X632763D01*
X9031Y70583D02*
X10803D01*
X9031Y65268D02*
X10803D01*
X5490Y82413D02*
X14151D01*
X5490Y73948D02*
X14151D01*
X93385Y87462D02*
Y96124D01*
X101850Y87462D02*
Y96124D01*
X78062Y121782D02*
Y130050D01*
Y121782D02*
X119007D01*
Y130050D01*
X72044Y76457D02*
X81001D01*
X40450D02*
X49407D01*
X40450Y35906D02*
Y76457D01*
X72044Y35906D02*
X81001D01*
X40450D02*
X49407D01*
X81001D02*
Y76457D01*
X126801Y82117D02*
X130738D01*
X128770Y80149D02*
Y84086D01*
X119911Y47668D02*
X121388D01*
X136151D02*
X137628D01*
Y77196D01*
X119911D02*
X121388D01*
X136151D02*
X137628D01*
X119911Y47668D02*
Y77196D01*
X652827Y167030D02*
Y169393D01*
X646134Y162155D02*
X647709D01*
X646134Y159399D02*
X647709D01*
X196517Y144036D02*
Y146398D01*
X188467Y144012D02*
X190042D01*
X188467Y146768D02*
X190042D01*
X9441Y253150D02*
Y255748D01*
X12650D01*
X9441Y244252D02*
Y246850D01*
Y244252D02*
X12650D01*
X22252Y238205D02*
X145362D01*
X22252D02*
Y289111D01*
X145362D01*
Y238205D02*
Y289111D01*
X592118Y174097D02*
X622118D01*
X592118Y164097D02*
Y174097D01*
Y164097D02*
X622118D01*
Y174097D01*
X588688Y-3707D02*
X608688D01*
Y6293D01*
X588688D02*
X608688D01*
X588688Y-3707D02*
Y6293D01*
X127701Y2213D02*
Y4896D01*
X152701Y2213D02*
Y4896D01*
X657342Y26398D02*
X686744D01*
X637342D02*
X644146D01*
X626744Y35451D02*
Y42255D01*
X657342Y51308D02*
X686744D01*
X637342D02*
X644146D01*
X686744Y26398D02*
Y51308D01*
X159032Y221516D02*
X160607D01*
X159032Y224272D02*
X160607D01*
X176892Y229049D02*
X178467D01*
X176892Y226293D02*
X178467D01*
X271061Y175138D02*
X276967D01*
X271061Y158799D02*
X276967D01*
X271061D02*
Y175138D01*
X276967Y158799D02*
Y175138D01*
X253092Y171997D02*
X254667D01*
X253092Y169241D02*
X254667D01*
X253092Y165394D02*
X254667D01*
X253092Y162638D02*
X254667D01*
X253092Y159201D02*
X254667D01*
X253092Y156445D02*
X254667D01*
X258069Y-8275D02*
X262400D01*
X265254D02*
X269585D01*
X272421D02*
X276752D01*
X280707Y18112D02*
Y22443D01*
X280707Y10669D02*
Y14999D01*
X281463Y7412D02*
X284613D01*
X281463Y1507D02*
X284613D01*
X236838Y46175D02*
Y47750D01*
X239594Y46175D02*
Y47750D01*
X217153Y46175D02*
Y47750D01*
X219909Y46175D02*
Y47750D01*
X193634Y82020D02*
X196784D01*
X193634Y76114D02*
X196784D01*
X193654Y66272D02*
X196804D01*
X193654Y72177D02*
X196804D01*
X52458Y25237D02*
X55607D01*
X52458Y19331D02*
X55607D01*
X285203Y52678D02*
X286778D01*
X285203Y49922D02*
X286778D01*
X247468Y46175D02*
Y47750D01*
X244712Y46175D02*
Y47750D01*
X234961Y155349D02*
Y156924D01*
X237717Y155349D02*
Y156924D01*
X257310Y46175D02*
Y47750D01*
X254554Y46175D02*
Y47750D01*
X305732Y109807D02*
X307307D01*
X305732Y107051D02*
X307307D01*
X305732Y137018D02*
X307307D01*
X305732Y134262D02*
X307307D01*
X257478Y150074D02*
X259053D01*
X257478Y152830D02*
X259053D01*
D12*
X-1872Y102705D02*
G03*
X-1872Y102705I-1181J0D01*
G01*
D13*
X601433Y37380D02*
G03*
X601433Y37962I74J291D01*
G01*
X169678Y188106D02*
X186378D01*
X169678Y208806D02*
X186378D01*
X169678Y158891D02*
X186378D01*
X169678Y179591D02*
X186378D01*
X292645Y137747D02*
Y141389D01*
X289002Y61689D02*
X292645D01*
X212945D02*
Y65331D01*
Y137747D02*
Y141389D01*
X289002D02*
X292645D01*
Y61689D02*
Y65331D01*
X212945Y61689D02*
X216586D01*
X212945Y141389D02*
X216586D01*
X586612Y48013D02*
X599423D01*
X586612Y35202D02*
X599423D01*
X144057Y27702D02*
Y34002D01*
X148358D02*
X149456D01*
X153757Y27702D02*
Y34002D01*
X37235Y152900D02*
Y155899D01*
X35736Y154400D01*
X37735D01*
X40734Y155899D02*
X38735D01*
Y154400D01*
X39734Y154900D01*
X40234D01*
X40734Y154400D01*
Y153400D01*
X40234Y152900D01*
X39235D01*
X38735Y153400D01*
X41734Y155400D02*
X42234Y155899D01*
X43233D01*
X43733Y155400D01*
Y153400D01*
X43233Y152900D01*
X42234D01*
X41734Y153400D01*
Y155400D01*
X44733D02*
X45233Y155899D01*
X46232D01*
X46732Y155400D01*
Y153400D01*
X46232Y152900D01*
X45233D01*
X44733Y153400D01*
Y155400D01*
X47732Y154400D02*
X49731D01*
X50731Y155899D02*
Y152900D01*
X51731Y153900D01*
X52730Y152900D01*
Y155899D01*
X53730D02*
Y152900D01*
X55229D01*
X55729Y153400D01*
Y153900D01*
X55229Y154400D01*
X53730D01*
X55229D01*
X55729Y154900D01*
Y155400D01*
X55229Y155899D01*
X53730D01*
X56729Y154400D02*
X58728D01*
X59728Y152900D02*
Y154900D01*
X60728Y155899D01*
X61727Y154900D01*
Y152900D01*
Y154400D01*
X59728D01*
X62727Y155899D02*
Y153900D01*
X63727Y152900D01*
X64726Y153900D01*
Y155899D01*
X65726Y154400D02*
X67725D01*
X70724Y155899D02*
X68725D01*
Y154400D01*
X69725D01*
X68725D01*
Y152900D01*
X73724Y155400D02*
X73224Y155899D01*
X72224D01*
X71724Y155400D01*
Y153400D01*
X72224Y152900D01*
X73224D01*
X73724Y153400D01*
X35736Y147862D02*
Y150861D01*
X37235D01*
X37735Y150361D01*
Y149361D01*
X37235Y148861D01*
X35736D01*
X36735D02*
X37735Y147862D01*
X40734Y150861D02*
X38735D01*
Y147862D01*
X40734D01*
X38735Y149361D02*
X39734D01*
X41734Y150861D02*
Y148861D01*
X42733Y147862D01*
X43733Y148861D01*
Y150861D01*
X44733Y147862D02*
Y148361D01*
X45233D01*
Y147862D01*
X44733D01*
X52230Y150361D02*
X51731Y150861D01*
X50731D01*
X50231Y150361D01*
Y148361D01*
X50731Y147862D01*
X51731D01*
X52230Y148361D01*
X37735Y145822D02*
X35736D01*
Y144322D01*
X36735D01*
X35736D01*
Y142823D01*
X40234D02*
X39235D01*
X38735Y143323D01*
Y144322D01*
X39235Y144822D01*
X40234D01*
X40734Y144322D01*
Y143822D01*
X38735D01*
X41734Y145822D02*
Y142823D01*
X43233D01*
X43733Y143323D01*
Y143822D01*
Y144322D01*
X43233Y144822D01*
X41734D01*
X44733D02*
Y142823D01*
Y143822D01*
X45233Y144322D01*
X45733Y144822D01*
X46232D01*
X47732D02*
Y143323D01*
X48232Y142823D01*
X49731D01*
Y144822D01*
X51231D02*
X52230D01*
X52730Y144322D01*
Y142823D01*
X51231D01*
X50731Y143323D01*
X51231Y143822D01*
X52730D01*
X53730Y144822D02*
Y142823D01*
Y143822D01*
X54230Y144322D01*
X54730Y144822D01*
X55229D01*
X56729D02*
Y143323D01*
X57229Y142823D01*
X58728D01*
Y142323D01*
X58228Y141823D01*
X57729D01*
X58728Y142823D02*
Y144822D01*
X64726Y142823D02*
X62727D01*
X64726Y144822D01*
Y145322D01*
X64227Y145822D01*
X63227D01*
X62727Y145322D01*
X65726D02*
X66226Y145822D01*
X67226D01*
X67725Y145322D01*
Y143323D01*
X67226Y142823D01*
X66226D01*
X65726Y143323D01*
Y145322D01*
X70724Y142823D02*
X68725D01*
X70724Y144822D01*
Y145322D01*
X70225Y145822D01*
X69225D01*
X68725Y145322D01*
X73724Y142823D02*
X71724D01*
X73724Y144822D01*
Y145322D01*
X73224Y145822D01*
X72224D01*
X71724Y145322D01*
X280081Y222073D02*
Y221073D01*
Y221573D01*
X277082D01*
Y222073D01*
Y221073D01*
X276582Y219574D02*
Y217575D01*
X277082Y216575D02*
X280081D01*
Y215075D01*
X279581Y214576D01*
X278582D01*
X278082Y215075D01*
Y216575D01*
X270439Y222320D02*
Y221320D01*
Y221820D01*
X267440D01*
Y222320D01*
Y221320D01*
X266940Y219821D02*
Y217821D01*
X267440Y216822D02*
X270439D01*
X267440Y214822D01*
X270439D01*
X259931Y220920D02*
X260431Y221420D01*
Y222420D01*
X259931Y222920D01*
X259431D01*
X258932Y222420D01*
Y221420D01*
X258432Y220920D01*
X257932D01*
X257432Y221420D01*
Y222420D01*
X257932Y222920D01*
X259931Y217921D02*
X260431Y218421D01*
Y219421D01*
X259931Y219921D01*
X257932D01*
X257432Y219421D01*
Y218421D01*
X257932Y217921D01*
X260431Y216922D02*
X257432D01*
X258432D01*
X260431Y214922D01*
X258932Y216422D01*
X257432Y214922D01*
X247255Y222920D02*
X250254D01*
X249254Y221920D01*
X250254Y220920D01*
X247255D01*
X250254Y218421D02*
Y219421D01*
X249754Y219921D01*
X247755D01*
X247255Y219421D01*
Y218421D01*
X247755Y217921D01*
X249754D01*
X250254Y218421D01*
X249754Y214922D02*
X250254Y215422D01*
Y216422D01*
X249754Y216922D01*
X249254D01*
X248754Y216422D01*
Y215422D01*
X248254Y214922D01*
X247755D01*
X247255Y215422D01*
Y216422D01*
X247755Y216922D01*
X250254Y213923D02*
Y212923D01*
Y213423D01*
X247255D01*
Y213923D01*
Y212923D01*
X236662Y222920D02*
X239661D01*
X238661Y221920D01*
X239661Y220920D01*
X236662D01*
X239661Y219921D02*
Y218921D01*
Y219421D01*
X236662D01*
Y219921D01*
Y218921D01*
X239161Y215422D02*
X239661Y215922D01*
Y216922D01*
X239161Y217422D01*
X238661D01*
X238162Y216922D01*
Y215922D01*
X237662Y215422D01*
X237162D01*
X236662Y215922D01*
Y216922D01*
X237162Y217422D01*
X239661Y212923D02*
Y213923D01*
X239161Y214422D01*
X237162D01*
X236662Y213923D01*
Y212923D01*
X237162Y212423D01*
X239161D01*
X239661Y212923D01*
X229319Y220920D02*
X229819Y221420D01*
Y222420D01*
X229319Y222920D01*
X227320D01*
X226820Y222420D01*
Y221420D01*
X227320Y220920D01*
X229319Y217921D02*
X229819Y218421D01*
Y219421D01*
X229319Y219921D01*
X228819D01*
X228319Y219421D01*
Y218421D01*
X227819Y217921D01*
X227320D01*
X226820Y218421D01*
Y219421D01*
X227320Y219921D01*
X207719Y171693D02*
X209718D01*
X208718D01*
Y168694D01*
X210718Y171693D02*
X212717Y168694D01*
Y171693D02*
X210718Y168694D01*
X218396D02*
Y171693D01*
X219896D01*
X220396Y171194D01*
Y170194D01*
X219896Y169694D01*
X218396D01*
X219396D02*
X220396Y168694D01*
X221395Y171693D02*
X223395Y168694D01*
Y171693D02*
X221395Y168694D01*
X601542Y-4614D02*
X603541D01*
X602541D01*
Y-7613D01*
X604541Y-4614D02*
X606540Y-7613D01*
Y-4614D02*
X604541Y-7613D01*
X591353D02*
Y-4614D01*
X592853D01*
X593353Y-5114D01*
Y-6114D01*
X592853Y-6614D01*
X591353D01*
X592353D02*
X593353Y-7613D01*
X594352Y-4614D02*
X596352Y-7613D01*
Y-4614D02*
X594352Y-7613D01*
X218331Y190459D02*
Y193458D01*
X219830D01*
X220330Y192958D01*
Y191958D01*
X219830Y191458D01*
X218331D01*
X219330D02*
X220330Y190459D01*
X221330Y193458D02*
X223329Y190459D01*
Y193458D02*
X221330Y190459D01*
X207495Y193458D02*
X209494D01*
X208495D01*
Y190459D01*
X210494Y193458D02*
X212493Y190459D01*
Y193458D02*
X210494Y190459D01*
D14*
X52353Y-6708D02*
X58652D01*
D15*
X510401Y178029D02*
X664496D01*
X510401D02*
Y228029D01*
X664496D01*
Y178029D02*
Y228029D01*
X142182Y174319D02*
Y224319D01*
X-11913D02*
X142182D01*
X-11913Y174319D02*
Y224319D01*
Y174319D02*
X142182D01*
D16*
X251627Y-14258D02*
Y-13077D01*
X221706Y-14258D02*
Y-13077D01*
X251627Y-4416D02*
Y-2841D01*
X221706Y-4416D02*
Y-2841D01*
Y-14455D02*
X251627D01*
X241137Y24448D02*
X250429D01*
X241137Y13818D02*
X250429D01*
X394421Y-17500D02*
Y-15001D01*
X395671D01*
X396088Y-15417D01*
Y-16250D01*
X395671Y-16667D01*
X394421D01*
X396921Y-15001D02*
Y-16667D01*
X397754Y-17500D01*
X398587Y-16667D01*
Y-15001D01*
X401919Y-17500D02*
Y-15001D01*
X403169D01*
X403585Y-15417D01*
Y-16250D01*
X403169Y-16667D01*
X401919D01*
X402752D02*
X403585Y-17500D01*
X404418Y-15001D02*
X406084Y-17500D01*
Y-15001D02*
X404418Y-17500D01*
X409416Y-15001D02*
X411083D01*
X410250D01*
Y-17500D01*
X411916Y-15001D02*
X413582Y-17500D01*
Y-15001D02*
X411916Y-17500D01*
X416914D02*
Y-15001D01*
X418164D01*
X418580Y-15417D01*
Y-16250D01*
X418164Y-16667D01*
X416914D01*
X417747D02*
X418580Y-17500D01*
X421079Y-15417D02*
X420663Y-15001D01*
X419830D01*
X419413Y-15417D01*
Y-15834D01*
X419830Y-16250D01*
X420663D01*
X421079Y-16667D01*
Y-17084D01*
X420663Y-17500D01*
X419830D01*
X419413Y-17084D01*
X421912Y-15001D02*
X423579D01*
X422746D01*
Y-17500D01*
X394065Y85809D02*
Y82810D01*
X395564D01*
X396064Y83310D01*
Y85309D01*
X395564Y85809D01*
X394065D01*
X397564Y84809D02*
X398563D01*
X399063Y84309D01*
Y82810D01*
X397564D01*
X397064Y83310D01*
X397564Y83809D01*
X399063D01*
X400063Y84809D02*
X401062Y82810D01*
X402062Y84809D01*
X403062Y82810D02*
X404061D01*
X403561D01*
Y84809D01*
X403062D01*
X405561Y82810D02*
Y84809D01*
X407060D01*
X407560Y84309D01*
Y82810D01*
X411559Y85809D02*
Y82810D01*
X413058D01*
X413558Y83310D01*
Y83809D01*
X413058Y84309D01*
X411559D01*
X413058D01*
X413558Y84809D01*
Y85309D01*
X413058Y85809D01*
X411559D01*
X414558Y82810D02*
X415558D01*
X415058D01*
Y84809D01*
X414558D01*
X417057D02*
Y82810D01*
Y83809D01*
X417557Y84309D01*
X418057Y84809D01*
X418557D01*
X422055Y85809D02*
Y82810D01*
X420556D01*
X420056Y83310D01*
Y84309D01*
X420556Y84809D01*
X422055D01*
X423055Y82810D02*
X424055D01*
X423555D01*
Y84809D01*
X423055D01*
X387317Y78011D02*
Y81010D01*
X388816D01*
X389316Y80510D01*
Y79510D01*
X388816Y79011D01*
X387317D01*
X390816Y80010D02*
X391815D01*
X392315Y79510D01*
Y78011D01*
X390816D01*
X390316Y78511D01*
X390816Y79011D01*
X392315D01*
X393315Y81010D02*
Y78011D01*
X394814D01*
X395314Y78511D01*
Y79011D01*
Y79510D01*
X394814Y80010D01*
X393315D01*
X396314Y78011D02*
X397313D01*
X396814D01*
Y81010D01*
X396314D01*
X399313Y78011D02*
X400313D01*
X400812Y78511D01*
Y79510D01*
X400313Y80010D01*
X399313D01*
X398813Y79510D01*
Y78511D01*
X399313Y78011D01*
X406811Y81010D02*
X404811D01*
Y79510D01*
X405811D01*
X404811D01*
Y78011D01*
X409310D02*
X408310D01*
X407810Y78511D01*
Y79510D01*
X408310Y80010D01*
X409310D01*
X409809Y79510D01*
Y79011D01*
X407810D01*
X410809Y80010D02*
Y78011D01*
Y79011D01*
X411309Y79510D01*
X411809Y80010D01*
X412309D01*
X413808Y78011D02*
Y80010D01*
X415308D01*
X415808Y79510D01*
Y78011D01*
X417307Y80010D02*
X418307D01*
X418807Y79510D01*
Y78011D01*
X417307D01*
X416807Y78511D01*
X417307Y79011D01*
X418807D01*
X419806Y78011D02*
Y80010D01*
X421306D01*
X421806Y79510D01*
Y78011D01*
X424805Y81010D02*
Y78011D01*
X423305D01*
X422805Y78511D01*
Y79510D01*
X423305Y80010D01*
X424805D01*
X427304Y78011D02*
X426304D01*
X425804Y78511D01*
Y79510D01*
X426304Y80010D01*
X427304D01*
X427804Y79510D01*
Y79011D01*
X425804D01*
X428803Y80010D02*
X430803D01*
X428803Y78011D01*
X430803D01*
X390566Y75711D02*
X390066Y76211D01*
X389066D01*
X388566Y75711D01*
Y73712D01*
X389066Y73212D01*
X390066D01*
X390566Y73712D01*
X392065Y73212D02*
X393065D01*
X393565Y73712D01*
Y74712D01*
X393065Y75211D01*
X392065D01*
X391565Y74712D01*
Y73712D01*
X392065Y73212D01*
X394564D02*
Y75211D01*
X396064D01*
X396564Y74712D01*
Y73212D01*
X397564D02*
Y75211D01*
X399063D01*
X399563Y74712D01*
Y73212D01*
X402062D02*
X401062D01*
X400562Y73712D01*
Y74712D01*
X401062Y75211D01*
X402062D01*
X402562Y74712D01*
Y74212D01*
X400562D01*
X403561Y75211D02*
Y73212D01*
Y74212D01*
X404061Y74712D01*
X404561Y75211D01*
X405061D01*
X411559Y76211D02*
X409560D01*
Y74712D01*
X410559D01*
X409560D01*
Y73212D01*
X412559Y75211D02*
Y73212D01*
Y74212D01*
X413058Y74712D01*
X413558Y75211D01*
X414058D01*
X416057D02*
X417057D01*
X417557Y74712D01*
Y73212D01*
X416057D01*
X415558Y73712D01*
X416057Y74212D01*
X417557D01*
X418557Y73212D02*
Y75211D01*
X420056D01*
X420556Y74712D01*
Y73212D01*
X421556D02*
X423055D01*
X423555Y73712D01*
X423055Y74212D01*
X422055D01*
X421556Y74712D01*
X422055Y75211D01*
X423555D01*
X425055Y73212D02*
X426054D01*
X426554Y73712D01*
Y74712D01*
X426054Y75211D01*
X425055D01*
X424555Y74712D01*
Y73712D01*
X425055Y73212D01*
X428054D02*
X429053D01*
X429553Y73712D01*
Y74712D01*
X429053Y75211D01*
X428054D01*
X427554Y74712D01*
Y73712D01*
X428054Y73212D01*
X391815Y71412D02*
X393815D01*
Y70912D01*
X391815Y68913D01*
Y68413D01*
X393815D01*
X396314D02*
X395314D01*
X394814Y68913D01*
Y69913D01*
X395314Y70413D01*
X396314D01*
X396814Y69913D01*
Y69413D01*
X394814D01*
X397813Y67414D02*
Y70413D01*
X399313D01*
X399813Y69913D01*
Y68913D01*
X399313Y68413D01*
X397813D01*
X400812Y71412D02*
Y68413D01*
Y69913D01*
X401312Y70413D01*
X402312D01*
X402812Y69913D01*
Y68413D01*
X404311Y70413D02*
X405311D01*
X405811Y69913D01*
Y68413D01*
X404311D01*
X403811Y68913D01*
X404311Y69413D01*
X405811D01*
X406811Y68413D02*
Y70413D01*
X408310D01*
X408810Y69913D01*
Y68413D01*
X409809D02*
X410809D01*
X410309D01*
Y70413D01*
X409809D01*
X412809D02*
X413808D01*
X414308Y69913D01*
Y68413D01*
X412809D01*
X412309Y68913D01*
X412809Y69413D01*
X414308D01*
X415308Y71412D02*
Y68413D01*
Y69913D01*
X415808Y70413D01*
X416807D01*
X417307Y69913D01*
Y68413D01*
X421306Y71412D02*
Y68413D01*
Y69413D01*
X423305Y71412D01*
X421806Y69913D01*
X423305Y68413D01*
X424805D02*
X425804D01*
X426304Y68913D01*
Y69913D01*
X425804Y70413D01*
X424805D01*
X424305Y69913D01*
Y68913D01*
X424805Y68413D01*
X387067Y65614D02*
X389066Y62615D01*
Y65614D02*
X387067Y62615D01*
X390566Y64614D02*
X391565D01*
X392065Y64114D01*
Y62615D01*
X390566D01*
X390066Y63115D01*
X390566Y63614D01*
X392065D01*
X393065Y62615D02*
Y64614D01*
X394564D01*
X395064Y64114D01*
Y62615D01*
X398063Y65614D02*
Y62615D01*
X396564D01*
X396064Y63115D01*
Y64114D01*
X396564Y64614D01*
X398063D01*
X400562Y62615D02*
X399563D01*
X399063Y63115D01*
Y64114D01*
X399563Y64614D01*
X400562D01*
X401062Y64114D01*
Y63614D01*
X399063D01*
X402062Y64614D02*
Y62615D01*
Y63614D01*
X402562Y64114D01*
X403062Y64614D01*
X403561D01*
X408060Y62615D02*
Y65614D01*
X410059Y62615D01*
Y65614D01*
X411559Y64614D02*
X412559D01*
X413058Y64114D01*
Y62615D01*
X411559D01*
X411059Y63115D01*
X411559Y63614D01*
X413058D01*
X414058Y64614D02*
Y63115D01*
X414558Y62615D01*
X416057D01*
Y64614D01*
X417057Y62615D02*
Y64614D01*
X417557D01*
X418057Y64114D01*
Y62615D01*
Y64114D01*
X418557Y64614D01*
X419057Y64114D01*
Y62615D01*
X421556D02*
X420556D01*
X420056Y63115D01*
Y64114D01*
X420556Y64614D01*
X421556D01*
X422055Y64114D01*
Y63614D01*
X420056D01*
X423055Y62615D02*
Y64614D01*
X424555D01*
X425055Y64114D01*
Y62615D01*
X426054D02*
Y65614D01*
Y63614D02*
X427554Y64614D01*
X426054Y63614D02*
X427554Y62615D01*
X429553D02*
X430553D01*
X431053Y63115D01*
Y64114D01*
X430553Y64614D01*
X429553D01*
X429053Y64114D01*
Y63115D01*
X429553Y62615D01*
X395564Y60815D02*
X393565D01*
Y57816D01*
X395564D01*
X393565Y59315D02*
X394564D01*
X396564Y59815D02*
Y57816D01*
Y58815D01*
X397064Y59315D01*
X397564Y59815D01*
X398063D01*
X399563Y57816D02*
X400562D01*
X400063D01*
Y59815D01*
X399563D01*
X404061D02*
X402562D01*
X402062Y59315D01*
Y58316D01*
X402562Y57816D01*
X404061D01*
X410059Y60315D02*
X409560Y60815D01*
X408560D01*
X408060Y60315D01*
Y59815D01*
X408560Y59315D01*
X409560D01*
X410059Y58815D01*
Y58316D01*
X409560Y57816D01*
X408560D01*
X408060Y58316D01*
X411559Y57816D02*
X412559D01*
X413058Y58316D01*
Y59315D01*
X412559Y59815D01*
X411559D01*
X411059Y59315D01*
Y58316D01*
X411559Y57816D01*
X414058Y59815D02*
Y58316D01*
X414558Y57816D01*
X416057D01*
Y59815D01*
X419057Y60815D02*
Y57816D01*
X417557D01*
X417057Y58316D01*
Y59315D01*
X417557Y59815D01*
X419057D01*
X421556Y57816D02*
X420556D01*
X420056Y58316D01*
Y59315D01*
X420556Y59815D01*
X421556D01*
X422055Y59315D01*
Y58815D01*
X420056D01*
X423055Y59815D02*
Y57816D01*
Y58815D01*
X423555Y59315D01*
X424055Y59815D01*
X424555D01*
X383568Y53017D02*
Y56016D01*
X385068D01*
X385567Y55516D01*
Y54517D01*
X385068Y54017D01*
X383568D01*
X384568D02*
X385567Y53017D01*
X387067Y55016D02*
X388067D01*
X388566Y54517D01*
Y53017D01*
X387067D01*
X386567Y53517D01*
X387067Y54017D01*
X388566D01*
X391565Y55016D02*
X390066D01*
X389566Y54517D01*
Y53517D01*
X390066Y53017D01*
X391565D01*
X392565Y56016D02*
Y53017D01*
Y54517D01*
X393065Y55016D01*
X394065D01*
X394564Y54517D01*
Y53017D01*
X397064D02*
X396064D01*
X395564Y53517D01*
Y54517D01*
X396064Y55016D01*
X397064D01*
X397564Y54517D01*
Y54017D01*
X395564D01*
X398563Y53017D02*
X399563D01*
X399063D01*
Y56016D01*
X398563D01*
X401062Y53017D02*
X402062D01*
X401562D01*
Y56016D01*
X401062D01*
X405061Y53017D02*
X404061D01*
X403561Y53517D01*
Y54517D01*
X404061Y55016D01*
X405061D01*
X405561Y54517D01*
Y54017D01*
X403561D01*
X409560Y56016D02*
Y54017D01*
X410559Y53017D01*
X411559Y54017D01*
Y56016D01*
X413058Y55016D02*
X414058D01*
X414558Y54517D01*
Y53017D01*
X413058D01*
X412559Y53517D01*
X413058Y54017D01*
X414558D01*
X415558Y53017D02*
Y55016D01*
X417057D01*
X417557Y54517D01*
Y53017D01*
X421556D02*
Y56016D01*
X423055D01*
X423555Y55516D01*
Y54517D01*
X423055Y54017D01*
X421556D01*
X422555D02*
X423555Y53017D01*
X424555Y55016D02*
Y53517D01*
X425055Y53017D01*
X426554D01*
Y55016D01*
X427554Y53017D02*
Y55016D01*
X428054D01*
X428553Y54517D01*
Y53017D01*
Y54517D01*
X429053Y55016D01*
X429553Y54517D01*
Y53017D01*
X430553Y52017D02*
Y55016D01*
X432052D01*
X432552Y54517D01*
Y53517D01*
X432052Y53017D01*
X430553D01*
X434052Y55516D02*
Y55016D01*
X433552D01*
X434551D01*
X434052D01*
Y53517D01*
X434551Y53017D01*
X392065Y50217D02*
Y47218D01*
Y48218D01*
X394065Y50217D01*
X392565Y48718D01*
X394065Y47218D01*
X396564D02*
X395564D01*
X395064Y47718D01*
Y48718D01*
X395564Y49218D01*
X396564D01*
X397064Y48718D01*
Y48218D01*
X395064D01*
X398063Y47218D02*
Y49218D01*
X399563D01*
X400063Y48718D01*
Y47218D01*
X401062D02*
Y49218D01*
X402562D01*
X403062Y48718D01*
Y47218D01*
X405561D02*
X404561D01*
X404061Y47718D01*
Y48718D01*
X404561Y49218D01*
X405561D01*
X406061Y48718D01*
Y48218D01*
X404061D01*
X407560Y49718D02*
Y49218D01*
X407060D01*
X408060D01*
X407560D01*
Y47718D01*
X408060Y47218D01*
X409560Y50217D02*
Y47218D01*
Y48718D01*
X410059Y49218D01*
X411059D01*
X411559Y48718D01*
Y47218D01*
X415558Y50217D02*
X417557Y47218D01*
Y50217D02*
X415558Y47218D01*
X418557D02*
X419556D01*
X419057D01*
Y49218D01*
X418557D01*
X421056Y47218D02*
Y49218D01*
X422555D01*
X423055Y48718D01*
Y47218D01*
X425055Y46219D02*
X425554D01*
X426054Y46719D01*
Y49218D01*
X424555D01*
X424055Y48718D01*
Y47718D01*
X424555Y47218D01*
X426054D01*
X382917Y-10250D02*
Y-7750D01*
X384167D01*
X384583Y-8167D01*
Y-9000D01*
X384167Y-9416D01*
X382917D01*
X385417Y-8167D02*
X385833Y-7750D01*
X386666D01*
X387083Y-8167D01*
Y-8584D01*
X386666Y-9000D01*
X386250D01*
X386666D01*
X387083Y-9416D01*
Y-9833D01*
X386666Y-10250D01*
X385833D01*
X385417Y-9833D01*
X526474Y160187D02*
X524808D01*
Y157687D01*
X526474D01*
X524808Y158937D02*
X525640D01*
X527307Y159770D02*
X528973Y158104D01*
X527307D02*
X528973Y159770D01*
X527307Y158937D02*
X528973D01*
X528140Y158104D02*
Y159770D01*
X529806Y157687D02*
X530639D01*
X530222D01*
Y160187D01*
X529806Y159770D01*
X568247Y167545D02*
X569913D01*
X569080D01*
Y165045D01*
X570747Y167545D02*
X572413Y165045D01*
Y167545D02*
X570747Y165045D01*
X575745D02*
Y167545D01*
X576995D01*
X577411Y167128D01*
Y166295D01*
X576995Y165878D01*
X575745D01*
X576578D02*
X577411Y165045D01*
X578244Y167545D02*
X579910Y165045D01*
Y167545D02*
X578244Y165045D01*
X584909Y167128D02*
X584492Y167545D01*
X583659D01*
X583243Y167128D01*
Y165462D01*
X583659Y165045D01*
X584492D01*
X584909Y165462D01*
Y166295D01*
X584076D01*
X585742Y165045D02*
Y167545D01*
X587408Y165045D01*
Y167545D01*
X588241D02*
Y165045D01*
X589491D01*
X589907Y165462D01*
Y167128D01*
X589491Y167545D01*
X588241D01*
X198241Y173822D02*
X196159D01*
X195742Y173406D01*
Y172573D01*
X196159Y172156D01*
X198241D01*
Y169657D02*
X197825Y170490D01*
X196992Y171323D01*
X196159D01*
X195742Y170907D01*
Y170074D01*
X196159Y169657D01*
X196575D01*
X196992Y170074D01*
Y171323D01*
X195326Y168824D02*
Y167158D01*
X198241Y166325D02*
X195742D01*
Y165075D01*
X196159Y164659D01*
X196575D01*
X196992Y165075D01*
Y166325D01*
Y165075D01*
X197408Y164659D01*
X197825D01*
X198241Y165075D01*
Y166325D01*
X198422Y202981D02*
X196340D01*
X195923Y202564D01*
Y201731D01*
X196340Y201315D01*
X198422D01*
Y198816D02*
X198006Y199649D01*
X197173Y200482D01*
X196340D01*
X195923Y200065D01*
Y199232D01*
X196340Y198816D01*
X196756D01*
X197173Y199232D01*
Y200482D01*
X195507Y197983D02*
Y196316D01*
X195923Y195483D02*
X197589D01*
X198422Y194650D01*
X197589Y193817D01*
X195923D01*
X197173D01*
Y195483D01*
X148992Y185620D02*
Y188119D01*
X150241D01*
X150658Y187702D01*
Y186869D01*
X150241Y186453D01*
X148992D01*
X149825D02*
X150658Y185620D01*
X152740D02*
Y188119D01*
X151491Y186869D01*
X153157D01*
X155656Y188119D02*
X153990D01*
Y186869D01*
X154823Y187286D01*
X155240D01*
X155656Y186869D01*
Y186036D01*
X155240Y185620D01*
X154406D01*
X153990Y186036D01*
X149792Y211320D02*
Y213819D01*
X151041D01*
X151458Y213402D01*
Y212569D01*
X151041Y212153D01*
X149792D01*
X150625D02*
X151458Y211320D01*
X153540D02*
Y213819D01*
X152291Y212569D01*
X153957D01*
X156040Y211320D02*
Y213819D01*
X154790Y212569D01*
X156456D01*
X19006Y34126D02*
X18589Y34543D01*
X17756D01*
X17339Y34126D01*
Y32460D01*
X17756Y32043D01*
X18589D01*
X19006Y32460D01*
X21505Y32043D02*
X19839D01*
X21505Y33709D01*
Y34126D01*
X21088Y34543D01*
X20255D01*
X19839Y34126D01*
X24004Y34543D02*
X22338D01*
Y33293D01*
X23171Y33709D01*
X23587D01*
X24004Y33293D01*
Y32460D01*
X23587Y32043D01*
X22754D01*
X22338Y32460D01*
X13981Y44189D02*
X13565Y44605D01*
X12732D01*
X12315Y44189D01*
Y42523D01*
X12732Y42106D01*
X13565D01*
X13981Y42523D01*
X16481Y42106D02*
X14815D01*
X16481Y43772D01*
Y44189D01*
X16064Y44605D01*
X15231D01*
X14815Y44189D01*
X18563Y42106D02*
Y44605D01*
X17314Y43356D01*
X18980D01*
X-6542Y34104D02*
X-6959Y34521D01*
X-7792D01*
X-8208Y34104D01*
Y32438D01*
X-7792Y32022D01*
X-6959D01*
X-6542Y32438D01*
X-4043Y32022D02*
X-5709D01*
X-4043Y33688D01*
Y34104D01*
X-4460Y34521D01*
X-5293D01*
X-5709Y34104D01*
X-3210D02*
X-2794Y34521D01*
X-1960D01*
X-1544Y34104D01*
Y33688D01*
X-1960Y33271D01*
X-2377D01*
X-1960D01*
X-1544Y32855D01*
Y32438D01*
X-1960Y32022D01*
X-2794D01*
X-3210Y32438D01*
X9639Y54490D02*
X9222Y54906D01*
X8389D01*
X7973Y54490D01*
Y52824D01*
X8389Y52407D01*
X9222D01*
X9639Y52824D01*
X12138Y52407D02*
X10472D01*
X12138Y54074D01*
Y54490D01*
X11722Y54906D01*
X10888D01*
X10472Y54490D01*
X14637Y52407D02*
X12971D01*
X14637Y54074D01*
Y54490D01*
X14221Y54906D01*
X13388D01*
X12971Y54490D01*
X38367Y-13250D02*
Y-10750D01*
X39617D01*
X40033Y-11167D01*
Y-12000D01*
X39617Y-12416D01*
X38367D01*
X42533Y-13250D02*
X40866D01*
X42533Y-11584D01*
Y-11167D01*
X42116Y-10750D01*
X41283D01*
X40866Y-11167D01*
X279672Y236606D02*
Y239105D01*
X280921D01*
X281338Y238688D01*
Y237855D01*
X280921Y237439D01*
X279672D01*
X282171Y236606D02*
X283004D01*
X282587D01*
Y239105D01*
X282171Y238688D01*
X-11126Y229250D02*
X-11959D01*
X-11543D01*
Y227167D01*
X-11959Y226750D01*
X-12376D01*
X-12792Y227167D01*
X-10293D02*
X-9877Y226750D01*
X-9043D01*
X-8627Y227167D01*
Y228833D01*
X-9043Y229250D01*
X-9877D01*
X-10293Y228833D01*
Y228416D01*
X-9877Y228000D01*
X-8627D01*
X149583Y288250D02*
X148750D01*
X149167D01*
Y286167D01*
X148750Y285750D01*
X148334D01*
X147917Y286167D01*
X152083Y288250D02*
X151250Y287833D01*
X150417Y287000D01*
Y286167D01*
X150833Y285750D01*
X151666D01*
X152083Y286167D01*
Y286583D01*
X151666Y287000D01*
X150417D01*
X198459Y221170D02*
Y223669D01*
X199708D01*
X200125Y223252D01*
Y222419D01*
X199708Y222003D01*
X198459D01*
X199292D02*
X200125Y221170D01*
X200958D02*
X201791D01*
X201374D01*
Y223669D01*
X200958Y223252D01*
X203040Y221170D02*
X203873D01*
X203457D01*
Y223669D01*
X203040Y223252D01*
X198042Y232542D02*
Y235041D01*
X199292D01*
X199708Y234625D01*
Y233792D01*
X199292Y233375D01*
X198042D01*
X198875D02*
X199708Y232542D01*
X200541D02*
X201374D01*
X200958D01*
Y235041D01*
X200541Y234625D01*
X202624D02*
X203040Y235041D01*
X203873D01*
X204290Y234625D01*
Y232959D01*
X203873Y232542D01*
X203040D01*
X202624Y232959D01*
Y234625D01*
X199916Y229117D02*
X199500Y229533D01*
X198667D01*
X198250Y229117D01*
Y227451D01*
X198667Y227034D01*
X199500D01*
X199916Y227451D01*
X202416Y227034D02*
X200749D01*
X202416Y228700D01*
Y229117D01*
X201999Y229533D01*
X201166D01*
X200749Y229117D01*
X203249Y227034D02*
X204082D01*
X203665D01*
Y229533D01*
X203249Y229117D01*
X85157Y174576D02*
Y172493D01*
X85573Y172077D01*
X86406D01*
X86823Y172493D01*
Y174576D01*
X87656Y172077D02*
X88489D01*
X88073D01*
Y174576D01*
X87656Y174159D01*
X91405Y174576D02*
X89739D01*
Y173326D01*
X90572Y173743D01*
X90988D01*
X91405Y173326D01*
Y172493D01*
X90988Y172077D01*
X90155D01*
X89739Y172493D01*
X104709Y98228D02*
Y100727D01*
X105958D01*
X106375Y100310D01*
Y99477D01*
X105958Y99061D01*
X104709D01*
X105542D02*
X106375Y98228D01*
X107208Y98644D02*
X107625Y98228D01*
X108458D01*
X108874Y98644D01*
Y100310D01*
X108458Y100727D01*
X107625D01*
X107208Y100310D01*
Y99894D01*
X107625Y99477D01*
X108874D01*
X49611Y82267D02*
Y79768D01*
X51277D01*
X52110D02*
X52943D01*
X52526D01*
Y82267D01*
X52110Y81851D01*
X93475Y41748D02*
Y44247D01*
X92225D01*
X91808Y43831D01*
Y42164D01*
X92225Y41748D01*
X93475D01*
X90975Y42164D02*
X90559Y41748D01*
X89726D01*
X89309Y42164D01*
Y42581D01*
X89726Y42998D01*
X90142D01*
X89726D01*
X89309Y43414D01*
Y43831D01*
X89726Y44247D01*
X90559D01*
X90975Y43831D01*
X96159Y100310D02*
X95743Y100727D01*
X94910D01*
X94493Y100310D01*
Y98644D01*
X94910Y98228D01*
X95743D01*
X96159Y98644D01*
X96993Y98228D02*
X97826D01*
X97409D01*
Y100727D01*
X96993Y100310D01*
X100741Y100727D02*
X99075D01*
Y99477D01*
X99908Y99894D01*
X100325D01*
X100741Y99477D01*
Y98644D01*
X100325Y98228D01*
X99492D01*
X99075Y98644D01*
X121277Y82659D02*
X120861Y83076D01*
X120028D01*
X119611Y82659D01*
Y80993D01*
X120028Y80576D01*
X120861D01*
X121277Y80993D01*
X122110Y80576D02*
X122943D01*
X122527D01*
Y83076D01*
X122110Y82659D01*
X124193Y83076D02*
X125859D01*
Y82659D01*
X124193Y80993D01*
Y80576D01*
X80277Y94815D02*
X79861Y95232D01*
X79027D01*
X78611Y94815D01*
Y93149D01*
X79027Y92733D01*
X79861D01*
X80277Y93149D01*
X81110Y92733D02*
X81943D01*
X81527D01*
Y95232D01*
X81110Y94815D01*
X83193D02*
X83609Y95232D01*
X84443D01*
X84859Y94815D01*
Y94399D01*
X84443Y93982D01*
X84859Y93566D01*
Y93149D01*
X84443Y92733D01*
X83609D01*
X83193Y93149D01*
Y93566D01*
X83609Y93982D01*
X83193Y94399D01*
Y94815D01*
X83609Y93982D02*
X84443D01*
X100115Y82700D02*
X99699Y83116D01*
X98866D01*
X98449Y82700D01*
Y81033D01*
X98866Y80617D01*
X99699D01*
X100115Y81033D01*
X100948Y80617D02*
X101781D01*
X101365D01*
Y83116D01*
X100948Y82700D01*
X104697Y83116D02*
X103864Y82700D01*
X103031Y81866D01*
Y81033D01*
X103448Y80617D01*
X104281D01*
X104697Y81033D01*
Y81450D01*
X104281Y81866D01*
X103031D01*
X113368Y100310D02*
X112952Y100727D01*
X112119D01*
X111702Y100310D01*
Y98644D01*
X112119Y98228D01*
X112952D01*
X113368Y98644D01*
X114201Y98228D02*
X115034D01*
X114618D01*
Y100727D01*
X114201Y100310D01*
X116284Y98644D02*
X116700Y98228D01*
X117534D01*
X117950Y98644D01*
Y100310D01*
X117534Y100727D01*
X116700D01*
X116284Y100310D01*
Y99894D01*
X116700Y99477D01*
X117950D01*
X126930Y143467D02*
X126513Y143883D01*
X125680D01*
X125264Y143467D01*
Y141800D01*
X125680Y141384D01*
X126513D01*
X126930Y141800D01*
X129429Y141384D02*
X127763D01*
X129429Y143050D01*
Y143467D01*
X129013Y143883D01*
X128180D01*
X127763Y143467D01*
X130262D02*
X130679Y143883D01*
X131512D01*
X131928Y143467D01*
Y141800D01*
X131512Y141384D01*
X130679D01*
X130262Y141800D01*
Y143467D01*
X369158Y25119D02*
X368325D01*
X368741D01*
Y23036D01*
X368325Y22620D01*
X367908D01*
X367492Y23036D01*
X371240Y22620D02*
Y25119D01*
X369991Y23869D01*
X371657D01*
X125492Y133619D02*
Y131536D01*
X125908Y131120D01*
X126741D01*
X127158Y131536D01*
Y133619D01*
X127991Y131120D02*
X128824D01*
X128407D01*
Y133619D01*
X127991Y133202D01*
X163158Y86781D02*
X162742Y87197D01*
X161909D01*
X161492Y86781D01*
Y86364D01*
X161909Y85948D01*
X162742D01*
X163158Y85531D01*
Y85115D01*
X162742Y84698D01*
X161909D01*
X161492Y85115D01*
X163991Y87197D02*
Y84698D01*
X164824Y85531D01*
X165658Y84698D01*
Y87197D01*
X166491Y84698D02*
X167324D01*
X166907D01*
Y87197D01*
X166491Y86781D01*
X140170Y85445D02*
Y87944D01*
X141419D01*
X141836Y87528D01*
Y86695D01*
X141419Y86278D01*
X140170D01*
X141003D02*
X141836Y85445D01*
X143919D02*
Y87944D01*
X142669Y86695D01*
X144335D01*
X145168Y87528D02*
X145585Y87944D01*
X146418D01*
X146834Y87528D01*
Y87111D01*
X146418Y86695D01*
X146001D01*
X146418D01*
X146834Y86278D01*
Y85861D01*
X146418Y85445D01*
X145585D01*
X145168Y85861D01*
X653197Y159528D02*
Y162027D01*
X654447D01*
X654863Y161610D01*
Y160777D01*
X654447Y160361D01*
X653197D01*
X654030D02*
X654863Y159528D01*
X656946D02*
Y162027D01*
X655696Y160777D01*
X657362D01*
X659862Y159528D02*
X658195D01*
X659862Y161194D01*
Y161610D01*
X659445Y162027D01*
X658612D01*
X658195Y161610D01*
X655282Y169742D02*
Y167243D01*
X656948D01*
X659447Y169742D02*
X657781D01*
Y167243D01*
X659447D01*
X657781Y168492D02*
X658614D01*
X660281Y169742D02*
Y167243D01*
X661530D01*
X661947Y167659D01*
Y169325D01*
X661530Y169742D01*
X660281D01*
X664446Y167243D02*
X662780D01*
X664446Y168909D01*
Y169325D01*
X664029Y169742D01*
X663196D01*
X662780Y169325D01*
X186464Y149594D02*
Y152093D01*
X187713D01*
X188130Y151677D01*
Y150844D01*
X187713Y150427D01*
X186464D01*
X187297D02*
X188130Y149594D01*
X190213D02*
Y152093D01*
X188963Y150844D01*
X190629D01*
X191462Y149594D02*
X192295D01*
X191879D01*
Y152093D01*
X191462Y151677D01*
X197916Y152093D02*
Y149594D01*
X199582D01*
X202081Y152093D02*
X200415D01*
Y149594D01*
X202081D01*
X200415Y150844D02*
X201248D01*
X202914Y152093D02*
Y149594D01*
X204164D01*
X204580Y150011D01*
Y151677D01*
X204164Y152093D01*
X202914D01*
X205414Y149594D02*
X206246D01*
X205830D01*
Y152093D01*
X205414Y151677D01*
X257753Y206575D02*
Y204493D01*
X258170Y204076D01*
X259003D01*
X259420Y204493D01*
Y206575D01*
X260253Y204076D02*
X261086D01*
X260669D01*
Y206575D01*
X260253Y206159D01*
X262335D02*
X262752Y206575D01*
X263585D01*
X264001Y206159D01*
Y205743D01*
X263585Y205326D01*
X264001Y204909D01*
Y204493D01*
X263585Y204076D01*
X262752D01*
X262335Y204493D01*
Y204909D01*
X262752Y205326D01*
X262335Y205743D01*
Y206159D01*
X262752Y205326D02*
X263585D01*
X249372Y186807D02*
X248956Y187224D01*
X248123D01*
X247706Y186807D01*
Y185141D01*
X248123Y184725D01*
X248956D01*
X249372Y185141D01*
X251871Y187224D02*
X250205D01*
Y185974D01*
X251038Y186391D01*
X251455D01*
X251871Y185974D01*
Y185141D01*
X251455Y184725D01*
X250622D01*
X250205Y185141D01*
X252704Y186807D02*
X253121Y187224D01*
X253954D01*
X254370Y186807D01*
Y186391D01*
X253954Y185974D01*
X253537D01*
X253954D01*
X254370Y185558D01*
Y185141D01*
X253954Y184725D01*
X253121D01*
X252704Y185141D01*
X269998Y209126D02*
X269581Y209542D01*
X268748D01*
X268331Y209126D01*
Y207460D01*
X268748Y207043D01*
X269581D01*
X269998Y207460D01*
X272497Y209542D02*
X270830D01*
Y208293D01*
X271664Y208709D01*
X272080D01*
X272497Y208293D01*
Y207460D01*
X272080Y207043D01*
X271247D01*
X270830Y207460D01*
X274996Y207043D02*
X273330D01*
X274996Y208709D01*
Y209126D01*
X274579Y209542D01*
X273746D01*
X273330Y209126D01*
X243272Y28951D02*
Y26452D01*
X244522D01*
X244938Y26869D01*
Y28535D01*
X244522Y28951D01*
X243272D01*
X245771Y28535D02*
X246188Y28951D01*
X247021D01*
X247437Y28535D01*
Y28118D01*
X247021Y27702D01*
X247437Y27285D01*
Y26869D01*
X247021Y26452D01*
X246188D01*
X245771Y26869D01*
Y27285D01*
X246188Y27702D01*
X245771Y28118D01*
Y28535D01*
X246188Y27702D02*
X247021D01*
X588792Y9220D02*
Y11719D01*
X590041D01*
X590458Y11302D01*
Y10469D01*
X590041Y10053D01*
X588792D01*
X591291Y9220D02*
X592124D01*
X591707D01*
Y11719D01*
X591291Y11302D01*
X593373D02*
X593790Y11719D01*
X594623D01*
X595040Y11302D01*
Y10886D01*
X594623Y10469D01*
X594206D01*
X594623D01*
X595040Y10053D01*
Y9636D01*
X594623Y9220D01*
X593790D01*
X593373Y9636D01*
X205438Y185933D02*
Y188432D01*
X206688D01*
X207104Y188015D01*
Y187182D01*
X206688Y186766D01*
X205438D01*
X207937Y185933D02*
X208770D01*
X208354D01*
Y188432D01*
X207937Y188015D01*
X211686Y185933D02*
X210020D01*
X211686Y187599D01*
Y188015D01*
X211270Y188432D01*
X210437D01*
X210020Y188015D01*
X205058Y206870D02*
Y209369D01*
X206308D01*
X206725Y208952D01*
Y208119D01*
X206308Y207703D01*
X205058D01*
X207558Y206870D02*
X208391D01*
X207974D01*
Y209369D01*
X207558Y208952D01*
X209640Y206870D02*
X210473D01*
X210057D01*
Y209369D01*
X209640Y208952D01*
X615079Y43944D02*
Y46443D01*
X616329D01*
X616745Y46026D01*
Y45193D01*
X616329Y44777D01*
X615079D01*
X615912D02*
X616745Y43944D01*
X618828D02*
Y46443D01*
X617578Y45193D01*
X619245D01*
X620078Y46026D02*
X620494Y46443D01*
X621327D01*
X621744Y46026D01*
Y44360D01*
X621327Y43944D01*
X620494D01*
X620078Y44360D01*
Y46026D01*
X618411Y37758D02*
Y40257D01*
X619661D01*
X620078Y39840D01*
Y39007D01*
X619661Y38591D01*
X618411D01*
X619245D02*
X620078Y37758D01*
X620911Y39840D02*
X621327Y40257D01*
X622160D01*
X622577Y39840D01*
Y39424D01*
X622160Y39007D01*
X621744D01*
X622160D01*
X622577Y38591D01*
Y38174D01*
X622160Y37758D01*
X621327D01*
X620911Y38174D01*
X623410D02*
X623826Y37758D01*
X624659D01*
X625076Y38174D01*
Y39840D01*
X624659Y40257D01*
X623826D01*
X623410Y39840D01*
Y39424D01*
X623826Y39007D01*
X625076D01*
X615079Y49665D02*
Y52164D01*
X616329D01*
X616745Y51748D01*
Y50915D01*
X616329Y50498D01*
X615079D01*
X615912D02*
X616745Y49665D01*
X617578Y51748D02*
X617995Y52164D01*
X618828D01*
X619245Y51748D01*
Y51331D01*
X618828Y50915D01*
X618411D01*
X618828D01*
X619245Y50498D01*
Y50081D01*
X618828Y49665D01*
X617995D01*
X617578Y50081D01*
X620078Y51748D02*
X620494Y52164D01*
X621327D01*
X621744Y51748D01*
Y51331D01*
X621327Y50915D01*
X621744Y50498D01*
Y50081D01*
X621327Y49665D01*
X620494D01*
X620078Y50081D01*
Y50498D01*
X620494Y50915D01*
X620078Y51331D01*
Y51748D01*
X620494Y50915D02*
X621327D01*
X588126Y18083D02*
Y15584D01*
X589792D01*
X592291D02*
X590625D01*
X592291Y17250D01*
Y17666D01*
X591875Y18083D01*
X591042D01*
X590625Y17666D01*
X577710Y35192D02*
X577294Y35609D01*
X576461D01*
X576044Y35192D01*
Y33526D01*
X576461Y33110D01*
X577294D01*
X577710Y33526D01*
X580209Y35609D02*
X578543D01*
Y34359D01*
X579376Y34776D01*
X579793D01*
X580209Y34359D01*
Y33526D01*
X579793Y33110D01*
X578960D01*
X578543Y33526D01*
X581042Y33110D02*
X581876D01*
X581459D01*
Y35609D01*
X581042Y35192D01*
X577294Y51643D02*
X576877Y52060D01*
X576044D01*
X575628Y51643D01*
Y49977D01*
X576044Y49560D01*
X576877D01*
X577294Y49977D01*
X579793Y52060D02*
X578127D01*
Y50810D01*
X578960Y51227D01*
X579376D01*
X579793Y50810D01*
Y49977D01*
X579376Y49560D01*
X578543D01*
X578127Y49977D01*
X580626Y51643D02*
X581042Y52060D01*
X581876D01*
X582292Y51643D01*
Y49977D01*
X581876Y49560D01*
X581042D01*
X580626Y49977D01*
Y51643D01*
X611733Y30159D02*
X611317Y30576D01*
X610484D01*
X610067Y30159D01*
Y28493D01*
X610484Y28077D01*
X611317D01*
X611733Y28493D01*
X613816Y28077D02*
Y30576D01*
X612567Y29326D01*
X614233D01*
X615066Y28493D02*
X615482Y28077D01*
X616315D01*
X616732Y28493D01*
Y30159D01*
X616315Y30576D01*
X615482D01*
X615066Y30159D01*
Y29743D01*
X615482Y29326D01*
X616732D01*
X587309Y51783D02*
Y49701D01*
X587725Y49284D01*
X588558D01*
X588975Y49701D01*
Y51783D01*
X589808Y49284D02*
X590641D01*
X590225D01*
Y51783D01*
X589808Y51367D01*
X591891Y51783D02*
X593557D01*
Y51367D01*
X591891Y49701D01*
Y49284D01*
X70365Y14828D02*
Y17328D01*
X71615D01*
X72031Y16911D01*
Y16078D01*
X71615Y15662D01*
X70365D01*
X71198D02*
X72031Y14828D01*
X72865Y16911D02*
X73281Y17328D01*
X74114D01*
X74531Y16911D01*
Y16495D01*
X74114Y16078D01*
X73698D01*
X74114D01*
X74531Y15662D01*
Y15245D01*
X74114Y14828D01*
X73281D01*
X72865Y15245D01*
X75364Y17328D02*
X77030D01*
Y16911D01*
X75364Y15245D01*
Y14828D01*
X88062Y14829D02*
Y17328D01*
X89311D01*
X89728Y16911D01*
Y16078D01*
X89311Y15662D01*
X88062D01*
X88895D02*
X89728Y14829D01*
X90561Y16911D02*
X90977Y17328D01*
X91811D01*
X92227Y16911D01*
Y16495D01*
X91811Y16078D01*
X91394D01*
X91811D01*
X92227Y15662D01*
Y15245D01*
X91811Y14829D01*
X90977D01*
X90561Y15245D01*
X94726Y17328D02*
X93893Y16911D01*
X93060Y16078D01*
Y15245D01*
X93477Y14829D01*
X94310D01*
X94726Y15245D01*
Y15662D01*
X94310Y16078D01*
X93060D01*
X50899Y15048D02*
Y17547D01*
X52149D01*
X52565Y17130D01*
Y16297D01*
X52149Y15881D01*
X50899D01*
X51732D02*
X52565Y15048D01*
X53398Y17130D02*
X53815Y17547D01*
X54648D01*
X55065Y17130D01*
Y16714D01*
X54648Y16297D01*
X54232D01*
X54648D01*
X55065Y15881D01*
Y15464D01*
X54648Y15048D01*
X53815D01*
X53398Y15464D01*
X57564Y17547D02*
X55898D01*
Y16297D01*
X56731Y16714D01*
X57147D01*
X57564Y16297D01*
Y15464D01*
X57147Y15048D01*
X56314D01*
X55898Y15464D01*
X33589Y14785D02*
Y17284D01*
X34839D01*
X35255Y16868D01*
Y16035D01*
X34839Y15618D01*
X33589D01*
X34422D02*
X35255Y14785D01*
X36088Y16868D02*
X36505Y17284D01*
X37338D01*
X37754Y16868D01*
Y16451D01*
X37338Y16035D01*
X36921D01*
X37338D01*
X37754Y15618D01*
Y15202D01*
X37338Y14785D01*
X36505D01*
X36088Y15202D01*
X39837Y14785D02*
Y17284D01*
X38587Y16035D01*
X40253D01*
X64349Y11302D02*
Y8803D01*
X65598D01*
X66015Y9220D01*
Y10886D01*
X65598Y11302D01*
X64349D01*
X66848D02*
X68514D01*
Y10886D01*
X66848Y9220D01*
Y8803D01*
X81492Y11287D02*
Y8788D01*
X82741D01*
X83158Y9204D01*
Y10870D01*
X82741Y11287D01*
X81492D01*
X85657D02*
X84824Y10870D01*
X83991Y10037D01*
Y9204D01*
X84407Y8788D01*
X85240D01*
X85657Y9204D01*
Y9621D01*
X85240Y10037D01*
X83991D01*
X45257Y11556D02*
Y9057D01*
X46507D01*
X46923Y9473D01*
Y11139D01*
X46507Y11556D01*
X45257D01*
X49422D02*
X47756D01*
Y10306D01*
X48589Y10723D01*
X49006D01*
X49422Y10306D01*
Y9473D01*
X49006Y9057D01*
X48173D01*
X47756Y9473D01*
X28007Y11345D02*
Y8846D01*
X29256D01*
X29673Y9262D01*
Y10929D01*
X29256Y11345D01*
X28007D01*
X31756Y8846D02*
Y11345D01*
X30506Y10096D01*
X32172D01*
X216395Y33776D02*
X215146D01*
X214729Y33360D01*
Y32526D01*
X215146Y32110D01*
X216395D01*
X217228Y33776D02*
Y32110D01*
Y32943D01*
X217645Y33360D01*
X218061Y33776D01*
X218478D01*
X219727D02*
Y32526D01*
X220144Y32110D01*
X221394D01*
Y31693D01*
X220977Y31277D01*
X220561D01*
X221394Y32110D02*
Y33776D01*
X222227Y32110D02*
X223476D01*
X223893Y32526D01*
X223476Y32943D01*
X222643D01*
X222227Y33360D01*
X222643Y33776D01*
X223893D01*
X225142Y34193D02*
Y33776D01*
X224726D01*
X225559D01*
X225142D01*
Y32526D01*
X225559Y32110D01*
X227225Y33776D02*
X228058D01*
X228475Y33360D01*
Y32110D01*
X227225D01*
X226809Y32526D01*
X227225Y32943D01*
X228475D01*
X229308Y32110D02*
X230141D01*
X229724D01*
Y34609D01*
X229308D01*
X231390Y32110D02*
X232224D01*
X231807D01*
Y34609D01*
X231390Y34193D01*
X254884Y5274D02*
Y3191D01*
X255301Y2775D01*
X256134D01*
X256551Y3191D01*
Y5274D01*
X257384Y4857D02*
X257800Y5274D01*
X258633D01*
X259050Y4857D01*
Y4441D01*
X258633Y4024D01*
X258217D01*
X258633D01*
X259050Y3608D01*
Y3191D01*
X258633Y2775D01*
X257800D01*
X257384Y3191D01*
X287812Y19028D02*
Y21527D01*
X289061D01*
X289478Y21110D01*
Y20277D01*
X289061Y19861D01*
X287812D01*
X288645D02*
X289478Y19028D01*
X291977Y21527D02*
X290311D01*
Y20277D01*
X291144Y20694D01*
X291561D01*
X291977Y20277D01*
Y19444D01*
X291561Y19028D01*
X290727D01*
X290311Y19444D01*
X272504Y-17926D02*
Y-15427D01*
X273753D01*
X274170Y-15843D01*
Y-16676D01*
X273753Y-17093D01*
X272504D01*
X273337D02*
X274170Y-17926D01*
X276669Y-15427D02*
X275836Y-15843D01*
X275003Y-16676D01*
Y-17509D01*
X275419Y-17926D01*
X276253D01*
X276669Y-17509D01*
Y-17093D01*
X276253Y-16676D01*
X275003D01*
X258152Y-17926D02*
Y-15427D01*
X259401D01*
X259818Y-15843D01*
Y-16676D01*
X259401Y-17093D01*
X258152D01*
X258985D02*
X259818Y-17926D01*
X260651Y-15843D02*
X261067Y-15427D01*
X261900D01*
X262317Y-15843D01*
Y-16260D01*
X261900Y-16676D01*
X262317Y-17093D01*
Y-17509D01*
X261900Y-17926D01*
X261067D01*
X260651Y-17509D01*
Y-17093D01*
X261067Y-16676D01*
X260651Y-16260D01*
Y-15843D01*
X261067Y-16676D02*
X261900D01*
X265337Y-17926D02*
Y-15427D01*
X266586D01*
X267003Y-15843D01*
Y-16676D01*
X266586Y-17093D01*
X265337D01*
X266170D02*
X267003Y-17926D01*
X267836Y-15427D02*
X269502D01*
Y-15843D01*
X267836Y-17509D01*
Y-17926D01*
X287861Y11444D02*
Y13943D01*
X289111D01*
X289528Y13526D01*
Y12693D01*
X289111Y12277D01*
X287861D01*
X288695D02*
X289528Y11444D01*
X291610D02*
Y13943D01*
X290361Y12693D01*
X292027D01*
X293987Y5292D02*
X293570Y5709D01*
X292737D01*
X292320Y5292D01*
Y3626D01*
X292737Y3210D01*
X293570D01*
X293987Y3626D01*
X294820Y3210D02*
X295653D01*
X295236D01*
Y5709D01*
X294820Y5292D01*
X298152Y3210D02*
Y5709D01*
X296902Y4459D01*
X298568D01*
X626958Y59719D02*
X626125D01*
X626541D01*
Y57636D01*
X626125Y57220D01*
X625708D01*
X625292Y57636D01*
X627791Y57220D02*
X628624D01*
X628207D01*
Y59719D01*
X627791Y59302D01*
X3748Y60600D02*
Y63099D01*
X4998D01*
X5415Y62682D01*
Y61849D01*
X4998Y61433D01*
X3748D01*
X4582D02*
X5415Y60600D01*
X6248Y62682D02*
X6664Y63099D01*
X7497D01*
X7914Y62682D01*
Y62266D01*
X7497Y61849D01*
X7081D01*
X7497D01*
X7914Y61433D01*
Y61016D01*
X7497Y60600D01*
X6664D01*
X6248Y61016D01*
X8747Y62682D02*
X9163Y63099D01*
X9996D01*
X10413Y62682D01*
Y62266D01*
X9996Y61849D01*
X9580D01*
X9996D01*
X10413Y61433D01*
Y61016D01*
X9996Y60600D01*
X9163D01*
X8747Y61016D01*
X19479Y60185D02*
Y62684D01*
X20729D01*
X21146Y62267D01*
Y61434D01*
X20729Y61018D01*
X19479D01*
X20312D02*
X21146Y60185D01*
X21979Y62267D02*
X22395Y62684D01*
X23228D01*
X23645Y62267D01*
Y61851D01*
X23228Y61434D01*
X22812D01*
X23228D01*
X23645Y61018D01*
Y60601D01*
X23228Y60185D01*
X22395D01*
X21979Y60601D01*
X26144Y60185D02*
X24478D01*
X26144Y61851D01*
Y62267D01*
X25727Y62684D01*
X24894D01*
X24478Y62267D01*
X-4100Y64463D02*
Y66962D01*
X-2850D01*
X-2434Y66546D01*
Y65712D01*
X-2850Y65296D01*
X-4100D01*
X-3267D02*
X-2434Y64463D01*
X-1601Y66546D02*
X-1184Y66962D01*
X-351D01*
X65Y66546D01*
Y66129D01*
X-351Y65712D01*
X-768D01*
X-351D01*
X65Y65296D01*
Y64880D01*
X-351Y64463D01*
X-1184D01*
X-1601Y64880D01*
X898Y64463D02*
X1731D01*
X1315D01*
Y66962D01*
X898Y66546D01*
X35484Y79417D02*
X35901Y79834D01*
Y80667D01*
X35484Y81084D01*
X33818D01*
X33401Y80667D01*
Y79834D01*
X33818Y79417D01*
X33401Y77335D02*
X35901D01*
X34651Y78584D01*
Y76918D01*
X35901Y76085D02*
Y74419D01*
X35484D01*
X33818Y76085D01*
X33401D01*
X17753Y79517D02*
X18170Y79933D01*
Y80766D01*
X17753Y81183D01*
X16087D01*
X15671Y80766D01*
Y79933D01*
X16087Y79517D01*
X15671Y77434D02*
X18170D01*
X16920Y78684D01*
Y77017D01*
X18170Y74518D02*
X17753Y75351D01*
X16920Y76184D01*
X16087D01*
X15671Y75768D01*
Y74935D01*
X16087Y74518D01*
X16504D01*
X16920Y74935D01*
Y76184D01*
X37858Y125702D02*
X37441Y126119D01*
X36608D01*
X36192Y125702D01*
Y124036D01*
X36608Y123620D01*
X37441D01*
X37858Y124036D01*
X39940Y123620D02*
Y126119D01*
X38691Y124869D01*
X40357D01*
X42856Y126119D02*
X41190D01*
Y124869D01*
X42023Y125286D01*
X42440D01*
X42856Y124869D01*
Y124036D01*
X42440Y123620D01*
X41607D01*
X41190Y124036D01*
X-11005Y65233D02*
X-11421Y65650D01*
X-12254D01*
X-12671Y65233D01*
Y63567D01*
X-12254Y63151D01*
X-11421D01*
X-11005Y63567D01*
X-8922Y63151D02*
Y65650D01*
X-10171Y64400D01*
X-8505D01*
X-6423Y63151D02*
Y65650D01*
X-7672Y64400D01*
X-6006D01*
X-7508Y148819D02*
Y146736D01*
X-7092Y146320D01*
X-6259D01*
X-5842Y146736D01*
Y148819D01*
X-5009Y146320D02*
X-4176D01*
X-4593D01*
Y148819D01*
X-5009Y148402D01*
X-1260Y148819D02*
X-2094Y148402D01*
X-2926Y147569D01*
Y146736D01*
X-2510Y146320D01*
X-1677D01*
X-1260Y146736D01*
Y147153D01*
X-1677Y147569D01*
X-2926D01*
X21492Y56593D02*
Y54510D01*
X21909Y54093D01*
X22742D01*
X23158Y54510D01*
Y56593D01*
X23991Y54093D02*
X24824D01*
X24408D01*
Y56593D01*
X23991Y56176D01*
X27323Y54093D02*
Y56593D01*
X26074Y55343D01*
X27740D01*
X-3386Y56766D02*
Y54683D01*
X-2969Y54267D01*
X-2136D01*
X-1720Y54683D01*
Y56766D01*
X-887Y54267D02*
X-53D01*
X-470D01*
Y56766D01*
X-887Y56349D01*
X1196D02*
X1613Y56766D01*
X2446D01*
X2862Y56349D01*
Y55933D01*
X2446Y55516D01*
X2029D01*
X2446D01*
X2862Y55100D01*
Y54683D01*
X2446Y54267D01*
X1613D01*
X1196Y54683D01*
X188520Y58350D02*
Y60850D01*
X189769D01*
X190186Y60433D01*
Y59600D01*
X189769Y59184D01*
X188520D01*
X189353D02*
X190186Y58350D01*
X191019D02*
X191852D01*
X191436D01*
Y60850D01*
X191019Y60433D01*
X186549Y106403D02*
Y108902D01*
X187799D01*
X188215Y108486D01*
Y107653D01*
X187799Y107236D01*
X186549D01*
X187382D02*
X188215Y106403D01*
X189048Y108486D02*
X189465Y108902D01*
X190298D01*
X190715Y108486D01*
Y108069D01*
X190298Y107653D01*
X189882D01*
X190298D01*
X190715Y107236D01*
Y106820D01*
X190298Y106403D01*
X189465D01*
X189048Y106820D01*
X186549Y97255D02*
Y99754D01*
X187799D01*
X188215Y99337D01*
Y98504D01*
X187799Y98088D01*
X186549D01*
X187382D02*
X188215Y97255D01*
X190715D02*
X189048D01*
X190715Y98921D01*
Y99337D01*
X190298Y99754D01*
X189465D01*
X189048Y99337D01*
X222278Y8129D02*
X221445D01*
X221862D01*
Y6046D01*
X221445Y5630D01*
X221029D01*
X220612Y6046D01*
X223112Y7712D02*
X223528Y8129D01*
X224361D01*
X224778Y7712D01*
Y7296D01*
X224361Y6879D01*
X223945D01*
X224361D01*
X224778Y6463D01*
Y6046D01*
X224361Y5630D01*
X223528D01*
X223112Y6046D01*
X182963Y88159D02*
Y86492D01*
X184213D01*
Y87325D01*
Y86492D01*
X185462D01*
X182963Y88992D02*
X185462D01*
Y90241D01*
X185046Y90658D01*
X184629D01*
X184213Y90241D01*
Y88992D01*
Y90241D01*
X183796Y90658D01*
X183379D01*
X182963Y90241D01*
Y88992D01*
X185462Y93157D02*
Y91491D01*
X183796Y93157D01*
X183379D01*
X182963Y92740D01*
Y91907D01*
X183379Y91491D01*
X194596Y88116D02*
Y86450D01*
X195846D01*
Y87283D01*
Y86450D01*
X197095D01*
X194596Y88949D02*
X197095D01*
Y90199D01*
X196679Y90615D01*
X196262D01*
X195846Y90199D01*
Y88949D01*
Y90199D01*
X195429Y90615D01*
X195013D01*
X194596Y90199D01*
Y88949D01*
X197095Y91449D02*
Y92282D01*
Y91865D01*
X194596D01*
X195013Y91449D01*
X293546Y52133D02*
X293129Y52549D01*
X292296D01*
X291880Y52133D01*
Y50467D01*
X292296Y50050D01*
X293129D01*
X293546Y50467D01*
X294379Y52549D02*
X296045D01*
Y52133D01*
X294379Y50467D01*
Y50050D01*
X245673Y40980D02*
X245257Y41397D01*
X244424D01*
X244007Y40980D01*
Y39314D01*
X244424Y38898D01*
X245257D01*
X245673Y39314D01*
X248172Y41397D02*
X247339Y40980D01*
X246506Y40147D01*
Y39314D01*
X246923Y38898D01*
X247756D01*
X248172Y39314D01*
Y39731D01*
X247756Y40147D01*
X246506D01*
X236029Y164785D02*
X235613Y165201D01*
X234780D01*
X234363Y164785D01*
Y163119D01*
X234780Y162702D01*
X235613D01*
X236029Y163119D01*
X238529Y165201D02*
X236862D01*
Y163952D01*
X237696Y164368D01*
X238112D01*
X238529Y163952D01*
Y163119D01*
X238112Y162702D01*
X237279D01*
X236862Y163119D01*
X255516Y40980D02*
X255099Y41397D01*
X254266D01*
X253850Y40980D01*
Y39314D01*
X254266Y38898D01*
X255099D01*
X255516Y39314D01*
X257598Y38898D02*
Y41397D01*
X256349Y40147D01*
X258015D01*
X236758Y40980D02*
X236341Y41397D01*
X235508D01*
X235092Y40980D01*
Y39314D01*
X235508Y38898D01*
X236341D01*
X236758Y39314D01*
X237591Y38898D02*
X238424D01*
X238007D01*
Y41397D01*
X237591Y40980D01*
X241340Y38898D02*
X239674D01*
X241340Y40564D01*
Y40980D01*
X240923Y41397D01*
X240090D01*
X239674Y40980D01*
X306265Y113175D02*
X305849Y113591D01*
X305016D01*
X304599Y113175D01*
Y111509D01*
X305016Y111092D01*
X305849D01*
X306265Y111509D01*
X307099Y111092D02*
X307932D01*
X307515D01*
Y113591D01*
X307099Y113175D01*
X309181Y111092D02*
X310014D01*
X309598D01*
Y113591D01*
X309181Y113175D01*
X183436Y70156D02*
X183019Y70573D01*
X182186D01*
X181770Y70156D01*
Y68490D01*
X182186Y68073D01*
X183019D01*
X183436Y68490D01*
X184269Y70156D02*
X184685Y70573D01*
X185519D01*
X185935Y70156D01*
Y69739D01*
X185519Y69323D01*
X185102D01*
X185519D01*
X185935Y68906D01*
Y68490D01*
X185519Y68073D01*
X184685D01*
X184269Y68490D01*
X183436Y79735D02*
X183019Y80151D01*
X182186D01*
X181770Y79735D01*
Y78069D01*
X182186Y77652D01*
X183019D01*
X183436Y78069D01*
X185935Y77652D02*
X184269D01*
X185935Y79318D01*
Y79735D01*
X185519Y80151D01*
X184685D01*
X184269Y79735D01*
X181067Y119515D02*
X180650Y119932D01*
X179817D01*
X179401Y119515D01*
Y117849D01*
X179817Y117433D01*
X180650D01*
X181067Y117849D01*
X181900Y117433D02*
X182733D01*
X182317D01*
Y119932D01*
X181900Y119515D01*
X187763Y126645D02*
X187346Y127061D01*
X186513D01*
X186097Y126645D01*
Y124978D01*
X186513Y124562D01*
X187346D01*
X187763Y124978D01*
X188596Y124562D02*
X189429D01*
X189013D01*
Y127061D01*
X188596Y126645D01*
X190679D02*
X191095Y127061D01*
X191928D01*
X192345Y126645D01*
Y124978D01*
X191928Y124562D01*
X191095D01*
X190679Y124978D01*
Y126645D01*
X306103Y140910D02*
X305686Y141326D01*
X304853D01*
X304437Y140910D01*
Y139244D01*
X304853Y138827D01*
X305686D01*
X306103Y139244D01*
X306936D02*
X307352Y138827D01*
X308186D01*
X308602Y139244D01*
Y140910D01*
X308186Y141326D01*
X307352D01*
X306936Y140910D01*
Y140494D01*
X307352Y140077D01*
X308602D01*
X250510Y152415D02*
X250093Y152832D01*
X249260D01*
X248844Y152415D01*
Y150749D01*
X249260Y150333D01*
X250093D01*
X250510Y150749D01*
X251343Y152415D02*
X251760Y152832D01*
X252593D01*
X253009Y152415D01*
Y151999D01*
X252593Y151582D01*
X253009Y151166D01*
Y150749D01*
X252593Y150333D01*
X251760D01*
X251343Y150749D01*
Y151166D01*
X251760Y151582D01*
X251343Y151999D01*
Y152415D01*
X251760Y151582D02*
X252593D01*
X216751Y40158D02*
X216335Y40575D01*
X215501D01*
X215085Y40158D01*
Y38492D01*
X215501Y38075D01*
X216335D01*
X216751Y38492D01*
X217584Y38075D02*
X218417D01*
X218001D01*
Y40575D01*
X217584Y40158D01*
X219667D02*
X220083Y40575D01*
X220916D01*
X221333Y40158D01*
Y39742D01*
X220916Y39325D01*
X220500D01*
X220916D01*
X221333Y38908D01*
Y38492D01*
X220916Y38075D01*
X220083D01*
X219667Y38492D01*
X563359Y14877D02*
Y12794D01*
X563775Y12378D01*
X564608D01*
X565025Y12794D01*
Y14877D01*
X565858Y12378D02*
X566691D01*
X566274D01*
Y14877D01*
X565858Y14460D01*
X569607Y12378D02*
X567941D01*
X569607Y14044D01*
Y14460D01*
X569190Y14877D01*
X568357D01*
X567941Y14460D01*
X575478Y14583D02*
Y12500D01*
X575894Y12084D01*
X576727D01*
X577144Y12500D01*
Y14583D01*
X577977Y12084D02*
X578810D01*
X578393D01*
Y14583D01*
X577977Y14166D01*
X580059Y12084D02*
X580893D01*
X580476D01*
Y14583D01*
X580059Y14166D01*
X552465Y14656D02*
Y12573D01*
X552881Y12157D01*
X553715D01*
X554131Y12573D01*
Y14656D01*
X554964Y12157D02*
X555797D01*
X555381D01*
Y14656D01*
X554964Y14239D01*
X557047D02*
X557463Y14656D01*
X558296D01*
X558713Y14239D01*
Y12573D01*
X558296Y12157D01*
X557463D01*
X557047Y12573D01*
Y14239D01*
X529293Y14706D02*
Y12624D01*
X529710Y12207D01*
X530543D01*
X530959Y12624D01*
Y14706D01*
X531792Y12624D02*
X532209Y12207D01*
X533042D01*
X533459Y12624D01*
Y14290D01*
X533042Y14706D01*
X532209D01*
X531792Y14290D01*
Y13873D01*
X532209Y13457D01*
X533459D01*
X525992Y58419D02*
Y56336D01*
X526408Y55920D01*
X527241D01*
X527658Y56336D01*
Y58419D01*
X528491Y58002D02*
X528907Y58419D01*
X529740D01*
X530157Y58002D01*
Y57586D01*
X529740Y57169D01*
X530157Y56753D01*
Y56336D01*
X529740Y55920D01*
X528907D01*
X528491Y56336D01*
Y56753D01*
X528907Y57169D01*
X528491Y57586D01*
Y58002D01*
X528907Y57169D02*
X529740D01*
X540996Y14877D02*
Y12794D01*
X541412Y12378D01*
X542245D01*
X542662Y12794D01*
Y14877D01*
X543495D02*
X545161D01*
Y14460D01*
X543495Y12794D01*
Y12378D01*
X505752Y225350D02*
X504918D01*
X505335D01*
Y223267D01*
X504918Y222850D01*
X504502D01*
X504085Y223267D01*
X506585Y225350D02*
X508251D01*
Y224933D01*
X506585Y223267D01*
Y222850D01*
X581413Y170643D02*
Y173142D01*
X582662D01*
X583079Y172726D01*
Y171893D01*
X582662Y171476D01*
X581413D01*
X583912Y172726D02*
X584329Y173142D01*
X585162D01*
X585578Y172726D01*
Y172309D01*
X585162Y171893D01*
X585578Y171476D01*
Y171060D01*
X585162Y170643D01*
X584329D01*
X583912Y171060D01*
Y171476D01*
X584329Y171893D01*
X583912Y172309D01*
Y172726D01*
X584329Y171893D02*
X585162D01*
X625274Y170409D02*
X625691Y170826D01*
Y171659D01*
X625274Y172075D01*
X623608D01*
X623192Y171659D01*
Y170826D01*
X623608Y170409D01*
X625274Y169576D02*
X625691Y169159D01*
Y168326D01*
X625274Y167910D01*
X624858D01*
X624441Y168326D01*
Y168743D01*
Y168326D01*
X624025Y167910D01*
X623608D01*
X623192Y168326D01*
Y169159D01*
X623608Y169576D01*
X625691Y165411D02*
Y167077D01*
X624441D01*
X624858Y166244D01*
Y165827D01*
X624441Y165411D01*
X623608D01*
X623192Y165827D01*
Y166660D01*
X623608Y167077D01*
X638392Y172886D02*
X638808Y173302D01*
Y174135D01*
X638392Y174552D01*
X636726D01*
X636309Y174135D01*
Y173302D01*
X636726Y172886D01*
X638392Y172053D02*
X638808Y171636D01*
Y170803D01*
X638392Y170386D01*
X637976D01*
X637559Y170803D01*
Y171220D01*
Y170803D01*
X637142Y170386D01*
X636726D01*
X636309Y170803D01*
Y171636D01*
X636726Y172053D01*
X638808Y167887D02*
X638392Y168720D01*
X637559Y169553D01*
X636726D01*
X636309Y169137D01*
Y168304D01*
X636726Y167887D01*
X637142D01*
X637559Y168304D01*
Y169553D01*
X209930Y222273D02*
Y219774D01*
X211180D01*
X211596Y220191D01*
Y221857D01*
X211180Y222273D01*
X209930D01*
X214095Y219774D02*
X212429D01*
X214095Y221440D01*
Y221857D01*
X213679Y222273D01*
X212846D01*
X212429Y221857D01*
X1578Y254990D02*
Y252491D01*
X2828D01*
X3244Y252907D01*
Y254573D01*
X2828Y254990D01*
X1578D01*
X4077Y252491D02*
X4910D01*
X4494D01*
Y254990D01*
X4077Y254573D01*
X271773Y179529D02*
Y177447D01*
X272190Y177030D01*
X273023D01*
X273439Y177447D01*
Y179529D01*
X275938D02*
X274272D01*
Y178280D01*
X275105Y178696D01*
X275522D01*
X275938Y178280D01*
Y177447D01*
X275522Y177030D01*
X274689D01*
X274272Y177447D01*
X241253Y162462D02*
Y164961D01*
X242502D01*
X242919Y164544D01*
Y163711D01*
X242502Y163295D01*
X241253D01*
X242086D02*
X242919Y162462D01*
X245418D02*
X243752D01*
X245418Y164128D01*
Y164544D01*
X245002Y164961D01*
X244168D01*
X243752Y164544D01*
X247501Y162462D02*
Y164961D01*
X246251Y163711D01*
X247917D01*
X241253Y156635D02*
Y159134D01*
X242502D01*
X242919Y158717D01*
Y157884D01*
X242502Y157468D01*
X241253D01*
X242086D02*
X242919Y156635D01*
X245418D02*
X243752D01*
X245418Y158301D01*
Y158717D01*
X245002Y159134D01*
X244168D01*
X243752Y158717D01*
X246251D02*
X246668Y159134D01*
X247501D01*
X247917Y158717D01*
Y158301D01*
X247501Y157884D01*
X247084D01*
X247501D01*
X247917Y157468D01*
Y157051D01*
X247501Y156635D01*
X246668D01*
X246251Y157051D01*
X504939Y291936D02*
X504106D01*
X504522D01*
Y289854D01*
X504106Y289437D01*
X503689D01*
X503273Y289854D01*
X507438Y291936D02*
X505772D01*
Y290687D01*
X506605Y291103D01*
X507022D01*
X507438Y290687D01*
Y289854D01*
X507022Y289437D01*
X506189D01*
X505772Y289854D01*
X17973Y287709D02*
X17140D01*
X17557D01*
Y285627D01*
X17140Y285210D01*
X16724D01*
X16307Y285627D01*
X18806Y287293D02*
X19223Y287709D01*
X20056D01*
X20472Y287293D01*
Y286876D01*
X20056Y286459D01*
X20472Y286043D01*
Y285627D01*
X20056Y285210D01*
X19223D01*
X18806Y285627D01*
Y286043D01*
X19223Y286459D01*
X18806Y286876D01*
Y287293D01*
X19223Y286459D02*
X20056D01*
X148885Y230366D02*
X148469Y230783D01*
X147635D01*
X147219Y230366D01*
Y228700D01*
X147635Y228284D01*
X148469D01*
X148885Y228700D01*
X149718Y230366D02*
X150135Y230783D01*
X150968D01*
X151384Y230366D01*
Y229950D01*
X150968Y229533D01*
X150551D01*
X150968D01*
X151384Y229117D01*
Y228700D01*
X150968Y228284D01*
X150135D01*
X149718Y228700D01*
X152217Y230366D02*
X152634Y230783D01*
X153467D01*
X153884Y230366D01*
Y229950D01*
X153467Y229533D01*
X153050D01*
X153467D01*
X153884Y229117D01*
Y228700D01*
X153467Y228284D01*
X152634D01*
X152217Y228700D01*
X167093Y223544D02*
X166677Y223960D01*
X165844D01*
X165427Y223544D01*
Y221878D01*
X165844Y221461D01*
X166677D01*
X167093Y221878D01*
X167926Y223544D02*
X168343Y223960D01*
X169176D01*
X169592Y223544D01*
Y223127D01*
X169176Y222711D01*
X168760D01*
X169176D01*
X169592Y222294D01*
Y221878D01*
X169176Y221461D01*
X168343D01*
X167926Y221878D01*
X172092Y221461D02*
X170426D01*
X172092Y223127D01*
Y223544D01*
X171675Y223960D01*
X170842D01*
X170426Y223544D01*
X130933Y157659D02*
X130516Y158075D01*
X129683D01*
X129267Y157659D01*
Y155993D01*
X129683Y155576D01*
X130516D01*
X130933Y155993D01*
X131766Y157659D02*
X132183Y158075D01*
X133016D01*
X133432Y157659D01*
Y157242D01*
X133016Y156826D01*
X132599D01*
X133016D01*
X133432Y156409D01*
Y155993D01*
X133016Y155576D01*
X132183D01*
X131766Y155993D01*
X134265Y155576D02*
X135098D01*
X134682D01*
Y158075D01*
X134265Y157659D01*
X130397Y151792D02*
X129980Y152209D01*
X129147D01*
X128730Y151792D01*
Y150126D01*
X129147Y149710D01*
X129980D01*
X130397Y150126D01*
X131230Y151792D02*
X131646Y152209D01*
X132479D01*
X132896Y151792D01*
Y151376D01*
X132479Y150959D01*
X132063D01*
X132479D01*
X132896Y150543D01*
Y150126D01*
X132479Y149710D01*
X131646D01*
X131230Y150126D01*
X133729Y151792D02*
X134145Y152209D01*
X134978D01*
X135395Y151792D01*
Y150126D01*
X134978Y149710D01*
X134145D01*
X133729Y150126D01*
Y151792D01*
X289312Y158443D02*
Y160942D01*
X290562D01*
X290978Y160526D01*
Y159693D01*
X290562Y159276D01*
X289312D01*
X290145D02*
X290978Y158443D01*
X293478D02*
X291811D01*
X293478Y160109D01*
Y160526D01*
X293061Y160942D01*
X292228D01*
X291811Y160526D01*
X295977Y160942D02*
X294311D01*
Y159693D01*
X295144Y160109D01*
X295560D01*
X295977Y159693D01*
Y158860D01*
X295560Y158443D01*
X294727D01*
X294311Y158860D01*
X242919Y171026D02*
X242502Y171442D01*
X241669D01*
X241253Y171026D01*
Y169359D01*
X241669Y168943D01*
X242502D01*
X242919Y169359D01*
X245418Y168943D02*
X243752D01*
X245418Y170609D01*
Y171026D01*
X245002Y171442D01*
X244168D01*
X243752Y171026D01*
X246251Y169359D02*
X246668Y168943D01*
X247501D01*
X247917Y169359D01*
Y171026D01*
X247501Y171442D01*
X246668D01*
X246251Y171026D01*
Y170609D01*
X246668Y170193D01*
X247917D01*
X261108Y45320D02*
X261941D01*
X262358Y45736D01*
Y46569D01*
X261941Y46986D01*
X261108D01*
X260692Y46569D01*
Y45736D01*
X261108Y45320D01*
X263191D02*
X264440D01*
X264857Y45736D01*
X264440Y46153D01*
X263607D01*
X263191Y46569D01*
X263607Y46986D01*
X264857D01*
X267356D02*
X266107D01*
X265690Y46569D01*
Y45736D01*
X266107Y45320D01*
X267356D01*
X268189D02*
X269022D01*
X268606D01*
Y46986D01*
X268189D01*
X270272Y45320D02*
X271105D01*
X270688D01*
Y47819D01*
X270272D01*
X272355Y45320D02*
X273188D01*
X272771D01*
Y47819D01*
X272355D01*
X274854Y46986D02*
X275687D01*
X276103Y46569D01*
Y45320D01*
X274854D01*
X274437Y45736D01*
X274854Y46153D01*
X276103D01*
X277353Y47402D02*
Y46986D01*
X276936D01*
X277769D01*
X277353D01*
Y45736D01*
X277769Y45320D01*
X279435D02*
X280269D01*
X280685Y45736D01*
Y46569D01*
X280269Y46986D01*
X279435D01*
X279019Y46569D01*
Y45736D01*
X279435Y45320D01*
X281518Y46986D02*
Y45320D01*
Y46153D01*
X281935Y46569D01*
X282351Y46986D01*
X282768D01*
X284017Y45320D02*
X284850D01*
X284434D01*
Y47819D01*
X284017Y47402D01*
X210508Y152093D02*
Y150011D01*
X210925Y149594D01*
X211758D01*
X212174Y150011D01*
Y152093D01*
X214673Y149594D02*
X213007D01*
X214673Y151260D01*
Y151677D01*
X214257Y152093D01*
X213424D01*
X213007Y151677D01*
X147219Y221644D02*
Y224143D01*
X148469D01*
X148885Y223727D01*
Y222894D01*
X148469Y222477D01*
X147219D01*
X148052D02*
X148885Y221644D01*
X151384D02*
X149718D01*
X151384Y223310D01*
Y223727D01*
X150968Y224143D01*
X150135D01*
X149718Y223727D01*
X152217Y224143D02*
X153884D01*
Y223727D01*
X152217Y222061D01*
Y221644D01*
X165538Y226565D02*
Y229065D01*
X166788D01*
X167204Y228648D01*
Y227815D01*
X166788Y227398D01*
X165538D01*
X166371D02*
X167204Y226565D01*
X169703D02*
X168037D01*
X169703Y228232D01*
Y228648D01*
X169287Y229065D01*
X168454D01*
X168037Y228648D01*
X172203Y229065D02*
X171369Y228648D01*
X170536Y227815D01*
Y226982D01*
X170953Y226565D01*
X171786D01*
X172203Y226982D01*
Y227398D01*
X171786Y227815D01*
X170536D01*
X127692Y22720D02*
Y25219D01*
X128941D01*
X129358Y24802D01*
Y23969D01*
X128941Y23553D01*
X127692D01*
X131440Y22720D02*
Y25219D01*
X130191Y23969D01*
X131857D01*
X180435Y5263D02*
X179602D01*
X180018D01*
Y3181D01*
X179602Y2764D01*
X179185D01*
X178769Y3181D01*
X182934Y2764D02*
X181268D01*
X182934Y4430D01*
Y4847D01*
X182517Y5263D01*
X181684D01*
X181268Y4847D01*
D17*
X550400Y232400D02*
X552995D01*
X551697D01*
Y237590D01*
X550400D01*
X556887Y232400D02*
X560780D01*
X562077Y233698D01*
X560780Y234995D01*
X558185D01*
X556887Y236292D01*
X558185Y237590D01*
X562077D01*
X565970Y232400D02*
X568565D01*
X569862Y233698D01*
Y236292D01*
X568565Y237590D01*
X565970D01*
X564672Y236292D01*
Y233698D01*
X565970Y232400D01*
X577647Y238887D02*
X576350Y240185D01*
X573755D01*
X572457Y238887D01*
Y237590D01*
X573755Y236292D01*
X576350D01*
X577647Y234995D01*
Y233698D01*
X576350Y232400D01*
X573755D01*
X572457Y233698D01*
X580242Y232400D02*
Y240185D01*
X584134D01*
X585432Y238887D01*
Y236292D01*
X584134Y234995D01*
X580242D01*
X588027Y240185D02*
X590622D01*
X589324D01*
Y232400D01*
X588027D01*
X590622D01*
X541731Y176378D02*
X544326D01*
X543028D01*
Y168593D01*
X541731D01*
X544326D01*
X548218D02*
Y176378D01*
X550813Y173783D01*
X553408Y176378D01*
Y168593D01*
X556003Y176378D02*
Y169891D01*
X557301Y168593D01*
X559896D01*
X561193Y169891D01*
Y176378D01*
X131854Y168986D02*
X130556Y170284D01*
X127961D01*
X126664Y168986D01*
Y163796D01*
X127961Y162499D01*
X130556D01*
X131854Y163796D01*
Y166391D01*
X129259D01*
X134449Y162499D02*
Y170284D01*
X138341D01*
X139639Y168986D01*
Y166391D01*
X138341Y165094D01*
X134449D01*
X142234Y170284D02*
X144828D01*
X143531D01*
Y162499D01*
X142234D01*
X144828D01*
X152613Y170284D02*
X150018D01*
X148721Y168986D01*
Y163796D01*
X150018Y162499D01*
X152613D01*
X153911Y163796D01*
Y168986D01*
X152613Y170284D01*
X287632Y280887D02*
X286334Y282185D01*
X283739D01*
X282442Y280887D01*
Y275697D01*
X283739Y274400D01*
X286334D01*
X287632Y275697D01*
X290227Y274400D02*
Y279590D01*
X292822Y282185D01*
X295417Y279590D01*
Y274400D01*
Y278292D01*
X290227D01*
X298012Y274400D02*
Y282185D01*
X303202Y274400D01*
Y282185D01*
X310987Y274400D02*
X305797D01*
X310987Y279590D01*
Y280887D01*
X309689Y282185D01*
X307094D01*
X305797Y280887D01*
X80818Y233934D02*
X79521Y235231D01*
X76926D01*
X75628Y233934D01*
Y228744D01*
X76926Y227446D01*
X79521D01*
X80818Y228744D01*
X83413Y227446D02*
Y232636D01*
X86008Y235231D01*
X88603Y232636D01*
Y227446D01*
Y231339D01*
X83413D01*
X91198Y227446D02*
Y235231D01*
X96388Y227446D01*
Y235231D01*
X98983Y227446D02*
X101578D01*
X100280D01*
Y235231D01*
X98983Y233934D01*
X402591Y223095D02*
X401293Y224392D01*
X398698D01*
X397401Y223095D01*
Y217905D01*
X398698Y216608D01*
X401293D01*
X402591Y217905D01*
Y220500D01*
X399996D01*
X405186Y216608D02*
Y224392D01*
X409078D01*
X410376Y223095D01*
Y220500D01*
X409078Y219202D01*
X405186D01*
X418161Y223095D02*
X416863Y224392D01*
X414268D01*
X412971Y223095D01*
Y221797D01*
X414268Y220500D01*
X416863D01*
X418161Y219202D01*
Y217905D01*
X416863Y216608D01*
X414268D01*
X412971Y217905D01*
D18*
X191003Y185190D02*
X187670Y188523D01*
X191003D02*
X187670Y185190D01*
X191003Y186857D02*
X187670D01*
X189337Y188523D02*
Y185190D01*
X191003Y155975D02*
X187670Y159308D01*
X191003D02*
X187670Y155975D01*
X191003Y157641D02*
X187670D01*
X189337Y159308D02*
Y155975D01*
X204344Y140138D02*
X207677Y136805D01*
X204344D02*
X207677Y140138D01*
X204344Y138472D02*
X207677D01*
X206011Y136805D02*
Y140138D01*
X141582Y21442D02*
X144915Y24775D01*
Y21442D02*
X141582Y24775D01*
X143248Y21442D02*
Y24775D01*
X144915Y23109D02*
X141582D01*
D19*
X287429Y244000D02*
Y242001D01*
Y243000D01*
X291428D01*
Y244000D01*
X287429Y239002D02*
Y236003D01*
X288429Y235003D01*
X289429Y236003D01*
Y238002D01*
X290428Y239002D01*
X291428Y238002D01*
Y235003D01*
X287429Y232004D02*
Y230005D01*
X288429Y229005D01*
X290428D01*
X291428Y230005D01*
Y232004D01*
X290428Y233003D01*
X288429D01*
X287429Y232004D01*
X292428Y223007D02*
X293427Y224007D01*
Y226006D01*
X292428Y227006D01*
X291428D01*
X290428Y226006D01*
Y224007D01*
X289429Y223007D01*
X288429D01*
X287429Y224007D01*
Y226006D01*
X288429Y227006D01*
X287429Y221007D02*
X293427D01*
Y218008D01*
X292428Y217009D01*
X290428D01*
X289429Y218008D01*
Y221007D01*
X293427Y215009D02*
Y213010D01*
Y214010D01*
X287429D01*
Y215009D01*
Y213010D01*
X231822Y180875D02*
X230823Y181875D01*
X228823D01*
X227824Y180875D01*
Y176876D01*
X228823Y175876D01*
X230823D01*
X231822Y176876D01*
X233822Y175876D02*
Y179875D01*
X235821Y181875D01*
X237820Y179875D01*
Y175876D01*
Y178876D01*
X233822D01*
X239820Y175876D02*
Y181875D01*
X243818Y175876D01*
Y181875D01*
X249817Y175876D02*
X245818D01*
X249817Y179875D01*
Y180875D01*
X248817Y181875D01*
X246817D01*
X245818Y180875D01*
X611906Y3899D02*
X613905D01*
X612906D01*
Y-2099D01*
X611906D01*
X613905D01*
X616904D02*
Y3899D01*
X618904Y1900D01*
X620903Y3899D01*
Y-2099D01*
X622902Y3899D02*
Y-1099D01*
X623902Y-2099D01*
X625901D01*
X626901Y-1099D01*
Y3899D01*
X231821Y202361D02*
X230821Y203361D01*
X228822D01*
X227822Y202361D01*
Y198362D01*
X228822Y197362D01*
X230821D01*
X231821Y198362D01*
X233820Y197362D02*
Y201361D01*
X235820Y203361D01*
X237819Y201361D01*
Y197362D01*
Y200362D01*
X233820D01*
X239818Y197362D02*
Y203361D01*
X243817Y197362D01*
Y203361D01*
X245816Y197362D02*
X247816D01*
X246816D01*
Y203361D01*
X245816Y202361D01*
D20*
X84043Y29789D02*
X84709Y30455D01*
X86042D01*
X86708Y29789D01*
Y29123D01*
X86042Y28456D01*
X85375D01*
X86042D01*
X86708Y27790D01*
Y27123D01*
X86042Y26457D01*
X84709D01*
X84043Y27123D01*
X88041Y30455D02*
Y27790D01*
X89374Y26457D01*
X90707Y27790D01*
Y30455D01*
X92040Y29789D02*
X92706Y30455D01*
X94039D01*
X94706Y29789D01*
Y29123D01*
X94039Y28456D01*
X93373D01*
X94039D01*
X94706Y27790D01*
Y27123D01*
X94039Y26457D01*
X92706D01*
X92040Y27123D01*
X96039Y26457D02*
Y29123D01*
X97372Y30455D01*
X98704Y29123D01*
Y26457D01*
Y28456D01*
X96039D01*
X66431Y29941D02*
X67098Y30608D01*
X68431D01*
X69097Y29941D01*
Y29275D01*
X68431Y28608D01*
X67764D01*
X68431D01*
X69097Y27942D01*
Y27275D01*
X68431Y26609D01*
X67098D01*
X66431Y27275D01*
X70430Y30608D02*
Y27942D01*
X71763Y26609D01*
X73096Y27942D01*
Y30608D01*
X74429Y29941D02*
X75095Y30608D01*
X76428D01*
X77095Y29941D01*
Y29275D01*
X76428Y28608D01*
X75762D01*
X76428D01*
X77095Y27942D01*
Y27275D01*
X76428Y26609D01*
X75095D01*
X74429Y27275D01*
X78427Y30608D02*
Y26609D01*
X80427D01*
X81093Y27275D01*
Y29941D01*
X80427Y30608D01*
X78427D01*
X36513Y26712D02*
X33847D01*
X36513Y29378D01*
Y30044D01*
X35847Y30711D01*
X34514D01*
X33847Y30044D01*
X39845Y26712D02*
Y30711D01*
X37846Y28711D01*
X40512D01*
X41845Y30711D02*
Y28045D01*
X43178Y26712D01*
X44511Y28045D01*
Y30711D01*
X53076Y30823D02*
X50411D01*
Y28824D01*
X51744Y29490D01*
X52410D01*
X53076Y28824D01*
Y27491D01*
X52410Y26824D01*
X51077D01*
X50411Y27491D01*
X54409Y30823D02*
Y28157D01*
X55742Y26824D01*
X57075Y28157D01*
Y30823D01*
M02*
