G04*
G04 #@! TF.GenerationSoftware,Altium Limited,Altium Designer,22.1.2 (22)*
G04*
G04 Layer_Physical_Order=1*
G04 Layer_Color=255*
%FSLAX25Y25*%
%MOIN*%
G70*
G04*
G04 #@! TF.SameCoordinates,56094753-5DA1-4506-B589-AA1800A80C84*
G04*
G04*
G04 #@! TF.FilePolarity,Positive*
G04*
G01*
G75*
%ADD13C,0.00600*%
%ADD19C,0.01000*%
%ADD20C,0.00800*%
%ADD22O,0.05906X0.11260*%
%ADD23O,0.11260X0.05906*%
%ADD24C,0.00787*%
%ADD25R,0.05906X0.05906*%
%ADD26R,0.05906X0.05906*%
%ADD27R,0.03772X0.03788*%
%ADD28R,0.04331X0.06693*%
%ADD29R,0.02756X0.03543*%
%ADD30R,0.05750X0.02100*%
%ADD31R,0.06102X0.03937*%
%ADD32R,0.03937X0.06102*%
%ADD33R,0.03150X0.05512*%
%ADD34R,0.03150X0.05906*%
%ADD35R,0.05118X0.05906*%
%ADD36R,0.02756X0.06890*%
%ADD37R,0.07087X0.13583*%
%ADD38R,0.07505X0.06121*%
%ADD39R,0.07087X0.03937*%
%ADD40R,0.03394X0.02985*%
%ADD41R,0.02756X0.03347*%
%ADD42R,0.17323X0.07480*%
%ADD43R,0.05315X0.03347*%
%ADD44R,0.02953X0.03543*%
%ADD45R,0.04921X0.03150*%
%ADD46R,0.03740X0.03740*%
%ADD47R,0.03543X0.02756*%
G04:AMPARAMS|DCode=48|XSize=37.4mil|YSize=137.8mil|CornerRadius=2.06mil|HoleSize=0mil|Usage=FLASHONLY|Rotation=180.000|XOffset=0mil|YOffset=0mil|HoleType=Round|Shape=RoundedRectangle|*
%AMROUNDEDRECTD48*
21,1,0.03740,0.13368,0,0,180.0*
21,1,0.03329,0.13780,0,0,180.0*
1,1,0.00411,-0.01664,0.06684*
1,1,0.00411,0.01664,0.06684*
1,1,0.00411,0.01664,-0.06684*
1,1,0.00411,-0.01664,-0.06684*
%
%ADD48ROUNDEDRECTD48*%
%ADD49R,0.04528X0.02362*%
%ADD50R,0.02047X0.02047*%
%ADD51R,0.02047X0.02047*%
%ADD52R,0.02362X0.04528*%
%ADD53R,0.01575X0.05906*%
%ADD54R,0.00900X0.04800*%
%ADD55R,0.04800X0.00900*%
%ADD56R,0.03504X0.12047*%
%ADD57R,0.21063X0.33622*%
%ADD58R,0.11811X0.07874*%
%ADD59R,0.02362X0.03937*%
%ADD60R,0.01772X0.03937*%
%ADD61R,0.06693X0.04331*%
%ADD62R,0.03150X0.03543*%
%ADD63R,0.03937X0.12598*%
%ADD64R,0.03150X0.03543*%
%ADD65R,0.02972X0.01000*%
%ADD66R,0.06890X0.09646*%
%ADD67O,0.01772X0.07480*%
%ADD68R,0.06299X0.04921*%
%ADD69R,0.03543X0.04724*%
%ADD70R,0.03740X0.05315*%
%ADD71R,0.05512X0.06102*%
%ADD72R,0.05118X0.05709*%
%ADD73R,0.05315X0.03740*%
%ADD74R,0.06102X0.05906*%
G04:AMPARAMS|DCode=75|XSize=413.39mil|YSize=346.46mil|CornerRadius=1.73mil|HoleSize=0mil|Usage=FLASHONLY|Rotation=180.000|XOffset=0mil|YOffset=0mil|HoleType=Round|Shape=RoundedRectangle|*
%AMROUNDEDRECTD75*
21,1,0.41339,0.34299,0,0,180.0*
21,1,0.40992,0.34646,0,0,180.0*
1,1,0.00347,-0.20496,0.17150*
1,1,0.00347,0.20496,0.17150*
1,1,0.00347,0.20496,-0.17150*
1,1,0.00347,-0.20496,-0.17150*
%
%ADD75ROUNDEDRECTD75*%
%ADD76R,0.19685X0.08465*%
%ADD77R,0.01400X0.03200*%
%ADD78R,0.01400X0.05000*%
%ADD79R,0.07480X0.07480*%
%ADD80R,0.06299X0.05512*%
%ADD81R,0.01355X0.05315*%
%ADD82R,0.03150X0.03150*%
%ADD83R,0.03543X0.03150*%
%ADD84R,0.03347X0.03740*%
%ADD85R,0.04134X0.04134*%
%ADD86R,0.02913X0.10984*%
%ADD87O,0.07677X0.01181*%
%ADD88R,0.05118X0.03937*%
%ADD89R,0.03937X0.05118*%
%ADD103R,0.04724X0.04724*%
%ADD141C,0.06260*%
%ADD142R,0.06260X0.06260*%
%ADD143C,0.12008*%
%ADD145C,0.05118*%
%ADD146R,0.05118X0.05118*%
%ADD151R,0.09150X0.09150*%
%ADD152C,0.10243*%
%ADD154R,0.05512X0.08268*%
%ADD155C,0.01200*%
%ADD156C,0.02500*%
%ADD157C,0.02000*%
%ADD158C,0.03500*%
%ADD159C,0.06000*%
%ADD160C,0.04000*%
%ADD161C,0.02000*%
%ADD162R,0.06142X0.06142*%
%ADD163C,0.06142*%
%ADD164C,0.18012*%
%ADD165C,0.27165*%
%ADD166C,0.05906*%
%ADD167C,0.04567*%
%ADD168R,0.04567X0.04567*%
%ADD169O,0.03543X0.06299*%
%ADD170C,0.29134*%
%ADD171C,0.01987*%
%ADD172C,0.01988*%
G36*
X642209Y288846D02*
X640664Y287899D01*
X638848Y286348D01*
X637298Y284533D01*
X636051Y282498D01*
X635137Y280292D01*
X634580Y277971D01*
X634392Y275590D01*
X634580Y273211D01*
X635137Y270889D01*
X636051Y268684D01*
X637298Y266648D01*
X638848Y264833D01*
X640664Y263282D01*
X642699Y262035D01*
X644905Y261121D01*
X647226Y260564D01*
X649606Y260377D01*
X651986Y260564D01*
X654308Y261121D01*
X656513Y262035D01*
X658549Y263282D01*
X660364Y264833D01*
X661914Y266648D01*
X662162Y267052D01*
X662643Y266916D01*
X662645Y206266D01*
X662145Y206192D01*
X661956Y206814D01*
X661064Y208483D01*
X659864Y209945D01*
X658401Y211146D01*
X656733Y212038D01*
X654922Y212587D01*
X653039Y212772D01*
X651156Y212587D01*
X649345Y212038D01*
X647676Y211146D01*
X646213Y209945D01*
X645013Y208483D01*
X644121Y206814D01*
X643572Y205003D01*
X643386Y203120D01*
X643572Y201237D01*
X644121Y199426D01*
X645013Y197757D01*
X646213Y196295D01*
X647676Y195094D01*
X649345Y194202D01*
X651156Y193653D01*
X653039Y193468D01*
X654922Y193653D01*
X656733Y194202D01*
X658401Y195094D01*
X659864Y196295D01*
X661064Y197757D01*
X661956Y199426D01*
X662145Y200048D01*
X662645Y199974D01*
X662650Y8663D01*
X662169Y8527D01*
X661914Y8942D01*
X660364Y10758D01*
X658549Y12308D01*
X656513Y13556D01*
X654308Y14469D01*
X651986Y15026D01*
X649606Y15214D01*
X647226Y15026D01*
X644905Y14469D01*
X642699Y13556D01*
X640664Y12308D01*
X638848Y10758D01*
X637298Y8942D01*
X636051Y6907D01*
X635137Y4701D01*
X634580Y2380D01*
X634392Y0D01*
X634580Y-2380D01*
X635137Y-4701D01*
X636051Y-6907D01*
X637298Y-8942D01*
X638848Y-10758D01*
X640664Y-12308D01*
X642699Y-13556D01*
X643737Y-13985D01*
X643638Y-14485D01*
X579888Y-14485D01*
X579750Y-14239D01*
X579705Y-13985D01*
X591888Y-1803D01*
X591897Y-1810D01*
X592761Y-2168D01*
X593688Y-2290D01*
X594616Y-2168D01*
X595480Y-1810D01*
X596222Y-1240D01*
X596792Y-498D01*
X597150Y366D01*
X597272Y1293D01*
X597150Y2221D01*
X597117Y2300D01*
X597162Y2329D01*
X597593Y2531D01*
X599478Y646D01*
X599775Y447D01*
X600126Y377D01*
X600136D01*
Y-2259D01*
X607241D01*
Y4846D01*
X600136D01*
Y3232D01*
X599674Y3041D01*
X598888Y3827D01*
X598888Y3827D01*
X596222Y6493D01*
X595924Y6692D01*
X595574Y6761D01*
X589534D01*
X589183Y6692D01*
X588886Y6493D01*
X588041Y5647D01*
X587842Y5350D01*
X587772Y5000D01*
Y-1404D01*
X577893Y-11284D01*
X571884D01*
X571693Y-10822D01*
X578345Y-4169D01*
X578544Y-3872D01*
X578545Y-3868D01*
X579572D01*
Y2825D01*
X582131D01*
Y5586D01*
X582245Y5756D01*
X582369Y6378D01*
X582245Y7000D01*
X582131Y7170D01*
Y9931D01*
X579101D01*
Y32774D01*
X579031Y33125D01*
X578833Y33422D01*
X569269Y42986D01*
Y50004D01*
X569199Y50355D01*
X569000Y50652D01*
X558469Y61183D01*
X558676Y61683D01*
X563426D01*
Y65034D01*
X563457Y65267D01*
Y70621D01*
X563335Y71549D01*
X562977Y72413D01*
X562407Y73155D01*
X561871Y73566D01*
X562041Y74066D01*
X565580D01*
X565749Y73566D01*
X565213Y73155D01*
X564644Y72413D01*
X564286Y71549D01*
X564164Y70621D01*
Y65267D01*
X564195Y65034D01*
Y61683D01*
X571300D01*
Y65034D01*
X571331Y65267D01*
Y70621D01*
X571209Y71549D01*
X570851Y72413D01*
X570281Y73155D01*
X569745Y73566D01*
X569915Y74066D01*
X573454D01*
X573623Y73566D01*
X573088Y73155D01*
X572518Y72413D01*
X572160Y71549D01*
X572038Y70621D01*
Y65267D01*
X572069Y65034D01*
Y61683D01*
X579174D01*
Y65034D01*
X579205Y65267D01*
Y70621D01*
X579083Y71549D01*
X578725Y72413D01*
X578155Y73155D01*
X577619Y73566D01*
X577789Y74066D01*
X581328D01*
X581497Y73566D01*
X580962Y73155D01*
X580392Y72413D01*
X580034Y71549D01*
X579912Y70621D01*
Y65267D01*
X579943Y65034D01*
Y61683D01*
X587048D01*
Y65034D01*
X587079Y65267D01*
Y70621D01*
X586957Y71549D01*
X586599Y72413D01*
X586029Y73155D01*
X585493Y73566D01*
X585663Y74066D01*
X589202D01*
X589371Y73566D01*
X588836Y73155D01*
X588266Y72413D01*
X587908Y71549D01*
X587786Y70621D01*
Y65267D01*
X587817Y65034D01*
Y61683D01*
X594922D01*
Y65034D01*
X594953Y65267D01*
Y70621D01*
X594831Y71549D01*
X594473Y72413D01*
X593903Y73155D01*
X593367Y73566D01*
X593537Y74066D01*
X597076D01*
X597246Y73566D01*
X596710Y73155D01*
X596140Y72413D01*
X595782Y71549D01*
X595660Y70621D01*
Y65267D01*
X595691Y65034D01*
Y61683D01*
X602796D01*
Y65034D01*
X602827Y65267D01*
Y70621D01*
X602705Y71549D01*
X602347Y72413D01*
X601777Y73155D01*
X601241Y73566D01*
X601411Y74066D01*
X604950D01*
X605120Y73566D01*
X604584Y73155D01*
X604014Y72413D01*
X603656Y71549D01*
X603534Y70621D01*
Y65267D01*
X603565Y65034D01*
Y61683D01*
X610670D01*
Y65034D01*
X610701Y65267D01*
Y70621D01*
X610579Y71549D01*
X610221Y72413D01*
X609651Y73155D01*
X609116Y73566D01*
X609285Y74066D01*
X612824D01*
X612993Y73566D01*
X612458Y73155D01*
X611888Y72413D01*
X611530Y71549D01*
X611408Y70621D01*
Y65267D01*
X611439Y65034D01*
Y61683D01*
X618544D01*
Y65034D01*
X618575Y65267D01*
Y70621D01*
X618453Y71549D01*
X618095Y72413D01*
X617525Y73155D01*
X616990Y73566D01*
X617159Y74066D01*
X620488D01*
X620624Y74010D01*
X620701Y73438D01*
X620332Y73155D01*
X619762Y72413D01*
X619404Y71549D01*
X619282Y70621D01*
Y65267D01*
X619313Y65034D01*
Y61683D01*
X626418D01*
Y65034D01*
X626449Y65267D01*
Y70621D01*
X626327Y71549D01*
X625969Y72413D01*
X625399Y73155D01*
X625080Y73400D01*
X625250Y73900D01*
X628355D01*
X628525Y73400D01*
X628206Y73155D01*
X627636Y72413D01*
X627278Y71549D01*
X627156Y70621D01*
Y65267D01*
X627187Y65034D01*
Y61683D01*
X634292D01*
Y65034D01*
X634323Y65267D01*
Y70621D01*
X634201Y71549D01*
X633843Y72413D01*
X633273Y73155D01*
X632954Y73400D01*
X633124Y73900D01*
X635789D01*
X636191Y74066D01*
X644320D01*
X644490Y73566D01*
X643954Y73155D01*
X643384Y72413D01*
X643026Y71549D01*
X642904Y70621D01*
Y67586D01*
X642858Y67235D01*
Y61762D01*
X638178Y57082D01*
X637601Y56330D01*
X637239Y55455D01*
X637115Y54516D01*
Y44028D01*
X635569D01*
Y33678D01*
X645919D01*
Y44028D01*
X644374D01*
Y53012D01*
X649054Y57692D01*
X649631Y58444D01*
X649993Y59320D01*
X650117Y60259D01*
Y67235D01*
X650071Y67585D01*
Y70621D01*
X649949Y71549D01*
X649591Y72413D01*
X649021Y73155D01*
X648486Y73566D01*
X648655Y74066D01*
X652194D01*
X652364Y73566D01*
X651828Y73155D01*
X651258Y72413D01*
X650900Y71549D01*
X650778Y70621D01*
Y65267D01*
X650809Y65034D01*
Y61714D01*
X654129D01*
X654362Y61684D01*
X654595Y61714D01*
X657914D01*
Y65034D01*
X657945Y65267D01*
Y70621D01*
X657823Y71549D01*
X657465Y72413D01*
X656895Y73155D01*
X656360Y73566D01*
X656529Y74066D01*
X661055D01*
X661514Y74257D01*
X661704Y74716D01*
Y153850D01*
X661514Y154309D01*
X661055Y154499D01*
X635070D01*
X634611Y154309D01*
X634421Y153850D01*
Y146625D01*
X624188D01*
X624089Y147125D01*
X624657Y147361D01*
X625399Y147930D01*
X625969Y148672D01*
X626327Y149537D01*
X626449Y150464D01*
Y154626D01*
X626802D01*
X627262Y154816D01*
X627452Y155275D01*
Y158983D01*
X636536D01*
X636995Y159173D01*
X637186Y159632D01*
Y166990D01*
X641597D01*
Y166037D01*
X645947D01*
Y170386D01*
X641597D01*
Y169433D01*
X637186D01*
Y170869D01*
X636995Y171328D01*
X636536Y171519D01*
X635069D01*
X635046Y171509D01*
X629735D01*
X629616Y171459D01*
X629486Y171459D01*
X629395Y171368D01*
X629276Y171319D01*
X629226Y171199D01*
X629135Y171107D01*
X628959Y170680D01*
X628959Y170552D01*
X628910Y170433D01*
Y169344D01*
X626961D01*
Y170869D01*
X626771Y171328D01*
X626312Y171519D01*
X623422D01*
X623303Y171469D01*
X623174D01*
X622943Y171374D01*
X622852Y171282D01*
X622732Y171233D01*
X622683Y171113D01*
X622592Y171022D01*
Y170893D01*
X622542Y170774D01*
Y164172D01*
X619887D01*
X619428Y163982D01*
X619237Y163523D01*
Y155446D01*
X619282Y155338D01*
Y150464D01*
X619404Y149537D01*
X619762Y148672D01*
X620332Y147930D01*
X621074Y147361D01*
X621642Y147125D01*
X621543Y146625D01*
X616314D01*
X616215Y147125D01*
X616783Y147361D01*
X617525Y147930D01*
X618095Y148672D01*
X618453Y149537D01*
X618575Y150464D01*
Y155818D01*
X618544Y156051D01*
Y159403D01*
X612734D01*
X608034Y164103D01*
Y165635D01*
X608045Y165636D01*
X608909Y165994D01*
X609651Y166563D01*
X610221Y167306D01*
X610579Y168170D01*
X610701Y169097D01*
X610579Y170025D01*
X610221Y170889D01*
X609651Y171631D01*
X608909Y172201D01*
X608045Y172559D01*
X607118Y172681D01*
X606190Y172559D01*
X605326Y172201D01*
X604584Y171631D01*
X604014Y170889D01*
X603656Y170025D01*
X603534Y169097D01*
X603656Y168170D01*
X604014Y167306D01*
X604584Y166563D01*
X605326Y165994D01*
X606190Y165636D01*
X606202Y165635D01*
Y163724D01*
X606271Y163373D01*
X606470Y163076D01*
X609681Y159864D01*
X609490Y159403D01*
X604860D01*
X598839Y165424D01*
X598908Y165981D01*
X598924Y166006D01*
X599651Y166563D01*
X600221Y167306D01*
X600579Y168170D01*
X600701Y169097D01*
X600579Y170025D01*
X600221Y170889D01*
X599651Y171631D01*
X598909Y172201D01*
X598045Y172559D01*
X597118Y172681D01*
X596190Y172559D01*
X595326Y172201D01*
X594584Y171631D01*
X594014Y170889D01*
X593656Y170025D01*
X593534Y169097D01*
X593656Y168170D01*
X594014Y167306D01*
X594584Y166563D01*
X595326Y165994D01*
X596190Y165636D01*
X596807Y165555D01*
Y165245D01*
X596876Y164894D01*
X597075Y164597D01*
X601807Y159864D01*
X601616Y159403D01*
X595691D01*
Y156051D01*
X595660Y155818D01*
Y150464D01*
X595782Y149537D01*
X596140Y148672D01*
X596710Y147930D01*
X597452Y147361D01*
X598020Y147125D01*
X597921Y146625D01*
X592692D01*
X592593Y147125D01*
X593161Y147361D01*
X593903Y147930D01*
X594473Y148672D01*
X594831Y149537D01*
X594953Y150464D01*
Y155818D01*
X594922Y156051D01*
Y159403D01*
X589112D01*
X574924Y173591D01*
X574626Y173790D01*
X574276Y173860D01*
X571214D01*
X571007Y174360D01*
X590996Y194349D01*
X591030Y194323D01*
X591923Y193953D01*
X592881Y193827D01*
X593840Y193953D01*
X594733Y194323D01*
X595500Y194911D01*
X596088Y195678D01*
X596458Y196571D01*
X596584Y197529D01*
X596458Y198488D01*
X596088Y199381D01*
X595500Y200148D01*
X594733Y200736D01*
X593840Y201106D01*
X592881Y201232D01*
X591923Y201106D01*
X591030Y200736D01*
X590263Y200148D01*
X589675Y199381D01*
X589305Y198488D01*
X589179Y197529D01*
X589305Y196571D01*
X589675Y195678D01*
X589701Y195644D01*
X569593Y175536D01*
X561971D01*
X561779Y175998D01*
X580130Y194349D01*
X580164Y194323D01*
X581057Y193953D01*
X582015Y193827D01*
X582973Y193953D01*
X583867Y194323D01*
X584633Y194911D01*
X585222Y195678D01*
X585592Y196571D01*
X585718Y197529D01*
X585592Y198488D01*
X585222Y199381D01*
X584633Y200148D01*
X583867Y200736D01*
X582973Y201106D01*
X582015Y201232D01*
X581057Y201106D01*
X580164Y200736D01*
X579397Y200148D01*
X578809Y199381D01*
X578439Y198488D01*
X578313Y197529D01*
X578439Y196571D01*
X578809Y195678D01*
X578835Y195644D01*
X559927Y176736D01*
X558988D01*
X558797Y177198D01*
X577309Y195710D01*
X577507Y196008D01*
X577577Y196358D01*
Y205129D01*
X577619Y205134D01*
X578512Y205504D01*
X579279Y206093D01*
X579868Y206859D01*
X580237Y207752D01*
X580364Y208711D01*
X580237Y209669D01*
X579868Y210562D01*
X579279Y211329D01*
X578512Y211917D01*
X577619Y212287D01*
X576661Y212413D01*
X575703Y212287D01*
X574810Y211917D01*
X574043Y211329D01*
X573455Y210562D01*
X573085Y209669D01*
X572959Y208711D01*
X573085Y207752D01*
X573455Y206859D01*
X574043Y206093D01*
X574810Y205504D01*
X575703Y205134D01*
X575745Y205129D01*
Y196738D01*
X575180Y196173D01*
X574757Y196456D01*
X574804Y196571D01*
X574930Y197529D01*
X574804Y198488D01*
X574434Y199381D01*
X573846Y200148D01*
X573079Y200736D01*
X572186Y201106D01*
X571228Y201232D01*
X570269Y201106D01*
X569377Y200736D01*
X568610Y200148D01*
X568021Y199381D01*
X567651Y198488D01*
X567525Y197529D01*
X567651Y196571D01*
X568021Y195678D01*
X568610Y194911D01*
X569377Y194323D01*
X570269Y193953D01*
X571228Y193827D01*
X572186Y193953D01*
X572301Y194001D01*
X572584Y193577D01*
X556944Y177936D01*
X545521D01*
X545329Y178398D01*
X557877Y190945D01*
X558406Y191635D01*
X558738Y192438D01*
X558844Y193243D01*
X558983Y193419D01*
X559267Y193609D01*
X559378Y193563D01*
X560440Y193423D01*
X561503Y193563D01*
X562493Y193974D01*
X563344Y194626D01*
X563996Y195476D01*
X564406Y196467D01*
X564546Y197529D01*
X564406Y198592D01*
X563996Y199582D01*
X563769Y199879D01*
Y202019D01*
X564117Y202287D01*
X566527Y204696D01*
X566897Y204745D01*
X567887Y205155D01*
X568738Y205807D01*
X569390Y206658D01*
X569800Y207648D01*
X569940Y208711D01*
X569800Y209773D01*
X569390Y210764D01*
X568738Y211614D01*
X567887Y212266D01*
X566897Y212677D01*
X565834Y212817D01*
X564772Y212677D01*
X563781Y212266D01*
X562931Y211614D01*
X562278Y210764D01*
X561868Y209773D01*
X561819Y209403D01*
X561010Y208594D01*
X560586Y208650D01*
X559206D01*
X559153Y208711D01*
X559013Y209773D01*
X558603Y210764D01*
X557950Y211614D01*
X557100Y212266D01*
X556110Y212677D01*
X555047Y212817D01*
X553984Y212677D01*
X552994Y212266D01*
X552143Y211614D01*
X551491Y210764D01*
X551081Y209773D01*
X550941Y208711D01*
X551045Y207917D01*
X549898Y206769D01*
X547161D01*
X546300Y206656D01*
X545497Y206323D01*
X544807Y205794D01*
X542629Y203616D01*
X542100Y202927D01*
X541963Y202594D01*
X541768Y202124D01*
X541654Y201263D01*
Y192610D01*
X541654Y192610D01*
X541768Y191748D01*
X541982Y191232D01*
X512304Y161554D01*
X511775Y160864D01*
X511637Y160532D01*
X511443Y160062D01*
X511329Y159200D01*
Y66716D01*
X511443Y65854D01*
X511637Y65384D01*
X511775Y65051D01*
X512304Y64362D01*
X524318Y52349D01*
X525007Y51820D01*
X525810Y51487D01*
X526671Y51374D01*
X527635D01*
X527865Y51029D01*
X527890Y50874D01*
X527783Y50057D01*
X527896Y49196D01*
X528229Y48393D01*
X528758Y47704D01*
X529447Y47175D01*
X530250Y46842D01*
X531111Y46729D01*
X535160D01*
X536021Y46842D01*
X536111Y46880D01*
X536201Y46842D01*
X537063Y46729D01*
X541111D01*
X541973Y46842D01*
X542776Y47175D01*
X542952Y47310D01*
X546942Y43320D01*
X547631Y42791D01*
X548434Y42459D01*
X549296Y42345D01*
X553674D01*
X554535Y42459D01*
X555005Y42654D01*
X555338Y42791D01*
X556027Y43320D01*
X559065Y46358D01*
X559349Y46729D01*
X561111D01*
X561973Y46842D01*
X562776Y47175D01*
X563465Y47704D01*
X563994Y48393D01*
X564326Y49196D01*
X564440Y50057D01*
X564416Y50242D01*
X564889Y50475D01*
X565567Y49797D01*
Y9930D01*
X562536D01*
Y8140D01*
X562243Y7960D01*
X561978Y8063D01*
X561752Y8207D01*
X561694Y8498D01*
X561496Y8795D01*
X556237Y14054D01*
X555939Y14253D01*
X555589Y14322D01*
X552651D01*
X550187Y16786D01*
X550283Y17045D01*
X550443Y17237D01*
X551111Y17149D01*
X551864Y17248D01*
X552565Y17539D01*
X553168Y18001D01*
X553630Y18603D01*
X553921Y19305D01*
X554020Y20057D01*
X553921Y20810D01*
X553630Y21511D01*
X553168Y22114D01*
X552565Y22576D01*
X551864Y22867D01*
X551111Y22966D01*
X550359Y22867D01*
X549657Y22576D01*
X549055Y22114D01*
X548593Y21511D01*
X548302Y20810D01*
X548247Y20391D01*
X547722Y20233D01*
X506307Y61648D01*
X506010Y61846D01*
X505660Y61916D01*
X415378D01*
X415223Y62149D01*
X414695Y62501D01*
X414074Y62625D01*
X413452Y62501D01*
X412924Y62149D01*
X412572Y61622D01*
X412449Y61000D01*
X412466Y60913D01*
X412066Y60362D01*
X411947Y60348D01*
X411570Y60725D01*
X411625Y61000D01*
X411501Y61622D01*
X411149Y62149D01*
X410622Y62501D01*
X410000Y62625D01*
X409378Y62501D01*
X408851Y62149D01*
X408499Y61622D01*
X408375Y61000D01*
X408493Y60407D01*
X408471Y60377D01*
X408006Y60187D01*
X350213Y117981D01*
X349915Y118179D01*
X349565Y118249D01*
X323895D01*
X323544Y118179D01*
X323247Y117981D01*
X322485Y117219D01*
X298095D01*
Y121159D01*
Y125096D01*
Y129033D01*
Y133101D01*
X295025D01*
X294945Y133117D01*
X292904D01*
X292523Y133499D01*
Y134938D01*
X294509D01*
X294627Y134859D01*
X295094Y134766D01*
X295795D01*
X296262Y134859D01*
X296380Y134938D01*
X298095D01*
Y135072D01*
X301589D01*
Y133269D01*
X305544D01*
Y138012D01*
X301589D01*
Y136904D01*
X298095D01*
Y137038D01*
X297759D01*
X297442Y137425D01*
X297444Y137438D01*
X297321Y138060D01*
X296968Y138587D01*
X296441Y138939D01*
X295819Y139063D01*
X295198Y138939D01*
X294670Y138587D01*
X294318Y138060D01*
X294195Y137438D01*
X294197Y137425D01*
X293880Y137038D01*
X292523D01*
Y155884D01*
X296742Y160103D01*
X296941Y160400D01*
X297010Y160751D01*
Y172617D01*
X297243Y172772D01*
X297596Y173300D01*
X297719Y173921D01*
X297596Y174543D01*
X297243Y175070D01*
X296716Y175423D01*
X296094Y175546D01*
X295473Y175423D01*
X295102Y175175D01*
X294602Y175388D01*
Y179258D01*
X294532Y179609D01*
X294334Y179906D01*
X281534Y192706D01*
Y207942D01*
X281464Y208293D01*
X281265Y208590D01*
X261601Y228255D01*
X261608Y228264D01*
X261966Y229128D01*
X262088Y230055D01*
X261966Y230983D01*
X261608Y231847D01*
X261038Y232589D01*
X260296Y233159D01*
X259432Y233517D01*
X258504Y233639D01*
X257577Y233517D01*
X256713Y233159D01*
X255971Y232589D01*
X255401Y231847D01*
X255043Y230983D01*
X254921Y230055D01*
X255043Y229128D01*
X255401Y228264D01*
X255971Y227521D01*
X256713Y226952D01*
X257577Y226594D01*
X258504Y226472D01*
X259432Y226594D01*
X260296Y226952D01*
X260305Y226959D01*
X279702Y207563D01*
Y193242D01*
X279434D01*
X279083Y193173D01*
X278786Y192974D01*
X277871Y192059D01*
X277409Y192251D01*
Y194604D01*
X277521Y194772D01*
X277591Y195122D01*
Y206898D01*
X277521Y207248D01*
X277323Y207545D01*
X267009Y217859D01*
X266712Y218058D01*
X266361Y218127D01*
X261728D01*
X251601Y228255D01*
X251608Y228264D01*
X251966Y229128D01*
X252088Y230055D01*
X251966Y230983D01*
X251608Y231847D01*
X251038Y232589D01*
X250296Y233159D01*
X249432Y233517D01*
X248504Y233639D01*
X247577Y233517D01*
X246713Y233159D01*
X245971Y232589D01*
X245401Y231847D01*
X245043Y230983D01*
X244921Y230055D01*
X245043Y229128D01*
X245401Y228264D01*
X245971Y227521D01*
X246713Y226952D01*
X247577Y226594D01*
X248504Y226472D01*
X249432Y226594D01*
X250296Y226952D01*
X250305Y226959D01*
X259875Y217389D01*
X259684Y216927D01*
X252928D01*
X241601Y228255D01*
X241608Y228264D01*
X241966Y229128D01*
X242088Y230055D01*
X241966Y230983D01*
X241608Y231847D01*
X241038Y232589D01*
X240296Y233159D01*
X239432Y233517D01*
X238504Y233639D01*
X237577Y233517D01*
X236713Y233159D01*
X235971Y232589D01*
X235401Y231847D01*
X235043Y230983D01*
X234921Y230055D01*
X235043Y229128D01*
X235401Y228264D01*
X235971Y227521D01*
X236713Y226952D01*
X237577Y226594D01*
X238504Y226472D01*
X239432Y226594D01*
X240296Y226952D01*
X240305Y226959D01*
X251901Y215364D01*
X252198Y215165D01*
X252548Y215095D01*
X265485D01*
X274559Y206021D01*
Y203281D01*
X274059Y203014D01*
X273741Y203226D01*
X272825Y203408D01*
X266411D01*
X265495Y203226D01*
X264718Y202707D01*
X264302Y202292D01*
X264259Y202226D01*
X262935D01*
Y198664D01*
X264434D01*
X265079Y198233D01*
X265996Y198050D01*
X266912Y198233D01*
X267491Y198619D01*
X270431D01*
Y197709D01*
X268103Y195381D01*
X266411D01*
X265495Y195198D01*
X264817Y194746D01*
X262935D01*
Y191183D01*
X264597D01*
X264706Y191052D01*
X264472Y190552D01*
X261020D01*
X260206Y191366D01*
Y194589D01*
X260136Y194939D01*
X259938Y195237D01*
X259928Y195246D01*
Y198163D01*
X259938Y198173D01*
X260136Y198470D01*
X260206Y198821D01*
Y202069D01*
X260136Y202420D01*
X259938Y202717D01*
X259311Y203344D01*
X259014Y203542D01*
X258663Y203612D01*
X258654D01*
X246119Y216147D01*
X245822Y216346D01*
X245472Y216416D01*
X243440D01*
X231601Y228255D01*
X231608Y228264D01*
X231966Y229128D01*
X232088Y230055D01*
X231966Y230983D01*
X231608Y231847D01*
X231038Y232589D01*
X230296Y233159D01*
X229432Y233517D01*
X228504Y233639D01*
X227577Y233517D01*
X226713Y233159D01*
X225971Y232589D01*
X225401Y231847D01*
X225043Y230983D01*
X224921Y230055D01*
X225043Y229128D01*
X225401Y228264D01*
X225971Y227521D01*
X226713Y226952D01*
X227577Y226594D01*
X228504Y226472D01*
X229432Y226594D01*
X230296Y226952D01*
X230305Y226959D01*
X242412Y214852D01*
X242710Y214653D01*
X243060Y214583D01*
X245092D01*
X256988Y202688D01*
X256796Y202226D01*
X253093D01*
Y198664D01*
X257997D01*
X258096Y198543D01*
Y194867D01*
X257997Y194746D01*
X253093D01*
Y191183D01*
X254538D01*
Y184115D01*
X254630Y183647D01*
X254688Y183562D01*
Y179040D01*
X254408Y178622D01*
X254285Y178000D01*
X254408Y177378D01*
X254761Y176851D01*
X255288Y176499D01*
X255909Y176375D01*
X256531Y176499D01*
X257059Y176851D01*
X257411Y177378D01*
X257534Y178000D01*
X257411Y178622D01*
X257131Y179040D01*
Y183574D01*
X258277D01*
Y186821D01*
X256981D01*
Y191183D01*
X258374D01*
Y190987D01*
X258444Y190636D01*
X258642Y190339D01*
X259993Y188988D01*
X260291Y188789D01*
X260641Y188720D01*
X260641Y188720D01*
X271014D01*
X271170Y188487D01*
X271697Y188135D01*
X272319Y188011D01*
X272941Y188135D01*
X273468Y188487D01*
X273820Y189014D01*
X273877Y189300D01*
X274377Y189251D01*
Y187144D01*
X274225Y186916D01*
X274155Y186566D01*
Y174018D01*
X273655Y173750D01*
X273399Y173921D01*
X272778Y174045D01*
X272156Y173921D01*
X271629Y173569D01*
X271276Y173042D01*
X271270Y173010D01*
X270316D01*
X270040Y173510D01*
X270110Y173858D01*
X270017Y174323D01*
X269754Y174717D01*
X269505Y174883D01*
X269536Y175039D01*
X269413Y175661D01*
X269060Y176188D01*
X268533Y176541D01*
X267911Y176664D01*
X267289Y176541D01*
X266762Y176188D01*
X266410Y175661D01*
X266293Y175072D01*
X265688D01*
X265648Y175080D01*
X253773D01*
X253305Y174987D01*
X252909Y174722D01*
X251176Y172990D01*
X248949D01*
Y168247D01*
X251176D01*
X252536Y166887D01*
X252329Y166387D01*
X248949D01*
Y161644D01*
X250010D01*
Y160194D01*
X248949D01*
Y155879D01*
X242995D01*
X241749Y157125D01*
Y160954D01*
X241733Y161036D01*
X241777Y161143D01*
X242067Y161523D01*
X242103Y161543D01*
X242545Y161631D01*
X243073Y161984D01*
X243425Y162511D01*
X243548Y163133D01*
X243425Y163754D01*
X243073Y164281D01*
X242840Y164437D01*
Y165704D01*
X243491Y166355D01*
X243689Y166652D01*
X243759Y167003D01*
Y184158D01*
X243689Y184508D01*
X243491Y184805D01*
X214123Y214173D01*
X213825Y214372D01*
X213475Y214441D01*
X208036D01*
X207880Y214674D01*
X207353Y215026D01*
X207178Y215061D01*
X207014Y215604D01*
X208830Y217420D01*
X209359Y218110D01*
X209691Y218913D01*
X209805Y219774D01*
X209691Y220635D01*
X209359Y221438D01*
X208830Y222128D01*
X208141Y222656D01*
X207338Y222989D01*
X206476Y223102D01*
X206232Y223317D01*
Y229282D01*
X206586Y229635D01*
X219470Y229604D01*
Y239004D01*
X216244D01*
Y249753D01*
X216130Y250614D01*
X215798Y251417D01*
X215269Y252107D01*
X209518Y257857D01*
X209551Y258111D01*
X209409Y259189D01*
X208993Y260194D01*
X208331Y261057D01*
X207469Y261719D01*
X206464Y262135D01*
X205386Y262277D01*
X204308Y262135D01*
X203303Y261719D01*
X202939Y261440D01*
X201219D01*
X200357Y261326D01*
X199992Y261175D01*
X199627Y261326D01*
X198766Y261440D01*
X198728D01*
Y262241D01*
X190469D01*
Y253981D01*
X195789D01*
Y238480D01*
X195902Y237618D01*
X196097Y237148D01*
X196235Y236816D01*
X196764Y236126D01*
X197825Y235065D01*
Y222834D01*
X197098Y222739D01*
X196295Y222406D01*
X195605Y221877D01*
X195473Y221704D01*
X194973Y221874D01*
Y224944D01*
X194217D01*
Y225912D01*
X194481D01*
Y230655D01*
X194217D01*
Y231859D01*
X194973D01*
Y236603D01*
X191017D01*
Y231859D01*
X191773D01*
Y230655D01*
X190733D01*
X190639Y230715D01*
X190334Y231155D01*
X190418Y231789D01*
Y234231D01*
X190304Y235093D01*
X189972Y235895D01*
X189467Y236553D01*
Y237003D01*
X188898D01*
X188753Y237114D01*
X187951Y237446D01*
X187089Y237560D01*
X186228Y237446D01*
X185425Y237114D01*
X185281Y237003D01*
X184711D01*
Y236553D01*
X184207Y235895D01*
X183874Y235093D01*
X183805Y234570D01*
X183203Y234321D01*
X182514Y233792D01*
X181877Y233155D01*
X181348Y232465D01*
X181210Y232133D01*
X181015Y231663D01*
X180948Y231150D01*
X180404Y231042D01*
X179877Y230690D01*
X179525Y230163D01*
X179500Y230042D01*
X178654D01*
Y225299D01*
X178300Y224946D01*
X178064D01*
Y220006D01*
X178656D01*
Y214580D01*
X177342Y213267D01*
X176849Y213169D01*
X176322Y212817D01*
X175970Y212290D01*
X175846Y211668D01*
X175970Y211046D01*
X176322Y210519D01*
X176849Y210167D01*
X177471Y210043D01*
X178093Y210167D01*
X178620Y210519D01*
X178972Y211046D01*
X179070Y211539D01*
X180742Y213210D01*
X181006Y213607D01*
X181099Y214074D01*
Y216649D01*
X181599Y216818D01*
X181877Y216457D01*
X184354Y213979D01*
X184172Y213454D01*
X183522Y213185D01*
X182832Y212656D01*
X177572Y207395D01*
X177043Y206706D01*
X176905Y206373D01*
X176710Y205903D01*
X176597Y205041D01*
Y178666D01*
X176210Y178349D01*
X176125Y178366D01*
X175503Y178242D01*
X174976Y177890D01*
X174820Y177657D01*
X170778D01*
Y178391D01*
X163828D01*
Y175091D01*
X165251D01*
X165324Y174996D01*
X165240Y174318D01*
X164949Y174094D01*
X164716Y173791D01*
X163428D01*
Y169691D01*
X164716D01*
X164949Y169387D01*
Y169194D01*
X164575Y168791D01*
X163428D01*
Y167126D01*
X162966Y166935D01*
X160415Y169485D01*
Y174337D01*
X160346Y174688D01*
X160147Y174985D01*
X155171Y179961D01*
Y183212D01*
X148656D01*
Y178665D01*
X153876D01*
X158583Y173958D01*
Y169106D01*
X158653Y168755D01*
X158852Y168458D01*
X163812Y163498D01*
Y162491D01*
X163828Y162410D01*
Y160091D01*
X170778D01*
Y163391D01*
X170778Y163391D01*
X170797Y163883D01*
X171455Y164387D01*
X172105Y165037D01*
X175599D01*
X176461Y165151D01*
X176931Y165345D01*
X177263Y165483D01*
X177953Y166012D01*
X179159Y167219D01*
X179621Y167027D01*
Y164219D01*
X179286Y163717D01*
X179143Y162996D01*
X179286Y162275D01*
X179695Y161664D01*
X180306Y161255D01*
X181027Y161112D01*
X181749Y161255D01*
X182360Y161664D01*
X182838Y162142D01*
X183247Y162753D01*
X183390Y163475D01*
Y167566D01*
X185681Y169856D01*
X188753D01*
X189474Y170000D01*
X189610Y170091D01*
X192228D01*
Y173391D01*
X189610D01*
X189474Y173482D01*
X188753Y173625D01*
X185400D01*
X184962Y174125D01*
X185004Y174442D01*
Y174704D01*
X185278Y175091D01*
X185504Y175091D01*
X192228D01*
Y175825D01*
X199542D01*
X199893Y175894D01*
X200190Y176093D01*
X206332Y182235D01*
X206832Y182028D01*
Y176572D01*
X192917Y162657D01*
X192228D01*
Y163391D01*
X185278D01*
Y160091D01*
X192228D01*
Y160825D01*
X193297D01*
X193647Y160894D01*
X193944Y161093D01*
X208128Y175276D01*
X213938D01*
X213938Y182382D01*
X214403Y182465D01*
X215454D01*
X217289Y180630D01*
X217282Y180621D01*
X216924Y179756D01*
X216802Y178829D01*
X216924Y177901D01*
X217282Y177037D01*
X217851Y176295D01*
X218593Y175726D01*
X219457Y175368D01*
X220385Y175246D01*
X221312Y175368D01*
X221391Y175400D01*
X221674Y174976D01*
X216552Y169854D01*
X208736D01*
X208385Y169784D01*
X208088Y169586D01*
X203835Y165332D01*
X203560Y165387D01*
X202938Y165263D01*
X202411Y164911D01*
X202059Y164384D01*
X201935Y163762D01*
X202059Y163140D01*
X202411Y162613D01*
X202938Y162261D01*
X203560Y162137D01*
X204182Y162261D01*
X204709Y162613D01*
X205011Y163065D01*
X205284Y163107D01*
X205556Y163065D01*
X205858Y162613D01*
X206385Y162261D01*
X207007Y162137D01*
X207629Y162261D01*
X208156Y162613D01*
X208312Y162846D01*
X213453D01*
X213803Y162916D01*
X214100Y163115D01*
X226785Y175799D01*
X226983Y176096D01*
X227053Y176446D01*
Y189130D01*
X226983Y189481D01*
X226785Y189778D01*
X221256Y195307D01*
Y196760D01*
X221267Y196762D01*
X222131Y197120D01*
X222874Y197689D01*
X223443Y198431D01*
X223801Y199295D01*
X223923Y200223D01*
X223801Y201150D01*
X223768Y201229D01*
X224192Y201512D01*
X241927Y183778D01*
Y169550D01*
X241427Y169283D01*
X241171Y169454D01*
X240549Y169578D01*
X239927Y169454D01*
X239400Y169102D01*
X239048Y168575D01*
X238924Y167953D01*
X238979Y167678D01*
X236154Y164853D01*
X233130D01*
X232780Y164783D01*
X232482Y164585D01*
X230450Y162552D01*
X230251Y162255D01*
X230181Y161904D01*
Y158075D01*
X229719Y157613D01*
X220237D01*
X219887Y157543D01*
X219614Y157361D01*
X159743D01*
X145942Y171161D01*
Y200106D01*
X145873Y200457D01*
X145674Y200754D01*
X135766Y210662D01*
X135468Y210861D01*
X135118Y210931D01*
X74332D01*
X73981Y210861D01*
X73684Y210662D01*
X69172Y206151D01*
X68583Y206267D01*
X68341Y206851D01*
X67753Y207618D01*
X66986Y208207D01*
X66093Y208576D01*
X65135Y208702D01*
X64176Y208576D01*
X64061Y208529D01*
X63778Y208953D01*
X71146Y216320D01*
X151344D01*
X151499Y216087D01*
X152027Y215735D01*
X152648Y215612D01*
X153270Y215735D01*
X153797Y216087D01*
X154150Y216615D01*
X154273Y217236D01*
X154150Y217858D01*
X153797Y218385D01*
X153270Y218738D01*
X152648Y218861D01*
X152027Y218738D01*
X151499Y218385D01*
X151344Y218152D01*
X70766D01*
X70416Y218083D01*
X70119Y217884D01*
X58385Y206151D01*
X57796Y206267D01*
X57554Y206851D01*
X56965Y207618D01*
X56198Y208207D01*
X55305Y208576D01*
X54347Y208702D01*
X53389Y208576D01*
X52496Y208207D01*
X51729Y207618D01*
X51141Y206851D01*
X50771Y205958D01*
X50644Y205000D01*
X50771Y204042D01*
X50818Y203927D01*
X50394Y203644D01*
X49747Y204291D01*
Y207169D01*
X49678Y207519D01*
X49479Y207816D01*
X46978Y210318D01*
X46681Y210516D01*
X46330Y210586D01*
X41586D01*
X41235Y210516D01*
X40938Y210318D01*
X36771Y206151D01*
X36182Y206267D01*
X35939Y206851D01*
X35351Y207618D01*
X34584Y208207D01*
X33691Y208576D01*
X32733Y208702D01*
X31775Y208576D01*
X30882Y208207D01*
X30115Y207618D01*
X29526Y206851D01*
X29157Y205958D01*
X29030Y205000D01*
X29157Y204042D01*
X29526Y203149D01*
X30115Y202382D01*
X30882Y201794D01*
X31775Y201424D01*
X32733Y201297D01*
X33691Y201424D01*
X34584Y201794D01*
X35351Y202382D01*
X35939Y203149D01*
X36309Y204042D01*
X36315Y204084D01*
X36916D01*
X37266Y204154D01*
X37563Y204352D01*
X39568Y206356D01*
X39992Y206073D01*
X39944Y205958D01*
X39818Y205000D01*
X39944Y204042D01*
X40314Y203149D01*
X40902Y202382D01*
X41669Y201794D01*
X42562Y201424D01*
X43520Y201297D01*
X44479Y201424D01*
X45372Y201794D01*
X45405Y201819D01*
X47358Y199867D01*
X47166Y199405D01*
X46980D01*
X46629Y199335D01*
X46332Y199137D01*
X43596Y196401D01*
X43398Y196104D01*
X43328Y195753D01*
Y190428D01*
X43398Y190078D01*
X43596Y189780D01*
X51180Y182197D01*
X51477Y181998D01*
X51828Y181928D01*
X89668D01*
X104249Y167347D01*
X104058Y166885D01*
X78038D01*
X77736Y166825D01*
X77481Y166655D01*
X77310Y166399D01*
X77250Y166097D01*
Y131798D01*
X77310Y131496D01*
X77481Y131240D01*
X77736Y131069D01*
X78038Y131009D01*
X119030D01*
X119332Y131069D01*
X119588Y131240D01*
X119759Y131496D01*
X119819Y131798D01*
Y138214D01*
X120281Y138406D01*
X138961Y119725D01*
X138754Y119225D01*
X132655D01*
Y122297D01*
X132511Y123018D01*
X132103Y123630D01*
X131491Y124038D01*
X130770Y124182D01*
X130049Y124038D01*
X129437Y123630D01*
X129029Y123018D01*
X128885Y122297D01*
Y119225D01*
X120560D01*
Y110544D01*
X139083D01*
Y118896D01*
X139583Y119103D01*
X140797Y117889D01*
X141094Y117691D01*
X141445Y117621D01*
X141925D01*
X143615Y115931D01*
Y115451D01*
X143684Y115100D01*
X143883Y114803D01*
X169509Y89177D01*
X169806Y88978D01*
X170157Y88909D01*
X188054D01*
Y84766D01*
X188810D01*
Y83013D01*
X187129D01*
Y75121D01*
X188692D01*
Y73171D01*
X187148D01*
Y65278D01*
X191369D01*
X191479Y65256D01*
X195310D01*
X196398Y64169D01*
X196206Y63707D01*
X186823D01*
X182719Y67810D01*
X182422Y68009D01*
X182072Y68078D01*
X169351D01*
X169001Y68009D01*
X168704Y67810D01*
X167585Y66691D01*
X157332D01*
Y78861D01*
X158197D01*
Y83998D01*
X154635D01*
Y82345D01*
X151484D01*
X151134Y82275D01*
X150837Y82077D01*
X147293Y78533D01*
X145377D01*
X145026Y78464D01*
X144729Y78265D01*
X144391Y77927D01*
X141730D01*
Y75562D01*
X140971Y74803D01*
X140773Y74505D01*
X140703Y74155D01*
Y69814D01*
X140470Y69658D01*
X140118Y69131D01*
X139994Y68509D01*
X140118Y67887D01*
X140470Y67360D01*
X140997Y67008D01*
X141619Y66884D01*
X142241Y67008D01*
X142768Y67360D01*
X143120Y67887D01*
X143244Y68509D01*
X143120Y69131D01*
X142768Y69658D01*
X142535Y69814D01*
Y73775D01*
X142731Y73971D01*
X146474D01*
Y76701D01*
X147672D01*
X148023Y76771D01*
X148320Y76970D01*
X151864Y80513D01*
X154635D01*
Y78861D01*
X155500D01*
Y66675D01*
X154635D01*
Y61538D01*
X158197D01*
Y64859D01*
X167964D01*
X168315Y64929D01*
X168612Y65127D01*
X169731Y66246D01*
X181692D01*
X185439Y62499D01*
X185232Y61999D01*
X172765D01*
X172298Y61906D01*
X171901Y61641D01*
X155871Y45611D01*
X146357D01*
X145889Y45518D01*
X145492Y45253D01*
X96954Y-3285D01*
X95063D01*
Y501D01*
X95085Y611D01*
Y4442D01*
X96715Y6071D01*
X96979Y6468D01*
X97072Y6935D01*
Y12415D01*
X96979Y12883D01*
X96715Y13279D01*
X89960Y20034D01*
X89563Y20299D01*
X89096Y20392D01*
X88567D01*
Y25863D01*
X83036D01*
Y17970D01*
X87257D01*
X87367Y17948D01*
X88590D01*
X93635Y12903D01*
X93444Y12441D01*
X87170D01*
Y12289D01*
X82073D01*
X81449Y12165D01*
X80920Y11812D01*
X80567Y11283D01*
X80443Y10659D01*
X80462Y10564D01*
X79744Y9845D01*
X79479Y9449D01*
X79386Y8981D01*
Y3007D01*
X78886Y2800D01*
X78485Y3200D01*
X78089Y3465D01*
X77653Y3552D01*
X75057Y6148D01*
X75247Y6648D01*
X77647D01*
Y12179D01*
X69754D01*
X69412Y12537D01*
Y18122D01*
X70956D01*
Y26015D01*
X65646D01*
X65391Y26501D01*
X65553Y26753D01*
X82026D01*
X82650Y26877D01*
X83179Y27230D01*
X87929Y31980D01*
X88126Y32020D01*
X88737Y32428D01*
X89146Y33040D01*
X89289Y33761D01*
X89146Y34482D01*
X88737Y35093D01*
X82753Y41077D01*
X82142Y41486D01*
X81421Y41629D01*
X71168D01*
Y44577D01*
X52948D01*
X45653Y51872D01*
X45041Y52281D01*
X44320Y52424D01*
X37255D01*
Y60268D01*
X37065Y60728D01*
X36606Y60918D01*
X-13082D01*
X-13582Y61400D01*
X-13582Y75951D01*
X-13582Y75951D01*
X-4000D01*
Y75520D01*
X1478D01*
X1685Y75020D01*
X968Y74302D01*
X769Y74005D01*
X699Y73655D01*
Y73571D01*
X-4000D01*
Y69221D01*
X2122D01*
Y72275D01*
X2263Y72416D01*
X2462Y72714D01*
X2531Y73064D01*
Y73275D01*
X3650Y74394D01*
X3849Y74692D01*
X3919Y75042D01*
Y80704D01*
X3849Y81055D01*
X3650Y81352D01*
X3637Y81366D01*
Y85836D01*
X5827D01*
X6327Y85836D01*
X6531Y85836D01*
X10805D01*
X11031Y85836D01*
X11305Y85449D01*
Y85444D01*
X10109Y84248D01*
X9844Y83851D01*
X9800Y83628D01*
X6004Y79832D01*
X5739Y79436D01*
X5646Y78968D01*
Y78181D01*
X5739Y77713D01*
X6004Y77317D01*
X6400Y77052D01*
X6868Y76959D01*
X7336Y77052D01*
X7732Y77317D01*
X7997Y77713D01*
X8090Y78181D01*
Y78462D01*
X9841Y80213D01*
X10303Y80022D01*
Y74923D01*
X15243D01*
Y81438D01*
X13995D01*
Y82132D01*
X14891Y83028D01*
X15207D01*
X15675Y83121D01*
X16071Y83386D01*
X18391Y85706D01*
X18478Y85836D01*
X20827D01*
X21327Y85836D01*
X21531Y85836D01*
X22457D01*
Y81635D01*
X20046D01*
Y76455D01*
X14479Y70888D01*
X11680D01*
Y64964D01*
X16423D01*
Y68987D01*
X16445Y69097D01*
Y69398D01*
X21355Y74308D01*
X21855Y74101D01*
Y71577D01*
X19721D01*
Y64275D01*
X26002D01*
X26140Y63941D01*
X26600Y63751D01*
X36740D01*
X36967Y63845D01*
X37198Y63939D01*
X37198Y63941D01*
X37199Y63941D01*
X37293Y64169D01*
X37389Y64398D01*
X37462Y84041D01*
X78084Y84041D01*
X78125Y84058D01*
X85122D01*
X102497Y68835D01*
X102711Y68762D01*
X102920Y68673D01*
X135453Y68412D01*
X135454Y68413D01*
X135456Y68412D01*
X135685Y68506D01*
X135914Y68599D01*
X135914Y68600D01*
X135916Y68601D01*
X136271Y68953D01*
X136271Y68954D01*
X136272Y68955D01*
X136367Y69183D01*
X136463Y69411D01*
X136462Y69413D01*
X136463Y69414D01*
Y83791D01*
X136272Y84251D01*
X130770Y89753D01*
X130311Y89943D01*
X117296D01*
X116837Y89753D01*
X116647Y89294D01*
Y87232D01*
X113005D01*
Y89294D01*
X112815Y89753D01*
X112356Y89943D01*
X109430D01*
X108971Y89753D01*
X108781Y89294D01*
Y87232D01*
X105337D01*
Y89294D01*
X105146Y89753D01*
X104687Y89943D01*
X100875D01*
Y91311D01*
X97018D01*
X96999Y91339D01*
X96472Y91691D01*
X96047Y91776D01*
X96096Y92276D01*
X100875D01*
Y97216D01*
X96088D01*
X94756Y98548D01*
Y102269D01*
X95199D01*
X95513Y102331D01*
X95779Y102509D01*
X95957Y102776D01*
X96020Y103090D01*
Y116458D01*
X95957Y116773D01*
X95779Y117039D01*
X95513Y117217D01*
X95199Y117280D01*
X91870D01*
X91556Y117217D01*
X91289Y117039D01*
X91285Y117034D01*
X91275Y117038D01*
X91082Y117141D01*
X91050Y117131D01*
X91018Y117144D01*
X90622D01*
X90513Y117217D01*
X90199Y117280D01*
X86870D01*
X86555Y117217D01*
X86446Y117144D01*
X86050D01*
X86019Y117131D01*
X85986Y117141D01*
X85793Y117038D01*
X85783Y117034D01*
X85779Y117039D01*
X85513Y117217D01*
X85199Y117280D01*
X81870D01*
X81555Y117217D01*
X81289Y117039D01*
X81111Y116773D01*
X81048Y116458D01*
Y108071D01*
X80924Y107988D01*
X80572Y107461D01*
X80448Y106839D01*
X80572Y106217D01*
X80924Y105690D01*
X81048Y105607D01*
Y103090D01*
X81111Y102776D01*
X81289Y102509D01*
X81555Y102331D01*
X81870Y102269D01*
X82885D01*
Y100620D01*
X26082D01*
X26082Y100620D01*
X26082Y100620D01*
X25849Y100524D01*
X25623Y100430D01*
X25623Y100430D01*
X25623Y100429D01*
X25269Y100076D01*
X25269Y100075D01*
X25269Y100075D01*
X25174Y99844D01*
X25080Y99616D01*
X25080Y99616D01*
X25080Y99616D01*
X25080Y99437D01*
X24727Y99083D01*
X21531D01*
X21031Y99083D01*
X20827Y99083D01*
X16327D01*
Y91417D01*
X16305Y91307D01*
Y87076D01*
X14701Y85472D01*
X14385D01*
X14249Y85444D01*
X13749Y85822D01*
Y90801D01*
X14543Y91595D01*
X14808Y91992D01*
X14901Y92459D01*
X14808Y92927D01*
X14543Y93323D01*
X14146Y93588D01*
X13679Y93681D01*
X13211Y93588D01*
X12815Y93323D01*
X11663Y92171D01*
X11531Y91974D01*
X11031Y92125D01*
Y99083D01*
X6531D01*
X6031Y99083D01*
X5827Y99083D01*
X2266D01*
Y130050D01*
X2076Y130509D01*
X1617Y130699D01*
X-13582D01*
X-13582Y267769D01*
X-13082Y267910D01*
X-12308Y266648D01*
X-10758Y264833D01*
X-8942Y263282D01*
X-6907Y262035D01*
X-4701Y261121D01*
X-2380Y260564D01*
X0Y260377D01*
X2380Y260564D01*
X4701Y261121D01*
X6907Y262035D01*
X8942Y263282D01*
X10758Y264833D01*
X12308Y266648D01*
X13556Y268684D01*
X14469Y270889D01*
X15026Y273211D01*
X15214Y275590D01*
X15026Y277971D01*
X14469Y280292D01*
X13556Y282498D01*
X12308Y284533D01*
X10758Y286348D01*
X8942Y287899D01*
X7397Y288846D01*
X7538Y289346D01*
X642068D01*
X642209Y288846D01*
D02*
G37*
G36*
X96746Y208598D02*
X96578Y208576D01*
X95685Y208207D01*
X94918Y207618D01*
X94330Y206851D01*
X93960Y205958D01*
X93834Y205000D01*
X93960Y204042D01*
X94330Y203149D01*
X94918Y202382D01*
X95018Y202305D01*
X94849Y201805D01*
X89214D01*
X88863Y201735D01*
X88566Y201537D01*
X88275Y201246D01*
X85194D01*
X80792Y205648D01*
X80495Y205846D01*
X80144Y205916D01*
X79504D01*
X79498Y205958D01*
X79128Y206851D01*
X78540Y207618D01*
X77773Y208207D01*
X76880Y208576D01*
X76712Y208598D01*
X76745Y209099D01*
X96713D01*
X96746Y208598D01*
D02*
G37*
G36*
X217244Y202024D02*
X217236Y202015D01*
X216879Y201150D01*
X216756Y200223D01*
X216879Y199295D01*
X217236Y198431D01*
X217806Y197689D01*
X218548Y197120D01*
X219412Y196762D01*
X219424Y196760D01*
Y194927D01*
X219494Y194577D01*
X219692Y194280D01*
X225221Y188751D01*
Y182379D01*
X224759Y182188D01*
X215343Y191604D01*
X215046Y191802D01*
X214696Y191872D01*
X204082D01*
X203890Y192334D01*
X208227Y196670D01*
X213893D01*
Y203776D01*
X206787D01*
Y198110D01*
X200651Y191974D01*
X192228D01*
Y192606D01*
X185278D01*
X185004Y192992D01*
Y198919D01*
X185278Y199306D01*
X185504Y199306D01*
X187895D01*
X188031Y199215D01*
X188753Y199071D01*
X188878Y199096D01*
X197380D01*
X198101Y199240D01*
X198713Y199648D01*
X198737Y199673D01*
X199146Y200284D01*
X199289Y201006D01*
X199146Y201727D01*
X198737Y202338D01*
X198126Y202747D01*
X197405Y202890D01*
X197280Y202865D01*
X188777D01*
X188056Y202722D01*
X187883Y202606D01*
X185379Y202606D01*
X185097Y203031D01*
X186372Y204306D01*
X192228D01*
Y205040D01*
X214228D01*
X217244Y202024D01*
D02*
G37*
G36*
X119588Y171118D02*
X119396Y170656D01*
X109079D01*
X94669Y185066D01*
X94861Y185528D01*
X105177D01*
X119588Y171118D01*
D02*
G37*
G36*
X636536Y169433D02*
X632402D01*
X631935Y169340D01*
X631538Y169076D01*
X631273Y168679D01*
X631180Y168211D01*
X631273Y167744D01*
X631538Y167348D01*
X631935Y167083D01*
X632402Y166990D01*
X636536D01*
Y159632D01*
X626802D01*
Y155275D01*
X619958D01*
X619887Y155446D01*
Y163523D01*
X623192D01*
Y170774D01*
X623422Y170869D01*
X626312D01*
Y168694D01*
X629559D01*
Y170433D01*
X629735Y170860D01*
X635069D01*
Y170869D01*
X636536D01*
Y169433D01*
D02*
G37*
G36*
X261235Y172136D02*
X261186Y171890D01*
X261278Y171425D01*
X261380Y171273D01*
X261500Y170906D01*
X261380Y170538D01*
X261278Y170386D01*
X261186Y169921D01*
X261235Y169675D01*
X260911Y169175D01*
X260432D01*
X259964Y169082D01*
X259568Y168817D01*
X259433Y168681D01*
X254198D01*
X252904Y169975D01*
Y171262D01*
X254279Y172636D01*
X260911D01*
X261235Y172136D01*
D02*
G37*
G36*
X127926Y208598D02*
X127031Y208327D01*
X125362Y207435D01*
X123900Y206235D01*
X122699Y204772D01*
X121807Y203103D01*
X121258Y201292D01*
X121073Y199409D01*
X121258Y197526D01*
X121807Y195716D01*
X122699Y194047D01*
X123900Y192584D01*
X125362Y191384D01*
X127031Y190492D01*
X128842Y189943D01*
X130725Y189757D01*
X132608Y189943D01*
X134419Y190492D01*
X136088Y191384D01*
X137550Y192584D01*
X138751Y194047D01*
X139643Y195716D01*
X140192Y197526D01*
X140377Y199409D01*
X140192Y201292D01*
X139643Y203103D01*
X139202Y203928D01*
X139608Y204229D01*
X144110Y199726D01*
Y170782D01*
X144180Y170431D01*
X144379Y170134D01*
X146382Y168131D01*
X146191Y167669D01*
X140481D01*
X106613Y201537D01*
X106316Y201735D01*
X105965Y201805D01*
X100224D01*
X100054Y202305D01*
X100154Y202382D01*
X100742Y203149D01*
X101112Y204042D01*
X101239Y205000D01*
X101112Y205958D01*
X100742Y206851D01*
X100154Y207618D01*
X99387Y208207D01*
X98494Y208576D01*
X98326Y208598D01*
X98359Y209099D01*
X127852D01*
X127926Y208598D01*
D02*
G37*
G36*
X586059Y159864D02*
X585868Y159403D01*
X579943D01*
Y156051D01*
X579912Y155818D01*
Y150464D01*
X580034Y149537D01*
X580392Y148672D01*
X580962Y147930D01*
X581704Y147361D01*
X582272Y147125D01*
X582173Y146625D01*
X576944D01*
X576845Y147125D01*
X577413Y147361D01*
X578155Y147930D01*
X578725Y148672D01*
X579083Y149537D01*
X579205Y150464D01*
Y155818D01*
X579174Y156051D01*
Y159403D01*
X572069D01*
Y156051D01*
X572038Y155818D01*
Y150464D01*
X572160Y149537D01*
X572518Y148672D01*
X573088Y147930D01*
X573830Y147361D01*
X574398Y147125D01*
X574299Y146625D01*
X569070D01*
X568971Y147125D01*
X569539Y147361D01*
X570281Y147930D01*
X570851Y148672D01*
X571209Y149537D01*
X571331Y150464D01*
Y155818D01*
X571300Y156051D01*
Y159403D01*
X564195D01*
Y156051D01*
X564164Y155818D01*
Y150464D01*
X564286Y149537D01*
X564644Y148672D01*
X565213Y147930D01*
X565956Y147361D01*
X566524Y147125D01*
X566425Y146625D01*
X561196D01*
X561097Y147125D01*
X561665Y147361D01*
X562407Y147930D01*
X562977Y148672D01*
X563335Y149537D01*
X563457Y150464D01*
Y155818D01*
X563426Y156051D01*
Y159403D01*
X556321D01*
Y156051D01*
X556290Y155818D01*
Y150464D01*
X556412Y149537D01*
X556770Y148672D01*
X557339Y147930D01*
X558082Y147361D01*
X558650Y147125D01*
X558551Y146625D01*
X545448D01*
X545349Y147125D01*
X545917Y147361D01*
X546659Y147930D01*
X547229Y148672D01*
X547587Y149537D01*
X547709Y150464D01*
Y155818D01*
X547678Y156051D01*
Y159403D01*
X540573D01*
Y156051D01*
X540542Y155818D01*
Y150464D01*
X540664Y149537D01*
X541022Y148672D01*
X541592Y147930D01*
X542334Y147361D01*
X542902Y147125D01*
X542802Y146625D01*
X535070D01*
X534611Y146435D01*
X534421Y145976D01*
Y140747D01*
X533947Y140586D01*
X533903Y140643D01*
X533161Y141213D01*
X532297Y141571D01*
X531369Y141693D01*
X526015D01*
X525782Y141662D01*
X522774D01*
Y155337D01*
X539131Y171694D01*
X539674Y171530D01*
X539734Y171228D01*
X540086Y170701D01*
X540463Y170449D01*
X540479Y170399D01*
Y169943D01*
X540463Y169893D01*
X540086Y169641D01*
X539734Y169114D01*
X539610Y168492D01*
X539734Y167870D01*
X540086Y167343D01*
X540613Y166991D01*
X541235Y166867D01*
X541857Y166991D01*
X542384Y167343D01*
X542736Y167870D01*
X542860Y168492D01*
X542736Y169114D01*
X542384Y169641D01*
X542007Y169893D01*
X541990Y169943D01*
Y170399D01*
X542007Y170449D01*
X542384Y170701D01*
X542539Y170934D01*
X557396D01*
X557747Y171003D01*
X558044Y171202D01*
X558869Y172027D01*
X573896D01*
X586059Y159864D01*
D02*
G37*
G36*
X271276Y168496D02*
X271629Y167968D01*
X272156Y167616D01*
X272778Y167492D01*
X273220Y167580D01*
X273685Y167347D01*
X273773Y167264D01*
X273790Y167148D01*
X272002Y165360D01*
X271803Y165063D01*
X271733Y164712D01*
Y162812D01*
X271803Y162462D01*
X272002Y162164D01*
X273345Y160821D01*
X273642Y160622D01*
X273993Y160553D01*
X275965D01*
Y156468D01*
X276051Y156039D01*
X276293Y155676D01*
X280218Y151751D01*
Y147413D01*
X279718Y147206D01*
X271071Y155853D01*
X270774Y156051D01*
X270423Y156121D01*
X258902D01*
X258810Y156196D01*
Y156906D01*
X260162D01*
X260513Y156976D01*
X260810Y157175D01*
X262500Y158865D01*
X268896D01*
X269360Y158957D01*
X269754Y159221D01*
X270017Y159614D01*
X270110Y160079D01*
X270017Y160543D01*
X269916Y160695D01*
X269795Y161063D01*
X269916Y161431D01*
X270017Y161583D01*
X270110Y162047D01*
X270017Y162512D01*
X269754Y162906D01*
X269360Y163169D01*
X268896Y163261D01*
X262400D01*
X261935Y163169D01*
X261628Y162963D01*
X260909D01*
X260559Y162893D01*
X260261Y162695D01*
X259422Y161856D01*
X255103D01*
X254752Y161786D01*
X254455Y161588D01*
X253606Y160739D01*
X253408Y160442D01*
X253374Y160269D01*
X252904Y160194D01*
X252904Y160194D01*
X252904Y160194D01*
X251842D01*
Y161644D01*
X252904D01*
Y165943D01*
X252981Y166035D01*
X253404Y166295D01*
X253692Y166238D01*
X259939D01*
X260406Y166331D01*
X260803Y166595D01*
X260938Y166731D01*
X265648D01*
X265688Y166739D01*
X268896D01*
X269360Y166831D01*
X269754Y167095D01*
X270017Y167488D01*
X270110Y167953D01*
X270040Y168301D01*
X270316Y168801D01*
X271216D01*
X271276Y168496D01*
D02*
G37*
G36*
X279132Y160833D02*
X281082D01*
X281191Y160722D01*
X281413Y160333D01*
X281362Y160079D01*
Y159324D01*
X281439Y158934D01*
X281660Y158604D01*
X283161Y157103D01*
X283491Y156882D01*
X283881Y156805D01*
X284271Y156882D01*
X284601Y157103D01*
X284822Y157433D01*
X284899Y157823D01*
X284822Y158212D01*
X284601Y158542D01*
X283398Y159746D01*
Y160079D01*
X283347Y160333D01*
X283569Y160722D01*
X283678Y160833D01*
X285628D01*
X285897Y160887D01*
X286059Y160726D01*
X286145Y160293D01*
X286390Y159926D01*
Y155736D01*
X282943Y152289D01*
X282409Y152462D01*
X282372Y152644D01*
X282130Y153007D01*
X278205Y156932D01*
Y160633D01*
X278649Y160914D01*
X278705Y160918D01*
X279132Y160833D01*
D02*
G37*
G36*
X259215Y153739D02*
X259241Y153692D01*
Y149081D01*
X260300D01*
Y146839D01*
X242884D01*
Y153915D01*
X242993Y154048D01*
X258660D01*
X258849Y154085D01*
X259215Y153739D01*
D02*
G37*
G36*
X290691Y155096D02*
Y134143D01*
X290191Y133992D01*
X290006Y134268D01*
X289479Y134620D01*
X288857Y134744D01*
X288235Y134620D01*
X287708Y134268D01*
X287356Y133741D01*
X287232Y133119D01*
X287356Y132497D01*
X287708Y131970D01*
X288235Y131618D01*
X288422Y131581D01*
Y131071D01*
X288235Y131034D01*
X287708Y130682D01*
X287356Y130154D01*
X287232Y129533D01*
X287356Y128911D01*
X287708Y128384D01*
X288107Y128117D01*
X288136Y128013D01*
Y127665D01*
X288107Y127561D01*
X287708Y127295D01*
X287356Y126767D01*
X287232Y126146D01*
X287356Y125524D01*
X287708Y124997D01*
X288235Y124644D01*
X288857Y124521D01*
X289479Y124644D01*
X290006Y124997D01*
X290162Y125230D01*
X292094D01*
Y121159D01*
Y117222D01*
Y113285D01*
Y110024D01*
X291595Y109757D01*
X291541Y109793D01*
X290919Y109916D01*
X290297Y109793D01*
X289770Y109440D01*
X289418Y108913D01*
X289294Y108291D01*
X289418Y107669D01*
X289770Y107142D01*
X290297Y106790D01*
X290919Y106666D01*
X291541Y106790D01*
X292062Y107138D01*
X295026D01*
X295493Y107231D01*
X295610Y107309D01*
X298674D01*
X298682Y107303D01*
X299111Y107218D01*
X301589D01*
Y106058D01*
X305545D01*
Y108639D01*
X306045Y108906D01*
X306091Y108875D01*
Y95445D01*
X305629Y95253D01*
X300698Y100184D01*
Y102224D01*
X300628Y102575D01*
X300430Y102872D01*
X298593Y104709D01*
X298295Y104907D01*
X298095Y104947D01*
Y105542D01*
X292094D01*
Y101777D01*
X291316D01*
X290897Y102056D01*
X290276Y102180D01*
X289654Y102056D01*
X289127Y101704D01*
X288774Y101177D01*
X288651Y100555D01*
X288774Y99933D01*
X289127Y99406D01*
X289654Y99054D01*
X290276Y98930D01*
X290897Y99054D01*
X291315Y99333D01*
X292094D01*
Y97537D01*
Y93600D01*
Y89663D01*
Y85723D01*
X291249D01*
X291093Y85956D01*
X290566Y86308D01*
X289944Y86432D01*
X289322Y86308D01*
X288795Y85956D01*
X288443Y85429D01*
X288319Y84807D01*
X288443Y84185D01*
X288614Y83929D01*
X288347Y83429D01*
X286529D01*
X285426Y84532D01*
X285481Y84807D01*
X285357Y85429D01*
X285005Y85956D01*
X284478Y86308D01*
X283856Y86432D01*
X283234Y86308D01*
X282707Y85956D01*
X282355Y85429D01*
X282231Y84807D01*
X282355Y84185D01*
X282707Y83658D01*
X283234Y83306D01*
X283856Y83182D01*
X284131Y83237D01*
X285502Y81866D01*
X285799Y81667D01*
X286150Y81597D01*
X290907D01*
X291257Y81667D01*
X291554Y81866D01*
X291595Y81906D01*
X292094Y81882D01*
Y77852D01*
Y73915D01*
Y69975D01*
X290274D01*
X286280Y73969D01*
X285983Y74168D01*
X285632Y74237D01*
X223122D01*
X222771Y74168D01*
X222474Y73969D01*
X212211Y63707D01*
X204881D01*
X204690Y64169D01*
X206266Y65745D01*
X206531Y66141D01*
X206624Y66609D01*
Y68272D01*
X207032Y68681D01*
X207494Y68490D01*
Y66041D01*
X213494D01*
Y69674D01*
X214374D01*
X214799Y69390D01*
X215421Y69266D01*
X216043Y69390D01*
X216570Y69742D01*
X216923Y70270D01*
X217046Y70891D01*
X216923Y71513D01*
X216816Y71672D01*
X217003Y72219D01*
X217530Y72571D01*
X217882Y73099D01*
X218006Y73721D01*
X217882Y74342D01*
X217530Y74870D01*
X217003Y75222D01*
X216381Y75345D01*
X215759Y75222D01*
X215404Y74985D01*
X215157Y75168D01*
X215287Y75694D01*
X215292Y75695D01*
X215819Y76047D01*
X216171Y76574D01*
X216295Y77196D01*
X216171Y77818D01*
X215819Y78345D01*
X215292Y78697D01*
X214670Y78821D01*
X214048Y78697D01*
X213995Y78661D01*
X213494Y78928D01*
Y81789D01*
Y85726D01*
Y89663D01*
Y93600D01*
Y97674D01*
X215088D01*
X216664Y96098D01*
X216610Y95823D01*
X216734Y95201D01*
X217086Y94674D01*
X217613Y94322D01*
X218235Y94198D01*
X218857Y94322D01*
X219384Y94674D01*
X219736Y95201D01*
X219860Y95823D01*
X219736Y96445D01*
X219384Y96972D01*
X218857Y97325D01*
X218235Y97448D01*
X217960Y97394D01*
X216214Y99139D01*
X216324Y99529D01*
X216403Y99639D01*
X218837D01*
X219521Y98955D01*
X219466Y98680D01*
X219590Y98058D01*
X219942Y97531D01*
X220469Y97179D01*
X221091Y97055D01*
X221713Y97179D01*
X222240Y97531D01*
X222592Y98058D01*
X222716Y98680D01*
X222592Y99302D01*
X222240Y99829D01*
X221713Y100181D01*
X221091Y100305D01*
X220816Y100250D01*
X219864Y101203D01*
X219567Y101401D01*
X219216Y101471D01*
X213494D01*
Y101605D01*
X207494D01*
Y101573D01*
X206928D01*
X204280Y104221D01*
X203950Y104441D01*
X203560Y104519D01*
X203102D01*
X202950Y104956D01*
X202950D01*
Y106703D01*
X203450Y106855D01*
X203494Y106789D01*
X204686Y105597D01*
X205082Y105332D01*
X205550Y105239D01*
X214290D01*
X214757Y105332D01*
X215154Y105597D01*
X216510Y106953D01*
X217003Y107051D01*
X217530Y107403D01*
X217882Y107930D01*
X218006Y108552D01*
X217882Y109174D01*
X217530Y109701D01*
X217297Y109856D01*
Y115881D01*
X217561Y116146D01*
X217760Y116443D01*
X217830Y116793D01*
Y124730D01*
X217760Y125081D01*
X217561Y125378D01*
X216374Y126565D01*
X216538Y127108D01*
X216815Y127163D01*
X217342Y127515D01*
X217694Y128042D01*
X217818Y128664D01*
X217694Y129286D01*
X217342Y129813D01*
X216815Y130165D01*
X216193Y130289D01*
X215571Y130165D01*
X215044Y129813D01*
X214692Y129286D01*
X214641Y129030D01*
X213494D01*
Y131001D01*
Y135571D01*
X213995Y135953D01*
X214003Y135951D01*
X245289D01*
X245639Y136021D01*
X245936Y136220D01*
X250049Y140332D01*
X250585Y140161D01*
X250591Y140122D01*
X250309Y139699D01*
X250185Y139077D01*
X250309Y138455D01*
X250661Y137928D01*
X251188Y137576D01*
X251810Y137452D01*
X252432Y137576D01*
X252959Y137928D01*
X253311Y138455D01*
X253435Y139077D01*
X253311Y139699D01*
X252959Y140226D01*
X252789Y140339D01*
X252793Y140839D01*
X254400D01*
Y139087D01*
X254470Y138736D01*
X254668Y138439D01*
X254856Y138252D01*
Y137994D01*
X254536Y137515D01*
X254413Y136893D01*
X254536Y136271D01*
X254888Y135744D01*
X255416Y135392D01*
X256037Y135268D01*
X256659Y135392D01*
X256711Y135427D01*
X257267Y135197D01*
X257285Y135103D01*
X257638Y134575D01*
X258165Y134223D01*
X258787Y134100D01*
X259409Y134223D01*
X259936Y134575D01*
X260288Y135103D01*
X260412Y135724D01*
X260288Y136346D01*
X259936Y136873D01*
X259703Y137029D01*
Y138384D01*
X259633Y138735D01*
X259435Y139032D01*
X258632Y139835D01*
Y140553D01*
X259132Y140704D01*
X259187Y140622D01*
X264816Y134993D01*
X265113Y134794D01*
X265464Y134724D01*
X268067D01*
X268418Y134794D01*
X268715Y134993D01*
X269084Y135362D01*
X269477Y135284D01*
X270099Y135408D01*
X270626Y135760D01*
X270978Y136287D01*
X271102Y136909D01*
X270978Y137531D01*
X270626Y138058D01*
X270099Y138410D01*
X269477Y138534D01*
X268855Y138410D01*
X268328Y138058D01*
X267975Y137531D01*
X267852Y136909D01*
X267458Y136556D01*
X265843D01*
X262022Y140377D01*
X262214Y140839D01*
X262703D01*
Y143254D01*
X262782Y143372D01*
X262875Y143839D01*
X262782Y144307D01*
X262744Y144364D01*
Y149081D01*
X263196D01*
Y152100D01*
X263323Y152289D01*
X263447Y152911D01*
X263352Y153388D01*
X263323Y153533D01*
X263196Y153824D01*
X263224Y153976D01*
X263419Y154289D01*
X270043D01*
X277031Y147301D01*
X276840Y146839D01*
X264540D01*
Y140839D01*
X288293D01*
Y146839D01*
X286191D01*
Y151249D01*
X290229Y155287D01*
X290691Y155096D01*
D02*
G37*
G36*
X238711Y151205D02*
X239083Y150897D01*
Y146839D01*
X238949D01*
Y140839D01*
X240565D01*
X240615Y140339D01*
X240424Y140302D01*
X240127Y140103D01*
X239928Y139806D01*
X239859Y139455D01*
Y139397D01*
X239928Y139047D01*
X240127Y138749D01*
X240424Y138551D01*
X240775Y138481D01*
X241125Y138551D01*
X241422Y138749D01*
X241621Y139047D01*
X241691Y139397D01*
Y139455D01*
X241621Y139806D01*
X241422Y140103D01*
X241125Y140302D01*
X240935Y140339D01*
X240984Y140839D01*
X247312D01*
X247503Y140377D01*
X244909Y137783D01*
X237118D01*
X237039Y137881D01*
X237141Y138550D01*
X237211Y138597D01*
X237563Y139124D01*
X237687Y139746D01*
X237563Y140367D01*
X237211Y140895D01*
X237112Y140961D01*
Y144088D01*
X237328Y144411D01*
X237413Y144839D01*
Y151205D01*
X238711D01*
D02*
G37*
G36*
X131293Y159413D02*
X131590Y159214D01*
X131941Y159144D01*
X141176D01*
Y154650D01*
X141564D01*
Y153069D01*
X141176D01*
Y148129D01*
X145722D01*
Y151332D01*
X146184Y151523D01*
X148151Y149556D01*
Y148932D01*
X148295Y148211D01*
X148703Y147600D01*
X149182Y147121D01*
X149793Y146713D01*
X150514Y146569D01*
X151236Y146713D01*
X151847Y147121D01*
X152256Y147733D01*
X152399Y148454D01*
X152256Y149175D01*
X151921Y149677D01*
Y150337D01*
X151777Y151058D01*
X151369Y151669D01*
X145722Y157316D01*
Y157955D01*
X146184Y158146D01*
X156746Y147584D01*
X157043Y147386D01*
X157394Y147316D01*
X190230D01*
Y143019D01*
X194185D01*
Y144082D01*
X197098D01*
Y143042D01*
X201448D01*
Y147316D01*
X203397D01*
Y143042D01*
X207747D01*
Y143995D01*
X217124D01*
Y143839D01*
X217217Y143372D01*
X217296Y143254D01*
Y140839D01*
X234301D01*
X234557Y140427D01*
X234555Y140339D01*
X234437Y139746D01*
X234561Y139124D01*
X234913Y138597D01*
X234983Y138550D01*
X235085Y137881D01*
X235006Y137783D01*
X214383D01*
X213993Y138173D01*
X213695Y138372D01*
X213345Y138442D01*
X207644D01*
X207294Y138372D01*
X206996Y138173D01*
X206881Y138058D01*
X204001D01*
X202314Y139746D01*
X202016Y139944D01*
X201666Y140014D01*
X139722D01*
X123590Y156146D01*
Y166463D01*
X124051Y166654D01*
X131293Y159413D01*
D02*
G37*
G36*
X624540Y124350D02*
X613540D01*
Y135350D01*
X624540D01*
Y124350D01*
D02*
G37*
G36*
X152959Y122032D02*
Y108971D01*
X152497Y108780D01*
X145447Y115830D01*
Y116311D01*
X145377Y116662D01*
X145178Y116959D01*
X142952Y119185D01*
X142655Y119383D01*
X142305Y119453D01*
X141824D01*
X121207Y140070D01*
Y153131D01*
X121669Y153322D01*
X152959Y122032D01*
D02*
G37*
G36*
X213494Y127064D02*
X213772Y126679D01*
X213774Y126673D01*
X213972Y126376D01*
X215998Y124351D01*
Y117173D01*
X215733Y116908D01*
X215535Y116611D01*
X215465Y116261D01*
Y109856D01*
X215232Y109701D01*
X214880Y109174D01*
X214782Y108681D01*
X213995Y107894D01*
X213494Y108101D01*
Y109348D01*
Y113285D01*
Y117222D01*
Y121159D01*
Y125227D01*
X207909D01*
X207732Y125543D01*
X207686Y125727D01*
X207853Y125977D01*
X207923Y126327D01*
Y126667D01*
X208305Y127048D01*
X210345D01*
X210425Y127064D01*
X213494Y127064D01*
D02*
G37*
G36*
X199385Y137682D02*
X199215Y137426D01*
X199091Y136804D01*
X199215Y136182D01*
X199567Y135655D01*
X200094Y135303D01*
X200716Y135179D01*
X201124Y135261D01*
X201371Y135096D01*
X201535Y135063D01*
X201647Y134805D01*
X201699Y134587D01*
X201697Y134536D01*
X201385Y134070D01*
X201261Y133448D01*
X201385Y132826D01*
X201737Y132299D01*
X202265Y131947D01*
X202687Y131863D01*
X202796Y131334D01*
X202766Y131315D01*
X202414Y130788D01*
X202290Y130166D01*
X202414Y129544D01*
X202766Y129017D01*
X203018Y128849D01*
X202866Y128349D01*
X199319D01*
Y123605D01*
X201713D01*
X201818Y123105D01*
X201398Y122824D01*
X201046Y122297D01*
X200922Y121675D01*
X201046Y121053D01*
X201398Y120526D01*
X201500Y120458D01*
X201633Y119779D01*
X201580Y119700D01*
X197479D01*
Y111807D01*
X201700D01*
X201810Y111785D01*
X202485D01*
X203136Y111134D01*
Y110367D01*
X202950Y109944D01*
X197977D01*
Y104956D01*
X199526D01*
Y103501D01*
X199603Y103111D01*
X199824Y102781D01*
X200154Y102560D01*
X200544Y102483D01*
X203138D01*
X205599Y100022D01*
X205392Y99522D01*
X202915D01*
Y101449D01*
X197942D01*
Y96461D01*
X202915D01*
Y97486D01*
X207494D01*
Y93600D01*
Y89663D01*
Y85726D01*
Y81786D01*
X206150D01*
X204678Y83258D01*
X204604Y83307D01*
X203780Y84131D01*
X203483Y84330D01*
X203132Y84399D01*
X202915D01*
Y88516D01*
X200254D01*
X200216Y88573D01*
X199689Y88925D01*
X199067Y89049D01*
X198445Y88925D01*
X197918Y88573D01*
X197566Y88046D01*
X197442Y87424D01*
X197466Y87303D01*
X197013Y87022D01*
X196762Y87215D01*
Y91917D01*
X196692Y92267D01*
X196493Y92564D01*
X193059Y95999D01*
X193251Y96461D01*
X197190D01*
Y101449D01*
X194823D01*
X194616Y101948D01*
X195459Y102791D01*
X195680Y103122D01*
X195757Y103511D01*
X195757Y103511D01*
Y104956D01*
X197225D01*
Y109944D01*
X192253D01*
Y104956D01*
X193721D01*
Y103933D01*
X193220Y103432D01*
X192111D01*
X191722Y103354D01*
X191392Y103134D01*
X189180Y100922D01*
X181867D01*
X181478Y100845D01*
X181147Y100624D01*
X181147Y100624D01*
X177883Y97360D01*
X177822Y97372D01*
X177200Y97248D01*
X176673Y96896D01*
X176321Y96369D01*
X176197Y95747D01*
X176321Y95125D01*
X176673Y94598D01*
X176734Y94558D01*
X176582Y94058D01*
X168992D01*
X154791Y108259D01*
Y122411D01*
X154722Y122762D01*
X154523Y123059D01*
X139862Y137720D01*
X140053Y138182D01*
X199118D01*
X199385Y137682D01*
D02*
G37*
G36*
X534421Y80354D02*
Y74716D01*
X534611Y74257D01*
X535070Y74066D01*
X541958D01*
X542127Y73566D01*
X541592Y73155D01*
X541022Y72413D01*
X540664Y71549D01*
X540542Y70621D01*
Y65267D01*
X540573Y65034D01*
Y61822D01*
X540097Y61625D01*
X540054Y61631D01*
X531712D01*
X531445Y62131D01*
X531608Y62374D01*
X531731Y62996D01*
X531608Y63618D01*
X531255Y64145D01*
X530728Y64497D01*
X530106Y64621D01*
X529832Y64566D01*
X527271Y67127D01*
X526973Y67326D01*
X526623Y67396D01*
X525455D01*
X522774Y70077D01*
Y79439D01*
X525782D01*
X526015Y79408D01*
X531369D01*
X532297Y79530D01*
X533161Y79888D01*
X533903Y80458D01*
X533947Y80515D01*
X534421Y80354D01*
D02*
G37*
G36*
X1617Y99083D02*
X1327D01*
Y85836D01*
X1617D01*
Y76601D01*
X-13582D01*
Y130050D01*
X1617D01*
Y99083D01*
D02*
G37*
G36*
X194930Y91537D02*
Y86745D01*
X194999Y86395D01*
X195198Y86098D01*
X197912Y83384D01*
X197758Y83013D01*
X197758D01*
Y78929D01*
X197566Y78801D01*
X197214Y78274D01*
X197090Y77652D01*
X197214Y77030D01*
X197566Y76503D01*
X197758Y76375D01*
Y75549D01*
X194289D01*
X194063Y75775D01*
Y88710D01*
X193993Y89061D01*
X193795Y89358D01*
X193127Y90026D01*
X193127Y90026D01*
X192680Y90472D01*
X192383Y90671D01*
X192032Y90741D01*
X187812D01*
X187660Y91241D01*
X187848Y91366D01*
X188303Y91821D01*
X190032D01*
X190499Y91914D01*
X190896Y92179D01*
X191161Y92576D01*
X191254Y93043D01*
X191161Y93511D01*
X190896Y93907D01*
X190499Y94172D01*
X190032Y94265D01*
X187797D01*
X187330Y94172D01*
X186933Y93907D01*
X186120Y93094D01*
X185855Y92698D01*
X185762Y92230D01*
X185855Y91763D01*
X186120Y91366D01*
X186308Y91241D01*
X186156Y90741D01*
X170536D01*
X169513Y91764D01*
X169705Y92226D01*
X181846D01*
X182196Y92295D01*
X182493Y92494D01*
X185375Y95375D01*
X191092D01*
X194930Y91537D01*
D02*
G37*
G36*
X91048Y116458D02*
Y103090D01*
X91111Y102776D01*
X91137Y102737D01*
Y89294D01*
X94360D01*
Y86370D01*
X100875D01*
Y89294D01*
X104687D01*
Y86582D01*
X109430D01*
Y89294D01*
X112356D01*
Y86582D01*
X117296D01*
Y89294D01*
X130311D01*
X135813Y83791D01*
Y69414D01*
X135458Y69062D01*
X102925Y69323D01*
X85386Y84690D01*
Y84707D01*
X78084D01*
Y84690D01*
X36814Y84690D01*
X36740Y64401D01*
X26600D01*
Y84690D01*
X25761D01*
X25759Y85563D01*
X26031Y85836D01*
X26031D01*
Y99083D01*
X25730D01*
X25729Y99617D01*
X26082Y99971D01*
X83534D01*
Y102269D01*
X85199D01*
X85513Y102331D01*
X85779Y102509D01*
X85957Y102776D01*
X86020Y103090D01*
Y116458D01*
X86050Y116495D01*
X91018D01*
X91048Y116458D01*
D02*
G37*
G36*
X276393Y71905D02*
X276222Y71649D01*
X276098Y71028D01*
X276222Y70406D01*
X276574Y69879D01*
X277101Y69526D01*
X277309Y69485D01*
Y68975D01*
X277101Y68934D01*
X276574Y68582D01*
X276428Y68362D01*
X275826D01*
X275735Y68498D01*
X275208Y68850D01*
X274586Y68974D01*
X273965Y68850D01*
X273437Y68498D01*
X273307Y68303D01*
X272706D01*
X272575Y68498D01*
X272048Y68850D01*
X271426Y68974D01*
X270804Y68850D01*
X270277Y68498D01*
X270116Y68257D01*
X269515D01*
X269485Y68301D01*
X268958Y68653D01*
X268337Y68777D01*
X267715Y68653D01*
X267188Y68301D01*
X266835Y67774D01*
X266711Y67152D01*
X266835Y66530D01*
X267188Y66003D01*
X267715Y65651D01*
X268336Y65527D01*
X268611Y65142D01*
Y62239D01*
X258634D01*
Y56239D01*
X282084D01*
Y53685D01*
X278771D01*
X278632Y53713D01*
X278009Y53589D01*
X277480Y53236D01*
X277127Y52707D01*
X277027Y52206D01*
X275959Y51138D01*
X258304D01*
Y51894D01*
X257052D01*
Y59405D01*
X256967Y59833D01*
X256797Y60088D01*
Y62239D01*
X250831D01*
Y63099D01*
X251137Y63304D01*
X251489Y63831D01*
X251613Y64453D01*
X251489Y65074D01*
X251137Y65602D01*
X250610Y65954D01*
X249988Y66078D01*
X249366Y65954D01*
X248839Y65602D01*
X248486Y65074D01*
X248363Y64453D01*
X248486Y63831D01*
X248839Y63304D01*
X248999Y63197D01*
Y62239D01*
X247410D01*
X247293Y62739D01*
X247414Y62821D01*
X247766Y63348D01*
X247890Y63970D01*
X247766Y64591D01*
X247414Y65119D01*
X246887Y65471D01*
X246265Y65595D01*
X245643Y65471D01*
X245116Y65119D01*
X244921Y64827D01*
X244421Y64978D01*
Y66900D01*
X244479Y66939D01*
X244831Y67466D01*
X244955Y68088D01*
X244831Y68709D01*
X244479Y69237D01*
X243952Y69589D01*
X243330Y69713D01*
X242708Y69589D01*
X242181Y69237D01*
X241829Y68709D01*
X241705Y68088D01*
X241829Y67466D01*
X242181Y66939D01*
X242589Y66666D01*
Y62239D01*
X238947D01*
Y64844D01*
X239226Y65229D01*
X239848Y65353D01*
X240375Y65705D01*
X240727Y66233D01*
X240851Y66854D01*
X240727Y67476D01*
X240375Y68003D01*
X239848Y68356D01*
X239226Y68479D01*
X238604Y68356D01*
X238077Y68003D01*
X238005Y67896D01*
X237505Y68048D01*
Y68748D01*
X237794Y69180D01*
X237918Y69802D01*
X237794Y70424D01*
X237442Y70951D01*
X236915Y71303D01*
X236293Y71427D01*
X235671Y71303D01*
X235144Y70951D01*
X234792Y70424D01*
X234668Y69802D01*
X234792Y69180D01*
X234893Y69028D01*
X234564Y68622D01*
X234094Y68715D01*
X233472Y68591D01*
X232945Y68239D01*
X232593Y67712D01*
X232469Y67090D01*
X232593Y66468D01*
X232945Y65941D01*
X232649Y65552D01*
X232519Y65639D01*
X232169Y65709D01*
X231818Y65639D01*
X231521Y65440D01*
X231322Y65143D01*
X231299Y65025D01*
X231251Y64953D01*
X231181Y64602D01*
Y62239D01*
X230078D01*
Y63451D01*
X230357Y63869D01*
X230481Y64490D01*
X230357Y65112D01*
X230005Y65640D01*
X229478Y65992D01*
X228856Y66115D01*
X228234Y65992D01*
X227909Y65775D01*
X227747Y65771D01*
X227384Y65920D01*
X227345Y65953D01*
X227313Y66153D01*
X227603Y66587D01*
X227727Y67208D01*
X227603Y67830D01*
X227251Y68357D01*
X226723Y68710D01*
X226102Y68833D01*
X225480Y68710D01*
X224953Y68357D01*
X224600Y67830D01*
X224477Y67208D01*
X224600Y66587D01*
X224953Y66059D01*
X225304Y65825D01*
Y64568D01*
X225177Y64478D01*
X224804Y64378D01*
X223722Y65459D01*
X223785Y65553D01*
X223909Y66175D01*
X223785Y66797D01*
X223433Y67324D01*
X222906Y67676D01*
X222284Y67800D01*
X221662Y67676D01*
X221135Y67324D01*
X220783Y66797D01*
X220659Y66175D01*
X220783Y65553D01*
X221135Y65026D01*
X221662Y64674D01*
X221979Y64611D01*
X223335Y63255D01*
Y62239D01*
X219125D01*
Y63407D01*
X219055Y63758D01*
X219000Y63841D01*
X219122Y64453D01*
X218998Y65074D01*
X218646Y65602D01*
X218119Y65954D01*
X217817Y66014D01*
X217652Y66556D01*
X223501Y72405D01*
X276126D01*
X276393Y71905D01*
D02*
G37*
G36*
X542036Y23328D02*
X541940Y23070D01*
X541779Y22878D01*
X541111Y22966D01*
X540359Y22867D01*
X539657Y22576D01*
X539055Y22114D01*
X538593Y21511D01*
X538302Y20810D01*
X538203Y20057D01*
X538302Y19305D01*
X538593Y18603D01*
X539055Y18001D01*
X539657Y17539D01*
X540359Y17248D01*
X541111Y17149D01*
X541864Y17248D01*
X542565Y17539D01*
X543168Y18001D01*
X543630Y18603D01*
X543921Y19305D01*
X544020Y20057D01*
X543932Y20725D01*
X544124Y20886D01*
X544382Y20982D01*
X546313Y19051D01*
Y18449D01*
X546382Y18099D01*
X546581Y17801D01*
X547508Y16874D01*
X547317Y16412D01*
X537603D01*
X537252Y16342D01*
X536955Y16144D01*
X536547Y15735D01*
X536251Y15794D01*
X535630Y15670D01*
X535102Y15318D01*
X534750Y14791D01*
X534690Y14489D01*
X534148Y14325D01*
X533699Y14773D01*
X533402Y14972D01*
X533051Y15042D01*
X513335D01*
X512985Y14972D01*
X512688Y14773D01*
X495792Y-2122D01*
X479974D01*
X479915Y-1622D01*
X480896Y-1386D01*
X482959Y-532D01*
X484862Y635D01*
X486560Y2084D01*
X488010Y3782D01*
X489176Y5685D01*
X490030Y7748D01*
X490551Y9919D01*
X490727Y12144D01*
X490551Y14370D01*
X490030Y16540D01*
X489176Y18603D01*
X488010Y20506D01*
X486560Y22204D01*
X484862Y23654D01*
X482959Y24820D01*
X480896Y25674D01*
X478726Y26195D01*
X476500Y26371D01*
X474274Y26195D01*
X472104Y25674D01*
X470041Y24820D01*
X468138Y23654D01*
X466440Y22204D01*
X464991Y20506D01*
X463824Y18603D01*
X462970Y16540D01*
X462449Y14370D01*
X462274Y12144D01*
X462449Y9919D01*
X462970Y7748D01*
X463824Y5685D01*
X464352Y4825D01*
X463956Y4513D01*
X450774Y17695D01*
Y21142D01*
X450704Y21492D01*
X450506Y21790D01*
X413421Y58874D01*
X413436Y58992D01*
X413986Y59392D01*
X414074Y59375D01*
X414695Y59499D01*
X415223Y59851D01*
X415378Y60084D01*
X505280D01*
X542036Y23328D01*
D02*
G37*
G36*
X360487Y36107D02*
Y22275D01*
X360557Y21925D01*
X360755Y21628D01*
X361612Y20771D01*
Y11608D01*
X361379Y11452D01*
X361027Y10925D01*
X360903Y10303D01*
X361027Y9681D01*
X361379Y9154D01*
X361906Y8802D01*
X362528Y8678D01*
X363150Y8802D01*
X363677Y9154D01*
X364029Y9681D01*
X364153Y10303D01*
X364029Y10925D01*
X363677Y11452D01*
X363444Y11608D01*
Y19983D01*
X363906Y20174D01*
X364402Y19678D01*
X364699Y19480D01*
X365050Y19410D01*
X370196D01*
X370388Y18948D01*
X368828Y17388D01*
X368629Y17091D01*
X368560Y16740D01*
Y5422D01*
X368629Y5071D01*
X368828Y4774D01*
X375531Y-1929D01*
X375828Y-2128D01*
X376179Y-2198D01*
X395976D01*
X400977Y-7199D01*
X400970Y-7208D01*
X400612Y-8072D01*
X400490Y-9000D01*
X400612Y-9928D01*
X400970Y-10792D01*
X401540Y-11534D01*
X402282Y-12103D01*
X402361Y-12136D01*
X402261Y-12636D01*
X399005D01*
X397626Y-11257D01*
Y-5447D01*
X390521D01*
Y-12553D01*
X396331D01*
X397763Y-13985D01*
X397556Y-14485D01*
X82379Y-14485D01*
X82158Y-14037D01*
X82346Y-13792D01*
X82704Y-12927D01*
X82826Y-12000D01*
X82704Y-11073D01*
X82346Y-10208D01*
X81776Y-9466D01*
X81034Y-8897D01*
X80465Y-8661D01*
Y-6199D01*
X81472Y-5192D01*
X81737Y-4796D01*
X81830Y-4328D01*
Y8475D01*
X82384Y9030D01*
X87170D01*
Y6910D01*
X89895D01*
Y6216D01*
X87499Y3820D01*
X87195D01*
X86728Y3727D01*
X86331Y3462D01*
X85519Y2650D01*
X85254Y2253D01*
X85161Y1786D01*
Y-3694D01*
X85254Y-4162D01*
X85519Y-4558D01*
X86331Y-5371D01*
X86728Y-5636D01*
X87195Y-5729D01*
X97460D01*
X97928Y-5636D01*
X98324Y-5371D01*
X138108Y34413D01*
X138651Y34249D01*
X138710Y33954D01*
X139062Y33427D01*
X139589Y33074D01*
X140211Y32951D01*
X140833Y33074D01*
X141360Y33427D01*
X141516Y33659D01*
X145048D01*
Y32802D01*
X147648D01*
Y37202D01*
X147264D01*
Y38342D01*
X149362Y40440D01*
X149905Y40276D01*
X149964Y39974D01*
X150317Y39447D01*
X150550Y39291D01*
Y37202D01*
X150166D01*
Y32802D01*
X152766D01*
Y37202D01*
X152382D01*
Y39291D01*
X152615Y39447D01*
X152967Y39974D01*
X153091Y40596D01*
X152967Y41217D01*
X152796Y41473D01*
X153063Y41973D01*
X197251D01*
X197601Y42043D01*
X197898Y42242D01*
X210493Y54836D01*
X217758D01*
X217843Y54734D01*
X217748Y54069D01*
X217682Y54025D01*
X217330Y53498D01*
X217206Y52876D01*
X217302Y52394D01*
X217015Y51894D01*
X216159D01*
Y47938D01*
X220902D01*
Y51894D01*
X220647D01*
X220360Y52394D01*
X220456Y52876D01*
X220332Y53498D01*
X219980Y54025D01*
X219914Y54069D01*
X219818Y54734D01*
X219904Y54836D01*
X223374D01*
X223423Y54336D01*
X223086Y54269D01*
X222559Y53917D01*
X222207Y53390D01*
X222083Y52768D01*
X222207Y52146D01*
X222559Y51619D01*
X222869Y51411D01*
Y50212D01*
X222939Y49862D01*
X223082Y49648D01*
Y45779D01*
X231368D01*
Y50916D01*
X224701D01*
Y51515D01*
X224857Y51619D01*
X225209Y52146D01*
X225333Y52768D01*
X225209Y53390D01*
X224857Y53917D01*
X224330Y54269D01*
X223993Y54336D01*
X224042Y54836D01*
X246843D01*
X247193Y54906D01*
X247490Y55104D01*
X248625Y56239D01*
X254812D01*
Y51894D01*
X253561D01*
Y51035D01*
X248462D01*
Y51894D01*
X243718D01*
Y51035D01*
X240587D01*
Y51894D01*
X238530D01*
X238406Y52079D01*
X237879Y52431D01*
X237257Y52555D01*
X236635Y52431D01*
X236108Y52079D01*
X235984Y51894D01*
X235844D01*
Y51684D01*
X235756Y51552D01*
X235632Y50930D01*
X235756Y50308D01*
X235844Y50175D01*
Y47938D01*
X240587D01*
Y48796D01*
X243718D01*
Y47938D01*
X248462D01*
Y48796D01*
X253561D01*
Y47938D01*
X258304D01*
Y48694D01*
X276465D01*
X276933Y48787D01*
X277329Y49052D01*
X278703Y50426D01*
X281060D01*
Y48928D01*
X283397D01*
X283588Y48466D01*
X280687Y45565D01*
X277192D01*
X276725Y45472D01*
X276328Y45207D01*
X271343Y40222D01*
X271078Y39826D01*
X270985Y39358D01*
Y35857D01*
X268435Y33307D01*
X261012D01*
Y27185D01*
X267706D01*
X267913Y26685D01*
X266665Y25437D01*
X266400Y25041D01*
X266196Y24970D01*
X265898Y24901D01*
X265440Y25207D01*
X264860Y25323D01*
X264280Y25207D01*
X263789Y24879D01*
X263460Y24387D01*
X263345Y23808D01*
Y18099D01*
X263460Y17519D01*
X263789Y17028D01*
X264280Y16700D01*
X264860Y16584D01*
X265440Y16700D01*
X265931Y17028D01*
X266348D01*
X266840Y16700D01*
X267419Y16584D01*
X267999Y16700D01*
X268363Y16942D01*
X268699Y16995D01*
X269035Y16942D01*
X269398Y16700D01*
X269978Y16584D01*
X270558Y16700D01*
X270660Y16768D01*
X271304D01*
X274143Y13929D01*
X274540Y13664D01*
X274988Y13575D01*
Y9675D01*
X278397D01*
X281047Y7025D01*
Y3070D01*
X281140Y2602D01*
X281405Y2206D01*
X284749Y-1138D01*
X285145Y-1403D01*
X285613Y-1496D01*
X291093D01*
X291561Y-1403D01*
X291957Y-1138D01*
X301546Y8450D01*
X301811Y8847D01*
X301904Y9315D01*
Y86577D01*
X301811Y87045D01*
X301546Y87441D01*
X299510Y89477D01*
X299114Y89742D01*
X298646Y89835D01*
X298095D01*
Y93600D01*
Y97846D01*
X298556Y98038D01*
X360487Y36107D01*
D02*
G37*
G36*
X36606Y49066D02*
X27992D01*
Y53404D01*
X24430D01*
Y49066D01*
X2812D01*
Y53273D01*
X-750D01*
Y49066D01*
X-13539D01*
Y60268D01*
X36606D01*
Y49066D01*
D02*
G37*
G36*
X27342D02*
X27533Y48607D01*
X27992Y48416D01*
X28170D01*
Y47676D01*
X31732D01*
Y48416D01*
X36606D01*
X37065Y48607D01*
X37085Y48655D01*
X43540D01*
X50283Y41912D01*
Y34912D01*
X71168D01*
Y37860D01*
X80640D01*
X84920Y33581D01*
X81351Y30012D01*
X64762D01*
X64138Y29888D01*
X63609Y29535D01*
X63609Y29535D01*
X62438Y28363D01*
X62084Y27834D01*
X61960Y27211D01*
Y16951D01*
X59517Y14508D01*
X59055Y14365D01*
Y14365D01*
X59055Y14365D01*
X51950D01*
Y7259D01*
X54281D01*
Y6491D01*
X54374Y6023D01*
X54638Y5627D01*
X57999Y2266D01*
X57792Y1766D01*
X54058D01*
X50348Y5477D01*
Y18338D01*
X51483D01*
Y26231D01*
X45952D01*
Y18338D01*
X47088D01*
Y4801D01*
X47212Y4178D01*
X47565Y3649D01*
X47207Y3306D01*
X41666Y8848D01*
Y12650D01*
X38941D01*
Y14622D01*
X39335Y14886D01*
X39688Y15413D01*
X39811Y16035D01*
X39688Y16656D01*
X39335Y17184D01*
X38808Y17536D01*
X38186Y17660D01*
X37565Y17536D01*
X37037Y17184D01*
X36685Y16656D01*
X36561Y16035D01*
X36601Y15837D01*
X36590Y15822D01*
X36498Y15355D01*
Y12650D01*
X33773D01*
Y7120D01*
X39938D01*
X48021Y-963D01*
Y-8447D01*
X45690D01*
Y-14485D01*
X5969Y-14485D01*
X5870Y-13985D01*
X6907Y-13556D01*
X8942Y-12308D01*
X10758Y-10758D01*
X12308Y-8942D01*
X13556Y-6907D01*
X14469Y-4701D01*
X15026Y-2380D01*
X15214Y0D01*
X15026Y2380D01*
X14469Y4701D01*
X13556Y6907D01*
X12308Y8942D01*
X10758Y10758D01*
X8942Y12308D01*
X6907Y13556D01*
X4701Y14469D01*
X2380Y15026D01*
X0Y15214D01*
X-2380Y15026D01*
X-4701Y14469D01*
X-6907Y13556D01*
X-8942Y12308D01*
X-10758Y10758D01*
X-12308Y8942D01*
X-13082Y7680D01*
X-13582Y7821D01*
X-13582Y48388D01*
X-13539Y48416D01*
X-4490D01*
Y47545D01*
X-928D01*
Y48416D01*
X-750D01*
X-291Y48607D01*
X-101Y49066D01*
Y52623D01*
X2163D01*
Y49066D01*
X2353Y48607D01*
X2812Y48416D01*
X2990D01*
Y47545D01*
X6552D01*
Y48416D01*
X16488D01*
Y48367D01*
X19736D01*
Y48416D01*
X20689D01*
Y47676D01*
X24252D01*
Y48416D01*
X24430D01*
X24889Y48607D01*
X25079Y49066D01*
Y52754D01*
X27342D01*
Y49066D01*
D02*
G37*
G36*
X366428Y54866D02*
Y42277D01*
X365928Y42009D01*
X365672Y42180D01*
X365050Y42304D01*
X364428Y42180D01*
X363901Y41828D01*
X363745Y41595D01*
X363019D01*
X314299Y90315D01*
X314002Y90513D01*
X313652Y90583D01*
X311996D01*
X307923Y94656D01*
Y109676D01*
X307853Y110027D01*
X307655Y110324D01*
X306868Y111110D01*
X307060Y111572D01*
X309721D01*
X366428Y54866D01*
D02*
G37*
G36*
X289247Y68411D02*
X289544Y68213D01*
X289894Y68143D01*
X292094D01*
Y66041D01*
X292898D01*
Y51870D01*
X287110Y46083D01*
X285971D01*
X285504Y45990D01*
X285107Y45725D01*
X281350Y41968D01*
X277198D01*
X277007Y42430D01*
X277698Y43121D01*
X281193D01*
X281661Y43214D01*
X282057Y43479D01*
X286667Y48090D01*
X286932Y48486D01*
X287025Y48954D01*
Y52765D01*
X287976Y53716D01*
X288241Y54112D01*
X288334Y54580D01*
Y58715D01*
X288372Y58772D01*
X288465Y59239D01*
X288372Y59707D01*
X288293Y59825D01*
Y62239D01*
X286193D01*
Y59890D01*
X285983Y59576D01*
X285890Y59108D01*
Y55086D01*
X285028Y54224D01*
X284682Y54311D01*
X284528Y54416D01*
Y59239D01*
Y62915D01*
X284612Y62971D01*
X284964Y63498D01*
X285087Y64120D01*
X284964Y64742D01*
X284612Y65269D01*
X284084Y65621D01*
X283463Y65745D01*
X282841Y65621D01*
X282313Y65269D01*
X281961Y64742D01*
X281838Y64120D01*
X281961Y63498D01*
X282084Y63314D01*
Y62239D01*
X278317D01*
Y62870D01*
X280665Y65218D01*
X280863Y65515D01*
X280933Y65865D01*
Y68734D01*
X280863Y69084D01*
X280665Y69382D01*
X279293Y70753D01*
X279348Y71028D01*
X279224Y71649D01*
X279053Y71905D01*
X279321Y72405D01*
X285253D01*
X289247Y68411D01*
D02*
G37*
G36*
X345678Y115917D02*
X345507Y115661D01*
X345384Y115039D01*
X345507Y114417D01*
X345859Y113890D01*
X346387Y113538D01*
X347008Y113414D01*
X347630Y113538D01*
X348048Y113817D01*
X349153D01*
X443278Y19693D01*
Y18177D01*
X441341D01*
Y11859D01*
X447659D01*
X447742Y11394D01*
Y8938D01*
X447293Y8756D01*
X447242Y8760D01*
X446753Y9397D01*
X446093Y9904D01*
X445325Y10222D01*
X444500Y10330D01*
X443675Y10222D01*
X442907Y9904D01*
X442247Y9397D01*
X441741Y8737D01*
X441422Y7969D01*
X441314Y7144D01*
X441422Y6319D01*
X441741Y5551D01*
X442247Y4891D01*
X442884Y4402D01*
X442888Y4351D01*
X442706Y3902D01*
X438420D01*
X438238Y4351D01*
X438242Y4402D01*
X438879Y4891D01*
X439385Y5551D01*
X439704Y6319D01*
X439812Y7144D01*
X439704Y7969D01*
X439385Y8737D01*
X438879Y9397D01*
X438219Y9904D01*
X437451Y10222D01*
X436626Y10330D01*
X435801Y10222D01*
X435033Y9904D01*
X434373Y9397D01*
X433867Y8737D01*
X433548Y7969D01*
X433440Y7144D01*
X433548Y6319D01*
X433867Y5551D01*
X434373Y4891D01*
X435010Y4402D01*
X435014Y4351D01*
X434832Y3902D01*
X433290D01*
X431549Y5642D01*
X431830Y6319D01*
X431938Y7144D01*
X431830Y7969D01*
X431511Y8737D01*
X431005Y9397D01*
X430345Y9904D01*
X429577Y10222D01*
X428752Y10330D01*
X427927Y10222D01*
X427159Y9904D01*
X426499Y9397D01*
X425992Y8737D01*
X425674Y7969D01*
X425566Y7144D01*
X425674Y6319D01*
X425955Y5642D01*
X423426Y3113D01*
X423227Y2816D01*
X423158Y2466D01*
Y-5537D01*
X423146Y-5539D01*
X422282Y-5897D01*
X421540Y-6466D01*
X420970Y-7208D01*
X420612Y-8072D01*
X420490Y-9000D01*
X420612Y-9928D01*
X420970Y-10792D01*
X421540Y-11534D01*
X422282Y-12103D01*
X423146Y-12461D01*
X424074Y-12583D01*
X425001Y-12461D01*
X425865Y-12103D01*
X426607Y-11534D01*
X427177Y-10792D01*
X427535Y-9928D01*
X427657Y-9000D01*
X427535Y-8072D01*
X427177Y-7208D01*
X426607Y-6466D01*
X425865Y-5897D01*
X425001Y-5539D01*
X424990Y-5537D01*
Y2086D01*
X427250Y4347D01*
X427927Y4066D01*
X428752Y3958D01*
X429577Y4066D01*
X430254Y4347D01*
X432262Y2338D01*
X432560Y2140D01*
X432910Y2070D01*
X446222D01*
X446573Y2140D01*
X446870Y2338D01*
X449306Y4774D01*
X449505Y5071D01*
X449574Y5422D01*
Y15651D01*
X450036Y15842D01*
X469564Y-3686D01*
X469861Y-3884D01*
X470212Y-3954D01*
X496172D01*
X496523Y-3884D01*
X496820Y-3686D01*
X513715Y13210D01*
X529778D01*
X530046Y12710D01*
X529875Y12454D01*
X529751Y11832D01*
X529875Y11210D01*
X530227Y10683D01*
X530460Y10527D01*
Y9823D01*
X527429D01*
Y8125D01*
X526930Y7918D01*
X526304Y8544D01*
X526206Y9037D01*
X525853Y9564D01*
X525326Y9917D01*
X524704Y10040D01*
X524083Y9917D01*
X523555Y9564D01*
X523203Y9037D01*
X523079Y8415D01*
X523203Y7794D01*
X523555Y7266D01*
X524083Y6914D01*
X524576Y6816D01*
X525986Y5406D01*
X526382Y5141D01*
X526850Y5048D01*
X527429D01*
Y799D01*
X525854D01*
X525834Y795D01*
X525511Y859D01*
X524889Y735D01*
X524362Y383D01*
X524010Y-144D01*
X523886Y-766D01*
X524010Y-1388D01*
X524362Y-1915D01*
X524889Y-2267D01*
X525511Y-2391D01*
X526133Y-2267D01*
X526660Y-1915D01*
X526841Y-1645D01*
X527429D01*
Y-3547D01*
X518431D01*
X518207Y-3211D01*
X517680Y-2859D01*
X517058Y-2735D01*
X516436Y-2859D01*
X515909Y-3211D01*
X515557Y-3738D01*
X515433Y-4360D01*
X515557Y-4982D01*
X515909Y-5509D01*
X516436Y-5861D01*
X517058Y-5985D01*
X517680Y-5861D01*
X518207Y-5509D01*
X518294Y-5379D01*
X530055D01*
X530405Y-5310D01*
X530702Y-5111D01*
X531376Y-4437D01*
X532087Y-5149D01*
Y-5310D01*
X532157Y-5661D01*
X532355Y-5958D01*
X533699Y-7301D01*
X533996Y-7500D01*
X534347Y-7570D01*
X534508D01*
X540924Y-13985D01*
X540879Y-14239D01*
X540741Y-14485D01*
X407028Y-14485D01*
X406821Y-13985D01*
X409273Y-11533D01*
X409472Y-11236D01*
X409542Y-10886D01*
Y-7114D01*
X409472Y-6764D01*
X409273Y-6467D01*
X402240Y566D01*
X401943Y765D01*
X401592Y835D01*
X389113D01*
X384305Y5642D01*
X384586Y6319D01*
X384694Y7144D01*
X384586Y7969D01*
X384267Y8737D01*
X383761Y9397D01*
X383101Y9904D01*
X382332Y10222D01*
X381508Y10330D01*
X380683Y10222D01*
X379915Y9904D01*
X379255Y9397D01*
X378748Y8737D01*
X378430Y7969D01*
X378322Y7144D01*
X378430Y6319D01*
X378748Y5551D01*
X379255Y4891D01*
X379915Y4385D01*
X380683Y4066D01*
X381508Y3958D01*
X382332Y4066D01*
X383010Y4347D01*
X387260Y96D01*
X387069Y-365D01*
X376558D01*
X372610Y3583D01*
X372798Y4030D01*
X372837Y4063D01*
X373634Y3958D01*
X374459Y4066D01*
X375227Y4385D01*
X375887Y4891D01*
X376393Y5551D01*
X376712Y6319D01*
X376820Y7144D01*
X376712Y7969D01*
X376393Y8737D01*
X375887Y9397D01*
X375227Y9904D01*
X374459Y10222D01*
X373634Y10330D01*
X372809Y10222D01*
X372041Y9904D01*
X371381Y9397D01*
X370892Y8760D01*
X370841Y8756D01*
X370392Y8938D01*
Y13224D01*
X370841Y13407D01*
X370892Y13402D01*
X371381Y12765D01*
X372041Y12259D01*
X372809Y11940D01*
X373634Y11832D01*
X374459Y11940D01*
X375227Y12259D01*
X375887Y12765D01*
X376393Y13425D01*
X376712Y14193D01*
X376820Y15018D01*
X376712Y15843D01*
X376393Y16611D01*
X375887Y17271D01*
X375250Y17760D01*
X375245Y17811D01*
X375428Y18260D01*
X395462D01*
X395644Y17811D01*
X395640Y17760D01*
X395003Y17271D01*
X394496Y16611D01*
X394178Y15843D01*
X394070Y15018D01*
X394178Y14193D01*
X394496Y13425D01*
X395003Y12765D01*
X395663Y12259D01*
X396431Y11940D01*
X397256Y11832D01*
X398081Y11940D01*
X398849Y12259D01*
X399509Y12765D01*
X400015Y13425D01*
X400334Y14193D01*
X400442Y15018D01*
X400334Y15843D01*
X400015Y16611D01*
X399509Y17271D01*
X398871Y17760D01*
X398868Y17811D01*
X399050Y18260D01*
X400592D01*
X402333Y16520D01*
X402052Y15843D01*
X401944Y15018D01*
X402052Y14193D01*
X402371Y13425D01*
X402877Y12765D01*
X403537Y12259D01*
X404305Y11940D01*
X405130Y11832D01*
X405955Y11940D01*
X406723Y12259D01*
X407383Y12765D01*
X407889Y13425D01*
X408208Y14193D01*
X408316Y15018D01*
X408208Y15843D01*
X407889Y16611D01*
X407383Y17271D01*
X406723Y17777D01*
X405955Y18096D01*
X405130Y18204D01*
X404305Y18096D01*
X403628Y17815D01*
X401619Y19824D01*
X401322Y20023D01*
X400972Y20092D01*
X372765D01*
X372758Y20129D01*
X372559Y20426D01*
X372012Y20974D01*
X371714Y21172D01*
X371364Y21242D01*
X367598D01*
X367330Y21742D01*
X367501Y21998D01*
X367625Y22620D01*
X367570Y22894D01*
X369191Y24516D01*
X369390Y24813D01*
X369460Y25163D01*
Y55742D01*
X369390Y56093D01*
X369191Y56390D01*
X310694Y114887D01*
X310795Y115260D01*
X310884Y115387D01*
X322865D01*
X323215Y115457D01*
X323513Y115655D01*
X324274Y116417D01*
X345411D01*
X345678Y115917D01*
D02*
G37*
G36*
X545925Y2868D02*
X546391D01*
X546483Y2404D01*
X546836Y1877D01*
X547363Y1525D01*
X547664Y1465D01*
X547829Y922D01*
X547738Y832D01*
X547540Y535D01*
X547470Y184D01*
Y-6115D01*
X547540Y-6465D01*
X547738Y-6762D01*
X551648Y-10672D01*
X551454Y-11180D01*
X551145Y-11215D01*
X545064Y-5135D01*
X545076Y-5107D01*
X545359Y-4722D01*
X545637Y-4778D01*
X546027Y-4700D01*
X546357Y-4479D01*
X546578Y-4149D01*
X546655Y-3760D01*
Y-253D01*
X546578Y137D01*
X546357Y467D01*
X546027Y688D01*
X545637Y765D01*
X545248Y688D01*
X544966Y500D01*
X544740Y555D01*
X544466Y691D01*
Y2888D01*
X545824D01*
X545925Y2868D01*
D02*
G37*
G36*
X534122Y2695D02*
X534791D01*
X536391Y1096D01*
Y48D01*
X536262Y-144D01*
X536138Y-766D01*
X536262Y-1388D01*
X536614Y-1915D01*
X537141Y-2267D01*
X537763Y-2391D01*
X538385Y-2267D01*
X538632Y-2102D01*
X539132Y-2370D01*
Y-3805D01*
X541328D01*
X541519Y-4267D01*
X540674Y-5112D01*
X540519Y-5081D01*
X539897Y-5205D01*
X539370Y-5557D01*
X539018Y-6084D01*
X538894Y-6706D01*
X539018Y-7328D01*
X539370Y-7855D01*
X539897Y-8207D01*
X540519Y-8331D01*
X541141Y-8207D01*
X541668Y-7855D01*
X542020Y-7328D01*
X542144Y-6706D01*
X542066Y-6312D01*
X542858Y-5520D01*
X549360Y-12022D01*
X549169Y-12484D01*
X542013D01*
X535535Y-6006D01*
X535302Y-5850D01*
X535356Y-5474D01*
X535397Y-5358D01*
X535686Y-5300D01*
X536017Y-5080D01*
X536237Y-4750D01*
X536315Y-4360D01*
X536237Y-3970D01*
X536017Y-3640D01*
X534953Y-2576D01*
Y-423D01*
X534875Y-33D01*
X534655Y297D01*
X534324Y518D01*
X533935Y595D01*
X533545Y518D01*
X533263Y329D01*
X533038Y384D01*
X532763Y521D01*
Y2717D01*
X534012D01*
X534122Y2695D01*
D02*
G37*
G36*
X569229Y2803D02*
X570545D01*
X572134Y1214D01*
X572160Y1104D01*
X572160Y1083D01*
X572090Y629D01*
X571721Y383D01*
X571369Y-144D01*
X571245Y-766D01*
X571369Y-1388D01*
X571721Y-1915D01*
X572248Y-2267D01*
X572870Y-2391D01*
X573492Y-2267D01*
X573739Y-2102D01*
X574239Y-2327D01*
Y-3868D01*
X575402D01*
X575594Y-4330D01*
X569840Y-10084D01*
X557547D01*
X557356Y-9622D01*
X560687Y-6291D01*
X560952Y-5895D01*
X561032Y-5488D01*
X561276Y-5313D01*
X561469Y-5218D01*
X561545Y-5210D01*
X561853Y-5271D01*
X565162D01*
X565512Y-5201D01*
X565809Y-5003D01*
X566643Y-4169D01*
X566842Y-3872D01*
X566843Y-3868D01*
X567870D01*
Y-1796D01*
X568370Y-1511D01*
X568377Y-1515D01*
X568411Y-1582D01*
Y-3445D01*
X568489Y-3834D01*
X568709Y-4165D01*
X568922Y-4377D01*
X568975Y-4642D01*
X569195Y-4972D01*
X569525Y-5192D01*
X569915Y-5270D01*
X570305Y-5192D01*
X570635Y-4972D01*
X570856Y-4642D01*
X570933Y-4252D01*
Y-3931D01*
X570856Y-3541D01*
X570635Y-3211D01*
X570447Y-3023D01*
Y-702D01*
X570447Y-702D01*
X570370Y-313D01*
X570149Y17D01*
X569762Y405D01*
X569431Y625D01*
X569042Y703D01*
X568652Y625D01*
X568370Y437D01*
X568145Y493D01*
X567870Y629D01*
Y2825D01*
X569120D01*
X569229Y2803D01*
D02*
G37*
%LPC*%
G36*
X571228Y277367D02*
X570254Y277239D01*
X569347Y276863D01*
X568568Y276265D01*
X567970Y275486D01*
X567594Y274579D01*
X567466Y273605D01*
X567594Y272631D01*
X567970Y271724D01*
X568568Y270945D01*
X569347Y270347D01*
X570254Y269971D01*
X571228Y269843D01*
X572202Y269971D01*
X573109Y270347D01*
X573888Y270945D01*
X574486Y271724D01*
X574862Y272631D01*
X574990Y273605D01*
X574862Y274579D01*
X574486Y275486D01*
X573888Y276265D01*
X573109Y276863D01*
X572202Y277239D01*
X571228Y277367D01*
D02*
G37*
G36*
X560441D02*
X559467Y277239D01*
X558560Y276863D01*
X557780Y276265D01*
X557183Y275486D01*
X556807Y274579D01*
X556678Y273605D01*
X556807Y272631D01*
X557183Y271724D01*
X557780Y270945D01*
X558560Y270347D01*
X559467Y269971D01*
X560441Y269843D01*
X561414Y269971D01*
X562322Y270347D01*
X563101Y270945D01*
X563699Y271724D01*
X564075Y272631D01*
X564203Y273605D01*
X564075Y274579D01*
X563699Y275486D01*
X563101Y276265D01*
X562322Y276863D01*
X561414Y277239D01*
X560441Y277367D01*
D02*
G37*
G36*
X549653D02*
X548679Y277239D01*
X547772Y276863D01*
X546993Y276265D01*
X546395Y275486D01*
X546019Y274579D01*
X545891Y273605D01*
X546019Y272631D01*
X546395Y271724D01*
X546993Y270945D01*
X547772Y270347D01*
X548679Y269971D01*
X549653Y269843D01*
X550627Y269971D01*
X551534Y270347D01*
X552313Y270945D01*
X552911Y271724D01*
X553287Y272631D01*
X553415Y273605D01*
X553287Y274579D01*
X552911Y275486D01*
X552313Y276265D01*
X551534Y276863D01*
X550627Y277239D01*
X549653Y277367D01*
D02*
G37*
G36*
X620401Y274650D02*
X619107Y274523D01*
X617862Y274145D01*
X616714Y273532D01*
X615709Y272707D01*
X614884Y271701D01*
X614270Y270554D01*
X613893Y269309D01*
X613765Y268014D01*
X613893Y266720D01*
X614270Y265475D01*
X614884Y264328D01*
X615709Y263322D01*
X616714Y262497D01*
X617862Y261884D01*
X619107Y261506D01*
X620401Y261379D01*
X621696Y261506D01*
X622941Y261884D01*
X624088Y262497D01*
X625094Y263322D01*
X625919Y264328D01*
X626532Y265475D01*
X626910Y266720D01*
X627037Y268014D01*
X626910Y269309D01*
X626532Y270554D01*
X625919Y271701D01*
X625094Y272707D01*
X624088Y273532D01*
X622941Y274145D01*
X621696Y274523D01*
X620401Y274650D01*
D02*
G37*
G36*
X522015D02*
X520721Y274523D01*
X519476Y274145D01*
X518329Y273532D01*
X517323Y272707D01*
X516498Y271701D01*
X515885Y270554D01*
X515507Y269309D01*
X515379Y268014D01*
X515507Y266720D01*
X515885Y265475D01*
X516498Y264328D01*
X517323Y263322D01*
X518329Y262497D01*
X519476Y261884D01*
X520721Y261506D01*
X522015Y261379D01*
X523310Y261506D01*
X524555Y261884D01*
X525702Y262497D01*
X526708Y263322D01*
X527533Y264328D01*
X528146Y265475D01*
X528524Y266720D01*
X528651Y268014D01*
X528524Y269309D01*
X528146Y270554D01*
X527533Y271701D01*
X526708Y272707D01*
X525702Y273532D01*
X524555Y274145D01*
X523310Y274523D01*
X522015Y274650D01*
D02*
G37*
G36*
X565834Y266186D02*
X564860Y266058D01*
X563953Y265682D01*
X563174Y265084D01*
X562576Y264305D01*
X562200Y263398D01*
X562072Y262424D01*
X562200Y261450D01*
X562576Y260543D01*
X563174Y259764D01*
X563953Y259166D01*
X564860Y258790D01*
X565834Y258662D01*
X566808Y258790D01*
X567715Y259166D01*
X568494Y259764D01*
X569092Y260543D01*
X569468Y261450D01*
X569596Y262424D01*
X569468Y263398D01*
X569092Y264305D01*
X568494Y265084D01*
X567715Y265682D01*
X566808Y266058D01*
X565834Y266186D01*
D02*
G37*
G36*
X555047D02*
X554073Y266058D01*
X553166Y265682D01*
X552387Y265084D01*
X551789Y264305D01*
X551413Y263398D01*
X551285Y262424D01*
X551413Y261450D01*
X551789Y260543D01*
X552387Y259764D01*
X553166Y259166D01*
X554073Y258790D01*
X555047Y258662D01*
X556020Y258790D01*
X556928Y259166D01*
X557707Y259764D01*
X558305Y260543D01*
X558681Y261450D01*
X558809Y262424D01*
X558681Y263398D01*
X558305Y264305D01*
X557707Y265084D01*
X556928Y265682D01*
X556020Y266058D01*
X555047Y266186D01*
D02*
G37*
G36*
X265386Y270338D02*
X264091Y270210D01*
X262846Y269832D01*
X261699Y269219D01*
X260694Y268394D01*
X259868Y267388D01*
X259255Y266241D01*
X258877Y264996D01*
X258750Y263702D01*
X258877Y262407D01*
X259255Y261162D01*
X259868Y260015D01*
X260694Y259009D01*
X261699Y258184D01*
X262846Y257571D01*
X264091Y257193D01*
X265386Y257066D01*
X266680Y257193D01*
X267925Y257571D01*
X269073Y258184D01*
X270078Y259009D01*
X270903Y260015D01*
X271517Y261162D01*
X271894Y262407D01*
X272022Y263702D01*
X271894Y264996D01*
X271517Y266241D01*
X270903Y267388D01*
X270078Y268394D01*
X269073Y269219D01*
X267925Y269832D01*
X266680Y270210D01*
X265386Y270338D01*
D02*
G37*
G36*
X167000D02*
X165705Y270210D01*
X164461Y269832D01*
X163313Y269219D01*
X162308Y268394D01*
X161483Y267388D01*
X160869Y266241D01*
X160492Y264996D01*
X160364Y263702D01*
X160492Y262407D01*
X160869Y261162D01*
X161483Y260015D01*
X162308Y259009D01*
X163313Y258184D01*
X164461Y257571D01*
X165705Y257193D01*
X167000Y257066D01*
X168295Y257193D01*
X169539Y257571D01*
X170687Y258184D01*
X171692Y259009D01*
X172518Y260015D01*
X173131Y261162D01*
X173508Y262407D01*
X173636Y263702D01*
X173508Y264996D01*
X173131Y266241D01*
X172518Y267388D01*
X171692Y268394D01*
X170687Y269219D01*
X169539Y269832D01*
X168295Y270210D01*
X167000Y270338D01*
D02*
G37*
G36*
X133000Y270294D02*
X131705Y270166D01*
X130461Y269789D01*
X129313Y269176D01*
X128308Y268350D01*
X127482Y267345D01*
X126869Y266197D01*
X126492Y264953D01*
X126364Y263658D01*
X126492Y262363D01*
X126869Y261119D01*
X127482Y259971D01*
X128308Y258966D01*
X129313Y258140D01*
X130461Y257527D01*
X131705Y257150D01*
X131629Y256667D01*
X109269D01*
X109090Y256935D01*
X109006Y257167D01*
X109124Y258067D01*
X108996Y259041D01*
X108620Y259948D01*
X108022Y260728D01*
X107243Y261326D01*
X106336Y261701D01*
X105362Y261829D01*
X104388Y261701D01*
X103481Y261326D01*
X102702Y260728D01*
X102104Y259948D01*
X101728Y259041D01*
X101600Y258067D01*
X101719Y257167D01*
X101634Y256935D01*
X101455Y256667D01*
X98482D01*
X98303Y256935D01*
X98218Y257167D01*
X98337Y258067D01*
X98209Y259041D01*
X97833Y259948D01*
X97235Y260728D01*
X96456Y261326D01*
X95548Y261701D01*
X94575Y261829D01*
X93601Y261701D01*
X92694Y261326D01*
X91915Y260728D01*
X91317Y259948D01*
X90941Y259041D01*
X90813Y258067D01*
X90931Y257167D01*
X90847Y256935D01*
X90668Y256667D01*
X87695D01*
X87515Y256935D01*
X87431Y257167D01*
X87550Y258067D01*
X87421Y259041D01*
X87046Y259948D01*
X86448Y260728D01*
X85668Y261326D01*
X84761Y261701D01*
X83787Y261829D01*
X82814Y261701D01*
X81906Y261326D01*
X81127Y260728D01*
X80529Y259948D01*
X80154Y259041D01*
X80025Y258067D01*
X80144Y257167D01*
X80060Y256935D01*
X79880Y256667D01*
X77371D01*
X77047Y257167D01*
X77166Y258067D01*
X77024Y259146D01*
X76608Y260150D01*
X75946Y261013D01*
X75083Y261675D01*
X74078Y262091D01*
X73000Y262233D01*
X71922Y262091D01*
X70917Y261675D01*
X70055Y261013D01*
X69393Y260150D01*
X68976Y259146D01*
X68834Y258067D01*
X68849Y257959D01*
X68524Y257634D01*
X68389Y257616D01*
X67371D01*
X66343Y258645D01*
Y262197D01*
X58083D01*
Y258645D01*
X56507Y257069D01*
X37604D01*
X37529Y257161D01*
X37657Y257797D01*
X38301Y258140D01*
X39307Y258966D01*
X40132Y259971D01*
X40745Y261119D01*
X41123Y262363D01*
X41250Y263658D01*
X41123Y264953D01*
X40745Y266197D01*
X40132Y267345D01*
X39307Y268350D01*
X38301Y269176D01*
X37154Y269789D01*
X35909Y270166D01*
X34614Y270294D01*
X33320Y270166D01*
X32075Y269789D01*
X30928Y269176D01*
X29922Y268350D01*
X29097Y267345D01*
X28483Y266197D01*
X28106Y264953D01*
X27978Y263658D01*
X28106Y262363D01*
X28483Y261119D01*
X29097Y259971D01*
X29922Y258966D01*
X30928Y258140D01*
X31571Y257797D01*
X31699Y257161D01*
X31624Y257069D01*
X20291D01*
X20288Y257509D01*
X11956D01*
X11893Y257445D01*
Y243084D01*
X12457Y242520D01*
X20402D01*
X20375Y245991D01*
X22914Y248529D01*
X67366D01*
X67391Y248532D01*
X67776Y248373D01*
X68637Y248260D01*
X144184D01*
X164358Y228086D01*
Y226222D01*
X162772D01*
X161911Y226109D01*
X161108Y225776D01*
X160964Y225665D01*
X160395D01*
Y225216D01*
X159890Y224558D01*
X159557Y223755D01*
X159444Y222894D01*
X159557Y222032D01*
X159890Y221229D01*
X160395Y220572D01*
Y220122D01*
X160964D01*
X161108Y220011D01*
X161911Y219678D01*
X162772Y219565D01*
X164225D01*
Y211404D01*
X163984D01*
X163123Y211291D01*
X162320Y210958D01*
X161631Y210429D01*
X159804Y208603D01*
X159275Y207913D01*
X159137Y207581D01*
X158943Y207111D01*
X158829Y206249D01*
Y203529D01*
X158367Y203338D01*
X156036Y205669D01*
Y208920D01*
X149521D01*
Y204374D01*
X154740D01*
X158829Y200285D01*
Y198226D01*
X158943Y197364D01*
X159137Y196894D01*
X159275Y196562D01*
X159804Y195872D01*
X160394Y195282D01*
X161083Y194753D01*
X161886Y194421D01*
X162137Y194388D01*
X163812Y192713D01*
Y191706D01*
X163828Y191625D01*
Y189306D01*
X170778D01*
Y192606D01*
X169354D01*
X169281Y192700D01*
X169365Y193379D01*
X169656Y193602D01*
X169889Y193906D01*
X171178D01*
Y197083D01*
X171678Y197417D01*
X172061Y197341D01*
X172683Y197464D01*
X173210Y197817D01*
X173562Y198344D01*
X173686Y198966D01*
X173562Y199587D01*
X173210Y200115D01*
X173191Y200312D01*
X173601Y200722D01*
X174130Y201412D01*
X174463Y202214D01*
X174576Y203076D01*
Y207449D01*
X174463Y208311D01*
X174130Y209113D01*
X173601Y209803D01*
X173506Y209898D01*
Y222154D01*
X173968Y222345D01*
X174485Y221829D01*
X174782Y221630D01*
X175133Y221560D01*
X175483Y221630D01*
X175780Y221829D01*
X175979Y222126D01*
X176049Y222476D01*
X175979Y222827D01*
X175780Y223124D01*
X175027Y223877D01*
X175206Y224405D01*
X175588Y224456D01*
X176391Y224788D01*
X176535Y224899D01*
X177104D01*
Y225349D01*
X177609Y226006D01*
X177942Y226809D01*
X178055Y227671D01*
X177942Y228532D01*
X177609Y229335D01*
X177104Y229993D01*
Y230442D01*
X176535D01*
X176391Y230553D01*
X175588Y230886D01*
X174726Y230999D01*
X173334D01*
X172531Y231802D01*
X148641Y255692D01*
X147952Y256221D01*
X147619Y256359D01*
X147149Y256553D01*
X146287Y256667D01*
X134371D01*
X134295Y257150D01*
X135539Y257527D01*
X136687Y258140D01*
X137692Y258966D01*
X138517Y259971D01*
X139131Y261119D01*
X139508Y262363D01*
X139636Y263658D01*
X139508Y264953D01*
X139131Y266197D01*
X138517Y267345D01*
X137692Y268350D01*
X136687Y269176D01*
X135539Y269789D01*
X134295Y270166D01*
X133000Y270294D01*
D02*
G37*
G36*
X237748Y261873D02*
X236774Y261745D01*
X235867Y261369D01*
X235088Y260771D01*
X234490Y259992D01*
X234114Y259085D01*
X233986Y258111D01*
X234114Y257137D01*
X234490Y256230D01*
X235088Y255451D01*
X235867Y254853D01*
X236774Y254477D01*
X237748Y254349D01*
X238722Y254477D01*
X239629Y254853D01*
X240408Y255451D01*
X241006Y256230D01*
X241382Y257137D01*
X241510Y258111D01*
X241382Y259085D01*
X241006Y259992D01*
X240408Y260771D01*
X239629Y261369D01*
X238722Y261745D01*
X237748Y261873D01*
D02*
G37*
G36*
X226961D02*
X225987Y261745D01*
X225080Y261369D01*
X224300Y260771D01*
X223703Y259992D01*
X223327Y259085D01*
X223199Y258111D01*
X223327Y257137D01*
X223703Y256230D01*
X224300Y255451D01*
X225080Y254853D01*
X225987Y254477D01*
X226961Y254349D01*
X227934Y254477D01*
X228842Y254853D01*
X229621Y255451D01*
X230219Y256230D01*
X230594Y257137D01*
X230723Y258111D01*
X230594Y259085D01*
X230219Y259992D01*
X229621Y260771D01*
X228842Y261369D01*
X227934Y261745D01*
X226961Y261873D01*
D02*
G37*
G36*
X216173D02*
X215199Y261745D01*
X214292Y261369D01*
X213513Y260771D01*
X212915Y259992D01*
X212539Y259085D01*
X212411Y258111D01*
X212539Y257137D01*
X212915Y256230D01*
X213513Y255451D01*
X214292Y254853D01*
X215199Y254477D01*
X216173Y254349D01*
X217147Y254477D01*
X218054Y254853D01*
X218833Y255451D01*
X219431Y256230D01*
X219807Y257137D01*
X219935Y258111D01*
X219807Y259085D01*
X219431Y259992D01*
X218833Y260771D01*
X218054Y261369D01*
X217147Y261745D01*
X216173Y261873D01*
D02*
G37*
G36*
X476500Y281371D02*
X474274Y281195D01*
X472104Y280674D01*
X470041Y279820D01*
X468138Y278654D01*
X466440Y277204D01*
X464991Y275506D01*
X463824Y273603D01*
X462970Y271540D01*
X462449Y269370D01*
X462274Y267144D01*
X462449Y264919D01*
X462970Y262748D01*
X463824Y260685D01*
X464991Y258782D01*
X466440Y257084D01*
X468138Y255635D01*
X470041Y254468D01*
X472104Y253614D01*
X474274Y253093D01*
X476500Y252918D01*
X478725Y253093D01*
X480896Y253614D01*
X482959Y254468D01*
X484862Y255635D01*
X486560Y257084D01*
X488010Y258782D01*
X489176Y260685D01*
X490030Y262748D01*
X490551Y264919D01*
X490727Y267144D01*
X490551Y269370D01*
X490030Y271540D01*
X489176Y273603D01*
X488010Y275506D01*
X486560Y277204D01*
X484862Y278654D01*
X482959Y279820D01*
X480896Y280674D01*
X478725Y281195D01*
X476500Y281371D01*
D02*
G37*
G36*
X341500Y281371D02*
X339275Y281195D01*
X337104Y280674D01*
X335041Y279820D01*
X333138Y278654D01*
X331440Y277204D01*
X329991Y275506D01*
X328824Y273603D01*
X327970Y271540D01*
X327449Y269370D01*
X327274Y267144D01*
X327449Y264919D01*
X327970Y262748D01*
X328824Y260685D01*
X329991Y258782D01*
X331440Y257084D01*
X333138Y255635D01*
X335041Y254468D01*
X337104Y253614D01*
X339275Y253093D01*
X341500Y252918D01*
X343726Y253093D01*
X345896Y253614D01*
X347959Y254468D01*
X349862Y255635D01*
X351560Y257084D01*
X353010Y258782D01*
X354176Y260685D01*
X355030Y262748D01*
X355551Y264919D01*
X355727Y267144D01*
X355551Y269370D01*
X355030Y271540D01*
X354176Y273603D01*
X353010Y275506D01*
X351560Y277204D01*
X349862Y278654D01*
X347959Y279820D01*
X345896Y280674D01*
X343726Y281195D01*
X341500Y281371D01*
D02*
G37*
G36*
X156377Y233369D02*
X155755Y233245D01*
X155228Y232893D01*
X154876Y232366D01*
X154752Y231744D01*
X154876Y231122D01*
X154987Y230955D01*
Y227024D01*
X155645D01*
Y225265D01*
X154889D01*
Y220522D01*
X158845D01*
Y225265D01*
X158089D01*
Y227024D01*
X159140D01*
Y231767D01*
X157997D01*
X157878Y232366D01*
X157526Y232893D01*
X156999Y233245D01*
X156377Y233369D01*
D02*
G37*
G36*
X609062Y212413D02*
X608104Y212287D01*
X607211Y211917D01*
X606444Y211329D01*
X605856Y210562D01*
X605486Y209669D01*
X605360Y208711D01*
X605486Y207752D01*
X605856Y206859D01*
X606444Y206093D01*
X607211Y205504D01*
X608104Y205134D01*
X609062Y205008D01*
X610021Y205134D01*
X610914Y205504D01*
X611681Y206093D01*
X612269Y206859D01*
X612639Y207752D01*
X612765Y208711D01*
X612639Y209669D01*
X612269Y210562D01*
X611681Y211329D01*
X610914Y211917D01*
X610021Y212287D01*
X609062Y212413D01*
D02*
G37*
G36*
X598236D02*
X597277Y212287D01*
X596384Y211917D01*
X595618Y211329D01*
X595029Y210562D01*
X594659Y209669D01*
X594533Y208711D01*
X594659Y207752D01*
X595029Y206859D01*
X595618Y206093D01*
X596384Y205504D01*
X597277Y205134D01*
X598236Y205008D01*
X599194Y205134D01*
X600087Y205504D01*
X600854Y206093D01*
X601442Y206859D01*
X601812Y207752D01*
X601938Y208711D01*
X601812Y209669D01*
X601442Y210562D01*
X600854Y211329D01*
X600087Y211917D01*
X599194Y212287D01*
X598236Y212413D01*
D02*
G37*
G36*
X587448D02*
X586490Y212287D01*
X585597Y211917D01*
X584830Y211329D01*
X584242Y210562D01*
X583872Y209669D01*
X583746Y208711D01*
X583872Y207752D01*
X584242Y206859D01*
X584830Y206093D01*
X585597Y205504D01*
X586490Y205134D01*
X587448Y205008D01*
X588407Y205134D01*
X589300Y205504D01*
X590066Y206093D01*
X590655Y206859D01*
X591025Y207752D01*
X591151Y208711D01*
X591025Y209669D01*
X590655Y210562D01*
X590066Y211329D01*
X589300Y211917D01*
X588407Y212287D01*
X587448Y212413D01*
D02*
G37*
G36*
X625244Y201232D02*
X624285Y201106D01*
X623392Y200736D01*
X622625Y200148D01*
X622037Y199381D01*
X621667Y198488D01*
X621541Y197529D01*
X621667Y196571D01*
X622037Y195678D01*
X622625Y194911D01*
X623392Y194323D01*
X624285Y193953D01*
X625244Y193827D01*
X626202Y193953D01*
X627095Y194323D01*
X627862Y194911D01*
X628450Y195678D01*
X628820Y196571D01*
X628946Y197529D01*
X628820Y198488D01*
X628450Y199381D01*
X627862Y200148D01*
X627095Y200736D01*
X626202Y201106D01*
X625244Y201232D01*
D02*
G37*
G36*
X614456D02*
X613498Y201106D01*
X612605Y200736D01*
X611838Y200148D01*
X611250Y199381D01*
X610880Y198488D01*
X610754Y197529D01*
X610880Y196571D01*
X611250Y195678D01*
X611838Y194911D01*
X612605Y194323D01*
X613498Y193953D01*
X614456Y193827D01*
X615414Y193953D01*
X616307Y194323D01*
X617074Y194911D01*
X617663Y195678D01*
X618033Y196571D01*
X618159Y197529D01*
X618033Y198488D01*
X617663Y199381D01*
X617074Y200148D01*
X616307Y200736D01*
X615414Y201106D01*
X614456Y201232D01*
D02*
G37*
G36*
X603669D02*
X602710Y201106D01*
X601818Y200736D01*
X601051Y200148D01*
X600462Y199381D01*
X600092Y198488D01*
X599966Y197529D01*
X600092Y196571D01*
X600462Y195678D01*
X601051Y194911D01*
X601818Y194323D01*
X602710Y193953D01*
X603669Y193827D01*
X604627Y193953D01*
X605520Y194323D01*
X606287Y194911D01*
X606875Y195678D01*
X607245Y196571D01*
X607371Y197529D01*
X607245Y198488D01*
X606875Y199381D01*
X606287Y200148D01*
X605520Y200736D01*
X604627Y201106D01*
X603669Y201232D01*
D02*
G37*
G36*
X521858Y212772D02*
X519975Y212587D01*
X518164Y212038D01*
X516495Y211146D01*
X515032Y209945D01*
X513832Y208483D01*
X512940Y206814D01*
X512391Y205003D01*
X512205Y203120D01*
X512391Y201237D01*
X512940Y199426D01*
X513832Y197757D01*
X515032Y196295D01*
X516495Y195094D01*
X518164Y194202D01*
X519975Y193653D01*
X521858Y193468D01*
X523741Y193653D01*
X525552Y194202D01*
X527220Y195094D01*
X528683Y196295D01*
X529883Y197757D01*
X530775Y199426D01*
X531325Y201237D01*
X531510Y203120D01*
X531325Y205003D01*
X530775Y206814D01*
X529883Y208483D01*
X528683Y209945D01*
X527220Y211146D01*
X525552Y212038D01*
X523741Y212587D01*
X521858Y212772D01*
D02*
G37*
G36*
X268504Y233639D02*
X267577Y233517D01*
X266713Y233159D01*
X265971Y232589D01*
X265401Y231847D01*
X265043Y230983D01*
X264921Y230055D01*
X265043Y229128D01*
X265401Y228264D01*
X265971Y227521D01*
X266713Y226952D01*
X267577Y226594D01*
X268504Y226472D01*
X269432Y226594D01*
X270104Y226872D01*
X287305Y209671D01*
Y196182D01*
X287276Y196163D01*
X286924Y195636D01*
X286800Y195014D01*
X286924Y194392D01*
X287276Y193865D01*
X287803Y193513D01*
X288425Y193389D01*
X289047Y193513D01*
X289139Y193574D01*
X289499Y193213D01*
X289418Y193091D01*
X289294Y192469D01*
X289418Y191848D01*
X289770Y191320D01*
X290297Y190968D01*
X290919Y190845D01*
X291541Y190968D01*
X292068Y191320D01*
X292420Y191848D01*
X292544Y192469D01*
X292420Y193091D01*
X292068Y193618D01*
X292039Y193638D01*
Y217641D01*
X291953Y218070D01*
X291711Y218433D01*
X282057Y228086D01*
Y233608D01*
X274952D01*
Y226503D01*
X280473D01*
X289799Y217177D01*
Y210956D01*
X289621Y210855D01*
X289299Y210804D01*
X289217Y210927D01*
X271687Y228456D01*
X271966Y229128D01*
X272088Y230055D01*
X271966Y230983D01*
X271608Y231847D01*
X271038Y232589D01*
X270296Y233159D01*
X269432Y233517D01*
X268504Y233639D01*
D02*
G37*
G36*
X31010Y197490D02*
X23668D01*
Y190148D01*
X31010D01*
Y197490D01*
D02*
G37*
G36*
X-456Y209062D02*
X-2339Y208876D01*
X-4150Y208327D01*
X-5819Y207435D01*
X-7281Y206235D01*
X-8482Y204772D01*
X-9374Y203103D01*
X-9923Y201292D01*
X-10108Y199409D01*
X-9923Y197526D01*
X-9374Y195716D01*
X-8482Y194047D01*
X-7281Y192584D01*
X-5819Y191384D01*
X-4150Y190492D01*
X-2339Y189943D01*
X-456Y189757D01*
X1427Y189943D01*
X3238Y190492D01*
X4907Y191384D01*
X6369Y192584D01*
X7570Y194047D01*
X8462Y195716D01*
X9011Y197526D01*
X9196Y199409D01*
X9011Y201292D01*
X8462Y203103D01*
X7570Y204772D01*
X6369Y206235D01*
X4907Y207435D01*
X3238Y208327D01*
X1427Y208876D01*
X-456Y209062D01*
D02*
G37*
G36*
X652246Y170386D02*
X647896D01*
Y166826D01*
X644218Y163149D01*
X641991D01*
Y158405D01*
X645947D01*
Y161421D01*
X650298Y165772D01*
X650475Y166037D01*
X652246D01*
Y170386D01*
D02*
G37*
G36*
X115199Y117280D02*
X111870D01*
X111556Y117217D01*
X111353Y117081D01*
X111289Y117039D01*
X110779D01*
X110716Y117081D01*
X110513Y117217D01*
X110199Y117280D01*
X106870D01*
X106555Y117217D01*
X106352Y117081D01*
X106289Y117039D01*
X105779D01*
X105716Y117081D01*
X105513Y117217D01*
X105199Y117280D01*
X101870D01*
X101556Y117217D01*
X101289Y117039D01*
X101111Y116773D01*
X101048Y116458D01*
Y103090D01*
X101111Y102776D01*
X101289Y102509D01*
X101556Y102331D01*
X101870Y102269D01*
X102312D01*
Y97400D01*
X102405Y96932D01*
X102670Y96536D01*
X104687Y94519D01*
Y92488D01*
X109430D01*
Y96444D01*
X106218D01*
X104756Y97906D01*
Y102269D01*
X105199D01*
X105513Y102331D01*
X105716Y102467D01*
X105779Y102509D01*
X106289D01*
X106352Y102467D01*
X106555Y102331D01*
X106870Y102269D01*
X110199D01*
X110513Y102331D01*
X110716Y102467D01*
X110779Y102509D01*
X111289D01*
X111352Y102467D01*
X111556Y102331D01*
X111870Y102269D01*
X112312D01*
Y95265D01*
X112356Y95046D01*
Y91504D01*
X117296D01*
Y96444D01*
X114756D01*
Y102269D01*
X115199D01*
X115513Y102331D01*
X115779Y102509D01*
X115957Y102776D01*
X116020Y103090D01*
Y116458D01*
X115957Y116773D01*
X115779Y117039D01*
X115513Y117217D01*
X115199Y117280D01*
D02*
G37*
G36*
X146474Y83832D02*
Y83832D01*
X141730D01*
Y79876D01*
X146474D01*
Y80525D01*
X146517Y80560D01*
X147139Y80684D01*
X147666Y81036D01*
X148018Y81563D01*
X148142Y82185D01*
X148018Y82807D01*
X147666Y83334D01*
X147139Y83686D01*
X146930Y83728D01*
X146474Y83832D01*
X146474Y83832D01*
D02*
G37*
G36*
X71168Y77451D02*
X50283D01*
Y67787D01*
X71168D01*
Y69361D01*
X86156D01*
X86574Y69082D01*
X87195Y68958D01*
X87287Y68976D01*
X87422Y68842D01*
X87818Y68577D01*
X88175Y68506D01*
Y64982D01*
X94099D01*
Y70906D01*
X89485D01*
X89375Y70928D01*
X88792D01*
X88742Y70978D01*
X88697Y71205D01*
X88344Y71732D01*
X87817Y72084D01*
X87195Y72208D01*
X86574Y72084D01*
X86156Y71805D01*
X71168D01*
Y77451D01*
D02*
G37*
G36*
X614442Y52905D02*
X610486D01*
Y48162D01*
X612714D01*
X613351Y47524D01*
X613640Y47331D01*
X613938Y47034D01*
Y43353D01*
X612530Y41945D01*
X611235D01*
X611235Y41946D01*
X611186Y42446D01*
X611083Y42639D01*
X610999Y42841D01*
X610967Y42854D01*
X610951Y42884D01*
X610742Y42948D01*
X610539Y43032D01*
X608467D01*
Y43829D01*
X608790Y44044D01*
X609142Y44572D01*
X609266Y45193D01*
X609142Y45815D01*
X608790Y46342D01*
X608467Y46558D01*
Y47565D01*
X606627D01*
X606359Y48065D01*
X606424Y48162D01*
X608536D01*
Y52905D01*
X604580D01*
Y50124D01*
X601223Y46767D01*
X599144D01*
X599072Y46838D01*
Y47005D01*
X598979Y47473D01*
X598714Y47869D01*
X597901Y48682D01*
X597505Y48947D01*
X597037Y49040D01*
X596870D01*
X596154Y49756D01*
X596040Y50328D01*
X595688Y50855D01*
X595161Y51207D01*
X594539Y51331D01*
X593918Y51207D01*
X593390Y50855D01*
X593038Y50328D01*
X592914Y49706D01*
X593038Y49084D01*
X593390Y48557D01*
X593918Y48205D01*
X594332Y48122D01*
X594962Y47493D01*
X594770Y47031D01*
X588973D01*
Y46645D01*
X586329D01*
X586203Y46670D01*
X583891D01*
Y48202D01*
X579541D01*
Y43459D01*
X583157D01*
X583281Y42838D01*
X583499Y42511D01*
X583251Y42011D01*
X579541D01*
Y37268D01*
X580117D01*
Y34359D01*
X580260Y33638D01*
X580669Y33026D01*
X581280Y32618D01*
X582001Y32474D01*
X582722Y32618D01*
X583334Y33026D01*
X583742Y33638D01*
X583886Y34359D01*
Y37268D01*
X583891D01*
Y38417D01*
X587398D01*
X587866Y38510D01*
X587909Y38539D01*
X588973D01*
Y36185D01*
X594434D01*
X594626Y35723D01*
X592062Y33159D01*
X591012D01*
X590931Y33143D01*
X587640D01*
Y19344D01*
X592777D01*
Y31394D01*
X592792Y31396D01*
X593089Y31595D01*
X595396Y33903D01*
X595858Y33711D01*
X595858Y19354D01*
X596049Y18895D01*
X596508Y18704D01*
X612854D01*
X613083Y18799D01*
X613313Y18894D01*
X613313Y18894D01*
X613313Y18895D01*
X613409Y19124D01*
X613504Y19354D01*
X613513Y39147D01*
X613505Y39528D01*
X613905Y39830D01*
X614090Y39789D01*
X614368Y39674D01*
Y36482D01*
X618324D01*
Y41225D01*
X615919D01*
X615728Y41687D01*
X616024Y41983D01*
X616289Y42380D01*
X616382Y42847D01*
Y47540D01*
X616289Y48007D01*
X616024Y48404D01*
X615175Y49252D01*
X614887Y49445D01*
X614442Y49890D01*
Y52905D01*
D02*
G37*
%LPD*%
G36*
X598497Y42382D02*
X598637Y42354D01*
X605266D01*
X605405Y42382D01*
X610539Y42382D01*
X610589Y41882D01*
X610438Y41852D01*
X610042Y41587D01*
X609777Y41191D01*
X609684Y40723D01*
X609777Y40256D01*
X610042Y39859D01*
X610438Y39595D01*
X610906Y39502D01*
X612510D01*
X612864Y39148D01*
X612854Y19354D01*
X596508D01*
X596508Y34782D01*
X596913D01*
X597263Y34851D01*
X597561Y35050D01*
X598198Y35687D01*
X598396Y35984D01*
X598466Y36335D01*
Y36571D01*
X600723D01*
Y37373D01*
X601110Y37690D01*
X601263Y37660D01*
X601885Y37783D01*
X602412Y38136D01*
X602764Y38663D01*
X602888Y39285D01*
X602764Y39906D01*
X602412Y40433D01*
X601885Y40786D01*
X601263Y40909D01*
X600641Y40786D01*
X600633Y40780D01*
X599045D01*
X598637Y40861D01*
X598170Y40768D01*
X598127Y40739D01*
X597062D01*
Y42382D01*
X598497D01*
D02*
G37*
%LPC*%
G36*
X603922Y25920D02*
X603660D01*
X603310Y25850D01*
X603013Y25652D01*
X602814Y25355D01*
X602744Y25004D01*
X602814Y24654D01*
X603013Y24356D01*
X603310Y24158D01*
X603660Y24088D01*
X603922D01*
X604272Y24158D01*
X604570Y24356D01*
X604768Y24654D01*
X604838Y25004D01*
X604768Y25355D01*
X604570Y25652D01*
X604272Y25850D01*
X603922Y25920D01*
D02*
G37*
G36*
X257226Y171841D02*
X257226D01*
X256758Y171748D01*
X256362Y171483D01*
X256097Y171086D01*
X256004Y170619D01*
X256097Y170151D01*
X256362Y169755D01*
X256758Y169490D01*
X257226Y169397D01*
X257226D01*
X257693Y169490D01*
X258090Y169755D01*
X258355Y170151D01*
X258448Y170619D01*
X258355Y171086D01*
X258090Y171483D01*
X257693Y171748D01*
X257226Y171841D01*
D02*
G37*
G36*
X541235Y166170D02*
X540613Y166047D01*
X540086Y165694D01*
X539734Y165167D01*
X539610Y164545D01*
X539734Y163924D01*
X540086Y163396D01*
X540613Y163044D01*
X541235Y162920D01*
X541857Y163044D01*
X542384Y163396D01*
X542736Y163924D01*
X542860Y164545D01*
X542736Y165167D01*
X542384Y165694D01*
X541857Y166047D01*
X541235Y166170D01*
D02*
G37*
G36*
X258604Y165238D02*
X256832D01*
X256364Y165145D01*
X255968Y164880D01*
X255703Y164483D01*
X255610Y164016D01*
X255703Y163548D01*
X255968Y163152D01*
X256364Y162887D01*
X256832Y162794D01*
X258604D01*
X259071Y162887D01*
X259468Y163152D01*
X259733Y163548D01*
X259826Y164016D01*
X259733Y164483D01*
X259468Y164880D01*
X259071Y165145D01*
X258604Y165238D01*
D02*
G37*
G36*
X254919Y152674D02*
X254452Y152581D01*
X254055Y152316D01*
X253790Y151920D01*
X253697Y151452D01*
X253790Y150985D01*
X254055Y150588D01*
X254055Y150588D01*
X254452Y150323D01*
X254919Y150230D01*
X255313D01*
X255781Y150323D01*
X256177Y150588D01*
X256442Y150985D01*
X256535Y151452D01*
X256442Y151920D01*
X256177Y152316D01*
X255781Y152581D01*
X255313Y152674D01*
X254919D01*
X254919Y152674D01*
D02*
G37*
G36*
X275391Y136779D02*
X275041Y136709D01*
X274744Y136511D01*
X274545Y136214D01*
X274475Y135863D01*
Y135831D01*
X274545Y135480D01*
X274744Y135183D01*
X275041Y134985D01*
X275391Y134915D01*
X275742Y134985D01*
X276039Y135183D01*
X276238Y135480D01*
X276307Y135831D01*
Y135863D01*
X276238Y136214D01*
X276039Y136511D01*
X275742Y136709D01*
X275391Y136779D01*
D02*
G37*
G36*
X186302Y146408D02*
X183514D01*
X183125Y146331D01*
X182795Y146110D01*
X181755Y145070D01*
X181490Y145018D01*
X181160Y144797D01*
X180939Y144467D01*
X180862Y144077D01*
X180939Y143687D01*
X181160Y143357D01*
X181490Y143137D01*
X181880Y143059D01*
X182201D01*
X182591Y143137D01*
X182921Y143357D01*
X183936Y144372D01*
X186302D01*
X186692Y144450D01*
X187022Y144671D01*
X187242Y145001D01*
X187320Y145390D01*
X187242Y145780D01*
X187022Y146110D01*
X186692Y146331D01*
X186302Y146408D01*
D02*
G37*
G36*
X202915Y94618D02*
X198959D01*
Y94245D01*
X198466Y94147D01*
X197939Y93795D01*
X197587Y93268D01*
X197463Y92646D01*
X197587Y92024D01*
X197939Y91497D01*
X198466Y91145D01*
X198959Y91047D01*
Y90072D01*
X202915D01*
Y94618D01*
D02*
G37*
G36*
X95461Y83393D02*
X94840Y83269D01*
X94312Y82917D01*
X93960Y82390D01*
X93836Y81768D01*
X93960Y81146D01*
X94312Y80619D01*
X94840Y80267D01*
X95461Y80143D01*
X96083Y80267D01*
X96610Y80619D01*
X96963Y81146D01*
X97086Y81768D01*
X96963Y82390D01*
X96610Y82917D01*
X96083Y83269D01*
X95461Y83393D01*
D02*
G37*
G36*
X28679Y93681D02*
X28211Y93588D01*
X27815Y93323D01*
X27550Y92927D01*
X27457Y92459D01*
Y79006D01*
X27550Y78538D01*
X27815Y78142D01*
X29335Y76622D01*
Y67926D01*
X29428Y67458D01*
X29693Y67062D01*
X30089Y66797D01*
X30557Y66704D01*
X31025Y66797D01*
X31421Y67062D01*
X31686Y67458D01*
X31779Y67926D01*
Y77128D01*
X31686Y77596D01*
X31421Y77992D01*
X29901Y79512D01*
Y92459D01*
X29808Y92927D01*
X29543Y93323D01*
X29147Y93588D01*
X28679Y93681D01*
D02*
G37*
G36*
X533995Y22941D02*
X528228D01*
Y17174D01*
X533995D01*
Y22941D01*
D02*
G37*
G36*
X213444Y46944D02*
X212823Y46821D01*
X212296Y46469D01*
X211943Y45941D01*
X211820Y45320D01*
X211943Y44698D01*
X212296Y44171D01*
X212823Y43818D01*
X213316Y43720D01*
X213890Y43146D01*
X214286Y42881D01*
X214754Y42788D01*
X216159D01*
Y42032D01*
X220902D01*
Y45988D01*
X216159D01*
Y45232D01*
X215260D01*
X215044Y45448D01*
X214946Y45941D01*
X214594Y46469D01*
X214066Y46821D01*
X213444Y46944D01*
D02*
G37*
G36*
X227024Y44439D02*
X226402Y44315D01*
X225875Y43963D01*
X225523Y43436D01*
X225399Y42814D01*
X225523Y42192D01*
X225527Y42186D01*
X225489Y41994D01*
Y41073D01*
X223082D01*
Y35936D01*
X231368D01*
Y41073D01*
X228187D01*
X228035Y41573D01*
X228173Y41665D01*
X228525Y42192D01*
X228649Y42814D01*
X228525Y43436D01*
X228173Y43963D01*
X227646Y44315D01*
X227024Y44439D01*
D02*
G37*
G36*
X268512Y41968D02*
X261012D01*
Y35847D01*
X268512D01*
Y41968D01*
D02*
G37*
G36*
X246283Y34673D02*
X245662Y34549D01*
X245134Y34197D01*
X244782Y33670D01*
X244658Y33048D01*
X244782Y32426D01*
X245134Y31899D01*
X245662Y31547D01*
X246283Y31423D01*
X246905Y31547D01*
X247432Y31899D01*
X247785Y32426D01*
X247908Y33048D01*
X247785Y33670D01*
X247432Y34197D01*
X246905Y34549D01*
X246283Y34673D01*
D02*
G37*
G36*
X210961Y36577D02*
X205824D01*
Y29274D01*
X210961D01*
Y36577D01*
D02*
G37*
G36*
X188609Y34658D02*
X178766D01*
X178307Y34468D01*
X178117Y34008D01*
Y26134D01*
X178307Y25675D01*
X178766Y25485D01*
X188609D01*
X189068Y25675D01*
X189258Y26134D01*
Y34008D01*
X189068Y34468D01*
X188609Y34658D01*
D02*
G37*
G36*
X240477Y23867D02*
X233766D01*
Y21018D01*
X231627D01*
X230906Y20874D01*
X230294Y20466D01*
X230071Y20243D01*
X229662Y19631D01*
X229519Y18910D01*
X229662Y18189D01*
X230071Y17577D01*
X230682Y17169D01*
X231404Y17025D01*
X232125Y17169D01*
X232244Y17248D01*
X233766D01*
Y14399D01*
X240477D01*
Y23867D01*
D02*
G37*
G36*
X269978Y8394D02*
X269398Y8278D01*
X269035Y8035D01*
X268699Y7982D01*
X268363Y8035D01*
X267999Y8278D01*
X267419Y8394D01*
X266840Y8278D01*
X266348Y7950D01*
X265931D01*
X265440Y8278D01*
X264860Y8394D01*
X264280Y8278D01*
X263917Y8035D01*
X263581Y7982D01*
X263245Y8035D01*
X262881Y8278D01*
X262301Y8394D01*
X261721Y8278D01*
X261230Y7950D01*
X260901Y7458D01*
X260786Y6879D01*
Y1383D01*
X259370Y-33D01*
X259105Y-429D01*
X259012Y-897D01*
Y-2557D01*
X257075D01*
Y-7694D01*
X263393D01*
Y-4019D01*
X263893Y-3867D01*
X263996Y-4021D01*
X264260Y-4285D01*
Y-7694D01*
X270578D01*
Y-4089D01*
X271040Y-3898D01*
X271427Y-4285D01*
Y-7694D01*
X277746D01*
Y-2557D01*
X273155D01*
X271411Y-812D01*
X271014Y-547D01*
X270990Y-542D01*
X270885Y-11D01*
X271049Y99D01*
X271378Y590D01*
X271493Y1170D01*
Y3681D01*
X271634Y3797D01*
X272256Y3920D01*
X272783Y4273D01*
X273135Y4800D01*
X273259Y5422D01*
X273135Y6044D01*
X272783Y6571D01*
X272256Y6923D01*
X271634Y7047D01*
X271466Y7013D01*
X271378Y7458D01*
X271049Y7950D01*
X270558Y8278D01*
X269978Y8394D01*
D02*
G37*
G36*
X152766Y30702D02*
X150166D01*
Y24502D01*
X152766D01*
Y26686D01*
X154309D01*
X156171Y24823D01*
X156061Y24270D01*
X156185Y23649D01*
X156537Y23121D01*
X157064Y22769D01*
X157686Y22646D01*
X158308Y22769D01*
X158564Y22940D01*
X159064Y22673D01*
Y12655D01*
X152758Y6350D01*
X152258Y6557D01*
Y17658D01*
X151117D01*
Y19353D01*
X151047Y19704D01*
X150849Y20001D01*
X147264Y23586D01*
Y24502D01*
X147648D01*
Y30702D01*
X145048D01*
Y28518D01*
X136573D01*
X136350Y28851D01*
X135823Y29203D01*
X135201Y29327D01*
X134579Y29203D01*
X134052Y28851D01*
X133700Y28324D01*
X133576Y27702D01*
X133700Y27080D01*
X134052Y26553D01*
X134579Y26201D01*
X135201Y26077D01*
X135823Y26201D01*
X136350Y26553D01*
X136439Y26686D01*
X138511D01*
X138778Y26186D01*
X138608Y25930D01*
X138547Y25627D01*
X138349Y25538D01*
X138007Y25472D01*
X137558Y25772D01*
X136936Y25895D01*
X136314Y25772D01*
X135787Y25419D01*
X135435Y24892D01*
X135311Y24270D01*
X135435Y23649D01*
X135787Y23121D01*
X135784Y22560D01*
X134553Y21329D01*
X134355Y21032D01*
X134285Y20681D01*
Y17658D01*
X133144D01*
Y5474D01*
X135962D01*
X136504Y4932D01*
X136313Y4470D01*
X131334D01*
X131117Y4687D01*
Y5474D01*
X132258D01*
Y17658D01*
X128144D01*
Y12482D01*
X126794D01*
X126638Y12715D01*
X126111Y13067D01*
X125489Y13191D01*
X124867Y13067D01*
X124340Y12715D01*
X123988Y12188D01*
X123864Y11566D01*
X123988Y10944D01*
X124340Y10417D01*
X124867Y10065D01*
X125489Y9941D01*
X126111Y10065D01*
X126638Y10417D01*
X126794Y10650D01*
X128144D01*
Y5474D01*
X129285D01*
Y4307D01*
X129355Y3957D01*
X129553Y3660D01*
X130307Y2907D01*
X130604Y2708D01*
X130954Y2638D01*
X159637D01*
X159987Y2708D01*
X160285Y2907D01*
X165228Y7850D01*
X165770Y7685D01*
X165830Y7383D01*
X166182Y6856D01*
X166710Y6504D01*
X167332Y6380D01*
X167953Y6504D01*
X168480Y6856D01*
X168568Y6987D01*
X171883D01*
X173978Y4892D01*
X174309Y4671D01*
X174698Y4593D01*
X176944D01*
X177333Y4671D01*
X177664Y4892D01*
X178586Y5814D01*
X232521D01*
X232818Y5490D01*
X232598Y5043D01*
X230271D01*
Y2750D01*
X230043Y2409D01*
X229919Y1785D01*
X229963Y1564D01*
Y-1603D01*
X230087Y-2227D01*
X230440Y-2755D01*
X231806Y-4121D01*
X232335Y-4475D01*
X232959Y-4599D01*
X243157D01*
X243780Y-4475D01*
X244309Y-4121D01*
X245481Y-2950D01*
X245481Y-2950D01*
X245834Y-2421D01*
X245958Y-1798D01*
Y7186D01*
X252654Y13882D01*
X252712Y13894D01*
X253241Y14247D01*
X253393Y14399D01*
X257800D01*
Y23867D01*
X251089D01*
Y16802D01*
X250714Y16552D01*
X243176Y9014D01*
X242823Y8485D01*
X242698Y7861D01*
Y-1122D01*
X242481Y-1339D01*
X240503D01*
Y5043D01*
X237949D01*
X237641Y5415D01*
X237607Y5582D01*
X237387Y5913D01*
X234347Y8952D01*
X234017Y9173D01*
X233627Y9250D01*
X201499D01*
X201266Y9599D01*
Y16318D01*
X201706Y16740D01*
X225165D01*
X225251Y16612D01*
X225778Y16260D01*
X226400Y16136D01*
X227022Y16260D01*
X227549Y16612D01*
X227901Y17139D01*
X228025Y17761D01*
X227901Y18383D01*
X227549Y18910D01*
X227022Y19262D01*
X226400Y19386D01*
X225778Y19262D01*
X225251Y18910D01*
X225025Y18573D01*
X221793D01*
X221602Y19035D01*
X225267Y22700D01*
X225542Y22646D01*
X226164Y22769D01*
X226691Y23121D01*
X227043Y23649D01*
X227167Y24270D01*
X227043Y24892D01*
X226691Y25419D01*
X226164Y25772D01*
X225542Y25895D01*
X224920Y25772D01*
X224393Y25419D01*
X224041Y24892D01*
X223917Y24270D01*
X223972Y23996D01*
X219749Y19773D01*
X202582D01*
X202134Y20221D01*
X201837Y20419D01*
X201486Y20489D01*
X173214D01*
Y25061D01*
X173144Y25411D01*
X172945Y25708D01*
X168243Y30411D01*
X167946Y30610D01*
X167595Y30679D01*
X160606D01*
X160256Y30610D01*
X159959Y30411D01*
X159332Y29784D01*
X159133Y29487D01*
X159064Y29136D01*
Y25868D01*
X158564Y25601D01*
X158308Y25772D01*
X157691Y25894D01*
X155336Y28249D01*
X155039Y28448D01*
X154688Y28518D01*
X152766D01*
Y30702D01*
D02*
G37*
G36*
X341500Y26371D02*
X339275Y26195D01*
X337104Y25674D01*
X335041Y24820D01*
X333138Y23654D01*
X331440Y22204D01*
X329991Y20506D01*
X328824Y18603D01*
X327970Y16540D01*
X327449Y14370D01*
X327274Y12144D01*
X327449Y9919D01*
X327970Y7748D01*
X328824Y5685D01*
X329991Y3782D01*
X331440Y2084D01*
X333138Y635D01*
X335041Y-532D01*
X337104Y-1386D01*
X339275Y-1907D01*
X341500Y-2082D01*
X343726Y-1907D01*
X345896Y-1386D01*
X347959Y-532D01*
X349862Y635D01*
X351560Y2084D01*
X353010Y3782D01*
X354176Y5685D01*
X355030Y7748D01*
X355551Y9919D01*
X355727Y12144D01*
X355551Y14370D01*
X355030Y16540D01*
X354176Y18603D01*
X353010Y20506D01*
X351560Y22204D01*
X349862Y23654D01*
X347959Y24820D01*
X345896Y25674D01*
X343726Y26195D01*
X341500Y26371D01*
D02*
G37*
G36*
X168818Y738D02*
X168196Y615D01*
X167669Y262D01*
X167316Y-265D01*
X167193Y-887D01*
X167316Y-1508D01*
X167669Y-2036D01*
X167800Y-2123D01*
Y-5549D01*
X166749D01*
Y-13639D01*
X170580D01*
X170705Y-13639D01*
X171080D01*
X171205Y-13639D01*
X175035D01*
Y-5549D01*
X174166D01*
Y-4166D01*
X175824Y-2508D01*
X175979Y-2539D01*
X176600Y-2415D01*
X177128Y-2063D01*
X177480Y-1536D01*
X177603Y-914D01*
X177480Y-292D01*
X177128Y235D01*
X176600Y587D01*
X175979Y711D01*
X175357Y587D01*
X174830Y235D01*
X174477Y-292D01*
X174354Y-914D01*
X174384Y-1068D01*
X172428Y-3025D01*
X172208Y-3355D01*
X172130Y-3744D01*
Y-5549D01*
X171205D01*
X171080Y-5549D01*
X170705D01*
X170580Y-5549D01*
X169836D01*
Y-2123D01*
X169967Y-2036D01*
X170319Y-1508D01*
X170442Y-887D01*
X170319Y-265D01*
X169967Y262D01*
X169439Y615D01*
X168818Y738D01*
D02*
G37*
G36*
X152258Y1635D02*
X148144D01*
Y-10550D01*
X152258D01*
Y1635D01*
D02*
G37*
G36*
X147258D02*
X143144D01*
Y-10550D01*
X147258D01*
Y1635D01*
D02*
G37*
G36*
X142258D02*
X138144D01*
Y-10550D01*
X142258D01*
Y1635D01*
D02*
G37*
G36*
X132258D02*
X128144D01*
Y-10550D01*
X128145D01*
Y-12000D01*
X128269Y-12624D01*
X128622Y-13152D01*
X129151Y-13506D01*
X129774Y-13630D01*
X130398Y-13506D01*
X130927Y-13152D01*
X131280Y-12624D01*
X131404Y-12000D01*
Y-10550D01*
X132258D01*
Y1635D01*
D02*
G37*
G36*
X181810Y936D02*
X181188Y812D01*
X180661Y460D01*
X180308Y-67D01*
X180185Y-689D01*
X180308Y-1311D01*
X180661Y-1838D01*
X180792Y-1925D01*
Y-5549D01*
X179741D01*
Y-13639D01*
X183572D01*
X183697Y-13639D01*
X184072D01*
X184197Y-13639D01*
X187902D01*
X188028Y-13639D01*
X188402D01*
X188528Y-13639D01*
X192233D01*
X192358Y-13639D01*
X192733D01*
X192858Y-13639D01*
X196564D01*
X196689Y-13639D01*
X197064D01*
X197189Y-13639D01*
X201020D01*
Y-5549D01*
X200087D01*
Y-5171D01*
X200010Y-4782D01*
X199789Y-4451D01*
X199663Y-4325D01*
X199697Y-4154D01*
X199573Y-3532D01*
X199221Y-3005D01*
X198694Y-2653D01*
X198072Y-2529D01*
X197450Y-2653D01*
X196923Y-3005D01*
X196882Y-3066D01*
X196351Y-2961D01*
X196303Y-2719D01*
X195951Y-2192D01*
X195424Y-1840D01*
X194802Y-1716D01*
X194180Y-1840D01*
X193653Y-2192D01*
X193301Y-2719D01*
X193177Y-3341D01*
X193301Y-3963D01*
X193653Y-4490D01*
X193784Y-4577D01*
Y-5549D01*
X192858D01*
X192733Y-5549D01*
X192358D01*
X192233Y-5549D01*
X191489D01*
Y-4598D01*
X191620Y-4510D01*
X191972Y-3983D01*
X192096Y-3361D01*
X191972Y-2740D01*
X191620Y-2212D01*
X191093Y-1860D01*
X190471Y-1736D01*
X189849Y-1860D01*
X189322Y-2212D01*
X188970Y-2740D01*
X188846Y-3361D01*
X188970Y-3983D01*
X189322Y-4510D01*
X189453Y-4598D01*
Y-5549D01*
X188528D01*
X188402Y-5549D01*
X188028D01*
X187902Y-5549D01*
X184197D01*
X184072Y-5549D01*
X183697D01*
X183572Y-5549D01*
X182828D01*
Y-1925D01*
X182959Y-1838D01*
X183311Y-1311D01*
X183434Y-689D01*
X183311Y-67D01*
X182959Y460D01*
X182431Y812D01*
X181810Y936D01*
D02*
G37*
%LPD*%
G36*
X171382Y24681D02*
Y19924D01*
X171409Y19789D01*
X171086Y19289D01*
X166779D01*
X166429Y19219D01*
X166131Y19021D01*
X165604Y18493D01*
X165406Y18196D01*
X165336Y17846D01*
Y10549D01*
X159257Y4470D01*
X154123D01*
X153931Y4932D01*
X160627Y11628D01*
X160826Y11925D01*
X160896Y12276D01*
Y24156D01*
X167752D01*
Y27658D01*
X168214Y27849D01*
X171382Y24681D01*
D02*
G37*
%LPC*%
G36*
X24252Y43561D02*
X20689D01*
Y37833D01*
X24252D01*
Y43561D01*
D02*
G37*
G36*
X-928Y43430D02*
X-4490D01*
Y37703D01*
X-928D01*
Y43430D01*
D02*
G37*
G36*
X6552D02*
X2990D01*
Y42206D01*
X2775Y42063D01*
X2256Y41286D01*
X2074Y40369D01*
Y35148D01*
X2021D01*
Y31901D01*
X2325D01*
X2775Y31227D01*
X3552Y30708D01*
X4468Y30526D01*
X5385Y30708D01*
X6162Y31227D01*
X6192Y31273D01*
X10877D01*
X11501Y31397D01*
X12030Y31751D01*
X12383Y32279D01*
X12507Y32903D01*
X12383Y33527D01*
X12030Y34056D01*
X11501Y34409D01*
X10877Y34533D01*
X6863D01*
Y40369D01*
X6681Y41286D01*
X6552Y41478D01*
Y43430D01*
D02*
G37*
G36*
X31732Y43561D02*
X28170D01*
Y42409D01*
X28098Y42354D01*
X27681Y41811D01*
X27419Y41179D01*
X27330Y40500D01*
Y32747D01*
X27419Y32068D01*
X27499Y31875D01*
Y31769D01*
X27543D01*
X27681Y31436D01*
X28098Y30893D01*
X28640Y30477D01*
X29272Y30215D01*
X29951Y30126D01*
X30629Y30215D01*
X31261Y30477D01*
X31804Y30893D01*
X31962Y31100D01*
X35025D01*
X35649Y31224D01*
X36178Y31577D01*
X36219Y31618D01*
X36572Y32147D01*
X36696Y32770D01*
X36572Y33394D01*
X36219Y33923D01*
X35690Y34276D01*
X35066Y34400D01*
X34861Y34359D01*
X32572D01*
Y40500D01*
X32482Y41179D01*
X32220Y41811D01*
X31804Y42354D01*
X31732Y42409D01*
Y43561D01*
D02*
G37*
G36*
X34062Y26118D02*
X28531D01*
Y18225D01*
X29667D01*
Y4497D01*
X29791Y3873D01*
X30144Y3344D01*
X33773Y-284D01*
Y-3510D01*
X41666D01*
Y2021D01*
X36078D01*
X32926Y5172D01*
Y18225D01*
X34062D01*
Y26118D01*
D02*
G37*
G36*
X290715Y54483D02*
X290325Y54406D01*
X289995Y54185D01*
X288224Y52413D01*
X288003Y52083D01*
X287926Y51694D01*
Y51300D01*
X288003Y50910D01*
X288224Y50580D01*
X288554Y50359D01*
X288944Y50282D01*
X289333Y50359D01*
X289663Y50580D01*
X289884Y50910D01*
X289955Y51265D01*
X291435Y52745D01*
X291656Y53076D01*
X291733Y53465D01*
X291656Y53855D01*
X291435Y54185D01*
X291105Y54406D01*
X290715Y54483D01*
D02*
G37*
G36*
X436626Y18204D02*
X435801Y18096D01*
X435033Y17777D01*
X434373Y17271D01*
X433867Y16611D01*
X433548Y15843D01*
X433440Y15018D01*
X433548Y14193D01*
X433867Y13425D01*
X434373Y12765D01*
X435033Y12259D01*
X435801Y11940D01*
X436626Y11832D01*
X437451Y11940D01*
X438219Y12259D01*
X438879Y12765D01*
X439385Y13425D01*
X439704Y14193D01*
X439812Y15018D01*
X439704Y15843D01*
X439385Y16611D01*
X438879Y17271D01*
X438219Y17777D01*
X437451Y18096D01*
X436626Y18204D01*
D02*
G37*
G36*
X428752D02*
X427927Y18096D01*
X427159Y17777D01*
X426499Y17271D01*
X425992Y16611D01*
X425674Y15843D01*
X425566Y15018D01*
X425674Y14193D01*
X425992Y13425D01*
X426499Y12765D01*
X427159Y12259D01*
X427927Y11940D01*
X428752Y11832D01*
X429577Y11940D01*
X430345Y12259D01*
X431005Y12765D01*
X431511Y13425D01*
X431830Y14193D01*
X431938Y15018D01*
X431830Y15843D01*
X431511Y16611D01*
X431005Y17271D01*
X430345Y17777D01*
X429577Y18096D01*
X428752Y18204D01*
D02*
G37*
G36*
X420878D02*
X420053Y18096D01*
X419285Y17777D01*
X418625Y17271D01*
X418118Y16611D01*
X417800Y15843D01*
X417692Y15018D01*
X417800Y14193D01*
X418118Y13425D01*
X418625Y12765D01*
X419285Y12259D01*
X420053Y11940D01*
X420878Y11832D01*
X421703Y11940D01*
X422471Y12259D01*
X423131Y12765D01*
X423637Y13425D01*
X423956Y14193D01*
X424064Y15018D01*
X423956Y15843D01*
X423637Y16611D01*
X423131Y17271D01*
X422471Y17777D01*
X421703Y18096D01*
X420878Y18204D01*
D02*
G37*
G36*
Y10330D02*
X420053Y10222D01*
X419285Y9904D01*
X418625Y9397D01*
X418118Y8737D01*
X417800Y7969D01*
X417692Y7144D01*
X417800Y6319D01*
X418118Y5551D01*
X418625Y4891D01*
X419285Y4385D01*
X420053Y4066D01*
X420878Y3958D01*
X421703Y4066D01*
X422471Y4385D01*
X423131Y4891D01*
X423637Y5551D01*
X423956Y6319D01*
X424064Y7144D01*
X423956Y7969D01*
X423637Y8737D01*
X423131Y9397D01*
X422471Y9904D01*
X421703Y10222D01*
X420878Y10330D01*
D02*
G37*
G36*
X413004D02*
X412179Y10222D01*
X411411Y9904D01*
X410751Y9397D01*
X410245Y8737D01*
X409926Y7969D01*
X409818Y7144D01*
X409926Y6319D01*
X410245Y5551D01*
X410751Y4891D01*
X411411Y4385D01*
X412179Y4066D01*
X413004Y3958D01*
X413829Y4066D01*
X414597Y4385D01*
X415257Y4891D01*
X415763Y5551D01*
X416082Y6319D01*
X416190Y7144D01*
X416082Y7969D01*
X415763Y8737D01*
X415257Y9397D01*
X414597Y9904D01*
X413829Y10222D01*
X413004Y10330D01*
D02*
G37*
G36*
X389382D02*
X388557Y10222D01*
X387789Y9904D01*
X387129Y9397D01*
X386622Y8737D01*
X386304Y7969D01*
X386196Y7144D01*
X386304Y6319D01*
X386622Y5551D01*
X387129Y4891D01*
X387789Y4385D01*
X388557Y4066D01*
X389382Y3958D01*
X390207Y4066D01*
X390975Y4385D01*
X391635Y4891D01*
X392141Y5551D01*
X392460Y6319D01*
X392568Y7144D01*
X392460Y7969D01*
X392141Y8737D01*
X391635Y9397D01*
X390975Y9904D01*
X390207Y10222D01*
X389382Y10330D01*
D02*
G37*
G36*
X405130D02*
X404305Y10222D01*
X403537Y9904D01*
X402877Y9397D01*
X402371Y8737D01*
X402052Y7969D01*
X401944Y7144D01*
X402052Y6319D01*
X402371Y5551D01*
X402877Y4891D01*
X403537Y4385D01*
X404214Y4104D01*
Y-56D01*
X404284Y-407D01*
X404482Y-704D01*
X410977Y-7199D01*
X410970Y-7208D01*
X410612Y-8072D01*
X410490Y-9000D01*
X410612Y-9928D01*
X410970Y-10792D01*
X411540Y-11534D01*
X412282Y-12103D01*
X413146Y-12461D01*
X414074Y-12583D01*
X415001Y-12461D01*
X415865Y-12103D01*
X416607Y-11534D01*
X417177Y-10792D01*
X417535Y-9928D01*
X417657Y-9000D01*
X417535Y-8072D01*
X417177Y-7208D01*
X416607Y-6466D01*
X415865Y-5897D01*
X415001Y-5539D01*
X414074Y-5417D01*
X413146Y-5539D01*
X412282Y-5897D01*
X412273Y-5904D01*
X406046Y323D01*
Y4104D01*
X406723Y4385D01*
X407383Y4891D01*
X407889Y5551D01*
X408208Y6319D01*
X408316Y7144D01*
X408208Y7969D01*
X407889Y8737D01*
X407383Y9397D01*
X406723Y9904D01*
X405955Y10222D01*
X405130Y10330D01*
D02*
G37*
%LPD*%
D13*
X214620Y127024D02*
X216914Y124730D01*
X216381Y116261D02*
X216914Y116793D01*
X216381Y108552D02*
Y116261D01*
X216914Y116793D02*
Y124730D01*
X214620Y127024D02*
Y128114D01*
X215643D02*
X216193Y128664D01*
X214620Y128114D02*
X215643D01*
X210494D02*
X214620D01*
X210345Y127964D02*
X210494Y128114D01*
X202203Y18857D02*
X220128D01*
X225542Y24270D01*
X172649Y19573D02*
X201486D01*
X201706Y17657D02*
X226295D01*
X172298Y19924D02*
X172649Y19573D01*
X201486D02*
X202203Y18857D01*
X166252Y10169D02*
Y17846D01*
X172298Y19924D02*
Y25061D01*
X226295Y17657D02*
X226400Y17761D01*
X166779Y18373D02*
X200989D01*
X201706Y17657D01*
X166252Y17846D02*
X166779Y18373D01*
X145026Y170782D02*
Y200106D01*
X135118Y210015D02*
X145026Y200106D01*
Y170782D02*
X159364Y156445D01*
X277693Y176357D02*
Y190586D01*
X277471Y176135D02*
X277693Y176357D01*
X280618Y192326D02*
X293686Y179258D01*
Y165936D02*
Y179258D01*
Y165936D02*
X293778Y165844D01*
X279987Y189636D02*
X288088Y181534D01*
Y177205D02*
Y181534D01*
X265864Y216011D02*
X275475Y206401D01*
X279434Y192326D02*
X280618D01*
X277693Y190586D02*
X279434Y192326D01*
X276493Y186202D02*
Y194940D01*
X275293Y186788D02*
Y195438D01*
X275475Y195619D01*
X266361Y217211D02*
X276675Y206898D01*
X276271Y185980D02*
X276493Y186202D01*
X275475Y195619D02*
Y206401D01*
X276675Y195122D02*
Y206898D01*
X275071Y186566D02*
X275293Y186788D01*
X276493Y194940D02*
X276675Y195122D01*
X277471Y167265D02*
Y176135D01*
X276271Y165112D02*
Y185980D01*
X278975Y165984D02*
X282380D01*
X278667Y166292D02*
X278975Y165984D01*
X274943Y163784D02*
X276271Y165112D01*
X272649Y164712D02*
X275071Y167134D01*
X278444Y166292D02*
X278667D01*
X275071Y167134D02*
Y186566D01*
X274943Y163762D02*
Y163784D01*
X277471Y167265D02*
X278444Y166292D01*
X181846Y93142D02*
X184995Y96291D01*
X191471D02*
X195846Y91917D01*
X184995Y96291D02*
X191471D01*
X204030Y82610D02*
X205770Y80870D01*
X195846Y86745D02*
X199108Y83483D01*
X203132D01*
X204006Y82610D02*
X204030D01*
X203132Y83483D02*
X204006Y82610D01*
X108700Y169740D02*
X120539D01*
X122673Y155767D02*
Y167606D01*
X120539Y169740D02*
X122673Y167606D01*
X108203Y168540D02*
X120042D01*
X121474Y154813D02*
Y155270D01*
X120273Y154316D02*
Y154773D01*
X139342Y139098D02*
X201666D01*
X107706Y167340D02*
X119545D01*
X120273Y166612D01*
X105552Y167340D02*
X107706D01*
X106049Y168540D02*
X108203D01*
X93196Y185244D02*
X108700Y169740D01*
X79142Y185244D02*
X93196D01*
X122673Y155767D02*
X139342Y139098D01*
X121474Y155270D02*
Y167109D01*
X120042Y168540D02*
X121474Y167109D01*
X120273Y154773D02*
Y166612D01*
X58688Y184044D02*
X92242D01*
X153875Y107879D02*
Y122411D01*
X90048Y182844D02*
X105552Y167340D01*
X98759Y175830D02*
X106049Y168540D01*
X121474Y154813D02*
X153875Y122411D01*
X92242Y184044D02*
X98759Y177528D01*
Y175830D02*
Y177528D01*
X51828Y182844D02*
X90048D01*
X120291Y139691D02*
Y154298D01*
X120273Y154316D02*
X120291Y154298D01*
X159637Y3554D02*
X166252Y10169D01*
X130954Y3554D02*
X159637D01*
X204917Y119820D02*
X207155Y122059D01*
X154688Y27602D02*
X157686Y24604D01*
X152708Y5004D02*
X159980Y12276D01*
X157686Y24270D02*
Y24604D01*
X159980Y12276D02*
Y29136D01*
X167595Y29763D02*
X172298Y25061D01*
X160606Y29763D02*
X167595D01*
X159980Y29136D02*
X160606Y29763D01*
X137728Y5004D02*
X152708D01*
X135201Y7531D02*
X137728Y5004D01*
X135201Y7531D02*
Y20681D01*
X142305Y118537D02*
X144531Y116311D01*
X141445Y118537D02*
X142305D01*
X120291Y139691D02*
X141445Y118537D01*
X144531Y115451D02*
X170157Y89825D01*
X144531Y115451D02*
Y116311D01*
X170157Y89825D02*
X192032D01*
X192479Y89378D02*
X192479D01*
X192032Y89825D02*
X192479Y89378D01*
X192479D02*
X193147Y88710D01*
X153875Y107879D02*
X168613Y93142D01*
X147358Y166753D02*
X159148Y154964D01*
X139196Y162460D02*
X146560D01*
X157891Y149432D02*
X220782D01*
X147057Y163661D02*
X158153Y152564D01*
X159148Y154964D02*
X220201D01*
X145565Y160061D02*
X157394Y148232D01*
X146861Y165553D02*
X158651Y153763D01*
X146560Y162460D02*
X158217Y150803D01*
X158651Y153763D02*
X220698D01*
X159364Y156445D02*
X219985D01*
X132438Y161260D02*
X146063D01*
X157891Y149432D01*
X140102Y166753D02*
X147358D01*
X157394Y148232D02*
X207220D01*
X158153Y152564D02*
X221195D01*
X158217Y150803D02*
X222679D01*
X139497Y165553D02*
X146861D01*
X141742Y163661D02*
X147057D01*
X131941Y160061D02*
X145565D01*
X179925Y175167D02*
Y205041D01*
X181675Y174442D02*
Y204316D01*
X185911Y208552D01*
X179925Y205041D02*
X185186Y210302D01*
X175599Y168366D02*
X181675Y174442D01*
X174874Y170116D02*
X179925Y175167D01*
X220340Y194927D02*
X226137Y189130D01*
X201073Y190956D02*
X214696D01*
X224937Y176944D02*
Y180714D01*
X214696Y190956D02*
X224937Y180714D01*
X208736Y168938D02*
X216931D01*
X224937Y176944D01*
X203560Y163762D02*
X208736Y168938D01*
X213453Y163762D02*
X226137Y176446D01*
X207007Y163762D02*
X213453D01*
X226137Y176446D02*
Y189130D01*
X215833Y183381D02*
X220385Y178829D01*
X206183Y183381D02*
X215833D01*
X193297Y161741D02*
X210385Y178829D01*
X188753Y161741D02*
X193297D01*
X220340Y194927D02*
Y200223D01*
X219985Y156445D02*
X220237Y156697D01*
X207220Y148232D02*
X208143Y147309D01*
X220237Y156697D02*
X230098D01*
X231097Y157696D02*
Y161904D01*
X221195Y152564D02*
X221728Y153097D01*
X220698Y153763D02*
X221232Y154297D01*
X223629Y153097D02*
X224162Y152564D01*
X220782Y149432D02*
X221704Y148509D01*
X221728Y153097D02*
X223629D01*
X224162Y152564D02*
X224374Y152352D01*
X220734Y155497D02*
X224623D01*
X224659Y153763D02*
X224871Y153552D01*
X224126Y154297D02*
X224659Y153763D01*
X220201Y154964D02*
X220734Y155497D01*
X221232Y154297D02*
X224126D01*
X230098Y156697D02*
X231097Y157696D01*
X170203Y168366D02*
X175599D01*
X167303Y176741D02*
X176125D01*
X170203Y170116D02*
X174874D01*
X167000Y177043D02*
X167303Y176741D01*
X151913Y180939D02*
X152898D01*
X159499Y174337D01*
Y169106D02*
Y174337D01*
X164728Y162491D02*
Y163877D01*
X159499Y169106D02*
X164728Y163877D01*
Y162491D02*
X165478Y161741D01*
X167303D01*
X70766Y217236D02*
X152648D01*
X58530Y205000D02*
X70766Y217236D01*
X202904Y216512D02*
Y237168D01*
Y216512D02*
X203214D01*
X196850Y210302D02*
X199416Y212868D01*
X201166Y212143D02*
Y214534D01*
X202024Y215392D01*
X197575Y208552D02*
X201166Y212143D01*
X203214Y216512D02*
X206476Y219774D01*
X202024Y215392D02*
X202095D01*
X199416Y212868D02*
Y215499D01*
X203059Y216356D02*
X203214Y216512D01*
X202095Y215392D02*
X203059Y216356D01*
X201154Y217236D02*
Y236443D01*
X199416Y215499D02*
X201154Y217236D01*
X187542Y215499D02*
X199416D01*
X185911Y208552D02*
X197575D01*
X185186Y210302D02*
X196850D01*
X184230Y218810D02*
X187542Y215499D01*
X187127Y222179D02*
Y222535D01*
X197959Y219284D02*
Y219524D01*
X187127Y218478D02*
Y222179D01*
X196316Y217641D02*
X197959Y219284D01*
X187964Y217641D02*
X196316D01*
X187127Y218478D02*
X187964Y217641D01*
X199117Y238480D02*
Y257760D01*
X198766Y258111D02*
X199117Y257760D01*
X194598Y258111D02*
X198766D01*
X199117Y238480D02*
X201154Y236443D01*
X200867Y239205D02*
Y257760D01*
Y239205D02*
X202904Y237168D01*
X200867Y257760D02*
X201219Y258111D01*
X205386D01*
Y257282D02*
Y258111D01*
X212915Y236413D02*
Y249753D01*
X205386Y257282D02*
X212915Y249753D01*
Y236413D02*
X215769Y233559D01*
X169851Y168014D02*
X170203Y168366D01*
X169851Y167491D02*
Y168014D01*
X169101Y166741D02*
X169851Y167491D01*
X167303Y166741D02*
X169101D01*
X187089Y222572D02*
X187127Y222535D01*
X205883Y253382D02*
X206731D01*
X205737Y253236D02*
X205883Y253382D01*
X204838Y252971D02*
X205103Y253236D01*
X205737D01*
X206731Y253382D02*
X211109Y249005D01*
Y236379D02*
Y249005D01*
X208289Y233559D02*
X211109Y236379D01*
X186738Y231438D02*
X187089Y231789D01*
Y234231D01*
X184867Y231438D02*
X186738D01*
X184230Y230801D02*
X184867Y231438D01*
X184230Y218810D02*
Y230801D01*
X169101Y171741D02*
X169851Y170991D01*
Y170467D02*
Y170991D01*
X167303Y171741D02*
X169101D01*
X169851Y170467D02*
X170203Y170116D01*
X152778Y206647D02*
X153762D01*
X159932Y200478D01*
Y197889D02*
Y200478D01*
X164728Y191706D02*
X165478Y190956D01*
X167303D01*
X164728Y191706D02*
Y193093D01*
X159932Y197889D02*
X164728Y193093D01*
X162748Y197636D02*
X163798D01*
X162158Y198226D02*
Y206249D01*
Y198226D02*
X162748Y197636D01*
X163358Y199463D02*
Y202449D01*
X163984Y198836D02*
X171931D01*
X163358Y199463D02*
X163984Y198836D01*
X165478Y195956D02*
X167303D01*
X163798Y197636D02*
X165478Y195956D01*
X171931Y198836D02*
X172061Y198966D01*
X163358Y202449D02*
X164136Y203227D01*
X166524D01*
X167303Y204006D02*
Y205956D01*
X163984Y208076D02*
X167110D01*
X166524Y203227D02*
X167303Y204006D01*
X171248Y203076D02*
Y207449D01*
X170178Y222894D02*
Y229448D01*
X162158Y206249D02*
X163984Y208076D01*
X170178Y208519D02*
Y222894D01*
X169194Y201022D02*
X171248Y203076D01*
X167554Y208519D02*
Y222894D01*
X167110Y208076D02*
X167554Y208519D01*
X170178D02*
X171248Y207449D01*
X170178Y229448D02*
X171955Y227671D01*
X146287Y253338D02*
X170178Y229448D01*
X172471Y223862D02*
X173747D01*
X175133Y222476D01*
X162772Y222894D02*
X167554D01*
X214607Y205956D02*
X220340Y200223D01*
X188753Y205956D02*
X214607D01*
X188753Y176741D02*
X199542D01*
X206183Y183381D01*
X230845Y152352D02*
X234124Y155631D01*
X230062Y154964D02*
X232297Y157199D01*
X224623Y155497D02*
X225156Y154964D01*
X234124Y155631D02*
X238554D01*
X230347Y153552D02*
X233497Y156702D01*
X225156Y154964D02*
X230062D01*
X224871Y153552D02*
X230347D01*
X224374Y152352D02*
X230845D01*
X221704Y148509D02*
X224632D01*
X225726Y149603D01*
X221207Y147309D02*
X221207Y147309D01*
X224852D02*
X224852Y147309D01*
X221207Y147309D02*
X224852D01*
X208143Y147309D02*
X221207D01*
X224852D02*
X228017D01*
X225726Y149603D02*
X226102D01*
X229443Y148736D02*
X230260D01*
X233497Y156702D02*
Y160910D01*
X239999Y143839D02*
Y154186D01*
X230260Y148736D02*
X231003Y149480D01*
X231379D01*
X232297Y157199D02*
Y161407D01*
X228017Y147309D02*
X229443Y148736D01*
X234124Y161537D02*
X237527D01*
X233627Y162737D02*
X237030D01*
X239051D01*
X233130Y163937D02*
X236533D01*
X240549Y167953D01*
X233497Y160910D02*
X234124Y161537D01*
X231097Y161904D02*
X233130Y163937D01*
X237527Y161537D02*
X238554D01*
X232297Y161407D02*
X233627Y162737D01*
X242616Y154964D02*
X258660D01*
X240833Y156746D02*
X242616Y154964D01*
X240833Y156746D02*
Y160954D01*
X239051Y162737D02*
X240833Y160954D01*
X238554Y161537D02*
X239633Y160457D01*
Y156249D02*
Y160457D01*
X238554Y155631D02*
X239999Y154186D01*
X241968Y143839D02*
Y153915D01*
X239633Y156249D02*
X241968Y153915D01*
X105361Y199689D02*
X139497Y165553D01*
X105965Y200889D02*
X140102Y166753D01*
X106054Y187644D02*
X132438Y161260D01*
X105557Y186444D02*
X131941Y160061D01*
X128811Y172846D02*
X139196Y162460D01*
X123903Y172846D02*
X128811D01*
X139693Y163661D02*
X141742D01*
X104864Y198489D02*
X139693Y163661D01*
X102930Y193819D02*
X123903Y172846D01*
X100030Y200889D02*
X105965D01*
X100527Y199689D02*
X105361D01*
X167554Y222894D02*
X167686Y222761D01*
Y229464D01*
X171955Y227671D02*
X174726D01*
X62213Y258067D02*
X65992Y254288D01*
X68412D01*
X57885Y253740D02*
X62213Y258067D01*
X15937Y253740D02*
X57885D01*
X69362Y253338D02*
X146287D01*
X68412Y254288D02*
X69362Y253338D01*
X67366Y251857D02*
X67723Y252214D01*
Y252503D01*
X21535Y251857D02*
X67366D01*
X68637Y251588D02*
X145563D01*
X67723Y252503D02*
X68637Y251588D01*
X145563D02*
X167686Y229464D01*
X15937Y246260D02*
X21535Y251857D01*
X74332Y210015D02*
X135118D01*
X54347Y205000D02*
X58530D01*
X206731Y213525D02*
X213475D01*
X548070Y190915D02*
Y195946D01*
X549653Y197529D01*
X259290Y190987D02*
X260641Y189636D01*
X258663Y202696D02*
X259290Y202069D01*
X259012Y194867D02*
X259290Y194589D01*
X259012Y194867D02*
Y198543D01*
X259290Y190987D02*
Y194589D01*
X245472Y215499D02*
X258275Y202696D01*
X259290Y198821D02*
Y202069D01*
X260641Y189636D02*
X272319D01*
X259012Y198543D02*
X259290Y198821D01*
X258275Y202696D02*
X258663D01*
X83117Y200330D02*
X84317Y199130D01*
X89214Y200889D02*
X95071D01*
X89711Y199689D02*
X94574D01*
X84317Y199130D02*
X89152D01*
X84814Y200330D02*
X88655D01*
X89214Y200889D01*
X80144Y205000D02*
X84814Y200330D01*
X89152Y199130D02*
X89711Y199689D01*
X75922Y205000D02*
X80144D01*
X83261Y198489D02*
X83820Y197930D01*
X48831Y203911D02*
X52413Y200330D01*
X52557Y198489D02*
X83261D01*
X83820Y197930D02*
X89649D01*
X51357Y199689D02*
X52557Y198489D01*
X52413Y200330D02*
X83117D01*
X48831Y199689D02*
X51357D01*
X48831Y203911D02*
Y207169D01*
X589343Y26244D02*
Y30574D01*
X255316Y143149D02*
X255877Y143710D01*
X581716Y45830D02*
X581792Y45754D01*
X586203D02*
X586412Y45545D01*
X581792Y45754D02*
X586203D01*
X196490Y72339D02*
X196755Y72605D01*
X198344D01*
X295795Y135988D02*
X303219D01*
X303567Y135640D01*
X236062Y143839D02*
Y144689D01*
Y139746D02*
Y143839D01*
X394074Y-9000D02*
X398625Y-13552D01*
X405959D01*
X371911Y19176D02*
Y19778D01*
X371364Y20326D02*
X371911Y19778D01*
Y19176D02*
X400972D01*
X543078Y-4445D02*
X550834Y-12200D01*
X543078Y-4445D02*
Y-4004D01*
X540519Y-6563D02*
X543078Y-4004D01*
X273993Y161469D02*
X277085D01*
X272649Y162812D02*
Y164712D01*
Y162812D02*
X273993Y161469D01*
X198344Y72605D02*
X200544Y70406D01*
X203140Y74633D02*
X207408Y78902D01*
X210494D01*
X240775Y139397D02*
Y139455D01*
X2721Y80986D02*
Y91501D01*
X-348Y71100D02*
X1615Y73064D01*
Y73655D02*
X3003Y75042D01*
X2721Y80986D02*
X3003Y80704D01*
X1615Y73064D02*
Y73655D01*
X-939Y71100D02*
X-348D01*
X3003Y75042D02*
Y80704D01*
X236212Y144839D02*
X236293D01*
X236062Y144689D02*
X236212Y144839D01*
X245289Y136867D02*
X249692Y141270D01*
X213345Y137526D02*
X214003Y136867D01*
X245289D01*
X92912Y186444D02*
X105557D01*
X550834Y-12200D02*
X578272D01*
X536276Y14169D02*
X537603Y15496D01*
X536251Y14169D02*
X536276D01*
X513335Y14126D02*
X533051D01*
X543078Y6440D02*
Y12002D01*
X537603Y15496D02*
X548381D01*
X544028Y14296D02*
X549174Y9151D01*
X535301Y11875D02*
X538454D01*
X540875Y14296D02*
X544028D01*
X549174Y5678D02*
Y9151D01*
X538454Y11875D02*
X540875Y14296D01*
X548381Y15496D02*
X554293Y9584D01*
X533051Y14126D02*
X535301Y11875D01*
X531376Y6270D02*
Y11832D01*
X496172Y-3038D02*
X513335Y14126D01*
X546277Y190819D02*
Y191316D01*
X544983Y192610D02*
Y201263D01*
X514658Y159200D02*
X546277Y190819D01*
X544983Y192610D02*
X546277Y191316D01*
X514658Y66716D02*
Y159200D01*
X515858Y158703D02*
X548070Y190915D01*
X561293Y-1058D02*
X561323Y-1087D01*
X560848Y4000D02*
X561293Y3555D01*
X561323Y-3824D02*
X561853Y-4355D01*
X561323Y-3824D02*
Y-1087D01*
X561293Y-1058D02*
Y3555D01*
X534888Y-6654D02*
X541634Y-13400D01*
X531863Y-3629D02*
X533003Y-4769D01*
Y-5310D02*
X534347Y-6654D01*
X533003Y-5310D02*
Y-4769D01*
X534347Y-6654D02*
X534888D01*
X277723Y71028D02*
X280017Y68734D01*
X277723Y65269D02*
Y67433D01*
X288060Y169980D02*
Y177176D01*
X286323Y168244D02*
X288060Y169980D01*
Y177176D02*
X288088Y177205D01*
X296094Y173921D02*
X296094Y173921D01*
X280618Y192326D02*
Y207942D01*
X287306Y155356D02*
Y160774D01*
X296094Y160751D02*
Y173921D01*
X291607Y156263D02*
X296094Y160751D01*
X255103Y160940D02*
X259802D01*
X260909Y162047D02*
X265648D01*
X259802Y160940D02*
X260909Y162047D01*
X203622Y137142D02*
X207261D01*
X207644Y137526D02*
X213345D01*
X207261Y137142D02*
X207644Y137526D01*
X201666Y139098D02*
X203622Y137142D01*
X551277Y203441D02*
X555047Y207211D01*
X547161Y203441D02*
X551277D01*
X539266Y177020D02*
X557323D01*
X538272Y179420D02*
X539947D01*
X519458Y157212D02*
X539266Y177020D01*
X538769Y178220D02*
X540444D01*
X520658Y69201D02*
Y156715D01*
X517058Y67710D02*
Y158206D01*
X520658Y156715D02*
X539763Y175820D01*
X517058Y158206D02*
X538272Y179420D01*
X518258Y157709D02*
X538769Y178220D01*
X515858Y67213D02*
Y158703D01*
X539763Y175820D02*
X560306D01*
X518258Y68207D02*
Y157709D01*
X519458Y68704D02*
Y157212D01*
X544983Y201263D02*
X547161Y203441D01*
X100465Y197930D02*
X101024Y198489D01*
X99967Y199130D02*
X100527Y199689D01*
X101024Y198489D02*
X104864D01*
X85538Y193819D02*
X92912Y186444D01*
X92142Y193819D02*
X98317Y187644D01*
X44244Y190428D02*
Y195753D01*
Y190428D02*
X51828Y182844D01*
X48914Y193819D02*
X58688Y184044D01*
X98317Y187644D02*
X106054D01*
X70568Y193819D02*
X79142Y185244D01*
X81355Y193819D02*
X85538D01*
X258660Y154964D02*
X258902Y155205D01*
X270423D02*
X279219Y146409D01*
X258902Y155205D02*
X270423D01*
X349565Y117333D02*
X448658Y18240D01*
X295094Y116303D02*
X322865D01*
X323895Y117333D01*
X349565D01*
X261348Y217211D02*
X266361D01*
X252548Y216011D02*
X265864D01*
X213475Y213525D02*
X242843Y184158D01*
Y167003D02*
Y184158D01*
X241924Y166084D02*
X242843Y167003D01*
X226405Y39325D02*
Y41994D01*
X227024Y42613D02*
Y42814D01*
X226405Y39325D02*
X227225Y38505D01*
X226405Y41994D02*
X227024Y42613D01*
X310101Y112488D02*
X367344Y55245D01*
X295217Y112488D02*
X310101D01*
X521858Y69698D02*
Y155717D01*
X578185Y6378D02*
Y32774D01*
X313652Y89667D02*
X362640Y40679D01*
X525076Y66480D02*
X526623D01*
X530106Y62996D01*
X568353Y42606D02*
X578185Y32774D01*
X362640Y40679D02*
X365050D01*
X521858Y69698D02*
X525076Y66480D01*
X309951Y114335D02*
X368544Y55742D01*
X295094Y114335D02*
X309951D01*
X365050Y36983D02*
X367344Y39277D01*
Y55245D01*
X368544Y25163D02*
Y55742D01*
X586412Y45545D02*
X587398D01*
X589343Y30574D02*
X591012Y32243D01*
X595896Y35698D02*
X596913D01*
X592441Y32243D02*
X595896Y35698D01*
X591012Y32243D02*
X592441D01*
X548386Y-6115D02*
X553271Y-11000D01*
X548386Y184D02*
X550278Y2076D01*
Y4573D01*
X549174Y5678D02*
X550278Y4573D01*
X548386Y-6115D02*
Y184D01*
X541634Y-13400D02*
X578995D01*
X554828Y-6659D02*
X554875Y-6706D01*
X578272Y-12200D02*
X588688Y-1784D01*
X553271Y-11000D02*
X570219D01*
X554828Y-6659D02*
Y-362D01*
X578995Y-13400D02*
X593688Y1293D01*
X570219Y-11000D02*
X577698Y-3521D01*
X565162Y-4355D02*
X565995Y-3521D01*
X561853Y-4355D02*
X565162D01*
X565995Y-3521D02*
Y-802D01*
X566483Y-315D01*
X554780D02*
X554828Y-362D01*
X555589Y13406D02*
X560848Y8147D01*
Y4000D02*
Y8147D01*
X554293Y6865D02*
X554780Y6378D01*
X554293Y6865D02*
Y9584D01*
X552271Y13406D02*
X555589D01*
X547229Y18449D02*
X552271Y13406D01*
X505660Y61000D02*
X547229Y19431D01*
Y18449D02*
Y19431D01*
X449858Y17315D02*
Y21142D01*
X410000Y61000D02*
X449858Y21142D01*
X414074Y61000D02*
X505660D01*
X517058Y-4360D02*
X517161Y-4463D01*
X530055D01*
X223122Y73321D02*
X285632D01*
X289894Y69059D01*
X212591Y62791D02*
X223122Y73321D01*
X221025Y98746D02*
Y98746D01*
X219216Y100555D02*
X221025Y98746D01*
Y98746D02*
X221091Y98680D01*
X238031Y59239D02*
Y65372D01*
X239226Y66567D01*
Y66854D01*
X232097Y64602D02*
X232169Y64674D01*
X232097Y59268D02*
Y64602D01*
X232169Y64674D02*
Y64793D01*
X232097Y59268D02*
X232125Y59239D01*
X205677Y124997D02*
X207007Y126327D01*
X201331Y126075D02*
X202409Y124997D01*
X204204Y123551D02*
X206061D01*
X206687Y124177D02*
X210494D01*
X207007Y127046D02*
X207925Y127964D01*
X206079Y128643D02*
X206476D01*
X206061Y123551D02*
X206687Y124177D01*
X207925Y127964D02*
X210345D01*
X202547Y121894D02*
X204204Y123551D01*
X201331Y126075D02*
Y126311D01*
X204727Y127291D02*
X206079Y128643D01*
X207007Y126327D02*
Y127046D01*
X202409Y124997D02*
X205677D01*
X206476Y128643D02*
X207766Y129933D01*
X203915Y130166D02*
X204035D01*
X205921Y132051D01*
X470212Y-3038D02*
X496172D01*
X449858Y17315D02*
X470212Y-3038D01*
X94636Y197930D02*
X100465D01*
X95630Y200330D02*
X99471D01*
X100030Y200889D01*
X95071D02*
X95630Y200330D01*
X95133Y199130D02*
X97550D01*
X99967D01*
X94574Y199689D02*
X95133Y199130D01*
X90208Y198489D02*
X94077D01*
X94636Y197930D01*
X146348Y34102D02*
Y34576D01*
X210113Y55752D02*
X246843D01*
X146348Y34102D02*
Y38721D01*
X197251Y42889D02*
X210113Y55752D01*
X246843D02*
X248008Y56918D01*
X243505Y59741D02*
Y67913D01*
X243330Y68088D02*
X243505Y67913D01*
X217497Y64120D02*
X218209Y63407D01*
X186443Y62791D02*
X212591D01*
X217497Y64120D02*
Y64453D01*
X215015Y73721D02*
X216381D01*
X213821Y74915D02*
X215015Y73721D01*
X210544Y74915D02*
X213821D01*
X210494Y74965D02*
X210544Y74915D01*
X182072Y67162D02*
X186443Y62791D01*
X200570Y60777D02*
X200895D01*
X199393Y59600D02*
X200570Y60777D01*
X195846Y86745D02*
Y91917D01*
X168613Y93142D02*
X181846D01*
X193147Y75396D02*
Y88710D01*
X193910Y74633D02*
X203140D01*
X193147Y75396D02*
X193910Y74633D01*
X147672Y77617D02*
X151484Y81429D01*
X144102Y76342D02*
X145377Y77617D01*
X147672D01*
X143807Y76342D02*
X144102D01*
X141619Y74155D02*
X143807Y76342D01*
X136897Y24231D02*
X136936Y24270D01*
X151466Y35002D02*
Y40596D01*
X136897Y22377D02*
Y24231D01*
X140109Y11658D02*
Y25308D01*
X150516Y42889D02*
X197251D01*
X46980Y198489D02*
X50848D01*
X44244Y195753D02*
X46980Y198489D01*
X50848D02*
X55519Y193819D01*
X59701D01*
X205770Y80870D02*
X210494D01*
X135201Y20681D02*
X136897Y22377D01*
X151466Y27602D02*
X154688D01*
X521858Y155717D02*
X540762Y174620D01*
X241924Y163133D02*
Y166084D01*
X43520Y205000D02*
X48831Y199689D01*
X41586Y209670D02*
X46330D01*
X48831Y207169D01*
X89649Y197930D02*
X90208Y198489D01*
X32733Y205000D02*
X36916D01*
X41586Y209670D01*
X288857Y126146D02*
X295094D01*
X288857Y133119D02*
X291744Y130233D01*
X294945D01*
X288857Y129533D02*
X290276Y128114D01*
X295094D01*
X294945Y130233D02*
X295094Y130083D01*
X265464Y135640D02*
X268067D01*
X269336Y136909D01*
X269477D01*
X65135Y205000D02*
X69317D01*
X74332Y210015D01*
X255772Y137159D02*
X256037Y136893D01*
X258787Y135724D02*
Y138384D01*
X259834Y141270D02*
X265464Y135640D01*
X257716Y139455D02*
X258787Y138384D01*
X255772Y137159D02*
Y138631D01*
X257716Y139455D02*
Y143839D01*
X255316Y139087D02*
Y143149D01*
Y139087D02*
X255772Y138631D01*
X279219Y143989D02*
Y146409D01*
Y143989D02*
X279369Y143839D01*
X286150Y82513D02*
X290907D01*
X283856Y84807D02*
X286150Y82513D01*
X290907D02*
X291232Y82839D01*
X295094D01*
X289944Y84807D02*
X295094D01*
X251810Y139077D02*
Y143839D01*
X249692Y141270D02*
Y143689D01*
X249842Y143839D01*
X530889Y-3629D02*
Y-910D01*
X530055Y-4463D02*
X530889Y-3629D01*
Y-910D02*
X531376Y-423D01*
X311617Y89667D02*
X313652D01*
X366000Y22620D02*
X368544Y25163D01*
X301738Y111288D02*
X305395D01*
X307007Y94277D02*
Y109676D01*
X305395Y111288D02*
X307007Y109676D01*
Y94277D02*
X311617Y89667D01*
X300848Y110398D02*
X301738Y111288D01*
X295094Y110398D02*
X300848D01*
X295094Y112366D02*
X295217Y112488D01*
X299782Y99805D02*
Y102224D01*
Y99805D02*
X362603Y36983D01*
Y22772D02*
Y36983D01*
X298582Y99308D02*
X361403Y36486D01*
X298582Y99308D02*
Y101455D01*
X361403Y22275D02*
Y36486D01*
X362603Y22772D02*
X365050Y20326D01*
X361403Y22275D02*
X362528Y21151D01*
X280017Y65865D02*
Y68734D01*
X277401Y63249D02*
X280017Y65865D01*
X277401Y59239D02*
Y63249D01*
X275432Y59239D02*
Y62978D01*
X277723Y65269D01*
X448658Y5422D02*
Y18240D01*
X432910Y2986D02*
X446222D01*
X448658Y5422D01*
X577698Y-3521D02*
Y-802D01*
X578185Y-315D01*
X540519Y-6706D02*
Y-6563D01*
X543078Y-4004D02*
Y-253D01*
X598240Y3179D02*
Y3179D01*
X600126Y1293D02*
X603688D01*
X598240Y3179D02*
X600126Y1293D01*
X595574Y5845D02*
X598240Y3179D01*
X589534Y5845D02*
X595574D01*
X588688Y5000D02*
X589534Y5845D01*
X588688Y-1784D02*
Y5000D01*
X291607Y133119D02*
Y156263D01*
Y133119D02*
X292525Y132201D01*
X294945D02*
X295094Y132051D01*
X292525Y132201D02*
X294945D01*
X286076Y168244D02*
X286323D01*
X282380Y167953D02*
X285785D01*
X286076Y168244D01*
X258504Y230055D02*
X280618Y207942D01*
X271426Y67349D02*
X271495Y67280D01*
Y59239D02*
Y67280D01*
X274586Y64650D02*
Y67349D01*
X273493Y63556D02*
X274586Y64650D01*
X268337Y66854D02*
Y67152D01*
Y66854D02*
X269527Y65664D01*
Y59239D02*
Y65664D01*
X273493Y59268D02*
Y63556D01*
X202886Y133448D02*
X203099D01*
X203671Y134020D02*
X210494D01*
X203099Y133448D02*
X203671Y134020D01*
X273464Y59239D02*
X273493Y59268D01*
X297476Y104061D02*
X297945D01*
X295094Y104492D02*
X295245Y104342D01*
X297195D02*
X297476Y104061D01*
X297945D02*
X299782Y102224D01*
X295245Y104342D02*
X297195D01*
X365050Y20326D02*
X371364D01*
X531863Y-3629D02*
Y-910D01*
X531376Y-423D02*
X531863Y-910D01*
X527665Y57102D02*
X539557D01*
X528162Y58302D02*
X540054D01*
X532212Y55902D02*
X536711Y51403D01*
X527168Y55902D02*
X532212D01*
X526671Y54702D02*
X531715D01*
X518258Y68207D02*
X528162Y58302D01*
X514658Y66716D02*
X526671Y54702D01*
X515858Y67213D02*
X527168Y55902D01*
X517058Y67710D02*
X527665Y57102D01*
X519458Y68704D02*
X528659Y59502D01*
X529156Y60702D02*
X557654D01*
X531715Y54702D02*
X535511Y50906D01*
X528659Y59502D02*
X557157D01*
X520658Y69201D02*
X529156Y60702D01*
X540054Y58302D02*
X546194Y52163D01*
X539557Y57102D02*
X544994Y51666D01*
X557157Y59502D02*
X566483Y50177D01*
X540762Y174620D02*
X569972D01*
X592881Y197529D01*
X560306Y175820D02*
X582015Y197529D01*
X557323Y177020D02*
X576661Y196358D01*
Y208711D01*
X540444Y178220D02*
X555523Y193299D01*
X554323Y200550D02*
X559095Y205321D01*
X539947Y179420D02*
X554323Y193796D01*
Y200550D01*
X559095Y205321D02*
X560586D01*
X555523Y193299D02*
Y200052D01*
X559592Y204121D01*
X560089D01*
X557654Y60702D02*
X568353Y50004D01*
Y42606D02*
Y50004D01*
X566483Y6378D02*
Y50177D01*
X541235Y171850D02*
X557396D01*
X558490Y172943D02*
X574276D01*
X557396Y171850D02*
X558490Y172943D01*
X574276D02*
X591369Y155850D01*
X546194Y50473D02*
Y52163D01*
X549793Y46874D02*
X553176D01*
X544994Y49975D02*
Y51666D01*
X553674Y45674D02*
X556711Y48712D01*
Y49706D02*
X557063Y50057D01*
X535511Y50409D02*
Y50906D01*
X546194Y50473D02*
X549793Y46874D01*
X536711Y50409D02*
Y51403D01*
X551111Y50057D02*
X555160D01*
X555511Y49209D02*
Y49706D01*
X555160Y50057D02*
X555511Y49706D01*
X544994Y49975D02*
X549296Y45674D01*
X553176Y46874D02*
X555511Y49209D01*
X556711Y48712D02*
Y49706D01*
X549296Y45674D02*
X553674D01*
X597723Y165245D02*
X607118Y155850D01*
X597118Y169097D02*
X597723Y168492D01*
Y165245D02*
Y168492D01*
X555047Y207211D02*
Y208711D01*
X557063Y50057D02*
X561111D01*
X561267Y204640D02*
X561764D01*
X560586Y205321D02*
X561267Y204640D01*
X561764D02*
X565834Y208711D01*
X560089Y204121D02*
X560440Y203770D01*
Y197529D02*
Y203770D01*
X536711Y50409D02*
X537063Y50057D01*
X541111D01*
X535160D02*
X535511Y50409D01*
X531111Y50057D02*
X535160D01*
X362528Y10303D02*
Y21151D01*
X369476Y16740D02*
X371911Y19176D01*
X297664Y102374D02*
X298582Y101455D01*
X295094Y102524D02*
X295245Y102374D01*
X297664D01*
X405019Y7144D02*
X405130D01*
X376179Y-1282D02*
X396355D01*
X369476Y5422D02*
Y16740D01*
X381508Y7144D02*
X388734Y-82D01*
X401592D01*
X369476Y5422D02*
X376179Y-1282D01*
X400972Y19176D02*
X405130Y15018D01*
X428752Y7144D02*
X432910Y2986D01*
X243060Y215499D02*
X245472D01*
X228504Y230055D02*
X243060Y215499D01*
X238504Y230055D02*
X252548Y216011D01*
X248504Y230055D02*
X261348Y217211D01*
X293778Y160131D02*
Y165844D01*
X285275Y151628D02*
X293778Y160131D01*
X424074Y2466D02*
X428752Y7144D01*
X424074Y-9000D02*
Y2466D01*
X405130Y-56D02*
Y7144D01*
Y-56D02*
X414074Y-9000D01*
X401592Y-82D02*
X408626Y-7114D01*
Y-10886D02*
Y-7114D01*
X405959Y-13552D02*
X408626Y-10886D01*
X396355Y-1282D02*
X404073Y-9000D01*
X282380Y171890D02*
Y173858D01*
Y169921D02*
Y171890D01*
X285275Y143839D02*
Y151628D01*
X283306Y151357D02*
X287306Y155356D01*
X283306Y143839D02*
Y151357D01*
X282491Y161936D02*
X286144D01*
X287306Y160774D01*
X282380Y162047D02*
X282491Y161936D01*
X90855Y9937D02*
X91117Y9675D01*
X603660Y25004D02*
X603922D01*
X596913Y35698D02*
X597550Y36335D01*
Y37471D01*
X597750Y37671D01*
X598637D01*
X146348Y38721D02*
X150516Y42889D01*
X151484Y81429D02*
X156416D01*
Y64894D02*
Y81429D01*
X169351Y67162D02*
X182072D01*
X156416Y64894D02*
X157297Y65775D01*
X167964D02*
X169351Y67162D01*
X156416Y64106D02*
Y64894D01*
X157297Y65775D02*
X167964D01*
X243505Y59741D02*
X243972Y59275D01*
X243936Y59239D02*
X243972Y59275D01*
X226220Y59239D02*
Y67090D01*
X210494Y71028D02*
Y72996D01*
X226102Y67208D02*
X226220Y67090D01*
X289894Y69059D02*
X295094D01*
X141619Y68509D02*
Y74155D01*
X135201Y27702D02*
X135301Y27602D01*
X140109Y11658D02*
X140201Y11566D01*
X135301Y27602D02*
X146348D01*
X125489Y11566D02*
X130201D01*
X140211Y34576D02*
X146348D01*
X150201Y11566D02*
Y19353D01*
X146348Y23207D02*
X150201Y19353D01*
X146348Y23207D02*
Y27602D01*
X245905Y59239D02*
X246265Y59600D01*
X207155Y122059D02*
X210345D01*
X215468Y98590D02*
X218235Y95823D01*
X222284Y66175D02*
X222511Y65948D01*
X218209Y59376D02*
X218346Y59239D01*
X202547Y121675D02*
Y121894D01*
X210498Y98590D02*
X215468D01*
X218235Y95823D02*
Y95823D01*
X210449Y135942D02*
X210494Y135988D01*
X259834Y141270D02*
Y143689D01*
X259684Y143839D02*
X259834Y143689D01*
X255747Y143839D02*
X255877Y143710D01*
X246265Y59600D02*
Y63970D01*
X222511Y65374D02*
X224251Y63635D01*
X207766Y129933D02*
X210494D01*
X200859Y136804D02*
X201721Y135942D01*
X224251Y59239D02*
Y63635D01*
X218209Y59376D02*
Y63407D01*
X210494Y100555D02*
X219216D01*
X210494Y98587D02*
X210498Y98590D01*
X248008Y56918D02*
Y59355D01*
X200716Y136804D02*
X200859D01*
X205921Y132051D02*
X210494D01*
X222511Y65374D02*
Y65948D01*
X249842Y59239D02*
X249915Y59312D01*
Y64380D02*
X249988Y64453D01*
X249915Y59312D02*
Y64380D01*
X201721Y135942D02*
X210449D01*
X223708Y52768D02*
X223785Y52691D01*
Y50212D02*
Y52691D01*
X225650Y48347D02*
X227225D01*
X223785Y50212D02*
X225650Y48347D01*
X218831Y50216D02*
Y52876D01*
X218531Y49916D02*
X218831Y50216D01*
X130201Y4307D02*
X130954Y3554D01*
X130201Y4307D02*
Y11566D01*
X275391Y135831D02*
Y135863D01*
X607118Y163724D02*
Y169097D01*
Y163724D02*
X614992Y155850D01*
X200544Y69224D02*
Y70406D01*
X29951Y32747D02*
X29968Y32730D01*
X262419Y160079D02*
X265648D01*
X260162Y157823D02*
X262419Y160079D01*
X256832Y157823D02*
X260162D01*
X250926D02*
Y164016D01*
Y157823D02*
X253551D01*
X254254Y160091D02*
X255103Y160940D01*
X253551Y157823D02*
X254254Y158526D01*
Y160091D01*
D19*
X265648Y169921D02*
X271706D01*
X272510Y169117D02*
X272778D01*
X272674Y172420D02*
X272778D01*
X271706Y169921D02*
X272510Y169117D01*
X272143Y171890D02*
X272674Y172420D01*
X265648Y171890D02*
X272143D01*
X299111Y108338D02*
X303907D01*
X255932Y49916D02*
Y59405D01*
X278361Y163908D02*
X278975D01*
X279083Y164016D02*
X282380D01*
X278975Y163908D02*
X279083Y164016D01*
X277085Y156468D02*
Y161469D01*
X277271Y161654D01*
Y162818D01*
X278361Y163908D01*
X277085Y156468D02*
X281338Y152215D01*
X236293Y144839D02*
Y153138D01*
X547919Y3026D02*
X547985D01*
X545925Y3988D02*
X546958D01*
X547919Y3026D01*
X569042Y4212D02*
X569329Y3925D01*
X228738Y59239D02*
X230157D01*
X261806Y152911D02*
X261822D01*
X278504Y230055D02*
X290919Y217641D01*
X268504Y230055D02*
X288425Y210135D01*
X290919Y192469D02*
Y217641D01*
X288425Y195014D02*
Y210135D01*
X303907Y108338D02*
X303998Y108429D01*
X295094D02*
X299020D01*
X299111Y108338D01*
X282380Y164016D02*
X282380Y164016D01*
X290919D01*
X281338Y143839D02*
Y152215D01*
X563636Y-2479D02*
X563924Y-2192D01*
X580744Y4213D02*
X580932Y4025D01*
X545637Y4275D02*
X545925Y3988D01*
X208645Y98587D02*
X210494D01*
X208562Y98504D02*
X208645Y98587D01*
X10877Y32903D02*
X10877Y32903D01*
X236293Y153138D02*
X236339Y153183D01*
X255932Y49916D02*
X255932Y49916D01*
X261218Y151058D02*
Y151452D01*
X246090Y49916D02*
X255932D01*
X238216D02*
X246090D01*
D20*
X194739Y103511D02*
Y107450D01*
X193642Y102414D02*
X194739Y103511D01*
X200544Y103501D02*
Y107370D01*
X200463Y107450D02*
X200544Y107370D01*
X192111Y102414D02*
X193642D01*
X181867Y99904D02*
X189602D01*
X192111Y102414D01*
X173148Y-9566D02*
Y-3744D01*
X175979Y-914D01*
X176180Y8232D02*
X233627D01*
X176944Y5611D02*
X178165Y6832D01*
X233048D02*
X234108Y5772D01*
X233627Y8232D02*
X236667Y5193D01*
X178165Y6832D02*
X233048D01*
X167332Y8005D02*
X172304D01*
X175952D02*
X176180Y8232D01*
X172304Y8005D02*
X174698Y5611D01*
X176944D01*
X234108Y1785D02*
Y5772D01*
X177822Y95747D02*
Y95859D01*
X181867Y99904D01*
X236667Y1785D02*
Y5193D01*
X180896Y95548D02*
X183852Y98504D01*
X194638D01*
X180896Y95435D02*
Y95548D01*
X168818Y-9566D02*
Y-887D01*
X188753Y190956D02*
X201073D01*
X210340Y200223D01*
X182201Y144077D02*
X183514Y145390D01*
X181880Y144077D02*
X182201D01*
X183514Y145390D02*
X186302D01*
X545637Y-3760D02*
Y-253D01*
X282380Y159324D02*
X283881Y157823D01*
X282380Y159324D02*
Y160079D01*
X569429Y-3445D02*
X569915Y-3931D01*
X569042Y-315D02*
X569429Y-702D01*
Y-3445D02*
Y-702D01*
X569915Y-4252D02*
Y-3931D01*
X557229Y-3760D02*
X557284Y-3704D01*
Y-370D01*
X557339Y-315D01*
X533935Y-2998D02*
X535297Y-4360D01*
X533935Y-2998D02*
Y-423D01*
X288944Y51694D02*
X290715Y53465D01*
X288944Y51300D02*
Y51694D01*
X236487Y65459D02*
Y69608D01*
X236062Y65034D02*
X236487Y65459D01*
X234094Y66769D02*
X234562Y66300D01*
X234094Y66769D02*
Y67090D01*
X236293Y69802D02*
X236487Y69608D01*
X236062Y59239D02*
Y65034D01*
X234094Y63278D02*
X234562Y63746D01*
X234094Y59239D02*
Y63278D01*
X234562Y63746D02*
Y66300D01*
X198072Y-4174D02*
X199069Y-5171D01*
X198072Y-4174D02*
Y-4154D01*
X194802Y-9566D02*
Y-3341D01*
X199069Y-9502D02*
Y-5171D01*
Y-9502D02*
X199132Y-9566D01*
X190471D02*
Y-3361D01*
X200544Y98504D02*
X208562D01*
X200544Y103501D02*
X203560D01*
X206506Y100555D01*
X210494D01*
X181810Y-9566D02*
Y-689D01*
D22*
X630739Y153141D02*
D03*
X622865D02*
D03*
X614992D02*
D03*
X607118D02*
D03*
X599243D02*
D03*
X591369D02*
D03*
X583495D02*
D03*
X575621D02*
D03*
X567747D02*
D03*
X559873D02*
D03*
X551999D02*
D03*
X544125D02*
D03*
X536251D02*
D03*
Y67944D02*
D03*
X544125D02*
D03*
X551999D02*
D03*
X559873D02*
D03*
X567747D02*
D03*
X575621D02*
D03*
X583495D02*
D03*
X591369D02*
D03*
X599243D02*
D03*
X607118D02*
D03*
X614992D02*
D03*
X622865D02*
D03*
X630739D02*
D03*
X638614D02*
D03*
X646488D02*
D03*
X654362D02*
D03*
D23*
X528692Y138110D02*
D03*
Y130236D02*
D03*
Y122362D02*
D03*
Y114488D02*
D03*
Y106614D02*
D03*
Y98739D02*
D03*
Y90865D02*
D03*
Y82991D02*
D03*
D24*
X619322Y129440D02*
D03*
D25*
X630739Y155850D02*
D03*
X654362Y65267D02*
D03*
X622865Y155850D02*
D03*
X614992D02*
D03*
X607118D02*
D03*
X599243D02*
D03*
X591369D02*
D03*
X583495D02*
D03*
X575621D02*
D03*
X567747D02*
D03*
X559873D02*
D03*
X551999D02*
D03*
X544125D02*
D03*
X536251D02*
D03*
Y65236D02*
D03*
X544125D02*
D03*
X551999D02*
D03*
X559873D02*
D03*
X567747D02*
D03*
X575621D02*
D03*
X583495D02*
D03*
X591369D02*
D03*
X599243D02*
D03*
X607118D02*
D03*
X614992D02*
D03*
X622865D02*
D03*
X630739D02*
D03*
X638614D02*
D03*
X646488D02*
D03*
X55502Y10812D02*
D03*
Y-1787D02*
D03*
D26*
X525984Y138110D02*
D03*
Y130236D02*
D03*
Y122362D02*
D03*
Y114488D02*
D03*
Y106614D02*
D03*
Y98739D02*
D03*
Y90865D02*
D03*
Y82991D02*
D03*
X208687Y-9102D02*
D03*
X394074Y-9000D02*
D03*
X278504Y230055D02*
D03*
X49243Y-12000D02*
D03*
X210385Y178829D02*
D03*
X210340Y200223D02*
D03*
X617118Y169097D02*
D03*
X603688Y1293D02*
D03*
D27*
X194704Y98955D02*
D03*
X200429D02*
D03*
X194739Y107450D02*
D03*
X200463D02*
D03*
D28*
X200245Y115753D02*
D03*
X189615D02*
D03*
X96431Y21917D02*
D03*
X85802D02*
D03*
X78820Y22069D02*
D03*
X68191D02*
D03*
X41927Y22172D02*
D03*
X31297D02*
D03*
X277723Y4459D02*
D03*
X288353D02*
D03*
X189894Y79067D02*
D03*
X200524D02*
D03*
X200544Y69224D02*
D03*
X189914D02*
D03*
X48718Y22284D02*
D03*
X59347D02*
D03*
D29*
X201297Y125977D02*
D03*
X195392D02*
D03*
X194570Y59600D02*
D03*
X200476D02*
D03*
X187089Y234231D02*
D03*
X192995D02*
D03*
X192995Y222572D02*
D03*
X187089D02*
D03*
X612395Y45193D02*
D03*
X606489D02*
D03*
X606558Y50534D02*
D03*
X612464D02*
D03*
X610441Y38853D02*
D03*
X616346D02*
D03*
X643969Y160777D02*
D03*
X649874D02*
D03*
X192208Y145390D02*
D03*
X186302D02*
D03*
X162772Y222894D02*
D03*
X156867D02*
D03*
X174726Y227671D02*
D03*
X180632D02*
D03*
X250926Y170619D02*
D03*
X256832D02*
D03*
X250926Y164016D02*
D03*
X256832D02*
D03*
X250926Y157823D02*
D03*
X256832D02*
D03*
X283038Y51300D02*
D03*
X288944D02*
D03*
X303567Y108429D02*
D03*
X309472D02*
D03*
X303567Y135640D02*
D03*
X309472D02*
D03*
X261218Y151452D02*
D03*
X255313D02*
D03*
D30*
X167303Y190956D02*
D03*
Y195956D02*
D03*
Y200956D02*
D03*
Y205956D02*
D03*
X188753D02*
D03*
Y200956D02*
D03*
Y195956D02*
D03*
Y190956D02*
D03*
X167303Y161741D02*
D03*
Y166741D02*
D03*
Y171741D02*
D03*
Y176741D02*
D03*
X188753D02*
D03*
Y171741D02*
D03*
Y166741D02*
D03*
Y161741D02*
D03*
D31*
X164101Y26725D02*
D03*
D32*
X208392Y32926D02*
D03*
D33*
X209967Y23378D02*
D03*
D34*
X162920Y20819D02*
D03*
D35*
X164002Y-9102D02*
D03*
D36*
X168727Y-9594D02*
D03*
X173057D02*
D03*
X177388D02*
D03*
X181719D02*
D03*
X186050D02*
D03*
X190380D02*
D03*
X194711D02*
D03*
X199042D02*
D03*
D37*
X49988Y91509D02*
D03*
Y114737D02*
D03*
D38*
X-9382Y69516D02*
D03*
Y81137D02*
D03*
D39*
X227225Y38504D02*
D03*
Y48347D02*
D03*
D40*
X290919Y164500D02*
D03*
Y169437D02*
D03*
D41*
X190032Y93142D02*
D03*
Y87039D02*
D03*
X200937Y92345D02*
D03*
Y86243D02*
D03*
D42*
X164074Y114885D02*
D03*
X129822D02*
D03*
D43*
X152778Y206647D02*
D03*
Y200151D02*
D03*
X151913Y180939D02*
D03*
Y174443D02*
D03*
D44*
X157064Y229396D02*
D03*
X161788D02*
D03*
X192404Y228284D02*
D03*
X187680D02*
D03*
D45*
X-939Y71396D02*
D03*
Y77695D02*
D03*
D46*
X114826Y89052D02*
D03*
Y93974D02*
D03*
D47*
X107059Y94466D02*
D03*
Y88560D02*
D03*
X144102Y75949D02*
D03*
Y81854D02*
D03*
X238216Y44010D02*
D03*
Y49916D02*
D03*
X218531Y44010D02*
D03*
Y49916D02*
D03*
X246090D02*
D03*
Y44010D02*
D03*
X236339Y153183D02*
D03*
Y159089D02*
D03*
X255932Y49916D02*
D03*
Y44010D02*
D03*
D48*
X103534Y109774D02*
D03*
X83534D02*
D03*
X88534D02*
D03*
X93534D02*
D03*
X98534D02*
D03*
X108534D02*
D03*
X113534D02*
D03*
D49*
X265799Y192965D02*
D03*
Y196705D02*
D03*
Y200445D02*
D03*
X255956D02*
D03*
Y192965D02*
D03*
D50*
X259803Y185197D02*
D03*
X256654D02*
D03*
X25973Y33392D02*
D03*
X29123D02*
D03*
X495Y33525D02*
D03*
X3645D02*
D03*
D51*
X271664Y204801D02*
D03*
Y201651D02*
D03*
X18112Y46841D02*
D03*
Y49991D02*
D03*
X9252Y47062D02*
D03*
Y50212D02*
D03*
X627935Y170318D02*
D03*
Y167168D02*
D03*
D52*
X29951Y50540D02*
D03*
X26211D02*
D03*
X22470D02*
D03*
Y40697D02*
D03*
X29951D02*
D03*
X4771Y50409D02*
D03*
X1031D02*
D03*
X-2709D02*
D03*
Y40566D02*
D03*
X4771D02*
D03*
D53*
X540519Y6440D02*
D03*
X543078D02*
D03*
X545637D02*
D03*
Y-253D02*
D03*
X543078D02*
D03*
X540519D02*
D03*
X552221Y6378D02*
D03*
X554780D02*
D03*
X557339D02*
D03*
Y-315D02*
D03*
X554780D02*
D03*
X552221D02*
D03*
X563924Y6378D02*
D03*
X566483D02*
D03*
X569042D02*
D03*
Y-315D02*
D03*
X566483D02*
D03*
X563924D02*
D03*
X575626Y6378D02*
D03*
X578185D02*
D03*
X580744D02*
D03*
Y-315D02*
D03*
X578185D02*
D03*
X575626D02*
D03*
X528817Y6270D02*
D03*
X531376D02*
D03*
X533935D02*
D03*
Y-423D02*
D03*
X531376D02*
D03*
X528817D02*
D03*
D54*
X218346Y143839D02*
D03*
X220314D02*
D03*
X222283D02*
D03*
X224251D02*
D03*
X226220D02*
D03*
X228188D02*
D03*
X230157D02*
D03*
X232125D02*
D03*
X234094D02*
D03*
X236062D02*
D03*
X238031D02*
D03*
X239999D02*
D03*
X241968D02*
D03*
X243936D02*
D03*
X245905D02*
D03*
X247873D02*
D03*
X249842D02*
D03*
X251810D02*
D03*
X253779D02*
D03*
X255747D02*
D03*
X257716D02*
D03*
X259684D02*
D03*
X261653D02*
D03*
X263621D02*
D03*
X265590D02*
D03*
X267558D02*
D03*
X269527D02*
D03*
X271495D02*
D03*
X273464D02*
D03*
X275432D02*
D03*
X277401D02*
D03*
X279369D02*
D03*
X281338D02*
D03*
X283306D02*
D03*
X285275D02*
D03*
X287243D02*
D03*
Y59239D02*
D03*
X285275D02*
D03*
X283306D02*
D03*
X281338D02*
D03*
X279369D02*
D03*
X277401D02*
D03*
X275432D02*
D03*
X273464D02*
D03*
X271495D02*
D03*
X269527D02*
D03*
X267558D02*
D03*
X265590D02*
D03*
X263621D02*
D03*
X261653D02*
D03*
X259684D02*
D03*
X257716D02*
D03*
X255747D02*
D03*
X253779D02*
D03*
X251810D02*
D03*
X249842D02*
D03*
X247873D02*
D03*
X245905D02*
D03*
X243936D02*
D03*
X241968D02*
D03*
X239999D02*
D03*
X238031D02*
D03*
X236062D02*
D03*
X234094D02*
D03*
X232125D02*
D03*
X230157D02*
D03*
X228188D02*
D03*
X226220D02*
D03*
X224251D02*
D03*
X222283D02*
D03*
X220314D02*
D03*
X218346D02*
D03*
D55*
X295094Y135988D02*
D03*
Y134020D02*
D03*
Y132051D02*
D03*
Y130083D02*
D03*
Y128114D02*
D03*
Y126146D02*
D03*
Y124177D02*
D03*
Y122209D02*
D03*
Y120240D02*
D03*
Y118272D02*
D03*
Y116303D02*
D03*
Y114335D02*
D03*
Y112366D02*
D03*
Y110398D02*
D03*
Y108429D02*
D03*
Y106461D02*
D03*
Y104492D02*
D03*
Y102524D02*
D03*
Y100555D02*
D03*
Y98587D02*
D03*
Y96618D02*
D03*
Y94650D02*
D03*
Y92681D02*
D03*
Y90713D02*
D03*
Y88744D02*
D03*
Y86776D02*
D03*
Y84807D02*
D03*
Y82839D02*
D03*
Y80870D02*
D03*
Y78902D02*
D03*
Y76933D02*
D03*
Y74965D02*
D03*
Y72996D02*
D03*
Y71028D02*
D03*
Y69059D02*
D03*
Y67091D02*
D03*
X210494D02*
D03*
Y69059D02*
D03*
Y71028D02*
D03*
Y72996D02*
D03*
Y74965D02*
D03*
Y76933D02*
D03*
Y78902D02*
D03*
Y80870D02*
D03*
Y82839D02*
D03*
Y84807D02*
D03*
Y86776D02*
D03*
Y88744D02*
D03*
Y90713D02*
D03*
Y92681D02*
D03*
Y94650D02*
D03*
Y96618D02*
D03*
Y98587D02*
D03*
Y100555D02*
D03*
Y102524D02*
D03*
Y104492D02*
D03*
Y106461D02*
D03*
Y108429D02*
D03*
Y110398D02*
D03*
Y112366D02*
D03*
Y114335D02*
D03*
Y116303D02*
D03*
Y118272D02*
D03*
Y120240D02*
D03*
Y122209D02*
D03*
Y124177D02*
D03*
Y126146D02*
D03*
Y128114D02*
D03*
Y130083D02*
D03*
Y132051D02*
D03*
Y134020D02*
D03*
Y135988D02*
D03*
D56*
X-1321Y92459D02*
D03*
X3679D02*
D03*
X8679D02*
D03*
X13679D02*
D03*
X18679D02*
D03*
X23679D02*
D03*
X28679D02*
D03*
D57*
X13679Y121219D02*
D03*
D58*
X108534Y50621D02*
D03*
Y74243D02*
D03*
X128770D02*
D03*
Y50621D02*
D03*
D59*
X170983Y64106D02*
D03*
X156416D02*
D03*
X170983Y81429D02*
D03*
X156416D02*
D03*
D60*
X173640Y72768D02*
D03*
X153759D02*
D03*
D61*
X91117Y9675D02*
D03*
Y-954D02*
D03*
X73700Y9414D02*
D03*
Y-1216D02*
D03*
X37719Y-745D02*
D03*
Y9885D02*
D03*
D62*
X212029Y225685D02*
D03*
X208289Y233559D02*
D03*
X215769D02*
D03*
D63*
X598870Y26244D02*
D03*
X590209D02*
D03*
D64*
X616149Y33513D02*
D03*
X610637D02*
D03*
X581716Y39639D02*
D03*
X576204D02*
D03*
Y45830D02*
D03*
X581716D02*
D03*
D65*
X598637Y37671D02*
D03*
Y39639D02*
D03*
Y41608D02*
D03*
Y43576D02*
D03*
Y45545D02*
D03*
X587398D02*
D03*
Y43576D02*
D03*
Y41608D02*
D03*
Y39639D02*
D03*
Y37671D02*
D03*
D66*
X593018Y41608D02*
D03*
D67*
X262301Y4024D02*
D03*
X264860D02*
D03*
X267419D02*
D03*
X269978D02*
D03*
X262301Y20954D02*
D03*
X264860D02*
D03*
X267419D02*
D03*
X269978D02*
D03*
D68*
X279329Y38907D02*
D03*
X264762D02*
D03*
X279329Y30246D02*
D03*
X264762D02*
D03*
D69*
X5783Y67926D02*
D03*
X14051D02*
D03*
D70*
X6868Y78181D02*
D03*
X12773D02*
D03*
D71*
X23077Y67926D02*
D03*
X30557D02*
D03*
D72*
X23205Y78181D02*
D03*
X29504D02*
D03*
D73*
X97617Y88840D02*
D03*
Y94746D02*
D03*
D74*
X81735Y88241D02*
D03*
Y81155D02*
D03*
D75*
X98534Y148947D02*
D03*
D76*
X60725Y39745D02*
D03*
Y72619D02*
D03*
D77*
X146348Y35002D02*
D03*
X151466D02*
D03*
D78*
Y27602D02*
D03*
X148907D02*
D03*
X146348D02*
D03*
D79*
X241391Y-8747D02*
D03*
X231942D02*
D03*
D80*
X249265Y899D02*
D03*
X224068D02*
D03*
D81*
X241785Y1785D02*
D03*
X239226D02*
D03*
X236667D02*
D03*
X234108D02*
D03*
X231549D02*
D03*
D82*
X650071Y168211D02*
D03*
X643772D02*
D03*
X199273Y145217D02*
D03*
X205572D02*
D03*
D83*
X8063Y250000D02*
D03*
X15937Y253740D02*
D03*
Y246260D02*
D03*
D84*
X180337Y222476D02*
D03*
X175022D02*
D03*
X143449Y157120D02*
D03*
X138134D02*
D03*
X143449Y150599D02*
D03*
X138134D02*
D03*
D85*
X632402Y168211D02*
D03*
Y173527D02*
D03*
D86*
X150201Y11566D02*
D03*
X145201D02*
D03*
X140201D02*
D03*
X135201D02*
D03*
X130201D02*
D03*
Y-4457D02*
D03*
X135201D02*
D03*
X140201D02*
D03*
X145201D02*
D03*
X150201D02*
D03*
D87*
X265648Y173858D02*
D03*
Y171890D02*
D03*
Y169921D02*
D03*
Y167953D02*
D03*
Y165984D02*
D03*
Y164016D02*
D03*
Y162047D02*
D03*
Y160079D02*
D03*
X282380Y173858D02*
D03*
Y171890D02*
D03*
Y169921D02*
D03*
Y167953D02*
D03*
Y165984D02*
D03*
Y164016D02*
D03*
Y162047D02*
D03*
Y160079D02*
D03*
D88*
X260234Y-5125D02*
D03*
Y-11424D02*
D03*
X267419Y-5125D02*
D03*
Y-11424D02*
D03*
X274586Y-5125D02*
D03*
Y-11424D02*
D03*
D89*
X277557Y20277D02*
D03*
X283856D02*
D03*
X277557Y12834D02*
D03*
X283856D02*
D03*
D103*
X91137Y56920D02*
D03*
Y67944D02*
D03*
D141*
X232354Y269292D02*
D03*
X221567D02*
D03*
X210780D02*
D03*
X199992D02*
D03*
X237748Y258111D02*
D03*
X226961D02*
D03*
X216173D02*
D03*
X205386D02*
D03*
X555047Y262424D02*
D03*
X565834D02*
D03*
X576622D02*
D03*
X587409D02*
D03*
X549653Y273605D02*
D03*
X560441D02*
D03*
X571228D02*
D03*
X582015D02*
D03*
X73000Y258067D02*
D03*
X83787D02*
D03*
X94575D02*
D03*
X105362D02*
D03*
X67606Y269248D02*
D03*
X78394D02*
D03*
X89181D02*
D03*
X99969D02*
D03*
D142*
X194598Y258111D02*
D03*
X592803Y273605D02*
D03*
X62213Y258067D02*
D03*
D143*
X167000Y263702D02*
D03*
X265386D02*
D03*
X620401Y268014D02*
D03*
X522015D02*
D03*
X133000Y263658D02*
D03*
X34614D02*
D03*
D145*
X373634Y7144D02*
D03*
X381508D02*
D03*
X389382D02*
D03*
X397256D02*
D03*
X405130D02*
D03*
X413004D02*
D03*
X420878D02*
D03*
X428752D02*
D03*
X436626D02*
D03*
X444500D02*
D03*
X373634Y15018D02*
D03*
X381508D02*
D03*
X389382D02*
D03*
X397256D02*
D03*
X405130D02*
D03*
X413004D02*
D03*
X420878D02*
D03*
X428752D02*
D03*
X436626D02*
D03*
D146*
X444500D02*
D03*
D151*
X640744Y38853D02*
D03*
D152*
X650744Y28853D02*
D03*
X630744D02*
D03*
Y48853D02*
D03*
X650744D02*
D03*
D154*
X237122Y19133D02*
D03*
X254445D02*
D03*
D155*
X204358Y107653D02*
Y111640D01*
X200245Y114572D02*
Y115753D01*
X205550Y106461D02*
X210494D01*
X200245Y114572D02*
X201810Y113007D01*
X202991D01*
X210494Y106461D02*
X214290D01*
X204358Y107653D02*
X205550Y106461D01*
X202991Y113007D02*
X204358Y111640D01*
X214290Y106461D02*
X216381Y108552D01*
X60143Y-11100D02*
Y-9038D01*
X59243Y-12000D02*
X60143Y-11100D01*
Y-9038D02*
X60236Y-8944D01*
Y1938D01*
X199186Y145304D02*
X199273Y145217D01*
X192208Y145390D02*
X192294Y145304D01*
X199186D01*
X236339Y159089D02*
Y159243D01*
X179877Y222017D02*
X180337Y222476D01*
X179877Y214074D02*
Y222017D01*
X177471Y211668D02*
X179877Y214074D01*
X156377Y231744D02*
X156528Y231593D01*
Y229439D02*
Y231593D01*
Y229439D02*
X156867Y229100D01*
X87195Y70583D02*
X87409D01*
X89375Y69706D02*
X91137Y67944D01*
X88286Y69706D02*
X89375D01*
X87409Y70583D02*
X88286Y69706D01*
X106764Y94170D02*
X107059D01*
X103534Y97400D02*
X106764Y94170D01*
X103534Y97400D02*
Y109774D01*
X606489Y44800D02*
Y45193D01*
X610906Y40723D02*
X613036D01*
X615160Y42847D02*
Y47540D01*
X587398Y39639D02*
Y41608D01*
X581716Y39639D02*
X587398D01*
X584840Y43518D02*
X587340D01*
X584782Y43460D02*
X584840Y43518D01*
X587340D02*
X587398Y43576D01*
X295819Y136138D02*
Y137438D01*
X295094Y135988D02*
X295795D01*
X283306Y59239D02*
Y63964D01*
Y51568D02*
Y59239D01*
X552221Y-7721D02*
Y-579D01*
X283038Y51300D02*
X283306Y51568D01*
X255932Y49916D02*
X276465D01*
X278632Y52083D01*
X256832Y164016D02*
X258604D01*
X257226Y170619D02*
X257226D01*
X250926D02*
Y171012D01*
Y170225D02*
Y170619D01*
X253773Y173858D02*
X265648D01*
X250926Y171012D02*
X253773Y173858D01*
X260432Y167953D02*
X265648D01*
X259939Y167459D02*
X260432Y167953D01*
X558702Y4025D02*
X559793Y2933D01*
X559823Y-5427D02*
Y-1708D01*
X559793Y-1679D02*
X559823Y-1708D01*
X559793Y-1679D02*
Y2933D01*
X555950Y-9300D02*
X559823Y-5427D01*
X210494Y76933D02*
X210626Y77064D01*
X214539D01*
X214670Y77196D01*
X295026Y108360D02*
X295094Y108429D01*
X290988Y108360D02*
X295026D01*
X290919Y108291D02*
X290988Y108360D01*
X283306Y63964D02*
X283463Y64120D01*
X600776Y39558D02*
X601050Y39285D01*
X601263D01*
X598637Y39639D02*
X598718Y39558D01*
X600776D01*
X180632Y227671D02*
X180875Y227914D01*
Y229390D01*
X181026Y229541D01*
X38186Y15822D02*
Y16035D01*
X37719Y9885D02*
Y15355D01*
X38186Y15822D01*
X186984Y92230D02*
X187797Y93043D01*
X190032D01*
X254919Y151452D02*
X254919Y151452D01*
X255313D01*
X347008Y115039D02*
X347008Y115039D01*
X349659D01*
X444500Y15018D02*
Y20199D01*
X349659Y115039D02*
X444500Y20199D01*
X253692Y167459D02*
X259939D01*
X250926Y170225D02*
X253692Y167459D01*
X255909Y178000D02*
Y183965D01*
X290276Y100555D02*
X295094D01*
X290276Y100555D02*
X290276Y100555D01*
X597037Y47818D02*
X597850Y47005D01*
Y46332D02*
Y47005D01*
Y46332D02*
X598637Y45545D01*
X594539Y49643D02*
X596364Y47818D01*
X597037D01*
X594539Y49643D02*
Y49706D01*
X606489Y45193D02*
X607641D01*
X598637Y43576D02*
X605266D01*
X606489Y44800D01*
X613036Y40723D02*
X615160Y42847D01*
X614311Y48388D02*
X615160Y47540D01*
X614216Y48388D02*
X614311D01*
X612464Y50140D02*
X614216Y48388D01*
X612464Y50140D02*
Y50534D01*
X550680Y-766D02*
X552034D01*
X551467Y6628D02*
X552034D01*
X552221Y-7721D02*
X553801Y-9300D01*
X555950D01*
X575439Y-766D02*
X575626Y-579D01*
Y-315D01*
X572870Y-766D02*
X575439D01*
X571051Y4025D02*
X573039Y2038D01*
X575439D01*
X569042Y4213D02*
X569229Y4025D01*
X575439Y2038D02*
X575626Y1850D01*
Y-315D02*
Y1850D01*
X569042Y4213D02*
Y6378D01*
X569229Y4025D02*
X571051D01*
X557527D02*
X558702D01*
X557339Y4213D02*
Y6378D01*
Y4213D02*
X557527Y4025D01*
X533935Y4105D02*
X534122Y3917D01*
X535297D01*
X537612Y1602D01*
Y-615D02*
X537763Y-766D01*
X533935Y4105D02*
Y6270D01*
X537612Y-615D02*
Y1602D01*
X525511Y-766D02*
X525854Y-423D01*
X528817D01*
X537763Y-766D02*
X538277Y-253D01*
X540519D01*
X552034Y-766D02*
X552221Y-579D01*
X524704Y8415D02*
X526850Y6270D01*
X277557Y12243D02*
Y12834D01*
X282269Y3070D02*
Y7531D01*
Y3070D02*
X285613Y-274D01*
X291093D01*
X300682Y9315D01*
Y86577D01*
X298646Y88613D02*
X300682Y86577D01*
X295226Y88613D02*
X298646D01*
X277557Y12243D02*
X282269Y7531D01*
X295094Y88744D02*
X295226Y88613D01*
X277557Y20868D02*
X298882Y42193D01*
Y85832D01*
X295094Y86776D02*
X295226Y86644D01*
X298069D01*
X298882Y85832D01*
X277557Y20277D02*
Y20868D01*
X275007Y14793D02*
X276188D01*
X277557Y12834D02*
Y13424D01*
X276188Y14793D02*
X277557Y13424D01*
X271810Y17990D02*
X275007Y14793D01*
X270242Y17990D02*
X271810D01*
X212151Y70896D02*
X215416D01*
X215421Y70891D01*
X213444Y45320D02*
X214754Y44010D01*
X218531D01*
X228856Y59357D02*
Y64490D01*
X228738Y59239D02*
X228856Y59357D01*
X210363Y70896D02*
X210494Y71028D01*
X207520Y70896D02*
X210363D01*
X205402Y66609D02*
Y68778D01*
X207520Y70896D01*
X203284Y64490D02*
X205402Y66609D01*
X195816Y66478D02*
X197804Y64490D01*
X191479Y66478D02*
X195816D01*
X189914Y68043D02*
X191479Y66478D01*
X189914Y68043D02*
Y69224D01*
X197804Y64490D02*
X203284D01*
X193896Y60777D02*
X195426D01*
X193896Y60497D02*
Y60777D01*
X172765D02*
X193896D01*
X190032Y79205D02*
Y87138D01*
X189894Y79067D02*
X190032Y79205D01*
X189914Y69224D02*
Y79047D01*
X189894Y79067D02*
X189914Y79047D01*
X96830Y94746D02*
X97617D01*
X93534Y98042D02*
Y109774D01*
Y98042D02*
X96830Y94746D01*
X60725Y72619D02*
X62761Y70583D01*
X87195D01*
X88005Y2598D02*
X91117Y5710D01*
Y9675D01*
X87195Y2598D02*
X88005D01*
X86383Y1786D02*
X87195Y2598D01*
X86383Y-3694D02*
Y1786D01*
X87195Y-4507D02*
X97460D01*
X86383Y-3694D02*
X87195Y-4507D01*
X97460D02*
X146357Y44389D01*
X156377D02*
X172765Y60777D01*
X146357Y44389D02*
X156377D01*
X285804Y53272D02*
X287112Y54580D01*
X285804Y48954D02*
Y53272D01*
X281193Y44343D02*
X285804Y48954D01*
X266470Y31954D02*
X268810D01*
X277192Y44343D02*
X281193D01*
X268810Y31954D02*
X272207Y35351D01*
X287112Y54580D02*
Y59108D01*
X264762Y30246D02*
X266470Y31954D01*
X272207Y35351D02*
Y39358D01*
X277192Y44343D01*
X80608Y8981D02*
X82073Y10446D01*
Y10659D01*
X80608Y-4328D02*
Y8981D01*
X79243Y-5693D02*
X80608Y-4328D01*
X79243Y-12000D02*
Y-5693D01*
X68966Y-11724D02*
Y3776D01*
X62690Y10053D02*
X68966Y3776D01*
Y-11724D02*
X69243Y-12000D01*
X73700Y5777D02*
Y9414D01*
Y5777D02*
X77140Y2336D01*
X77621D01*
X78434Y-3956D02*
Y1524D01*
X70390Y-12000D02*
X78434Y-3956D01*
X77621Y2336D02*
X78434Y1524D01*
X69243Y-12000D02*
X70390D01*
X598637Y45545D02*
X601729D01*
X605546Y49362D01*
X605780D01*
X12527Y91307D02*
X13679Y92459D01*
X12527Y84938D02*
Y91307D01*
X10973Y83384D02*
X12527Y84938D01*
X10973Y83074D02*
Y83384D01*
X6868Y78968D02*
X10973Y83074D01*
X6868Y78181D02*
Y78968D01*
X12773Y78181D02*
Y82638D01*
X14385Y84250D02*
X15207D01*
X12773Y82638D02*
X14385Y84250D01*
X15207D02*
X17527Y86570D01*
X255759Y184115D02*
Y192965D01*
Y184115D02*
X255909Y183965D01*
X156867Y222894D02*
Y229100D01*
X279329Y38907D02*
X280018D01*
X285971Y44861D01*
X287616D01*
X294120Y51364D01*
Y66541D01*
X287112Y59108D02*
X287243Y59239D01*
X270547Y-1676D02*
X273996Y-5125D01*
X274586D01*
X267419Y4024D02*
X267529Y3915D01*
Y405D02*
Y3915D01*
Y405D02*
X269609Y-1676D01*
X270547D01*
X264860Y-3156D02*
Y4024D01*
Y-3156D02*
X266829Y-5125D01*
X267419D01*
X260234Y-897D02*
X262301Y1170D01*
X260234Y-5125D02*
Y-897D01*
X262301Y1170D02*
Y4024D01*
X267419Y20954D02*
X267529Y21063D01*
Y24573D01*
X269037Y26081D01*
X272344D01*
X277557Y20868D01*
X269978Y18254D02*
X270242Y17990D01*
X269978Y18254D02*
Y20954D01*
X192995Y228382D02*
Y234231D01*
X192896Y228284D02*
X192995Y228382D01*
X192995Y222572D02*
Y228185D01*
X192896Y228284D02*
X192995Y228185D01*
X605780Y49362D02*
X606558Y50140D01*
Y50534D01*
X85802Y20735D02*
Y21917D01*
Y20735D02*
X87367Y19170D01*
X89096D01*
X95850Y12415D01*
Y6935D02*
Y12415D01*
X93863Y4948D02*
X95850Y6935D01*
X93863Y611D02*
Y4948D01*
X92298Y-954D02*
X93863Y611D01*
X91117Y-954D02*
X92298D01*
X68191Y7449D02*
Y22069D01*
X73700Y-1216D02*
Y2633D01*
X71680Y4653D02*
X73700Y2633D01*
X70987Y4653D02*
X71680D01*
X68191Y7449D02*
X70987Y4653D01*
X113534Y95265D02*
X114629Y94170D01*
X113534Y95265D02*
Y109774D01*
X114629Y94170D02*
X114826D01*
X23077Y67926D02*
Y77758D01*
X23205Y77886D01*
X15223Y69904D02*
X23077Y77758D01*
X15223Y69097D02*
Y69904D01*
X14051Y67926D02*
X15223Y69097D01*
X23205Y77886D02*
Y78181D01*
X29504D02*
X30557Y77128D01*
Y67926D02*
Y77128D01*
X28679Y79006D02*
X29504Y78181D01*
X28679Y79006D02*
Y92459D01*
X23205Y78181D02*
X23679Y78655D01*
Y92459D01*
X17527Y86570D02*
Y91307D01*
X18679Y92459D01*
X37719Y9885D02*
X38901D01*
X49243Y-12000D02*
Y-457D01*
X38901Y9885D02*
X49243Y-457D01*
X59424Y2751D02*
X60236Y1938D01*
X59243Y2751D02*
X59424D01*
X55502Y6491D02*
X59243Y2751D01*
X55502Y6491D02*
Y9828D01*
X526850Y6270D02*
X528817D01*
X537891Y6378D02*
X537954Y6440D01*
X540519D01*
X261218Y151452D02*
X261522Y151149D01*
Y143970D02*
X261653Y143839D01*
X261522Y143970D02*
Y151149D01*
X632402Y168211D02*
X643772D01*
X649434Y167574D02*
X650071Y168211D01*
X649434Y166636D02*
Y167574D01*
X643969Y161171D02*
X649434Y166636D01*
X643969Y160777D02*
Y161171D01*
X205572Y145217D02*
X218196D01*
X218346Y145067D01*
Y143839D02*
Y145067D01*
D156*
X143449Y156923D02*
Y157120D01*
Y150599D02*
Y156923D01*
X184900Y171741D02*
X188753D01*
X181506Y168346D02*
X184900Y171741D01*
X181506Y163475D02*
Y168346D01*
X181027Y162996D02*
X181506Y163475D01*
X55115Y39745D02*
X60725D01*
X29951Y50540D02*
X44320D01*
X55115Y39745D01*
X129822Y114885D02*
X130770Y115833D01*
Y122297D01*
X150036Y148932D02*
Y150337D01*
Y148932D02*
X150514Y148454D01*
X143449Y156923D02*
X150036Y150337D01*
X188753Y200956D02*
X188777Y200981D01*
X197380D01*
X197405Y201006D01*
X581716Y39639D02*
X582001Y39354D01*
X81421Y39745D02*
X87405Y33761D01*
X582001Y34359D02*
Y39354D01*
X60725Y39745D02*
X81421D01*
X231627Y19133D02*
X237122D01*
X231404Y18910D02*
X231627Y19133D01*
D157*
X254561Y17872D02*
Y19213D01*
X284939Y12834D02*
Y12834D01*
Y12834D02*
X285991Y11782D01*
Y7977D02*
X287162Y6806D01*
X287188D01*
X288353Y4459D02*
Y5641D01*
X285991Y7977D02*
Y11782D01*
X287188Y6806D02*
X288353Y5641D01*
X283856Y12834D02*
Y20277D01*
X82026Y28382D02*
X87405Y33761D01*
X64762Y28382D02*
X82026D01*
X282676Y52056D02*
X283038Y51693D01*
X278660Y52056D02*
X282676D01*
X278632Y52083D02*
X278660Y52056D01*
X63590Y27211D02*
X64762Y28382D01*
X35025Y32730D02*
X35066Y32770D01*
X29968Y32730D02*
X35025D01*
X283856Y20277D02*
X283856Y20277D01*
X129774Y-12000D02*
Y-4884D01*
X130201Y-4457D01*
X90133Y10659D02*
X90855Y9937D01*
X82073Y10659D02*
X90133D01*
X63590Y16276D02*
Y27211D01*
X58307Y10993D02*
X63590Y16276D01*
X244328Y7861D02*
X251866Y15399D01*
X232959Y-2969D02*
X243157D01*
X244328Y-1798D02*
Y7861D01*
X243157Y-2969D02*
X244328Y-1798D01*
X231593Y-1603D02*
X232959Y-2969D01*
X231549Y1785D02*
X231593Y1741D01*
Y-1603D02*
Y1741D01*
X252088Y15399D02*
X254561Y17872D01*
X251866Y15399D02*
X252088D01*
X56668Y10993D02*
X58307D01*
X55502Y9828D02*
X56668Y10993D01*
X4486Y32903D02*
X10877D01*
X36538Y-745D02*
X37719D01*
X31297Y4497D02*
X36538Y-745D01*
X31297Y4497D02*
Y22172D01*
X54321Y-802D02*
X55502D01*
X48718Y4801D02*
X54321Y-802D01*
X48718Y4801D02*
Y22284D01*
D158*
X4468Y32920D02*
Y40369D01*
X272825Y196717D02*
Y201014D01*
X269094Y192986D02*
X272825Y196717D01*
X266411Y201014D02*
X272825D01*
X265996Y200445D02*
Y200599D01*
X266411Y192986D02*
X269094D01*
X265996Y200599D02*
X266411Y201014D01*
D159*
X640744Y38853D02*
Y54516D01*
X646488Y60259D01*
Y67235D01*
D160*
X29951Y32747D02*
Y40500D01*
D161*
X615385Y129834D02*
D03*
Y133377D02*
D03*
Y126291D02*
D03*
X622865Y129834D02*
D03*
Y133377D02*
D03*
Y126291D02*
D03*
X619322D02*
D03*
Y133377D02*
D03*
Y129834D02*
D03*
D162*
X549653Y197529D02*
D03*
X27339Y193819D02*
D03*
D163*
X560440Y197529D02*
D03*
X571228D02*
D03*
X582015D02*
D03*
X592881D02*
D03*
X603669D02*
D03*
X614456D02*
D03*
X625244D02*
D03*
X555047Y208711D02*
D03*
X565834D02*
D03*
X576661D02*
D03*
X587448D02*
D03*
X598236D02*
D03*
X609062D02*
D03*
X619850D02*
D03*
X97536Y205000D02*
D03*
X86749D02*
D03*
X75922D02*
D03*
X65135D02*
D03*
X54347D02*
D03*
X43520D02*
D03*
X32733D02*
D03*
X102930Y193819D02*
D03*
X92142D02*
D03*
X81355D02*
D03*
X70568D02*
D03*
X59701D02*
D03*
X48914D02*
D03*
X38127D02*
D03*
D164*
X521858Y203120D02*
D03*
X653039D02*
D03*
X130725Y199409D02*
D03*
X-456D02*
D03*
D165*
X341500Y12144D02*
D03*
X476500Y267144D02*
D03*
X476500Y12144D02*
D03*
X341500Y267144D02*
D03*
D166*
X424074Y-9000D02*
D03*
X414074D02*
D03*
X404073D02*
D03*
X268504Y230055D02*
D03*
X258504D02*
D03*
X248504D02*
D03*
X238504D02*
D03*
X228504D02*
D03*
X79243Y-12000D02*
D03*
X69243D02*
D03*
X59243D02*
D03*
X220385Y178829D02*
D03*
X220340Y200223D02*
D03*
X607118Y169097D02*
D03*
X597118D02*
D03*
X593688Y1293D02*
D03*
D167*
X531111Y50057D02*
D03*
X541111D02*
D03*
X551111D02*
D03*
X561111D02*
D03*
Y20057D02*
D03*
X551111D02*
D03*
X541111D02*
D03*
D168*
X531111D02*
D03*
D169*
X249659Y-8747D02*
D03*
X223675D02*
D03*
D170*
X649606Y0D02*
D03*
Y275590D02*
D03*
X0Y0D02*
D03*
Y275590D02*
D03*
D171*
X162358Y17285D02*
D03*
X214620Y123176D02*
D03*
X216193Y128664D02*
D03*
X655461Y241768D02*
D03*
Y161768D02*
D03*
Y41768D02*
D03*
X635461Y241768D02*
D03*
X645461Y221768D02*
D03*
X635461Y201768D02*
D03*
X645461Y181768D02*
D03*
Y21768D02*
D03*
X615461Y281768D02*
D03*
X625461Y261768D02*
D03*
X615461Y241768D02*
D03*
X625461Y221768D02*
D03*
Y181768D02*
D03*
X615461Y161768D02*
D03*
X625461Y21768D02*
D03*
X615461Y1768D02*
D03*
X595461Y281768D02*
D03*
X605461Y261768D02*
D03*
X595461Y241768D02*
D03*
X605461Y221768D02*
D03*
X595461Y201768D02*
D03*
X605461Y181768D02*
D03*
X595461Y161768D02*
D03*
X575461Y281768D02*
D03*
Y241768D02*
D03*
X585461Y221768D02*
D03*
Y181768D02*
D03*
X575461Y161768D02*
D03*
X585461Y21768D02*
D03*
X555461Y281768D02*
D03*
X565461Y221768D02*
D03*
X555461Y161768D02*
D03*
X535461Y281768D02*
D03*
X545461Y261768D02*
D03*
X535461Y241768D02*
D03*
X545461Y221768D02*
D03*
X535461Y201768D02*
D03*
Y161768D02*
D03*
X515461Y281768D02*
D03*
Y241768D02*
D03*
X525461Y181768D02*
D03*
Y21768D02*
D03*
X495461Y281768D02*
D03*
X505461Y261768D02*
D03*
X495461Y241768D02*
D03*
X505461Y221768D02*
D03*
X495461Y201768D02*
D03*
X505461Y181768D02*
D03*
X495461Y161768D02*
D03*
Y121768D02*
D03*
X505461Y101768D02*
D03*
X495461Y81768D02*
D03*
X505461Y21768D02*
D03*
X475461Y241768D02*
D03*
X485461Y221768D02*
D03*
X475461Y201768D02*
D03*
X485461Y181768D02*
D03*
X475461Y121768D02*
D03*
X485461Y101768D02*
D03*
X475461Y81768D02*
D03*
X455461Y281768D02*
D03*
Y241768D02*
D03*
X465461Y221768D02*
D03*
X455461Y201768D02*
D03*
X465461Y181768D02*
D03*
X455461Y161768D02*
D03*
Y121768D02*
D03*
X465461Y101768D02*
D03*
X455461Y1768D02*
D03*
X435461Y281768D02*
D03*
X445461Y261768D02*
D03*
X435461Y241768D02*
D03*
X445461Y221768D02*
D03*
X435461Y201768D02*
D03*
X445461Y181768D02*
D03*
X435461Y161768D02*
D03*
X445461Y141768D02*
D03*
X435461Y121768D02*
D03*
X445461Y101768D02*
D03*
X435461Y81768D02*
D03*
Y41768D02*
D03*
X415461Y281768D02*
D03*
X425461Y261768D02*
D03*
X415461Y241768D02*
D03*
X425461Y221768D02*
D03*
X415461Y201768D02*
D03*
X425461Y181768D02*
D03*
X415461Y161768D02*
D03*
X425461Y141768D02*
D03*
Y101768D02*
D03*
X415461Y81768D02*
D03*
Y41768D02*
D03*
Y1768D02*
D03*
X395461Y281768D02*
D03*
X405461Y261768D02*
D03*
X395461Y241768D02*
D03*
X405461Y221768D02*
D03*
X395461Y201768D02*
D03*
X405461Y181768D02*
D03*
X395461Y161768D02*
D03*
X405461Y141768D02*
D03*
X395461Y121768D02*
D03*
X405461Y101768D02*
D03*
X395461Y81768D02*
D03*
Y41768D02*
D03*
X375461Y281768D02*
D03*
X385461Y261768D02*
D03*
X375461Y241768D02*
D03*
X385461Y221768D02*
D03*
X375461Y201768D02*
D03*
X385461Y181768D02*
D03*
X375461Y161768D02*
D03*
Y121768D02*
D03*
X385461Y101768D02*
D03*
X375461Y81768D02*
D03*
X385461Y61768D02*
D03*
X375461Y41768D02*
D03*
X355461Y281768D02*
D03*
X365461Y261768D02*
D03*
X355461Y241768D02*
D03*
X365461Y221768D02*
D03*
X355461Y201768D02*
D03*
X365461Y181768D02*
D03*
X355461Y161768D02*
D03*
Y121768D02*
D03*
Y81768D02*
D03*
Y1768D02*
D03*
X335461Y281768D02*
D03*
Y241768D02*
D03*
X345461Y221768D02*
D03*
X335461Y201768D02*
D03*
X345461Y181768D02*
D03*
X335461Y161768D02*
D03*
Y121768D02*
D03*
X345461Y101768D02*
D03*
X335461Y81768D02*
D03*
X345461Y61768D02*
D03*
X335461Y41768D02*
D03*
X315461Y281768D02*
D03*
X325461Y261768D02*
D03*
Y221768D02*
D03*
X315461Y201768D02*
D03*
X325461Y181768D02*
D03*
X315461Y161768D02*
D03*
Y121768D02*
D03*
Y41768D02*
D03*
X325461Y21768D02*
D03*
X315461Y1768D02*
D03*
X295461Y281768D02*
D03*
X305461Y261768D02*
D03*
Y221768D02*
D03*
Y181768D02*
D03*
Y61768D02*
D03*
Y21768D02*
D03*
X275461Y281768D02*
D03*
X285461Y261768D02*
D03*
X275461Y121768D02*
D03*
Y81768D02*
D03*
X255461Y281768D02*
D03*
Y241768D02*
D03*
X265461Y181768D02*
D03*
X255461Y121768D02*
D03*
Y1768D02*
D03*
X235461Y281768D02*
D03*
Y201768D02*
D03*
Y121768D02*
D03*
X245461Y101768D02*
D03*
Y21768D02*
D03*
X215461Y281768D02*
D03*
X225461Y221768D02*
D03*
X215461Y201768D02*
D03*
Y1768D02*
D03*
X195461Y281768D02*
D03*
Y81768D02*
D03*
X175461Y281768D02*
D03*
X185461Y261768D02*
D03*
X175461Y201768D02*
D03*
X185461Y141768D02*
D03*
X175461Y121768D02*
D03*
X155461Y281768D02*
D03*
X165461Y141768D02*
D03*
Y101768D02*
D03*
Y61768D02*
D03*
X135461Y281768D02*
D03*
X145461Y261768D02*
D03*
X135461Y241768D02*
D03*
X145461Y221768D02*
D03*
Y141768D02*
D03*
Y101768D02*
D03*
Y61768D02*
D03*
X115461Y281768D02*
D03*
X125461Y261768D02*
D03*
Y221768D02*
D03*
X115461Y201768D02*
D03*
X125461Y141768D02*
D03*
X115461Y121768D02*
D03*
X125461Y101768D02*
D03*
Y61768D02*
D03*
X115461Y41768D02*
D03*
Y1768D02*
D03*
X95461Y281768D02*
D03*
X105461Y221768D02*
D03*
Y181768D02*
D03*
X95461Y121768D02*
D03*
Y81768D02*
D03*
Y41768D02*
D03*
X105461Y21768D02*
D03*
X75461Y281768D02*
D03*
X85461Y221768D02*
D03*
X75461Y161768D02*
D03*
Y121768D02*
D03*
Y81768D02*
D03*
X85461Y61768D02*
D03*
X55461Y281768D02*
D03*
Y241768D02*
D03*
X65461Y221768D02*
D03*
X55461Y161768D02*
D03*
X65461Y141768D02*
D03*
X55461Y121768D02*
D03*
X65461Y101768D02*
D03*
X55461Y81768D02*
D03*
X65461Y61768D02*
D03*
X35461Y281768D02*
D03*
X45461Y261768D02*
D03*
X35461Y241768D02*
D03*
X45461Y221768D02*
D03*
Y181768D02*
D03*
X35461Y161768D02*
D03*
X45461Y141768D02*
D03*
X35461Y121768D02*
D03*
X45461Y101768D02*
D03*
Y61768D02*
D03*
X35461Y41768D02*
D03*
X290761Y170070D02*
D03*
X279987Y189636D02*
D03*
X272778Y172420D02*
D03*
Y169117D02*
D03*
X167332Y8005D02*
D03*
X175952D02*
D03*
X175979Y-914D02*
D03*
X177822Y95747D02*
D03*
X180896Y95435D02*
D03*
X168818Y-887D02*
D03*
X204917Y119820D02*
D03*
X157686Y24270D02*
D03*
X187680Y228284D02*
D03*
X201166Y197120D02*
D03*
X199701Y173237D02*
D03*
X155260Y172376D02*
D03*
X139583Y154168D02*
D03*
X181027Y162996D02*
D03*
X130770Y122297D02*
D03*
X150514Y148454D02*
D03*
X197405Y201006D02*
D03*
X203560Y163762D02*
D03*
X207007D02*
D03*
X176125Y176741D02*
D03*
X152648Y217236D02*
D03*
X206731Y213525D02*
D03*
X197959Y219524D02*
D03*
X206476Y219774D02*
D03*
X204838Y252971D02*
D03*
X172061Y198966D02*
D03*
X172471Y223862D02*
D03*
X222679Y150803D02*
D03*
X226102Y149603D02*
D03*
X231379Y149480D02*
D03*
X181880Y144077D02*
D03*
X236339Y159243D02*
D03*
X67366Y251857D02*
D03*
X156377Y231744D02*
D03*
X200716Y136804D02*
D03*
X541235Y168492D02*
D03*
X584782Y43460D02*
D03*
X196490Y72339D02*
D03*
X199088Y92646D02*
D03*
X274943Y163762D02*
D03*
X278632Y52083D02*
D03*
X257226Y170619D02*
D03*
X258604Y164016D02*
D03*
X267911Y175039D02*
D03*
X240775Y139455D02*
D03*
X236062Y139746D02*
D03*
X582001Y34359D02*
D03*
X545637Y-3760D02*
D03*
X543078Y12002D02*
D03*
X531376Y11832D02*
D03*
X283881Y157823D02*
D03*
X569915Y-4252D02*
D03*
X557229Y-3760D02*
D03*
X563587Y-721D02*
D03*
X535297Y-4360D02*
D03*
X290715Y53465D02*
D03*
X580744Y6378D02*
D03*
X214670Y77196D02*
D03*
X295819Y137438D02*
D03*
X290919Y108291D02*
D03*
X283463Y64120D02*
D03*
X277723Y67433D02*
D03*
Y71028D02*
D03*
X181026Y229541D02*
D03*
X282380Y173858D02*
D03*
X287646Y160915D02*
D03*
X288088Y177205D02*
D03*
X296094Y173921D02*
D03*
X186443Y-12000D02*
D03*
X35281Y66704D02*
D03*
X38186Y16035D02*
D03*
X309866Y106559D02*
D03*
X186984Y92230D02*
D03*
X533161Y155275D02*
D03*
X531998Y70621D02*
D03*
X254919Y151452D02*
D03*
X261822Y152911D02*
D03*
X347008Y115039D02*
D03*
X255909Y178000D02*
D03*
X216381Y108552D02*
D03*
X290276Y100555D02*
D03*
X594539Y49706D02*
D03*
X227024Y42814D02*
D03*
X365050Y36983D02*
D03*
X530106Y62996D02*
D03*
X365050Y40679D02*
D03*
X601263Y39285D02*
D03*
X603922Y28687D02*
D03*
X607641Y45193D02*
D03*
X616346Y38853D02*
D03*
X547985Y3026D02*
D03*
X551467Y6628D02*
D03*
X550680Y-766D02*
D03*
X563142Y6414D02*
D03*
X575626Y6378D02*
D03*
X554875Y-6706D02*
D03*
X572870Y-766D02*
D03*
X536251Y14169D02*
D03*
X410000Y61000D02*
D03*
X525511Y-766D02*
D03*
X537763D02*
D03*
X524704Y8415D02*
D03*
X517058Y-4360D02*
D03*
X215421Y70891D02*
D03*
X213444Y45320D02*
D03*
X221091Y98680D02*
D03*
X239226Y66854D02*
D03*
X232169Y64793D02*
D03*
X234094Y67090D02*
D03*
X236293Y69802D02*
D03*
X204727Y127291D02*
D03*
X203915Y130166D02*
D03*
X265996Y192965D02*
D03*
X272319Y189636D02*
D03*
X177471Y211668D02*
D03*
X237257Y50930D02*
D03*
X243330Y68088D02*
D03*
X228856Y64490D02*
D03*
X217497Y64453D02*
D03*
X216381Y73721D02*
D03*
X199067Y87424D02*
D03*
X146517Y82185D02*
D03*
X193896Y60497D02*
D03*
X199393Y59600D02*
D03*
X198715Y77652D02*
D03*
X87195Y70583D02*
D03*
X82073Y106839D02*
D03*
X95850Y90190D02*
D03*
X140109Y25308D02*
D03*
X136936Y24270D02*
D03*
X151466Y40596D02*
D03*
X35066Y32770D02*
D03*
X284939Y12834D02*
D03*
X271634Y5422D02*
D03*
X129774Y-12000D02*
D03*
X82073Y10659D02*
D03*
X-4208Y127320D02*
D03*
X-1708Y122320D02*
D03*
X-4208Y117320D02*
D03*
X-1708Y112320D02*
D03*
X-4208Y107320D02*
D03*
X-1708Y102320D02*
D03*
X-9208Y127320D02*
D03*
X-6708Y122320D02*
D03*
X-9208Y117320D02*
D03*
X-6708Y112320D02*
D03*
X-9208Y107320D02*
D03*
X-6708Y102320D02*
D03*
X-9208Y97320D02*
D03*
X-6708Y92320D02*
D03*
X-9208Y87320D02*
D03*
X-11708Y122320D02*
D03*
Y112320D02*
D03*
Y102320D02*
D03*
Y92320D02*
D03*
X225542Y24270D02*
D03*
X226400Y17761D02*
D03*
X108581Y105949D02*
D03*
X240549Y167953D02*
D03*
X241924Y163133D02*
D03*
X288857Y126146D02*
D03*
Y129533D02*
D03*
X269477Y136909D02*
D03*
X258787Y135724D02*
D03*
X256037Y136893D02*
D03*
X288857Y133119D02*
D03*
X283856Y84807D02*
D03*
X289944D02*
D03*
X251810Y139077D02*
D03*
X414074Y61000D02*
D03*
X540519Y-6706D02*
D03*
X290919Y192469D02*
D03*
X288425Y195014D02*
D03*
X271426Y67349D02*
D03*
X274586D02*
D03*
X268337Y67152D02*
D03*
X202886Y133448D02*
D03*
X366000Y22620D02*
D03*
X541235Y171850D02*
D03*
Y164545D02*
D03*
X362528Y10303D02*
D03*
X62690Y10053D02*
D03*
X87405Y33761D02*
D03*
X537891Y6378D02*
D03*
X603922Y21465D02*
D03*
Y25004D02*
D03*
X226102Y67208D02*
D03*
X141619Y68509D02*
D03*
X135201Y27702D02*
D03*
X125489Y11566D02*
D03*
X140211Y34576D02*
D03*
X231404Y18910D02*
D03*
X249988Y64453D02*
D03*
X246265Y63970D02*
D03*
X222284Y66175D02*
D03*
X202547Y121675D02*
D03*
X218235Y95823D02*
D03*
X198072Y-4154D02*
D03*
X190471Y-3361D02*
D03*
X194802Y-3341D02*
D03*
X223708Y52768D02*
D03*
X218831Y52876D02*
D03*
X246283Y33048D02*
D03*
X181810Y-689D02*
D03*
X275391Y135831D02*
D03*
X10877Y32903D02*
D03*
X628827Y161926D02*
D03*
X625037D02*
D03*
X632618D02*
D03*
D172*
X6592Y107046D02*
D03*
Y111770D02*
D03*
Y116495D02*
D03*
Y121219D02*
D03*
Y125944D02*
D03*
Y130668D02*
D03*
Y135392D02*
D03*
X11317Y107046D02*
D03*
Y111770D02*
D03*
Y116495D02*
D03*
Y125944D02*
D03*
Y130668D02*
D03*
Y135392D02*
D03*
X16041Y107046D02*
D03*
Y111770D02*
D03*
Y116495D02*
D03*
Y121219D02*
D03*
Y125944D02*
D03*
Y130668D02*
D03*
Y135392D02*
D03*
X20765Y107046D02*
D03*
Y111770D02*
D03*
Y116495D02*
D03*
Y121219D02*
D03*
Y125944D02*
D03*
Y130668D02*
D03*
Y135392D02*
D03*
X11317Y121219D02*
D03*
M02*
