G04*
G04 #@! TF.GenerationSoftware,Altium Limited,Altium Designer,22.1.2 (22)*
G04*
G04 Layer_Color=16711935*
%FSLAX25Y25*%
%MOIN*%
G70*
G04*
G04 #@! TF.SameCoordinates,56094753-5DA1-4506-B589-AA1800A80C84*
G04*
G04*
G04 #@! TF.FilePolarity,Negative*
G04*
G01*
G75*
%ADD94R,0.06706X0.06706*%
%ADD137C,0.02800*%
%ADD138R,0.06942X0.06942*%
%ADD139C,0.06942*%
%ADD140C,0.18812*%
%ADD141C,0.06260*%
%ADD142R,0.06260X0.06260*%
%ADD143C,0.12008*%
%ADD144C,0.27965*%
%ADD145C,0.05118*%
%ADD146R,0.05118X0.05118*%
%ADD147C,0.06706*%
%ADD148C,0.05367*%
%ADD149R,0.05367X0.05367*%
%ADD150O,0.04343X0.07099*%
%ADD151R,0.09150X0.09150*%
%ADD152C,0.10243*%
%ADD153C,0.29934*%
G36*
X632314Y116448D02*
X605543D01*
Y143614D01*
X632314D01*
Y116448D01*
D02*
G37*
%LPC*%
G36*
X613417Y135533D02*
Y124135D01*
X617240D01*
X624736Y124135D01*
X624735Y135533D01*
X613417Y135533D01*
D02*
G37*
%LPD*%
D94*
X394074Y-9000D02*
D03*
X278504Y230055D02*
D03*
X49243Y-12000D02*
D03*
X210385Y178829D02*
D03*
X210340Y200223D02*
D03*
X617118Y169097D02*
D03*
X603688Y1293D02*
D03*
D137*
X615385Y129834D02*
D03*
Y133377D02*
D03*
Y126291D02*
D03*
X622865Y129834D02*
D03*
Y133377D02*
D03*
Y126291D02*
D03*
X619322D02*
D03*
Y133377D02*
D03*
Y129834D02*
D03*
D138*
X549653Y197529D02*
D03*
X27339Y193819D02*
D03*
D139*
X560440Y197529D02*
D03*
X571228D02*
D03*
X582015D02*
D03*
X592881D02*
D03*
X603669D02*
D03*
X614456D02*
D03*
X625244D02*
D03*
X555047Y208711D02*
D03*
X565834D02*
D03*
X576661D02*
D03*
X587448D02*
D03*
X598236D02*
D03*
X609062D02*
D03*
X619850D02*
D03*
X97536Y205000D02*
D03*
X86749D02*
D03*
X75922D02*
D03*
X65135D02*
D03*
X54347D02*
D03*
X43520D02*
D03*
X32733D02*
D03*
X102930Y193819D02*
D03*
X92142D02*
D03*
X81355D02*
D03*
X70568D02*
D03*
X59701D02*
D03*
X48914D02*
D03*
X38127D02*
D03*
D140*
X521858Y203120D02*
D03*
X653039D02*
D03*
X130725Y199409D02*
D03*
X-456D02*
D03*
D141*
X232354Y269292D02*
D03*
X221567D02*
D03*
X210780D02*
D03*
X199992D02*
D03*
X237748Y258111D02*
D03*
X226961D02*
D03*
X216173D02*
D03*
X205386D02*
D03*
X555047Y262424D02*
D03*
X565834D02*
D03*
X576622D02*
D03*
X587409D02*
D03*
X549653Y273605D02*
D03*
X560441D02*
D03*
X571228D02*
D03*
X582015D02*
D03*
X73000Y258067D02*
D03*
X83787D02*
D03*
X94575D02*
D03*
X105362D02*
D03*
X67606Y269248D02*
D03*
X78394D02*
D03*
X89181D02*
D03*
X99969D02*
D03*
D142*
X194598Y258111D02*
D03*
X592803Y273605D02*
D03*
X62213Y258067D02*
D03*
D143*
X167000Y263702D02*
D03*
X265386D02*
D03*
X620401Y268014D02*
D03*
X522015D02*
D03*
X133000Y263658D02*
D03*
X34614D02*
D03*
D144*
X341500Y12144D02*
D03*
X476500Y267144D02*
D03*
X476500Y12144D02*
D03*
X341500Y267144D02*
D03*
D145*
X373634Y7144D02*
D03*
X381508D02*
D03*
X389382D02*
D03*
X397256D02*
D03*
X405130D02*
D03*
X413004D02*
D03*
X420878D02*
D03*
X428752D02*
D03*
X436626D02*
D03*
X444500D02*
D03*
X373634Y15018D02*
D03*
X381508D02*
D03*
X389382D02*
D03*
X397256D02*
D03*
X405130D02*
D03*
X413004D02*
D03*
X420878D02*
D03*
X428752D02*
D03*
X436626D02*
D03*
D146*
X444500D02*
D03*
D147*
X424074Y-9000D02*
D03*
X414074D02*
D03*
X404073D02*
D03*
X268504Y230055D02*
D03*
X258504D02*
D03*
X248504D02*
D03*
X238504D02*
D03*
X228504D02*
D03*
X79243Y-12000D02*
D03*
X69243D02*
D03*
X59243D02*
D03*
X220385Y178829D02*
D03*
X220340Y200223D02*
D03*
X607118Y169097D02*
D03*
X597118D02*
D03*
X593688Y1293D02*
D03*
D148*
X531111Y50057D02*
D03*
X541111D02*
D03*
X551111D02*
D03*
X561111D02*
D03*
Y20057D02*
D03*
X551111D02*
D03*
X541111D02*
D03*
D149*
X531111D02*
D03*
D150*
X249659Y-8747D02*
D03*
X223675D02*
D03*
D151*
X640744Y38853D02*
D03*
D152*
X650744Y28853D02*
D03*
X630744D02*
D03*
Y48853D02*
D03*
X650744D02*
D03*
D153*
X649606Y0D02*
D03*
Y275590D02*
D03*
X0Y0D02*
D03*
Y275590D02*
D03*
M02*
