G04*
G04 #@! TF.GenerationSoftware,Altium Limited,Altium Designer,22.1.2 (22)*
G04*
G04 Layer_Color=8388736*
%FSLAX25Y25*%
%MOIN*%
G70*
G04*
G04 #@! TF.SameCoordinates,56094753-5DA1-4506-B589-AA1800A80C84*
G04*
G04*
G04 #@! TF.FilePolarity,Positive*
G04*
G01*
G75*
%ADD11C,0.00787*%
D11*
X194417Y100628D02*
X200716D01*
Y97281D02*
Y100628D01*
X194417Y97281D02*
X200716D01*
X194417D02*
Y100628D01*
X194452Y109123D02*
X200751D01*
Y105777D02*
Y109123D01*
X194452Y105777D02*
X200751D01*
X194452D02*
Y109123D01*
X162428Y-11563D02*
Y34500D01*
Y-11563D02*
X210459D01*
Y34500D01*
X162428D02*
X210459D01*
X-12532Y81626D02*
X-6233D01*
X-12532Y69027D02*
Y81626D01*
Y69027D02*
X-6233D01*
Y81626D01*
X223977Y50020D02*
X230473D01*
X223977Y36831D02*
Y50020D01*
Y36831D02*
X230473D01*
Y50020D01*
X289246Y170118D02*
X292592D01*
X289246Y163819D02*
Y170118D01*
Y163819D02*
X292592D01*
Y170118D01*
X162871Y227526D02*
Y231266D01*
X155981D02*
X162871D01*
X155981Y227526D02*
Y231266D01*
Y227526D02*
X162871D01*
X186597Y226414D02*
Y230154D01*
Y226414D02*
X193487D01*
Y230154D01*
X186597D02*
X193487D01*
X87397Y67944D02*
X94877D01*
X87397Y56920D02*
Y67944D01*
Y56920D02*
X94877D01*
Y67944D01*
X99676Y47668D02*
Y77196D01*
X117393D01*
Y47668D02*
Y77196D01*
X99676Y47668D02*
X117393D01*
X277748Y238249D02*
Y289154D01*
X154638D02*
X277748D01*
X154638Y238249D02*
Y289154D01*
Y238249D02*
X277748D01*
X450307Y2813D02*
Y19349D01*
X367827D02*
X450307D01*
X367827Y2813D02*
Y19349D01*
Y2813D02*
X450307D01*
X153660Y62728D02*
Y82807D01*
Y62728D02*
X173739D01*
Y82807D01*
X153660D02*
X173739D01*
X509653Y242562D02*
Y293467D01*
Y242562D02*
X632763D01*
Y293467D01*
X509653D02*
X632763D01*
X5783Y70583D02*
X14051D01*
Y65268D02*
Y70583D01*
X5783Y65268D02*
X14051D01*
X5783D02*
Y70583D01*
X14151Y75326D02*
Y81035D01*
X5490D02*
X14151D01*
X5490Y75326D02*
Y81035D01*
Y75326D02*
X14151D01*
X94763Y87462D02*
Y96124D01*
X100472D01*
Y87462D02*
Y96124D01*
X94763Y87462D02*
X100472D01*
X40450Y76457D02*
X81001D01*
X40450Y35906D02*
Y76457D01*
Y35906D02*
X81001D01*
Y76457D01*
X119911Y47668D02*
X137628D01*
Y77196D01*
X119911D02*
X137628D01*
X119911Y47668D02*
Y77196D01*
X22252Y238205D02*
X145362D01*
X22252D02*
Y289111D01*
X145362D01*
Y238205D02*
Y289111D01*
X626744Y26398D02*
X686744D01*
X626744D02*
Y51308D01*
X686744D01*
Y26398D02*
Y51308D01*
M02*
