G04*
G04 #@! TF.GenerationSoftware,Altium Limited,Altium Designer,20.0.11 (256)*
G04*
G04 Layer_Color=32768*
%FSLAX25Y25*%
%MOIN*%
G70*
G01*
G75*
%ADD21C,0.00300*%
%ADD203C,0.00100*%
D21*
X527373Y169692D02*
Y166359D01*
X525707Y164693D01*
X524041Y166359D01*
Y169692D01*
Y167192D01*
X527373D01*
X522375Y169692D02*
X520709D01*
X521542D01*
Y164693D01*
X522375D01*
X517376Y165526D02*
Y166359D01*
X518209D01*
X516543D01*
X517376D01*
Y168859D01*
X516543Y169692D01*
X505713D02*
X509046D01*
X505713Y166359D01*
Y165526D01*
X506546Y164693D01*
X508213D01*
X509046Y165526D01*
X499049Y169692D02*
Y164693D01*
X496550D01*
X495717Y165526D01*
Y167192D01*
X496550Y168026D01*
X499049D01*
X493217Y166359D02*
X491551D01*
X490718Y167192D01*
Y169692D01*
X493217D01*
X494051Y168859D01*
X493217Y168026D01*
X490718D01*
X485720Y164693D02*
Y169692D01*
X488219D01*
X489052Y168859D01*
Y167192D01*
X488219Y166359D01*
X485720D01*
X484054Y169692D02*
X481555D01*
X480721Y168859D01*
X481555Y168026D01*
X483221D01*
X484054Y167192D01*
X483221Y166359D01*
X480721D01*
X478222Y165526D02*
Y166359D01*
X479055D01*
X477389D01*
X478222D01*
Y168859D01*
X477389Y169692D01*
X474890Y166359D02*
Y168859D01*
X474057Y169692D01*
X471558D01*
Y170525D01*
X472391Y171358D01*
X473224D01*
X471558Y169692D02*
Y166359D01*
X469892Y169692D02*
X468225D01*
X469059D01*
Y164693D01*
X469892D01*
X463227Y169692D02*
X464893D01*
X465726Y168859D01*
Y167192D01*
X464893Y166359D01*
X463227D01*
X462394Y167192D01*
Y168026D01*
X465726D01*
X460728Y166359D02*
X459895D01*
Y167192D01*
X460728D01*
Y166359D01*
Y168859D02*
X459895D01*
Y169692D01*
X460728D01*
Y168859D01*
X449065Y164693D02*
X450731D01*
X451564Y165526D01*
Y168859D01*
X450731Y169692D01*
X449065D01*
X448232Y168859D01*
Y165526D01*
X449065Y164693D01*
X446566D02*
X443234Y169692D01*
Y164693D02*
X446566Y169692D01*
X441568Y168859D02*
X440734Y169692D01*
X439068D01*
X438235Y168859D01*
Y165526D01*
X439068Y164693D01*
X440734D01*
X441568Y165526D01*
Y166359D01*
X440734Y167192D01*
X438235D01*
X436569Y165526D02*
X435736Y164693D01*
X434070D01*
X433237Y165526D01*
Y168859D01*
X434070Y169692D01*
X435736D01*
X436569Y168859D01*
Y165526D01*
X431571Y164693D02*
Y165526D01*
X429905Y167192D01*
X428238Y165526D01*
Y164693D01*
X429905Y167192D02*
Y169692D01*
X423240Y164693D02*
X424906Y165526D01*
X426572Y167192D01*
Y168859D01*
X425739Y169692D01*
X424073D01*
X423240Y168859D01*
Y168026D01*
X424073Y167192D01*
X426572D01*
X421574Y165526D02*
X420741Y164693D01*
X419075D01*
X418242Y165526D01*
Y168859D01*
X419075Y169692D01*
X420741D01*
X421574Y168859D01*
Y165526D01*
X416576Y164693D02*
Y169692D01*
X414076D01*
X413243Y168859D01*
Y165526D01*
X414076Y164693D01*
X416576D01*
X411577Y165526D02*
X410744Y164693D01*
X409078D01*
X408245Y165526D01*
Y166359D01*
X409078Y167192D01*
X409911D01*
X409078D01*
X408245Y168026D01*
Y168859D01*
X409078Y169692D01*
X410744D01*
X411577Y168859D01*
X406579Y165526D02*
X405746Y164693D01*
X404080D01*
X403246Y165526D01*
Y168859D01*
X404080Y169692D01*
X405746D01*
X406579Y168859D01*
Y165526D01*
X401580Y169692D02*
Y164693D01*
X399081D01*
X398248Y165526D01*
Y167192D01*
X399081Y168026D01*
X401580D01*
X527373Y163692D02*
Y160359D01*
X525707Y158693D01*
X524041Y160359D01*
Y163692D01*
Y161192D01*
X527373D01*
X522375Y163692D02*
X520709D01*
X521542D01*
Y158693D01*
X522375D01*
X517376Y159526D02*
Y160359D01*
X518209D01*
X516543D01*
X517376D01*
Y162859D01*
X516543Y163692D01*
X509046D02*
X507379D01*
X508213D01*
Y158693D01*
X509046Y159526D01*
X499882Y163692D02*
Y158693D01*
X497383D01*
X496550Y159526D01*
Y161192D01*
X497383Y162025D01*
X499882D01*
X494051Y160359D02*
X492384D01*
X491551Y161192D01*
Y163692D01*
X494051D01*
X494883Y162859D01*
X494051Y162025D01*
X491551D01*
X486553Y158693D02*
Y163692D01*
X489052D01*
X489885Y162859D01*
Y161192D01*
X489052Y160359D01*
X486553D01*
X484887Y163692D02*
X482388D01*
X481555Y162859D01*
X482388Y162025D01*
X484054D01*
X484887Y161192D01*
X484054Y160359D01*
X481555D01*
X479055Y159526D02*
Y160359D01*
X479888D01*
X478222D01*
X479055D01*
Y162859D01*
X478222Y163692D01*
X475723Y160359D02*
Y162859D01*
X474890Y163692D01*
X472391D01*
Y164525D01*
X473224Y165358D01*
X474057D01*
X472391Y163692D02*
Y160359D01*
X470725Y163692D02*
X469059D01*
X469892D01*
Y158693D01*
X470725D01*
X464060Y163692D02*
X465726D01*
X466559Y162859D01*
Y161192D01*
X465726Y160359D01*
X464060D01*
X463227Y161192D01*
Y162025D01*
X466559D01*
X461561Y160359D02*
X460728D01*
Y161192D01*
X461561D01*
Y160359D01*
Y162859D02*
X460728D01*
Y163692D01*
X461561D01*
Y162859D01*
X449898Y158693D02*
X451564D01*
X452397Y159526D01*
Y162859D01*
X451564Y163692D01*
X449898D01*
X449065Y162859D01*
Y159526D01*
X449898Y158693D01*
X447399D02*
X444067Y163692D01*
Y158693D02*
X447399Y163692D01*
X439068Y158693D02*
X440734Y159526D01*
X442401Y161192D01*
Y162859D01*
X441568Y163692D01*
X439901D01*
X439068Y162859D01*
Y162025D01*
X439901Y161192D01*
X442401D01*
X437402Y159526D02*
X436569Y158693D01*
X434903D01*
X434070Y159526D01*
Y162859D01*
X434903Y163692D01*
X436569D01*
X437402Y162859D01*
Y159526D01*
X432404Y158693D02*
Y159526D01*
X430738Y161192D01*
X429072Y159526D01*
Y158693D01*
X430738Y161192D02*
Y163692D01*
X427405Y162859D02*
X426572Y163692D01*
X424906D01*
X424073Y162859D01*
Y159526D01*
X424906Y158693D01*
X426572D01*
X427405Y159526D01*
Y160359D01*
X426572Y161192D01*
X424073D01*
X422407Y159526D02*
X421574Y158693D01*
X419908D01*
X419075Y159526D01*
Y162859D01*
X419908Y163692D01*
X421574D01*
X422407Y162859D01*
Y159526D01*
X417409Y158693D02*
Y163692D01*
X414909D01*
X414076Y162859D01*
Y159526D01*
X414909Y158693D01*
X417409D01*
X412410Y159526D02*
X411577Y158693D01*
X409911D01*
X409078Y159526D01*
Y160359D01*
X409911Y161192D01*
X410744D01*
X409911D01*
X409078Y162025D01*
Y162859D01*
X409911Y163692D01*
X411577D01*
X412410Y162859D01*
X407412Y159526D02*
X406579Y158693D01*
X404913D01*
X404080Y159526D01*
Y162859D01*
X404913Y163692D01*
X406579D01*
X407412Y162859D01*
Y159526D01*
X402414Y163692D02*
Y158693D01*
X399914D01*
X399081Y159526D01*
Y161192D01*
X399914Y162025D01*
X402414D01*
X536123Y146693D02*
Y151692D01*
Y149192D01*
X532791D01*
Y146693D01*
Y151692D01*
X528625D02*
X530292D01*
X531125Y150859D01*
Y149192D01*
X530292Y148359D01*
X528625D01*
X527792Y149192D01*
Y150025D01*
X531125D01*
X525293Y148359D02*
X523627D01*
X522794Y149192D01*
Y151692D01*
X525293D01*
X526126Y150859D01*
X525293Y150025D01*
X522794D01*
X520295Y147526D02*
Y148359D01*
X521128D01*
X519462D01*
X520295D01*
Y150859D01*
X519462Y151692D01*
X511964Y146693D02*
X508632D01*
X510298D01*
Y151692D01*
X506133Y148359D02*
X504467D01*
X503633Y149192D01*
Y151692D01*
X506133D01*
X506966Y150859D01*
X506133Y150025D01*
X503633D01*
X501967Y146693D02*
Y151692D01*
X499468D01*
X498635Y150859D01*
Y150025D01*
Y149192D01*
X499468Y148359D01*
X501967D01*
X491971Y151692D02*
Y146693D01*
X489471D01*
X488638Y147526D01*
Y149192D01*
X489471Y150025D01*
X491971D01*
X486139Y148359D02*
X484473D01*
X483640Y149192D01*
Y151692D01*
X486139D01*
X486972Y150859D01*
X486139Y150025D01*
X483640D01*
X478642Y146693D02*
Y151692D01*
X481141D01*
X481974Y150859D01*
Y149192D01*
X481141Y148359D01*
X478642D01*
X476975Y151692D02*
X474476D01*
X473643Y150859D01*
X474476Y150025D01*
X476142D01*
X476975Y149192D01*
X476142Y148359D01*
X473643D01*
X471144Y147526D02*
Y148359D01*
X471977D01*
X470311D01*
X471144D01*
Y150859D01*
X470311Y151692D01*
X467812Y148359D02*
Y150859D01*
X466979Y151692D01*
X464479D01*
Y152525D01*
X465313Y153358D01*
X466146D01*
X464479Y151692D02*
Y148359D01*
X462813Y151692D02*
X461147D01*
X461980D01*
Y146693D01*
X462813D01*
X456149Y151692D02*
X457815D01*
X458648Y150859D01*
Y149192D01*
X457815Y148359D01*
X456149D01*
X455316Y149192D01*
Y150025D01*
X458648D01*
X453650Y148359D02*
X452817D01*
Y149192D01*
X453650D01*
Y148359D01*
Y150859D02*
X452817D01*
Y151692D01*
X453650D01*
Y150859D01*
X444486Y151692D02*
Y146693D01*
X441987D01*
X441154Y147526D01*
Y149192D01*
X441987Y150025D01*
X444486D01*
X442820D02*
X441154Y151692D01*
X439488Y146693D02*
X436155Y151692D01*
Y146693D02*
X439488Y151692D01*
X431157Y146693D02*
X432823Y147526D01*
X434489Y149192D01*
Y150859D01*
X433656Y151692D01*
X431990D01*
X431157Y150859D01*
Y150025D01*
X431990Y149192D01*
X434489D01*
X429491Y147526D02*
X428658Y146693D01*
X426992D01*
X426159Y147526D01*
Y148359D01*
X426992Y149192D01*
X426159Y150025D01*
Y150859D01*
X426992Y151692D01*
X428658D01*
X429491Y150859D01*
Y150025D01*
X428658Y149192D01*
X429491Y148359D01*
Y147526D01*
X428658Y149192D02*
X426992D01*
X424493Y153358D02*
Y148359D01*
X421993D01*
X421160Y149192D01*
Y150859D01*
X421993Y151692D01*
X424493D01*
X419494Y150859D02*
X418661Y151692D01*
X416995D01*
X416162Y150859D01*
Y147526D01*
X416995Y146693D01*
X418661D01*
X419494Y147526D01*
Y148359D01*
X418661Y149192D01*
X416162D01*
X414496Y146693D02*
Y147526D01*
X412830Y149192D01*
X411164Y147526D01*
Y146693D01*
X412830Y149192D02*
Y151692D01*
X409497Y150859D02*
X408664Y151692D01*
X406998D01*
X406165Y150859D01*
Y147526D01*
X406998Y146693D01*
X408664D01*
X409497Y147526D01*
Y148359D01*
X408664Y149192D01*
X406165D01*
X401167Y146693D02*
X402833Y147526D01*
X404499Y149192D01*
Y150859D01*
X403666Y151692D01*
X402000D01*
X401167Y150859D01*
Y150025D01*
X402000Y149192D01*
X404499D01*
X399501Y153358D02*
Y148359D01*
X397001D01*
X396168Y149192D01*
Y150859D01*
X397001Y151692D01*
X399501D01*
X392003D02*
Y146693D01*
X394502Y149192D01*
X391170D01*
X386172Y146693D02*
X387838Y147526D01*
X389504Y149192D01*
Y150859D01*
X388671Y151692D01*
X387005D01*
X386172Y150859D01*
Y150025D01*
X387005Y149192D01*
X389504D01*
X384506Y146693D02*
Y151692D01*
X382006D01*
X381173Y150859D01*
Y147526D01*
X382006Y146693D01*
X384506D01*
X379507Y147526D02*
X378674Y146693D01*
X377008D01*
X376175Y147526D01*
Y150859D01*
X377008Y151692D01*
X378674D01*
X379507Y150859D01*
Y147526D01*
X374509Y146693D02*
X371176D01*
X372843D01*
Y151692D01*
X532373Y140693D02*
Y145692D01*
X529874D01*
X529041Y144859D01*
Y141526D01*
X529874Y140693D01*
X532373D01*
X524875Y145692D02*
X526542D01*
X527375Y144859D01*
Y143192D01*
X526542Y142359D01*
X524875D01*
X524042Y143192D01*
Y144026D01*
X527375D01*
X521543Y145692D02*
Y141526D01*
Y143192D01*
X522376D01*
X520710D01*
X521543D01*
Y141526D01*
X520710Y140693D01*
X517378Y142359D02*
X515712D01*
X514879Y143192D01*
Y145692D01*
X517378D01*
X518211Y144859D01*
X517378Y144026D01*
X514879D01*
X513212Y142359D02*
Y144859D01*
X512380Y145692D01*
X509880D01*
Y142359D01*
X508214Y145692D02*
X506548D01*
X507381D01*
Y140693D01*
X508214D01*
X503216Y141526D02*
Y142359D01*
X504049D01*
X502383D01*
X503216D01*
Y144859D01*
X502383Y145692D01*
X494885D02*
Y140693D01*
X492386D01*
X491553Y141526D01*
Y143192D01*
X492386Y144026D01*
X494885D01*
X489054Y142359D02*
X487388D01*
X486554Y143192D01*
Y145692D01*
X489054D01*
X489887Y144859D01*
X489054Y144026D01*
X486554D01*
X481556Y140693D02*
Y145692D01*
X484055D01*
X484888Y144859D01*
Y143192D01*
X484055Y142359D01*
X481556D01*
X479890Y145692D02*
X477391D01*
X476558Y144859D01*
X477391Y144026D01*
X479057D01*
X479890Y143192D01*
X479057Y142359D01*
X476558D01*
X474059Y141526D02*
Y142359D01*
X474892D01*
X473225D01*
X474059D01*
Y144859D01*
X473225Y145692D01*
X470726Y142359D02*
Y144859D01*
X469893Y145692D01*
X467394D01*
Y146525D01*
X468227Y147358D01*
X469060D01*
X467394Y145692D02*
Y142359D01*
X465728Y145692D02*
X464062D01*
X464895D01*
Y140693D01*
X465728D01*
X459063Y145692D02*
X460730D01*
X461563Y144859D01*
Y143192D01*
X460730Y142359D01*
X459063D01*
X458230Y143192D01*
Y144026D01*
X461563D01*
X456564Y142359D02*
X455731D01*
Y143192D01*
X456564D01*
Y142359D01*
Y144859D02*
X455731D01*
Y145692D01*
X456564D01*
Y144859D01*
X447401Y145692D02*
Y140693D01*
X444901D01*
X444068Y141526D01*
Y143192D01*
X444901Y144026D01*
X447401D01*
X445734D02*
X444068Y145692D01*
X442402Y140693D02*
X439070Y145692D01*
Y140693D02*
X442402Y145692D01*
X434071D02*
X437404D01*
X434071Y142359D01*
Y141526D01*
X434905Y140693D01*
X436571D01*
X437404Y141526D01*
X432405Y144859D02*
X431572Y145692D01*
X429906D01*
X429073Y144859D01*
Y141526D01*
X429906Y140693D01*
X431572D01*
X432405Y141526D01*
Y142359D01*
X431572Y143192D01*
X429073D01*
X427407Y147358D02*
Y142359D01*
X424908D01*
X424075Y143192D01*
Y144859D01*
X424908Y145692D01*
X427407D01*
X422409Y140693D02*
X419076D01*
Y141526D01*
X422409Y144859D01*
Y145692D01*
X414078D02*
X417410D01*
X414078Y142359D01*
Y141526D01*
X414911Y140693D01*
X416577D01*
X417410Y141526D01*
X412412Y140693D02*
Y141526D01*
X410746Y143192D01*
X409080Y141526D01*
Y140693D01*
X410746Y143192D02*
Y145692D01*
X407413D02*
X405747D01*
X406580D01*
Y140693D01*
X407413Y141526D01*
X403248D02*
X402415Y140693D01*
X400749D01*
X399916Y141526D01*
Y144859D01*
X400749Y145692D01*
X402415D01*
X403248Y144859D01*
Y141526D01*
X398250Y140693D02*
Y145692D01*
X395751D01*
X394917Y144859D01*
Y141526D01*
X395751Y140693D01*
X398250D01*
X393251Y141526D02*
X392418Y140693D01*
X390752D01*
X389919Y141526D01*
Y144859D01*
X390752Y145692D01*
X392418D01*
X393251Y144859D01*
Y141526D01*
X388253Y140693D02*
X384921D01*
X386587D01*
Y145692D01*
D203*
X486718Y118192D02*
Y119192D01*
X487717Y118692D01*
X486718Y118192D02*
X487717Y118692D01*
X500528Y118192D02*
Y119192D01*
X499529Y118692D02*
X500528Y119192D01*
X499529Y118692D02*
X500528Y118192D01*
X482718Y118692D02*
X487717D01*
X499529D02*
X504529D01*
X487717Y108692D02*
Y120192D01*
X499529Y108692D02*
Y120192D01*
X477503Y109692D02*
X478503D01*
X477503D02*
X478003Y108692D01*
X478503Y109692D01*
X477503Y95881D02*
X478503D01*
X477503D02*
X478003Y96881D01*
X478503Y95881D01*
X478003Y108692D02*
Y113692D01*
Y91881D02*
Y96881D01*
X476503Y108692D02*
X487717D01*
X476503Y96881D02*
X487717D01*
X508743Y101818D02*
X509743D01*
X508743D02*
X509243Y100818D01*
X509743Y101818D01*
X508743Y97849D02*
X509743D01*
X508743D02*
X509243Y98849D01*
X509743Y97849D01*
X509243Y100818D02*
Y105818D01*
Y93849D02*
Y98849D01*
X499243Y100818D02*
X510743D01*
X499243Y98849D02*
X510743D01*
X496757Y88349D02*
Y89349D01*
X497757Y88849D01*
X496757Y88349D02*
X497757Y88849D01*
X500528Y88349D02*
Y89349D01*
X499529Y88849D02*
X500528Y89349D01*
X499529Y88849D02*
X500528Y88349D01*
X492757Y88849D02*
X497757D01*
X499529D02*
X504529D01*
X497757Y87349D02*
Y98849D01*
X499529Y87349D02*
Y98849D01*
X486718Y73349D02*
Y74349D01*
X487717Y73849D01*
X486718Y73349D02*
X487717Y73849D01*
X500528Y73349D02*
Y74349D01*
X499529Y73849D02*
X500528Y74349D01*
X499529Y73849D02*
X500528Y73349D01*
X482718Y73849D02*
X487717D01*
X499529D02*
X504529D01*
X487717Y72349D02*
Y98849D01*
X499529Y72349D02*
Y98849D01*
X170510Y42814D02*
X182896D01*
X170510Y44783D02*
X182896D01*
X172010Y37814D02*
Y42814D01*
Y44783D02*
Y49783D01*
Y42814D02*
X172510Y41814D01*
X171510D02*
X172010Y42814D01*
X171510Y41814D02*
X172510D01*
X172010Y44783D02*
X172510Y45783D01*
X171510D02*
X172010Y44783D01*
X171510Y45783D02*
X172510D01*
X184382Y27761D02*
Y42814D01*
X182610Y27761D02*
Y42814D01*
X184382Y29261D02*
X189382D01*
X177610D02*
X182610D01*
X184382D02*
X185382Y28761D01*
X184382Y29261D02*
X185382Y29761D01*
Y28761D02*
Y29761D01*
X181610Y28761D02*
X182610Y29261D01*
X181610Y29761D02*
X182610Y29261D01*
X181610Y28761D02*
Y29761D01*
X194421Y20261D02*
Y42814D01*
X182610Y20261D02*
Y42814D01*
X194421Y21761D02*
X199421D01*
X177610D02*
X182610D01*
X194421D02*
X195421Y21261D01*
X194421Y21761D02*
X195421Y22261D01*
Y21261D02*
Y22261D01*
X181610Y21261D02*
X182610Y21761D01*
X181610Y22261D02*
X182610Y21761D01*
X181610Y21261D02*
Y22261D01*
X163010Y39861D02*
X185563D01*
X163010Y51672D02*
X185563D01*
X164510Y34861D02*
Y39861D01*
Y51672D02*
Y56672D01*
Y39861D02*
X165010Y38861D01*
X164010D02*
X164510Y39861D01*
X164010Y38861D02*
X165010D01*
X164510Y51672D02*
X165010Y52672D01*
X164010D02*
X164510Y51672D01*
X164010Y52672D02*
X165010D01*
X182610Y39861D02*
X209021D01*
X182610Y51672D02*
X209021D01*
X207521Y34861D02*
Y39861D01*
Y51672D02*
Y56672D01*
Y39861D02*
X208021Y38861D01*
X207021D02*
X207521Y39861D01*
X207021Y38861D02*
X208021D01*
X207521Y51672D02*
X208021Y52672D01*
X207021D02*
X207521Y51672D01*
X207021Y52672D02*
X208021D01*
X194421Y39861D02*
Y66272D01*
X182610Y39861D02*
Y66272D01*
X194421Y64772D02*
X199421D01*
X177610D02*
X182610D01*
X194421D02*
X195421Y64272D01*
X194421Y64772D02*
X195421Y65272D01*
Y64272D02*
Y65272D01*
X181610Y64272D02*
X182610Y64772D01*
X181610Y65272D02*
X182610Y64772D01*
X181610Y64272D02*
Y65272D01*
X500498Y121109D02*
X500081Y120692D01*
X499248D01*
X498832Y121109D01*
Y122775D01*
X499248Y123192D01*
X500081D01*
X500498Y122775D01*
Y121109D01*
X497999Y123192D02*
Y122775D01*
X497582D01*
Y123192D01*
X497999D01*
X495916D02*
X495083D01*
X495500D01*
Y120692D01*
X495916Y121109D01*
X493833Y123192D02*
X493000D01*
X493417D01*
Y120692D01*
X493833Y121109D01*
X491751D02*
X491334Y120692D01*
X490501D01*
X490085Y121109D01*
Y121526D01*
X490501Y121942D01*
X490085Y122359D01*
Y122775D01*
X490501Y123192D01*
X491334D01*
X491751Y122775D01*
Y122359D01*
X491334Y121942D01*
X491751Y121526D01*
Y121109D01*
X491334Y121942D02*
X490501D01*
X489252Y123192D02*
X488419D01*
X488835D01*
Y121526D01*
X489252D01*
X487169Y123192D02*
Y121526D01*
X485919D01*
X485503Y121942D01*
Y123192D01*
X484670D02*
X483004Y121526D01*
X482171Y121109D02*
X481754Y120692D01*
X480921D01*
X480505Y121109D01*
Y121526D01*
X480921Y121942D01*
X481337D01*
X480921D01*
X480505Y122359D01*
Y122775D01*
X480921Y123192D01*
X481754D01*
X482171Y122775D01*
X479671Y123192D02*
Y121526D01*
X479255D01*
X478838Y121942D01*
Y123192D01*
Y121942D01*
X478422Y121526D01*
X478005Y121942D01*
Y123192D01*
X477172D02*
Y121526D01*
X476756D01*
X476339Y121942D01*
Y123192D01*
Y121942D01*
X475923Y121526D01*
X475506Y121942D01*
Y123192D01*
X476003Y101953D02*
X475587Y101537D01*
X474754D01*
X474337Y101953D01*
Y103620D01*
X474754Y104036D01*
X475587D01*
X476003Y103620D01*
Y101953D01*
X473504Y104036D02*
Y103620D01*
X473088D01*
Y104036D01*
X473504D01*
X471421D02*
X470588D01*
X471005D01*
Y101537D01*
X471421Y101953D01*
X469339Y104036D02*
X468506D01*
X468922D01*
Y101537D01*
X469339Y101953D01*
X467256D02*
X466840Y101537D01*
X466007D01*
X465590Y101953D01*
Y102370D01*
X466007Y102787D01*
X465590Y103203D01*
Y103620D01*
X466007Y104036D01*
X466840D01*
X467256Y103620D01*
Y103203D01*
X466840Y102787D01*
X467256Y102370D01*
Y101953D01*
X466840Y102787D02*
X466007D01*
X464757Y104036D02*
X463924D01*
X464340D01*
Y102370D01*
X464757D01*
X462674Y104036D02*
Y102370D01*
X461425D01*
X461008Y102787D01*
Y104036D01*
X460175D02*
X458509Y102370D01*
X457676Y101953D02*
X457259Y101537D01*
X456426D01*
X456010Y101953D01*
Y102370D01*
X456426Y102787D01*
X456843D01*
X456426D01*
X456010Y103203D01*
Y103620D01*
X456426Y104036D01*
X457259D01*
X457676Y103620D01*
X455177Y104036D02*
Y102370D01*
X454760D01*
X454344Y102787D01*
Y104036D01*
Y102787D01*
X453927Y102370D01*
X453511Y102787D01*
Y104036D01*
X452677D02*
Y102370D01*
X452261D01*
X451845Y102787D01*
Y104036D01*
Y102787D01*
X451428Y102370D01*
X451011Y102787D01*
Y104036D01*
X526243Y99001D02*
X525826Y98584D01*
X524993D01*
X524577Y99001D01*
Y100667D01*
X524993Y101083D01*
X525826D01*
X526243Y100667D01*
Y99001D01*
X523743Y101083D02*
Y100667D01*
X523327D01*
Y101083D01*
X523743D01*
X521661Y99001D02*
X521244Y98584D01*
X520411D01*
X519995Y99001D01*
Y100667D01*
X520411Y101083D01*
X521244D01*
X521661Y100667D01*
Y99001D01*
X517495Y101083D02*
X519162D01*
X517495Y99417D01*
Y99001D01*
X517912Y98584D01*
X518745D01*
X519162Y99001D01*
X516663Y101083D02*
X515829D01*
X516246D01*
Y99417D01*
X516663D01*
X514580Y101083D02*
Y99417D01*
X513330D01*
X512914Y99834D01*
Y101083D01*
X512081D02*
X510415Y99417D01*
X509581Y99001D02*
X509165Y98584D01*
X508332D01*
X507915Y99001D01*
Y100667D01*
X508332Y101083D01*
X509165D01*
X509581Y100667D01*
Y99001D01*
X507082Y101083D02*
Y100667D01*
X506666D01*
Y101083D01*
X507082D01*
X503333Y98584D02*
X505000D01*
Y99834D01*
X504167Y99417D01*
X503750D01*
X503333Y99834D01*
Y100667D01*
X503750Y101083D01*
X504583D01*
X505000Y100667D01*
X502500Y101083D02*
Y99417D01*
X502084D01*
X501667Y99834D01*
Y101083D01*
Y99834D01*
X501251Y99417D01*
X500834Y99834D01*
Y101083D01*
X500001D02*
Y99417D01*
X499585D01*
X499168Y99834D01*
Y101083D01*
Y99834D01*
X498752Y99417D01*
X498335Y99834D01*
Y101083D01*
X507393Y84766D02*
X506976Y84350D01*
X506143D01*
X505727Y84766D01*
Y86433D01*
X506143Y86849D01*
X506976D01*
X507393Y86433D01*
Y84766D01*
X504893Y86849D02*
Y86433D01*
X504477D01*
Y86849D01*
X504893D01*
X502811Y84766D02*
X502394Y84350D01*
X501561D01*
X501145Y84766D01*
Y86433D01*
X501561Y86849D01*
X502394D01*
X502811Y86433D01*
Y84766D01*
X500312Y86849D02*
X499479D01*
X499895D01*
Y84350D01*
X500312Y84766D01*
X498229D02*
X497812Y84350D01*
X496979D01*
X496563Y84766D01*
Y85183D01*
X496979Y85599D01*
X496563Y86016D01*
Y86433D01*
X496979Y86849D01*
X497812D01*
X498229Y86433D01*
Y86016D01*
X497812Y85599D01*
X498229Y85183D01*
Y84766D01*
X497812Y85599D02*
X496979D01*
X495730Y86849D02*
X494897D01*
X495313D01*
Y85183D01*
X495730D01*
X493647Y86849D02*
Y85183D01*
X492397D01*
X491981Y85599D01*
Y86849D01*
X491148D02*
X489482Y85183D01*
X488649Y84766D02*
X488232Y84350D01*
X487399D01*
X486983Y84766D01*
Y86433D01*
X487399Y86849D01*
X488232D01*
X488649Y86433D01*
Y84766D01*
X486150Y86849D02*
Y86433D01*
X485733D01*
Y86849D01*
X486150D01*
X482817D02*
Y84350D01*
X484067Y85599D01*
X482401D01*
X479902Y84350D02*
X481568D01*
Y85599D01*
X480735Y85183D01*
X480318D01*
X479902Y85599D01*
Y86433D01*
X480318Y86849D01*
X481151D01*
X481568Y86433D01*
X479069Y86849D02*
Y85183D01*
X478652D01*
X478235Y85599D01*
Y86849D01*
Y85599D01*
X477819Y85183D01*
X477402Y85599D01*
Y86849D01*
X476569D02*
Y85183D01*
X476153D01*
X475736Y85599D01*
Y86849D01*
Y85599D01*
X475320Y85183D01*
X474903Y85599D01*
Y86849D01*
X500498Y69766D02*
X500081Y69350D01*
X499248D01*
X498832Y69766D01*
Y71433D01*
X499248Y71849D01*
X500081D01*
X500498Y71433D01*
Y69766D01*
X497999Y71849D02*
Y71433D01*
X497582D01*
Y71849D01*
X497999D01*
X495916D02*
X495083D01*
X495500D01*
Y69350D01*
X495916Y69766D01*
X493833Y71849D02*
X493000D01*
X493417D01*
Y69350D01*
X493833Y69766D01*
X491751D02*
X491334Y69350D01*
X490501D01*
X490085Y69766D01*
Y70183D01*
X490501Y70600D01*
X490085Y71016D01*
Y71433D01*
X490501Y71849D01*
X491334D01*
X491751Y71433D01*
Y71016D01*
X491334Y70600D01*
X491751Y70183D01*
Y69766D01*
X491334Y70600D02*
X490501D01*
X489252Y71849D02*
X488419D01*
X488835D01*
Y70183D01*
X489252D01*
X487169Y71849D02*
Y70183D01*
X485919D01*
X485503Y70600D01*
Y71849D01*
X484670D02*
X483004Y70183D01*
X482171Y69766D02*
X481754Y69350D01*
X480921D01*
X480505Y69766D01*
Y70183D01*
X480921Y70600D01*
X481337D01*
X480921D01*
X480505Y71016D01*
Y71433D01*
X480921Y71849D01*
X481754D01*
X482171Y71433D01*
X479671Y71849D02*
Y70183D01*
X479255D01*
X478838Y70600D01*
Y71849D01*
Y70600D01*
X478422Y70183D01*
X478005Y70600D01*
Y71849D01*
X477172D02*
Y70183D01*
X476756D01*
X476339Y70600D01*
Y71849D01*
Y70600D01*
X475923Y70183D01*
X475506Y70600D01*
Y71849D01*
X170010Y42966D02*
X169594Y42549D01*
X168761D01*
X168344Y42966D01*
Y44632D01*
X168761Y45048D01*
X169594D01*
X170010Y44632D01*
Y42966D01*
X167511Y45048D02*
Y44632D01*
X167095D01*
Y45048D01*
X167511D01*
X165429Y42966D02*
X165012Y42549D01*
X164179D01*
X163762Y42966D01*
Y44632D01*
X164179Y45048D01*
X165012D01*
X165429Y44632D01*
Y42966D01*
X161263Y45048D02*
X162929D01*
X161263Y43382D01*
Y42966D01*
X161680Y42549D01*
X162513D01*
X162929Y42966D01*
X160430Y45048D02*
X159597D01*
X160014D01*
Y43382D01*
X160430D01*
X158348Y45048D02*
Y43382D01*
X157098D01*
X156681Y43799D01*
Y45048D01*
X155848D02*
X154182Y43382D01*
X153349Y42966D02*
X152933Y42549D01*
X152100D01*
X151683Y42966D01*
Y44632D01*
X152100Y45048D01*
X152933D01*
X153349Y44632D01*
Y42966D01*
X150850Y45048D02*
Y44632D01*
X150434D01*
Y45048D01*
X150850D01*
X147101Y42549D02*
X148767D01*
Y43799D01*
X147934Y43382D01*
X147518D01*
X147101Y43799D01*
Y44632D01*
X147518Y45048D01*
X148351D01*
X148767Y44632D01*
X146268Y45048D02*
Y43382D01*
X145852D01*
X145435Y43799D01*
Y45048D01*
Y43799D01*
X145018Y43382D01*
X144602Y43799D01*
Y45048D01*
X143769D02*
Y43382D01*
X143352D01*
X142936Y43799D01*
Y45048D01*
Y43799D01*
X142519Y43382D01*
X142103Y43799D01*
Y45048D01*
X192246Y25179D02*
X191830Y24762D01*
X190997D01*
X190580Y25179D01*
Y26845D01*
X190997Y27261D01*
X191830D01*
X192246Y26845D01*
Y25179D01*
X189747Y27261D02*
Y26845D01*
X189331D01*
Y27261D01*
X189747D01*
X187664Y25179D02*
X187248Y24762D01*
X186415D01*
X185998Y25179D01*
Y26845D01*
X186415Y27261D01*
X187248D01*
X187664Y26845D01*
Y25179D01*
X185165Y27261D02*
X184332D01*
X184749D01*
Y24762D01*
X185165Y25179D01*
X183083D02*
X182666Y24762D01*
X181833D01*
X181416Y25179D01*
Y25595D01*
X181833Y26012D01*
X181416Y26428D01*
Y26845D01*
X181833Y27261D01*
X182666D01*
X183083Y26845D01*
Y26428D01*
X182666Y26012D01*
X183083Y25595D01*
Y25179D01*
X182666Y26012D02*
X181833D01*
X180583Y27261D02*
X179750D01*
X180167D01*
Y25595D01*
X180583D01*
X178501Y27261D02*
Y25595D01*
X177251D01*
X176835Y26012D01*
Y27261D01*
X176002D02*
X174335Y25595D01*
X173502Y25179D02*
X173086Y24762D01*
X172253D01*
X171836Y25179D01*
Y26845D01*
X172253Y27261D01*
X173086D01*
X173502Y26845D01*
Y25179D01*
X171003Y27261D02*
Y26845D01*
X170587D01*
Y27261D01*
X171003D01*
X167671D02*
Y24762D01*
X168921Y26012D01*
X167254D01*
X164755Y24762D02*
X166421D01*
Y26012D01*
X165588Y25595D01*
X165172D01*
X164755Y26012D01*
Y26845D01*
X165172Y27261D01*
X166005D01*
X166421Y26845D01*
X163922Y27261D02*
Y25595D01*
X163506D01*
X163089Y26012D01*
Y27261D01*
Y26012D01*
X162672Y25595D01*
X162256Y26012D01*
Y27261D01*
X161423D02*
Y25595D01*
X161006D01*
X160590Y26012D01*
Y27261D01*
Y26012D01*
X160173Y25595D01*
X159757Y26012D01*
Y27261D01*
X195391Y17679D02*
X194974Y17262D01*
X194141D01*
X193725Y17679D01*
Y19345D01*
X194141Y19761D01*
X194974D01*
X195391Y19345D01*
Y17679D01*
X192892Y19761D02*
Y19345D01*
X192475D01*
Y19761D01*
X192892D01*
X190809D02*
X189976D01*
X190393D01*
Y17262D01*
X190809Y17679D01*
X188726Y19761D02*
X187893D01*
X188310D01*
Y17262D01*
X188726Y17679D01*
X186644D02*
X186227Y17262D01*
X185394D01*
X184978Y17679D01*
Y18095D01*
X185394Y18512D01*
X184978Y18928D01*
Y19345D01*
X185394Y19761D01*
X186227D01*
X186644Y19345D01*
Y18928D01*
X186227Y18512D01*
X186644Y18095D01*
Y17679D01*
X186227Y18512D02*
X185394D01*
X184145Y19761D02*
X183311D01*
X183728D01*
Y18095D01*
X184145D01*
X182062Y19761D02*
Y18095D01*
X180812D01*
X180396Y18512D01*
Y19761D01*
X179563D02*
X177897Y18095D01*
X177064Y17679D02*
X176647Y17262D01*
X175814D01*
X175397Y17679D01*
Y18095D01*
X175814Y18512D01*
X176231D01*
X175814D01*
X175397Y18928D01*
Y19345D01*
X175814Y19761D01*
X176647D01*
X177064Y19345D01*
X174564Y19761D02*
Y18095D01*
X174148D01*
X173731Y18512D01*
Y19761D01*
Y18512D01*
X173315Y18095D01*
X172898Y18512D01*
Y19761D01*
X172065D02*
Y18095D01*
X171649D01*
X171232Y18512D01*
Y19761D01*
Y18512D01*
X170816Y18095D01*
X170399Y18512D01*
Y19761D01*
X162510Y44934D02*
X162094Y44518D01*
X161261D01*
X160844Y44934D01*
Y46600D01*
X161261Y47017D01*
X162094D01*
X162510Y46600D01*
Y44934D01*
X160011Y47017D02*
Y46600D01*
X159595D01*
Y47017D01*
X160011D01*
X157929D02*
X157096D01*
X157512D01*
Y44518D01*
X157929Y44934D01*
X155846Y47017D02*
X155013D01*
X155429D01*
Y44518D01*
X155846Y44934D01*
X153763D02*
X153347Y44518D01*
X152514D01*
X152097Y44934D01*
Y45351D01*
X152514Y45767D01*
X152097Y46184D01*
Y46600D01*
X152514Y47017D01*
X153347D01*
X153763Y46600D01*
Y46184D01*
X153347Y45767D01*
X153763Y45351D01*
Y44934D01*
X153347Y45767D02*
X152514D01*
X151264Y47017D02*
X150431D01*
X150848D01*
Y45351D01*
X151264D01*
X149181Y47017D02*
Y45351D01*
X147932D01*
X147515Y45767D01*
Y47017D01*
X146682D02*
X145016Y45351D01*
X144183Y44934D02*
X143766Y44518D01*
X142933D01*
X142517Y44934D01*
Y45351D01*
X142933Y45767D01*
X143350D01*
X142933D01*
X142517Y46184D01*
Y46600D01*
X142933Y47017D01*
X143766D01*
X144183Y46600D01*
X141684Y47017D02*
Y45351D01*
X141267D01*
X140851Y45767D01*
Y47017D01*
Y45767D01*
X140434Y45351D01*
X140018Y45767D01*
Y47017D01*
X139185D02*
Y45351D01*
X138768D01*
X138352Y45767D01*
Y47017D01*
Y45767D01*
X137935Y45351D01*
X137519Y45767D01*
Y47017D01*
X223271Y44934D02*
X222855Y44518D01*
X222022D01*
X221605Y44934D01*
Y46600D01*
X222022Y47017D01*
X222855D01*
X223271Y46600D01*
Y44934D01*
X220772Y47017D02*
Y46600D01*
X220356D01*
Y47017D01*
X220772D01*
X218690D02*
X217857D01*
X218273D01*
Y44518D01*
X218690Y44934D01*
X216607Y47017D02*
X215774D01*
X216190D01*
Y44518D01*
X216607Y44934D01*
X214524D02*
X214108Y44518D01*
X213275D01*
X212858Y44934D01*
Y45351D01*
X213275Y45767D01*
X212858Y46184D01*
Y46600D01*
X213275Y47017D01*
X214108D01*
X214524Y46600D01*
Y46184D01*
X214108Y45767D01*
X214524Y45351D01*
Y44934D01*
X214108Y45767D02*
X213275D01*
X212025Y47017D02*
X211192D01*
X211609D01*
Y45351D01*
X212025D01*
X209943Y47017D02*
Y45351D01*
X208693D01*
X208276Y45767D01*
Y47017D01*
X207443D02*
X205777Y45351D01*
X204944Y44934D02*
X204527Y44518D01*
X203695D01*
X203278Y44934D01*
Y45351D01*
X203695Y45767D01*
X204111D01*
X203695D01*
X203278Y46184D01*
Y46600D01*
X203695Y47017D01*
X204527D01*
X204944Y46600D01*
X202445Y47017D02*
Y45351D01*
X202028D01*
X201612Y45767D01*
Y47017D01*
Y45767D01*
X201195Y45351D01*
X200779Y45767D01*
Y47017D01*
X199946D02*
Y45351D01*
X199529D01*
X199113Y45767D01*
Y47017D01*
Y45767D01*
X198696Y45351D01*
X198280Y45767D01*
Y47017D01*
X195391Y67190D02*
X194974Y66773D01*
X194141D01*
X193725Y67190D01*
Y68856D01*
X194141Y69272D01*
X194974D01*
X195391Y68856D01*
Y67190D01*
X192892Y69272D02*
Y68856D01*
X192475D01*
Y69272D01*
X192892D01*
X190809D02*
X189976D01*
X190393D01*
Y66773D01*
X190809Y67190D01*
X188726Y69272D02*
X187893D01*
X188310D01*
Y66773D01*
X188726Y67190D01*
X186644D02*
X186227Y66773D01*
X185394D01*
X184978Y67190D01*
Y67606D01*
X185394Y68023D01*
X184978Y68439D01*
Y68856D01*
X185394Y69272D01*
X186227D01*
X186644Y68856D01*
Y68439D01*
X186227Y68023D01*
X186644Y67606D01*
Y67190D01*
X186227Y68023D02*
X185394D01*
X184145Y69272D02*
X183311D01*
X183728D01*
Y67606D01*
X184145D01*
X182062Y69272D02*
Y67606D01*
X180812D01*
X180396Y68023D01*
Y69272D01*
X179563D02*
X177897Y67606D01*
X177064Y67190D02*
X176647Y66773D01*
X175814D01*
X175397Y67190D01*
Y67606D01*
X175814Y68023D01*
X176231D01*
X175814D01*
X175397Y68439D01*
Y68856D01*
X175814Y69272D01*
X176647D01*
X177064Y68856D01*
X174564Y69272D02*
Y67606D01*
X174148D01*
X173731Y68023D01*
Y69272D01*
Y68023D01*
X173315Y67606D01*
X172898Y68023D01*
Y69272D01*
X172065D02*
Y67606D01*
X171649D01*
X171232Y68023D01*
Y69272D01*
Y68023D01*
X170816Y67606D01*
X170399Y68023D01*
Y69272D01*
M02*
