G04*
G04 #@! TF.GenerationSoftware,Altium Limited,Altium Designer,20.2.6 (244)*
G04*
G04 Layer_Color=8388736*
%FSLAX25Y25*%
%MOIN*%
G70*
G04*
G04 #@! TF.SameCoordinates,2322B5F6-C0F9-4DFB-907C-46C9DA4D7F26*
G04*
G04*
G04 #@! TF.FilePolarity,Negative*
G04*
G01*
G75*
%ADD27R,0.02236X0.07498*%
G04:AMPARAMS|DCode=28|XSize=74.98mil|YSize=22.36mil|CornerRadius=11.18mil|HoleSize=0mil|Usage=FLASHONLY|Rotation=90.000|XOffset=0mil|YOffset=0mil|HoleType=Round|Shape=RoundedRectangle|*
%AMROUNDEDRECTD28*
21,1,0.07498,0.00000,0,0,90.0*
21,1,0.05262,0.02236,0,0,90.0*
1,1,0.02236,0.00000,0.02631*
1,1,0.02236,0.00000,-0.02631*
1,1,0.02236,0.00000,-0.02631*
1,1,0.02236,0.00000,0.02631*
%
%ADD28ROUNDEDRECTD28*%
%ADD29R,0.01400X0.03200*%
%ADD30R,0.01400X0.05000*%
%ADD32R,0.02362X0.03937*%
%ADD33R,0.01772X0.03937*%
G04:AMPARAMS|DCode=41|XSize=43.31mil|YSize=23.62mil|CornerRadius=2.01mil|HoleSize=0mil|Usage=FLASHONLY|Rotation=180.000|XOffset=0mil|YOffset=0mil|HoleType=Round|Shape=RoundedRectangle|*
%AMROUNDEDRECTD41*
21,1,0.04331,0.01961,0,0,180.0*
21,1,0.03929,0.02362,0,0,180.0*
1,1,0.00402,-0.01965,0.00980*
1,1,0.00402,0.01965,0.00980*
1,1,0.00402,0.01965,-0.00980*
1,1,0.00402,-0.01965,-0.00980*
%
%ADD41ROUNDEDRECTD41*%
%ADD59R,0.06890X0.09646*%
%ADD60R,0.02972X0.01000*%
G04:AMPARAMS|DCode=71|XSize=43.31mil|YSize=23.62mil|CornerRadius=2.01mil|HoleSize=0mil|Usage=FLASHONLY|Rotation=270.000|XOffset=0mil|YOffset=0mil|HoleType=Round|Shape=RoundedRectangle|*
%AMROUNDEDRECTD71*
21,1,0.04331,0.01961,0,0,270.0*
21,1,0.03929,0.02362,0,0,270.0*
1,1,0.00402,-0.00980,-0.01965*
1,1,0.00402,-0.00980,0.01965*
1,1,0.00402,0.00980,0.01965*
1,1,0.00402,0.00980,-0.01965*
%
%ADD71ROUNDEDRECTD71*%
%ADD72R,0.06717X0.04545*%
%ADD96R,0.03543X0.03150*%
%ADD97R,0.03543X0.04724*%
%ADD98R,0.03740X0.05315*%
%ADD106R,0.03197X0.02985*%
%ADD108R,0.06342X0.01302*%
%ADD109R,0.01302X0.06342*%
%ADD110R,0.03556X0.04343*%
%ADD111R,0.04540X0.04934*%
%ADD112R,0.03950X0.04343*%
%ADD113R,0.04540X0.03950*%
%ADD114R,0.08280X0.08280*%
%ADD115R,0.07099X0.06312*%
%ADD116R,0.01955X0.05915*%
%ADD117R,0.06312X0.09068*%
%ADD118R,0.03950X0.03950*%
%ADD119R,0.01700X0.05600*%
%ADD120R,0.05600X0.01700*%
%ADD121R,0.08280X0.05131*%
%ADD122R,0.05131X0.07493*%
%ADD123R,0.09855X0.09855*%
%ADD124R,0.04343X0.03556*%
%ADD125O,0.06706X0.12060*%
%ADD126O,0.12060X0.06706*%
%ADD127C,0.01587*%
%ADD128R,0.06706X0.06706*%
%ADD129R,0.06706X0.06706*%
%ADD130R,0.04343X0.03950*%
%ADD131R,0.04147X0.04540*%
%ADD132R,0.04147X0.04658*%
%ADD133R,0.07099X0.05721*%
%ADD134R,0.04934X0.04934*%
%ADD135R,0.03950X0.04343*%
%ADD136R,0.21863X0.34422*%
%ADD137R,0.04304X0.12847*%
%ADD138R,0.04186X0.04658*%
%ADD139R,0.04737X0.13398*%
%ADD140R,0.03713X0.11784*%
%ADD141R,0.07493X0.05131*%
%ADD142R,0.06312X0.05524*%
%ADD143R,0.04422X0.04658*%
%ADD144R,0.02375X0.06706*%
%ADD145R,0.05524X0.07493*%
%ADD146R,0.07493X0.07493*%
%ADD147R,0.03792X0.01824*%
%ADD148R,0.01824X0.03792*%
%ADD149R,0.22453X0.09265*%
%ADD150R,0.02847X0.02847*%
%ADD151O,0.08477X0.01981*%
%ADD152R,0.03989X0.04658*%
%ADD153R,0.04540X0.04855*%
%ADD154R,0.04658X0.04422*%
%ADD155R,0.04225X0.04658*%
%ADD156R,0.05918X0.04737*%
%ADD157O,0.08280X0.02572*%
%ADD158R,0.04742X0.06713*%
%ADD159R,0.06706X0.04737*%
%ADD160R,0.03951X0.06314*%
%ADD161R,0.03952X0.06710*%
%ADD162R,0.06713X0.06713*%
%ADD163R,0.06709X0.06709*%
%ADD164R,0.03560X0.07700*%
%ADD165R,0.03559X0.07697*%
%ADD166R,0.03557X0.07692*%
%ADD167R,0.03560X0.07700*%
%ADD168R,0.03559X0.07698*%
%ADD169R,0.03558X0.07696*%
%ADD170R,0.03561X0.07702*%
%ADD171R,0.03557X0.07692*%
%ADD172R,0.06312X0.06902*%
%ADD173R,0.05918X0.06509*%
%ADD174R,0.05328X0.06509*%
%ADD175R,0.04225X0.04461*%
%ADD176R,0.04658X0.04186*%
%ADD177R,0.04658X0.03989*%
%ADD178R,0.07099X0.14580*%
%ADD179R,0.03359X0.06804*%
%ADD180C,0.12008*%
%ADD181R,0.06260X0.06260*%
%ADD182C,0.06260*%
%ADD183C,0.07060*%
%ADD184C,0.18812*%
%ADD185C,0.06942*%
%ADD186R,0.06942X0.06942*%
%ADD187O,0.04343X0.07099*%
%ADD188C,0.02800*%
%ADD189C,0.06706*%
%ADD190R,0.09150X0.09150*%
%ADD191C,0.10243*%
%ADD192C,0.29934*%
G36*
X613540Y135350D02*
Y124350D01*
X624540D01*
Y135350D01*
X613540D01*
D02*
G37*
D27*
X342471Y126145D02*
D03*
D28*
X347471D02*
D03*
X352471D02*
D03*
X357471D02*
D03*
X362471D02*
D03*
X367471D02*
D03*
X372471D02*
D03*
Y145837D02*
D03*
X367471D02*
D03*
X362471D02*
D03*
X357471D02*
D03*
X352471D02*
D03*
X347471D02*
D03*
X342471D02*
D03*
D29*
X146348Y35002D02*
D03*
X151466D02*
D03*
D30*
Y27602D02*
D03*
X148907D02*
D03*
X146348D02*
D03*
D32*
X170983Y64106D02*
D03*
X156416D02*
D03*
X170983Y81429D02*
D03*
X156416D02*
D03*
D33*
X173640Y72768D02*
D03*
X153759D02*
D03*
D41*
X187748Y194011D02*
D03*
Y201492D02*
D03*
X197985D02*
D03*
Y197752D02*
D03*
Y194011D02*
D03*
D59*
X493623Y102786D02*
D03*
D60*
X488003Y98849D02*
D03*
Y100818D02*
D03*
Y102786D02*
D03*
Y104755D02*
D03*
Y106723D02*
D03*
X499243D02*
D03*
Y104755D02*
D03*
Y102786D02*
D03*
Y100818D02*
D03*
Y98849D02*
D03*
D71*
X46947Y58382D02*
D03*
X39467D02*
D03*
Y68619D02*
D03*
X43207D02*
D03*
X46947D02*
D03*
X15694Y58078D02*
D03*
X8214D02*
D03*
Y68314D02*
D03*
X11954D02*
D03*
X15694D02*
D03*
D72*
X32227Y118076D02*
D03*
Y128122D02*
D03*
D96*
X102542Y32141D02*
D03*
X109235D02*
D03*
D97*
X65897Y87708D02*
D03*
X57630D02*
D03*
D98*
X64619Y97963D02*
D03*
X58714D02*
D03*
D106*
X106782Y44083D02*
D03*
Y39146D02*
D03*
D108*
X345831Y42322D02*
D03*
Y40354D02*
D03*
Y38385D02*
D03*
Y36417D02*
D03*
Y34448D02*
D03*
Y32480D02*
D03*
Y30511D02*
D03*
Y28543D02*
D03*
Y26574D02*
D03*
Y24606D02*
D03*
Y22637D02*
D03*
Y20669D02*
D03*
X378744D02*
D03*
Y22637D02*
D03*
Y24606D02*
D03*
Y26574D02*
D03*
Y28543D02*
D03*
Y30511D02*
D03*
Y32480D02*
D03*
Y34448D02*
D03*
Y36417D02*
D03*
Y38385D02*
D03*
Y40354D02*
D03*
Y42322D02*
D03*
D109*
X351461Y15039D02*
D03*
X353429D02*
D03*
X355398D02*
D03*
X357366D02*
D03*
X359335D02*
D03*
X361303D02*
D03*
X363272D02*
D03*
X365240D02*
D03*
X367209D02*
D03*
X369177D02*
D03*
X371146D02*
D03*
X373114D02*
D03*
Y47952D02*
D03*
X371146D02*
D03*
X369177D02*
D03*
X367209D02*
D03*
X365240D02*
D03*
X363272D02*
D03*
X361303D02*
D03*
X359335D02*
D03*
X357366D02*
D03*
X355398D02*
D03*
X353429D02*
D03*
X351461D02*
D03*
D110*
X381509Y158034D02*
D03*
X375603D02*
D03*
Y153024D02*
D03*
X381509D02*
D03*
X643969Y160777D02*
D03*
X649874D02*
D03*
X192208Y145390D02*
D03*
X186302D02*
D03*
X200544Y98504D02*
D03*
X194638D02*
D03*
X200544Y103501D02*
D03*
X194638D02*
D03*
X513000Y101031D02*
D03*
X507094D02*
D03*
Y106372D02*
D03*
X513000D02*
D03*
X513069Y111712D02*
D03*
X507164D02*
D03*
X201331Y60777D02*
D03*
X195426D02*
D03*
X342772Y154894D02*
D03*
X336867D02*
D03*
X354727Y159671D02*
D03*
X360632D02*
D03*
X424350Y77661D02*
D03*
X430256D02*
D03*
X424350Y71058D02*
D03*
X430256D02*
D03*
X424350Y64865D02*
D03*
X430256D02*
D03*
X386556Y13217D02*
D03*
X392461D02*
D03*
X386556Y20153D02*
D03*
X392461D02*
D03*
X333237Y49251D02*
D03*
X327332D02*
D03*
X464600Y71058D02*
D03*
X470506D02*
D03*
X304483Y108913D02*
D03*
X310388D02*
D03*
X195426Y126311D02*
D03*
X201331D02*
D03*
X304483Y136453D02*
D03*
X310388D02*
D03*
D111*
X381016Y164571D02*
D03*
X375308D02*
D03*
X342280Y161396D02*
D03*
X336572D02*
D03*
D112*
X120035Y227909D02*
D03*
X127516D02*
D03*
X123776Y235783D02*
D03*
D113*
X142169Y74149D02*
D03*
Y79267D02*
D03*
D114*
X241391Y-8747D02*
D03*
X231942D02*
D03*
D115*
X249265Y899D02*
D03*
X224068D02*
D03*
D116*
X241785Y1785D02*
D03*
X239226D02*
D03*
X236667D02*
D03*
X234108D02*
D03*
X231549D02*
D03*
D117*
X237122Y19133D02*
D03*
X254445D02*
D03*
D118*
X650071Y168211D02*
D03*
X643772D02*
D03*
X199273Y145217D02*
D03*
X205572D02*
D03*
D119*
X218346Y143839D02*
D03*
X220314D02*
D03*
X222283D02*
D03*
X224251D02*
D03*
X226220D02*
D03*
X228188D02*
D03*
X230157D02*
D03*
X232125D02*
D03*
X234094D02*
D03*
X236062D02*
D03*
X238031D02*
D03*
X239999D02*
D03*
X241968D02*
D03*
X243936D02*
D03*
X245905D02*
D03*
X247873D02*
D03*
X249842D02*
D03*
X251810D02*
D03*
X253779D02*
D03*
X255747D02*
D03*
X257716D02*
D03*
X259684D02*
D03*
X261653D02*
D03*
X263621D02*
D03*
X265590D02*
D03*
X267558D02*
D03*
X269527D02*
D03*
X271495D02*
D03*
X273464D02*
D03*
X275432D02*
D03*
X277401D02*
D03*
X279369D02*
D03*
X281338D02*
D03*
X283306D02*
D03*
X285275D02*
D03*
X287243D02*
D03*
Y59239D02*
D03*
X285275D02*
D03*
X283306D02*
D03*
X281338D02*
D03*
X279369D02*
D03*
X277401D02*
D03*
X275432D02*
D03*
X273464D02*
D03*
X271495D02*
D03*
X269527D02*
D03*
X267558D02*
D03*
X265590D02*
D03*
X263621D02*
D03*
X261653D02*
D03*
X259684D02*
D03*
X257716D02*
D03*
X255747D02*
D03*
X253779D02*
D03*
X251810D02*
D03*
X249842D02*
D03*
X247873D02*
D03*
X245905D02*
D03*
X243936D02*
D03*
X241968D02*
D03*
X239999D02*
D03*
X238031D02*
D03*
X236062D02*
D03*
X234094D02*
D03*
X232125D02*
D03*
X230157D02*
D03*
X228188D02*
D03*
X226220D02*
D03*
X224251D02*
D03*
X222283D02*
D03*
X220314D02*
D03*
X218346D02*
D03*
D120*
X295094Y135988D02*
D03*
Y134020D02*
D03*
Y132051D02*
D03*
Y130083D02*
D03*
Y128114D02*
D03*
Y126146D02*
D03*
Y124177D02*
D03*
Y122209D02*
D03*
Y120240D02*
D03*
Y118272D02*
D03*
Y116303D02*
D03*
Y114335D02*
D03*
Y112366D02*
D03*
Y110398D02*
D03*
Y108429D02*
D03*
Y106461D02*
D03*
Y104492D02*
D03*
Y102524D02*
D03*
Y100555D02*
D03*
Y98587D02*
D03*
Y96618D02*
D03*
Y94650D02*
D03*
Y92681D02*
D03*
Y90713D02*
D03*
Y88744D02*
D03*
Y86776D02*
D03*
Y84807D02*
D03*
Y82839D02*
D03*
Y80870D02*
D03*
Y78902D02*
D03*
Y76933D02*
D03*
Y74965D02*
D03*
Y72996D02*
D03*
Y71028D02*
D03*
Y69059D02*
D03*
Y67091D02*
D03*
X210494D02*
D03*
Y69059D02*
D03*
Y71028D02*
D03*
Y72996D02*
D03*
Y74965D02*
D03*
Y76933D02*
D03*
Y78902D02*
D03*
Y80870D02*
D03*
Y82839D02*
D03*
Y84807D02*
D03*
Y86776D02*
D03*
Y88744D02*
D03*
Y90713D02*
D03*
Y92681D02*
D03*
Y94650D02*
D03*
Y96618D02*
D03*
Y98587D02*
D03*
Y100555D02*
D03*
Y102524D02*
D03*
Y104492D02*
D03*
Y106461D02*
D03*
Y108429D02*
D03*
Y110398D02*
D03*
Y112366D02*
D03*
Y114335D02*
D03*
Y116303D02*
D03*
Y118272D02*
D03*
Y120240D02*
D03*
Y122209D02*
D03*
Y124177D02*
D03*
Y126146D02*
D03*
Y128114D02*
D03*
Y130083D02*
D03*
Y132051D02*
D03*
Y134020D02*
D03*
Y135988D02*
D03*
D121*
X227225Y48347D02*
D03*
Y38505D02*
D03*
D122*
X187899Y185011D02*
D03*
X198529D02*
D03*
X205229Y202633D02*
D03*
X215859D02*
D03*
X36334Y50612D02*
D03*
X46964D02*
D03*
X189255Y110398D02*
D03*
X199885D02*
D03*
X189894Y79067D02*
D03*
X200524D02*
D03*
X200544Y69224D02*
D03*
X189914D02*
D03*
X71325Y22069D02*
D03*
X81955D02*
D03*
X93877Y22069D02*
D03*
X104507D02*
D03*
X48718Y22284D02*
D03*
X59347D02*
D03*
X27297Y22284D02*
D03*
X37927D02*
D03*
X5081Y50612D02*
D03*
X15711D02*
D03*
D123*
X110405Y53564D02*
D03*
X128121D02*
D03*
D124*
X190032Y86450D02*
D03*
Y92355D02*
D03*
X200937Y86341D02*
D03*
Y92247D02*
D03*
X238216Y44010D02*
D03*
Y49916D02*
D03*
X218531Y44010D02*
D03*
Y49916D02*
D03*
X283491Y49704D02*
D03*
Y43798D02*
D03*
X246090Y49916D02*
D03*
Y44010D02*
D03*
X236339Y153183D02*
D03*
Y159089D02*
D03*
X255932Y49916D02*
D03*
Y44010D02*
D03*
X261806Y153183D02*
D03*
Y159089D02*
D03*
D125*
X630739Y153141D02*
D03*
X622865D02*
D03*
X614992D02*
D03*
X607118D02*
D03*
X599243D02*
D03*
X591369D02*
D03*
X583495D02*
D03*
X575621D02*
D03*
X567747D02*
D03*
X559873D02*
D03*
X551999D02*
D03*
X544125D02*
D03*
X536251D02*
D03*
Y67944D02*
D03*
X544125D02*
D03*
X551999D02*
D03*
X559873D02*
D03*
X567747D02*
D03*
X575621D02*
D03*
X583495D02*
D03*
X591369D02*
D03*
X599243D02*
D03*
X607118D02*
D03*
X614992D02*
D03*
X622865D02*
D03*
X630739D02*
D03*
X638614D02*
D03*
X646488D02*
D03*
X654362D02*
D03*
D126*
X528692Y138110D02*
D03*
Y130236D02*
D03*
Y122362D02*
D03*
Y114488D02*
D03*
Y106614D02*
D03*
Y98739D02*
D03*
Y90865D02*
D03*
Y82991D02*
D03*
D127*
X619322Y129440D02*
D03*
D128*
X630739Y155850D02*
D03*
X654362Y65267D02*
D03*
X622865Y155850D02*
D03*
X614992D02*
D03*
X607118D02*
D03*
X599243D02*
D03*
X591369D02*
D03*
X583495D02*
D03*
X575621D02*
D03*
X567747D02*
D03*
X559873D02*
D03*
X551999D02*
D03*
X544125D02*
D03*
X536251D02*
D03*
Y65236D02*
D03*
X544125D02*
D03*
X551999D02*
D03*
X559873D02*
D03*
X567747D02*
D03*
X575621D02*
D03*
X583495D02*
D03*
X591369D02*
D03*
X599243D02*
D03*
X607118D02*
D03*
X614992D02*
D03*
X622865D02*
D03*
X630739D02*
D03*
X638614D02*
D03*
X646488D02*
D03*
D129*
X525984Y138110D02*
D03*
Y130236D02*
D03*
Y122362D02*
D03*
Y114488D02*
D03*
Y106614D02*
D03*
Y98739D02*
D03*
Y90865D02*
D03*
Y82991D02*
D03*
X617118Y169097D02*
D03*
X440775Y97168D02*
D03*
X342054D02*
D03*
X363370D02*
D03*
D130*
X278449Y232399D02*
D03*
X270574Y228659D02*
D03*
Y236139D02*
D03*
D131*
X360337Y154476D02*
D03*
X355022D02*
D03*
X352881Y117411D02*
D03*
X347566D02*
D03*
X352881Y110889D02*
D03*
X347566D02*
D03*
D132*
X327208Y72216D02*
D03*
X333113D02*
D03*
X310553Y31495D02*
D03*
X316459D02*
D03*
X333113Y79331D02*
D03*
X327208D02*
D03*
X310574Y22696D02*
D03*
X316479D02*
D03*
D133*
X266569Y19881D02*
D03*
X281135D02*
D03*
X266569Y28543D02*
D03*
X281135D02*
D03*
D134*
X632402Y168211D02*
D03*
Y173527D02*
D03*
D135*
X507291Y95691D02*
D03*
X512803D02*
D03*
X476809Y100818D02*
D03*
X482321D02*
D03*
Y107009D02*
D03*
X476809D02*
D03*
D136*
X59401Y142479D02*
D03*
D137*
X74401Y113720D02*
D03*
X69401D02*
D03*
X64401D02*
D03*
X59401D02*
D03*
X54401D02*
D03*
X49401D02*
D03*
X44401D02*
D03*
D138*
X326889Y22775D02*
D03*
X332913D02*
D03*
X392894Y27246D02*
D03*
X386871D02*
D03*
X333094Y57986D02*
D03*
X327070D02*
D03*
X333094Y65101D02*
D03*
X327070D02*
D03*
X332923Y31653D02*
D03*
X326899D02*
D03*
D139*
X489949Y87404D02*
D03*
X498610D02*
D03*
D140*
X150201Y11566D02*
D03*
X145201D02*
D03*
X140201D02*
D03*
X135201D02*
D03*
X130201D02*
D03*
Y-4457D02*
D03*
X135201D02*
D03*
X140201D02*
D03*
X145201D02*
D03*
X150201D02*
D03*
D141*
X63854Y58444D02*
D03*
Y69074D02*
D03*
X31162Y68525D02*
D03*
Y57895D02*
D03*
X74270Y58444D02*
D03*
Y69074D02*
D03*
X33719Y9997D02*
D03*
Y-632D02*
D03*
X334807Y-9351D02*
D03*
Y1279D02*
D03*
X76695Y-802D02*
D03*
Y9828D02*
D03*
X55502Y-802D02*
D03*
Y9828D02*
D03*
X99192Y-802D02*
D03*
Y9828D02*
D03*
X148Y57784D02*
D03*
Y68414D02*
D03*
D142*
X409860Y16535D02*
D03*
X418521D02*
D03*
Y23228D02*
D03*
X409860D02*
D03*
D143*
X413364Y8681D02*
D03*
X419466D02*
D03*
X310239Y41117D02*
D03*
X316341D02*
D03*
X413364Y31809D02*
D03*
X419466D02*
D03*
X310722Y13897D02*
D03*
X316825D02*
D03*
X316341Y49056D02*
D03*
X310239D02*
D03*
D144*
X420324Y119038D02*
D03*
X422883D02*
D03*
X425442D02*
D03*
Y125731D02*
D03*
X422883D02*
D03*
X420324D02*
D03*
X432026Y125901D02*
D03*
X434585D02*
D03*
X437144D02*
D03*
Y119208D02*
D03*
X434585D02*
D03*
X432026D02*
D03*
X443728Y125838D02*
D03*
X446287D02*
D03*
X448846D02*
D03*
Y119146D02*
D03*
X446287D02*
D03*
X443728D02*
D03*
X455431Y125838D02*
D03*
X457990D02*
D03*
X460548D02*
D03*
Y119146D02*
D03*
X457990D02*
D03*
X455431D02*
D03*
X467133Y125839D02*
D03*
X469692D02*
D03*
X472251D02*
D03*
Y119146D02*
D03*
X469692D02*
D03*
X467133D02*
D03*
D145*
X70819Y41580D02*
D03*
X60976D02*
D03*
D146*
X90846Y39863D02*
D03*
D147*
X96692Y42816D02*
D03*
Y40847D02*
D03*
Y38879D02*
D03*
Y36910D02*
D03*
X84999D02*
D03*
Y38879D02*
D03*
Y40847D02*
D03*
Y42816D02*
D03*
D148*
X87893Y45710D02*
D03*
X89861D02*
D03*
X91830D02*
D03*
X93798D02*
D03*
Y34017D02*
D03*
X91830D02*
D03*
X89861D02*
D03*
X87893D02*
D03*
D149*
X90846Y71337D02*
D03*
Y56180D02*
D03*
D150*
X627935Y170318D02*
D03*
Y167168D02*
D03*
D151*
X439071Y80901D02*
D03*
Y78932D02*
D03*
Y76964D02*
D03*
Y74995D02*
D03*
Y73027D02*
D03*
Y71058D02*
D03*
Y69090D02*
D03*
Y67121D02*
D03*
X455804Y80901D02*
D03*
Y78932D02*
D03*
Y76964D02*
D03*
Y74995D02*
D03*
Y73027D02*
D03*
Y71058D02*
D03*
Y69090D02*
D03*
Y67121D02*
D03*
D152*
X392843Y41117D02*
D03*
X386772D02*
D03*
D153*
X387048Y6538D02*
D03*
X393253D02*
D03*
X326541Y40629D02*
D03*
X332745D02*
D03*
D154*
X371804Y5858D02*
D03*
Y-244D02*
D03*
X354591Y61825D02*
D03*
Y55723D02*
D03*
X364427Y-244D02*
D03*
Y5858D02*
D03*
X360734Y55723D02*
D03*
Y61825D02*
D03*
D155*
X332893Y13897D02*
D03*
X326752D02*
D03*
D156*
X265000Y-3249D02*
D03*
Y-9548D02*
D03*
X273438Y-3157D02*
D03*
Y-9456D02*
D03*
X281875Y-3249D02*
D03*
Y-9548D02*
D03*
X318290Y-9548D02*
D03*
Y-3249D02*
D03*
X326051Y-9517D02*
D03*
Y-3218D02*
D03*
D157*
X308385Y-11018D02*
D03*
Y-8459D02*
D03*
Y-5900D02*
D03*
Y-3341D02*
D03*
X291456Y-11018D02*
D03*
Y-8459D02*
D03*
Y-5900D02*
D03*
Y-3341D02*
D03*
D158*
X208483Y33053D02*
D03*
D159*
X164408Y26753D02*
D03*
D160*
X210058Y23407D02*
D03*
D161*
X163010Y20848D02*
D03*
D162*
X208778Y-9073D02*
D03*
D163*
X163699D02*
D03*
D164*
X168818Y-9566D02*
D03*
D165*
X173148D02*
D03*
D166*
X177479D02*
D03*
D167*
X181810D02*
D03*
D168*
X186140D02*
D03*
D169*
X190471D02*
D03*
D170*
X194802D02*
D03*
D171*
X199132D02*
D03*
D172*
X82403Y87708D02*
D03*
X74923D02*
D03*
D173*
X81350Y97963D02*
D03*
X75051D02*
D03*
D174*
X41828Y97963D02*
D03*
X48718D02*
D03*
D175*
X393032Y34083D02*
D03*
X386890D02*
D03*
D176*
X367047Y61943D02*
D03*
Y55919D02*
D03*
D177*
X374181Y55971D02*
D03*
Y62041D02*
D03*
D178*
X96340Y135272D02*
D03*
Y114012D02*
D03*
D179*
X438486Y138608D02*
D03*
X443486D02*
D03*
X448486D02*
D03*
X453486D02*
D03*
Y159962D02*
D03*
X448486D02*
D03*
X443486D02*
D03*
X438486D02*
D03*
D180*
X36479Y198099D02*
D03*
X134864D02*
D03*
X294175Y267381D02*
D03*
X195789D02*
D03*
X133735Y267229D02*
D03*
X35350D02*
D03*
X356202Y267381D02*
D03*
X454588D02*
D03*
X516622Y267511D02*
D03*
X615007D02*
D03*
D181*
X107266Y203689D02*
D03*
X223387Y261791D02*
D03*
X106137Y272819D02*
D03*
X383801Y261791D02*
D03*
X587409Y273101D02*
D03*
D182*
X96479Y203689D02*
D03*
X85691D02*
D03*
X74904D02*
D03*
X101872Y192508D02*
D03*
X91085D02*
D03*
X234175Y261791D02*
D03*
X244962D02*
D03*
X255750D02*
D03*
X266537D02*
D03*
X228781Y272972D02*
D03*
X239569D02*
D03*
X250356D02*
D03*
X261143D02*
D03*
X68381Y261638D02*
D03*
X79168D02*
D03*
X89956D02*
D03*
X100743D02*
D03*
X62987Y272819D02*
D03*
X73775D02*
D03*
X84562D02*
D03*
X95350D02*
D03*
X421556Y272972D02*
D03*
X410769D02*
D03*
X399982D02*
D03*
X389194D02*
D03*
X426950Y261791D02*
D03*
X416163D02*
D03*
X405375D02*
D03*
X394588D02*
D03*
X576622Y273101D02*
D03*
X565834D02*
D03*
X555047D02*
D03*
X544259D02*
D03*
X582015Y261920D02*
D03*
X571228D02*
D03*
X560440D02*
D03*
X549653D02*
D03*
D183*
X64116Y203689D02*
D03*
X80297Y192508D02*
D03*
X69510D02*
D03*
D184*
X389280Y203342D02*
D03*
X258099D02*
D03*
X613502Y203120D02*
D03*
X482321D02*
D03*
D185*
X356091Y208933D02*
D03*
X345304D02*
D03*
X334477D02*
D03*
X323689D02*
D03*
X312902D02*
D03*
X302075D02*
D03*
X291288D02*
D03*
X361485Y197752D02*
D03*
X350697D02*
D03*
X339910D02*
D03*
X329123D02*
D03*
X318256D02*
D03*
X307469D02*
D03*
X296682D02*
D03*
X580313Y208711D02*
D03*
X569526D02*
D03*
X558699D02*
D03*
X547912D02*
D03*
X537124D02*
D03*
X526298D02*
D03*
X515510D02*
D03*
X585707Y197529D02*
D03*
X574920D02*
D03*
X564132D02*
D03*
X553345D02*
D03*
X542479D02*
D03*
X531691D02*
D03*
X520904D02*
D03*
D186*
X285894Y197752D02*
D03*
X510116Y197529D02*
D03*
D187*
X249659Y-8747D02*
D03*
X223675D02*
D03*
D188*
X615385Y129834D02*
D03*
Y133377D02*
D03*
Y126291D02*
D03*
X622865Y129834D02*
D03*
Y133377D02*
D03*
Y126291D02*
D03*
X619322D02*
D03*
Y133377D02*
D03*
Y129834D02*
D03*
D189*
X607118Y169097D02*
D03*
X597118D02*
D03*
X430775Y97168D02*
D03*
X352054D02*
D03*
X373370D02*
D03*
D190*
X640744Y38853D02*
D03*
D191*
X650744Y28853D02*
D03*
X630744D02*
D03*
Y48853D02*
D03*
X650744D02*
D03*
D192*
X649606Y0D02*
D03*
Y275590D02*
D03*
X0Y0D02*
D03*
Y275590D02*
D03*
M02*
