G04*
G04 #@! TF.GenerationSoftware,Altium Limited,Altium Designer,20.0.11 (256)*
G04*
G04 Layer_Color=8388736*
%FSLAX25Y25*%
%MOIN*%
G70*
G01*
G75*
%ADD15C,0.00787*%
D15*
X183427Y241929D02*
X306537D01*
X183427D02*
Y292834D01*
X306537D01*
Y241929D02*
Y292834D01*
X340316Y129196D02*
X374371D01*
Y144550D01*
X340316D02*
X374371D01*
X340316Y129196D02*
Y144550D01*
X22987Y241776D02*
Y292682D01*
Y241776D02*
X146098D01*
Y292682D01*
X22987D02*
X146098D01*
X626744Y26398D02*
X686744D01*
X626744D02*
Y51308D01*
X686744D01*
Y26398D02*
Y51308D01*
X37203Y66945D02*
X49211D01*
X37203Y60056D02*
Y66945D01*
Y60056D02*
X49211D01*
Y66945D01*
X29077Y116800D02*
Y129399D01*
X35377D01*
Y116800D02*
Y129399D01*
X29077Y116800D02*
X35377D01*
X466950Y241929D02*
Y292834D01*
X343840D02*
X466950D01*
X343840Y241929D02*
Y292834D01*
Y241929D02*
X466950D01*
X504259Y292963D02*
X627370D01*
Y242058D02*
Y292963D01*
X504259Y242058D02*
X627370D01*
X504259D02*
Y292963D01*
X109235Y30369D02*
Y33913D01*
X102542D02*
X109235D01*
X102542Y30369D02*
Y33913D01*
Y30369D02*
X109235D01*
X57630Y85050D02*
Y90365D01*
Y85050D02*
X65897D01*
Y90365D01*
X57630D02*
X65897D01*
X57336Y95108D02*
X65997D01*
X57336D02*
Y100817D01*
X65997D01*
Y95108D02*
Y100817D01*
X5950Y66641D02*
X17958D01*
X5950Y59751D02*
Y66641D01*
Y59751D02*
X17958D01*
Y66641D01*
X105208Y38465D02*
X108357D01*
Y44764D01*
X105208D02*
X108357D01*
X105208Y38465D02*
Y44764D01*
M02*
