G04*
G04 #@! TF.GenerationSoftware,Altium Limited,Altium Designer,20.0.11 (256)*
G04*
G04 Layer_Color=8421504*
%FSLAX25Y25*%
%MOIN*%
G70*
G01*
G75*
%ADD23R,0.03543X0.03150*%
%ADD24R,0.03740X0.04134*%
%ADD25R,0.02756X0.03543*%
%ADD26R,0.03347X0.03740*%
%ADD27R,0.03347X0.03858*%
%ADD28R,0.00900X0.04800*%
%ADD29R,0.04800X0.00900*%
%ADD30R,0.06299X0.04921*%
G04:AMPARAMS|DCode=31|XSize=74.98mil|YSize=22.36mil|CornerRadius=11.18mil|HoleSize=0mil|Usage=FLASHONLY|Rotation=90.000|XOffset=0mil|YOffset=0mil|HoleType=Round|Shape=RoundedRectangle|*
%AMROUNDEDRECTD31*
21,1,0.07498,0.00000,0,0,90.0*
21,1,0.05262,0.02236,0,0,90.0*
1,1,0.02236,0.00000,0.02631*
1,1,0.02236,0.00000,-0.02631*
1,1,0.02236,0.00000,-0.02631*
1,1,0.02236,0.00000,0.02631*
%
%ADD31ROUNDEDRECTD31*%
%ADD32R,0.02236X0.07498*%
%ADD33R,0.05906X0.05906*%
%ADD34R,0.05906X0.05906*%
%ADD35C,0.00787*%
%ADD36O,0.05906X0.11260*%
%ADD37O,0.11260X0.05906*%
%ADD38R,0.04134X0.04134*%
%ADD39R,0.03150X0.03543*%
%ADD40R,0.21063X0.33622*%
%ADD41R,0.03504X0.12047*%
%ADD42R,0.03386X0.03858*%
%ADD43R,0.06890X0.09646*%
%ADD44R,0.02972X0.01000*%
%ADD45R,0.03937X0.12598*%
%ADD46R,0.02913X0.10984*%
%ADD47R,0.06693X0.04331*%
%ADD48R,0.06142X0.01102*%
%ADD49R,0.01102X0.06142*%
%ADD50R,0.05512X0.04724*%
%ADD51R,0.03622X0.03858*%
%ADD52R,0.02972X0.00781*%
%ADD53R,0.00781X0.02972*%
%ADD54R,0.07087X0.07087*%
%ADD55R,0.01575X0.05906*%
%ADD56R,0.04724X0.06693*%
%ADD57R,0.06693X0.06693*%
%ADD58R,0.02992X0.01024*%
%ADD59R,0.01024X0.02992*%
G04:AMPARAMS|DCode=60|XSize=43.31mil|YSize=23.62mil|CornerRadius=2.01mil|HoleSize=0mil|Usage=FLASHONLY|Rotation=270.000|XOffset=0mil|YOffset=0mil|HoleType=Round|Shape=RoundedRectangle|*
%AMROUNDEDRECTD60*
21,1,0.04331,0.01961,0,0,270.0*
21,1,0.03929,0.02362,0,0,270.0*
1,1,0.00402,-0.00980,-0.01965*
1,1,0.00402,-0.00980,0.01965*
1,1,0.00402,0.00980,0.01965*
1,1,0.00402,0.00980,-0.01965*
%
%ADD60ROUNDEDRECTD60*%
%ADD61R,0.04331X0.06693*%
%ADD62R,0.06717X0.04545*%
%ADD63R,0.21654X0.08465*%
%ADD64R,0.02047X0.02047*%
%ADD65O,0.07677X0.01181*%
%ADD66R,0.03189X0.03858*%
%ADD67R,0.03740X0.04055*%
%ADD68R,0.03858X0.03622*%
%ADD69R,0.03425X0.03858*%
%ADD70R,0.05118X0.03937*%
%ADD71O,0.07480X0.01772*%
%ADD72R,0.03543X0.02756*%
%ADD73R,0.07480X0.04331*%
%ADD74R,0.01355X0.05315*%
%ADD75R,0.06299X0.05512*%
%ADD76R,0.07480X0.07480*%
%ADD77R,0.03942X0.05913*%
%ADD78R,0.05906X0.03937*%
%ADD79R,0.03151X0.05514*%
%ADD80R,0.03152X0.05910*%
%ADD81R,0.05913X0.05913*%
%ADD82R,0.05909X0.05909*%
%ADD83R,0.02760X0.06900*%
%ADD84R,0.02759X0.06897*%
%ADD85R,0.02757X0.06892*%
%ADD86R,0.02760X0.06900*%
%ADD87R,0.02759X0.06898*%
%ADD88R,0.02758X0.06896*%
%ADD89R,0.02761X0.06902*%
%ADD90R,0.02757X0.06892*%
%ADD91R,0.03543X0.03150*%
%ADD92R,0.03583X0.04213*%
%ADD93R,0.03543X0.04724*%
%ADD94R,0.03740X0.05315*%
%ADD95R,0.05512X0.06102*%
%ADD96R,0.05118X0.05709*%
%ADD97R,0.04528X0.05709*%
%ADD98R,0.03425X0.03661*%
%ADD99R,0.03858X0.03386*%
%ADD100R,0.03858X0.03189*%
%ADD101R,0.06299X0.13780*%
%ADD102R,0.03197X0.02985*%
%ADD103R,0.02559X0.06004*%
G36*
X624540Y124350D02*
X613540D01*
Y135350D01*
X624540D01*
Y124350D01*
D02*
G37*
G36*
X192059Y42224D02*
X184973D01*
Y49310D01*
X192059D01*
Y42224D01*
D02*
G37*
G36*
X92962Y37745D02*
X88728D01*
Y41980D01*
X92962D01*
Y37745D01*
D02*
G37*
D23*
X303564Y232510D02*
D03*
X295690Y228770D02*
D03*
Y236250D02*
D03*
X278449Y232399D02*
D03*
X270574Y228659D02*
D03*
Y236139D02*
D03*
D24*
X342280Y161396D02*
D03*
X336572D02*
D03*
X377933Y161049D02*
D03*
X372224D02*
D03*
D25*
X371732Y154256D02*
D03*
X377638D02*
D03*
X513000Y101031D02*
D03*
X507094D02*
D03*
Y106372D02*
D03*
X513000D02*
D03*
X513069Y111712D02*
D03*
X507164D02*
D03*
X235340Y24183D02*
D03*
X229434D02*
D03*
X201331Y60777D02*
D03*
X195426D02*
D03*
X342772Y154894D02*
D03*
X336867D02*
D03*
X354727Y164963D02*
D03*
X360632D02*
D03*
X354727Y159671D02*
D03*
X360632D02*
D03*
X424350Y77661D02*
D03*
X430256D02*
D03*
X424350Y71058D02*
D03*
X430256D02*
D03*
X424350Y64865D02*
D03*
X430256D02*
D03*
X386556Y13217D02*
D03*
X392461D02*
D03*
X386556Y20153D02*
D03*
X392461D02*
D03*
X333237Y49251D02*
D03*
X327332D02*
D03*
X235340Y17202D02*
D03*
X229434D02*
D03*
X464600Y71058D02*
D03*
X470506D02*
D03*
X304483Y108913D02*
D03*
X310388D02*
D03*
X195426Y126311D02*
D03*
X201331D02*
D03*
X304483Y136453D02*
D03*
X310388D02*
D03*
D26*
X360337Y154476D02*
D03*
X355022D02*
D03*
X352881Y117411D02*
D03*
X347566D02*
D03*
X352881Y110889D02*
D03*
X347566D02*
D03*
D27*
X327208Y72216D02*
D03*
X333113D02*
D03*
X310553Y31495D02*
D03*
X316459D02*
D03*
X333113Y79331D02*
D03*
X327208D02*
D03*
X310574Y22696D02*
D03*
X316479D02*
D03*
D28*
X218346Y143839D02*
D03*
X220314D02*
D03*
X222283D02*
D03*
X224251D02*
D03*
X226220D02*
D03*
X228188D02*
D03*
X230157D02*
D03*
X232125D02*
D03*
X234094D02*
D03*
X236062D02*
D03*
X238031D02*
D03*
X239999D02*
D03*
X241968D02*
D03*
X243936D02*
D03*
X245905D02*
D03*
X247873D02*
D03*
X249842D02*
D03*
X251810D02*
D03*
X253779D02*
D03*
X255747D02*
D03*
X257716D02*
D03*
X259684D02*
D03*
X261653D02*
D03*
X263621D02*
D03*
X265590D02*
D03*
X267558D02*
D03*
X269527D02*
D03*
X271495D02*
D03*
X273464D02*
D03*
X275432D02*
D03*
X277401D02*
D03*
X279369D02*
D03*
X281338D02*
D03*
X283306D02*
D03*
X285275D02*
D03*
X287243D02*
D03*
Y59239D02*
D03*
X285275D02*
D03*
X283306D02*
D03*
X281338D02*
D03*
X279369D02*
D03*
X277401D02*
D03*
X275432D02*
D03*
X273464D02*
D03*
X271495D02*
D03*
X269527D02*
D03*
X267558D02*
D03*
X265590D02*
D03*
X263621D02*
D03*
X261653D02*
D03*
X259684D02*
D03*
X257716D02*
D03*
X255747D02*
D03*
X253779D02*
D03*
X251810D02*
D03*
X249842D02*
D03*
X247873D02*
D03*
X245905D02*
D03*
X243936D02*
D03*
X241968D02*
D03*
X239999D02*
D03*
X238031D02*
D03*
X236062D02*
D03*
X234094D02*
D03*
X232125D02*
D03*
X230157D02*
D03*
X228188D02*
D03*
X226220D02*
D03*
X224251D02*
D03*
X222283D02*
D03*
X220314D02*
D03*
X218346D02*
D03*
D29*
X295094Y135988D02*
D03*
Y134020D02*
D03*
Y132051D02*
D03*
Y130083D02*
D03*
Y128114D02*
D03*
Y126146D02*
D03*
Y124177D02*
D03*
Y122209D02*
D03*
Y120240D02*
D03*
Y118272D02*
D03*
Y116303D02*
D03*
Y114335D02*
D03*
Y112366D02*
D03*
Y110398D02*
D03*
Y108429D02*
D03*
Y106461D02*
D03*
Y104492D02*
D03*
Y102524D02*
D03*
Y100555D02*
D03*
Y98587D02*
D03*
Y96618D02*
D03*
Y94650D02*
D03*
Y92681D02*
D03*
Y90713D02*
D03*
Y88744D02*
D03*
Y86776D02*
D03*
Y84807D02*
D03*
Y82839D02*
D03*
Y80870D02*
D03*
Y78902D02*
D03*
Y76933D02*
D03*
Y74965D02*
D03*
Y72996D02*
D03*
Y71028D02*
D03*
Y69059D02*
D03*
Y67091D02*
D03*
X210494D02*
D03*
Y69059D02*
D03*
Y71028D02*
D03*
Y72996D02*
D03*
Y74965D02*
D03*
Y76933D02*
D03*
Y78902D02*
D03*
Y80870D02*
D03*
Y82839D02*
D03*
Y84807D02*
D03*
Y86776D02*
D03*
Y88744D02*
D03*
Y90713D02*
D03*
Y92681D02*
D03*
Y94650D02*
D03*
Y96618D02*
D03*
Y98587D02*
D03*
Y100555D02*
D03*
Y102524D02*
D03*
Y104492D02*
D03*
Y106461D02*
D03*
Y108429D02*
D03*
Y110398D02*
D03*
Y112366D02*
D03*
Y114335D02*
D03*
Y116303D02*
D03*
Y118272D02*
D03*
Y120240D02*
D03*
Y122209D02*
D03*
Y124177D02*
D03*
Y126146D02*
D03*
Y128114D02*
D03*
Y130083D02*
D03*
Y132051D02*
D03*
Y134020D02*
D03*
Y135988D02*
D03*
D30*
X266569Y19881D02*
D03*
X281135D02*
D03*
X266569Y28543D02*
D03*
X281135D02*
D03*
D31*
X342343Y146719D02*
D03*
X347343D02*
D03*
X352343D02*
D03*
X357343D02*
D03*
X362343D02*
D03*
X367343D02*
D03*
X372343D02*
D03*
Y127027D02*
D03*
X367343D02*
D03*
X362343D02*
D03*
X357343D02*
D03*
X352343D02*
D03*
X347343D02*
D03*
D32*
X342343D02*
D03*
D33*
X525984Y82991D02*
D03*
Y90865D02*
D03*
Y98739D02*
D03*
Y106614D02*
D03*
Y114488D02*
D03*
Y122362D02*
D03*
Y130236D02*
D03*
Y138110D02*
D03*
D34*
X646488Y65236D02*
D03*
X638614D02*
D03*
X630739D02*
D03*
X622865D02*
D03*
X614992D02*
D03*
X607118D02*
D03*
X599243D02*
D03*
X591369D02*
D03*
X583495D02*
D03*
X575621D02*
D03*
X567747D02*
D03*
X559873D02*
D03*
X551999D02*
D03*
X544125D02*
D03*
X536251D02*
D03*
Y155850D02*
D03*
X544125D02*
D03*
X551999D02*
D03*
X559873D02*
D03*
X567747D02*
D03*
X575621D02*
D03*
X583495D02*
D03*
X591369D02*
D03*
X599243D02*
D03*
X607118D02*
D03*
X614992D02*
D03*
X622865D02*
D03*
X654362Y65267D02*
D03*
X630739Y155850D02*
D03*
D35*
X619322Y129440D02*
D03*
D36*
X654362Y67944D02*
D03*
X646488D02*
D03*
X638614D02*
D03*
X630739D02*
D03*
X622865D02*
D03*
X614992D02*
D03*
X607118D02*
D03*
X599243D02*
D03*
X591369D02*
D03*
X583495D02*
D03*
X575621D02*
D03*
X567747D02*
D03*
X559873D02*
D03*
X551999D02*
D03*
X544125D02*
D03*
X536251D02*
D03*
Y153141D02*
D03*
X544125D02*
D03*
X551999D02*
D03*
X559873D02*
D03*
X567747D02*
D03*
X575621D02*
D03*
X583495D02*
D03*
X591369D02*
D03*
X599243D02*
D03*
X607118D02*
D03*
X614992D02*
D03*
X622865D02*
D03*
X630739D02*
D03*
D37*
X528692Y82991D02*
D03*
Y90865D02*
D03*
Y98739D02*
D03*
Y106614D02*
D03*
Y114488D02*
D03*
Y122362D02*
D03*
Y130236D02*
D03*
Y138110D02*
D03*
D38*
X632402Y168211D02*
D03*
Y173527D02*
D03*
D39*
X507291Y95691D02*
D03*
X512803D02*
D03*
X476809Y100818D02*
D03*
X482321D02*
D03*
Y107009D02*
D03*
X476809D02*
D03*
D40*
X59401Y142479D02*
D03*
D41*
X74401Y113720D02*
D03*
X69401D02*
D03*
X64401D02*
D03*
X59401D02*
D03*
X54401D02*
D03*
X49401D02*
D03*
X44401D02*
D03*
D42*
X326889Y22775D02*
D03*
X332913D02*
D03*
X392894Y27246D02*
D03*
X386871D02*
D03*
X333094Y57986D02*
D03*
X327070D02*
D03*
X333094Y65101D02*
D03*
X327070D02*
D03*
X332923Y31653D02*
D03*
X326899D02*
D03*
D43*
X493623Y102786D02*
D03*
D44*
X488003Y98849D02*
D03*
Y100818D02*
D03*
Y102786D02*
D03*
Y104755D02*
D03*
Y106723D02*
D03*
X499243D02*
D03*
Y104755D02*
D03*
Y102786D02*
D03*
Y100818D02*
D03*
Y98849D02*
D03*
D45*
X489949Y87404D02*
D03*
X498610D02*
D03*
D46*
X150201Y11566D02*
D03*
X145201D02*
D03*
X140201D02*
D03*
X135201D02*
D03*
X130201D02*
D03*
Y-4457D02*
D03*
X135201D02*
D03*
X140201D02*
D03*
X145201D02*
D03*
X150201D02*
D03*
D47*
X63854Y58444D02*
D03*
Y69074D02*
D03*
X31162Y68525D02*
D03*
Y57895D02*
D03*
X74270Y58444D02*
D03*
Y69074D02*
D03*
X33719Y9997D02*
D03*
Y-632D02*
D03*
X334807Y-9351D02*
D03*
Y1279D02*
D03*
X76695Y-802D02*
D03*
Y9828D02*
D03*
X55502Y-802D02*
D03*
Y9828D02*
D03*
X99192Y-802D02*
D03*
Y9828D02*
D03*
X148Y57784D02*
D03*
Y68414D02*
D03*
D48*
X345831Y42322D02*
D03*
Y40354D02*
D03*
Y38385D02*
D03*
Y36417D02*
D03*
Y34448D02*
D03*
Y32480D02*
D03*
Y30511D02*
D03*
Y28543D02*
D03*
Y26574D02*
D03*
Y24606D02*
D03*
Y22637D02*
D03*
Y20669D02*
D03*
X378744D02*
D03*
Y22637D02*
D03*
Y24606D02*
D03*
Y26574D02*
D03*
Y28543D02*
D03*
Y30511D02*
D03*
Y32480D02*
D03*
Y34448D02*
D03*
Y36417D02*
D03*
Y38385D02*
D03*
Y40354D02*
D03*
Y42322D02*
D03*
D49*
X351461Y15039D02*
D03*
X353429D02*
D03*
X355398D02*
D03*
X357366D02*
D03*
X359335D02*
D03*
X361303D02*
D03*
X363272D02*
D03*
X365240D02*
D03*
X367209D02*
D03*
X369177D02*
D03*
X371146D02*
D03*
X373114D02*
D03*
Y47952D02*
D03*
X371146D02*
D03*
X369177D02*
D03*
X367209D02*
D03*
X365240D02*
D03*
X363272D02*
D03*
X361303D02*
D03*
X359335D02*
D03*
X357366D02*
D03*
X355398D02*
D03*
X353429D02*
D03*
X351461D02*
D03*
D50*
X409860Y16535D02*
D03*
X418521D02*
D03*
Y23228D02*
D03*
X409860D02*
D03*
D51*
X413364Y8681D02*
D03*
X419466D02*
D03*
X310239Y41117D02*
D03*
X316341D02*
D03*
X413364Y31809D02*
D03*
X419466D02*
D03*
X310722Y13897D02*
D03*
X316825D02*
D03*
X316341Y49056D02*
D03*
X310239D02*
D03*
D52*
X194136Y42814D02*
D03*
Y44783D02*
D03*
Y46751D02*
D03*
Y48720D02*
D03*
X182896D02*
D03*
Y46751D02*
D03*
Y44783D02*
D03*
Y42814D02*
D03*
D53*
X191469Y51387D02*
D03*
X189500D02*
D03*
X187532D02*
D03*
X185563D02*
D03*
Y40147D02*
D03*
X187532D02*
D03*
X189500D02*
D03*
X191469D02*
D03*
D54*
X188516Y45767D02*
D03*
D55*
X420324Y119038D02*
D03*
X422883D02*
D03*
X425442D02*
D03*
Y125731D02*
D03*
X422883D02*
D03*
X420324D02*
D03*
X432026Y125901D02*
D03*
X434585D02*
D03*
X437144D02*
D03*
Y119208D02*
D03*
X434585D02*
D03*
X432026D02*
D03*
X443728Y125838D02*
D03*
X446287D02*
D03*
X448846D02*
D03*
Y119146D02*
D03*
X446287D02*
D03*
X443728D02*
D03*
X455431Y125838D02*
D03*
X457990D02*
D03*
X460548D02*
D03*
Y119146D02*
D03*
X457990D02*
D03*
X455431D02*
D03*
X467133Y125839D02*
D03*
X469692D02*
D03*
X472251D02*
D03*
Y119146D02*
D03*
X469692D02*
D03*
X467133D02*
D03*
D56*
X70819Y41580D02*
D03*
X60976D02*
D03*
D57*
X90846Y39863D02*
D03*
D58*
X96692Y42816D02*
D03*
Y40847D02*
D03*
Y38879D02*
D03*
Y36910D02*
D03*
X84999D02*
D03*
Y38879D02*
D03*
Y40847D02*
D03*
Y42816D02*
D03*
D59*
X87893Y45710D02*
D03*
X89861D02*
D03*
X91830D02*
D03*
X93798D02*
D03*
Y34017D02*
D03*
X91830D02*
D03*
X89861D02*
D03*
X87893D02*
D03*
D60*
X46947Y58382D02*
D03*
X39467D02*
D03*
Y68619D02*
D03*
X43207D02*
D03*
X46947D02*
D03*
X15694Y58078D02*
D03*
X8214D02*
D03*
Y68314D02*
D03*
X11954D02*
D03*
X15694D02*
D03*
D61*
X36334Y50612D02*
D03*
X46964D02*
D03*
X189914Y108595D02*
D03*
X200544D02*
D03*
X189894Y79067D02*
D03*
X200524D02*
D03*
X200544Y69224D02*
D03*
X189914D02*
D03*
X71325Y22069D02*
D03*
X81955D02*
D03*
X93877Y22069D02*
D03*
X104507D02*
D03*
X48718Y22284D02*
D03*
X59347D02*
D03*
X27297Y22284D02*
D03*
X37927D02*
D03*
X5081Y50612D02*
D03*
X15711D02*
D03*
D62*
X32227Y118076D02*
D03*
Y128122D02*
D03*
D63*
X90846Y71337D02*
D03*
Y56180D02*
D03*
D64*
X627935Y170318D02*
D03*
Y167168D02*
D03*
D65*
X439071Y80901D02*
D03*
Y78932D02*
D03*
Y76964D02*
D03*
Y74995D02*
D03*
Y73027D02*
D03*
Y71058D02*
D03*
Y69090D02*
D03*
Y67121D02*
D03*
X455804Y80901D02*
D03*
Y78932D02*
D03*
Y76964D02*
D03*
Y74995D02*
D03*
Y73027D02*
D03*
Y71058D02*
D03*
Y69090D02*
D03*
Y67121D02*
D03*
D66*
X392843Y41117D02*
D03*
X386772D02*
D03*
D67*
X387048Y6538D02*
D03*
X393253D02*
D03*
X326541Y40629D02*
D03*
X332745D02*
D03*
D68*
X371804Y5858D02*
D03*
Y-244D02*
D03*
X354591Y61825D02*
D03*
Y55723D02*
D03*
X364427Y-244D02*
D03*
Y5858D02*
D03*
X360734Y55723D02*
D03*
Y61825D02*
D03*
D69*
X332893Y13897D02*
D03*
X326752D02*
D03*
D70*
X265000Y-3249D02*
D03*
Y-9548D02*
D03*
X273438Y-3157D02*
D03*
Y-9456D02*
D03*
X281875Y-3249D02*
D03*
Y-9548D02*
D03*
X318290Y-9548D02*
D03*
Y-3249D02*
D03*
X326051Y-9517D02*
D03*
Y-3218D02*
D03*
D71*
X308385Y-11018D02*
D03*
Y-8459D02*
D03*
Y-5900D02*
D03*
Y-3341D02*
D03*
X291456Y-11018D02*
D03*
Y-8459D02*
D03*
Y-5900D02*
D03*
Y-3341D02*
D03*
D72*
X238216Y44010D02*
D03*
Y49916D02*
D03*
X218531Y44010D02*
D03*
Y49916D02*
D03*
X189500Y97768D02*
D03*
Y91862D02*
D03*
X200937Y97768D02*
D03*
Y91862D02*
D03*
X283491Y49704D02*
D03*
Y43798D02*
D03*
X246090Y49916D02*
D03*
Y44010D02*
D03*
X236339Y153183D02*
D03*
Y159089D02*
D03*
X255932Y49916D02*
D03*
Y44010D02*
D03*
X261806Y153183D02*
D03*
Y159089D02*
D03*
D73*
X227225Y38505D02*
D03*
Y48347D02*
D03*
D74*
X231549Y1785D02*
D03*
X234108D02*
D03*
X236667D02*
D03*
X239226D02*
D03*
X241785D02*
D03*
D75*
X224068Y899D02*
D03*
X249265D02*
D03*
D76*
X231942Y-8747D02*
D03*
X241391D02*
D03*
D77*
X208483Y33053D02*
D03*
D78*
X164408Y26753D02*
D03*
D79*
X210058Y23407D02*
D03*
D80*
X163010Y20848D02*
D03*
D81*
X208778Y-9073D02*
D03*
D82*
X163699D02*
D03*
D83*
X168818Y-9566D02*
D03*
D84*
X173148D02*
D03*
D85*
X177479D02*
D03*
D86*
X181810D02*
D03*
D87*
X186140D02*
D03*
D88*
X190471D02*
D03*
D89*
X194802D02*
D03*
D90*
X199132D02*
D03*
D91*
X102542Y32141D02*
D03*
X109235D02*
D03*
D92*
X60169Y50612D02*
D03*
X72807D02*
D03*
D93*
X65897Y87708D02*
D03*
X57630D02*
D03*
D94*
X64619Y97963D02*
D03*
X58714D02*
D03*
D95*
X82403Y87708D02*
D03*
X74923D02*
D03*
D96*
X81350Y97963D02*
D03*
X75051D02*
D03*
D97*
X41828Y97963D02*
D03*
X48718D02*
D03*
D98*
X393032Y34083D02*
D03*
X386890D02*
D03*
D99*
X367047Y61943D02*
D03*
Y55919D02*
D03*
D100*
X374181Y55971D02*
D03*
Y62041D02*
D03*
D101*
X96340Y135272D02*
D03*
Y114012D02*
D03*
D102*
X106782Y44083D02*
D03*
Y39146D02*
D03*
D103*
X438486Y138608D02*
D03*
X443486D02*
D03*
X448486D02*
D03*
X453486D02*
D03*
Y159962D02*
D03*
X448486D02*
D03*
X443486D02*
D03*
X438486D02*
D03*
M02*
