G04*
G04 #@! TF.GenerationSoftware,Altium Limited,Altium Designer,20.0.11 (256)*
G04*
G04 Layer_Physical_Order=4*
G04 Layer_Color=16711680*
%FSLAX25Y25*%
%MOIN*%
G70*
G01*
G75*
%ADD12C,0.00600*%
%ADD17C,0.01000*%
%ADD22C,0.00800*%
%ADD33R,0.05906X0.05906*%
%ADD178C,0.12008*%
%ADD179R,0.06260X0.06260*%
%ADD180C,0.06260*%
%ADD183R,0.09150X0.09150*%
%ADD184C,0.10243*%
%ADD188C,0.03500*%
%ADD192R,0.06142X0.06142*%
%ADD193C,0.06142*%
%ADD194C,0.18012*%
%ADD195C,0.05906*%
%ADD196C,0.02000*%
%ADD197O,0.03543X0.06299*%
%ADD198C,0.29134*%
%ADD199C,0.01987*%
%ADD200C,0.01988*%
G36*
X642209Y288846D02*
X640664Y287899D01*
X638848Y286348D01*
X637298Y284533D01*
X636051Y282498D01*
X635137Y280292D01*
X634580Y277971D01*
X634392Y275590D01*
X634580Y273211D01*
X635137Y270889D01*
X636051Y268684D01*
X637298Y266648D01*
X638848Y264833D01*
X640664Y263282D01*
X642699Y262035D01*
X644905Y261121D01*
X647226Y260564D01*
X649606Y260377D01*
X651986Y260564D01*
X654308Y261121D01*
X656513Y262035D01*
X658549Y263282D01*
X660364Y264833D01*
X661914Y266648D01*
X662162Y267052D01*
X662643Y266916D01*
X662650Y8663D01*
X662169Y8527D01*
X661914Y8942D01*
X660364Y10758D01*
X658549Y12308D01*
X656513Y13556D01*
X654308Y14469D01*
X651986Y15026D01*
X649606Y15214D01*
X647226Y15026D01*
X644905Y14469D01*
X642699Y13556D01*
X640664Y12308D01*
X638848Y10758D01*
X637298Y8942D01*
X636051Y6907D01*
X635137Y4701D01*
X634580Y2380D01*
X634392Y0D01*
X634580Y-2380D01*
X635137Y-4701D01*
X636051Y-6907D01*
X637298Y-8942D01*
X638848Y-10758D01*
X640664Y-12308D01*
X642699Y-13556D01*
X643737Y-13985D01*
X643638Y-14485D01*
X289230Y-14485D01*
X289088Y-14312D01*
X288964Y-13690D01*
X288612Y-13163D01*
X288085Y-12811D01*
X287463Y-12687D01*
X286841Y-12811D01*
X286314Y-13163D01*
X285962Y-13690D01*
X285838Y-14312D01*
X285696Y-14485D01*
X5969Y-14485D01*
X5870Y-13985D01*
X6907Y-13556D01*
X8942Y-12308D01*
X10758Y-10758D01*
X12308Y-8942D01*
X13556Y-6907D01*
X14469Y-4701D01*
X15026Y-2380D01*
X15214Y0D01*
X15026Y2380D01*
X14469Y4701D01*
X13556Y6907D01*
X12308Y8942D01*
X10758Y10758D01*
X8942Y12308D01*
X6907Y13556D01*
X4701Y14469D01*
X2380Y15026D01*
X0Y15214D01*
X-2380Y15026D01*
X-4701Y14469D01*
X-6907Y13556D01*
X-8942Y12308D01*
X-10758Y10758D01*
X-12308Y8942D01*
X-13082Y7680D01*
X-13582Y7821D01*
X-13582Y267769D01*
X-13082Y267910D01*
X-12308Y266648D01*
X-10758Y264833D01*
X-8942Y263282D01*
X-6907Y262035D01*
X-4701Y261121D01*
X-2380Y260564D01*
X0Y260377D01*
X2380Y260564D01*
X4701Y261121D01*
X6907Y262035D01*
X8942Y263282D01*
X10758Y264833D01*
X12308Y266648D01*
X13556Y268684D01*
X14469Y270889D01*
X15026Y273211D01*
X15214Y275590D01*
X15026Y277971D01*
X14469Y280292D01*
X13556Y282498D01*
X12308Y284533D01*
X10758Y286348D01*
X8942Y287899D01*
X7397Y288846D01*
X7538Y289346D01*
X642068D01*
X642209Y288846D01*
D02*
G37*
%LPC*%
G36*
X399982Y277137D02*
X398903Y276995D01*
X397899Y276579D01*
X397535Y276300D01*
X395539D01*
X394678Y276187D01*
X394588Y276150D01*
X394498Y276187D01*
X393636Y276300D01*
X391641D01*
X391277Y276579D01*
X390272Y276995D01*
X389194Y277137D01*
X388116Y276995D01*
X387111Y276579D01*
X386249Y275917D01*
X385587Y275055D01*
X385171Y274050D01*
X385029Y272972D01*
X385132Y272188D01*
X384756Y271688D01*
X371108D01*
X370247Y271575D01*
X369777Y271380D01*
X369444Y271242D01*
X368755Y270713D01*
X364491Y266449D01*
X363962Y265760D01*
X363824Y265428D01*
X363629Y264957D01*
X363516Y264096D01*
Y201425D01*
X363016Y201091D01*
X362443Y201328D01*
X361485Y201454D01*
X360526Y201328D01*
X359633Y200958D01*
X358867Y200370D01*
X358278Y199603D01*
X357908Y198710D01*
X357782Y197752D01*
X357908Y196793D01*
X358278Y195900D01*
X358867Y195133D01*
X359633Y194545D01*
X360526Y194175D01*
X361485Y194049D01*
X362443Y194175D01*
X362622Y194249D01*
X362905Y193825D01*
X354126Y185046D01*
X353597Y184357D01*
X353459Y184024D01*
X353264Y183554D01*
X353151Y182692D01*
Y170679D01*
X353238Y170020D01*
X353149Y169887D01*
X353025Y169265D01*
X353149Y168643D01*
X353238Y168510D01*
X353151Y167850D01*
Y162155D01*
X351383Y160387D01*
X350855Y159698D01*
X350717Y159365D01*
X350522Y158895D01*
X350411Y158050D01*
X350294Y157897D01*
X350272Y157846D01*
X350221D01*
X349360Y157733D01*
X348557Y157400D01*
X347868Y156871D01*
X332454Y141458D01*
X331992Y141649D01*
Y188394D01*
X338118Y194520D01*
X338952Y194175D01*
X339910Y194049D01*
X340868Y194175D01*
X341761Y194545D01*
X342528Y195133D01*
X343116Y195900D01*
X343486Y196793D01*
X343613Y197752D01*
X343486Y198710D01*
X343116Y199603D01*
X342528Y200370D01*
X341761Y200958D01*
X340868Y201328D01*
X339910Y201454D01*
X338952Y201328D01*
X338059Y200958D01*
X337292Y200370D01*
X336703Y199603D01*
X336334Y198710D01*
X336208Y197752D01*
X336334Y196793D01*
X336679Y195960D01*
X330254Y189535D01*
X330033Y189205D01*
X329956Y188815D01*
Y128536D01*
X329896Y128487D01*
X329274Y128363D01*
X328747Y128011D01*
X328395Y127483D01*
X328271Y126862D01*
X328395Y126240D01*
X328747Y125713D01*
X329274Y125360D01*
X329896Y125237D01*
X329998Y125153D01*
Y82875D01*
X325476Y78353D01*
X324645Y78462D01*
X324270D01*
X323408Y78349D01*
X322605Y78016D01*
X321916Y77487D01*
X321387Y76798D01*
X321054Y75995D01*
X320941Y75134D01*
X321054Y74272D01*
X321205Y73909D01*
X321129Y73810D01*
X320797Y73008D01*
X320684Y72146D01*
X320797Y71285D01*
X321129Y70482D01*
X321658Y69792D01*
X322348Y69264D01*
X323150Y68931D01*
X324012Y68818D01*
X324387D01*
X325249Y68931D01*
X325719Y69126D01*
X326052Y69264D01*
X326386Y69520D01*
X326909D01*
X327770Y69634D01*
X328240Y69829D01*
X328573Y69966D01*
X329262Y70495D01*
X330317Y71550D01*
X330846Y72239D01*
X331109Y72874D01*
X334610Y76375D01*
X335215Y76273D01*
X335405Y75988D01*
X335536Y75900D01*
Y39757D01*
X335405Y39669D01*
X335053Y39142D01*
X334929Y38520D01*
X335053Y37898D01*
X335405Y37371D01*
X335536Y37284D01*
Y17726D01*
X335614Y17336D01*
X335835Y17006D01*
X342765Y10075D01*
X343096Y9854D01*
X343485Y9777D01*
X343485Y9777D01*
X343932D01*
X349918Y3791D01*
X349887Y3637D01*
X350011Y3015D01*
X350363Y2488D01*
X350890Y2136D01*
X351512Y2012D01*
X352134Y2136D01*
X352661Y2488D01*
X353013Y3015D01*
X353137Y3637D01*
X353013Y4259D01*
X352661Y4786D01*
X352134Y5138D01*
X351512Y5262D01*
X351358Y5231D01*
X345074Y11515D01*
X344744Y11735D01*
X344354Y11813D01*
X343907D01*
X337572Y18147D01*
Y37284D01*
X337703Y37371D01*
X338056Y37898D01*
X338179Y38520D01*
X338056Y39142D01*
X337703Y39669D01*
X337572Y39757D01*
Y75900D01*
X337703Y75988D01*
X338056Y76515D01*
X338179Y77137D01*
X338056Y77759D01*
X337703Y78286D01*
X337393Y78493D01*
X337228Y79099D01*
X337409Y79335D01*
X337742Y80138D01*
X337855Y80999D01*
Y135748D01*
X352097Y149989D01*
X352330D01*
X353191Y150103D01*
X353661Y150298D01*
X353994Y150435D01*
X354683Y150964D01*
X356730Y153011D01*
X357259Y153700D01*
X357440Y154139D01*
X357820Y154633D01*
X358152Y155436D01*
X358244Y156137D01*
X360033Y157925D01*
X360562Y158615D01*
X360894Y159417D01*
X361008Y160279D01*
Y166129D01*
X361026Y166154D01*
X361164Y166486D01*
X361359Y166956D01*
X361472Y167818D01*
Y169448D01*
X361586Y169524D01*
X361939Y170051D01*
X362062Y170673D01*
X361939Y171295D01*
X361586Y171822D01*
X361129Y172127D01*
X361026Y172376D01*
X361008Y172400D01*
Y180817D01*
X370398Y190207D01*
X370927Y190896D01*
X371065Y191229D01*
X371259Y191699D01*
X371373Y192560D01*
Y262220D01*
X372984Y263831D01*
X380071D01*
Y258061D01*
X385655D01*
X385811Y257827D01*
X398967Y244671D01*
Y206222D01*
X398467Y206147D01*
X398198Y207036D01*
X397306Y208705D01*
X396105Y210167D01*
X394643Y211368D01*
X392974Y212260D01*
X391163Y212809D01*
X389280Y212994D01*
X387397Y212809D01*
X385586Y212260D01*
X383917Y211368D01*
X382455Y210167D01*
X381254Y208705D01*
X380362Y207036D01*
X379813Y205225D01*
X379628Y203342D01*
X379813Y201459D01*
X380362Y199648D01*
X381254Y197979D01*
X382455Y196517D01*
X383917Y195316D01*
X385586Y194424D01*
X387397Y193875D01*
X389280Y193690D01*
X391163Y193875D01*
X392974Y194424D01*
X394643Y195316D01*
X396105Y196517D01*
X397306Y197979D01*
X398198Y199648D01*
X398467Y200537D01*
X398967Y200462D01*
Y65053D01*
X391679Y57765D01*
X391458Y57434D01*
X391381Y57045D01*
Y55418D01*
X391138Y55216D01*
X390638Y55443D01*
Y67052D01*
X393669Y70083D01*
X393889Y70413D01*
X393967Y70803D01*
Y81158D01*
X393889Y81548D01*
X393669Y81878D01*
X387744Y87802D01*
X387775Y87957D01*
X387652Y88578D01*
X387299Y89105D01*
X386772Y89458D01*
X386150Y89581D01*
X385528Y89458D01*
X385001Y89105D01*
X384649Y88578D01*
X384525Y87957D01*
X384649Y87335D01*
X385001Y86808D01*
X385528Y86455D01*
X386150Y86332D01*
X386305Y86362D01*
X391931Y80736D01*
Y71225D01*
X388900Y68194D01*
X388679Y67863D01*
X388602Y67474D01*
Y54400D01*
X386092Y51891D01*
X385872Y51560D01*
X385794Y51171D01*
Y45879D01*
X385663Y45791D01*
X385311Y45264D01*
X385187Y44642D01*
X385311Y44020D01*
X385663Y43493D01*
X386190Y43141D01*
X386812Y43017D01*
X387434Y43141D01*
X387961Y43493D01*
X388313Y44020D01*
X388437Y44642D01*
X388313Y45264D01*
X387961Y45791D01*
X387830Y45879D01*
Y50749D01*
X390340Y53259D01*
X390401Y53351D01*
X390567Y53373D01*
X390972Y53305D01*
X391250Y52890D01*
X391777Y52537D01*
X392399Y52414D01*
X393021Y52537D01*
X393548Y52890D01*
X393900Y53417D01*
X394024Y54039D01*
X393900Y54660D01*
X393548Y55188D01*
X393417Y55275D01*
Y56623D01*
X400422Y63628D01*
X400922Y63421D01*
Y56582D01*
X399296Y54957D01*
X399168Y54973D01*
X398307Y54860D01*
X397504Y54527D01*
X396815Y53999D01*
X396286Y53309D01*
X395953Y52506D01*
X395840Y51645D01*
X395953Y50783D01*
X396286Y49981D01*
X396815Y49291D01*
X396837Y49269D01*
X397527Y48740D01*
X398329Y48407D01*
X399191Y48294D01*
X399407D01*
X399855Y47709D01*
X400121Y47443D01*
X400810Y46914D01*
X401613Y46582D01*
X402475Y46468D01*
X403336Y46582D01*
X403994Y46854D01*
X404408Y46742D01*
X404587Y46628D01*
X404885Y46181D01*
X405412Y45829D01*
X406034Y45705D01*
X406656Y45829D01*
X407183Y46181D01*
X407535Y46708D01*
X407659Y47330D01*
X407535Y47952D01*
X407183Y48479D01*
X407052Y48567D01*
Y51160D01*
X407204Y51265D01*
X407655Y50969D01*
X407651Y50950D01*
X407775Y50328D01*
X408127Y49801D01*
X408654Y49449D01*
X409276Y49325D01*
X409898Y49449D01*
X410425Y49801D01*
X410777Y50328D01*
X410901Y50950D01*
X410870Y51105D01*
X425070Y65305D01*
X425291Y65635D01*
X425368Y66024D01*
Y257400D01*
X426108Y258140D01*
X426950Y258029D01*
X427924Y258157D01*
X428831Y258533D01*
X429610Y259131D01*
X430208Y259910D01*
X430584Y260817D01*
X430712Y261791D01*
X430584Y262765D01*
X430208Y263672D01*
X429610Y264451D01*
X428831Y265049D01*
X427924Y265425D01*
X426950Y265553D01*
X425977Y265425D01*
X425069Y265049D01*
X424290Y264451D01*
X423692Y263672D01*
X423316Y262765D01*
X423188Y261791D01*
X423316Y260817D01*
X423692Y259910D01*
X424259Y259170D01*
X423630Y258541D01*
X423410Y258211D01*
X423332Y257822D01*
Y110942D01*
X422832Y110893D01*
X422774Y111185D01*
X422422Y111712D01*
X421895Y112064D01*
X421273Y112188D01*
X420651Y112064D01*
X420124Y111712D01*
X419772Y111185D01*
X419648Y110563D01*
X419772Y109941D01*
X420124Y109414D01*
X420651Y109062D01*
X421273Y108938D01*
X421895Y109062D01*
X422422Y109414D01*
X422774Y109941D01*
X422832Y110233D01*
X423332Y110184D01*
Y66446D01*
X409431Y52544D01*
X409276Y52575D01*
X408864Y52493D01*
X408617Y52954D01*
X415885Y60222D01*
X416106Y60552D01*
X416183Y60941D01*
Y258031D01*
X417136Y258157D01*
X418044Y258533D01*
X418823Y259131D01*
X419421Y259910D01*
X419797Y260817D01*
X419925Y261791D01*
X419797Y262765D01*
X419421Y263672D01*
X418823Y264451D01*
X418044Y265049D01*
X417136Y265425D01*
X416163Y265553D01*
X415189Y265425D01*
X414282Y265049D01*
X413503Y264451D01*
X412905Y263672D01*
X412529Y262765D01*
X412401Y261791D01*
X412529Y260817D01*
X412905Y259910D01*
X413503Y259131D01*
X414147Y258636D01*
Y249626D01*
X413647Y249593D01*
X413550Y250335D01*
X413217Y251137D01*
X412688Y251827D01*
X406980Y257535D01*
X407077Y258026D01*
X407458Y258183D01*
X408321Y258845D01*
X408983Y259708D01*
X409399Y260713D01*
X409541Y261791D01*
X409399Y262869D01*
X408983Y263874D01*
X408321Y264736D01*
X407458Y265398D01*
X406454Y265814D01*
X405375Y265956D01*
X404297Y265814D01*
X403293Y265398D01*
X402929Y265119D01*
X400933D01*
X400072Y265006D01*
X399982Y264969D01*
X399892Y265006D01*
X399030Y265119D01*
X397034D01*
X396671Y265398D01*
X395666Y265814D01*
X394943Y265910D01*
X394763Y266438D01*
X397541Y269216D01*
X397746Y269482D01*
X397899Y269364D01*
X398903Y268948D01*
X399982Y268806D01*
X401060Y268948D01*
X402064Y269364D01*
X402927Y270026D01*
X403589Y270889D01*
X404005Y271894D01*
X404147Y272972D01*
X404005Y274050D01*
X403589Y275055D01*
X402927Y275917D01*
X402064Y276579D01*
X401060Y276995D01*
X399982Y277137D01*
D02*
G37*
G36*
X555047Y276863D02*
X554073Y276735D01*
X553166Y276359D01*
X552387Y275761D01*
X551789Y274982D01*
X551413Y274075D01*
X551285Y273101D01*
X551413Y272127D01*
X551576Y271733D01*
X551232Y271389D01*
X550395D01*
X550006Y271312D01*
X549675Y271091D01*
X548078Y269494D01*
X547578Y269701D01*
Y269744D01*
X547500Y270134D01*
X547280Y270464D01*
X547086Y270658D01*
X547517Y271220D01*
X547893Y272127D01*
X548022Y273101D01*
X547893Y274075D01*
X547517Y274982D01*
X546920Y275761D01*
X546140Y276359D01*
X545233Y276735D01*
X544259Y276863D01*
X543286Y276735D01*
X542378Y276359D01*
X541599Y275761D01*
X541001Y274982D01*
X540625Y274075D01*
X540497Y273101D01*
X540625Y272127D01*
X541001Y271220D01*
X541599Y270441D01*
X542378Y269843D01*
X543286Y269467D01*
X544259Y269339D01*
X544733Y269401D01*
X544967Y268928D01*
X544438Y268399D01*
X544438Y268399D01*
X493102Y217063D01*
X492881Y216732D01*
X492803Y216343D01*
Y99177D01*
X492281Y98654D01*
X466493D01*
X466103Y98577D01*
X465773Y98356D01*
X456875Y89458D01*
X448645D01*
X448255Y89380D01*
X447925Y89160D01*
X439235Y80470D01*
X434742D01*
X434655Y80601D01*
X434127Y80953D01*
X433506Y81077D01*
X432884Y80953D01*
X432357Y80601D01*
X432004Y80074D01*
X431881Y79452D01*
X432004Y78830D01*
X432357Y78303D01*
X432283Y77750D01*
X432079Y77613D01*
X431726Y77086D01*
X431602Y76464D01*
X431726Y75843D01*
X432079Y75315D01*
X432606Y74963D01*
X433227Y74840D01*
X433849Y74963D01*
X434376Y75315D01*
X434464Y75446D01*
X439552D01*
X439941Y75524D01*
X440272Y75745D01*
X445452Y80924D01*
X445994Y80760D01*
X446054Y80461D01*
X446406Y79933D01*
X446933Y79581D01*
X447555Y79457D01*
X448177Y79581D01*
X448704Y79933D01*
X449056Y80461D01*
X449180Y81082D01*
X449056Y81704D01*
X448704Y82231D01*
X448177Y82583D01*
X447877Y82643D01*
X447713Y83186D01*
X448801Y84274D01*
X448853Y84271D01*
X449311Y84077D01*
X449401Y83624D01*
X449753Y83097D01*
X449884Y83010D01*
Y77777D01*
X448690Y76583D01*
X448536Y76614D01*
X447914Y76491D01*
X447387Y76138D01*
X447035Y75611D01*
X446911Y74989D01*
X447035Y74367D01*
X447387Y73840D01*
X447914Y73488D01*
X448536Y73364D01*
X449158Y73488D01*
X449685Y73840D01*
X450037Y74367D01*
X450161Y74989D01*
X450130Y75144D01*
X451622Y76636D01*
X451842Y76966D01*
X451920Y77355D01*
Y83010D01*
X452051Y83097D01*
X452403Y83624D01*
X452527Y84246D01*
X452403Y84868D01*
X452234Y85122D01*
X452501Y85622D01*
X458042D01*
X458431Y85699D01*
X458762Y85920D01*
X467660Y94818D01*
X477579D01*
X477847Y94318D01*
X477677Y94064D01*
X477553Y93443D01*
X477677Y92821D01*
X478029Y92294D01*
X478556Y91941D01*
X479178Y91818D01*
X479800Y91941D01*
X480327Y92294D01*
X480680Y92821D01*
X480803Y93443D01*
X480680Y94064D01*
X480510Y94318D01*
X480777Y94818D01*
X493448D01*
X493838Y94896D01*
X494168Y95117D01*
X496341Y97290D01*
X496562Y97620D01*
X496639Y98009D01*
X496639Y98009D01*
Y215176D01*
X547678Y266214D01*
X547678Y266214D01*
X550817Y269353D01*
X551653D01*
X552043Y269431D01*
X552373Y269651D01*
X552826Y270104D01*
X553166Y269843D01*
X554073Y269467D01*
X555047Y269339D01*
X556020Y269467D01*
X556928Y269843D01*
X557707Y270441D01*
X558305Y271220D01*
X558681Y272127D01*
X558809Y273101D01*
X558681Y274075D01*
X558305Y274982D01*
X557707Y275761D01*
X556928Y276359D01*
X556020Y276735D01*
X555047Y276863D01*
D02*
G37*
G36*
X591139Y276831D02*
X583679D01*
Y269371D01*
X591139D01*
Y276831D01*
D02*
G37*
G36*
X576622Y276863D02*
X575648Y276735D01*
X574741Y276359D01*
X573961Y275761D01*
X573363Y274982D01*
X572988Y274075D01*
X572859Y273101D01*
X572988Y272127D01*
X573363Y271220D01*
X573961Y270441D01*
X574741Y269843D01*
X575648Y269467D01*
X576622Y269339D01*
X577595Y269467D01*
X578503Y269843D01*
X579282Y270441D01*
X579880Y271220D01*
X580256Y272127D01*
X580384Y273101D01*
X580256Y274075D01*
X579880Y274982D01*
X579282Y275761D01*
X578503Y276359D01*
X577595Y276735D01*
X576622Y276863D01*
D02*
G37*
G36*
X565834D02*
X564860Y276735D01*
X563953Y276359D01*
X563174Y275761D01*
X562576Y274982D01*
X562200Y274075D01*
X562072Y273101D01*
X562200Y272127D01*
X562576Y271220D01*
X563174Y270441D01*
X563953Y269843D01*
X564860Y269467D01*
X565834Y269339D01*
X566808Y269467D01*
X567715Y269843D01*
X568494Y270441D01*
X569092Y271220D01*
X569468Y272127D01*
X569596Y273101D01*
X569468Y274075D01*
X569092Y274982D01*
X568494Y275761D01*
X567715Y276359D01*
X566808Y276735D01*
X565834Y276863D01*
D02*
G37*
G36*
X421556Y276734D02*
X420583Y276606D01*
X419675Y276230D01*
X418896Y275632D01*
X418298Y274853D01*
X417922Y273945D01*
X417794Y272972D01*
X417922Y271998D01*
X418298Y271091D01*
X418896Y270312D01*
X419675Y269714D01*
X420583Y269338D01*
X421556Y269210D01*
X422530Y269338D01*
X423438Y269714D01*
X424217Y270312D01*
X424815Y271091D01*
X425190Y271998D01*
X425318Y272972D01*
X425190Y273945D01*
X424815Y274853D01*
X424217Y275632D01*
X423438Y276230D01*
X422530Y276606D01*
X421556Y276734D01*
D02*
G37*
G36*
X410769D02*
X409795Y276606D01*
X408888Y276230D01*
X408109Y275632D01*
X407511Y274853D01*
X407135Y273945D01*
X407007Y272972D01*
X407135Y271998D01*
X407511Y271091D01*
X408109Y270312D01*
X408888Y269714D01*
X409795Y269338D01*
X410769Y269210D01*
X411743Y269338D01*
X412650Y269714D01*
X413429Y270312D01*
X414027Y271091D01*
X414403Y271998D01*
X414531Y272972D01*
X414403Y273945D01*
X414027Y274853D01*
X413429Y275632D01*
X412650Y276230D01*
X411743Y276606D01*
X410769Y276734D01*
D02*
G37*
G36*
X228781D02*
X227807Y276606D01*
X226900Y276230D01*
X226121Y275632D01*
X225523Y274853D01*
X225147Y273945D01*
X225019Y272972D01*
X225147Y271998D01*
X225523Y271091D01*
X226121Y270312D01*
X226900Y269714D01*
X227807Y269338D01*
X228781Y269210D01*
X229755Y269338D01*
X230662Y269714D01*
X231441Y270312D01*
X232039Y271091D01*
X232415Y271998D01*
X232543Y272972D01*
X232415Y273945D01*
X232039Y274853D01*
X231441Y275632D01*
X230662Y276230D01*
X229755Y276606D01*
X228781Y276734D01*
D02*
G37*
G36*
X84562Y276582D02*
X83588Y276453D01*
X82681Y276078D01*
X81902Y275480D01*
X81304Y274700D01*
X80928Y273793D01*
X80800Y272819D01*
X80928Y271846D01*
X81304Y270938D01*
X81902Y270159D01*
X82681Y269561D01*
X83588Y269185D01*
X84562Y269057D01*
X85536Y269185D01*
X86443Y269561D01*
X87222Y270159D01*
X87820Y270938D01*
X88196Y271846D01*
X88324Y272819D01*
X88196Y273793D01*
X87820Y274700D01*
X87222Y275480D01*
X86443Y276078D01*
X85536Y276453D01*
X84562Y276582D01*
D02*
G37*
G36*
X73775D02*
X72801Y276453D01*
X71894Y276078D01*
X71114Y275480D01*
X70517Y274700D01*
X70141Y273793D01*
X70012Y272819D01*
X70141Y271846D01*
X70517Y270938D01*
X71114Y270159D01*
X71894Y269561D01*
X72801Y269185D01*
X73775Y269057D01*
X74748Y269185D01*
X75656Y269561D01*
X76435Y270159D01*
X77033Y270938D01*
X77408Y271846D01*
X77537Y272819D01*
X77408Y273793D01*
X77033Y274700D01*
X76435Y275480D01*
X75656Y276078D01*
X74748Y276453D01*
X73775Y276582D01*
D02*
G37*
G36*
X62987D02*
X62014Y276453D01*
X61106Y276078D01*
X60327Y275480D01*
X59729Y274700D01*
X59353Y273793D01*
X59225Y272819D01*
X59353Y271846D01*
X59729Y270938D01*
X60327Y270159D01*
X61106Y269561D01*
X62014Y269185D01*
X62987Y269057D01*
X63961Y269185D01*
X64868Y269561D01*
X65647Y270159D01*
X66245Y270938D01*
X66621Y271846D01*
X66749Y272819D01*
X66621Y273793D01*
X66245Y274700D01*
X65647Y275480D01*
X64868Y276078D01*
X63961Y276453D01*
X62987Y276582D01*
D02*
G37*
G36*
X261143Y277137D02*
X260065Y276995D01*
X259061Y276579D01*
X258198Y275917D01*
X257536Y275055D01*
X257120Y274050D01*
X256978Y272972D01*
X257120Y271894D01*
X257536Y270889D01*
X258198Y270026D01*
X259061Y269364D01*
X260065Y268948D01*
X261143Y268806D01*
X262222Y268948D01*
X263226Y269364D01*
X264089Y270026D01*
X264751Y270889D01*
X265167Y271894D01*
X265309Y272972D01*
X265167Y274050D01*
X264751Y275055D01*
X264089Y275917D01*
X263226Y276579D01*
X262222Y276995D01*
X261143Y277137D01*
D02*
G37*
G36*
X250356D02*
X249278Y276995D01*
X248273Y276579D01*
X247410Y275917D01*
X246748Y275055D01*
X246332Y274050D01*
X246190Y272972D01*
X246332Y271894D01*
X246748Y270889D01*
X247410Y270026D01*
X248273Y269364D01*
X249278Y268948D01*
X250356Y268806D01*
X251434Y268948D01*
X252439Y269364D01*
X253302Y270026D01*
X253963Y270889D01*
X254380Y271894D01*
X254522Y272972D01*
X254380Y274050D01*
X253963Y275055D01*
X253302Y275917D01*
X252439Y276579D01*
X251434Y276995D01*
X250356Y277137D01*
D02*
G37*
G36*
X615007Y274147D02*
X613713Y274019D01*
X612468Y273641D01*
X611321Y273028D01*
X610315Y272203D01*
X609490Y271197D01*
X608877Y270050D01*
X608499Y268805D01*
X608371Y267511D01*
X608499Y266216D01*
X608877Y264971D01*
X609490Y263824D01*
X610315Y262818D01*
X611321Y261993D01*
X612468Y261380D01*
X613713Y261002D01*
X615007Y260875D01*
X616302Y261002D01*
X617547Y261380D01*
X618694Y261993D01*
X619700Y262818D01*
X620525Y263824D01*
X621138Y264971D01*
X621516Y266216D01*
X621643Y267511D01*
X621516Y268805D01*
X621138Y270050D01*
X620525Y271197D01*
X619700Y272203D01*
X618694Y273028D01*
X617547Y273641D01*
X616302Y274019D01*
X615007Y274147D01*
D02*
G37*
G36*
X516622D02*
X515327Y274019D01*
X514082Y273641D01*
X512935Y273028D01*
X511929Y272203D01*
X511104Y271197D01*
X510491Y270050D01*
X510113Y268805D01*
X509986Y267511D01*
X510113Y266216D01*
X510491Y264971D01*
X511104Y263824D01*
X511929Y262818D01*
X512935Y261993D01*
X514082Y261380D01*
X515327Y261002D01*
X516622Y260875D01*
X517916Y261002D01*
X519161Y261380D01*
X520308Y261993D01*
X521314Y262818D01*
X522139Y263824D01*
X522752Y264971D01*
X523130Y266216D01*
X523257Y267511D01*
X523130Y268805D01*
X522752Y270050D01*
X522139Y271197D01*
X521314Y272203D01*
X520308Y273028D01*
X519161Y273641D01*
X517916Y274019D01*
X516622Y274147D01*
D02*
G37*
G36*
X454588Y274017D02*
X453293Y273890D01*
X452049Y273512D01*
X450901Y272899D01*
X449896Y272074D01*
X449071Y271068D01*
X448457Y269921D01*
X448080Y268676D01*
X447952Y267381D01*
X448080Y266087D01*
X448457Y264842D01*
X449071Y263695D01*
X449896Y262689D01*
X450901Y261864D01*
X452049Y261251D01*
X453293Y260873D01*
X454588Y260746D01*
X455883Y260873D01*
X457127Y261251D01*
X458275Y261864D01*
X459280Y262689D01*
X460106Y263695D01*
X460719Y264842D01*
X461096Y266087D01*
X461224Y267381D01*
X461096Y268676D01*
X460719Y269921D01*
X460106Y271068D01*
X459280Y272074D01*
X458275Y272899D01*
X457127Y273512D01*
X455883Y273890D01*
X454588Y274017D01*
D02*
G37*
G36*
X356202D02*
X354908Y273890D01*
X353663Y273512D01*
X352516Y272899D01*
X351510Y272074D01*
X350685Y271068D01*
X350072Y269921D01*
X349694Y268676D01*
X349566Y267381D01*
X349694Y266087D01*
X350072Y264842D01*
X350685Y263695D01*
X351510Y262689D01*
X352516Y261864D01*
X353663Y261251D01*
X354908Y260873D01*
X356202Y260746D01*
X357497Y260873D01*
X358742Y261251D01*
X359889Y261864D01*
X360894Y262689D01*
X361720Y263695D01*
X362333Y264842D01*
X362711Y266087D01*
X362838Y267381D01*
X362711Y268676D01*
X362333Y269921D01*
X361720Y271068D01*
X360894Y272074D01*
X359889Y272899D01*
X358742Y273512D01*
X357497Y273890D01*
X356202Y274017D01*
D02*
G37*
G36*
X294175D02*
X292880Y273890D01*
X291635Y273512D01*
X290488Y272899D01*
X289482Y272074D01*
X288657Y271068D01*
X288044Y269921D01*
X287666Y268676D01*
X287539Y267381D01*
X287666Y266087D01*
X288044Y264842D01*
X288657Y263695D01*
X289482Y262689D01*
X290488Y261864D01*
X291635Y261251D01*
X292880Y260873D01*
X294175Y260746D01*
X295469Y260873D01*
X296714Y261251D01*
X297862Y261864D01*
X298867Y262689D01*
X299692Y263695D01*
X300306Y264842D01*
X300683Y266087D01*
X300811Y267381D01*
X300683Y268676D01*
X300306Y269921D01*
X299692Y271068D01*
X298867Y272074D01*
X297862Y272899D01*
X296714Y273512D01*
X295469Y273890D01*
X294175Y274017D01*
D02*
G37*
G36*
X195789D02*
X194494Y273890D01*
X193250Y273512D01*
X192102Y272899D01*
X191097Y272074D01*
X190271Y271068D01*
X189658Y269921D01*
X189281Y268676D01*
X189153Y267381D01*
X189281Y266087D01*
X189658Y264842D01*
X190271Y263695D01*
X191097Y262689D01*
X192102Y261864D01*
X193250Y261251D01*
X194494Y260873D01*
X195789Y260746D01*
X197084Y260873D01*
X198328Y261251D01*
X199476Y261864D01*
X200481Y262689D01*
X201307Y263695D01*
X201920Y264842D01*
X202297Y266087D01*
X202425Y267381D01*
X202297Y268676D01*
X201920Y269921D01*
X201307Y271068D01*
X200481Y272074D01*
X199476Y272899D01*
X198328Y273512D01*
X197084Y273890D01*
X195789Y274017D01*
D02*
G37*
G36*
X133735Y273865D02*
X132441Y273737D01*
X131196Y273359D01*
X130049Y272746D01*
X129043Y271921D01*
X128218Y270916D01*
X127605Y269768D01*
X127227Y268523D01*
X127100Y267229D01*
X127227Y265934D01*
X127605Y264689D01*
X128218Y263542D01*
X129043Y262537D01*
X130049Y261711D01*
X131196Y261098D01*
X132441Y260720D01*
X133735Y260593D01*
X135030Y260720D01*
X136275Y261098D01*
X137422Y261711D01*
X138428Y262537D01*
X139253Y263542D01*
X139866Y264689D01*
X140244Y265934D01*
X140371Y267229D01*
X140244Y268523D01*
X139866Y269768D01*
X139253Y270916D01*
X138428Y271921D01*
X137422Y272746D01*
X136275Y273359D01*
X135030Y273737D01*
X133735Y273865D01*
D02*
G37*
G36*
X35350D02*
X34055Y273737D01*
X32810Y273359D01*
X31663Y272746D01*
X30657Y271921D01*
X29832Y270916D01*
X29219Y269768D01*
X28841Y268523D01*
X28714Y267229D01*
X28841Y265934D01*
X29219Y264689D01*
X29832Y263542D01*
X30657Y262537D01*
X31663Y261711D01*
X32810Y261098D01*
X34055Y260720D01*
X35350Y260593D01*
X36644Y260720D01*
X37889Y261098D01*
X39036Y261711D01*
X40042Y262537D01*
X40867Y263542D01*
X41480Y264689D01*
X41858Y265934D01*
X41985Y267229D01*
X41858Y268523D01*
X41480Y269768D01*
X40867Y270916D01*
X40042Y271921D01*
X39036Y272746D01*
X37889Y273359D01*
X36644Y273737D01*
X35350Y273865D01*
D02*
G37*
G36*
X582015Y265682D02*
X581041Y265554D01*
X580134Y265178D01*
X579355Y264580D01*
X578757Y263801D01*
X578381Y262894D01*
X578253Y261920D01*
X578381Y260946D01*
X578757Y260039D01*
X579355Y259260D01*
X580134Y258662D01*
X581041Y258286D01*
X582015Y258158D01*
X582989Y258286D01*
X583896Y258662D01*
X584675Y259260D01*
X585273Y260039D01*
X585649Y260946D01*
X585777Y261920D01*
X585649Y262894D01*
X585273Y263801D01*
X584675Y264580D01*
X583896Y265178D01*
X582989Y265554D01*
X582015Y265682D01*
D02*
G37*
G36*
X571228D02*
X570254Y265554D01*
X569347Y265178D01*
X568568Y264580D01*
X567970Y263801D01*
X567594Y262894D01*
X567466Y261920D01*
X567594Y260946D01*
X567970Y260039D01*
X568568Y259260D01*
X569347Y258662D01*
X570254Y258286D01*
X571228Y258158D01*
X572201Y258286D01*
X573109Y258662D01*
X573888Y259260D01*
X574486Y260039D01*
X574862Y260946D01*
X574990Y261920D01*
X574862Y262894D01*
X574486Y263801D01*
X573888Y264580D01*
X573109Y265178D01*
X572201Y265554D01*
X571228Y265682D01*
D02*
G37*
G36*
X560440D02*
X559467Y265554D01*
X558559Y265178D01*
X557780Y264580D01*
X557182Y263801D01*
X556807Y262894D01*
X556678Y261920D01*
X556807Y260946D01*
X557182Y260039D01*
X557780Y259260D01*
X558559Y258662D01*
X559467Y258286D01*
X560440Y258158D01*
X561414Y258286D01*
X562322Y258662D01*
X563101Y259260D01*
X563698Y260039D01*
X564074Y260946D01*
X564202Y261920D01*
X564074Y262894D01*
X563698Y263801D01*
X563101Y264580D01*
X562322Y265178D01*
X561414Y265554D01*
X560440Y265682D01*
D02*
G37*
G36*
X549653D02*
X548679Y265554D01*
X547772Y265178D01*
X546993Y264580D01*
X546395Y263801D01*
X546019Y262894D01*
X545891Y261920D01*
X546019Y260946D01*
X546395Y260039D01*
X546993Y259260D01*
X547772Y258662D01*
X548679Y258286D01*
X549653Y258158D01*
X550627Y258286D01*
X551534Y258662D01*
X552313Y259260D01*
X552911Y260039D01*
X553287Y260946D01*
X553415Y261920D01*
X553287Y262894D01*
X552911Y263801D01*
X552313Y264580D01*
X551534Y265178D01*
X550627Y265554D01*
X549653Y265682D01*
D02*
G37*
G36*
X266537Y265553D02*
X265563Y265425D01*
X264656Y265049D01*
X263877Y264451D01*
X263279Y263672D01*
X262903Y262765D01*
X262775Y261791D01*
X262903Y260817D01*
X263279Y259910D01*
X263877Y259131D01*
X264656Y258533D01*
X265563Y258157D01*
X266537Y258029D01*
X267511Y258157D01*
X268418Y258533D01*
X269197Y259131D01*
X269795Y259910D01*
X270171Y260817D01*
X270299Y261791D01*
X270171Y262765D01*
X269795Y263672D01*
X269197Y264451D01*
X268418Y265049D01*
X267511Y265425D01*
X266537Y265553D01*
D02*
G37*
G36*
X244962D02*
X243988Y265425D01*
X243081Y265049D01*
X242302Y264451D01*
X241704Y263672D01*
X241328Y262765D01*
X241200Y261791D01*
X241328Y260817D01*
X241704Y259910D01*
X242302Y259131D01*
X243081Y258533D01*
X243988Y258157D01*
X244962Y258029D01*
X245936Y258157D01*
X246843Y258533D01*
X247622Y259131D01*
X248220Y259910D01*
X248596Y260817D01*
X248724Y261791D01*
X248596Y262765D01*
X248220Y263672D01*
X247622Y264451D01*
X246843Y265049D01*
X245936Y265425D01*
X244962Y265553D01*
D02*
G37*
G36*
X100743Y265400D02*
X99770Y265272D01*
X98862Y264896D01*
X98083Y264298D01*
X97485Y263519D01*
X97109Y262612D01*
X96981Y261638D01*
X97109Y260665D01*
X97485Y259757D01*
X98083Y258978D01*
X98862Y258380D01*
X99770Y258004D01*
X100743Y257876D01*
X101717Y258004D01*
X102624Y258380D01*
X103403Y258978D01*
X104001Y259757D01*
X104377Y260665D01*
X104505Y261638D01*
X104377Y262612D01*
X104001Y263519D01*
X103403Y264298D01*
X102624Y264896D01*
X101717Y265272D01*
X100743Y265400D01*
D02*
G37*
G36*
X89956D02*
X88982Y265272D01*
X88075Y264896D01*
X87296Y264298D01*
X86698Y263519D01*
X86322Y262612D01*
X86194Y261638D01*
X86322Y260665D01*
X86698Y259757D01*
X87296Y258978D01*
X88075Y258380D01*
X88982Y258004D01*
X89956Y257876D01*
X90930Y258004D01*
X91837Y258380D01*
X92616Y258978D01*
X93214Y259757D01*
X93590Y260665D01*
X93718Y261638D01*
X93590Y262612D01*
X93214Y263519D01*
X92616Y264298D01*
X91837Y264896D01*
X90930Y265272D01*
X89956Y265400D01*
D02*
G37*
G36*
X79168D02*
X78195Y265272D01*
X77287Y264896D01*
X76508Y264298D01*
X75910Y263519D01*
X75534Y262612D01*
X75406Y261638D01*
X75534Y260665D01*
X75910Y259757D01*
X76508Y258978D01*
X77287Y258380D01*
X78195Y258004D01*
X79168Y257876D01*
X80142Y258004D01*
X81050Y258380D01*
X81829Y258978D01*
X82427Y259757D01*
X82802Y260665D01*
X82930Y261638D01*
X82802Y262612D01*
X82427Y263519D01*
X81829Y264298D01*
X81050Y264896D01*
X80142Y265272D01*
X79168Y265400D01*
D02*
G37*
G36*
X68381D02*
X67407Y265272D01*
X66500Y264896D01*
X65721Y264298D01*
X65123Y263519D01*
X64747Y262612D01*
X64619Y261638D01*
X64747Y260665D01*
X65123Y259757D01*
X65721Y258978D01*
X66500Y258380D01*
X67407Y258004D01*
X68381Y257876D01*
X69355Y258004D01*
X70262Y258380D01*
X71041Y258978D01*
X71639Y259757D01*
X72015Y260665D01*
X72143Y261638D01*
X72015Y262612D01*
X71639Y263519D01*
X71041Y264298D01*
X70262Y264896D01*
X69355Y265272D01*
X68381Y265400D01*
D02*
G37*
G36*
X227517Y265921D02*
X219257D01*
Y257661D01*
X227517D01*
Y265921D01*
D02*
G37*
G36*
X234175Y265956D02*
X233097Y265814D01*
X232092Y265398D01*
X231229Y264736D01*
X230567Y263874D01*
X230151Y262869D01*
X230009Y261791D01*
X230151Y260713D01*
X230567Y259708D01*
X231229Y258845D01*
X232092Y258183D01*
X233097Y257767D01*
X234175Y257625D01*
X235253Y257767D01*
X236258Y258183D01*
X237120Y258845D01*
X237782Y259708D01*
X238198Y260713D01*
X238340Y261791D01*
X238198Y262869D01*
X237782Y263874D01*
X237120Y264736D01*
X236258Y265398D01*
X235253Y265814D01*
X234175Y265956D01*
D02*
G37*
G36*
X356091Y212635D02*
X355133Y212509D01*
X354240Y212139D01*
X353473Y211551D01*
X352885Y210784D01*
X352515Y209891D01*
X352389Y208933D01*
X352515Y207974D01*
X352885Y207081D01*
X353473Y206314D01*
X354240Y205726D01*
X355133Y205356D01*
X356091Y205230D01*
X357049Y205356D01*
X357942Y205726D01*
X358709Y206314D01*
X359297Y207081D01*
X359667Y207974D01*
X359793Y208933D01*
X359667Y209891D01*
X359297Y210784D01*
X358709Y211551D01*
X357942Y212139D01*
X357049Y212509D01*
X356091Y212635D01*
D02*
G37*
G36*
X334477D02*
X333519Y212509D01*
X332626Y212139D01*
X331859Y211551D01*
X331270Y210784D01*
X330900Y209891D01*
X330774Y208933D01*
X330900Y207974D01*
X331270Y207081D01*
X331859Y206314D01*
X332626Y205726D01*
X333519Y205356D01*
X334477Y205230D01*
X335435Y205356D01*
X336328Y205726D01*
X337095Y206314D01*
X337683Y207081D01*
X338053Y207974D01*
X338179Y208933D01*
X338053Y209891D01*
X337683Y210784D01*
X337095Y211551D01*
X336328Y212139D01*
X335435Y212509D01*
X334477Y212635D01*
D02*
G37*
G36*
X302075D02*
X301117Y212509D01*
X300224Y212139D01*
X299457Y211551D01*
X298869Y210784D01*
X298499Y209891D01*
X298373Y208933D01*
X298499Y207974D01*
X298869Y207081D01*
X299457Y206314D01*
X300224Y205726D01*
X301117Y205356D01*
X302075Y205230D01*
X303034Y205356D01*
X303927Y205726D01*
X304694Y206314D01*
X305282Y207081D01*
X305652Y207974D01*
X305778Y208933D01*
X305652Y209891D01*
X305282Y210784D01*
X304694Y211551D01*
X303927Y212139D01*
X303034Y212509D01*
X302075Y212635D01*
D02*
G37*
G36*
X291288D02*
X290330Y212509D01*
X289437Y212139D01*
X288670Y211551D01*
X288082Y210784D01*
X287712Y209891D01*
X287585Y208933D01*
X287712Y207974D01*
X288082Y207081D01*
X288670Y206314D01*
X289437Y205726D01*
X290330Y205356D01*
X291288Y205230D01*
X292246Y205356D01*
X293139Y205726D01*
X293906Y206314D01*
X294495Y207081D01*
X294864Y207974D01*
X294990Y208933D01*
X294864Y209891D01*
X294495Y210784D01*
X293906Y211551D01*
X293139Y212139D01*
X292246Y212509D01*
X291288Y212635D01*
D02*
G37*
G36*
X569526Y212413D02*
X568568Y212287D01*
X567674Y211917D01*
X566908Y211329D01*
X566319Y210562D01*
X565949Y209669D01*
X565823Y208711D01*
X565949Y207752D01*
X566319Y206859D01*
X566908Y206093D01*
X567674Y205504D01*
X568568Y205134D01*
X569526Y205008D01*
X570484Y205134D01*
X571377Y205504D01*
X572144Y206093D01*
X572732Y206859D01*
X573102Y207752D01*
X573228Y208711D01*
X573102Y209669D01*
X572732Y210562D01*
X572144Y211329D01*
X571377Y211917D01*
X570484Y212287D01*
X569526Y212413D01*
D02*
G37*
G36*
X558699D02*
X557741Y212287D01*
X556848Y211917D01*
X556081Y211329D01*
X555493Y210562D01*
X555123Y209669D01*
X554997Y208711D01*
X555123Y207752D01*
X555493Y206859D01*
X556081Y206093D01*
X556848Y205504D01*
X557741Y205134D01*
X558699Y205008D01*
X559657Y205134D01*
X560550Y205504D01*
X561317Y206093D01*
X561906Y206859D01*
X562276Y207752D01*
X562402Y208711D01*
X562276Y209669D01*
X561906Y210562D01*
X561317Y211329D01*
X560550Y211917D01*
X559657Y212287D01*
X558699Y212413D01*
D02*
G37*
G36*
X547912D02*
X546953Y212287D01*
X546061Y211917D01*
X545294Y211329D01*
X544705Y210562D01*
X544335Y209669D01*
X544209Y208711D01*
X544335Y207752D01*
X544705Y206859D01*
X545294Y206093D01*
X546061Y205504D01*
X546953Y205134D01*
X547912Y205008D01*
X548870Y205134D01*
X549763Y205504D01*
X550530Y206093D01*
X551118Y206859D01*
X551488Y207752D01*
X551614Y208711D01*
X551488Y209669D01*
X551118Y210562D01*
X550530Y211329D01*
X549763Y211917D01*
X548870Y212287D01*
X547912Y212413D01*
D02*
G37*
G36*
X537124D02*
X536166Y212287D01*
X535273Y211917D01*
X534506Y211329D01*
X533918Y210562D01*
X533548Y209669D01*
X533422Y208711D01*
X533548Y207752D01*
X533918Y206859D01*
X534506Y206093D01*
X535273Y205504D01*
X536166Y205134D01*
X537124Y205008D01*
X538083Y205134D01*
X538976Y205504D01*
X539743Y206093D01*
X540331Y206859D01*
X540701Y207752D01*
X540827Y208711D01*
X540701Y209669D01*
X540331Y210562D01*
X539743Y211329D01*
X538976Y211917D01*
X538083Y212287D01*
X537124Y212413D01*
D02*
G37*
G36*
X526298Y212817D02*
X525235Y212677D01*
X524245Y212266D01*
X523394Y211614D01*
X522742Y210764D01*
X522331Y209773D01*
X522192Y208711D01*
X522331Y207648D01*
X522742Y206658D01*
X523394Y205807D01*
X524245Y205155D01*
X525235Y204745D01*
X526298Y204605D01*
X527360Y204745D01*
X528351Y205155D01*
X529201Y205807D01*
X529853Y206658D01*
X530264Y207648D01*
X530404Y208711D01*
X530264Y209773D01*
X529853Y210764D01*
X529201Y211614D01*
X528351Y212266D01*
X527360Y212677D01*
X526298Y212817D01*
D02*
G37*
G36*
X515510D02*
X514447Y212677D01*
X513457Y212266D01*
X512607Y211614D01*
X511954Y210764D01*
X511544Y209773D01*
X511404Y208711D01*
X511544Y207648D01*
X511954Y206658D01*
X512607Y205807D01*
X513457Y205155D01*
X514447Y204745D01*
X515510Y204605D01*
X516573Y204745D01*
X517563Y205155D01*
X518414Y205807D01*
X519066Y206658D01*
X519476Y207648D01*
X519616Y208711D01*
X519476Y209773D01*
X519066Y210764D01*
X518414Y211614D01*
X517563Y212266D01*
X516573Y212677D01*
X515510Y212817D01*
D02*
G37*
G36*
X289565Y201423D02*
X282223D01*
Y194081D01*
X289565D01*
Y201423D01*
D02*
G37*
G36*
X350697Y201454D02*
X349739Y201328D01*
X348846Y200958D01*
X348079Y200370D01*
X347491Y199603D01*
X347121Y198710D01*
X346995Y197752D01*
X347121Y196793D01*
X347491Y195900D01*
X348079Y195133D01*
X348846Y194545D01*
X349739Y194175D01*
X350697Y194049D01*
X351656Y194175D01*
X352549Y194545D01*
X353315Y195133D01*
X353904Y195900D01*
X354274Y196793D01*
X354400Y197752D01*
X354274Y198710D01*
X353904Y199603D01*
X353315Y200370D01*
X352549Y200958D01*
X351656Y201328D01*
X350697Y201454D01*
D02*
G37*
G36*
X329123D02*
X328164Y201328D01*
X327271Y200958D01*
X326504Y200370D01*
X325916Y199603D01*
X325546Y198710D01*
X325420Y197752D01*
X325546Y196793D01*
X325916Y195900D01*
X326504Y195133D01*
X327271Y194545D01*
X328164Y194175D01*
X329123Y194049D01*
X330081Y194175D01*
X330974Y194545D01*
X331741Y195133D01*
X332329Y195900D01*
X332699Y196793D01*
X332825Y197752D01*
X332699Y198710D01*
X332329Y199603D01*
X331741Y200370D01*
X330974Y200958D01*
X330081Y201328D01*
X329123Y201454D01*
D02*
G37*
G36*
X318256D02*
X317298Y201328D01*
X316405Y200958D01*
X315638Y200370D01*
X315050Y199603D01*
X314680Y198710D01*
X314554Y197752D01*
X314680Y196793D01*
X315050Y195900D01*
X315638Y195133D01*
X316405Y194545D01*
X317298Y194175D01*
X318256Y194049D01*
X319215Y194175D01*
X320108Y194545D01*
X320875Y195133D01*
X321463Y195900D01*
X321833Y196793D01*
X321959Y197752D01*
X321833Y198710D01*
X321463Y199603D01*
X320875Y200370D01*
X320108Y200958D01*
X319215Y201328D01*
X318256Y201454D01*
D02*
G37*
G36*
X307469D02*
X306511Y201328D01*
X305618Y200958D01*
X304851Y200370D01*
X304262Y199603D01*
X303893Y198710D01*
X303766Y197752D01*
X303893Y196793D01*
X304262Y195900D01*
X304851Y195133D01*
X305618Y194545D01*
X306511Y194175D01*
X307469Y194049D01*
X308427Y194175D01*
X309320Y194545D01*
X310087Y195133D01*
X310676Y195900D01*
X311045Y196793D01*
X311172Y197752D01*
X311045Y198710D01*
X310676Y199603D01*
X310087Y200370D01*
X309320Y200958D01*
X308427Y201328D01*
X307469Y201454D01*
D02*
G37*
G36*
X585707Y201232D02*
X584749Y201106D01*
X583856Y200736D01*
X583089Y200148D01*
X582501Y199381D01*
X582131Y198488D01*
X582004Y197529D01*
X582131Y196571D01*
X582501Y195678D01*
X583089Y194911D01*
X583856Y194323D01*
X584749Y193953D01*
X585707Y193827D01*
X586665Y193953D01*
X587558Y194323D01*
X588325Y194911D01*
X588913Y195678D01*
X589283Y196571D01*
X589409Y197529D01*
X589283Y198488D01*
X588913Y199381D01*
X588325Y200148D01*
X587558Y200736D01*
X586665Y201106D01*
X585707Y201232D01*
D02*
G37*
G36*
X574920D02*
X573961Y201106D01*
X573068Y200736D01*
X572301Y200148D01*
X571713Y199381D01*
X571343Y198488D01*
X571217Y197529D01*
X571343Y196571D01*
X571713Y195678D01*
X572301Y194911D01*
X573068Y194323D01*
X573961Y193953D01*
X574920Y193827D01*
X575878Y193953D01*
X576771Y194323D01*
X577538Y194911D01*
X578126Y195678D01*
X578496Y196571D01*
X578622Y197529D01*
X578496Y198488D01*
X578126Y199381D01*
X577538Y200148D01*
X576771Y200736D01*
X575878Y201106D01*
X574920Y201232D01*
D02*
G37*
G36*
X564132D02*
X563174Y201106D01*
X562281Y200736D01*
X561514Y200148D01*
X560926Y199381D01*
X560556Y198488D01*
X560430Y197529D01*
X560556Y196571D01*
X560926Y195678D01*
X561514Y194911D01*
X562281Y194323D01*
X563174Y193953D01*
X564132Y193827D01*
X565091Y193953D01*
X565983Y194323D01*
X566750Y194911D01*
X567339Y195678D01*
X567709Y196571D01*
X567835Y197529D01*
X567709Y198488D01*
X567339Y199381D01*
X566750Y200148D01*
X565983Y200736D01*
X565091Y201106D01*
X564132Y201232D01*
D02*
G37*
G36*
X553345D02*
X552387Y201106D01*
X551494Y200736D01*
X550727Y200148D01*
X550138Y199381D01*
X549768Y198488D01*
X549642Y197529D01*
X549768Y196571D01*
X550114Y195738D01*
X546101Y191725D01*
X529225D01*
X529138Y191856D01*
X528611Y192209D01*
X527989Y192332D01*
X527367Y192209D01*
X526840Y191856D01*
X526487Y191329D01*
X526364Y190707D01*
X526487Y190085D01*
X526840Y189558D01*
X527367Y189206D01*
X527989Y189082D01*
X528611Y189206D01*
X529138Y189558D01*
X529225Y189689D01*
X546523D01*
X546912Y189767D01*
X547242Y189988D01*
X551553Y194298D01*
X552387Y193953D01*
X553345Y193827D01*
X554303Y193953D01*
X555196Y194323D01*
X555963Y194911D01*
X556551Y195678D01*
X556921Y196571D01*
X557047Y197529D01*
X556921Y198488D01*
X556551Y199381D01*
X555963Y200148D01*
X555196Y200736D01*
X554303Y201106D01*
X553345Y201232D01*
D02*
G37*
G36*
X542479D02*
X541520Y201106D01*
X540627Y200736D01*
X539860Y200148D01*
X539272Y199381D01*
X538902Y198488D01*
X538776Y197529D01*
X538902Y196571D01*
X539272Y195678D01*
X539860Y194911D01*
X540627Y194323D01*
X541520Y193953D01*
X542479Y193827D01*
X543437Y193953D01*
X544330Y194323D01*
X545097Y194911D01*
X545685Y195678D01*
X546055Y196571D01*
X546181Y197529D01*
X546055Y198488D01*
X545685Y199381D01*
X545097Y200148D01*
X544330Y200736D01*
X543437Y201106D01*
X542479Y201232D01*
D02*
G37*
G36*
X531691D02*
X530733Y201106D01*
X529840Y200736D01*
X529073Y200148D01*
X528485Y199381D01*
X528115Y198488D01*
X527989Y197529D01*
X528115Y196571D01*
X528485Y195678D01*
X529073Y194911D01*
X529840Y194323D01*
X530733Y193953D01*
X531691Y193827D01*
X532650Y193953D01*
X533542Y194323D01*
X534309Y194911D01*
X534898Y195678D01*
X535268Y196571D01*
X535394Y197529D01*
X535268Y198488D01*
X534898Y199381D01*
X534309Y200148D01*
X533542Y200736D01*
X532650Y201106D01*
X531691Y201232D01*
D02*
G37*
G36*
X258099Y212994D02*
X256216Y212809D01*
X254405Y212260D01*
X252736Y211368D01*
X251274Y210167D01*
X250073Y208705D01*
X249181Y207036D01*
X248632Y205225D01*
X248447Y203342D01*
X248632Y201459D01*
X249181Y199648D01*
X250073Y197979D01*
X251274Y196517D01*
X252736Y195316D01*
X254405Y194424D01*
X256216Y193875D01*
X258099Y193690D01*
X259982Y193875D01*
X261793Y194424D01*
X263462Y195316D01*
X264924Y196517D01*
X266125Y197979D01*
X267017Y199648D01*
X267566Y201459D01*
X267751Y203342D01*
X267566Y205225D01*
X267017Y207036D01*
X266125Y208705D01*
X264924Y210167D01*
X263462Y211368D01*
X261793Y212260D01*
X259982Y212809D01*
X258099Y212994D01*
D02*
G37*
G36*
X613502Y212772D02*
X611619Y212587D01*
X609808Y212038D01*
X608140Y211146D01*
X606677Y209945D01*
X605477Y208483D01*
X604585Y206814D01*
X604035Y205003D01*
X603850Y203120D01*
X604035Y201237D01*
X604585Y199426D01*
X605477Y197757D01*
X606677Y196295D01*
X608140Y195094D01*
X609808Y194202D01*
X611619Y193653D01*
X613502Y193468D01*
X615385Y193653D01*
X617196Y194202D01*
X618865Y195094D01*
X620328Y196295D01*
X621528Y197757D01*
X622420Y199426D01*
X622969Y201237D01*
X623155Y203120D01*
X622969Y205003D01*
X622420Y206814D01*
X621528Y208483D01*
X620328Y209945D01*
X618865Y211146D01*
X617196Y212038D01*
X615385Y212587D01*
X613502Y212772D01*
D02*
G37*
G36*
X482321D02*
X480438Y212587D01*
X478627Y212038D01*
X476959Y211146D01*
X475496Y209945D01*
X474296Y208483D01*
X473404Y206814D01*
X472854Y205003D01*
X472669Y203120D01*
X472854Y201237D01*
X473404Y199426D01*
X474296Y197757D01*
X475496Y196295D01*
X476959Y195094D01*
X478627Y194202D01*
X480438Y193653D01*
X482321Y193468D01*
X484204Y193653D01*
X486015Y194202D01*
X487684Y195094D01*
X489147Y196295D01*
X490347Y197757D01*
X491239Y199426D01*
X491788Y201237D01*
X491974Y203120D01*
X491788Y205003D01*
X491239Y206814D01*
X490347Y208483D01*
X489147Y209945D01*
X487684Y211146D01*
X486015Y212038D01*
X484204Y212587D01*
X482321Y212772D01*
D02*
G37*
G36*
X514187Y201600D02*
X506045D01*
Y193458D01*
X514187D01*
Y201600D01*
D02*
G37*
G36*
X520904Y201635D02*
X519841Y201496D01*
X518851Y201085D01*
X518000Y200433D01*
X517348Y199582D01*
X516938Y198592D01*
X516798Y197529D01*
X516938Y196467D01*
X517348Y195476D01*
X518000Y194626D01*
X518851Y193974D01*
X519841Y193563D01*
X520904Y193423D01*
X521967Y193563D01*
X522957Y193974D01*
X523807Y194626D01*
X524460Y195476D01*
X524870Y196467D01*
X525010Y197529D01*
X524870Y198592D01*
X524460Y199582D01*
X523807Y200433D01*
X522957Y201085D01*
X521967Y201496D01*
X520904Y201635D01*
D02*
G37*
G36*
X132313Y200035D02*
X131355Y199909D01*
X130462Y199539D01*
X129695Y198951D01*
X129106Y198184D01*
X128737Y197291D01*
X128611Y196333D01*
X128737Y195374D01*
X129106Y194481D01*
X129695Y193714D01*
X130462Y193126D01*
X131355Y192756D01*
X132313Y192630D01*
X133271Y192756D01*
X134164Y193126D01*
X134931Y193714D01*
X135520Y194481D01*
X135889Y195374D01*
X136015Y196333D01*
X135889Y197291D01*
X135520Y198184D01*
X134931Y198951D01*
X134164Y199539D01*
X133271Y199909D01*
X132313Y200035D01*
D02*
G37*
G36*
X121526D02*
X120567Y199909D01*
X119674Y199539D01*
X118907Y198951D01*
X118319Y198184D01*
X117949Y197291D01*
X117823Y196333D01*
X117949Y195374D01*
X118319Y194481D01*
X118907Y193714D01*
X119674Y193126D01*
X120567Y192756D01*
X121526Y192630D01*
X122484Y192756D01*
X123377Y193126D01*
X124144Y193714D01*
X124732Y194481D01*
X125102Y195374D01*
X125228Y196333D01*
X125102Y197291D01*
X124732Y198184D01*
X124144Y198951D01*
X123377Y199539D01*
X122484Y199909D01*
X121526Y200035D01*
D02*
G37*
G36*
X110699D02*
X109740Y199909D01*
X108847Y199539D01*
X108081Y198951D01*
X107492Y198184D01*
X107122Y197291D01*
X106996Y196333D01*
X107122Y195374D01*
X107492Y194481D01*
X108081Y193714D01*
X108847Y193126D01*
X109740Y192756D01*
X110699Y192630D01*
X111657Y192756D01*
X112550Y193126D01*
X113317Y193714D01*
X113905Y194481D01*
X114275Y195374D01*
X114401Y196333D01*
X114275Y197291D01*
X113905Y198184D01*
X113317Y198951D01*
X112550Y199539D01*
X111657Y199909D01*
X110699Y200035D01*
D02*
G37*
G36*
X99911D02*
X98953Y199909D01*
X98060Y199539D01*
X97293Y198951D01*
X96705Y198184D01*
X96335Y197291D01*
X96209Y196333D01*
X96335Y195374D01*
X96705Y194481D01*
X97293Y193714D01*
X98060Y193126D01*
X98953Y192756D01*
X99911Y192630D01*
X100870Y192756D01*
X101763Y193126D01*
X102530Y193714D01*
X103118Y194481D01*
X103488Y195374D01*
X103614Y196333D01*
X103488Y197291D01*
X103118Y198184D01*
X102530Y198951D01*
X101763Y199539D01*
X100870Y199909D01*
X99911Y200035D01*
D02*
G37*
G36*
X89124D02*
X88166Y199909D01*
X87273Y199539D01*
X86506Y198951D01*
X85918Y198184D01*
X85548Y197291D01*
X85422Y196333D01*
X85548Y195374D01*
X85918Y194481D01*
X86506Y193714D01*
X87273Y193126D01*
X88166Y192756D01*
X89124Y192630D01*
X90082Y192756D01*
X90975Y193126D01*
X91742Y193714D01*
X92330Y194481D01*
X92700Y195374D01*
X92826Y196333D01*
X92700Y197291D01*
X92330Y198184D01*
X91742Y198951D01*
X90975Y199539D01*
X90082Y199909D01*
X89124Y200035D01*
D02*
G37*
G36*
X78297D02*
X77339Y199909D01*
X76446Y199539D01*
X75679Y198951D01*
X75091Y198184D01*
X74721Y197291D01*
X74595Y196333D01*
X74721Y195374D01*
X75091Y194481D01*
X75679Y193714D01*
X76446Y193126D01*
X77339Y192756D01*
X78297Y192630D01*
X79255Y192756D01*
X80149Y193126D01*
X80915Y193714D01*
X81504Y194481D01*
X81874Y195374D01*
X82000Y196333D01*
X81874Y197291D01*
X81504Y198184D01*
X80915Y198951D01*
X80149Y199539D01*
X79255Y199909D01*
X78297Y200035D01*
D02*
G37*
G36*
X67510D02*
X66552Y199909D01*
X65658Y199539D01*
X64892Y198951D01*
X64303Y198184D01*
X63933Y197291D01*
X63807Y196333D01*
X63933Y195374D01*
X64303Y194481D01*
X64892Y193714D01*
X65658Y193126D01*
X66552Y192756D01*
X67510Y192630D01*
X68468Y192756D01*
X69361Y193126D01*
X70128Y193714D01*
X70716Y194481D01*
X71086Y195374D01*
X71212Y196333D01*
X71086Y197291D01*
X70716Y198184D01*
X70128Y198951D01*
X69361Y199539D01*
X68468Y199909D01*
X67510Y200035D01*
D02*
G37*
G36*
X165502Y211576D02*
X163619Y211390D01*
X161808Y210841D01*
X160139Y209949D01*
X158677Y208749D01*
X157476Y207286D01*
X156584Y205617D01*
X156035Y203806D01*
X155850Y201923D01*
X156035Y200040D01*
X156584Y198229D01*
X157476Y196561D01*
X158677Y195098D01*
X160139Y193897D01*
X161808Y193006D01*
X163619Y192456D01*
X165502Y192271D01*
X167385Y192456D01*
X169196Y193006D01*
X170865Y193897D01*
X172327Y195098D01*
X173528Y196561D01*
X174420Y198229D01*
X174969Y200040D01*
X175154Y201923D01*
X174969Y203806D01*
X174420Y205617D01*
X173528Y207286D01*
X172327Y208749D01*
X170865Y209949D01*
X169196Y210841D01*
X167385Y211390D01*
X165502Y211576D01*
D02*
G37*
G36*
X34321D02*
X32438Y211390D01*
X30627Y210841D01*
X28958Y209949D01*
X27496Y208749D01*
X26295Y207286D01*
X25403Y205617D01*
X24854Y203806D01*
X24668Y201923D01*
X24854Y200040D01*
X25403Y198229D01*
X26295Y196561D01*
X27496Y195098D01*
X28958Y193897D01*
X30627Y193006D01*
X32438Y192456D01*
X34321Y192271D01*
X36204Y192456D01*
X38015Y193006D01*
X39683Y193897D01*
X41146Y195098D01*
X42347Y196561D01*
X43238Y198229D01*
X43788Y200040D01*
X43973Y201923D01*
X43788Y203806D01*
X43238Y205617D01*
X42347Y207286D01*
X41146Y208749D01*
X39683Y209949D01*
X38015Y210841D01*
X36204Y211390D01*
X34321Y211576D01*
D02*
G37*
G36*
X540331Y175152D02*
X539709Y175028D01*
X539182Y174676D01*
X538830Y174148D01*
X538706Y173527D01*
X538830Y172905D01*
X539182Y172378D01*
X539709Y172025D01*
X540331Y171902D01*
X540953Y172025D01*
X541480Y172378D01*
X541832Y172905D01*
X541956Y173527D01*
X541832Y174148D01*
X541480Y174676D01*
X540953Y175028D01*
X540331Y175152D01*
D02*
G37*
G36*
X230025Y172172D02*
X229403Y172048D01*
X228876Y171696D01*
X228782Y171555D01*
X228282D01*
X228187Y171696D01*
X227660Y172048D01*
X227038Y172172D01*
X226416Y172048D01*
X225889Y171696D01*
X225537Y171169D01*
X225413Y170547D01*
X225537Y169925D01*
X225889Y169398D01*
X226020Y169311D01*
Y121902D01*
X225890Y121877D01*
X225363Y121524D01*
X225269Y121382D01*
X224769D01*
X224674Y121524D01*
X224147Y121877D01*
X224001Y121906D01*
Y168623D01*
X224132Y168710D01*
X224484Y169237D01*
X224608Y169859D01*
X224484Y170481D01*
X224132Y171008D01*
X223605Y171360D01*
X222983Y171484D01*
X222361Y171360D01*
X221834Y171008D01*
X221739Y170866D01*
X221239D01*
X221144Y171008D01*
X220617Y171360D01*
X219995Y171484D01*
X219374Y171360D01*
X218847Y171008D01*
X218494Y170481D01*
X218371Y169859D01*
X218494Y169237D01*
X218847Y168710D01*
X219374Y168358D01*
X219451Y168342D01*
Y121618D01*
X219423Y121593D01*
X219320Y121524D01*
X219280Y121463D01*
X219100Y121301D01*
X218650Y121447D01*
Y125513D01*
X218564Y125942D01*
X218321Y126305D01*
X216022Y128605D01*
X215919Y129121D01*
X215567Y129648D01*
X215040Y130001D01*
X214418Y130124D01*
X213796Y130001D01*
X213269Y129648D01*
X212917Y129121D01*
X212793Y128499D01*
X212917Y127878D01*
X213269Y127350D01*
X213796Y126998D01*
X214418Y126875D01*
X214557Y126902D01*
X216410Y125049D01*
Y107308D01*
X216164Y106941D01*
X216041Y106319D01*
X216164Y105697D01*
X216516Y105170D01*
X217044Y104817D01*
X217666Y104694D01*
X217992Y104759D01*
X222324Y100427D01*
X222328Y100372D01*
X221846Y100092D01*
X221713Y100181D01*
X221091Y100305D01*
X220469Y100181D01*
X219942Y99829D01*
X219590Y99302D01*
X219466Y98680D01*
X219590Y98058D01*
X219942Y97531D01*
X220206Y97354D01*
Y96814D01*
X220124Y96756D01*
X219445Y96881D01*
X219384Y96972D01*
X218857Y97325D01*
X218235Y97448D01*
X217613Y97325D01*
X217086Y96972D01*
X216734Y96445D01*
X216610Y95823D01*
X216734Y95201D01*
X217086Y94674D01*
X217613Y94322D01*
X217813Y94282D01*
Y78137D01*
X217636Y78017D01*
X217313Y77916D01*
X216874Y78209D01*
X216252Y78333D01*
X215630Y78209D01*
X215103Y77857D01*
X214751Y77330D01*
X214627Y76708D01*
X214751Y76086D01*
X215103Y75559D01*
X215233Y75472D01*
Y74870D01*
X215232Y74870D01*
X214880Y74342D01*
X214756Y73721D01*
X214832Y73336D01*
X214681Y72971D01*
X214462Y72830D01*
X214015Y72741D01*
X213488Y72389D01*
X213136Y71862D01*
X213012Y71240D01*
X213136Y70618D01*
X213488Y70091D01*
X214015Y69739D01*
X214331Y69676D01*
X214495Y69133D01*
X214383Y69021D01*
X214162Y68691D01*
X214085Y68301D01*
Y46418D01*
X214146Y46110D01*
X214141Y45997D01*
X213859Y45582D01*
X213504Y45511D01*
X212977Y45159D01*
X212624Y44632D01*
X212501Y44010D01*
X212624Y43388D01*
X212977Y42861D01*
X213504Y42509D01*
X214125Y42385D01*
X214747Y42509D01*
X215001Y42678D01*
X215501Y42411D01*
Y21893D01*
X215579Y21503D01*
X215799Y21173D01*
X219616Y17357D01*
X219585Y17202D01*
X219709Y16580D01*
X220061Y16053D01*
X220588Y15701D01*
X221210Y15577D01*
X221832Y15701D01*
X222359Y16053D01*
X222711Y16580D01*
X222835Y17202D01*
X222711Y17824D01*
X222359Y18351D01*
X221832Y18703D01*
X221210Y18827D01*
X221056Y18796D01*
X217537Y22314D01*
Y45002D01*
X217460Y45391D01*
X217239Y45721D01*
X216121Y46839D01*
Y62854D01*
X216621Y63121D01*
X216875Y62951D01*
X217497Y62828D01*
X217813Y62411D01*
Y54112D01*
X217682Y54025D01*
X217330Y53498D01*
X217206Y52876D01*
X217330Y52254D01*
X217682Y51727D01*
X218209Y51375D01*
X218831Y51251D01*
X219453Y51375D01*
X219707Y51544D01*
X220206Y51277D01*
Y25429D01*
X220061Y25332D01*
X219709Y24805D01*
X219585Y24183D01*
X219709Y23561D01*
X220061Y23034D01*
X220588Y22682D01*
X221210Y22558D01*
X221832Y22682D01*
X222359Y23034D01*
X222711Y23561D01*
X222835Y24183D01*
X222711Y24805D01*
X222359Y25332D01*
X222242Y25410D01*
Y51261D01*
X222743Y51496D01*
X223086Y51266D01*
X223708Y51143D01*
X224330Y51266D01*
X224584Y51436D01*
X225084Y51169D01*
Y43938D01*
X225161Y43548D01*
X225382Y43218D01*
X225631Y42968D01*
X225600Y42814D01*
X225724Y42192D01*
X226076Y41665D01*
X226603Y41313D01*
X227225Y41189D01*
X227847Y41313D01*
X228374Y41665D01*
X228726Y42192D01*
X228850Y42814D01*
X228726Y43436D01*
X228374Y43963D01*
X227847Y44315D01*
X227225Y44439D01*
X227119Y44526D01*
Y65972D01*
X227251Y66059D01*
X227477Y66398D01*
X228008Y66292D01*
X228074Y65960D01*
X228426Y65433D01*
X228953Y65081D01*
X229575Y64957D01*
X230197Y65081D01*
X230724Y65433D01*
X231076Y65960D01*
X231200Y66582D01*
X231076Y67204D01*
X231060Y67229D01*
Y94395D01*
X230974Y94824D01*
X230731Y95187D01*
X219214Y106705D01*
X219167Y106941D01*
X218814Y107468D01*
X218650Y107578D01*
Y119330D01*
X219150Y119482D01*
X219320Y119226D01*
X219848Y118874D01*
X220469Y118750D01*
X221091Y118874D01*
X221618Y119226D01*
X221696Y119343D01*
X222298D01*
X222376Y119226D01*
X222903Y118874D01*
X223525Y118750D01*
X224147Y118874D01*
X224674Y119226D01*
X224769Y119368D01*
X225269D01*
X225363Y119226D01*
X225890Y118874D01*
X226512Y118750D01*
X227134Y118874D01*
X227661Y119226D01*
X227756Y119368D01*
X228256D01*
X228351Y119226D01*
X228878Y118874D01*
X229500Y118750D01*
X230121Y118874D01*
X230649Y119226D01*
X231001Y119753D01*
X231125Y120375D01*
X231001Y120997D01*
X230649Y121524D01*
X230518Y121612D01*
Y169020D01*
X230647Y169046D01*
X231174Y169398D01*
X231526Y169925D01*
X231650Y170547D01*
X231526Y171169D01*
X231174Y171696D01*
X230647Y172048D01*
X230025Y172172D01*
D02*
G37*
G36*
X607118Y172681D02*
X606190Y172559D01*
X605326Y172201D01*
X604584Y171631D01*
X604014Y170889D01*
X603656Y170025D01*
X603534Y169097D01*
X603656Y168170D01*
X604014Y167306D01*
X604021Y167297D01*
X602186Y165461D01*
X599003D01*
X598841Y165909D01*
X598831Y165961D01*
X598909Y165994D01*
X599651Y166563D01*
X600221Y167306D01*
X600579Y168170D01*
X600701Y169097D01*
X600579Y170025D01*
X600221Y170889D01*
X599651Y171631D01*
X598909Y172201D01*
X598045Y172559D01*
X597118Y172681D01*
X596190Y172559D01*
X595326Y172201D01*
X594584Y171631D01*
X594014Y170889D01*
X593788Y170342D01*
X541813D01*
X541480Y170841D01*
X540953Y171193D01*
X540331Y171317D01*
X539709Y171193D01*
X539182Y170841D01*
X538830Y170313D01*
X538706Y169692D01*
X538830Y169070D01*
X539182Y168543D01*
X539709Y168190D01*
X540331Y168067D01*
X540953Y168190D01*
X541431Y168510D01*
X593611D01*
X593656Y168170D01*
X594014Y167306D01*
X594584Y166563D01*
X595326Y165994D01*
X595404Y165961D01*
X595305Y165461D01*
X542064D01*
X541956Y165594D01*
X541832Y166215D01*
X541480Y166743D01*
X540953Y167095D01*
X540331Y167218D01*
X539709Y167095D01*
X539182Y166743D01*
X538830Y166215D01*
X538706Y165594D01*
X538830Y164972D01*
X539182Y164445D01*
X539709Y164092D01*
X540331Y163969D01*
X540630Y164028D01*
X540761Y163898D01*
X541058Y163699D01*
X541408Y163629D01*
X599003D01*
X599003Y163629D01*
X602565D01*
X602916Y163699D01*
X603213Y163898D01*
X605317Y166001D01*
X605326Y165994D01*
X606190Y165636D01*
X607118Y165514D01*
X608045Y165636D01*
X608909Y165994D01*
X609651Y166563D01*
X610221Y167306D01*
X610579Y168170D01*
X610701Y169097D01*
X610579Y170025D01*
X610221Y170889D01*
X609651Y171631D01*
X608909Y172201D01*
X608045Y172559D01*
X607118Y172681D01*
D02*
G37*
G36*
X336670Y168090D02*
X336049Y167966D01*
X335521Y167614D01*
X335169Y167087D01*
X335045Y166465D01*
X335169Y165843D01*
X335521Y165316D01*
X336049Y164964D01*
X336670Y164840D01*
X337292Y164964D01*
X337819Y165316D01*
X338172Y165843D01*
X338295Y166465D01*
X338172Y167087D01*
X337819Y167614D01*
X337292Y167966D01*
X336670Y168090D01*
D02*
G37*
G36*
X377889Y166807D02*
X377268Y166684D01*
X376740Y166332D01*
X376388Y165804D01*
X376265Y165182D01*
X376388Y164561D01*
X376740Y164033D01*
X377268Y163681D01*
X377889Y163558D01*
X378511Y163681D01*
X379038Y164033D01*
X379391Y164561D01*
X379514Y165182D01*
X379391Y165804D01*
X379038Y166332D01*
X378511Y166684D01*
X377889Y166807D01*
D02*
G37*
G36*
X632618Y163551D02*
X631996Y163427D01*
X631469Y163075D01*
X631116Y162548D01*
X630993Y161926D01*
X631116Y161304D01*
X631469Y160777D01*
X631996Y160425D01*
X632618Y160301D01*
X633240Y160425D01*
X633767Y160777D01*
X634119Y161304D01*
X634243Y161926D01*
X634119Y162548D01*
X633767Y163075D01*
X633240Y163427D01*
X632618Y163551D01*
D02*
G37*
G36*
X628827D02*
X628206Y163427D01*
X627678Y163075D01*
X627326Y162548D01*
X627203Y161926D01*
X627326Y161304D01*
X627678Y160777D01*
X628206Y160425D01*
X628827Y160301D01*
X629449Y160425D01*
X629976Y160777D01*
X630329Y161304D01*
X630452Y161926D01*
X630329Y162548D01*
X629976Y163075D01*
X629449Y163427D01*
X628827Y163551D01*
D02*
G37*
G36*
X625037D02*
X624415Y163427D01*
X623888Y163075D01*
X623536Y162548D01*
X623412Y161926D01*
X623536Y161304D01*
X623888Y160777D01*
X624415Y160425D01*
X625037Y160301D01*
X625659Y160425D01*
X626186Y160777D01*
X626538Y161304D01*
X626662Y161926D01*
X626538Y162548D01*
X626186Y163075D01*
X625659Y163427D01*
X625037Y163551D01*
D02*
G37*
G36*
X268418Y166226D02*
X267796Y166102D01*
X267269Y165750D01*
X267181Y165619D01*
X265972D01*
X265582Y165541D01*
X265252Y165321D01*
X261086Y161155D01*
X260865Y160824D01*
X260788Y160435D01*
Y84957D01*
X260279Y84617D01*
X259926Y84090D01*
X259803Y83468D01*
X259926Y82846D01*
X260279Y82319D01*
X260806Y81967D01*
X261428Y81843D01*
X262049Y81967D01*
X262577Y82319D01*
X262929Y82846D01*
X263053Y83468D01*
X262929Y84090D01*
X262803Y84278D01*
X262824Y84383D01*
Y160013D01*
X266308Y163498D01*
X266840Y163454D01*
X267045Y163117D01*
X267049Y163103D01*
X267002Y163029D01*
X266602Y162762D01*
X266250Y162235D01*
X266126Y161613D01*
X266157Y161459D01*
X263903Y159205D01*
X263682Y158874D01*
X263605Y158485D01*
Y148984D01*
X263682Y148595D01*
X263903Y148265D01*
X264413Y147754D01*
Y83086D01*
X264097Y82875D01*
X263745Y82348D01*
X263621Y81726D01*
X263745Y81104D01*
X264097Y80577D01*
X264624Y80225D01*
X265246Y80101D01*
X265868Y80225D01*
X266395Y80577D01*
X266747Y81104D01*
X266871Y81726D01*
X266747Y82348D01*
X266449Y82794D01*
Y134504D01*
X266949Y134656D01*
X267059Y134491D01*
X267586Y134139D01*
X268208Y134016D01*
X268830Y134139D01*
X269357Y134491D01*
X269709Y135019D01*
X269833Y135640D01*
X269709Y136262D01*
X269357Y136789D01*
X268830Y137142D01*
X268208Y137265D01*
X267586Y137142D01*
X267059Y136789D01*
X266949Y136625D01*
X266449Y136776D01*
Y148176D01*
X266372Y148565D01*
X266151Y148896D01*
X265641Y149406D01*
Y158063D01*
X267597Y160019D01*
X267751Y159988D01*
X268373Y160112D01*
X268900Y160464D01*
X269253Y160992D01*
X269376Y161613D01*
X269253Y162235D01*
X269019Y162585D01*
X269035Y162975D01*
X269168Y163185D01*
X269567Y163452D01*
X269919Y163979D01*
X270043Y164601D01*
X269919Y165223D01*
X269567Y165750D01*
X269040Y166102D01*
X268418Y166226D01*
D02*
G37*
G36*
X364391Y160990D02*
X363770Y160867D01*
X363243Y160514D01*
X362890Y159987D01*
X362767Y159365D01*
X362890Y158744D01*
X363243Y158217D01*
X363770Y157864D01*
X364391Y157741D01*
X365013Y157864D01*
X365540Y158217D01*
X365893Y158744D01*
X366016Y159365D01*
X365893Y159987D01*
X365540Y160514D01*
X365013Y160867D01*
X364391Y160990D01*
D02*
G37*
G36*
X168112Y158932D02*
X167185Y158810D01*
X166321Y158452D01*
X165578Y157883D01*
X165009Y157141D01*
X164651Y156276D01*
X164529Y155349D01*
X164651Y154421D01*
X165009Y153557D01*
X165578Y152815D01*
X166321Y152245D01*
X167185Y151888D01*
X168112Y151765D01*
X169040Y151888D01*
X169904Y152245D01*
X170646Y152815D01*
X171215Y153557D01*
X171573Y154421D01*
X171696Y155349D01*
X171573Y156276D01*
X171215Y157141D01*
X170646Y157883D01*
X169904Y158452D01*
X169040Y158810D01*
X168112Y158932D01*
D02*
G37*
G36*
X288619Y150299D02*
X287997Y150176D01*
X287470Y149823D01*
X287291Y149555D01*
X286696Y149544D01*
X286620Y149659D01*
X286093Y150011D01*
X285471Y150135D01*
X284849Y150011D01*
X284322Y149659D01*
X284154Y149408D01*
X283559Y149398D01*
X283032Y149750D01*
X282410Y149874D01*
X281788Y149750D01*
X281261Y149398D01*
X280909Y148871D01*
X280785Y148249D01*
X280909Y147627D01*
X281261Y147100D01*
X281788Y146748D01*
X282250Y146656D01*
Y141823D01*
X281750Y141556D01*
X281496Y141725D01*
X280874Y141849D01*
X280252Y141725D01*
X279725Y141373D01*
X279373Y140846D01*
X279249Y140224D01*
X279373Y139602D01*
X279725Y139075D01*
X279972Y138910D01*
Y93750D01*
X279917Y93714D01*
X279565Y93186D01*
X279441Y92565D01*
X279565Y91943D01*
X279917Y91416D01*
X280445Y91063D01*
X281066Y90940D01*
X281688Y91063D01*
X282215Y91416D01*
X282568Y91943D01*
X282665Y92433D01*
X282740Y92590D01*
X283153Y92807D01*
X283491Y92739D01*
X284113Y92863D01*
X284640Y93216D01*
X284993Y93743D01*
X285116Y94365D01*
X285064Y94625D01*
X285073Y94645D01*
X285498Y95010D01*
X285885Y94933D01*
X286507Y95057D01*
X287034Y95409D01*
X287386Y95936D01*
X287510Y96558D01*
X287442Y96899D01*
X287842Y97329D01*
X287853Y97327D01*
X288474Y97451D01*
X289002Y97803D01*
X289354Y98330D01*
X289478Y98952D01*
X289354Y99574D01*
X289002Y100101D01*
X288994Y100106D01*
Y107435D01*
X289494Y107587D01*
X289699Y107280D01*
X290226Y106928D01*
X290848Y106804D01*
X291470Y106928D01*
X291962Y107256D01*
X292144Y107215D01*
X292462Y107076D01*
Y94904D01*
X286604Y89047D01*
X286384Y88717D01*
X286306Y88327D01*
Y84212D01*
X285971Y83988D01*
X285619Y83460D01*
X285495Y82839D01*
X285619Y82217D01*
X285971Y81690D01*
X286498Y81337D01*
X287120Y81214D01*
X287742Y81337D01*
X288269Y81690D01*
X288621Y82217D01*
X288745Y82839D01*
X288621Y83460D01*
X288342Y83878D01*
Y85429D01*
X288842Y85581D01*
X289013Y85326D01*
X289540Y84974D01*
X290162Y84850D01*
X290784Y84974D01*
X291311Y85326D01*
X291663Y85853D01*
X291787Y86475D01*
X291759Y86613D01*
X295999Y90853D01*
X296220Y91183D01*
X296298Y91573D01*
Y144715D01*
X296700Y144984D01*
X297053Y145511D01*
X297176Y146133D01*
X297053Y146755D01*
X296700Y147282D01*
X296173Y147634D01*
X295551Y147758D01*
X294930Y147634D01*
X294413Y147891D01*
X294375Y148080D01*
X294023Y148608D01*
X293496Y148960D01*
X292874Y149083D01*
X292252Y148960D01*
X291725Y148608D01*
X291373Y148080D01*
X291249Y147459D01*
X291373Y146837D01*
X291725Y146309D01*
X291856Y146222D01*
Y136690D01*
X291933Y136301D01*
X292154Y135970D01*
X292462Y135663D01*
Y126254D01*
X292284Y126134D01*
X291962Y126033D01*
X291523Y126326D01*
X290901Y126450D01*
X290279Y126326D01*
X289752Y125974D01*
X289494Y125588D01*
X288994Y125740D01*
Y147124D01*
X289241Y147173D01*
X289768Y147526D01*
X290120Y148053D01*
X290244Y148674D01*
X290120Y149296D01*
X289768Y149823D01*
X289241Y150176D01*
X288619Y150299D01*
D02*
G37*
G36*
X257448Y151277D02*
X256826Y151153D01*
X256298Y150801D01*
X255946Y150274D01*
X255823Y149652D01*
X255946Y149030D01*
X256298Y148503D01*
X256826Y148151D01*
X257448Y148027D01*
X258069Y148151D01*
X258596Y148503D01*
X258949Y149030D01*
X259072Y149652D01*
X258949Y150274D01*
X258596Y150801D01*
X258069Y151153D01*
X257448Y151277D01*
D02*
G37*
G36*
X236062Y141070D02*
X235440Y140946D01*
X234913Y140594D01*
X234561Y140067D01*
X234437Y139445D01*
X234561Y138823D01*
X234913Y138296D01*
X235440Y137944D01*
X236062Y137820D01*
X236684Y137944D01*
X237211Y138296D01*
X237563Y138823D01*
X237687Y139445D01*
X237563Y140067D01*
X237211Y140594D01*
X236684Y140946D01*
X236062Y141070D01*
D02*
G37*
G36*
X15792Y139945D02*
X15170Y139821D01*
X14643Y139469D01*
X14290Y138941D01*
X14167Y138320D01*
X14290Y137698D01*
X14643Y137171D01*
X15170Y136818D01*
X15792Y136695D01*
X16413Y136818D01*
X16941Y137171D01*
X17293Y137698D01*
X17416Y138320D01*
X17293Y138941D01*
X16941Y139469D01*
X16413Y139821D01*
X15792Y139945D01*
D02*
G37*
G36*
X9792D02*
X9170Y139821D01*
X8643Y139469D01*
X8290Y138941D01*
X8167Y138320D01*
X8290Y137698D01*
X8643Y137171D01*
X9170Y136818D01*
X9792Y136695D01*
X10413Y136818D01*
X10941Y137171D01*
X11293Y137698D01*
X11417Y138320D01*
X11293Y138941D01*
X10941Y139469D01*
X10413Y139821D01*
X9792Y139945D01*
D02*
G37*
G36*
X3792D02*
X3170Y139821D01*
X2643Y139469D01*
X2290Y138941D01*
X2167Y138320D01*
X2290Y137698D01*
X2643Y137171D01*
X3170Y136818D01*
X3792Y136695D01*
X4413Y136818D01*
X4941Y137171D01*
X5293Y137698D01*
X5416Y138320D01*
X5293Y138941D01*
X4941Y139469D01*
X4413Y139821D01*
X3792Y139945D01*
D02*
G37*
G36*
X251810Y140702D02*
X251188Y140578D01*
X250661Y140226D01*
X250309Y139699D01*
X250185Y139077D01*
X250309Y138455D01*
X250661Y137928D01*
X251188Y137576D01*
X251810Y137452D01*
X252432Y137576D01*
X252959Y137928D01*
X253094Y138130D01*
X253224Y138120D01*
X253595Y137980D01*
X253696Y137471D01*
X254048Y136944D01*
X254575Y136592D01*
X255197Y136468D01*
X255819Y136592D01*
X256346Y136944D01*
X256698Y137471D01*
X256822Y138093D01*
X256698Y138715D01*
X256346Y139242D01*
X255819Y139594D01*
X255197Y139718D01*
X254575Y139594D01*
X254048Y139242D01*
X253913Y139040D01*
X253783Y139050D01*
X253412Y139190D01*
X253311Y139699D01*
X252959Y140226D01*
X252432Y140578D01*
X251810Y140702D01*
D02*
G37*
G36*
X138619Y139610D02*
X137997Y139487D01*
X137470Y139134D01*
X137118Y138607D01*
X136994Y137985D01*
X137118Y137364D01*
X137470Y136836D01*
X137997Y136484D01*
X138619Y136361D01*
X139241Y136484D01*
X139768Y136836D01*
X140120Y137364D01*
X140244Y137985D01*
X140120Y138607D01*
X139768Y139134D01*
X139241Y139487D01*
X138619Y139610D01*
D02*
G37*
G36*
X132619D02*
X131997Y139487D01*
X131470Y139134D01*
X131118Y138607D01*
X130994Y137985D01*
X131118Y137364D01*
X131470Y136836D01*
X131997Y136484D01*
X132619Y136361D01*
X133241Y136484D01*
X133768Y136836D01*
X134120Y137364D01*
X134244Y137985D01*
X134120Y138607D01*
X133768Y139134D01*
X133241Y139487D01*
X132619Y139610D01*
D02*
G37*
G36*
X126619D02*
X125997Y139487D01*
X125470Y139134D01*
X125118Y138607D01*
X124994Y137985D01*
X125118Y137364D01*
X125470Y136836D01*
X125997Y136484D01*
X126619Y136361D01*
X127241Y136484D01*
X127768Y136836D01*
X128120Y137364D01*
X128244Y137985D01*
X128120Y138607D01*
X127768Y139134D01*
X127241Y139487D01*
X126619Y139610D01*
D02*
G37*
G36*
X120619D02*
X119997Y139487D01*
X119470Y139134D01*
X119118Y138607D01*
X118994Y137985D01*
X119118Y137364D01*
X119470Y136836D01*
X119997Y136484D01*
X120619Y136361D01*
X121241Y136484D01*
X121768Y136836D01*
X122120Y137364D01*
X122244Y137985D01*
X122120Y138607D01*
X121768Y139134D01*
X121241Y139487D01*
X120619Y139610D01*
D02*
G37*
G36*
X151665Y158902D02*
X144559D01*
Y151796D01*
X147094D01*
Y139180D01*
X147172Y138790D01*
X147392Y138460D01*
X149397Y136455D01*
X149114Y136031D01*
X149040Y136062D01*
X148112Y136184D01*
X147185Y136062D01*
X146320Y135704D01*
X145578Y135134D01*
X145009Y134392D01*
X144651Y133528D01*
X144529Y132601D01*
X144651Y131673D01*
X144971Y130899D01*
X140336Y126264D01*
X140095Y126321D01*
X139832Y126467D01*
X139725Y127002D01*
X139373Y127530D01*
X138846Y127882D01*
X138224Y128005D01*
X137602Y127882D01*
X137075Y127530D01*
X136723Y127002D01*
X136599Y126381D01*
X136723Y125759D01*
X137075Y125232D01*
X137602Y124879D01*
X138138Y124773D01*
X138283Y124510D01*
X138341Y124269D01*
X129481Y115409D01*
X129261Y115079D01*
X129183Y114690D01*
Y109116D01*
X128683Y108964D01*
X128569Y109134D01*
X128042Y109487D01*
X127420Y109610D01*
X126798Y109487D01*
X126271Y109134D01*
X125919Y108607D01*
X125795Y107985D01*
X125919Y107364D01*
X126271Y106836D01*
X126798Y106484D01*
X127420Y106360D01*
X128042Y106484D01*
X128569Y106836D01*
X128683Y107007D01*
X129183Y106855D01*
Y22309D01*
X128717Y21997D01*
X128364Y21470D01*
X128241Y20848D01*
X128364Y20226D01*
X128717Y19699D01*
X129244Y19347D01*
X129865Y19223D01*
X130487Y19347D01*
X131014Y19699D01*
X131367Y20226D01*
X131490Y20848D01*
X131367Y21470D01*
X131219Y21690D01*
Y112448D01*
X131719Y112599D01*
X131743Y112564D01*
X132270Y112211D01*
X132892Y112088D01*
X133514Y112211D01*
X134041Y112564D01*
X134393Y113091D01*
X134517Y113713D01*
X134393Y114334D01*
X134041Y114861D01*
X133514Y115214D01*
X132979Y115320D01*
X132833Y115583D01*
X132775Y115824D01*
X135281Y118329D01*
X135521Y118272D01*
X135784Y118126D01*
X135891Y117591D01*
X136243Y117063D01*
X136770Y116711D01*
X137392Y116587D01*
X138014Y116711D01*
X138541Y117063D01*
X138893Y117591D01*
X139017Y118212D01*
X138893Y118834D01*
X138541Y119361D01*
X138014Y119714D01*
X137479Y119820D01*
X137333Y120083D01*
X137275Y120324D01*
X146411Y129460D01*
X147185Y129139D01*
X148112Y129017D01*
X149040Y129139D01*
X149904Y129497D01*
X150646Y130067D01*
X151216Y130809D01*
X151574Y131673D01*
X151696Y132601D01*
X151574Y133528D01*
X151543Y133602D01*
X151967Y133885D01*
X152442Y133410D01*
Y63334D01*
X152520Y62944D01*
X152740Y62614D01*
X155465Y59889D01*
X155796Y59668D01*
X156046Y59619D01*
X166550Y49114D01*
X166550Y49114D01*
X166880Y48893D01*
X167270Y48816D01*
X173174D01*
X173176Y48813D01*
X173703Y48461D01*
X174325Y48337D01*
X174947Y48461D01*
X175474Y48813D01*
X175768Y49253D01*
X176157Y49362D01*
X176343Y49374D01*
X176550Y49180D01*
X176537Y49113D01*
X176660Y48491D01*
X177013Y47964D01*
X177540Y47612D01*
X178162Y47488D01*
X178783Y47612D01*
X179311Y47964D01*
X179663Y48491D01*
X179786Y49113D01*
X179663Y49735D01*
X179311Y50262D01*
X178783Y50615D01*
X178200Y50731D01*
X177677Y51254D01*
X177659Y51343D01*
X177438Y51673D01*
X176036Y53075D01*
X175706Y53296D01*
X175316Y53373D01*
X173131D01*
X165258Y61246D01*
X165449Y61708D01*
X171665D01*
Y62160D01*
X172165Y62209D01*
X172172Y62176D01*
X172392Y61845D01*
X176360Y57877D01*
Y56766D01*
X176438Y56377D01*
X176658Y56046D01*
X181284Y51421D01*
X181392Y50880D01*
X181744Y50353D01*
X182271Y50001D01*
X182893Y49877D01*
X183515Y50001D01*
X184042Y50353D01*
X184394Y50880D01*
X184518Y51502D01*
X184394Y52124D01*
X184204Y52408D01*
X184412Y52960D01*
X184557Y52988D01*
X185084Y53341D01*
X185437Y53868D01*
X185443Y53902D01*
X185943Y53853D01*
Y14454D01*
X173221Y1731D01*
X170367D01*
X169977Y1654D01*
X169647Y1433D01*
X169178Y965D01*
X169039Y757D01*
X168987Y705D01*
X168818Y738D01*
X168196Y615D01*
X167669Y262D01*
X167316Y-265D01*
X167193Y-887D01*
X167316Y-1508D01*
X167669Y-2036D01*
X168196Y-2388D01*
X168818Y-2512D01*
X169439Y-2388D01*
X169967Y-2036D01*
X170319Y-1508D01*
X170442Y-887D01*
X170415Y-747D01*
X170618Y-544D01*
X170756Y-336D01*
X170788Y-305D01*
X173643D01*
X173697Y-294D01*
X174129Y-689D01*
X174252Y-1311D01*
X174605Y-1838D01*
X175132Y-2190D01*
X175753Y-2314D01*
X176375Y-2190D01*
X176902Y-1838D01*
X177255Y-1311D01*
X177378Y-689D01*
X177353Y-562D01*
X189081Y11166D01*
X189302Y11496D01*
X189380Y11886D01*
X189380Y11886D01*
Y58468D01*
X189444Y58555D01*
X189880Y58830D01*
X190300Y58746D01*
X190922Y58870D01*
X191176Y59040D01*
X191676Y58772D01*
Y10617D01*
X189309Y8250D01*
X189309Y8250D01*
X181964Y905D01*
X181810Y936D01*
X181188Y812D01*
X180661Y460D01*
X180308Y-67D01*
X180185Y-689D01*
X180308Y-1311D01*
X180661Y-1838D01*
X181188Y-2190D01*
X181810Y-2314D01*
X182431Y-2190D01*
X182959Y-1838D01*
X183311Y-1311D01*
X183434Y-689D01*
X183404Y-534D01*
X190748Y6810D01*
X190748Y6810D01*
X192614Y8676D01*
X193076Y8484D01*
Y683D01*
X190626Y-1767D01*
X190471Y-1736D01*
X189849Y-1860D01*
X189322Y-2212D01*
X188970Y-2740D01*
X188846Y-3361D01*
X188970Y-3983D01*
X189322Y-4510D01*
X189849Y-4863D01*
X190471Y-4986D01*
X191093Y-4863D01*
X191620Y-4510D01*
X191972Y-3983D01*
X192096Y-3361D01*
X192065Y-3207D01*
X192993Y-2279D01*
X193382Y-2597D01*
X193301Y-2719D01*
X193177Y-3341D01*
X193301Y-3963D01*
X193653Y-4490D01*
X194180Y-4842D01*
X194802Y-4966D01*
X195424Y-4842D01*
X195951Y-4490D01*
X196303Y-3963D01*
X196427Y-3341D01*
X196396Y-3186D01*
X197061Y-2521D01*
X197522Y-2768D01*
X197444Y-3157D01*
X197568Y-3778D01*
X197920Y-4306D01*
X198447Y-4658D01*
X199069Y-4781D01*
X199691Y-4658D01*
X200218Y-4306D01*
X200570Y-3778D01*
X200694Y-3157D01*
X200663Y-3002D01*
X204576Y910D01*
X204796Y1241D01*
X204874Y1630D01*
Y118160D01*
X204917Y118195D01*
X205538Y118319D01*
X206066Y118671D01*
X206418Y119198D01*
X206541Y119820D01*
X206418Y120442D01*
X206066Y120969D01*
X205538Y121321D01*
X204917Y121445D01*
X204624Y121387D01*
X204185Y121667D01*
X204154Y121764D01*
X204048Y122297D01*
X203696Y122824D01*
X203169Y123176D01*
X202700Y123270D01*
X202511Y123692D01*
X202503Y123780D01*
X204608Y125884D01*
X205117Y125543D01*
X205739Y125420D01*
X206361Y125543D01*
X206888Y125896D01*
X207240Y126423D01*
X207364Y127045D01*
X207240Y127666D01*
X206888Y128194D01*
X206361Y128546D01*
X205739Y128670D01*
X205433Y128609D01*
X205177Y129068D01*
X205440Y129461D01*
X205564Y130083D01*
X205440Y130704D01*
X205088Y131232D01*
X204560Y131584D01*
X204024Y131691D01*
X203905Y131961D01*
X203874Y132191D01*
X204035Y132299D01*
X204388Y132826D01*
X204511Y133448D01*
X204388Y134070D01*
X204035Y134597D01*
X203508Y134950D01*
X202886Y135073D01*
X202265Y134950D01*
X202081Y134827D01*
X201640Y135059D01*
X201627Y135497D01*
X201865Y135655D01*
X202217Y136182D01*
X202341Y136804D01*
X202217Y137426D01*
X202037Y137696D01*
X202021Y137777D01*
X201800Y138107D01*
X201470Y138328D01*
X201080Y138405D01*
X200958Y138381D01*
X200716Y138429D01*
X200094Y138305D01*
X199567Y137953D01*
X199215Y137426D01*
X199091Y136804D01*
X199215Y136182D01*
X199471Y135799D01*
Y134905D01*
X198264Y133699D01*
X197986Y133786D01*
X197772Y133913D01*
X197661Y134472D01*
X197309Y134999D01*
X196781Y135351D01*
X196160Y135475D01*
X195538Y135351D01*
X195010Y134999D01*
X194658Y134472D01*
X194535Y133850D01*
X194658Y133228D01*
X195010Y132701D01*
X195538Y132349D01*
X196096Y132238D01*
X196223Y132023D01*
X196311Y131745D01*
X186264Y121699D01*
X186044Y121369D01*
X185966Y120979D01*
Y97631D01*
X185466Y97364D01*
X185212Y97533D01*
X184591Y97657D01*
X183969Y97533D01*
X183442Y97181D01*
X183089Y96654D01*
X182966Y96032D01*
X183089Y95410D01*
X183442Y94883D01*
X183969Y94531D01*
X184591Y94407D01*
X185212Y94531D01*
X185466Y94700D01*
X185966Y94433D01*
Y82341D01*
X185466Y82074D01*
X185212Y82244D01*
X184591Y82367D01*
X183969Y82244D01*
X183442Y81891D01*
X183089Y81364D01*
X182966Y80742D01*
X183089Y80121D01*
X183442Y79593D01*
X183969Y79241D01*
X184591Y79118D01*
X185212Y79241D01*
X185466Y79411D01*
X185966Y79144D01*
Y63903D01*
X185786Y63723D01*
X185566Y63393D01*
X185488Y63003D01*
Y58800D01*
X185566Y58410D01*
X185786Y58080D01*
X185943Y57923D01*
Y55127D01*
X185443Y55077D01*
X185437Y55111D01*
X185084Y55639D01*
X184953Y55726D01*
Y58404D01*
X184953Y58404D01*
X184876Y58794D01*
X184655Y59124D01*
X184655Y59124D01*
X177641Y66138D01*
Y124090D01*
X177564Y124479D01*
X177343Y124809D01*
X171665Y130488D01*
Y136153D01*
X164559D01*
Y129048D01*
X170225D01*
X175605Y123668D01*
Y65716D01*
X175683Y65327D01*
X175903Y64996D01*
X182917Y57982D01*
Y55726D01*
X182787Y55639D01*
X182434Y55111D01*
X182311Y54490D01*
X182434Y53868D01*
X182456Y53836D01*
X182067Y53517D01*
X178396Y57188D01*
Y58299D01*
X178396Y58299D01*
X178319Y58688D01*
X178098Y59019D01*
X174130Y62987D01*
Y105154D01*
X174053Y105544D01*
X173832Y105874D01*
X171665Y108041D01*
Y113707D01*
X164559D01*
Y106601D01*
X170225D01*
X172094Y104732D01*
Y91431D01*
X171665Y91260D01*
X171594Y91260D01*
X164559D01*
Y84155D01*
X167094D01*
Y76081D01*
X162222Y71208D01*
X162001Y70878D01*
X161924Y70488D01*
Y66650D01*
X161424Y66550D01*
X161215Y67053D01*
X160646Y67795D01*
X159904Y68364D01*
X159040Y68722D01*
X158112Y68844D01*
X157185Y68722D01*
X156321Y68364D01*
X155578Y67795D01*
X155009Y67053D01*
X154978Y66979D01*
X154478Y67078D01*
Y85890D01*
X154978Y85990D01*
X155009Y85916D01*
X155578Y85173D01*
X156321Y84604D01*
X157185Y84246D01*
X158112Y84124D01*
X159040Y84246D01*
X159904Y84604D01*
X160646Y85173D01*
X161215Y85916D01*
X161574Y86780D01*
X161696Y87707D01*
X161574Y88635D01*
X161215Y89499D01*
X160646Y90241D01*
X159904Y90811D01*
X159040Y91169D01*
X158112Y91291D01*
X157185Y91169D01*
X156321Y90811D01*
X155578Y90241D01*
X155009Y89499D01*
X154978Y89425D01*
X154478Y89525D01*
Y108337D01*
X154978Y108436D01*
X155009Y108362D01*
X155578Y107620D01*
X156321Y107051D01*
X157185Y106693D01*
X158112Y106571D01*
X159040Y106693D01*
X159904Y107051D01*
X160646Y107620D01*
X161215Y108362D01*
X161574Y109227D01*
X161696Y110154D01*
X161574Y111081D01*
X161215Y111946D01*
X160646Y112688D01*
X159904Y113257D01*
X159040Y113615D01*
X158112Y113737D01*
X157185Y113615D01*
X156321Y113257D01*
X155578Y112688D01*
X155009Y111946D01*
X154978Y111872D01*
X154478Y111971D01*
Y130783D01*
X154978Y130883D01*
X155009Y130809D01*
X155578Y130067D01*
X156321Y129497D01*
X157185Y129139D01*
X158112Y129017D01*
X159040Y129139D01*
X159904Y129497D01*
X160646Y130067D01*
X161215Y130809D01*
X161574Y131673D01*
X161696Y132601D01*
X161574Y133528D01*
X161215Y134392D01*
X160646Y135134D01*
X159904Y135704D01*
X159040Y136062D01*
X158112Y136184D01*
X157185Y136062D01*
X156321Y135704D01*
X155578Y135134D01*
X155009Y134392D01*
X154919Y134176D01*
X154546Y134162D01*
X154401Y134221D01*
X154180Y134551D01*
X149130Y139601D01*
Y151796D01*
X151665D01*
Y158902D01*
D02*
G37*
G36*
X307417Y138078D02*
X306795Y137954D01*
X306267Y137602D01*
X305915Y137075D01*
X305792Y136453D01*
X305915Y135831D01*
X306267Y135304D01*
X306795Y134952D01*
X307417Y134828D01*
X308038Y134952D01*
X308565Y135304D01*
X308918Y135831D01*
X309042Y136453D01*
X308918Y137075D01*
X308565Y137602D01*
X308038Y137954D01*
X307417Y138078D01*
D02*
G37*
G36*
X258572Y137441D02*
X257951Y137317D01*
X257423Y136965D01*
X257071Y136437D01*
X256947Y135816D01*
X257071Y135194D01*
X257423Y134667D01*
X257951Y134314D01*
X258572Y134191D01*
X259194Y134314D01*
X259721Y134667D01*
X260074Y135194D01*
X260197Y135816D01*
X260074Y136437D01*
X259721Y136965D01*
X259194Y137317D01*
X258572Y137441D01*
D02*
G37*
G36*
X239914Y134813D02*
X239292Y134689D01*
X238765Y134337D01*
X238413Y133809D01*
X238289Y133188D01*
X238409Y132584D01*
X238367Y132526D01*
X238033Y132234D01*
X237828Y132371D01*
X237206Y132495D01*
X236584Y132371D01*
X236057Y132019D01*
X235705Y131492D01*
X235581Y130870D01*
X235705Y130248D01*
X235837Y130051D01*
X235804Y129981D01*
X235506Y129646D01*
X235012Y129744D01*
X234390Y129620D01*
X233863Y129268D01*
X233511Y128741D01*
X233387Y128119D01*
X233511Y127497D01*
X233863Y126970D01*
X233994Y126882D01*
Y68460D01*
X233583Y68379D01*
X233056Y68026D01*
X232704Y67499D01*
X232580Y66877D01*
X232704Y66255D01*
X233056Y65728D01*
X233583Y65376D01*
X234205Y65252D01*
X234827Y65376D01*
X235354Y65728D01*
X235498Y65944D01*
X236029Y65838D01*
X236101Y65477D01*
X236453Y64950D01*
X236980Y64598D01*
X237602Y64474D01*
X238224Y64598D01*
X238751Y64950D01*
X239103Y65477D01*
X239227Y66099D01*
X239103Y66721D01*
X238805Y67167D01*
Y130171D01*
X238814Y130217D01*
Y130279D01*
X238764Y130533D01*
X238831Y130870D01*
X238711Y131474D01*
X238753Y131531D01*
X239087Y131824D01*
X239292Y131686D01*
X239914Y131563D01*
X239931Y131549D01*
Y64920D01*
X239474Y64614D01*
X239122Y64087D01*
X238998Y63465D01*
X239122Y62843D01*
X239474Y62316D01*
X240001Y61964D01*
X240623Y61840D01*
X241245Y61964D01*
X241772Y62316D01*
X242124Y62843D01*
X242248Y63465D01*
X242124Y64087D01*
X241967Y64321D01*
Y132152D01*
X241890Y132542D01*
X241669Y132872D01*
X241508Y133033D01*
X241539Y133188D01*
X241415Y133809D01*
X241063Y134337D01*
X240536Y134689D01*
X239914Y134813D01*
D02*
G37*
G36*
X323689Y212635D02*
X322731Y212509D01*
X321838Y212139D01*
X321071Y211551D01*
X320483Y210784D01*
X320113Y209891D01*
X319987Y208933D01*
X320113Y207974D01*
X320483Y207081D01*
X321071Y206314D01*
X321838Y205726D01*
X322671Y205381D01*
Y138839D01*
X315506Y131674D01*
X315335Y131708D01*
X314713Y131584D01*
X314186Y131232D01*
X313834Y130704D01*
X313710Y130083D01*
X313834Y129461D01*
X314186Y128934D01*
X314713Y128581D01*
X315335Y128458D01*
X315957Y128581D01*
X316484Y128934D01*
X316836Y129461D01*
X316960Y130083D01*
X316932Y130221D01*
X324409Y137698D01*
X324630Y138028D01*
X324707Y138417D01*
Y205381D01*
X325541Y205726D01*
X326308Y206314D01*
X326896Y207081D01*
X327266Y207974D01*
X327392Y208933D01*
X327266Y209891D01*
X326896Y210784D01*
X326308Y211551D01*
X325541Y212139D01*
X324648Y212509D01*
X323689Y212635D01*
D02*
G37*
G36*
X367375Y134327D02*
X366754Y134204D01*
X366227Y133851D01*
X365874Y133324D01*
X365751Y132702D01*
X365805Y132427D01*
X362722Y129344D01*
X362524Y129047D01*
X362454Y128697D01*
Y100721D01*
X359817D01*
Y93615D01*
X366923D01*
Y100721D01*
X364286D01*
Y128317D01*
X367101Y131132D01*
X367375Y131077D01*
X367997Y131201D01*
X368524Y131553D01*
X368877Y132080D01*
X369000Y132702D01*
X368877Y133324D01*
X368524Y133851D01*
X367997Y134204D01*
X367375Y134327D01*
D02*
G37*
G36*
X18792Y133944D02*
X18170Y133821D01*
X17643Y133469D01*
X17290Y132941D01*
X17167Y132320D01*
X17290Y131698D01*
X17643Y131171D01*
X18170Y130818D01*
X18792Y130695D01*
X19413Y130818D01*
X19941Y131171D01*
X20293Y131698D01*
X20416Y132320D01*
X20293Y132941D01*
X19941Y133469D01*
X19413Y133821D01*
X18792Y133944D01*
D02*
G37*
G36*
X12792D02*
X12170Y133821D01*
X11643Y133469D01*
X11290Y132941D01*
X11167Y132320D01*
X11290Y131698D01*
X11643Y131171D01*
X12170Y130818D01*
X12792Y130695D01*
X13413Y130818D01*
X13941Y131171D01*
X14293Y131698D01*
X14416Y132320D01*
X14293Y132941D01*
X13941Y133469D01*
X13413Y133821D01*
X12792Y133944D01*
D02*
G37*
G36*
X6792D02*
X6170Y133821D01*
X5643Y133469D01*
X5290Y132941D01*
X5167Y132320D01*
X5290Y131698D01*
X5643Y131171D01*
X6170Y130818D01*
X6792Y130695D01*
X7413Y130818D01*
X7941Y131171D01*
X8293Y131698D01*
X8416Y132320D01*
X8293Y132941D01*
X7941Y133469D01*
X7413Y133821D01*
X6792Y133944D01*
D02*
G37*
G36*
X792D02*
X170Y133821D01*
X-357Y133469D01*
X-710Y132941D01*
X-833Y132320D01*
X-710Y131698D01*
X-357Y131171D01*
X170Y130818D01*
X792Y130695D01*
X1413Y130818D01*
X1941Y131171D01*
X2293Y131698D01*
X2417Y132320D01*
X2293Y132941D01*
X1941Y133469D01*
X1413Y133821D01*
X792Y133944D01*
D02*
G37*
G36*
X312902Y212635D02*
X311944Y212509D01*
X311051Y212139D01*
X310284Y211551D01*
X309696Y210784D01*
X309326Y209891D01*
X309200Y208933D01*
X309326Y207974D01*
X309696Y207081D01*
X310284Y206314D01*
X311051Y205726D01*
X311884Y205381D01*
Y134591D01*
X307701Y130408D01*
X307530Y130443D01*
X306908Y130319D01*
X306381Y129966D01*
X306029Y129439D01*
X305905Y128817D01*
X306029Y128196D01*
X306073Y128129D01*
X305685Y127810D01*
X301238Y132257D01*
X301155Y132673D01*
X300803Y133200D01*
X300276Y133552D01*
X299654Y133676D01*
X299032Y133552D01*
X298505Y133200D01*
X298153Y132673D01*
X298029Y132051D01*
X298153Y131429D01*
X298505Y130902D01*
X299032Y130550D01*
X299654Y130426D01*
X300101Y130515D01*
X308909Y121707D01*
X309239Y121486D01*
X309629Y121409D01*
X316676D01*
X316783Y121302D01*
Y105119D01*
X316283Y104968D01*
X316271Y104986D01*
X315744Y105338D01*
X315122Y105462D01*
X314500Y105338D01*
X313973Y104986D01*
X313621Y104458D01*
X313497Y103837D01*
X313621Y103215D01*
X313947Y102726D01*
X313961Y102598D01*
X313928Y102357D01*
X313436Y102122D01*
X313316Y102203D01*
X312694Y102326D01*
X312072Y102203D01*
X311545Y101850D01*
X311193Y101323D01*
X311069Y100701D01*
X311167Y100210D01*
X302905Y91948D01*
X302684Y91618D01*
X302607Y91228D01*
Y87975D01*
X302107Y87707D01*
X301853Y87877D01*
X301653Y87917D01*
X301389Y88423D01*
X301513Y89044D01*
X301389Y89666D01*
X301037Y90193D01*
X300510Y90546D01*
X299888Y90669D01*
X299266Y90546D01*
X298739Y90193D01*
X298387Y89666D01*
X298263Y89044D01*
X298347Y88624D01*
X294725Y85002D01*
X294504Y84672D01*
X294426Y84282D01*
Y54771D01*
X293926Y54564D01*
X291134Y57356D01*
X291165Y57511D01*
X291041Y58132D01*
X290689Y58659D01*
X290162Y59012D01*
X289540Y59135D01*
X288918Y59012D01*
X288391Y58659D01*
X288039Y58132D01*
X287915Y57511D01*
X288039Y56889D01*
X288391Y56362D01*
X288918Y56009D01*
X289540Y55886D01*
X289695Y55916D01*
X292516Y53094D01*
Y29243D01*
X288423Y25149D01*
X288268Y25180D01*
X287647Y25056D01*
X287119Y24704D01*
X286767Y24177D01*
X286643Y23555D01*
X286767Y22933D01*
X287119Y22406D01*
X287647Y22054D01*
X288268Y21930D01*
X288890Y22054D01*
X289417Y22406D01*
X289770Y22933D01*
X289893Y23555D01*
X289862Y23709D01*
X293926Y27773D01*
X294426Y27566D01*
Y-4508D01*
X294504Y-4898D01*
X294725Y-5228D01*
X300869Y-11372D01*
X300869Y-11372D01*
X300941Y-11421D01*
X300996Y-11699D01*
X301348Y-12226D01*
X301876Y-12578D01*
X302497Y-12702D01*
X303119Y-12578D01*
X303646Y-12226D01*
X303999Y-11699D01*
X304122Y-11077D01*
X303999Y-10455D01*
X303646Y-9928D01*
X303505Y-9833D01*
Y-9333D01*
X303646Y-9238D01*
X303999Y-8711D01*
X304122Y-8089D01*
X303999Y-7468D01*
X303646Y-6940D01*
X303119Y-6588D01*
X302497Y-6464D01*
X302343Y-6495D01*
X297862Y-2015D01*
Y81568D01*
X301076Y84782D01*
X301231Y84751D01*
X301853Y84875D01*
X302107Y85044D01*
X302607Y84777D01*
Y53636D01*
X302290Y53425D01*
X301938Y52898D01*
X301815Y52276D01*
X301938Y51654D01*
X302290Y51127D01*
X302818Y50775D01*
X303439Y50651D01*
X304061Y50775D01*
X304588Y51127D01*
X304941Y51654D01*
X305064Y52276D01*
X304941Y52898D01*
X304643Y53344D01*
Y56533D01*
X305142Y56685D01*
X305358Y56362D01*
X305886Y56009D01*
X306507Y55886D01*
X307129Y56009D01*
X307656Y56362D01*
X308009Y56889D01*
X308132Y57511D01*
X308009Y58132D01*
X307711Y58578D01*
Y89621D01*
X312680Y94590D01*
X312694Y94587D01*
X313316Y94711D01*
X313604Y94903D01*
X314104Y94636D01*
Y59301D01*
X307030Y52227D01*
X306834Y52267D01*
X306212Y52143D01*
X305685Y51791D01*
X305333Y51263D01*
X305209Y50642D01*
X305333Y50020D01*
X305685Y49493D01*
X306212Y49141D01*
X306834Y49017D01*
X307456Y49141D01*
X307983Y49493D01*
X308335Y50020D01*
X308459Y50642D01*
X308436Y50754D01*
X315842Y58160D01*
X316062Y58490D01*
X316140Y58879D01*
Y102227D01*
X316283Y102333D01*
X316783Y102081D01*
Y75015D01*
X316860Y74626D01*
X316866Y74617D01*
X316848Y74526D01*
X316972Y73904D01*
X317324Y73377D01*
X317851Y73025D01*
X318473Y72901D01*
X319095Y73025D01*
X319622Y73377D01*
X319974Y73904D01*
X320098Y74526D01*
X319974Y75148D01*
X319622Y75675D01*
X319095Y76027D01*
X318819Y76082D01*
Y121724D01*
X318741Y122113D01*
X318521Y122444D01*
X317818Y123147D01*
X317488Y123367D01*
X317098Y123445D01*
X310051D01*
X306523Y126972D01*
X306842Y127361D01*
X306908Y127316D01*
X307530Y127193D01*
X308152Y127316D01*
X308679Y127669D01*
X309031Y128196D01*
X309155Y128817D01*
X309127Y128956D01*
X313622Y133450D01*
X313843Y133780D01*
X313920Y134170D01*
Y205381D01*
X314753Y205726D01*
X315520Y206314D01*
X316108Y207081D01*
X316478Y207974D01*
X316604Y208933D01*
X316478Y209891D01*
X316108Y210784D01*
X315520Y211551D01*
X314753Y212139D01*
X313860Y212509D01*
X312902Y212635D01*
D02*
G37*
G36*
X141619Y133610D02*
X140997Y133487D01*
X140470Y133134D01*
X140118Y132607D01*
X139994Y131985D01*
X140118Y131364D01*
X140470Y130836D01*
X140997Y130484D01*
X141619Y130360D01*
X142241Y130484D01*
X142768Y130836D01*
X143120Y131364D01*
X143244Y131985D01*
X143120Y132607D01*
X142768Y133134D01*
X142241Y133487D01*
X141619Y133610D01*
D02*
G37*
G36*
X135619D02*
X134997Y133487D01*
X134470Y133134D01*
X134118Y132607D01*
X133994Y131985D01*
X134118Y131364D01*
X134470Y130836D01*
X134997Y130484D01*
X135619Y130360D01*
X136241Y130484D01*
X136768Y130836D01*
X137120Y131364D01*
X137244Y131985D01*
X137120Y132607D01*
X136768Y133134D01*
X136241Y133487D01*
X135619Y133610D01*
D02*
G37*
G36*
X129619D02*
X128997Y133487D01*
X128470Y133134D01*
X128118Y132607D01*
X127994Y131985D01*
X128118Y131364D01*
X128470Y130836D01*
X128997Y130484D01*
X129619Y130360D01*
X130241Y130484D01*
X130768Y130836D01*
X131120Y131364D01*
X131244Y131985D01*
X131120Y132607D01*
X130768Y133134D01*
X130241Y133487D01*
X129619Y133610D01*
D02*
G37*
G36*
X123619D02*
X122997Y133487D01*
X122470Y133134D01*
X122118Y132607D01*
X121994Y131985D01*
X122118Y131364D01*
X122470Y130836D01*
X122997Y130484D01*
X123619Y130360D01*
X124241Y130484D01*
X124768Y130836D01*
X125120Y131364D01*
X125244Y131985D01*
X125120Y132607D01*
X124768Y133134D01*
X124241Y133487D01*
X123619Y133610D01*
D02*
G37*
G36*
X109867Y276549D02*
X102407D01*
Y269090D01*
X106481D01*
X125937Y249633D01*
X125937Y249633D01*
X148397Y227173D01*
Y193173D01*
X147749Y192525D01*
X140480D01*
X139564Y192343D01*
X138787Y191824D01*
X112182Y165219D01*
X111663Y164442D01*
X111481Y163526D01*
Y88517D01*
X109707Y86743D01*
X109188Y85966D01*
X109006Y85050D01*
Y74856D01*
Y71868D01*
Y68966D01*
X109188Y68050D01*
X109707Y67273D01*
X110484Y66754D01*
X111400Y66572D01*
X112317Y66754D01*
X113094Y67273D01*
X113518Y67908D01*
X113976Y67969D01*
X114096Y67942D01*
X114151Y67860D01*
X114679Y67508D01*
X115300Y67384D01*
X115922Y67508D01*
X116449Y67860D01*
X116802Y68387D01*
X116925Y69009D01*
X116802Y69631D01*
X116454Y70152D01*
X116380Y70271D01*
Y70704D01*
X116403Y70719D01*
X116755Y71246D01*
X116879Y71868D01*
X116755Y72490D01*
X116403Y73017D01*
X116261Y73112D01*
Y73612D01*
X116403Y73707D01*
X116755Y74234D01*
X116879Y74856D01*
X116755Y75478D01*
X116403Y76005D01*
X115875Y76357D01*
X115254Y76481D01*
X114632Y76357D01*
X114295Y76132D01*
X113795Y76373D01*
Y84058D01*
X115569Y85832D01*
X116088Y86609D01*
X116270Y87525D01*
Y106369D01*
X116770Y106636D01*
X116997Y106484D01*
X117619Y106360D01*
X118241Y106484D01*
X118768Y106836D01*
X119120Y107364D01*
X119244Y107985D01*
X119120Y108607D01*
X118768Y109134D01*
X118241Y109487D01*
X117619Y109610D01*
X116997Y109487D01*
X116770Y109335D01*
X116270Y109602D01*
Y118369D01*
X116770Y118636D01*
X116997Y118484D01*
X117619Y118360D01*
X118241Y118484D01*
X118768Y118836D01*
X119120Y119364D01*
X119244Y119985D01*
X119120Y120607D01*
X118768Y121134D01*
X118241Y121487D01*
X117619Y121610D01*
X116997Y121487D01*
X116770Y121335D01*
X116270Y121602D01*
Y130369D01*
X116770Y130636D01*
X116997Y130484D01*
X117619Y130360D01*
X118241Y130484D01*
X118768Y130836D01*
X119120Y131364D01*
X119244Y131985D01*
X119120Y132607D01*
X118768Y133134D01*
X118241Y133487D01*
X117619Y133610D01*
X116997Y133487D01*
X116770Y133335D01*
X116270Y133602D01*
Y162534D01*
X141472Y187736D01*
X148741D01*
X149658Y187918D01*
X150435Y188437D01*
X152485Y190488D01*
X153004Y191264D01*
X153186Y192181D01*
Y228165D01*
X153004Y229081D01*
X152485Y229858D01*
X129323Y253019D01*
X109867Y272476D01*
Y276549D01*
D02*
G37*
G36*
X448536Y133102D02*
X447914Y132978D01*
X447387Y132626D01*
X447035Y132099D01*
X446911Y131477D01*
X447035Y130856D01*
X447387Y130328D01*
X447914Y129976D01*
X448536Y129852D01*
X449158Y129976D01*
X449685Y130328D01*
X450037Y130856D01*
X450161Y131477D01*
X450037Y132099D01*
X449685Y132626D01*
X449158Y132978D01*
X448536Y133102D01*
D02*
G37*
G36*
X15792Y127945D02*
X15170Y127821D01*
X14643Y127469D01*
X14290Y126941D01*
X14167Y126320D01*
X14290Y125698D01*
X14643Y125171D01*
X15170Y124818D01*
X15792Y124695D01*
X16413Y124818D01*
X16941Y125171D01*
X17293Y125698D01*
X17416Y126320D01*
X17293Y126941D01*
X16941Y127469D01*
X16413Y127821D01*
X15792Y127945D01*
D02*
G37*
G36*
X9792D02*
X9170Y127821D01*
X8643Y127469D01*
X8290Y126941D01*
X8167Y126320D01*
X8290Y125698D01*
X8643Y125171D01*
X9170Y124818D01*
X9792Y124695D01*
X10413Y124818D01*
X10941Y125171D01*
X11293Y125698D01*
X11417Y126320D01*
X11293Y126941D01*
X10941Y127469D01*
X10413Y127821D01*
X9792Y127945D01*
D02*
G37*
G36*
X3792D02*
X3170Y127821D01*
X2643Y127469D01*
X2290Y126941D01*
X2167Y126320D01*
X2290Y125698D01*
X2643Y125171D01*
X3170Y124818D01*
X3792Y124695D01*
X4413Y124818D01*
X4941Y125171D01*
X5293Y125698D01*
X5416Y126320D01*
X5293Y126941D01*
X4941Y127469D01*
X4413Y127821D01*
X3792Y127945D01*
D02*
G37*
G36*
X440245Y127713D02*
X439623Y127590D01*
X439096Y127237D01*
X438744Y126710D01*
X438620Y126088D01*
X438744Y125467D01*
X439096Y124939D01*
X439623Y124587D01*
X440245Y124463D01*
X440867Y124587D01*
X441394Y124939D01*
X441746Y125467D01*
X441870Y126088D01*
X441746Y126710D01*
X441394Y127237D01*
X440867Y127590D01*
X440245Y127713D01*
D02*
G37*
G36*
X132619Y127610D02*
X131997Y127487D01*
X131470Y127134D01*
X131118Y126607D01*
X130994Y125985D01*
X131118Y125364D01*
X131470Y124836D01*
X131997Y124484D01*
X132619Y124361D01*
X133241Y124484D01*
X133768Y124836D01*
X134120Y125364D01*
X134244Y125985D01*
X134120Y126607D01*
X133768Y127134D01*
X133241Y127487D01*
X132619Y127610D01*
D02*
G37*
G36*
X126619D02*
X125997Y127487D01*
X125470Y127134D01*
X125118Y126607D01*
X124994Y125985D01*
X125118Y125364D01*
X125470Y124836D01*
X125997Y124484D01*
X126619Y124361D01*
X127241Y124484D01*
X127768Y124836D01*
X128120Y125364D01*
X128244Y125985D01*
X128120Y126607D01*
X127768Y127134D01*
X127241Y127487D01*
X126619Y127610D01*
D02*
G37*
G36*
X120619D02*
X119997Y127487D01*
X119470Y127134D01*
X119118Y126607D01*
X118994Y125985D01*
X119118Y125364D01*
X119470Y124836D01*
X119997Y124484D01*
X120619Y124361D01*
X121241Y124484D01*
X121768Y124836D01*
X122120Y125364D01*
X122244Y125985D01*
X122120Y126607D01*
X121768Y127134D01*
X121241Y127487D01*
X120619Y127610D01*
D02*
G37*
G36*
X429398Y127463D02*
X428776Y127340D01*
X428249Y126988D01*
X427897Y126460D01*
X427773Y125839D01*
X427897Y125217D01*
X428249Y124690D01*
X428776Y124337D01*
X429398Y124214D01*
X430020Y124337D01*
X430547Y124690D01*
X430899Y125217D01*
X431023Y125839D01*
X430899Y126460D01*
X430547Y126988D01*
X430020Y127340D01*
X429398Y127463D01*
D02*
G37*
G36*
X418357Y127356D02*
X417735Y127232D01*
X417207Y126880D01*
X416855Y126352D01*
X416732Y125731D01*
X416855Y125109D01*
X417207Y124582D01*
X417735Y124229D01*
X418357Y124106D01*
X418978Y124229D01*
X419506Y124582D01*
X419858Y125109D01*
X419981Y125731D01*
X419858Y126352D01*
X419506Y126880D01*
X418978Y127232D01*
X418357Y127356D01*
D02*
G37*
G36*
X451906Y127279D02*
X451285Y127156D01*
X450757Y126804D01*
X450405Y126276D01*
X450281Y125655D01*
X450405Y125033D01*
X450757Y124506D01*
X451285Y124153D01*
X451906Y124030D01*
X452528Y124153D01*
X453055Y124506D01*
X453407Y125033D01*
X453531Y125655D01*
X453407Y126276D01*
X453055Y126804D01*
X452528Y127156D01*
X451906Y127279D01*
D02*
G37*
G36*
X464330Y147592D02*
X463413Y147410D01*
X462637Y146891D01*
X462117Y146114D01*
X461935Y145198D01*
Y125712D01*
X462117Y124795D01*
X462637Y124019D01*
X463413Y123500D01*
X464330Y123317D01*
X465246Y123500D01*
X466023Y124019D01*
X466542Y124795D01*
X466724Y125712D01*
Y145198D01*
X466542Y146114D01*
X466023Y146891D01*
X465246Y147410D01*
X464330Y147592D01*
D02*
G37*
G36*
X477111Y122485D02*
X476489Y122362D01*
X475962Y122009D01*
X475610Y121482D01*
X475486Y120860D01*
X475610Y120238D01*
X475962Y119711D01*
X476489Y119359D01*
X477111Y119235D01*
X477733Y119359D01*
X478260Y119711D01*
X478612Y120238D01*
X478736Y120860D01*
X478612Y121482D01*
X478260Y122009D01*
X477733Y122362D01*
X477111Y122485D01*
D02*
G37*
G36*
X24792Y121944D02*
X24170Y121821D01*
X23643Y121469D01*
X23290Y120941D01*
X23167Y120320D01*
X23290Y119698D01*
X23643Y119171D01*
X24170Y118818D01*
X24792Y118695D01*
X25413Y118818D01*
X25941Y119171D01*
X26293Y119698D01*
X26417Y120320D01*
X26293Y120941D01*
X25941Y121469D01*
X25413Y121821D01*
X24792Y121944D01*
D02*
G37*
G36*
X18792D02*
X18170Y121821D01*
X17643Y121469D01*
X17290Y120941D01*
X17167Y120320D01*
X17290Y119698D01*
X17643Y119171D01*
X18170Y118818D01*
X18792Y118695D01*
X19413Y118818D01*
X19941Y119171D01*
X20293Y119698D01*
X20416Y120320D01*
X20293Y120941D01*
X19941Y121469D01*
X19413Y121821D01*
X18792Y121944D01*
D02*
G37*
G36*
X12792D02*
X12170Y121821D01*
X11643Y121469D01*
X11290Y120941D01*
X11167Y120320D01*
X11290Y119698D01*
X11643Y119171D01*
X12170Y118818D01*
X12792Y118695D01*
X13413Y118818D01*
X13941Y119171D01*
X14293Y119698D01*
X14416Y120320D01*
X14293Y120941D01*
X13941Y121469D01*
X13413Y121821D01*
X12792Y121944D01*
D02*
G37*
G36*
X6792D02*
X6170Y121821D01*
X5643Y121469D01*
X5290Y120941D01*
X5167Y120320D01*
X5290Y119698D01*
X5643Y119171D01*
X6170Y118818D01*
X6792Y118695D01*
X7413Y118818D01*
X7941Y119171D01*
X8293Y119698D01*
X8416Y120320D01*
X8293Y120941D01*
X7941Y121469D01*
X7413Y121821D01*
X6792Y121944D01*
D02*
G37*
G36*
X792D02*
X170Y121821D01*
X-357Y121469D01*
X-710Y120941D01*
X-833Y120320D01*
X-710Y119698D01*
X-357Y119171D01*
X170Y118818D01*
X792Y118695D01*
X1413Y118818D01*
X1941Y119171D01*
X2293Y119698D01*
X2417Y120320D01*
X2293Y120941D01*
X1941Y121469D01*
X1413Y121821D01*
X792Y121944D01*
D02*
G37*
G36*
X141619Y121610D02*
X140997Y121487D01*
X140470Y121134D01*
X140118Y120607D01*
X139994Y119985D01*
X140118Y119364D01*
X140470Y118836D01*
X140997Y118484D01*
X141619Y118360D01*
X142241Y118484D01*
X142768Y118836D01*
X143120Y119364D01*
X143244Y119985D01*
X143120Y120607D01*
X142768Y121134D01*
X142241Y121487D01*
X141619Y121610D01*
D02*
G37*
G36*
X129619D02*
X128997Y121487D01*
X128470Y121134D01*
X128118Y120607D01*
X127994Y119985D01*
X128118Y119364D01*
X128470Y118836D01*
X128997Y118484D01*
X129619Y118360D01*
X130241Y118484D01*
X130768Y118836D01*
X131120Y119364D01*
X131244Y119985D01*
X131120Y120607D01*
X130768Y121134D01*
X130241Y121487D01*
X129619Y121610D01*
D02*
G37*
G36*
X123619D02*
X122997Y121487D01*
X122470Y121134D01*
X122118Y120607D01*
X121994Y119985D01*
X122118Y119364D01*
X122470Y118836D01*
X122997Y118484D01*
X123619Y118360D01*
X124241Y118484D01*
X124768Y118836D01*
X125120Y119364D01*
X125244Y119985D01*
X125120Y120607D01*
X124768Y121134D01*
X124241Y121487D01*
X123619Y121610D01*
D02*
G37*
G36*
X453486Y118606D02*
X452864Y118483D01*
X452337Y118131D01*
X451985Y117603D01*
X451861Y116981D01*
X451985Y116360D01*
X452337Y115832D01*
X452864Y115480D01*
X453486Y115357D01*
X454108Y115480D01*
X454635Y115832D01*
X454987Y116360D01*
X455111Y116981D01*
X454987Y117603D01*
X454635Y118131D01*
X454108Y118483D01*
X453486Y118606D01*
D02*
G37*
G36*
X441264D02*
X440642Y118483D01*
X440115Y118131D01*
X439763Y117603D01*
X439639Y116981D01*
X439763Y116360D01*
X440115Y115832D01*
X440642Y115480D01*
X441264Y115357D01*
X441886Y115480D01*
X442413Y115832D01*
X442765Y116360D01*
X442889Y116981D01*
X442765Y117603D01*
X442413Y118131D01*
X441886Y118483D01*
X441264Y118606D01*
D02*
G37*
G36*
X418357Y118463D02*
X417735Y118339D01*
X417207Y117987D01*
X416855Y117460D01*
X416732Y116838D01*
X416855Y116216D01*
X417207Y115689D01*
X417735Y115337D01*
X418357Y115213D01*
X418978Y115337D01*
X419506Y115689D01*
X419858Y116216D01*
X419981Y116838D01*
X419858Y117460D01*
X419506Y117987D01*
X418978Y118339D01*
X418357Y118463D01*
D02*
G37*
G36*
X464600Y118319D02*
X463978Y118195D01*
X463451Y117843D01*
X463099Y117316D01*
X462975Y116694D01*
X463099Y116072D01*
X463451Y115545D01*
X463978Y115193D01*
X464600Y115069D01*
X465222Y115193D01*
X465749Y115545D01*
X466101Y116072D01*
X466225Y116694D01*
X466101Y117316D01*
X465749Y117843D01*
X465222Y118195D01*
X464600Y118319D01*
D02*
G37*
G36*
X429549Y118107D02*
X428927Y117983D01*
X428400Y117631D01*
X428048Y117104D01*
X427924Y116482D01*
X428048Y115860D01*
X428400Y115333D01*
X428927Y114981D01*
X429549Y114857D01*
X430171Y114981D01*
X430698Y115333D01*
X431050Y115860D01*
X431174Y116482D01*
X431050Y117104D01*
X430698Y117631D01*
X430171Y117983D01*
X429549Y118107D01*
D02*
G37*
G36*
X358698Y117906D02*
X358076Y117782D01*
X357549Y117430D01*
X357196Y116903D01*
X357073Y116281D01*
X357196Y115659D01*
X357549Y115132D01*
X358076Y114780D01*
X358698Y114656D01*
X359319Y114780D01*
X359846Y115132D01*
X360199Y115659D01*
X360322Y116281D01*
X360199Y116903D01*
X359846Y117430D01*
X359319Y117782D01*
X358698Y117906D01*
D02*
G37*
G36*
X507339Y116455D02*
X506717Y116331D01*
X506190Y115979D01*
X505838Y115451D01*
X505714Y114830D01*
X505838Y114208D01*
X506190Y113681D01*
X506717Y113328D01*
X507339Y113205D01*
X507961Y113328D01*
X508488Y113681D01*
X508840Y114208D01*
X508964Y114830D01*
X508840Y115451D01*
X508488Y115979D01*
X507961Y116331D01*
X507339Y116455D01*
D02*
G37*
G36*
X27792Y115945D02*
X27170Y115821D01*
X26643Y115469D01*
X26290Y114941D01*
X26167Y114320D01*
X26290Y113698D01*
X26643Y113171D01*
X27170Y112818D01*
X27792Y112695D01*
X28413Y112818D01*
X28941Y113171D01*
X29293Y113698D01*
X29416Y114320D01*
X29293Y114941D01*
X28941Y115469D01*
X28413Y115821D01*
X27792Y115945D01*
D02*
G37*
G36*
X21792D02*
X21170Y115821D01*
X20643Y115469D01*
X20290Y114941D01*
X20167Y114320D01*
X20290Y113698D01*
X20643Y113171D01*
X21170Y112818D01*
X21792Y112695D01*
X22413Y112818D01*
X22941Y113171D01*
X23293Y113698D01*
X23416Y114320D01*
X23293Y114941D01*
X22941Y115469D01*
X22413Y115821D01*
X21792Y115945D01*
D02*
G37*
G36*
X15792D02*
X15170Y115821D01*
X14643Y115469D01*
X14290Y114941D01*
X14167Y114320D01*
X14290Y113698D01*
X14643Y113171D01*
X15170Y112818D01*
X15792Y112695D01*
X16413Y112818D01*
X16941Y113171D01*
X17293Y113698D01*
X17416Y114320D01*
X17293Y114941D01*
X16941Y115469D01*
X16413Y115821D01*
X15792Y115945D01*
D02*
G37*
G36*
X9792D02*
X9170Y115821D01*
X8643Y115469D01*
X8290Y114941D01*
X8167Y114320D01*
X8290Y113698D01*
X8643Y113171D01*
X9170Y112818D01*
X9792Y112695D01*
X10413Y112818D01*
X10941Y113171D01*
X11293Y113698D01*
X11417Y114320D01*
X11293Y114941D01*
X10941Y115469D01*
X10413Y115821D01*
X9792Y115945D01*
D02*
G37*
G36*
X3792D02*
X3170Y115821D01*
X2643Y115469D01*
X2290Y114941D01*
X2167Y114320D01*
X2290Y113698D01*
X2643Y113171D01*
X3170Y112818D01*
X3792Y112695D01*
X4413Y112818D01*
X4941Y113171D01*
X5293Y113698D01*
X5416Y114320D01*
X5293Y114941D01*
X4941Y115469D01*
X4413Y115821D01*
X3792Y115945D01*
D02*
G37*
G36*
X138619Y115610D02*
X137997Y115487D01*
X137470Y115134D01*
X137118Y114607D01*
X136994Y113985D01*
X137118Y113364D01*
X137470Y112836D01*
X137997Y112484D01*
X138619Y112361D01*
X139241Y112484D01*
X139768Y112836D01*
X140120Y113364D01*
X140244Y113985D01*
X140120Y114607D01*
X139768Y115134D01*
X139241Y115487D01*
X138619Y115610D01*
D02*
G37*
G36*
X126619D02*
X125997Y115487D01*
X125470Y115134D01*
X125118Y114607D01*
X124994Y113985D01*
X125118Y113364D01*
X125470Y112836D01*
X125997Y112484D01*
X126619Y112361D01*
X127241Y112484D01*
X127768Y112836D01*
X128120Y113364D01*
X128244Y113985D01*
X128120Y114607D01*
X127768Y115134D01*
X127241Y115487D01*
X126619Y115610D01*
D02*
G37*
G36*
X120619D02*
X119997Y115487D01*
X119470Y115134D01*
X119118Y114607D01*
X118994Y113985D01*
X119118Y113364D01*
X119470Y112836D01*
X119997Y112484D01*
X120619Y112361D01*
X121241Y112484D01*
X121768Y112836D01*
X122120Y113364D01*
X122244Y113985D01*
X122120Y114607D01*
X121768Y115134D01*
X121241Y115487D01*
X120619Y115610D01*
D02*
G37*
G36*
X299439Y114707D02*
X298817Y114584D01*
X298290Y114231D01*
X297937Y113704D01*
X297814Y113082D01*
X297937Y112461D01*
X298290Y111933D01*
X298817Y111581D01*
X299439Y111458D01*
X300060Y111581D01*
X300588Y111933D01*
X300940Y112461D01*
X301063Y113082D01*
X300940Y113704D01*
X300588Y114231D01*
X300060Y114584D01*
X299439Y114707D01*
D02*
G37*
G36*
X303861Y114451D02*
X303239Y114327D01*
X302712Y113975D01*
X302360Y113447D01*
X302236Y112826D01*
X302360Y112204D01*
X302712Y111677D01*
X303239Y111325D01*
X303861Y111201D01*
X304483Y111325D01*
X305010Y111677D01*
X305362Y112204D01*
X305486Y112826D01*
X305362Y113447D01*
X305010Y113975D01*
X304483Y114327D01*
X303861Y114451D01*
D02*
G37*
G36*
X434429Y114156D02*
X433807Y114033D01*
X433280Y113681D01*
X432928Y113153D01*
X432804Y112532D01*
X432928Y111910D01*
X433280Y111383D01*
X433807Y111030D01*
X434429Y110907D01*
X435051Y111030D01*
X435578Y111383D01*
X435930Y111910D01*
X436054Y112532D01*
X435930Y113153D01*
X435578Y113681D01*
X435051Y114033D01*
X434429Y114156D01*
D02*
G37*
G36*
Y144149D02*
X433807Y144025D01*
X433280Y143673D01*
X432928Y143146D01*
X432804Y142524D01*
X432928Y141902D01*
X433280Y141375D01*
X433411Y141288D01*
Y139750D01*
X433488Y139361D01*
X433709Y139030D01*
X445269Y127470D01*
Y113424D01*
X445138Y113337D01*
X444786Y112810D01*
X444662Y112188D01*
X444786Y111566D01*
X445138Y111039D01*
X445665Y110687D01*
X446287Y110563D01*
X446909Y110687D01*
X447436Y111039D01*
X447788Y111566D01*
X447912Y112188D01*
X447788Y112810D01*
X447436Y113337D01*
X447305Y113424D01*
Y127892D01*
X447305Y127892D01*
X447228Y128281D01*
X447007Y128612D01*
X447007Y128612D01*
X435447Y140172D01*
Y141288D01*
X435578Y141375D01*
X435930Y141902D01*
X436054Y142524D01*
X435930Y143146D01*
X435578Y143673D01*
X435051Y144025D01*
X434429Y144149D01*
D02*
G37*
G36*
X517429Y112188D02*
X516808Y112064D01*
X516280Y111712D01*
X515928Y111185D01*
X515804Y110563D01*
X515928Y109941D01*
X516280Y109414D01*
X516808Y109062D01*
X517429Y108938D01*
X518051Y109062D01*
X518578Y109414D01*
X518931Y109941D01*
X519054Y110563D01*
X518931Y111185D01*
X518578Y111712D01*
X518051Y112064D01*
X517429Y112188D01*
D02*
G37*
G36*
X148112Y113737D02*
X147185Y113615D01*
X146320Y113257D01*
X145578Y112688D01*
X145009Y111946D01*
X144651Y111081D01*
X144529Y110154D01*
X144651Y109227D01*
X144971Y108453D01*
X143399Y106880D01*
X143010Y107199D01*
X143120Y107364D01*
X143244Y107985D01*
X143120Y108607D01*
X142768Y109134D01*
X142241Y109487D01*
X141619Y109610D01*
X140997Y109487D01*
X140470Y109134D01*
X140118Y108607D01*
X139994Y107985D01*
X140118Y107364D01*
X140470Y106836D01*
X140997Y106484D01*
X141619Y106360D01*
X142241Y106484D01*
X142406Y106594D01*
X142724Y106206D01*
X134481Y97963D01*
X134261Y97632D01*
X134183Y97243D01*
Y22084D01*
X134052Y21997D01*
X133700Y21470D01*
X133576Y20848D01*
X133700Y20226D01*
X134052Y19699D01*
X134579Y19347D01*
X135201Y19223D01*
X135823Y19347D01*
X136350Y19699D01*
X136702Y20226D01*
X136826Y20848D01*
X136702Y21470D01*
X136350Y21997D01*
X136219Y22084D01*
Y96821D01*
X146411Y107013D01*
X147185Y106693D01*
X148112Y106571D01*
X149040Y106693D01*
X149904Y107051D01*
X150646Y107620D01*
X151216Y108362D01*
X151574Y109227D01*
X151696Y110154D01*
X151574Y111081D01*
X151216Y111946D01*
X150646Y112688D01*
X149904Y113257D01*
X149040Y113615D01*
X148112Y113737D01*
D02*
G37*
G36*
X30792Y109944D02*
X30170Y109821D01*
X29643Y109469D01*
X29290Y108941D01*
X29167Y108320D01*
X29290Y107698D01*
X29643Y107171D01*
X30170Y106818D01*
X30792Y106695D01*
X31413Y106818D01*
X31941Y107171D01*
X32293Y107698D01*
X32416Y108320D01*
X32293Y108941D01*
X31941Y109469D01*
X31413Y109821D01*
X30792Y109944D01*
D02*
G37*
G36*
X24792D02*
X24170Y109821D01*
X23643Y109469D01*
X23290Y108941D01*
X23167Y108320D01*
X23290Y107698D01*
X23643Y107171D01*
X24170Y106818D01*
X24792Y106695D01*
X25413Y106818D01*
X25941Y107171D01*
X26293Y107698D01*
X26417Y108320D01*
X26293Y108941D01*
X25941Y109469D01*
X25413Y109821D01*
X24792Y109944D01*
D02*
G37*
G36*
X18792D02*
X18170Y109821D01*
X17643Y109469D01*
X17290Y108941D01*
X17167Y108320D01*
X17290Y107698D01*
X17643Y107171D01*
X18170Y106818D01*
X18792Y106695D01*
X19413Y106818D01*
X19941Y107171D01*
X20293Y107698D01*
X20416Y108320D01*
X20293Y108941D01*
X19941Y109469D01*
X19413Y109821D01*
X18792Y109944D01*
D02*
G37*
G36*
X12792D02*
X12170Y109821D01*
X11643Y109469D01*
X11290Y108941D01*
X11167Y108320D01*
X11290Y107698D01*
X11643Y107171D01*
X12170Y106818D01*
X12792Y106695D01*
X13413Y106818D01*
X13941Y107171D01*
X14293Y107698D01*
X14416Y108320D01*
X14293Y108941D01*
X13941Y109469D01*
X13413Y109821D01*
X12792Y109944D01*
D02*
G37*
G36*
X6792D02*
X6170Y109821D01*
X5643Y109469D01*
X5290Y108941D01*
X5167Y108320D01*
X5290Y107698D01*
X5643Y107171D01*
X6170Y106818D01*
X6792Y106695D01*
X7413Y106818D01*
X7941Y107171D01*
X8293Y107698D01*
X8416Y108320D01*
X8293Y108941D01*
X7941Y109469D01*
X7413Y109821D01*
X6792Y109944D01*
D02*
G37*
G36*
X792D02*
X170Y109821D01*
X-357Y109469D01*
X-710Y108941D01*
X-833Y108320D01*
X-710Y107698D01*
X-357Y107171D01*
X170Y106818D01*
X792Y106695D01*
X1413Y106818D01*
X1941Y107171D01*
X2293Y107698D01*
X2417Y108320D01*
X2293Y108941D01*
X1941Y109469D01*
X1413Y109821D01*
X792Y109944D01*
D02*
G37*
G36*
X135619Y109610D02*
X134997Y109487D01*
X134470Y109134D01*
X134118Y108607D01*
X133994Y107985D01*
X134118Y107364D01*
X134470Y106836D01*
X134997Y106484D01*
X135619Y106360D01*
X136241Y106484D01*
X136768Y106836D01*
X137120Y107364D01*
X137244Y107985D01*
X137120Y108607D01*
X136768Y109134D01*
X136241Y109487D01*
X135619Y109610D01*
D02*
G37*
G36*
X123619D02*
X122997Y109487D01*
X122470Y109134D01*
X122118Y108607D01*
X121994Y107985D01*
X122118Y107364D01*
X122470Y106836D01*
X122997Y106484D01*
X123619Y106360D01*
X124241Y106484D01*
X124768Y106836D01*
X125120Y107364D01*
X125244Y107985D01*
X125120Y108607D01*
X124768Y109134D01*
X124241Y109487D01*
X123619Y109610D01*
D02*
G37*
G36*
X485361Y106008D02*
X484740Y105884D01*
X484212Y105532D01*
X483860Y105005D01*
X483737Y104383D01*
X483860Y103761D01*
X484212Y103234D01*
X484740Y102882D01*
X485361Y102758D01*
X485983Y102882D01*
X486510Y103234D01*
X486863Y103761D01*
X486986Y104383D01*
X486863Y105005D01*
X486510Y105532D01*
X485983Y105884D01*
X485361Y106008D01*
D02*
G37*
G36*
X302662Y104017D02*
X302040Y103894D01*
X301513Y103541D01*
X301161Y103014D01*
X301037Y102392D01*
X301161Y101771D01*
X301513Y101243D01*
X302040Y100891D01*
X302662Y100768D01*
X303284Y100891D01*
X303811Y101243D01*
X304163Y101771D01*
X304287Y102392D01*
X304163Y103014D01*
X303811Y103541D01*
X303284Y103894D01*
X302662Y104017D01*
D02*
G37*
G36*
X502930Y102117D02*
X502308Y101994D01*
X501781Y101641D01*
X501428Y101114D01*
X501305Y100492D01*
X501428Y99871D01*
X501781Y99343D01*
X502308Y98991D01*
X502930Y98867D01*
X503551Y98991D01*
X504079Y99343D01*
X504431Y99871D01*
X504555Y100492D01*
X504431Y101114D01*
X504079Y101641D01*
X503551Y101994D01*
X502930Y102117D01*
D02*
G37*
G36*
X457598Y99657D02*
X456976Y99533D01*
X456449Y99181D01*
X456097Y98654D01*
X455973Y98032D01*
X456097Y97410D01*
X456449Y96883D01*
X456976Y96531D01*
X457598Y96407D01*
X458220Y96531D01*
X458747Y96883D01*
X459099Y97410D01*
X459223Y98032D01*
X459099Y98654D01*
X458747Y99181D01*
X458220Y99533D01*
X457598Y99657D01*
D02*
G37*
G36*
X457990Y115578D02*
X457368Y115454D01*
X456841Y115102D01*
X456488Y114575D01*
X456365Y113953D01*
X456488Y113331D01*
X456841Y112804D01*
X457368Y112452D01*
X457990Y112328D01*
X458144Y112359D01*
X460586Y109916D01*
Y97385D01*
X458680Y95479D01*
X458545D01*
X458545Y95479D01*
X458156Y95402D01*
X457826Y95181D01*
X457826Y95181D01*
X456047Y93403D01*
X455893Y93434D01*
X455271Y93310D01*
X454744Y92958D01*
X454391Y92431D01*
X454268Y91809D01*
X454391Y91187D01*
X454744Y90660D01*
X455271Y90307D01*
X455893Y90184D01*
X456514Y90307D01*
X457042Y90660D01*
X457394Y91187D01*
X457517Y91809D01*
X457487Y91963D01*
X458967Y93443D01*
X459102D01*
X459492Y93521D01*
X459822Y93742D01*
X462324Y96244D01*
X462545Y96574D01*
X462622Y96964D01*
Y110338D01*
X462545Y110728D01*
X462324Y111058D01*
X459584Y113798D01*
X459614Y113953D01*
X459491Y114575D01*
X459138Y115102D01*
X458611Y115454D01*
X457990Y115578D01*
D02*
G37*
G36*
X444328Y100721D02*
X437223D01*
Y93615D01*
X444328D01*
Y100721D01*
D02*
G37*
G36*
X342853Y136456D02*
X342231Y136333D01*
X341704Y135980D01*
X341352Y135453D01*
X341228Y134831D01*
X341330Y134320D01*
X341208Y134137D01*
X341138Y133786D01*
Y100721D01*
X338501D01*
Y93615D01*
X345606D01*
Y100721D01*
X342970D01*
Y133230D01*
X343475Y133330D01*
X344002Y133682D01*
X344355Y134210D01*
X344478Y134831D01*
X344355Y135453D01*
X344002Y135980D01*
X343475Y136333D01*
X342853Y136456D01*
D02*
G37*
G36*
X430775Y100751D02*
X429848Y100629D01*
X428984Y100271D01*
X428242Y99702D01*
X427672Y98960D01*
X427314Y98095D01*
X427192Y97168D01*
X427314Y96241D01*
X427672Y95376D01*
X428242Y94634D01*
X428984Y94065D01*
X429848Y93707D01*
X430775Y93585D01*
X431703Y93707D01*
X432567Y94065D01*
X433309Y94634D01*
X433879Y95376D01*
X434237Y96241D01*
X434359Y97168D01*
X434237Y98095D01*
X433879Y98960D01*
X433309Y99702D01*
X432567Y100271D01*
X431703Y100629D01*
X430775Y100751D01*
D02*
G37*
G36*
X372188Y134327D02*
X371566Y134204D01*
X371039Y133851D01*
X370687Y133324D01*
X370563Y132702D01*
X370687Y132080D01*
X371039Y131553D01*
X371566Y131201D01*
X372188Y131077D01*
X372454Y130859D01*
Y100631D01*
X372443Y100629D01*
X371578Y100271D01*
X370836Y99702D01*
X370267Y98960D01*
X369909Y98095D01*
X369787Y97168D01*
X369909Y96241D01*
X370267Y95376D01*
X370836Y94634D01*
X371578Y94065D01*
X372443Y93707D01*
X373370Y93585D01*
X374297Y93707D01*
X375162Y94065D01*
X375904Y94634D01*
X376473Y95376D01*
X376831Y96241D01*
X376953Y97168D01*
X376831Y98095D01*
X376473Y98960D01*
X375904Y99702D01*
X375162Y100271D01*
X374297Y100629D01*
X374286Y100631D01*
Y132005D01*
X374216Y132356D01*
X374018Y132653D01*
X373774Y132897D01*
X373689Y133324D01*
X373337Y133851D01*
X372810Y134204D01*
X372188Y134327D01*
D02*
G37*
G36*
X356595Y136456D02*
X355973Y136333D01*
X355446Y135980D01*
X355094Y135453D01*
X354970Y134831D01*
X355094Y134210D01*
X355235Y133999D01*
X351406Y130170D01*
X351207Y129873D01*
X351138Y129522D01*
Y100631D01*
X351126Y100629D01*
X350262Y100271D01*
X349520Y99702D01*
X348951Y98960D01*
X348592Y98095D01*
X348470Y97168D01*
X348592Y96241D01*
X348951Y95376D01*
X349520Y94634D01*
X350262Y94065D01*
X351126Y93707D01*
X352054Y93585D01*
X352981Y93707D01*
X353846Y94065D01*
X354588Y94634D01*
X355157Y95376D01*
X355515Y96241D01*
X355637Y97168D01*
X355515Y98095D01*
X355157Y98960D01*
X354588Y99702D01*
X353846Y100271D01*
X352981Y100629D01*
X352970Y100631D01*
Y129143D01*
X357142Y133315D01*
X357217Y133330D01*
X357744Y133682D01*
X358096Y134210D01*
X358220Y134831D01*
X358096Y135453D01*
X357744Y135980D01*
X357217Y136333D01*
X356595Y136456D01*
D02*
G37*
G36*
X148112Y91291D02*
X147185Y91169D01*
X146320Y90811D01*
X145578Y90241D01*
X145009Y89499D01*
X144651Y88635D01*
X144529Y87707D01*
X144651Y86780D01*
X144971Y86006D01*
X139491Y80526D01*
X139270Y80196D01*
X139193Y79806D01*
Y22084D01*
X139062Y21997D01*
X138710Y21470D01*
X138586Y20848D01*
X138710Y20226D01*
X139062Y19699D01*
X139589Y19347D01*
X140211Y19223D01*
X140833Y19347D01*
X141360Y19699D01*
X141712Y20226D01*
X141836Y20848D01*
X141712Y21470D01*
X141360Y21997D01*
X141229Y22084D01*
Y27792D01*
X141729Y27999D01*
X148607Y21121D01*
X148576Y20967D01*
X148700Y20345D01*
X149052Y19817D01*
X149579Y19465D01*
X150201Y19342D01*
X150823Y19465D01*
X151350Y19817D01*
X151702Y20345D01*
X151826Y20967D01*
X151702Y21588D01*
X151350Y22116D01*
X150823Y22468D01*
X150201Y22591D01*
X150047Y22561D01*
X143187Y29420D01*
Y45427D01*
X148832Y51072D01*
X149053Y51402D01*
X149130Y51791D01*
X149130Y51791D01*
Y61837D01*
X149904Y62157D01*
X150646Y62727D01*
X151216Y63469D01*
X151574Y64333D01*
X151696Y65261D01*
X151574Y66188D01*
X151216Y67053D01*
X150646Y67795D01*
X149904Y68364D01*
X149040Y68722D01*
X148112Y68844D01*
X147185Y68722D01*
X146320Y68364D01*
X145578Y67795D01*
X145009Y67053D01*
X144651Y66188D01*
X144529Y65261D01*
X144651Y64333D01*
X145009Y63469D01*
X145578Y62727D01*
X146320Y62157D01*
X147094Y61837D01*
Y52213D01*
X141729Y46848D01*
X141229Y47055D01*
Y79384D01*
X146411Y84567D01*
X147185Y84246D01*
X148112Y84124D01*
X149040Y84246D01*
X149904Y84604D01*
X150646Y85173D01*
X151216Y85916D01*
X151574Y86780D01*
X151696Y87707D01*
X151574Y88635D01*
X151216Y89499D01*
X150646Y90241D01*
X149904Y90811D01*
X149040Y91169D01*
X148112Y91291D01*
D02*
G37*
G36*
X504527Y91490D02*
X503905Y91366D01*
X503378Y91014D01*
X503026Y90487D01*
X502902Y89865D01*
X503026Y89243D01*
X503378Y88716D01*
X503905Y88364D01*
X504230Y88299D01*
X504333Y88279D01*
Y87769D01*
X504230Y87748D01*
X503905Y87684D01*
X503378Y87331D01*
X503026Y86804D01*
X502902Y86182D01*
X503026Y85561D01*
X503378Y85034D01*
X503905Y84681D01*
X503973Y84668D01*
Y84158D01*
X503905Y84144D01*
X503378Y83792D01*
X503026Y83265D01*
X502902Y82643D01*
X503026Y82021D01*
X503378Y81494D01*
X503905Y81142D01*
X504527Y81018D01*
X505149Y81142D01*
X505676Y81494D01*
X506028Y82021D01*
X506152Y82643D01*
X506028Y83265D01*
X505676Y83792D01*
X505149Y84144D01*
X505081Y84158D01*
Y84668D01*
X505149Y84681D01*
X505676Y85034D01*
X506028Y85561D01*
X506152Y86182D01*
X506028Y86804D01*
X505676Y87331D01*
X505149Y87684D01*
X504825Y87748D01*
X504721Y87769D01*
Y88279D01*
X504825Y88299D01*
X505149Y88364D01*
X505676Y88716D01*
X506028Y89243D01*
X506152Y89865D01*
X506028Y90487D01*
X505676Y91014D01*
X505149Y91366D01*
X504527Y91490D01*
D02*
G37*
G36*
X388988Y81841D02*
X388366Y81717D01*
X387839Y81365D01*
X387487Y80838D01*
X387363Y80216D01*
X387394Y80062D01*
X382689Y75356D01*
X382468Y75026D01*
X382391Y74637D01*
Y41590D01*
X382260Y41503D01*
X381908Y40975D01*
X381784Y40354D01*
X381908Y39732D01*
X382260Y39205D01*
X382787Y38852D01*
X383409Y38729D01*
X384031Y38852D01*
X384558Y39205D01*
X384910Y39732D01*
X385034Y40354D01*
X384910Y40975D01*
X384558Y41503D01*
X384427Y41590D01*
Y74215D01*
X388834Y78622D01*
X388988Y78591D01*
X389610Y78715D01*
X390137Y79067D01*
X390489Y79594D01*
X390613Y80216D01*
X390489Y80838D01*
X390137Y81365D01*
X389610Y81717D01*
X388988Y81841D01*
D02*
G37*
G36*
X420324Y79286D02*
X419702Y79162D01*
X419175Y78810D01*
X418822Y78283D01*
X418699Y77661D01*
X418822Y77039D01*
X419175Y76512D01*
X419702Y76160D01*
X420324Y76036D01*
X420945Y76160D01*
X421473Y76512D01*
X421825Y77039D01*
X421948Y77661D01*
X421825Y78283D01*
X421473Y78810D01*
X420945Y79162D01*
X420324Y79286D01*
D02*
G37*
G36*
X635789Y101365D02*
X620890D01*
X620430Y101175D01*
X620240Y100716D01*
Y74550D01*
X620430Y74090D01*
X620890Y73900D01*
X635789D01*
X636249Y74090D01*
X636439Y74550D01*
Y100716D01*
X636249Y101175D01*
X635789Y101365D01*
D02*
G37*
G36*
X245905Y140702D02*
X245283Y140578D01*
X244756Y140226D01*
X244404Y139699D01*
X244280Y139077D01*
X244404Y138455D01*
X244756Y137928D01*
X245283Y137576D01*
X245905Y137452D01*
X246182Y137507D01*
X248247Y135441D01*
Y74742D01*
X248325Y74352D01*
X248545Y74022D01*
X248611Y73957D01*
X248941Y73736D01*
X249330Y73659D01*
X249330Y73659D01*
X250112D01*
X250300Y73377D01*
X250828Y73025D01*
X251449Y72901D01*
X252071Y73025D01*
X252598Y73377D01*
X252951Y73904D01*
X253074Y74526D01*
X252951Y75148D01*
X252598Y75675D01*
X252071Y76027D01*
X251449Y76151D01*
X250828Y76027D01*
X250783Y75998D01*
X250283Y76265D01*
Y135863D01*
X250283Y135863D01*
X250206Y136253D01*
X249985Y136583D01*
X247523Y139045D01*
X247530Y139077D01*
X247406Y139699D01*
X247054Y140226D01*
X246527Y140578D01*
X245905Y140702D01*
D02*
G37*
G36*
X370857Y84849D02*
X370235Y84725D01*
X369708Y84373D01*
X369356Y83846D01*
X369232Y83224D01*
X369356Y82603D01*
X369708Y82075D01*
X369839Y81988D01*
Y79587D01*
X369917Y79197D01*
X370128Y78881D01*
Y76403D01*
X369384Y75659D01*
X369163Y75329D01*
X369086Y74939D01*
Y69788D01*
X368585Y69636D01*
X368358Y69977D01*
X367831Y70329D01*
X367209Y70453D01*
X366587Y70329D01*
X366060Y69977D01*
X365708Y69450D01*
X365584Y68828D01*
X365708Y68206D01*
X366060Y67679D01*
X366191Y67591D01*
Y59893D01*
X366060Y59806D01*
X365708Y59278D01*
X365584Y58657D01*
X365708Y58035D01*
X366060Y57507D01*
X366587Y57155D01*
X367209Y57032D01*
X367831Y57155D01*
X368358Y57507D01*
X368585Y57848D01*
X369086Y57697D01*
Y39810D01*
X369163Y39420D01*
X369384Y39090D01*
X371951Y36522D01*
X371921Y36368D01*
X372044Y35746D01*
X372397Y35219D01*
X372924Y34866D01*
X373546Y34743D01*
X374167Y34866D01*
X374695Y35219D01*
X375047Y35746D01*
X375170Y36368D01*
X375047Y36990D01*
X374695Y37517D01*
X374167Y37869D01*
X373546Y37993D01*
X373391Y37962D01*
X373020Y38333D01*
X373266Y38794D01*
X373594Y38729D01*
X374216Y38852D01*
X374743Y39205D01*
X375096Y39732D01*
X375219Y40354D01*
X375189Y40508D01*
X378684Y44003D01*
X378904Y44333D01*
X378982Y44723D01*
X378982Y44723D01*
Y80445D01*
X379018Y80470D01*
X379371Y80997D01*
X379494Y81619D01*
X379371Y82240D01*
X379018Y82768D01*
X378491Y83120D01*
X377870Y83244D01*
X377248Y83120D01*
X376720Y82768D01*
X376368Y82240D01*
X376244Y81619D01*
X376368Y80997D01*
X376720Y80470D01*
X376946Y80319D01*
Y45145D01*
X373749Y41948D01*
X373594Y41978D01*
X372973Y41855D01*
X372445Y41503D01*
X372093Y40975D01*
X371970Y40354D01*
X372035Y40025D01*
X371574Y39779D01*
X371122Y40231D01*
Y74518D01*
X371866Y75262D01*
X371866Y75262D01*
X372086Y75592D01*
X372164Y75982D01*
Y79298D01*
X372164Y79298D01*
X372086Y79688D01*
X371875Y80004D01*
Y81988D01*
X372006Y82075D01*
X372358Y82603D01*
X372482Y83224D01*
X372358Y83846D01*
X372006Y84373D01*
X371479Y84725D01*
X370857Y84849D01*
D02*
G37*
G36*
X288269Y70909D02*
X287647Y70785D01*
X287120Y70433D01*
X286768Y69906D01*
X286644Y69284D01*
X286768Y68662D01*
X287120Y68135D01*
X287647Y67783D01*
X288269Y67659D01*
X288891Y67783D01*
X289418Y68135D01*
X289770Y68662D01*
X289894Y69284D01*
X289770Y69906D01*
X289418Y70433D01*
X288891Y70785D01*
X288269Y70909D01*
D02*
G37*
G36*
X104987Y70736D02*
X104365Y70612D01*
X103838Y70260D01*
X103486Y69733D01*
X103362Y69111D01*
X103486Y68489D01*
X103838Y67962D01*
X104365Y67610D01*
X104987Y67486D01*
X105609Y67610D01*
X106136Y67962D01*
X106488Y68489D01*
X106612Y69111D01*
X106488Y69733D01*
X106136Y70260D01*
X105609Y70612D01*
X104987Y70736D01*
D02*
G37*
G36*
X182237Y70591D02*
X181615Y70468D01*
X181088Y70115D01*
X180735Y69588D01*
X180612Y68966D01*
X180735Y68344D01*
X181088Y67817D01*
X181615Y67465D01*
X182237Y67341D01*
X182858Y67465D01*
X183386Y67817D01*
X183738Y68344D01*
X183861Y68966D01*
X183738Y69588D01*
X183386Y70115D01*
X182858Y70468D01*
X182237Y70591D01*
D02*
G37*
G36*
X349818Y62969D02*
X349197Y62845D01*
X348670Y62493D01*
X348317Y61966D01*
X348194Y61344D01*
X348317Y60722D01*
X348670Y60195D01*
X349197Y59843D01*
X349818Y59719D01*
X350440Y59843D01*
X350968Y60195D01*
X351320Y60722D01*
X351443Y61344D01*
X351320Y61966D01*
X350968Y62493D01*
X350440Y62845D01*
X349818Y62969D01*
D02*
G37*
G36*
X374817Y60478D02*
X374195Y60355D01*
X373668Y60002D01*
X373316Y59475D01*
X373192Y58853D01*
X373316Y58232D01*
X373668Y57704D01*
X374195Y57352D01*
X374817Y57228D01*
X375439Y57352D01*
X375966Y57704D01*
X376318Y58232D01*
X376442Y58853D01*
X376318Y59475D01*
X375966Y60002D01*
X375439Y60355D01*
X374817Y60478D01*
D02*
G37*
G36*
X319199Y59709D02*
X318421Y59554D01*
X317761Y59113D01*
X317321Y58454D01*
X317166Y57676D01*
X317321Y56898D01*
X317761Y56239D01*
X318421Y55798D01*
X319199Y55643D01*
X319977Y55798D01*
X320636Y56239D01*
X321077Y56898D01*
X321232Y57676D01*
X321077Y58454D01*
X320636Y59113D01*
X319977Y59554D01*
X319199Y59709D01*
D02*
G37*
G36*
X281444Y70517D02*
X280822Y70393D01*
X280295Y70041D01*
X279943Y69513D01*
X279819Y68892D01*
X279943Y68270D01*
X280295Y67743D01*
X280426Y67655D01*
Y51541D01*
X279926Y51274D01*
X279672Y51443D01*
X279051Y51567D01*
X278429Y51443D01*
X277902Y51091D01*
X277549Y50564D01*
X277426Y49942D01*
X277549Y49320D01*
X277902Y48793D01*
X278429Y48441D01*
X279051Y48317D01*
X279672Y48441D01*
X279926Y48611D01*
X280426Y48343D01*
Y34355D01*
X279986Y34061D01*
X279634Y33534D01*
X279510Y32912D01*
X279634Y32290D01*
X279986Y31763D01*
X280514Y31411D01*
X281135Y31287D01*
X281757Y31411D01*
X282284Y31763D01*
X282637Y32290D01*
X282760Y32912D01*
X282637Y33534D01*
X282435Y33836D01*
X282462Y33974D01*
Y67655D01*
X282593Y67743D01*
X282945Y68270D01*
X283069Y68892D01*
X282945Y69513D01*
X282593Y70041D01*
X282066Y70393D01*
X281444Y70517D01*
D02*
G37*
G36*
X321046Y54759D02*
X320269Y54604D01*
X319609Y54163D01*
X319168Y53504D01*
X319014Y52726D01*
X319168Y51948D01*
X319609Y51288D01*
X320269Y50848D01*
X321046Y50693D01*
X321824Y50848D01*
X322484Y51288D01*
X322924Y51948D01*
X323079Y52726D01*
X322924Y53504D01*
X322484Y54163D01*
X321824Y54604D01*
X321046Y54759D01*
D02*
G37*
G36*
X22103Y52236D02*
X21481Y52113D01*
X20954Y51761D01*
X20601Y51233D01*
X20478Y50612D01*
X20601Y49990D01*
X20954Y49463D01*
X21481Y49110D01*
X22103Y48987D01*
X22724Y49110D01*
X23252Y49463D01*
X23604Y49990D01*
X23728Y50612D01*
X23604Y51233D01*
X23252Y51761D01*
X22724Y52113D01*
X22103Y52236D01*
D02*
G37*
G36*
X52062Y52236D02*
X51441Y52113D01*
X50913Y51761D01*
X50561Y51233D01*
X50437Y50612D01*
X50561Y49990D01*
X50913Y49463D01*
X51441Y49110D01*
X52062Y48987D01*
X52684Y49110D01*
X53211Y49463D01*
X53564Y49990D01*
X53687Y50612D01*
X53564Y51233D01*
X53211Y51761D01*
X52684Y52113D01*
X52062Y52236D01*
D02*
G37*
G36*
X266520Y51303D02*
X265898Y51179D01*
X265371Y50827D01*
X265019Y50300D01*
X264895Y49678D01*
X265019Y49056D01*
X265371Y48529D01*
X265898Y48177D01*
X266520Y48053D01*
X267142Y48177D01*
X267669Y48529D01*
X268021Y49056D01*
X268145Y49678D01*
X268021Y50300D01*
X267669Y50827D01*
X267142Y51179D01*
X266520Y51303D01*
D02*
G37*
G36*
X164126Y50116D02*
X163505Y49993D01*
X162977Y49640D01*
X162625Y49113D01*
X162502Y48491D01*
X162625Y47870D01*
X162977Y47343D01*
X163505Y46990D01*
X164126Y46867D01*
X164748Y46990D01*
X165275Y47343D01*
X165628Y47870D01*
X165751Y48491D01*
X165628Y49113D01*
X165275Y49640D01*
X164748Y49993D01*
X164126Y50116D01*
D02*
G37*
G36*
X396550Y42742D02*
X395929Y42618D01*
X395401Y42266D01*
X395049Y41739D01*
X394925Y41117D01*
X395049Y40495D01*
X395401Y39968D01*
X395929Y39616D01*
X396550Y39492D01*
X397172Y39616D01*
X397699Y39968D01*
X398052Y40495D01*
X398175Y41117D01*
X398052Y41739D01*
X397699Y42266D01*
X397172Y42618D01*
X396550Y42742D01*
D02*
G37*
G36*
X323350Y42254D02*
X322728Y42130D01*
X322201Y41778D01*
X321849Y41251D01*
X321725Y40629D01*
X321849Y40007D01*
X322201Y39480D01*
X322728Y39128D01*
X323350Y39004D01*
X323972Y39128D01*
X324499Y39480D01*
X324851Y40007D01*
X324975Y40629D01*
X324851Y41251D01*
X324499Y41778D01*
X323972Y42130D01*
X323350Y42254D01*
D02*
G37*
G36*
X171665Y46094D02*
X164559D01*
Y38988D01*
X171665D01*
Y46094D01*
D02*
G37*
G36*
X158112Y46124D02*
X157185Y46002D01*
X156321Y45644D01*
X155578Y45075D01*
X155009Y44333D01*
X154651Y43468D01*
X154529Y42541D01*
X154651Y41613D01*
X155009Y40749D01*
X155578Y40007D01*
X156321Y39437D01*
X157185Y39079D01*
X158112Y38957D01*
X159040Y39079D01*
X159904Y39437D01*
X160646Y40007D01*
X161215Y40749D01*
X161574Y41613D01*
X161696Y42541D01*
X161574Y43468D01*
X161215Y44333D01*
X160646Y45075D01*
X159904Y45644D01*
X159040Y46002D01*
X158112Y46124D01*
D02*
G37*
G36*
X148112D02*
X147185Y46002D01*
X146320Y45644D01*
X145578Y45075D01*
X145009Y44333D01*
X144651Y43468D01*
X144529Y42541D01*
X144651Y41613D01*
X145009Y40749D01*
X145578Y40007D01*
X146320Y39437D01*
X147185Y39079D01*
X148112Y38957D01*
X149040Y39079D01*
X149904Y39437D01*
X150646Y40007D01*
X151216Y40749D01*
X151574Y41613D01*
X151696Y42541D01*
X151574Y43468D01*
X151216Y44333D01*
X150646Y45075D01*
X149904Y45644D01*
X149040Y46002D01*
X148112Y46124D01*
D02*
G37*
G36*
X76558Y44377D02*
X75936Y44253D01*
X75409Y43901D01*
X75057Y43374D01*
X74933Y42752D01*
X75057Y42130D01*
X75409Y41603D01*
X75936Y41251D01*
X76030Y40722D01*
X75964Y40678D01*
X75612Y40151D01*
X75488Y39529D01*
X75612Y38907D01*
X75964Y38380D01*
X76491Y38028D01*
X77113Y37904D01*
X77735Y38028D01*
X78262Y38380D01*
X78614Y38907D01*
X78738Y39529D01*
X78614Y40151D01*
X78262Y40678D01*
X77735Y41030D01*
X77641Y41559D01*
X77707Y41603D01*
X78060Y42130D01*
X78183Y42752D01*
X78060Y43374D01*
X77707Y43901D01*
X77180Y44253D01*
X76558Y44377D01*
D02*
G37*
G36*
X100788Y42598D02*
X100166Y42474D01*
X99639Y42122D01*
X99287Y41594D01*
X99163Y40973D01*
X99221Y40682D01*
X95723Y37185D01*
X89263D01*
X86198Y40249D01*
X85868Y40470D01*
X85479Y40547D01*
X82511D01*
X82423Y40678D01*
X81896Y41030D01*
X81274Y41154D01*
X80652Y41030D01*
X80125Y40678D01*
X79773Y40151D01*
X79649Y39529D01*
X79773Y38907D01*
X80125Y38380D01*
X80652Y38028D01*
X81274Y37904D01*
X81896Y38028D01*
X82423Y38380D01*
X82511Y38511D01*
X85057D01*
X88121Y35447D01*
X88121Y35447D01*
X88451Y35226D01*
X88841Y35149D01*
X88841Y35149D01*
X96144D01*
X96534Y35226D01*
X96864Y35447D01*
X100769Y39351D01*
X100788Y39348D01*
X101410Y39472D01*
X101937Y39824D01*
X102289Y40351D01*
X102413Y40973D01*
X102289Y41594D01*
X101937Y42122D01*
X101410Y42474D01*
X100788Y42598D01*
D02*
G37*
G36*
X314496Y37418D02*
X313875Y37294D01*
X313348Y36942D01*
X312995Y36415D01*
X312872Y35793D01*
X312995Y35171D01*
X313348Y34644D01*
X313875Y34292D01*
X314496Y34168D01*
X315118Y34292D01*
X315646Y34644D01*
X315998Y35171D01*
X316121Y35793D01*
X315998Y36415D01*
X315646Y36942D01*
X315118Y37294D01*
X314496Y37418D01*
D02*
G37*
G36*
X253877Y65804D02*
X253255Y65681D01*
X252728Y65328D01*
X252376Y64801D01*
X252252Y64179D01*
X252376Y63557D01*
X252728Y63030D01*
X253044Y62819D01*
Y34968D01*
X252150Y34074D01*
X251995Y34104D01*
X251373Y33981D01*
X250846Y33629D01*
X250494Y33101D01*
X250370Y32480D01*
X250494Y31858D01*
X250846Y31331D01*
X251373Y30978D01*
X251995Y30855D01*
X252617Y30978D01*
X253144Y31331D01*
X253496Y31858D01*
X253620Y32480D01*
X253589Y32634D01*
X254782Y33827D01*
X255003Y34157D01*
X255080Y34547D01*
Y63111D01*
X255378Y63557D01*
X255502Y64179D01*
X255378Y64801D01*
X255026Y65328D01*
X254499Y65681D01*
X253877Y65804D01*
D02*
G37*
G36*
X645919Y44028D02*
X635569D01*
Y33678D01*
X645919D01*
Y44028D01*
D02*
G37*
G36*
X246852Y65722D02*
X246230Y65598D01*
X245703Y65246D01*
X245350Y64719D01*
X245227Y64097D01*
X245350Y63475D01*
X245382Y63428D01*
X245212Y63173D01*
X245134Y62783D01*
Y34302D01*
X244941Y34173D01*
X244589Y33646D01*
X244465Y33024D01*
X244589Y32402D01*
X244941Y31875D01*
X245468Y31523D01*
X246090Y31399D01*
X246712Y31523D01*
X247239Y31875D01*
X247591Y32402D01*
X247715Y33024D01*
X247591Y33646D01*
X247239Y34173D01*
X247170Y34218D01*
Y62379D01*
X247291Y62559D01*
X247473Y62596D01*
X248001Y62948D01*
X248353Y63475D01*
X248477Y64097D01*
X248353Y64719D01*
X248001Y65246D01*
X247473Y65598D01*
X246852Y65722D01*
D02*
G37*
G36*
X115300Y34430D02*
X114679Y34306D01*
X114151Y33954D01*
X113799Y33427D01*
X113675Y32805D01*
X113799Y32183D01*
X114151Y31656D01*
X114679Y31304D01*
X115300Y31180D01*
X115922Y31304D01*
X116449Y31656D01*
X116802Y32183D01*
X116925Y32805D01*
X116802Y33427D01*
X116449Y33954D01*
X115922Y34306D01*
X115300Y34430D01*
D02*
G37*
G36*
X87893Y31386D02*
X87271Y31263D01*
X86744Y30910D01*
X86392Y30383D01*
X86268Y29761D01*
X86392Y29140D01*
X86744Y28612D01*
X87271Y28260D01*
X87893Y28137D01*
X88515Y28260D01*
X89042Y28612D01*
X89394Y29140D01*
X89518Y29761D01*
X89394Y30383D01*
X89042Y30910D01*
X88515Y31263D01*
X87893Y31386D01*
D02*
G37*
G36*
X357367Y29231D02*
X356746Y29108D01*
X356218Y28755D01*
X355866Y28228D01*
X355743Y27606D01*
X355866Y26985D01*
X356218Y26457D01*
X356746Y26105D01*
X357367Y25982D01*
X357989Y26105D01*
X358516Y26457D01*
X358869Y26985D01*
X358992Y27606D01*
X358869Y28228D01*
X358516Y28755D01*
X357989Y29108D01*
X357367Y29231D01*
D02*
G37*
G36*
X307321Y30167D02*
X306699Y30044D01*
X306172Y29692D01*
X305820Y29164D01*
X305696Y28543D01*
X305820Y27921D01*
X306172Y27394D01*
X306699Y27041D01*
X307321Y26918D01*
X307476Y26948D01*
X312133Y22291D01*
X312133Y22291D01*
X312463Y22071D01*
X312853Y21993D01*
X312853Y21993D01*
X322594D01*
X322681Y21862D01*
X323208Y21510D01*
X323830Y21386D01*
X324452Y21510D01*
X324979Y21862D01*
X325331Y22389D01*
X325455Y23011D01*
X325331Y23633D01*
X324979Y24160D01*
X324452Y24512D01*
X323830Y24636D01*
X323208Y24512D01*
X322681Y24160D01*
X322594Y24029D01*
X313275D01*
X308915Y28388D01*
X308946Y28543D01*
X308822Y29164D01*
X308470Y29692D01*
X307943Y30044D01*
X307321Y30167D01*
D02*
G37*
G36*
X306473Y15522D02*
X305852Y15398D01*
X305325Y15046D01*
X304972Y14519D01*
X304849Y13897D01*
X304972Y13275D01*
X305325Y12748D01*
X305852Y12396D01*
X306473Y12272D01*
X307095Y12396D01*
X307623Y12748D01*
X307975Y13275D01*
X308098Y13897D01*
X307975Y14519D01*
X307623Y15046D01*
X307095Y15398D01*
X306473Y15522D01*
D02*
G37*
G36*
X119365Y12971D02*
X118743Y12847D01*
X118216Y12495D01*
X117864Y11968D01*
X117740Y11346D01*
X117864Y10724D01*
X118216Y10197D01*
X118743Y9844D01*
X119365Y9721D01*
X119986Y9844D01*
X120514Y10197D01*
X120866Y10724D01*
X120990Y11346D01*
X120866Y11968D01*
X120514Y12495D01*
X119986Y12847D01*
X119365Y12971D01*
D02*
G37*
G36*
X70063Y11720D02*
X69441Y11597D01*
X68914Y11244D01*
X68562Y10717D01*
X68438Y10096D01*
X68562Y9474D01*
X68914Y8946D01*
X69441Y8594D01*
X70063Y8471D01*
X70685Y8594D01*
X71212Y8946D01*
X71564Y9474D01*
X71688Y10096D01*
X71564Y10717D01*
X71212Y11244D01*
X70685Y11597D01*
X70063Y11720D01*
D02*
G37*
G36*
X89811Y11714D02*
X89189Y11591D01*
X88662Y11238D01*
X88309Y10711D01*
X88186Y10089D01*
X88309Y9467D01*
X88662Y8940D01*
X89189Y8588D01*
X89811Y8464D01*
X90433Y8588D01*
X90960Y8940D01*
X91312Y9467D01*
X91436Y10089D01*
X91312Y10711D01*
X90960Y11238D01*
X90433Y11591D01*
X89811Y11714D01*
D02*
G37*
G36*
X386637Y2768D02*
X386015Y2644D01*
X385488Y2292D01*
X385135Y1765D01*
X385012Y1143D01*
X385135Y521D01*
X385488Y-6D01*
X386015Y-358D01*
X386637Y-482D01*
X387258Y-358D01*
X387786Y-6D01*
X388138Y521D01*
X388262Y1143D01*
X388138Y1765D01*
X387786Y2292D01*
X387258Y2644D01*
X386637Y2768D01*
D02*
G37*
G36*
X186126Y-1399D02*
X185504Y-1523D01*
X184977Y-1875D01*
X184625Y-2402D01*
X184501Y-3024D01*
X184625Y-3646D01*
X184977Y-4173D01*
X185504Y-4525D01*
X186126Y-4649D01*
X186748Y-4525D01*
X187275Y-4173D01*
X187627Y-3646D01*
X187751Y-3024D01*
X187627Y-2402D01*
X187275Y-1875D01*
X186748Y-1523D01*
X186126Y-1399D01*
D02*
G37*
G36*
X125345Y-2693D02*
X124724Y-2816D01*
X124196Y-3168D01*
X123844Y-3696D01*
X123721Y-4318D01*
X123844Y-4939D01*
X124196Y-5466D01*
X124724Y-5819D01*
X125345Y-5942D01*
X125967Y-5819D01*
X126494Y-5466D01*
X126847Y-4939D01*
X126970Y-4318D01*
X126847Y-3696D01*
X126494Y-3168D01*
X125967Y-2816D01*
X125345Y-2693D01*
D02*
G37*
%LPD*%
G36*
X390756Y263331D02*
X390564Y262869D01*
X390422Y261791D01*
X390564Y260713D01*
X390981Y259708D01*
X391642Y258845D01*
X392505Y258183D01*
X393510Y257767D01*
X394588Y257625D01*
X395666Y257767D01*
X396059Y257930D01*
X396167Y257868D01*
X396361Y257397D01*
X396499Y257065D01*
X397028Y256375D01*
X405806Y247598D01*
Y185111D01*
X401896Y181202D01*
X401503Y180689D01*
X401003Y180859D01*
Y245093D01*
X400926Y245482D01*
X400705Y245813D01*
X387548Y258969D01*
Y259061D01*
X387530Y259151D01*
Y263831D01*
X390422D01*
X390756Y263331D01*
D02*
G37*
G36*
X414147Y183083D02*
Y61363D01*
X409240Y56456D01*
X408778Y56648D01*
Y176973D01*
X412688Y180882D01*
X413217Y181571D01*
X413355Y181904D01*
X413550Y182374D01*
X413647Y183116D01*
X414147Y183083D01*
D02*
G37*
G36*
X222839Y99912D02*
X228819Y93931D01*
Y67994D01*
X228426Y67731D01*
X228200Y67393D01*
X227669Y67498D01*
X227603Y67830D01*
X227251Y68357D01*
X226723Y68710D01*
X226102Y68833D01*
X225480Y68710D01*
X224953Y68357D01*
X224600Y67830D01*
X224477Y67208D01*
X224600Y66587D01*
X224953Y66059D01*
X225084Y65972D01*
Y54366D01*
X224584Y54099D01*
X224330Y54269D01*
X223878Y54359D01*
X223639Y54598D01*
X223565Y54969D01*
X223344Y55299D01*
X223302Y55341D01*
Y64939D01*
X223433Y65026D01*
X223785Y65553D01*
X223909Y66175D01*
X223785Y66797D01*
X223433Y67324D01*
X222906Y67676D01*
X222502Y67757D01*
X222233Y68073D01*
X222192Y68289D01*
X222242Y68542D01*
Y97534D01*
X222592Y98058D01*
X222716Y98680D01*
X222592Y99302D01*
X222503Y99435D01*
X222783Y99916D01*
X222839Y99912D01*
D02*
G37*
G36*
X171594Y84155D02*
X171665Y84155D01*
X172094Y83984D01*
Y68984D01*
X171665Y68814D01*
X171594Y68814D01*
X164559D01*
Y63091D01*
X164059Y62824D01*
X163959Y62891D01*
Y70067D01*
X168832Y74939D01*
X168832Y74939D01*
X169053Y75270D01*
X169130Y75659D01*
Y84155D01*
X171594D01*
D02*
G37*
G36*
X196391Y116961D02*
X196421Y116692D01*
X195025Y115296D01*
X194804Y114965D01*
X194727Y114576D01*
Y98714D01*
X194596Y98627D01*
X194244Y98099D01*
X194120Y97478D01*
X194244Y96856D01*
X194596Y96329D01*
X195123Y95977D01*
X195745Y95853D01*
X196367Y95977D01*
X196894Y96329D01*
X197246Y96856D01*
X197370Y97478D01*
X197246Y98099D01*
X196894Y98627D01*
X196763Y98714D01*
Y114154D01*
X198014Y115405D01*
X198169Y115375D01*
X198791Y115498D01*
X199273Y115821D01*
X199487Y115770D01*
X199773Y115632D01*
Y62376D01*
X199273Y62109D01*
X199019Y62278D01*
X198397Y62402D01*
X197775Y62278D01*
X197248Y61926D01*
X196896Y61399D01*
X196772Y60777D01*
X196896Y60155D01*
X197248Y59628D01*
X197775Y59276D01*
X198397Y59152D01*
X199019Y59276D01*
X199273Y59446D01*
X199773Y59178D01*
Y41960D01*
X199531Y41828D01*
X199273Y41759D01*
X198806Y42071D01*
X198184Y42195D01*
X197562Y42071D01*
X197035Y41719D01*
X196683Y41192D01*
X196559Y40570D01*
X196683Y39948D01*
X197035Y39421D01*
X197562Y39069D01*
X198184Y38945D01*
X198806Y39069D01*
X199273Y39381D01*
X199531Y39312D01*
X199773Y39180D01*
Y3070D01*
X194956Y-1747D01*
X194802Y-1716D01*
X194180Y-1840D01*
X194058Y-1921D01*
X193740Y-1532D01*
X194814Y-459D01*
X195034Y-128D01*
X195112Y261D01*
Y61943D01*
X195034Y62332D01*
X194814Y62663D01*
X192450Y65026D01*
Y113726D01*
X195868Y117144D01*
X196391Y116961D01*
D02*
G37*
G36*
X161924Y63872D02*
Y62123D01*
X162001Y61733D01*
X162222Y61403D01*
X171989Y51636D01*
X172319Y51415D01*
X172636Y51352D01*
X172587Y50852D01*
X167692D01*
X157258Y61286D01*
X157282Y61445D01*
X157466Y61762D01*
X158112Y61677D01*
X159040Y61800D01*
X159904Y62157D01*
X160646Y62727D01*
X161215Y63469D01*
X161424Y63971D01*
X161924Y63872D01*
D02*
G37*
G36*
X203057Y119764D02*
X203099Y119603D01*
X203091Y119392D01*
X202915Y119129D01*
X202838Y118740D01*
Y2052D01*
X199224Y-1562D01*
X199069Y-1532D01*
X198680Y-1609D01*
X198434Y-1148D01*
X201511Y1929D01*
X201731Y2259D01*
X201809Y2648D01*
Y119200D01*
X202511Y119902D01*
X203057Y119764D01*
D02*
G37*
%LPC*%
G36*
X195426Y80692D02*
X194804Y80568D01*
X194277Y80216D01*
X193924Y79689D01*
X193801Y79067D01*
X193924Y78445D01*
X194277Y77918D01*
X194804Y77566D01*
X195426Y77442D01*
X196047Y77566D01*
X196575Y77918D01*
X196927Y78445D01*
X197050Y79067D01*
X196927Y79689D01*
X196575Y80216D01*
X196047Y80568D01*
X195426Y80692D01*
D02*
G37*
G36*
X196151Y75284D02*
X195529Y75160D01*
X195002Y74808D01*
X194649Y74281D01*
X194526Y73659D01*
X194649Y73037D01*
X195002Y72510D01*
X195529Y72158D01*
X196151Y72034D01*
X196773Y72158D01*
X197300Y72510D01*
X197652Y73037D01*
X197775Y73659D01*
X197652Y74281D01*
X197300Y74808D01*
X196773Y75160D01*
X196151Y75284D01*
D02*
G37*
%LPD*%
D12*
X354376Y155736D02*
X354937Y156297D01*
X354376Y155365D02*
Y155736D01*
X352330Y153318D02*
X354376Y155365D01*
X350718Y153318D02*
X352330D01*
X334527Y137126D02*
X350718Y153318D01*
X353176Y156233D02*
X353737Y156794D01*
X353176Y155861D02*
Y156233D01*
X351833Y154518D02*
X353176Y155861D01*
X350221Y154518D02*
X351833D01*
X333327Y137624D02*
X350221Y154518D01*
X353737Y158034D02*
X356479Y160776D01*
X353737Y156794D02*
Y158034D01*
X354937Y157537D02*
X357679Y160279D01*
X354937Y156297D02*
Y157537D01*
X356479Y170679D02*
Y182692D01*
X357679Y171177D02*
X358144Y170712D01*
X356479Y170679D02*
X356944Y170215D01*
X357679Y160279D02*
Y167353D01*
X356479Y167850D02*
X356944Y168315D01*
X356479Y160776D02*
Y167850D01*
X358144Y167818D02*
Y170712D01*
X357679Y167353D02*
X358144Y167818D01*
X357679Y171177D02*
Y182195D01*
X356944Y168315D02*
Y170215D01*
X363370Y97168D02*
Y128697D01*
X367375Y132702D01*
X402209Y50062D02*
X402475Y49797D01*
X368044Y263599D02*
X371605Y267160D01*
X356479Y182692D02*
X366844Y193057D01*
X326763Y74933D02*
X333327Y81496D01*
X395188Y271569D02*
Y272620D01*
X325229Y72849D02*
X326909D01*
X410334Y183236D02*
Y249473D01*
X405450Y54706D02*
Y178351D01*
X399030Y261791D02*
X399382Y261439D01*
X404250Y55203D02*
Y178848D01*
X399168Y51645D02*
X399191Y51622D01*
X409134Y183733D02*
Y248976D01*
X399382Y258729D02*
Y261439D01*
X400582Y259226D02*
Y261439D01*
X400933Y261791D01*
X402082Y50842D02*
Y51339D01*
X400933Y261791D02*
X405375D01*
X402082Y51339D02*
X405450Y54706D01*
X404250Y178848D02*
X409134Y183733D01*
X394588Y261791D02*
X399030D01*
X400669Y51622D02*
X404250Y55203D01*
X399191Y51622D02*
X400669D01*
X405450Y178351D02*
X410334Y183236D01*
X402209Y50062D02*
Y50715D01*
X400582Y259226D02*
X410334Y249473D01*
X399382Y258729D02*
X409134Y248976D01*
X402082Y50842D02*
X402209Y50715D01*
X371605Y267160D02*
X390778D01*
X368044Y192560D02*
Y263599D01*
X393988Y272066D02*
Y272620D01*
X324012Y72146D02*
X324387D01*
X325081Y72840D01*
X390281Y268360D02*
X393988Y272066D01*
X327963Y74436D02*
X334527Y80999D01*
X393636Y272972D02*
X393988Y272620D01*
X325081Y72840D02*
X325220D01*
X326763Y74400D02*
Y74933D01*
X395188Y272620D02*
X395539Y272972D01*
X324645Y75134D02*
X325730Y74049D01*
X334527Y80999D02*
Y137126D01*
X366844Y264096D02*
X371108Y268360D01*
X395539Y272972D02*
X399982D01*
X327963Y73903D02*
Y74436D01*
X333327Y81496D02*
Y137624D01*
X371108Y268360D02*
X390281D01*
X326909Y72849D02*
X327963Y73903D01*
X325220Y72840D02*
X325229Y72849D01*
X325730Y74049D02*
X326412D01*
X326763Y74400D01*
X357679Y182195D02*
X368044Y192560D01*
X390778Y267160D02*
X395188Y271569D01*
X389194Y272972D02*
X393636D01*
X366844Y193057D02*
Y264096D01*
X324270Y75134D02*
X324645D01*
X599003Y164545D02*
X599003Y164545D01*
X602565D01*
X607118Y169097D01*
X541408Y164545D02*
X599003D01*
X540331Y165594D02*
X540360D01*
X541408Y164545D01*
X596789Y169426D02*
X597118Y169097D01*
X540596Y169426D02*
X596789D01*
X540331Y169692D02*
X540596Y169426D01*
X372188Y133188D02*
X373370Y132005D01*
Y97168D02*
Y132005D01*
X342054Y97168D02*
Y133786D01*
X342853Y134586D01*
Y134831D01*
X352054Y97168D02*
Y129522D01*
X356595Y134064D01*
D17*
X214763Y128280D02*
X217530Y125513D01*
Y106775D02*
X217723Y106581D01*
X217530Y106775D02*
Y125513D01*
X217753Y106581D02*
X229940Y94395D01*
X291033Y108595D02*
Y124938D01*
X229940Y66947D02*
Y94395D01*
X229575Y66582D02*
X229940Y66947D01*
D22*
X330974Y127920D02*
Y188815D01*
X288619Y148551D02*
Y148674D01*
X287976Y147909D02*
X288619Y148551D01*
X386530Y258547D02*
X399985Y245093D01*
X392399Y57045D02*
X399985Y64631D01*
Y245093D01*
X336554Y38320D02*
Y77137D01*
X330081Y127027D02*
X330974Y127920D01*
Y188815D02*
X339910Y197752D01*
X383801Y261791D02*
X386530Y259061D01*
Y258547D02*
Y259061D01*
X527989Y190707D02*
X546523D01*
X433506Y79452D02*
X439657D01*
X448645Y88440D02*
X457296D01*
X439657Y79452D02*
X448645Y88440D01*
X222983Y120917D02*
X223525Y120375D01*
X222983Y120917D02*
Y169859D01*
X220469Y120375D02*
Y169385D01*
X219995Y169859D02*
X220469Y169385D01*
X229500Y120375D02*
Y170022D01*
X230025Y170547D01*
X226512Y120375D02*
X227038Y120901D01*
Y170547D01*
X142169Y28998D02*
Y45849D01*
Y28998D02*
X150201Y20967D01*
X148112Y51791D02*
Y65261D01*
X142169Y45849D02*
X148112Y51791D01*
X168818Y-887D02*
X168836D01*
X169898Y176D01*
Y245D01*
X170367Y713D01*
X173643D01*
X190029Y7530D02*
X190029D01*
X192694Y10195D01*
Y61363D01*
X190032Y64025D02*
X192694Y61363D01*
X199069Y-3157D02*
X203856Y1630D01*
X194802Y-3341D02*
X200791Y2648D01*
X190471Y-3361D02*
X194094Y261D01*
X181810Y-689D02*
X190029Y7530D01*
X175753Y-689D02*
X175786D01*
X188362Y11886D02*
Y58925D01*
X175786Y-689D02*
X188362Y11886D01*
X187906Y59380D02*
X188362Y58925D01*
X186506Y58800D02*
X186961Y58345D01*
Y14032D02*
Y58345D01*
X173643Y713D02*
X186961Y14032D01*
X187906Y59380D02*
Y61954D01*
X186506Y58800D02*
Y63003D01*
X203856Y118740D02*
X205102Y119985D01*
X205713Y126999D02*
X205774Y127059D01*
X190032Y116156D02*
X204124Y130248D01*
X188384Y118926D02*
X203072Y133614D01*
X176623Y65716D02*
X183935Y58404D01*
Y54490D02*
Y58404D01*
X186506Y63003D02*
X186984Y63481D01*
X187906Y61954D02*
X188384Y62432D01*
Y118926D01*
X288268Y23555D02*
X293534Y28821D01*
X289540Y57511D02*
X293534Y53516D01*
Y28821D02*
Y53516D01*
X295444Y-4508D02*
Y84282D01*
X296844Y81989D02*
X301231Y86376D01*
X295444Y-4508D02*
X301589Y-10653D01*
X295444Y84282D02*
X299626Y88464D01*
X296844Y-2436D02*
X302497Y-8089D01*
X296844Y-2436D02*
Y81989D01*
X234205Y66877D02*
X235012Y67684D01*
Y128119D01*
X434429Y139750D02*
Y142524D01*
X295551Y145917D02*
Y146133D01*
X295280Y145645D02*
X295551Y145917D01*
X295280Y91573D02*
Y145645D01*
X292874Y136690D02*
Y147459D01*
X285459Y148498D02*
X285471Y148510D01*
X292874Y136690D02*
X293480Y136084D01*
X282595Y147859D02*
Y148246D01*
X287976Y99075D02*
Y147909D01*
X285459Y97960D02*
Y148498D01*
X239914Y133188D02*
X240949Y132152D01*
X424350Y257822D02*
X426950Y260422D01*
X409276Y50950D02*
X424350Y66024D01*
Y257822D01*
X426950Y260422D02*
Y261791D01*
X386150Y87957D02*
X392949Y81158D01*
X383409Y74637D02*
X388988Y80216D01*
X386812Y44642D02*
Y51171D01*
X389620Y53979D01*
X392949Y70803D02*
Y81158D01*
X389620Y53979D02*
Y67474D01*
X392949Y70803D01*
X312694Y100298D02*
Y100701D01*
X315122Y58879D02*
Y103837D01*
X306649Y50406D02*
X315122Y58879D01*
X303625Y91228D02*
X312694Y100298D01*
X303625Y52442D02*
Y91228D01*
X312694Y96044D02*
Y96212D01*
X336554Y38520D02*
X336554D01*
X317801Y75015D02*
Y121724D01*
X306693Y90042D02*
X312694Y96044D01*
X317801Y75015D02*
X318290Y74526D01*
X318473D01*
X306693Y57676D02*
Y90042D01*
X367209Y58657D02*
Y68828D01*
X202547Y121378D02*
Y121675D01*
X200791Y119622D02*
X202547Y121378D01*
X245905Y139077D02*
X246051D01*
X249265Y135863D01*
X280874Y140224D02*
X280990Y140109D01*
Y92642D02*
Y140109D01*
X392399Y54039D02*
Y57045D01*
X195745Y97478D02*
Y114576D01*
X198169Y117000D01*
X336554Y17726D02*
X343485Y10795D01*
X344354D01*
X351512Y3637D01*
X336554Y17726D02*
Y38320D01*
X249330Y74677D02*
X251299D01*
X249265Y74742D02*
X249330Y74677D01*
X251299D02*
X251449Y74526D01*
X249265Y74742D02*
Y135863D01*
X100788Y40810D02*
Y40973D01*
X96144Y36167D02*
X100788Y40810D01*
X81274Y39529D02*
X85479D01*
X88841Y36167D02*
X96144D01*
X85479Y39529D02*
X88841Y36167D01*
X281363Y33139D02*
Y33893D01*
X281444Y33974D01*
Y67970D01*
X281135Y32912D02*
X281363Y33139D01*
X287324Y83023D02*
Y88327D01*
X293480Y94482D02*
Y136084D01*
X287324Y88327D02*
X293480Y94482D01*
X290595Y86888D02*
X295280Y91573D01*
X290347Y86640D02*
X290595Y86888D01*
X290347Y86611D02*
Y86640D01*
X285658Y96785D02*
X285885Y96558D01*
X285459Y97960D02*
X285658Y97761D01*
X282595Y147859D02*
X283268Y147187D01*
X285658Y96785D02*
Y97761D01*
X283268Y94588D02*
Y147187D01*
Y94588D02*
X283491Y94365D01*
X280990Y92642D02*
X281066Y92565D01*
X265431Y81891D02*
Y148176D01*
X264623Y148984D02*
X265431Y148176D01*
X264623Y148984D02*
Y158485D01*
X267751Y161613D01*
X200489Y134483D02*
Y136583D01*
X186984Y120979D02*
X200489Y134483D01*
X200382Y136689D02*
X201080Y137387D01*
X200382Y136689D02*
X200489Y136583D01*
X406034Y51810D02*
X415165Y60941D01*
X406034Y47330D02*
Y51810D01*
X237602Y66099D02*
X237787Y66284D01*
X223708Y52768D02*
Y53089D01*
X222624Y54172D02*
X223708Y53089D01*
X222624Y54172D02*
Y54579D01*
X226102Y43938D02*
Y67280D01*
Y43938D02*
X227225Y42814D01*
X222284Y54920D02*
X222624Y54579D01*
X222284Y54920D02*
Y65663D01*
X219890Y65142D02*
X220884Y64148D01*
Y54208D02*
Y64148D01*
X221224Y24198D02*
Y53867D01*
X220884Y54208D02*
X221224Y53867D01*
X217497Y64453D02*
X218831Y63119D01*
X191432Y114148D02*
X204283Y126999D01*
X191432Y64605D02*
Y114148D01*
X204283Y126999D02*
X205713D01*
X287853Y98952D02*
X287976Y99075D01*
X301589Y-10653D02*
X301860D01*
X302284Y-11077D01*
X302497D01*
X237787Y66284D02*
Y130208D01*
X237796Y130217D01*
Y130279D01*
X237206Y130870D02*
X237796Y130279D01*
X219890Y67208D02*
X221224Y68542D01*
X219890Y65142D02*
Y67208D01*
X221224Y68542D02*
Y98793D01*
X215103Y68301D02*
X218831Y72029D01*
X215103Y46418D02*
Y68301D01*
Y46418D02*
X216519Y45002D01*
X218831Y52876D02*
Y63119D01*
X221210Y24183D02*
X221224Y24198D01*
X251995Y32480D02*
X254062Y34547D01*
Y64345D01*
X246152Y33086D02*
Y62783D01*
X240808Y63630D02*
X240949Y63772D01*
X246415Y63046D02*
Y63226D01*
X246152Y62783D02*
X246415Y63046D01*
X191432Y64605D02*
X194094Y61943D01*
Y261D02*
Y61943D01*
X200791Y2648D02*
Y119622D01*
X544259Y272045D02*
X546560Y269744D01*
X545158Y267679D02*
X546560Y269081D01*
X544259Y272045D02*
Y273101D01*
X546560Y269081D02*
Y269744D01*
X545158Y267679D02*
Y267679D01*
X493821Y216343D02*
X545158Y267679D01*
X493821Y98755D02*
Y216343D01*
X492703Y97636D02*
X493821Y98755D01*
X466493Y97636D02*
X492703D01*
X457296Y88440D02*
X466493Y97636D01*
X554383Y273101D02*
X555047D01*
X551653Y270371D02*
X554383Y273101D01*
X550395Y270371D02*
X551653D01*
X546958Y266934D02*
X550395Y270371D01*
X546958Y266934D02*
Y266934D01*
X495621Y98009D02*
Y215597D01*
X546958Y266934D01*
X493448Y95836D02*
X495621Y98009D01*
X458042Y86640D02*
X467238Y95836D01*
X493448D01*
X449727Y86640D02*
X458042D01*
X439552Y76464D02*
X449727Y86640D01*
X433227Y76464D02*
X439552D01*
X218420Y95989D02*
X218831Y95578D01*
Y72029D02*
Y95578D01*
X287305Y83004D02*
X287324Y83023D01*
X312902Y134170D02*
Y208933D01*
X307715Y128983D02*
X312902Y134170D01*
X299839Y132217D02*
X309629Y122427D01*
X240949Y63772D02*
Y132152D01*
X216519Y21893D02*
Y45002D01*
Y21893D02*
X221210Y17202D01*
X434429Y139750D02*
X446287Y127892D01*
X261806Y160435D02*
X265972Y164601D01*
X261806Y84383D02*
Y160435D01*
X265972Y164601D02*
X268418D01*
X190032Y64025D02*
Y116156D01*
X186984Y63481D02*
Y120979D01*
X176718Y50773D02*
Y50953D01*
Y50773D02*
X178162Y49330D01*
X174197Y49834D02*
X174325Y49962D01*
X172709Y52355D02*
X175316D01*
X162942Y62123D02*
X172709Y52355D01*
X175316D02*
X176718Y50953D01*
X178162Y49113D02*
Y49330D01*
X167270Y49834D02*
X174197D01*
X156495Y60609D02*
X167270Y49834D01*
X162942Y62123D02*
Y70488D01*
X168112Y75659D01*
Y110154D02*
X173112Y105154D01*
Y62565D02*
X177378Y58299D01*
X173112Y62565D02*
Y105154D01*
X148112Y139180D02*
Y155349D01*
Y139180D02*
X153460Y133831D01*
Y63334D02*
Y133831D01*
X156185Y60609D02*
X156495D01*
X153460Y63334D02*
X156185Y60609D01*
X370857Y79587D02*
X371146Y79298D01*
X370857Y79587D02*
Y83224D01*
X371146Y75982D02*
Y79298D01*
X377870Y81619D02*
X377964Y81524D01*
X383409Y40354D02*
Y74637D01*
X415165Y260793D02*
X416163Y261791D01*
X415165Y60941D02*
Y260793D01*
X455893Y91809D02*
X458545Y94461D01*
X450902Y77355D02*
Y84246D01*
X182680Y51502D02*
X182893D01*
X182492Y51653D02*
X182529D01*
X177378Y56766D02*
X182492Y51653D01*
X177378Y56766D02*
Y58299D01*
X182529Y51653D02*
X182680Y51502D01*
X203856Y1630D02*
Y118740D01*
X370104Y74939D02*
X371146Y75982D01*
X370104Y39810D02*
Y74939D01*
Y39810D02*
X373546Y36368D01*
X448536Y74989D02*
X450902Y77355D01*
X459102Y94461D02*
X461604Y96964D01*
Y110338D01*
X458545Y94461D02*
X459102D01*
X457990Y113953D02*
X461604Y110338D01*
X130201Y21519D02*
Y114690D01*
X129865Y21183D02*
X130201Y21519D01*
Y114690D02*
X148112Y132601D01*
X299626Y88550D02*
X300073Y88997D01*
X299626Y88464D02*
Y88550D01*
X446287Y112188D02*
Y127892D01*
X377964Y44723D02*
Y81524D01*
X373594Y40354D02*
X377964Y44723D01*
X546523Y190707D02*
X553345Y197529D01*
X309629Y122427D02*
X317098D01*
X317801Y121724D01*
X261613Y83634D02*
X261763Y83784D01*
Y84341D01*
X261806Y84383D01*
X307321Y28543D02*
X312853Y23011D01*
X323830D01*
X323689Y138417D02*
Y208933D01*
X315520Y130248D02*
X323689Y138417D01*
X246090Y33024D02*
X246152Y33086D01*
X176623Y65716D02*
Y124090D01*
X168112Y132601D02*
X176623Y124090D01*
X135201Y97243D02*
X148112Y110154D01*
X135201Y20848D02*
Y97243D01*
X140211Y20967D02*
Y79806D01*
X158112Y42195D02*
Y42541D01*
X140211Y79806D02*
X148112Y87707D01*
X168112Y75659D02*
Y87707D01*
D33*
Y42541D02*
D03*
Y65261D02*
D03*
Y87707D02*
D03*
Y110154D02*
D03*
Y132601D02*
D03*
X148112Y155349D02*
D03*
X617118Y169097D02*
D03*
X440775Y97168D02*
D03*
X342054D02*
D03*
X363370D02*
D03*
D178*
X294175Y267381D02*
D03*
X195789D02*
D03*
X133735Y267229D02*
D03*
X35350D02*
D03*
X356202Y267381D02*
D03*
X454588D02*
D03*
X516622Y267511D02*
D03*
X615007D02*
D03*
D179*
X223387Y261791D02*
D03*
X106137Y272819D02*
D03*
X383801Y261791D02*
D03*
X587409Y273101D02*
D03*
D180*
X234175Y261791D02*
D03*
X244962D02*
D03*
X255750D02*
D03*
X266537D02*
D03*
X228781Y272972D02*
D03*
X239569D02*
D03*
X250356D02*
D03*
X261143D02*
D03*
X68381Y261638D02*
D03*
X79168D02*
D03*
X89956D02*
D03*
X100743D02*
D03*
X62987Y272819D02*
D03*
X73775D02*
D03*
X84562D02*
D03*
X95350D02*
D03*
X421556Y272972D02*
D03*
X410769D02*
D03*
X399982D02*
D03*
X389194D02*
D03*
X426950Y261791D02*
D03*
X416163D02*
D03*
X405375D02*
D03*
X394588D02*
D03*
X576622Y273101D02*
D03*
X565834D02*
D03*
X555047D02*
D03*
X544259D02*
D03*
X582015Y261920D02*
D03*
X571228D02*
D03*
X560440D02*
D03*
X549653D02*
D03*
D183*
X640744Y38853D02*
D03*
D184*
X650744Y28853D02*
D03*
X630744D02*
D03*
Y48853D02*
D03*
X650744D02*
D03*
D188*
X464330Y125712D02*
Y145198D01*
X127630Y251326D02*
X150792Y228165D01*
Y192181D02*
Y228165D01*
X148741Y190130D02*
X150792Y192181D01*
X140480Y190130D02*
X148741D01*
X127630Y251326D02*
X127630D01*
X106137Y272819D02*
X127630Y251326D01*
X113875Y163526D02*
X140480Y190130D01*
X111400Y74856D02*
Y85050D01*
Y71868D02*
Y74856D01*
Y68966D02*
Y71868D01*
X113875Y87525D02*
Y163526D01*
X111400Y85050D02*
X113875Y87525D01*
D192*
X285894Y197752D02*
D03*
X137707Y207514D02*
D03*
X510116Y197529D02*
D03*
D193*
X296682Y197752D02*
D03*
X307469D02*
D03*
X318256D02*
D03*
X329123D02*
D03*
X339910D02*
D03*
X350697D02*
D03*
X361485D02*
D03*
X291288Y208933D02*
D03*
X302075D02*
D03*
X312902D02*
D03*
X323689D02*
D03*
X334477D02*
D03*
X345304D02*
D03*
X356091D02*
D03*
X67510Y196333D02*
D03*
X78297D02*
D03*
X89124D02*
D03*
X99911D02*
D03*
X110699D02*
D03*
X121526D02*
D03*
X132313D02*
D03*
X62116Y207514D02*
D03*
X72903D02*
D03*
X83691D02*
D03*
X94478D02*
D03*
X105344D02*
D03*
X116132D02*
D03*
X126919D02*
D03*
X580313Y208711D02*
D03*
X569526D02*
D03*
X558699D02*
D03*
X547912D02*
D03*
X537124D02*
D03*
X526298D02*
D03*
X515510D02*
D03*
X585707Y197529D02*
D03*
X574920D02*
D03*
X564132D02*
D03*
X553345D02*
D03*
X542479D02*
D03*
X531691D02*
D03*
X520904D02*
D03*
D194*
X258099Y203342D02*
D03*
X389280D02*
D03*
X34321Y201923D02*
D03*
X165502D02*
D03*
X613502Y203120D02*
D03*
X482321D02*
D03*
D195*
X158112Y42541D02*
D03*
X148112D02*
D03*
Y65261D02*
D03*
X158112D02*
D03*
X148112Y87707D02*
D03*
X158112D02*
D03*
X148112Y110154D02*
D03*
X158112D02*
D03*
Y132601D02*
D03*
X148112D02*
D03*
X168112Y155349D02*
D03*
X158112D02*
D03*
X607118Y169097D02*
D03*
X597118D02*
D03*
X430775Y97168D02*
D03*
X352054D02*
D03*
X373370D02*
D03*
D196*
X619322Y129834D02*
D03*
Y133377D02*
D03*
Y126291D02*
D03*
X622865D02*
D03*
Y133377D02*
D03*
Y129834D02*
D03*
X615385Y126291D02*
D03*
Y133377D02*
D03*
Y129834D02*
D03*
D197*
X223675Y-8747D02*
D03*
X249659D02*
D03*
D198*
X649606Y0D02*
D03*
Y275590D02*
D03*
X0Y0D02*
D03*
Y275590D02*
D03*
D199*
X650792Y251320D02*
D03*
X656292Y240320D02*
D03*
X650792Y229320D02*
D03*
X656292Y218320D02*
D03*
X650792Y207320D02*
D03*
X656292Y196320D02*
D03*
X650792Y185320D02*
D03*
X656292Y174320D02*
D03*
X650792Y163320D02*
D03*
X656292Y42320D02*
D03*
Y20320D02*
D03*
X639792Y251320D02*
D03*
X645292Y240320D02*
D03*
X639792Y229320D02*
D03*
X645292Y218320D02*
D03*
X639792Y207320D02*
D03*
X645292Y196320D02*
D03*
X639792Y185320D02*
D03*
X645292Y174320D02*
D03*
X639792Y163320D02*
D03*
Y31320D02*
D03*
X645292Y20320D02*
D03*
X628792Y273320D02*
D03*
X634292Y262320D02*
D03*
X628792Y251320D02*
D03*
X634292Y240320D02*
D03*
X628792Y229320D02*
D03*
X634292Y218320D02*
D03*
X628792Y207320D02*
D03*
X634292Y196320D02*
D03*
X628792Y185320D02*
D03*
X634292Y42320D02*
D03*
Y20320D02*
D03*
X628792Y9320D02*
D03*
Y-12680D02*
D03*
X623292Y262320D02*
D03*
X617792Y251320D02*
D03*
X623292Y240320D02*
D03*
X617792Y229320D02*
D03*
X623292Y218320D02*
D03*
Y196320D02*
D03*
X617792Y185320D02*
D03*
X623292Y174320D02*
D03*
X617792Y163320D02*
D03*
Y53320D02*
D03*
X623292Y42320D02*
D03*
X617792Y31320D02*
D03*
X623292Y20320D02*
D03*
X617792Y9320D02*
D03*
X623292Y-1680D02*
D03*
X617792Y-12680D02*
D03*
X606792Y273320D02*
D03*
Y251320D02*
D03*
X612292Y240320D02*
D03*
X606792Y229320D02*
D03*
X612292Y218320D02*
D03*
X606792Y185320D02*
D03*
X612292Y174320D02*
D03*
X606792Y53320D02*
D03*
X612292Y42320D02*
D03*
X606792Y31320D02*
D03*
X612292Y20320D02*
D03*
X606792Y9320D02*
D03*
X612292Y-1680D02*
D03*
X606792Y-12680D02*
D03*
X595792Y273320D02*
D03*
X601292Y262320D02*
D03*
X595792Y251320D02*
D03*
X601292Y240320D02*
D03*
X595792Y229320D02*
D03*
X601292Y218320D02*
D03*
X595792Y207320D02*
D03*
X601292Y196320D02*
D03*
X595792Y185320D02*
D03*
X601292Y174320D02*
D03*
X595792Y53320D02*
D03*
X601292Y42320D02*
D03*
X595792Y31320D02*
D03*
X601292Y20320D02*
D03*
X595792Y9320D02*
D03*
X601292Y-1680D02*
D03*
X595792Y-12680D02*
D03*
X590292Y262320D02*
D03*
X584792Y251320D02*
D03*
X590292Y240320D02*
D03*
X584792Y229320D02*
D03*
X590292Y218320D02*
D03*
Y196320D02*
D03*
X584792Y185320D02*
D03*
X590292Y174320D02*
D03*
X584792Y53320D02*
D03*
X590292Y42320D02*
D03*
X584792Y31320D02*
D03*
X590292Y20320D02*
D03*
X584792Y9320D02*
D03*
X590292Y-1680D02*
D03*
X584792Y-12680D02*
D03*
X573792Y251320D02*
D03*
X579292Y240320D02*
D03*
X573792Y229320D02*
D03*
X579292Y218320D02*
D03*
Y174320D02*
D03*
X573792Y53320D02*
D03*
X579292Y42320D02*
D03*
X573792Y31320D02*
D03*
X579292Y20320D02*
D03*
X573792Y9320D02*
D03*
X579292Y-1680D02*
D03*
X573792Y-12680D02*
D03*
X562792Y251320D02*
D03*
X568292Y240320D02*
D03*
X562792Y229320D02*
D03*
X568292Y218320D02*
D03*
X562792Y185320D02*
D03*
Y53320D02*
D03*
X568292Y42320D02*
D03*
X562792Y31320D02*
D03*
X568292Y20320D02*
D03*
X562792Y9320D02*
D03*
X568292Y-1680D02*
D03*
X562792Y-12680D02*
D03*
X551792Y251320D02*
D03*
X557292Y240320D02*
D03*
X551792Y229320D02*
D03*
X557292Y218320D02*
D03*
X551792Y185320D02*
D03*
Y53320D02*
D03*
X557292Y42320D02*
D03*
X551792Y31320D02*
D03*
X557292Y20320D02*
D03*
X551792Y9320D02*
D03*
X557292Y-1680D02*
D03*
X551792Y-12680D02*
D03*
X540792Y251320D02*
D03*
X546292Y240320D02*
D03*
X540792Y229320D02*
D03*
X546292Y218320D02*
D03*
X540792Y185320D02*
D03*
Y53320D02*
D03*
X546292Y42320D02*
D03*
X540792Y31320D02*
D03*
X546292Y20320D02*
D03*
X540792Y9320D02*
D03*
X546292Y-1680D02*
D03*
X540792Y-12680D02*
D03*
X529792Y273320D02*
D03*
X535292Y262320D02*
D03*
Y240320D02*
D03*
X529792Y229320D02*
D03*
X535292Y218320D02*
D03*
X529792Y75320D02*
D03*
Y53320D02*
D03*
X535292Y42320D02*
D03*
X529792Y31320D02*
D03*
X535292Y20320D02*
D03*
X529792Y9320D02*
D03*
X535292Y-1680D02*
D03*
X529792Y-12680D02*
D03*
X524292Y262320D02*
D03*
X518792Y251320D02*
D03*
X524292Y240320D02*
D03*
X518792Y229320D02*
D03*
X524292Y218320D02*
D03*
Y152320D02*
D03*
X518792Y141320D02*
D03*
Y119320D02*
D03*
Y97320D02*
D03*
Y75320D02*
D03*
X524292Y64320D02*
D03*
X518792Y53320D02*
D03*
X524292Y42320D02*
D03*
X518792Y31320D02*
D03*
X524292Y20320D02*
D03*
X518792Y9320D02*
D03*
X524292Y-1680D02*
D03*
X518792Y-12680D02*
D03*
X507792Y273320D02*
D03*
Y251320D02*
D03*
X513292Y240320D02*
D03*
Y218320D02*
D03*
X507792Y185320D02*
D03*
X513292Y152320D02*
D03*
X507792Y141320D02*
D03*
X513292Y130320D02*
D03*
X507792Y119320D02*
D03*
Y75320D02*
D03*
X513292Y64320D02*
D03*
X507792Y53320D02*
D03*
X513292Y42320D02*
D03*
X507792Y31320D02*
D03*
X513292Y20320D02*
D03*
X507792Y9320D02*
D03*
X513292Y-1680D02*
D03*
X507792Y-12680D02*
D03*
X496792Y273320D02*
D03*
X502292Y262320D02*
D03*
X496792Y251320D02*
D03*
X502292Y240320D02*
D03*
X496792Y229320D02*
D03*
X502292Y218320D02*
D03*
Y196320D02*
D03*
Y152320D02*
D03*
Y130320D02*
D03*
X496792Y75320D02*
D03*
X502292Y64320D02*
D03*
X496792Y53320D02*
D03*
X502292Y42320D02*
D03*
X496792Y31320D02*
D03*
X502292Y20320D02*
D03*
X496792Y9320D02*
D03*
X502292Y-1680D02*
D03*
X496792Y-12680D02*
D03*
X485792Y273320D02*
D03*
X491292Y262320D02*
D03*
X485792Y251320D02*
D03*
X491292Y240320D02*
D03*
X485792Y229320D02*
D03*
X491292Y196320D02*
D03*
X485792Y185320D02*
D03*
Y141320D02*
D03*
X491292Y130320D02*
D03*
X485792Y119320D02*
D03*
Y75320D02*
D03*
X491292Y64320D02*
D03*
X485792Y53320D02*
D03*
X491292Y42320D02*
D03*
X485792Y31320D02*
D03*
X491292Y20320D02*
D03*
X485792Y9320D02*
D03*
X491292Y-1680D02*
D03*
X485792Y-12680D02*
D03*
X474792Y273320D02*
D03*
X480292Y262320D02*
D03*
X474792Y251320D02*
D03*
X480292Y240320D02*
D03*
X474792Y229320D02*
D03*
Y185320D02*
D03*
X480292Y152320D02*
D03*
Y130320D02*
D03*
Y86320D02*
D03*
X474792Y75320D02*
D03*
X480292Y64320D02*
D03*
X474792Y53320D02*
D03*
X480292Y42320D02*
D03*
X474792Y31320D02*
D03*
X480292Y20320D02*
D03*
X474792Y9320D02*
D03*
X480292Y-1680D02*
D03*
X474792Y-12680D02*
D03*
X463792Y273320D02*
D03*
X469292Y262320D02*
D03*
X463792Y251320D02*
D03*
X469292Y240320D02*
D03*
X463792Y229320D02*
D03*
X469292Y196320D02*
D03*
X463792Y185320D02*
D03*
Y163320D02*
D03*
X469292Y152320D02*
D03*
Y64320D02*
D03*
X463792Y53320D02*
D03*
X469292Y42320D02*
D03*
X463792Y31320D02*
D03*
X469292Y20320D02*
D03*
X463792Y9320D02*
D03*
X469292Y-1680D02*
D03*
X463792Y-12680D02*
D03*
X452792Y251320D02*
D03*
X458292Y240320D02*
D03*
X452792Y229320D02*
D03*
X458292Y218320D02*
D03*
X452792Y207320D02*
D03*
Y185320D02*
D03*
X458292Y108320D02*
D03*
Y64320D02*
D03*
X452792Y53320D02*
D03*
X458292Y42320D02*
D03*
X452792Y31320D02*
D03*
X458292Y20320D02*
D03*
X452792Y9320D02*
D03*
X458292Y-1680D02*
D03*
X452792Y-12680D02*
D03*
X441792Y273320D02*
D03*
X447292Y262320D02*
D03*
X441792Y251320D02*
D03*
X447292Y240320D02*
D03*
X441792Y229320D02*
D03*
X447292Y218320D02*
D03*
X441792Y207320D02*
D03*
X447292Y152320D02*
D03*
X441792Y53320D02*
D03*
X447292Y42320D02*
D03*
X441792Y31320D02*
D03*
X447292Y20320D02*
D03*
X441792Y9320D02*
D03*
X447292Y-1680D02*
D03*
X441792Y-12680D02*
D03*
X430792Y273320D02*
D03*
X436292Y262320D02*
D03*
X430792Y251320D02*
D03*
X436292Y240320D02*
D03*
X430792Y229320D02*
D03*
X436292Y218320D02*
D03*
X430792Y207320D02*
D03*
X436292Y196320D02*
D03*
X430792Y185320D02*
D03*
Y163320D02*
D03*
X436292Y152320D02*
D03*
Y64320D02*
D03*
X430792Y53320D02*
D03*
X436292Y42320D02*
D03*
X430792Y31320D02*
D03*
X436292Y20320D02*
D03*
X430792Y9320D02*
D03*
X436292Y-1680D02*
D03*
X430792Y-12680D02*
D03*
X419792Y251320D02*
D03*
Y229320D02*
D03*
Y207320D02*
D03*
Y185320D02*
D03*
Y163320D02*
D03*
Y97320D02*
D03*
X425292Y20320D02*
D03*
Y-1680D02*
D03*
X419792Y-12680D02*
D03*
X414292Y42320D02*
D03*
X408792Y31320D02*
D03*
Y9320D02*
D03*
X414292Y-1680D02*
D03*
X408792Y-12680D02*
D03*
X397792Y251320D02*
D03*
X403292Y240320D02*
D03*
Y218320D02*
D03*
Y196320D02*
D03*
Y20320D02*
D03*
Y-1680D02*
D03*
X397792Y-12680D02*
D03*
X386792Y251320D02*
D03*
X392292Y240320D02*
D03*
X386792Y229320D02*
D03*
X392292Y218320D02*
D03*
X386792Y185320D02*
D03*
X392292Y174320D02*
D03*
X386792Y163320D02*
D03*
X392292Y152320D02*
D03*
Y130320D02*
D03*
X386792Y97320D02*
D03*
X392292Y64320D02*
D03*
Y-1680D02*
D03*
X386792Y-12680D02*
D03*
X375792Y273320D02*
D03*
Y251320D02*
D03*
X381292Y240320D02*
D03*
X375792Y229320D02*
D03*
X381292Y174320D02*
D03*
Y152320D02*
D03*
Y130320D02*
D03*
X375792Y9320D02*
D03*
X381292Y-1680D02*
D03*
X375792Y-12680D02*
D03*
X364792Y273320D02*
D03*
Y31320D02*
D03*
X370292Y20320D02*
D03*
X364792Y-12680D02*
D03*
X353792Y251320D02*
D03*
Y229320D02*
D03*
Y75320D02*
D03*
Y31320D02*
D03*
X359292Y-1680D02*
D03*
X353792Y-12680D02*
D03*
X342792Y273320D02*
D03*
X348292Y262320D02*
D03*
X342792Y229320D02*
D03*
Y75320D02*
D03*
X348292Y64320D02*
D03*
Y-1680D02*
D03*
X342792Y-12680D02*
D03*
X331792Y273320D02*
D03*
Y251320D02*
D03*
X337292Y240320D02*
D03*
X331792Y229320D02*
D03*
X337292Y174320D02*
D03*
X331792Y9320D02*
D03*
X320792Y251320D02*
D03*
X326292Y240320D02*
D03*
X320792Y229320D02*
D03*
Y185320D02*
D03*
X326292Y130320D02*
D03*
X320792Y97320D02*
D03*
Y9320D02*
D03*
X309792Y273320D02*
D03*
X315292Y262320D02*
D03*
X309792Y251320D02*
D03*
X315292Y240320D02*
D03*
X309792Y229320D02*
D03*
Y185320D02*
D03*
Y163320D02*
D03*
Y9320D02*
D03*
X304292Y262320D02*
D03*
X298792Y251320D02*
D03*
X304292Y240320D02*
D03*
X298792Y185320D02*
D03*
Y163320D02*
D03*
Y-12680D02*
D03*
X287792Y273320D02*
D03*
Y185320D02*
D03*
Y163320D02*
D03*
Y53320D02*
D03*
Y31320D02*
D03*
Y9320D02*
D03*
X276792Y273320D02*
D03*
Y251320D02*
D03*
X282292Y240320D02*
D03*
X276792Y207320D02*
D03*
Y185320D02*
D03*
Y97320D02*
D03*
X282292Y86320D02*
D03*
X276792Y53320D02*
D03*
Y9320D02*
D03*
X265792Y251320D02*
D03*
X271292Y108320D02*
D03*
Y86320D02*
D03*
Y64320D02*
D03*
X265792Y53320D02*
D03*
X271292Y42320D02*
D03*
X265792Y9320D02*
D03*
X254792Y251320D02*
D03*
X260292Y240320D02*
D03*
Y174320D02*
D03*
X254792Y163320D02*
D03*
Y97320D02*
D03*
X260292Y64320D02*
D03*
X254792Y31320D02*
D03*
X260292Y20320D02*
D03*
X254792Y9320D02*
D03*
X260292Y-1680D02*
D03*
X254792Y-12680D02*
D03*
X243792Y207320D02*
D03*
X249292Y196320D02*
D03*
X243792Y185320D02*
D03*
X249292Y174320D02*
D03*
X243792Y97320D02*
D03*
Y75320D02*
D03*
X249292Y20320D02*
D03*
X243792Y9320D02*
D03*
X238292Y218320D02*
D03*
X232792Y207320D02*
D03*
X238292Y196320D02*
D03*
X232792Y185320D02*
D03*
X238292Y174320D02*
D03*
X232792Y163320D02*
D03*
Y53320D02*
D03*
Y31320D02*
D03*
X227292Y108320D02*
D03*
Y86320D02*
D03*
X221792Y9320D02*
D03*
X210792Y273320D02*
D03*
X216292Y240320D02*
D03*
Y196320D02*
D03*
X210792Y185320D02*
D03*
X216292Y174320D02*
D03*
X210792Y163320D02*
D03*
X216292Y152320D02*
D03*
X210792Y141320D02*
D03*
X216292Y86320D02*
D03*
X210792Y53320D02*
D03*
Y9320D02*
D03*
X216292Y-1680D02*
D03*
X205292Y262320D02*
D03*
X199792Y251320D02*
D03*
X205292Y240320D02*
D03*
X199792Y185320D02*
D03*
X205292Y174320D02*
D03*
X199792Y163320D02*
D03*
X205292Y152320D02*
D03*
Y-1680D02*
D03*
X188792Y273320D02*
D03*
Y251320D02*
D03*
Y229320D02*
D03*
X194292Y218320D02*
D03*
Y174320D02*
D03*
X188792Y163320D02*
D03*
X194292Y152320D02*
D03*
X188792Y141320D02*
D03*
X177792Y273320D02*
D03*
X183292Y262320D02*
D03*
Y240320D02*
D03*
X177792Y229320D02*
D03*
X183292Y218320D02*
D03*
X177792Y207320D02*
D03*
Y163320D02*
D03*
X183292Y152320D02*
D03*
X177792Y141320D02*
D03*
X183292Y130320D02*
D03*
X177792Y31320D02*
D03*
X183292Y20320D02*
D03*
X177792Y9320D02*
D03*
X166792Y273320D02*
D03*
X172292Y262320D02*
D03*
Y240320D02*
D03*
X166792Y229320D02*
D03*
X172292Y218320D02*
D03*
Y152320D02*
D03*
X166792Y141320D02*
D03*
Y119320D02*
D03*
X172292Y20320D02*
D03*
X166792Y9320D02*
D03*
X172292Y-1680D02*
D03*
X155792Y273320D02*
D03*
X161292Y262320D02*
D03*
Y240320D02*
D03*
X155792Y229320D02*
D03*
X161292Y218320D02*
D03*
X155792Y207320D02*
D03*
Y185320D02*
D03*
Y141320D02*
D03*
Y53320D02*
D03*
Y9320D02*
D03*
X161292Y-1680D02*
D03*
X155792Y-12680D02*
D03*
X144792Y273320D02*
D03*
X150292Y262320D02*
D03*
Y240320D02*
D03*
X144792Y207320D02*
D03*
Y185320D02*
D03*
Y75320D02*
D03*
Y-12680D02*
D03*
X133792Y229320D02*
D03*
X139292Y218320D02*
D03*
Y86320D02*
D03*
X133792Y-12680D02*
D03*
X122792Y273320D02*
D03*
X128292Y240320D02*
D03*
X122792Y229320D02*
D03*
X128292Y218320D02*
D03*
X122792Y75320D02*
D03*
Y53320D02*
D03*
Y9320D02*
D03*
Y-12680D02*
D03*
X117292Y240320D02*
D03*
X111792Y229320D02*
D03*
X117292Y218320D02*
D03*
Y64320D02*
D03*
X111792Y53320D02*
D03*
X117292Y42320D02*
D03*
Y20320D02*
D03*
Y-1680D02*
D03*
X111792Y-12680D02*
D03*
X100792Y273320D02*
D03*
X106292Y262320D02*
D03*
Y240320D02*
D03*
X100792Y229320D02*
D03*
X106292Y218320D02*
D03*
Y152320D02*
D03*
Y130320D02*
D03*
X100792Y97320D02*
D03*
X106292Y-1680D02*
D03*
X100792Y-12680D02*
D03*
X89792Y273320D02*
D03*
X95292Y240320D02*
D03*
X89792Y229320D02*
D03*
X95292Y218320D02*
D03*
Y152320D02*
D03*
X89792Y141320D02*
D03*
Y97320D02*
D03*
X95292Y64320D02*
D03*
X89792Y-12680D02*
D03*
X78792Y251320D02*
D03*
X84292Y240320D02*
D03*
X78792Y229320D02*
D03*
X84292Y218320D02*
D03*
X78792Y207320D02*
D03*
X84292Y152320D02*
D03*
X78792Y141320D02*
D03*
X84292Y130320D02*
D03*
Y-1680D02*
D03*
X78792Y-12680D02*
D03*
X67792Y273320D02*
D03*
X73292Y262320D02*
D03*
X67792Y251320D02*
D03*
X73292Y240320D02*
D03*
X67792Y229320D02*
D03*
X73292Y218320D02*
D03*
X67792Y207320D02*
D03*
X73292Y152320D02*
D03*
Y130320D02*
D03*
Y64320D02*
D03*
X67792Y53320D02*
D03*
Y-12680D02*
D03*
X56792Y273320D02*
D03*
X62292Y262320D02*
D03*
X56792Y251320D02*
D03*
X62292Y240320D02*
D03*
X56792Y229320D02*
D03*
X62292Y218320D02*
D03*
X56792Y207320D02*
D03*
X62292Y86320D02*
D03*
Y64320D02*
D03*
X56792Y53320D02*
D03*
X62292Y-1680D02*
D03*
X56792Y-12680D02*
D03*
X45792Y273320D02*
D03*
X51292Y262320D02*
D03*
X45792Y251320D02*
D03*
X51292Y240320D02*
D03*
X45792Y229320D02*
D03*
X51292Y218320D02*
D03*
X45792Y207320D02*
D03*
Y141320D02*
D03*
X51292Y86320D02*
D03*
Y64320D02*
D03*
Y42320D02*
D03*
X45792Y-12680D02*
D03*
X34792Y251320D02*
D03*
X40292Y240320D02*
D03*
X34792Y229320D02*
D03*
X40292Y218320D02*
D03*
X34792Y97320D02*
D03*
X40292Y86320D02*
D03*
Y64320D02*
D03*
Y42320D02*
D03*
X34792Y31320D02*
D03*
X40292Y-1680D02*
D03*
X34792Y-12680D02*
D03*
X23792Y273320D02*
D03*
X29292Y262320D02*
D03*
X23792Y251320D02*
D03*
X29292Y240320D02*
D03*
X23792Y229320D02*
D03*
X29292Y218320D02*
D03*
X23792Y207320D02*
D03*
Y97320D02*
D03*
X29292Y86320D02*
D03*
Y64320D02*
D03*
X23792Y53320D02*
D03*
Y31320D02*
D03*
Y9320D02*
D03*
Y-12680D02*
D03*
X18292Y262320D02*
D03*
X12792Y251320D02*
D03*
X18292Y240320D02*
D03*
X12792Y229320D02*
D03*
X18292Y218320D02*
D03*
X12792Y207320D02*
D03*
X18292Y196320D02*
D03*
X12792Y185320D02*
D03*
Y97320D02*
D03*
X18292Y86320D02*
D03*
Y64320D02*
D03*
Y42320D02*
D03*
X12792Y31320D02*
D03*
X18292Y20320D02*
D03*
Y-1680D02*
D03*
X12792Y-12680D02*
D03*
X1792Y251320D02*
D03*
X7292Y240320D02*
D03*
X1792Y229320D02*
D03*
X7292Y218320D02*
D03*
X1792Y207320D02*
D03*
X7292Y196320D02*
D03*
X1792Y185320D02*
D03*
X7292Y174320D02*
D03*
X1792Y97320D02*
D03*
X7292Y86320D02*
D03*
Y64320D02*
D03*
Y42320D02*
D03*
X1792Y31320D02*
D03*
X7292Y20320D02*
D03*
X-9208Y251320D02*
D03*
X-3708Y240320D02*
D03*
X-9208Y229320D02*
D03*
X-3708Y218320D02*
D03*
X-9208Y207320D02*
D03*
X-3708Y196320D02*
D03*
X-9208Y185320D02*
D03*
X-3708Y174320D02*
D03*
X-9208Y163320D02*
D03*
Y141320D02*
D03*
Y119320D02*
D03*
Y97320D02*
D03*
X-3708Y86320D02*
D03*
X-9208Y75320D02*
D03*
X-3708Y64320D02*
D03*
X-9208Y53320D02*
D03*
X-3708Y42320D02*
D03*
X-9208Y31320D02*
D03*
X-3708Y20320D02*
D03*
X350883Y156812D02*
D03*
X354650Y169265D02*
D03*
X360437Y170673D02*
D03*
X377889Y165182D02*
D03*
X364391Y159365D02*
D03*
X336670Y166465D02*
D03*
X288619Y148674D02*
D03*
X324012Y72146D02*
D03*
X361063Y137359D02*
D03*
X319199Y57676D02*
D03*
X321046Y52726D02*
D03*
X399168Y51645D02*
D03*
X402475Y49797D02*
D03*
X324270Y75134D02*
D03*
X336554Y77137D02*
D03*
X329896Y126862D02*
D03*
X527989Y190707D02*
D03*
X223525Y120375D02*
D03*
X220469D02*
D03*
X222983Y169859D02*
D03*
X219995D02*
D03*
X229500Y120375D02*
D03*
X226512D02*
D03*
X230025Y170547D02*
D03*
X227038D02*
D03*
X150201Y20967D02*
D03*
X186126Y-3024D02*
D03*
X115300Y32805D02*
D03*
X190300Y60371D02*
D03*
X199069Y-3157D02*
D03*
X194802Y-3341D02*
D03*
X190471Y-3361D02*
D03*
X181810Y-689D02*
D03*
X175753D02*
D03*
X168818Y-887D02*
D03*
X275391Y135831D02*
D03*
X289418Y43257D02*
D03*
X367209Y58657D02*
D03*
X226102Y67208D02*
D03*
X202547Y121675D02*
D03*
X203939Y130083D02*
D03*
X236062Y139445D02*
D03*
X303439Y52276D02*
D03*
X285471Y148510D02*
D03*
X204917Y119820D02*
D03*
X253877Y64179D02*
D03*
X261428Y83468D02*
D03*
X268208Y135640D02*
D03*
X301231Y86376D02*
D03*
X237602Y66099D02*
D03*
X214418Y128499D02*
D03*
X282410Y148249D02*
D03*
X315335Y130083D02*
D03*
X302662Y102392D02*
D03*
X281444Y68892D02*
D03*
X280874Y140224D02*
D03*
X218235Y95823D02*
D03*
X200716Y136804D02*
D03*
X306507Y57511D02*
D03*
X229575Y66582D02*
D03*
X216381Y73721D02*
D03*
X299654Y132051D02*
D03*
X299439Y113082D02*
D03*
X232068Y64631D02*
D03*
X217497Y64453D02*
D03*
X205739Y127045D02*
D03*
X290901Y124825D02*
D03*
X289540Y57511D02*
D03*
X234205Y66877D02*
D03*
X216252Y76708D02*
D03*
X245905Y139077D02*
D03*
X288269Y69284D02*
D03*
X290848Y108429D02*
D03*
X290162Y86475D02*
D03*
X306834Y50642D02*
D03*
X246852Y64097D02*
D03*
X202886Y133448D02*
D03*
X258572Y135816D02*
D03*
X255197Y138093D02*
D03*
X251810Y139077D02*
D03*
X265246Y81726D02*
D03*
X217666Y106319D02*
D03*
X299888Y89044D02*
D03*
X221091Y98680D02*
D03*
X240623Y63465D02*
D03*
X214637Y71240D02*
D03*
X307530Y128817D02*
D03*
X303861Y112826D02*
D03*
X287120Y82839D02*
D03*
X222284Y66175D02*
D03*
X540331Y165594D02*
D03*
Y173527D02*
D03*
X434429Y142524D02*
D03*
X464330Y145198D02*
D03*
X295551Y146133D02*
D03*
X540331Y169692D02*
D03*
X292874Y147459D02*
D03*
X239914Y133188D02*
D03*
X372188Y132702D02*
D03*
X358698Y116281D02*
D03*
X367375Y132702D02*
D03*
X312694Y96212D02*
D03*
X342853Y134831D02*
D03*
X312694Y100701D02*
D03*
X315122Y103837D02*
D03*
X356595Y134831D02*
D03*
X386150Y87957D02*
D03*
X388988Y80216D02*
D03*
X314496Y35793D02*
D03*
X336554Y38520D02*
D03*
X374817Y58853D02*
D03*
X288268Y23555D02*
D03*
X197591Y44783D02*
D03*
X349818Y61344D02*
D03*
X392399Y54039D02*
D03*
X409276Y50950D02*
D03*
X119365Y11346D02*
D03*
X195426Y79067D02*
D03*
X195745Y97478D02*
D03*
X198169Y117000D02*
D03*
X351512Y3637D02*
D03*
X367209Y68828D02*
D03*
X251449Y74526D02*
D03*
X287463Y-14312D02*
D03*
X111400Y74856D02*
D03*
Y71868D02*
D03*
Y68966D02*
D03*
X115254Y74856D02*
D03*
Y71868D02*
D03*
X87893Y29761D02*
D03*
X100788Y40973D02*
D03*
X104987Y69111D02*
D03*
X115300Y69009D02*
D03*
X117619Y131985D02*
D03*
X70063Y10096D02*
D03*
X89811Y10089D02*
D03*
X22103Y50612D02*
D03*
X628827Y161926D02*
D03*
X625037D02*
D03*
X632618D02*
D03*
X504527Y82643D02*
D03*
Y86182D02*
D03*
Y89865D02*
D03*
X517429Y110563D02*
D03*
X279051Y49942D02*
D03*
X502930Y100492D02*
D03*
X485361Y104383D02*
D03*
X406034Y47330D02*
D03*
X386812Y44642D02*
D03*
X223708Y52768D02*
D03*
X196151Y73659D02*
D03*
X302497Y-8089D02*
D03*
X281135Y32912D02*
D03*
X235012Y128119D02*
D03*
X198397Y60777D02*
D03*
X433227Y76464D02*
D03*
X281066Y92565D02*
D03*
X318473Y74526D02*
D03*
X267751Y161613D02*
D03*
X237206Y130870D02*
D03*
X218831Y52876D02*
D03*
X198184Y40570D02*
D03*
X183935Y54490D02*
D03*
X287853Y98952D02*
D03*
X285885Y96558D02*
D03*
X464330Y125712D02*
D03*
X196160Y133850D02*
D03*
X184591Y80742D02*
D03*
Y96032D02*
D03*
X174325Y49962D02*
D03*
X477111Y120860D02*
D03*
X370857Y83224D02*
D03*
X377870Y81619D02*
D03*
X433506Y79452D02*
D03*
X455893Y91809D02*
D03*
X450902Y84246D02*
D03*
X182893Y51502D02*
D03*
X396550Y41117D02*
D03*
X383409Y40354D02*
D03*
X323830Y23011D02*
D03*
X447555Y81082D02*
D03*
X479178Y93443D02*
D03*
X457598Y98032D02*
D03*
X448536Y74989D02*
D03*
X507339Y114830D02*
D03*
X429549Y116482D02*
D03*
X434429Y112532D02*
D03*
X429398Y125839D02*
D03*
X464600Y116694D02*
D03*
X129865Y20848D02*
D03*
X418357Y116838D02*
D03*
Y125731D02*
D03*
X421273Y110563D02*
D03*
X420324Y77661D02*
D03*
X373594Y40354D02*
D03*
X373546Y36368D02*
D03*
X323350Y40629D02*
D03*
X457990Y113953D02*
D03*
X453486Y116981D02*
D03*
X448536Y131477D02*
D03*
X451906Y125655D02*
D03*
X440245Y126088D02*
D03*
X441264Y116981D02*
D03*
X283491Y94365D02*
D03*
X307417Y136453D02*
D03*
X357367Y27606D02*
D03*
X446287Y112188D02*
D03*
X268418Y164601D02*
D03*
X386637Y1143D02*
D03*
X302497Y-11077D02*
D03*
X307321Y28543D02*
D03*
X257448Y149652D02*
D03*
X266520Y49678D02*
D03*
X178162Y49113D02*
D03*
X164126Y48491D02*
D03*
X135619Y107985D02*
D03*
X141619D02*
D03*
X306473Y13897D02*
D03*
X214125Y44010D02*
D03*
X182237Y68966D02*
D03*
X135201Y20848D02*
D03*
X140211D02*
D03*
X227225Y42814D02*
D03*
X221210Y24183D02*
D03*
Y17202D02*
D03*
X251995Y32480D02*
D03*
X246090Y33024D02*
D03*
X127420Y107985D02*
D03*
X132892Y113713D02*
D03*
X137392Y118212D02*
D03*
X138224Y126381D02*
D03*
X129619Y119985D02*
D03*
X141619D02*
D03*
X138619Y113985D02*
D03*
X30792Y108320D02*
D03*
X24792Y120320D02*
D03*
X27792Y114320D02*
D03*
X24792Y108320D02*
D03*
X18792Y132320D02*
D03*
Y120320D02*
D03*
X21792Y114320D02*
D03*
X18792Y108320D02*
D03*
X15792Y138320D02*
D03*
X12792Y132320D02*
D03*
X15792Y126320D02*
D03*
X12792Y120320D02*
D03*
X15792Y114320D02*
D03*
X12792Y108320D02*
D03*
X9792Y138320D02*
D03*
X6792Y132320D02*
D03*
X9792Y126320D02*
D03*
X6792Y120320D02*
D03*
X9792Y114320D02*
D03*
X6792Y108320D02*
D03*
X3792Y138320D02*
D03*
X792Y132320D02*
D03*
X3792Y126320D02*
D03*
X792Y120320D02*
D03*
X3792Y114320D02*
D03*
X792Y108320D02*
D03*
X76558Y42752D02*
D03*
X77113Y39529D02*
D03*
X81274D02*
D03*
X138619Y137985D02*
D03*
X141619Y131985D02*
D03*
X132619Y137985D02*
D03*
X135619Y131985D02*
D03*
X132619Y125985D02*
D03*
X126619Y137985D02*
D03*
X129619Y131985D02*
D03*
X126619Y125985D02*
D03*
X120619Y137985D02*
D03*
X123619Y131985D02*
D03*
X120619Y125985D02*
D03*
X123619Y119985D02*
D03*
X120619Y113985D02*
D03*
X117619Y119985D02*
D03*
Y107985D02*
D03*
X126619Y113985D02*
D03*
X123619Y107985D02*
D03*
X52062Y50612D02*
D03*
X125345Y-4318D02*
D03*
D200*
X57039Y142479D02*
D03*
X66488Y156653D02*
D03*
Y151928D02*
D03*
Y147204D02*
D03*
Y142479D02*
D03*
Y137755D02*
D03*
Y133031D02*
D03*
Y128306D02*
D03*
X61763Y156653D02*
D03*
Y151928D02*
D03*
Y147204D02*
D03*
Y142479D02*
D03*
Y137755D02*
D03*
Y133031D02*
D03*
Y128306D02*
D03*
X57039Y156653D02*
D03*
Y151928D02*
D03*
Y147204D02*
D03*
Y137755D02*
D03*
Y133031D02*
D03*
Y128306D02*
D03*
X52315Y156653D02*
D03*
Y151928D02*
D03*
Y147204D02*
D03*
Y142479D02*
D03*
Y137755D02*
D03*
Y133031D02*
D03*
Y128306D02*
D03*
M02*
