G04*
G04 #@! TF.GenerationSoftware,Altium Limited,Altium Designer,20.0.11 (256)*
G04*
G04 Layer_Color=8388736*
%FSLAX25Y25*%
%MOIN*%
G70*
G01*
G75*
%ADD15C,0.00787*%
G36*
X356546Y140932D02*
X356568D01*
X356626Y140921D01*
X356695Y140910D01*
X356768Y140892D01*
X356848Y140866D01*
X356925Y140830D01*
X356928D01*
X356932Y140826D01*
X356943Y140819D01*
X356957Y140812D01*
X356994Y140790D01*
X357041Y140757D01*
X357092Y140717D01*
X357143Y140670D01*
X357194Y140611D01*
X357238Y140549D01*
Y140546D01*
X357241Y140542D01*
X357248Y140531D01*
X357252Y140517D01*
X357270Y140480D01*
X357289Y140433D01*
X357310Y140371D01*
X357325Y140302D01*
X357340Y140225D01*
X357343Y140142D01*
Y140123D01*
X357340Y140105D01*
Y140076D01*
X357336Y140043D01*
X357329Y140007D01*
X357318Y139963D01*
X357307Y139920D01*
X357292Y139869D01*
X357274Y139818D01*
X357252Y139767D01*
X357223Y139712D01*
X357190Y139661D01*
X357154Y139610D01*
X357110Y139559D01*
X357059Y139512D01*
X357056Y139508D01*
X357045Y139501D01*
X357030Y139490D01*
X357005Y139476D01*
X356972Y139454D01*
X356936Y139436D01*
X356888Y139414D01*
X356837Y139392D01*
X356775Y139366D01*
X356706Y139345D01*
X356630Y139326D01*
X356546Y139308D01*
X356451Y139290D01*
X356349Y139279D01*
X356240Y139272D01*
X356124Y139268D01*
X356120D01*
X356117D01*
X356106D01*
X356091D01*
X356055Y139272D01*
X356004D01*
X355945Y139275D01*
X355876Y139283D01*
X355800Y139290D01*
X355716Y139301D01*
X355632Y139315D01*
X355541Y139334D01*
X355454Y139356D01*
X355367Y139381D01*
X355283Y139414D01*
X355203Y139450D01*
X355126Y139490D01*
X355061Y139538D01*
X355057Y139541D01*
X355050Y139548D01*
X355035Y139563D01*
X355014Y139581D01*
X354992Y139603D01*
X354970Y139632D01*
X354941Y139669D01*
X354915Y139705D01*
X354890Y139749D01*
X354861Y139796D01*
X354839Y139850D01*
X354813Y139905D01*
X354795Y139967D01*
X354781Y140032D01*
X354773Y140102D01*
X354770Y140174D01*
Y140204D01*
X354773Y140225D01*
Y140251D01*
X354777Y140280D01*
X354791Y140349D01*
X354810Y140426D01*
X354839Y140506D01*
X354883Y140586D01*
X354908Y140626D01*
X354937Y140662D01*
X354941Y140666D01*
X354944Y140670D01*
X354955Y140680D01*
X354966Y140691D01*
X354984Y140709D01*
X355006Y140724D01*
X355057Y140764D01*
X355123Y140804D01*
X355203Y140841D01*
X355294Y140873D01*
X355396Y140895D01*
X355421Y140586D01*
X355418D01*
X355414Y140582D01*
X355392Y140578D01*
X355359Y140568D01*
X355319Y140553D01*
X355276Y140539D01*
X355232Y140517D01*
X355192Y140491D01*
X355159Y140466D01*
X355152Y140458D01*
X355137Y140444D01*
X355116Y140418D01*
X355090Y140382D01*
X355068Y140335D01*
X355046Y140284D01*
X355032Y140222D01*
X355025Y140156D01*
Y140131D01*
X355028Y140102D01*
X355035Y140069D01*
X355046Y140025D01*
X355061Y139981D01*
X355079Y139938D01*
X355108Y139894D01*
X355112Y139887D01*
X355126Y139869D01*
X355152Y139843D01*
X355188Y139811D01*
X355232Y139774D01*
X355283Y139734D01*
X355348Y139698D01*
X355421Y139661D01*
X355425D01*
X355432Y139658D01*
X355443Y139654D01*
X355458Y139647D01*
X355480Y139643D01*
X355505Y139636D01*
X355534Y139629D01*
X355571Y139621D01*
X355610Y139610D01*
X355654Y139603D01*
X355701Y139596D01*
X355752Y139592D01*
X355811Y139585D01*
X355869Y139581D01*
X355935Y139577D01*
X356000D01*
X355996Y139581D01*
X355975Y139596D01*
X355945Y139621D01*
X355909Y139654D01*
X355865Y139690D01*
X355825Y139738D01*
X355785Y139789D01*
X355749Y139847D01*
Y139850D01*
X355745Y139854D01*
X355734Y139876D01*
X355723Y139909D01*
X355705Y139952D01*
X355691Y140003D01*
X355680Y140062D01*
X355669Y140123D01*
X355665Y140189D01*
Y140218D01*
X355669Y140240D01*
X355672Y140269D01*
X355676Y140298D01*
X355683Y140335D01*
X355694Y140371D01*
X355720Y140455D01*
X355738Y140498D01*
X355763Y140542D01*
X355789Y140586D01*
X355818Y140633D01*
X355854Y140677D01*
X355894Y140717D01*
X355898Y140720D01*
X355905Y140728D01*
X355916Y140739D01*
X355935Y140750D01*
X355960Y140768D01*
X355985Y140786D01*
X356018Y140804D01*
X356055Y140826D01*
X356095Y140848D01*
X356138Y140866D01*
X356189Y140884D01*
X356240Y140902D01*
X356295Y140913D01*
X356357Y140924D01*
X356419Y140932D01*
X356484Y140935D01*
X356488D01*
X356495D01*
X356506D01*
X356524D01*
X356546Y140932D01*
D02*
G37*
G36*
X356331Y138849D02*
X356368D01*
X356411Y138846D01*
X356455Y138842D01*
X356553Y138831D01*
X356655Y138817D01*
X356753Y138795D01*
X356801Y138780D01*
X356844Y138766D01*
X356848D01*
X356855Y138762D01*
X356866Y138755D01*
X356881Y138748D01*
X356921Y138726D01*
X356972Y138693D01*
X357030Y138649D01*
X357088Y138598D01*
X357150Y138533D01*
X357205Y138453D01*
Y138449D01*
X357212Y138442D01*
X357216Y138431D01*
X357227Y138413D01*
X357238Y138391D01*
X357248Y138362D01*
X357259Y138333D01*
X357274Y138296D01*
X357289Y138256D01*
X357299Y138213D01*
X357310Y138165D01*
X357321Y138111D01*
X357329Y138056D01*
X357336Y137998D01*
X357343Y137867D01*
Y137834D01*
X357340Y137809D01*
Y137779D01*
X357336Y137743D01*
X357332Y137703D01*
X357329Y137663D01*
X357314Y137572D01*
X357292Y137474D01*
X357263Y137379D01*
X357223Y137288D01*
Y137284D01*
X357216Y137277D01*
X357208Y137266D01*
X357201Y137251D01*
X357172Y137212D01*
X357132Y137164D01*
X357081Y137110D01*
X357023Y137059D01*
X356950Y137008D01*
X356870Y136968D01*
X356866D01*
X356859Y136964D01*
X356844Y136960D01*
X356826Y136953D01*
X356804Y136946D01*
X356775Y136939D01*
X356743Y136928D01*
X356702Y136920D01*
X356659Y136913D01*
X356611Y136902D01*
X356561Y136895D01*
X356506Y136888D01*
X356444Y136880D01*
X356379Y136877D01*
X356309Y136873D01*
X356237D01*
X354781D01*
Y137208D01*
X356237D01*
X356240D01*
X356251D01*
X356269D01*
X356291D01*
X356317Y137212D01*
X356349D01*
X356419Y137215D01*
X356499Y137222D01*
X356579Y137233D01*
X356655Y137248D01*
X356688Y137255D01*
X356721Y137266D01*
X356728Y137270D01*
X356746Y137277D01*
X356772Y137295D01*
X356808Y137317D01*
X356844Y137343D01*
X356885Y137379D01*
X356925Y137423D01*
X356957Y137474D01*
X356961Y137481D01*
X356972Y137499D01*
X356983Y137532D01*
X356997Y137575D01*
X357016Y137627D01*
X357027Y137692D01*
X357037Y137761D01*
X357041Y137838D01*
Y137874D01*
X357037Y137896D01*
Y137929D01*
X357034Y137961D01*
X357019Y138041D01*
X357001Y138129D01*
X356972Y138213D01*
X356932Y138293D01*
X356906Y138329D01*
X356877Y138362D01*
X356874Y138365D01*
X356870Y138369D01*
X356859Y138376D01*
X356844Y138387D01*
X356823Y138398D01*
X356801Y138413D01*
X356768Y138427D01*
X356735Y138442D01*
X356695Y138456D01*
X356648Y138467D01*
X356593Y138482D01*
X356535Y138493D01*
X356470Y138504D01*
X356400Y138511D01*
X356320Y138518D01*
X356237D01*
X354781D01*
Y138853D01*
X356237D01*
X356240D01*
X356255D01*
X356273D01*
X356298D01*
X356331Y138849D01*
D02*
G37*
G36*
X655561Y39591D02*
X655590Y39587D01*
X655619Y39583D01*
X655696Y39569D01*
X655776Y39547D01*
X655860Y39514D01*
X655903Y39492D01*
X655943Y39467D01*
X655980Y39438D01*
X656016Y39405D01*
X656020Y39401D01*
X656023Y39398D01*
X656031Y39383D01*
X656041Y39369D01*
X656056Y39350D01*
X656071Y39325D01*
X656085Y39296D01*
X656103Y39263D01*
X656118Y39227D01*
X656133Y39183D01*
X656147Y39139D01*
X656162Y39088D01*
X656169Y39034D01*
X656180Y38972D01*
X656183Y38910D01*
Y38841D01*
X655881Y38797D01*
Y38801D01*
Y38808D01*
Y38823D01*
X655878Y38844D01*
X655874Y38866D01*
Y38892D01*
X655863Y38954D01*
X655852Y39019D01*
X655830Y39085D01*
X655808Y39143D01*
X655794Y39168D01*
X655776Y39190D01*
X655772Y39194D01*
X655758Y39205D01*
X655736Y39223D01*
X655707Y39241D01*
X655667Y39263D01*
X655623Y39278D01*
X655568Y39292D01*
X655510Y39296D01*
X655488D01*
X655466Y39292D01*
X655434Y39288D01*
X655401Y39281D01*
X655365Y39274D01*
X655328Y39259D01*
X655292Y39241D01*
X655288Y39238D01*
X655277Y39230D01*
X655263Y39216D01*
X655241Y39201D01*
X655223Y39176D01*
X655201Y39150D01*
X655182Y39121D01*
X655168Y39085D01*
Y39081D01*
X655161Y39066D01*
X655157Y39041D01*
X655150Y39008D01*
X655142Y38965D01*
X655139Y38910D01*
X655131Y38844D01*
Y38768D01*
Y37032D01*
X654797D01*
Y38750D01*
Y38754D01*
Y38764D01*
Y38779D01*
Y38801D01*
X654800Y38830D01*
Y38859D01*
X654808Y38928D01*
X654815Y39008D01*
X654829Y39092D01*
X654851Y39168D01*
X654877Y39241D01*
Y39245D01*
X654880Y39248D01*
X654891Y39270D01*
X654910Y39299D01*
X654935Y39340D01*
X654971Y39380D01*
X655011Y39423D01*
X655062Y39467D01*
X655121Y39503D01*
X655128Y39507D01*
X655150Y39518D01*
X655182Y39532D01*
X655230Y39547D01*
X655288Y39565D01*
X655353Y39580D01*
X655426Y39591D01*
X655506Y39594D01*
X655539D01*
X655561Y39591D01*
D02*
G37*
G36*
X653523Y37581D02*
X653526Y37585D01*
X653544Y37600D01*
X653566Y37621D01*
X653603Y37647D01*
X653643Y37680D01*
X653694Y37716D01*
X653752Y37756D01*
X653818Y37796D01*
X653821D01*
X653825Y37800D01*
X653847Y37814D01*
X653883Y37832D01*
X653927Y37854D01*
X653978Y37880D01*
X654032Y37905D01*
X654087Y37931D01*
X654141Y37953D01*
Y37654D01*
X654138D01*
X654131Y37647D01*
X654116Y37643D01*
X654098Y37632D01*
X654076Y37621D01*
X654050Y37607D01*
X653989Y37571D01*
X653916Y37530D01*
X653843Y37479D01*
X653766Y37421D01*
X653690Y37359D01*
X653686Y37356D01*
X653683Y37352D01*
X653672Y37341D01*
X653657Y37330D01*
X653624Y37294D01*
X653581Y37250D01*
X653537Y37199D01*
X653490Y37141D01*
X653450Y37083D01*
X653413Y37021D01*
X653213D01*
Y39551D01*
X653523D01*
Y37581D01*
D02*
G37*
G36*
X43310Y58874D02*
X41854D01*
X41850D01*
X41840D01*
X41821D01*
X41800D01*
X41774Y58871D01*
X41741D01*
X41672Y58867D01*
X41592Y58860D01*
X41512Y58849D01*
X41436Y58834D01*
X41403Y58827D01*
X41370Y58816D01*
X41363Y58812D01*
X41344Y58805D01*
X41319Y58787D01*
X41283Y58765D01*
X41246Y58740D01*
X41206Y58703D01*
X41166Y58659D01*
X41133Y58608D01*
X41130Y58601D01*
X41119Y58583D01*
X41108Y58550D01*
X41093Y58507D01*
X41075Y58456D01*
X41064Y58390D01*
X41053Y58321D01*
X41050Y58244D01*
Y58208D01*
X41053Y58186D01*
Y58153D01*
X41057Y58121D01*
X41072Y58041D01*
X41090Y57953D01*
X41119Y57869D01*
X41159Y57789D01*
X41184Y57753D01*
X41213Y57720D01*
X41217Y57717D01*
X41221Y57713D01*
X41232Y57706D01*
X41246Y57695D01*
X41268Y57684D01*
X41290Y57669D01*
X41323Y57655D01*
X41355Y57640D01*
X41395Y57626D01*
X41443Y57615D01*
X41497Y57600D01*
X41556Y57589D01*
X41621Y57578D01*
X41690Y57571D01*
X41770Y57564D01*
X41854D01*
X43310D01*
Y57229D01*
X41854D01*
X41850D01*
X41836D01*
X41818D01*
X41792D01*
X41759Y57232D01*
X41723D01*
X41679Y57236D01*
X41636Y57240D01*
X41537Y57251D01*
X41436Y57265D01*
X41337Y57287D01*
X41290Y57302D01*
X41246Y57316D01*
X41243D01*
X41235Y57320D01*
X41224Y57327D01*
X41210Y57334D01*
X41170Y57356D01*
X41119Y57389D01*
X41061Y57433D01*
X41002Y57484D01*
X40940Y57549D01*
X40886Y57629D01*
Y57633D01*
X40878Y57640D01*
X40875Y57651D01*
X40864Y57669D01*
X40853Y57691D01*
X40842Y57720D01*
X40831Y57749D01*
X40817Y57786D01*
X40802Y57826D01*
X40791Y57869D01*
X40780Y57917D01*
X40769Y57971D01*
X40762Y58026D01*
X40755Y58084D01*
X40747Y58215D01*
Y58248D01*
X40751Y58274D01*
Y58303D01*
X40755Y58339D01*
X40758Y58379D01*
X40762Y58419D01*
X40777Y58510D01*
X40799Y58608D01*
X40828Y58703D01*
X40868Y58794D01*
Y58798D01*
X40875Y58805D01*
X40882Y58816D01*
X40889Y58830D01*
X40919Y58871D01*
X40959Y58918D01*
X41010Y58972D01*
X41068Y59023D01*
X41141Y59074D01*
X41221Y59114D01*
X41224D01*
X41232Y59118D01*
X41246Y59122D01*
X41264Y59129D01*
X41286Y59136D01*
X41315Y59144D01*
X41348Y59154D01*
X41388Y59162D01*
X41432Y59169D01*
X41479Y59180D01*
X41530Y59187D01*
X41585Y59194D01*
X41647Y59202D01*
X41712Y59205D01*
X41781Y59209D01*
X41854D01*
X43310D01*
Y58874D01*
D02*
G37*
G36*
X42688Y56559D02*
X42695Y56552D01*
X42698Y56537D01*
X42709Y56519D01*
X42720Y56497D01*
X42735Y56472D01*
X42771Y56410D01*
X42811Y56337D01*
X42862Y56264D01*
X42921Y56188D01*
X42983Y56111D01*
X42986Y56108D01*
X42990Y56104D01*
X43001Y56093D01*
X43012Y56079D01*
X43048Y56046D01*
X43092Y56002D01*
X43143Y55958D01*
X43201Y55911D01*
X43259Y55871D01*
X43321Y55835D01*
Y55635D01*
X40791D01*
Y55944D01*
X42760D01*
X42757Y55948D01*
X42742Y55966D01*
X42720Y55988D01*
X42695Y56024D01*
X42662Y56064D01*
X42626Y56115D01*
X42586Y56173D01*
X42546Y56239D01*
Y56242D01*
X42542Y56246D01*
X42527Y56268D01*
X42509Y56304D01*
X42487Y56348D01*
X42462Y56399D01*
X42437Y56454D01*
X42411Y56508D01*
X42389Y56563D01*
X42688D01*
Y56559D01*
D02*
G37*
G36*
X43310Y53793D02*
Y53541D01*
X41679D01*
Y53199D01*
X41395D01*
Y53541D01*
X40791D01*
Y53851D01*
X41395D01*
Y54947D01*
X41679D01*
X43310Y53793D01*
D02*
G37*
G36*
X31579Y128869D02*
X32183D01*
Y128559D01*
X31579D01*
Y127464D01*
X31295D01*
X29664Y128618D01*
Y128869D01*
X31295D01*
Y129211D01*
X31579D01*
Y128869D01*
D02*
G37*
G36*
Y126910D02*
X32183D01*
Y126601D01*
X31579D01*
Y125505D01*
X31295D01*
X29664Y126659D01*
Y126910D01*
X31295D01*
Y127252D01*
X31579D01*
Y126910D01*
D02*
G37*
G36*
X31404Y125323D02*
X31426Y125316D01*
X31455Y125305D01*
X31488Y125294D01*
X31528Y125280D01*
X31572Y125261D01*
X31619Y125240D01*
X31721Y125189D01*
X31823Y125123D01*
X31874Y125083D01*
X31925Y125043D01*
X31969Y124999D01*
X32012Y124948D01*
X32016Y124945D01*
X32023Y124937D01*
X32030Y124919D01*
X32045Y124901D01*
X32063Y124872D01*
X32081Y124843D01*
X32100Y124803D01*
X32118Y124763D01*
X32140Y124715D01*
X32158Y124664D01*
X32176Y124610D01*
X32194Y124552D01*
X32209Y124490D01*
X32216Y124424D01*
X32223Y124355D01*
X32227Y124282D01*
Y124242D01*
X32223Y124213D01*
Y124180D01*
X32220Y124140D01*
X32212Y124097D01*
X32205Y124046D01*
X32187Y123940D01*
X32158Y123831D01*
X32118Y123722D01*
X32092Y123671D01*
X32063Y123620D01*
X32060Y123616D01*
X32056Y123609D01*
X32045Y123594D01*
X32030Y123580D01*
X32016Y123558D01*
X31994Y123532D01*
X31969Y123503D01*
X31940Y123474D01*
X31907Y123445D01*
X31874Y123412D01*
X31790Y123347D01*
X31692Y123285D01*
X31583Y123230D01*
X31579D01*
X31568Y123223D01*
X31550Y123219D01*
X31528Y123208D01*
X31499Y123201D01*
X31463Y123190D01*
X31423Y123176D01*
X31379Y123165D01*
X31332Y123154D01*
X31277Y123139D01*
X31164Y123121D01*
X31037Y123107D01*
X30906Y123099D01*
X30902D01*
X30887D01*
X30866D01*
X30840Y123103D01*
X30804D01*
X30767Y123107D01*
X30720Y123110D01*
X30673Y123117D01*
X30567Y123136D01*
X30451Y123161D01*
X30334Y123197D01*
X30221Y123249D01*
X30218Y123252D01*
X30207Y123256D01*
X30192Y123263D01*
X30174Y123278D01*
X30149Y123292D01*
X30119Y123310D01*
X30054Y123358D01*
X29981Y123420D01*
X29908Y123492D01*
X29836Y123576D01*
X29774Y123674D01*
X29770Y123678D01*
X29766Y123689D01*
X29759Y123704D01*
X29748Y123722D01*
X29737Y123751D01*
X29726Y123780D01*
X29712Y123816D01*
X29697Y123856D01*
X29683Y123900D01*
X29668Y123947D01*
X29646Y124049D01*
X29628Y124166D01*
X29621Y124286D01*
Y124322D01*
X29624Y124348D01*
X29628Y124381D01*
X29632Y124421D01*
X29635Y124461D01*
X29646Y124508D01*
X29668Y124606D01*
X29701Y124715D01*
X29723Y124770D01*
X29748Y124821D01*
X29781Y124872D01*
X29814Y124923D01*
X29817Y124926D01*
X29821Y124934D01*
X29832Y124948D01*
X29850Y124967D01*
X29868Y124985D01*
X29894Y125010D01*
X29923Y125036D01*
X29952Y125065D01*
X29988Y125094D01*
X30032Y125123D01*
X30076Y125156D01*
X30123Y125185D01*
X30178Y125210D01*
X30232Y125240D01*
X30291Y125261D01*
X30356Y125283D01*
X30433Y124956D01*
X30429D01*
X30422Y124952D01*
X30407Y124945D01*
X30389Y124937D01*
X30367Y124930D01*
X30338Y124919D01*
X30280Y124890D01*
X30214Y124854D01*
X30149Y124810D01*
X30087Y124755D01*
X30032Y124697D01*
X30025Y124690D01*
X30010Y124668D01*
X29992Y124632D01*
X29967Y124584D01*
X29945Y124522D01*
X29923Y124453D01*
X29908Y124370D01*
X29905Y124279D01*
Y124249D01*
X29908Y124231D01*
Y124206D01*
X29912Y124177D01*
X29923Y124108D01*
X29937Y124031D01*
X29963Y123951D01*
X29999Y123867D01*
X30047Y123791D01*
Y123787D01*
X30054Y123784D01*
X30072Y123758D01*
X30101Y123725D01*
X30145Y123685D01*
X30200Y123638D01*
X30261Y123594D01*
X30338Y123554D01*
X30422Y123518D01*
X30425D01*
X30433Y123514D01*
X30443Y123511D01*
X30462Y123507D01*
X30483Y123500D01*
X30509Y123492D01*
X30571Y123481D01*
X30644Y123467D01*
X30724Y123452D01*
X30811Y123445D01*
X30906Y123441D01*
X30909D01*
X30920D01*
X30939D01*
X30960D01*
X30986Y123445D01*
X31018D01*
X31055Y123449D01*
X31095Y123452D01*
X31182Y123463D01*
X31277Y123481D01*
X31372Y123503D01*
X31466Y123532D01*
X31470D01*
X31477Y123536D01*
X31488Y123543D01*
X31506Y123551D01*
X31550Y123572D01*
X31601Y123605D01*
X31659Y123645D01*
X31721Y123696D01*
X31776Y123754D01*
X31827Y123824D01*
Y123827D01*
X31830Y123835D01*
X31837Y123845D01*
X31845Y123860D01*
X31852Y123878D01*
X31863Y123900D01*
X31885Y123951D01*
X31907Y124016D01*
X31925Y124089D01*
X31940Y124169D01*
X31943Y124253D01*
Y124279D01*
X31940Y124300D01*
Y124326D01*
X31936Y124351D01*
X31921Y124417D01*
X31903Y124493D01*
X31874Y124570D01*
X31834Y124650D01*
X31812Y124690D01*
X31783Y124726D01*
X31779Y124730D01*
X31776Y124734D01*
X31765Y124744D01*
X31754Y124759D01*
X31736Y124774D01*
X31714Y124792D01*
X31692Y124814D01*
X31663Y124832D01*
X31630Y124854D01*
X31594Y124879D01*
X31557Y124901D01*
X31514Y124923D01*
X31466Y124941D01*
X31415Y124959D01*
X31361Y124978D01*
X31302Y124992D01*
X31386Y125327D01*
X31390D01*
X31404Y125323D01*
D02*
G37*
G36*
X87291Y269798D02*
X87316D01*
X87345Y269795D01*
X87414Y269780D01*
X87491Y269762D01*
X87571Y269733D01*
X87651Y269689D01*
X87691Y269664D01*
X87727Y269635D01*
X87731Y269631D01*
X87735Y269627D01*
X87746Y269617D01*
X87757Y269606D01*
X87775Y269587D01*
X87789Y269566D01*
X87829Y269515D01*
X87869Y269449D01*
X87906Y269369D01*
X87938Y269278D01*
X87960Y269176D01*
X87651Y269151D01*
Y269154D01*
X87647Y269158D01*
X87644Y269180D01*
X87633Y269213D01*
X87618Y269252D01*
X87604Y269296D01*
X87582Y269340D01*
X87556Y269380D01*
X87531Y269413D01*
X87524Y269420D01*
X87509Y269434D01*
X87484Y269456D01*
X87447Y269482D01*
X87400Y269504D01*
X87349Y269526D01*
X87287Y269540D01*
X87221Y269547D01*
X87196D01*
X87167Y269544D01*
X87134Y269536D01*
X87090Y269526D01*
X87047Y269511D01*
X87003Y269493D01*
X86959Y269464D01*
X86952Y269460D01*
X86934Y269445D01*
X86908Y269420D01*
X86876Y269384D01*
X86839Y269340D01*
X86799Y269289D01*
X86763Y269223D01*
X86726Y269151D01*
Y269147D01*
X86723Y269140D01*
X86719Y269129D01*
X86712Y269114D01*
X86708Y269092D01*
X86701Y269067D01*
X86694Y269038D01*
X86686Y269001D01*
X86675Y268961D01*
X86668Y268918D01*
X86661Y268870D01*
X86657Y268819D01*
X86650Y268761D01*
X86646Y268703D01*
X86643Y268637D01*
Y268572D01*
X86646Y268576D01*
X86661Y268597D01*
X86686Y268626D01*
X86719Y268663D01*
X86756Y268706D01*
X86803Y268747D01*
X86854Y268787D01*
X86912Y268823D01*
X86916D01*
X86919Y268827D01*
X86941Y268838D01*
X86974Y268848D01*
X87018Y268867D01*
X87068Y268881D01*
X87127Y268892D01*
X87189Y268903D01*
X87254Y268907D01*
X87283D01*
X87305Y268903D01*
X87334Y268899D01*
X87363Y268896D01*
X87400Y268888D01*
X87436Y268878D01*
X87520Y268852D01*
X87564Y268834D01*
X87607Y268808D01*
X87651Y268783D01*
X87698Y268754D01*
X87742Y268718D01*
X87782Y268677D01*
X87786Y268674D01*
X87793Y268667D01*
X87804Y268656D01*
X87815Y268637D01*
X87833Y268612D01*
X87851Y268586D01*
X87869Y268554D01*
X87891Y268517D01*
X87913Y268477D01*
X87931Y268433D01*
X87949Y268383D01*
X87968Y268332D01*
X87979Y268277D01*
X87989Y268215D01*
X87997Y268153D01*
X88000Y268088D01*
Y268084D01*
Y268077D01*
Y268066D01*
Y268048D01*
X87997Y268026D01*
Y268004D01*
X87986Y267946D01*
X87975Y267877D01*
X87957Y267804D01*
X87931Y267724D01*
X87895Y267647D01*
Y267644D01*
X87891Y267640D01*
X87884Y267629D01*
X87877Y267615D01*
X87855Y267578D01*
X87822Y267531D01*
X87782Y267480D01*
X87735Y267429D01*
X87676Y267378D01*
X87615Y267334D01*
X87611D01*
X87607Y267331D01*
X87596Y267323D01*
X87582Y267320D01*
X87545Y267302D01*
X87498Y267283D01*
X87436Y267262D01*
X87367Y267247D01*
X87291Y267232D01*
X87207Y267229D01*
X87189D01*
X87170Y267232D01*
X87141D01*
X87109Y267236D01*
X87072Y267243D01*
X87028Y267254D01*
X86985Y267265D01*
X86934Y267280D01*
X86883Y267298D01*
X86832Y267320D01*
X86777Y267349D01*
X86726Y267382D01*
X86675Y267418D01*
X86624Y267462D01*
X86577Y267513D01*
X86573Y267516D01*
X86566Y267527D01*
X86555Y267542D01*
X86541Y267567D01*
X86519Y267600D01*
X86501Y267636D01*
X86479Y267684D01*
X86457Y267735D01*
X86431Y267796D01*
X86410Y267866D01*
X86392Y267942D01*
X86373Y268026D01*
X86355Y268121D01*
X86344Y268222D01*
X86337Y268332D01*
X86333Y268448D01*
Y268452D01*
Y268455D01*
Y268466D01*
Y268481D01*
X86337Y268517D01*
Y268568D01*
X86340Y268626D01*
X86348Y268696D01*
X86355Y268772D01*
X86366Y268856D01*
X86381Y268939D01*
X86399Y269030D01*
X86421Y269118D01*
X86446Y269205D01*
X86479Y269289D01*
X86515Y269369D01*
X86555Y269445D01*
X86603Y269511D01*
X86606Y269515D01*
X86614Y269522D01*
X86628Y269536D01*
X86646Y269558D01*
X86668Y269580D01*
X86697Y269602D01*
X86734Y269631D01*
X86770Y269657D01*
X86814Y269682D01*
X86861Y269711D01*
X86916Y269733D01*
X86970Y269759D01*
X87032Y269777D01*
X87098Y269791D01*
X87167Y269798D01*
X87240Y269802D01*
X87269D01*
X87291Y269798D01*
D02*
G37*
G36*
X85929Y268073D02*
Y268070D01*
Y268059D01*
Y268044D01*
Y268022D01*
X85926Y267993D01*
Y267964D01*
X85918Y267895D01*
X85911Y267815D01*
X85896Y267731D01*
X85875Y267655D01*
X85849Y267582D01*
Y267578D01*
X85846Y267575D01*
X85835Y267553D01*
X85816Y267524D01*
X85791Y267483D01*
X85755Y267443D01*
X85714Y267400D01*
X85663Y267356D01*
X85605Y267320D01*
X85598Y267316D01*
X85576Y267305D01*
X85543Y267291D01*
X85496Y267276D01*
X85438Y267258D01*
X85372Y267243D01*
X85299Y267232D01*
X85219Y267229D01*
X85187D01*
X85165Y267232D01*
X85136Y267236D01*
X85107Y267240D01*
X85030Y267254D01*
X84950Y267276D01*
X84866Y267309D01*
X84823Y267331D01*
X84783Y267356D01*
X84746Y267385D01*
X84710Y267418D01*
X84706Y267422D01*
X84702Y267425D01*
X84695Y267440D01*
X84684Y267454D01*
X84670Y267473D01*
X84655Y267498D01*
X84641Y267527D01*
X84622Y267560D01*
X84608Y267596D01*
X84593Y267640D01*
X84579Y267684D01*
X84564Y267735D01*
X84557Y267789D01*
X84546Y267851D01*
X84542Y267913D01*
Y267982D01*
X84844Y268026D01*
Y268022D01*
Y268015D01*
Y268000D01*
X84848Y267979D01*
X84852Y267957D01*
Y267931D01*
X84863Y267869D01*
X84874Y267804D01*
X84895Y267738D01*
X84917Y267680D01*
X84932Y267655D01*
X84950Y267633D01*
X84954Y267629D01*
X84968Y267618D01*
X84990Y267600D01*
X85019Y267582D01*
X85059Y267560D01*
X85103Y267545D01*
X85158Y267531D01*
X85216Y267527D01*
X85238D01*
X85259Y267531D01*
X85292Y267534D01*
X85325Y267542D01*
X85361Y267549D01*
X85398Y267564D01*
X85434Y267582D01*
X85438Y267585D01*
X85449Y267593D01*
X85463Y267607D01*
X85485Y267622D01*
X85503Y267647D01*
X85525Y267673D01*
X85543Y267702D01*
X85558Y267738D01*
Y267742D01*
X85565Y267757D01*
X85569Y267782D01*
X85576Y267815D01*
X85583Y267858D01*
X85587Y267913D01*
X85594Y267979D01*
Y268055D01*
Y269791D01*
X85929D01*
Y268073D01*
D02*
G37*
G36*
X567201Y268355D02*
Y268351D01*
Y268340D01*
Y268326D01*
Y268304D01*
X567198Y268275D01*
Y268246D01*
X567190Y268177D01*
X567183Y268096D01*
X567169Y268013D01*
X567147Y267936D01*
X567121Y267863D01*
Y267860D01*
X567118Y267856D01*
X567107Y267834D01*
X567088Y267805D01*
X567063Y267765D01*
X567027Y267725D01*
X566987Y267682D01*
X566935Y267638D01*
X566877Y267601D01*
X566870Y267598D01*
X566848Y267587D01*
X566815Y267572D01*
X566768Y267558D01*
X566710Y267540D01*
X566644Y267525D01*
X566572Y267514D01*
X566492Y267510D01*
X566459D01*
X566437Y267514D01*
X566408Y267518D01*
X566379Y267521D01*
X566302Y267536D01*
X566222Y267558D01*
X566138Y267590D01*
X566095Y267612D01*
X566055Y267638D01*
X566018Y267667D01*
X565982Y267700D01*
X565978Y267703D01*
X565975Y267707D01*
X565967Y267722D01*
X565956Y267736D01*
X565942Y267754D01*
X565927Y267780D01*
X565913Y267809D01*
X565895Y267842D01*
X565880Y267878D01*
X565865Y267922D01*
X565851Y267965D01*
X565836Y268016D01*
X565829Y268071D01*
X565818Y268133D01*
X565814Y268195D01*
Y268264D01*
X566117Y268308D01*
Y268304D01*
Y268297D01*
Y268282D01*
X566120Y268260D01*
X566124Y268238D01*
Y268213D01*
X566135Y268151D01*
X566146Y268086D01*
X566167Y268020D01*
X566189Y267962D01*
X566204Y267936D01*
X566222Y267915D01*
X566226Y267911D01*
X566240Y267900D01*
X566262Y267882D01*
X566291Y267863D01*
X566331Y267842D01*
X566375Y267827D01*
X566430Y267813D01*
X566488Y267809D01*
X566510D01*
X566532Y267813D01*
X566564Y267816D01*
X566597Y267824D01*
X566633Y267831D01*
X566670Y267845D01*
X566706Y267863D01*
X566710Y267867D01*
X566721Y267874D01*
X566735Y267889D01*
X566757Y267904D01*
X566775Y267929D01*
X566797Y267954D01*
X566815Y267984D01*
X566830Y268020D01*
Y268024D01*
X566837Y268038D01*
X566841Y268064D01*
X566848Y268096D01*
X566855Y268140D01*
X566859Y268195D01*
X566866Y268260D01*
Y268337D01*
Y270073D01*
X567201D01*
Y268355D01*
D02*
G37*
G36*
X569171Y269745D02*
X568162D01*
X568027Y269065D01*
X568031Y269068D01*
X568039Y269072D01*
X568049Y269079D01*
X568068Y269090D01*
X568089Y269101D01*
X568115Y269116D01*
X568173Y269145D01*
X568246Y269174D01*
X568326Y269199D01*
X568413Y269218D01*
X568457Y269225D01*
X568537D01*
X568559Y269221D01*
X568588Y269218D01*
X568621Y269214D01*
X568657Y269207D01*
X568697Y269196D01*
X568785Y269170D01*
X568832Y269152D01*
X568879Y269127D01*
X568927Y269101D01*
X568974Y269072D01*
X569018Y269036D01*
X569061Y268996D01*
X569065Y268992D01*
X569072Y268985D01*
X569083Y268974D01*
X569098Y268955D01*
X569116Y268930D01*
X569134Y268905D01*
X569156Y268872D01*
X569178Y268835D01*
X569196Y268795D01*
X569218Y268752D01*
X569236Y268701D01*
X569254Y268650D01*
X569269Y268595D01*
X569280Y268533D01*
X569287Y268471D01*
X569291Y268406D01*
Y268402D01*
Y268391D01*
Y268373D01*
X569287Y268348D01*
X569283Y268319D01*
X569280Y268286D01*
X569272Y268246D01*
X569265Y268206D01*
X569243Y268111D01*
X569207Y268013D01*
X569185Y267962D01*
X569156Y267915D01*
X569127Y267863D01*
X569090Y267816D01*
X569087Y267813D01*
X569079Y267802D01*
X569065Y267787D01*
X569047Y267769D01*
X569021Y267747D01*
X568992Y267718D01*
X568956Y267692D01*
X568916Y267663D01*
X568872Y267634D01*
X568821Y267609D01*
X568766Y267583D01*
X568708Y267558D01*
X568646Y267540D01*
X568577Y267525D01*
X568504Y267514D01*
X568428Y267510D01*
X568395D01*
X568370Y267514D01*
X568341Y267518D01*
X568308Y267521D01*
X568268Y267525D01*
X568228Y267536D01*
X568137Y267558D01*
X568046Y267590D01*
X567998Y267612D01*
X567951Y267638D01*
X567907Y267667D01*
X567864Y267700D01*
X567860Y267703D01*
X567853Y267707D01*
X567845Y267722D01*
X567831Y267736D01*
X567813Y267754D01*
X567795Y267776D01*
X567773Y267805D01*
X567755Y267838D01*
X567733Y267871D01*
X567711Y267911D01*
X567671Y267998D01*
X567638Y268100D01*
X567627Y268155D01*
X567620Y268213D01*
X567944Y268238D01*
Y268235D01*
Y268228D01*
X567947Y268217D01*
X567951Y268198D01*
X567962Y268158D01*
X567977Y268104D01*
X567998Y268049D01*
X568027Y267987D01*
X568064Y267933D01*
X568108Y267882D01*
X568115Y267878D01*
X568129Y267863D01*
X568159Y267845D01*
X568199Y267824D01*
X568242Y267802D01*
X568297Y267783D01*
X568359Y267769D01*
X568428Y267765D01*
X568450D01*
X568464Y267769D01*
X568508Y267773D01*
X568559Y267787D01*
X568621Y267805D01*
X568683Y267834D01*
X568748Y267878D01*
X568777Y267904D01*
X568807Y267933D01*
X568810Y267936D01*
X568814Y267940D01*
X568821Y267951D01*
X568832Y267962D01*
X568857Y268002D01*
X568887Y268053D01*
X568912Y268115D01*
X568937Y268191D01*
X568956Y268282D01*
X568963Y268329D01*
Y268380D01*
Y268384D01*
Y268391D01*
Y268406D01*
X568959Y268424D01*
Y268446D01*
X568956Y268471D01*
X568945Y268530D01*
X568927Y268599D01*
X568901Y268668D01*
X568865Y268734D01*
X568814Y268795D01*
Y268799D01*
X568807Y268803D01*
X568788Y268821D01*
X568755Y268846D01*
X568712Y268875D01*
X568654Y268901D01*
X568588Y268926D01*
X568512Y268945D01*
X568468Y268952D01*
X568399D01*
X568370Y268948D01*
X568333Y268945D01*
X568290Y268934D01*
X568246Y268923D01*
X568199Y268905D01*
X568151Y268883D01*
X568148Y268879D01*
X568133Y268872D01*
X568111Y268854D01*
X568082Y268835D01*
X568053Y268810D01*
X568024Y268777D01*
X567991Y268744D01*
X567966Y268704D01*
X567674Y268744D01*
X567918Y270040D01*
X569171D01*
Y269745D01*
D02*
G37*
G36*
X404773Y267378D02*
X404802Y267374D01*
X404831Y267370D01*
X404907Y267356D01*
X404987Y267334D01*
X405071Y267301D01*
X405115Y267279D01*
X405155Y267254D01*
X405191Y267225D01*
X405228Y267192D01*
X405231Y267188D01*
X405235Y267185D01*
X405242Y267170D01*
X405253Y267156D01*
X405268Y267137D01*
X405282Y267112D01*
X405297Y267083D01*
X405315Y267050D01*
X405330Y267014D01*
X405344Y266970D01*
X405359Y266926D01*
X405373Y266875D01*
X405380Y266821D01*
X405391Y266759D01*
X405395Y266697D01*
Y266628D01*
X405093Y266584D01*
Y266588D01*
Y266595D01*
Y266610D01*
X405089Y266632D01*
X405086Y266653D01*
Y266679D01*
X405075Y266741D01*
X405064Y266806D01*
X405042Y266872D01*
X405020Y266930D01*
X405006Y266955D01*
X404987Y266977D01*
X404984Y266981D01*
X404969Y266992D01*
X404947Y267010D01*
X404918Y267028D01*
X404878Y267050D01*
X404835Y267065D01*
X404780Y267079D01*
X404722Y267083D01*
X404700D01*
X404678Y267079D01*
X404645Y267076D01*
X404612Y267068D01*
X404576Y267061D01*
X404540Y267046D01*
X404503Y267028D01*
X404500Y267025D01*
X404489Y267017D01*
X404474Y267003D01*
X404452Y266988D01*
X404434Y266963D01*
X404412Y266937D01*
X404394Y266908D01*
X404380Y266872D01*
Y266868D01*
X404372Y266853D01*
X404369Y266828D01*
X404361Y266795D01*
X404354Y266752D01*
X404350Y266697D01*
X404343Y266632D01*
Y266555D01*
Y264819D01*
X404008D01*
Y266537D01*
Y266541D01*
Y266551D01*
Y266566D01*
Y266588D01*
X404012Y266617D01*
Y266646D01*
X404019Y266715D01*
X404026Y266795D01*
X404041Y266879D01*
X404063Y266955D01*
X404088Y267028D01*
Y267032D01*
X404092Y267036D01*
X404103Y267057D01*
X404121Y267087D01*
X404146Y267126D01*
X404183Y267167D01*
X404223Y267210D01*
X404274Y267254D01*
X404332Y267290D01*
X404339Y267294D01*
X404361Y267305D01*
X404394Y267319D01*
X404441Y267334D01*
X404500Y267352D01*
X404565Y267367D01*
X404638Y267378D01*
X404718Y267381D01*
X404751D01*
X404773Y267378D01*
D02*
G37*
G36*
X402599Y266733D02*
X403695D01*
Y266449D01*
X402541Y264819D01*
X402290D01*
Y266449D01*
X401948D01*
Y266733D01*
X402290D01*
Y267338D01*
X402599D01*
Y266733D01*
D02*
G37*
G36*
X244360Y267378D02*
X244389Y267374D01*
X244418Y267370D01*
X244494Y267356D01*
X244574Y267334D01*
X244658Y267301D01*
X244702Y267279D01*
X244742Y267254D01*
X244778Y267225D01*
X244815Y267192D01*
X244818Y267188D01*
X244822Y267185D01*
X244829Y267170D01*
X244840Y267156D01*
X244855Y267137D01*
X244869Y267112D01*
X244884Y267083D01*
X244902Y267050D01*
X244917Y267014D01*
X244931Y266970D01*
X244946Y266926D01*
X244960Y266875D01*
X244967Y266821D01*
X244978Y266759D01*
X244982Y266697D01*
Y266628D01*
X244680Y266584D01*
Y266588D01*
Y266595D01*
Y266610D01*
X244676Y266632D01*
X244673Y266653D01*
Y266679D01*
X244662Y266741D01*
X244651Y266806D01*
X244629Y266872D01*
X244607Y266930D01*
X244592Y266955D01*
X244574Y266977D01*
X244571Y266981D01*
X244556Y266992D01*
X244534Y267010D01*
X244505Y267028D01*
X244465Y267050D01*
X244421Y267065D01*
X244367Y267079D01*
X244309Y267083D01*
X244287D01*
X244265Y267079D01*
X244232Y267076D01*
X244199Y267068D01*
X244163Y267061D01*
X244127Y267046D01*
X244090Y267028D01*
X244087Y267025D01*
X244076Y267017D01*
X244061Y267003D01*
X244039Y266988D01*
X244021Y266963D01*
X243999Y266937D01*
X243981Y266908D01*
X243966Y266872D01*
Y266868D01*
X243959Y266853D01*
X243955Y266828D01*
X243948Y266795D01*
X243941Y266752D01*
X243937Y266697D01*
X243930Y266632D01*
Y266555D01*
Y264819D01*
X243595D01*
Y266537D01*
Y266541D01*
Y266551D01*
Y266566D01*
Y266588D01*
X243599Y266617D01*
Y266646D01*
X243606Y266715D01*
X243613Y266795D01*
X243628Y266879D01*
X243650Y266955D01*
X243675Y267028D01*
Y267032D01*
X243679Y267036D01*
X243690Y267057D01*
X243708Y267087D01*
X243734Y267126D01*
X243770Y267167D01*
X243810Y267210D01*
X243861Y267254D01*
X243919Y267290D01*
X243926Y267294D01*
X243948Y267305D01*
X243981Y267319D01*
X244028Y267334D01*
X244087Y267352D01*
X244152Y267367D01*
X244225Y267378D01*
X244305Y267381D01*
X244338D01*
X244360Y267378D01*
D02*
G37*
G36*
X242412D02*
X242445Y267374D01*
X242481Y267370D01*
X242521Y267363D01*
X242565Y267352D01*
X242663Y267327D01*
X242714Y267308D01*
X242762Y267290D01*
X242813Y267265D01*
X242863Y267236D01*
X242911Y267203D01*
X242954Y267163D01*
X242958Y267159D01*
X242965Y267152D01*
X242976Y267141D01*
X242991Y267123D01*
X243005Y267101D01*
X243027Y267076D01*
X243045Y267046D01*
X243067Y267010D01*
X243089Y266974D01*
X243107Y266930D01*
X243144Y266839D01*
X243158Y266784D01*
X243169Y266730D01*
X243177Y266671D01*
X243180Y266613D01*
Y266610D01*
Y266602D01*
Y266588D01*
X243177Y266573D01*
Y266551D01*
X243173Y266526D01*
X243166Y266468D01*
X243151Y266402D01*
X243129Y266337D01*
X243096Y266267D01*
X243056Y266202D01*
Y266198D01*
X243049Y266195D01*
X243035Y266177D01*
X243005Y266147D01*
X242965Y266111D01*
X242915Y266075D01*
X242853Y266035D01*
X242783Y266002D01*
X242700Y265976D01*
X242703D01*
X242707Y265973D01*
X242718Y265969D01*
X242733Y265962D01*
X242765Y265947D01*
X242809Y265925D01*
X242856Y265896D01*
X242904Y265860D01*
X242947Y265820D01*
X242987Y265776D01*
X242991Y265769D01*
X243002Y265754D01*
X243016Y265725D01*
X243031Y265689D01*
X243049Y265641D01*
X243064Y265587D01*
X243075Y265525D01*
X243078Y265459D01*
Y265456D01*
Y265448D01*
Y265434D01*
X243075Y265412D01*
X243071Y265390D01*
X243067Y265361D01*
X243053Y265299D01*
X243031Y265226D01*
X242995Y265150D01*
X242973Y265110D01*
X242947Y265070D01*
X242915Y265034D01*
X242882Y264997D01*
X242878Y264994D01*
X242871Y264990D01*
X242860Y264979D01*
X242845Y264968D01*
X242827Y264953D01*
X242802Y264939D01*
X242773Y264921D01*
X242743Y264902D01*
X242707Y264884D01*
X242667Y264866D01*
X242623Y264851D01*
X242576Y264837D01*
X242474Y264815D01*
X242416Y264811D01*
X242358Y264808D01*
X242325D01*
X242303Y264811D01*
X242274Y264815D01*
X242241Y264819D01*
X242205Y264822D01*
X242168Y264833D01*
X242081Y264855D01*
X241994Y264888D01*
X241950Y264910D01*
X241906Y264935D01*
X241866Y264968D01*
X241826Y265001D01*
X241823Y265004D01*
X241819Y265008D01*
X241808Y265019D01*
X241793Y265034D01*
X241779Y265055D01*
X241761Y265077D01*
X241724Y265132D01*
X241688Y265201D01*
X241655Y265281D01*
X241630Y265372D01*
X241626Y265419D01*
X241622Y265470D01*
Y265474D01*
Y265478D01*
Y265499D01*
X241626Y265532D01*
X241633Y265572D01*
X241644Y265623D01*
X241662Y265674D01*
X241684Y265725D01*
X241717Y265776D01*
X241721Y265783D01*
X241735Y265798D01*
X241757Y265820D01*
X241786Y265849D01*
X241826Y265882D01*
X241873Y265914D01*
X241928Y265947D01*
X241994Y265976D01*
X241990D01*
X241983Y265980D01*
X241972Y265984D01*
X241957Y265991D01*
X241914Y266009D01*
X241863Y266035D01*
X241808Y266071D01*
X241750Y266111D01*
X241695Y266162D01*
X241644Y266220D01*
Y266224D01*
X241640Y266227D01*
X241626Y266249D01*
X241604Y266286D01*
X241582Y266333D01*
X241560Y266391D01*
X241539Y266460D01*
X241524Y266537D01*
X241520Y266621D01*
Y266624D01*
Y266635D01*
Y266653D01*
X241524Y266675D01*
X241528Y266701D01*
X241531Y266733D01*
X241539Y266770D01*
X241549Y266810D01*
X241575Y266894D01*
X241593Y266941D01*
X241619Y266985D01*
X241644Y267032D01*
X241673Y267076D01*
X241710Y267119D01*
X241750Y267163D01*
X241753Y267167D01*
X241761Y267174D01*
X241772Y267185D01*
X241790Y267196D01*
X241815Y267214D01*
X241841Y267232D01*
X241873Y267250D01*
X241910Y267272D01*
X241950Y267294D01*
X241997Y267312D01*
X242048Y267330D01*
X242099Y267349D01*
X242157Y267359D01*
X242219Y267370D01*
X242281Y267378D01*
X242350Y267381D01*
X242387D01*
X242412Y267378D01*
D02*
G37*
G36*
X56374Y97959D02*
X56403D01*
X56436Y97955D01*
X56472Y97948D01*
X56516Y97937D01*
X56560Y97926D01*
X56611Y97912D01*
X56662Y97894D01*
X56713Y97872D01*
X56767Y97843D01*
X56818Y97810D01*
X56869Y97773D01*
X56920Y97730D01*
X56968Y97679D01*
X56971Y97675D01*
X56978Y97664D01*
X56989Y97650D01*
X57004Y97624D01*
X57026Y97591D01*
X57044Y97555D01*
X57066Y97508D01*
X57088Y97457D01*
X57113Y97395D01*
X57135Y97326D01*
X57153Y97249D01*
X57171Y97166D01*
X57190Y97071D01*
X57200Y96969D01*
X57208Y96860D01*
X57211Y96743D01*
Y96740D01*
Y96736D01*
Y96725D01*
Y96710D01*
X57208Y96674D01*
Y96623D01*
X57204Y96565D01*
X57197Y96496D01*
X57190Y96419D01*
X57179Y96336D01*
X57164Y96252D01*
X57146Y96161D01*
X57124Y96074D01*
X57099Y95986D01*
X57066Y95902D01*
X57029Y95822D01*
X56989Y95746D01*
X56942Y95680D01*
X56938Y95677D01*
X56931Y95670D01*
X56917Y95655D01*
X56898Y95633D01*
X56876Y95611D01*
X56847Y95589D01*
X56811Y95560D01*
X56775Y95535D01*
X56731Y95509D01*
X56684Y95480D01*
X56629Y95458D01*
X56574Y95433D01*
X56512Y95415D01*
X56447Y95400D01*
X56378Y95393D01*
X56305Y95389D01*
X56276D01*
X56254Y95393D01*
X56229D01*
X56200Y95397D01*
X56130Y95411D01*
X56054Y95429D01*
X55974Y95458D01*
X55894Y95502D01*
X55854Y95527D01*
X55817Y95557D01*
X55814Y95560D01*
X55810Y95564D01*
X55799Y95575D01*
X55788Y95586D01*
X55770Y95604D01*
X55755Y95626D01*
X55715Y95677D01*
X55675Y95742D01*
X55639Y95822D01*
X55606Y95913D01*
X55584Y96015D01*
X55894Y96041D01*
Y96037D01*
X55897Y96034D01*
X55901Y96012D01*
X55912Y95979D01*
X55927Y95939D01*
X55941Y95895D01*
X55963Y95851D01*
X55988Y95811D01*
X56014Y95779D01*
X56021Y95771D01*
X56036Y95757D01*
X56061Y95735D01*
X56098Y95710D01*
X56145Y95688D01*
X56196Y95666D01*
X56258Y95651D01*
X56323Y95644D01*
X56349D01*
X56378Y95648D01*
X56411Y95655D01*
X56454Y95666D01*
X56498Y95680D01*
X56542Y95699D01*
X56585Y95728D01*
X56593Y95731D01*
X56611Y95746D01*
X56636Y95771D01*
X56669Y95808D01*
X56705Y95851D01*
X56745Y95902D01*
X56782Y95968D01*
X56818Y96041D01*
Y96044D01*
X56822Y96052D01*
X56826Y96063D01*
X56833Y96077D01*
X56836Y96099D01*
X56844Y96125D01*
X56851Y96154D01*
X56858Y96190D01*
X56869Y96230D01*
X56876Y96274D01*
X56884Y96321D01*
X56888Y96372D01*
X56895Y96430D01*
X56898Y96488D01*
X56902Y96554D01*
Y96619D01*
X56898Y96616D01*
X56884Y96594D01*
X56858Y96565D01*
X56826Y96529D01*
X56789Y96485D01*
X56742Y96445D01*
X56691Y96405D01*
X56633Y96368D01*
X56629D01*
X56625Y96365D01*
X56603Y96354D01*
X56571Y96343D01*
X56527Y96325D01*
X56476Y96310D01*
X56418Y96299D01*
X56356Y96288D01*
X56291Y96285D01*
X56261D01*
X56239Y96288D01*
X56210Y96292D01*
X56181Y96296D01*
X56145Y96303D01*
X56108Y96314D01*
X56025Y96339D01*
X55981Y96357D01*
X55937Y96383D01*
X55894Y96408D01*
X55846Y96438D01*
X55803Y96474D01*
X55763Y96514D01*
X55759Y96518D01*
X55752Y96525D01*
X55741Y96536D01*
X55730Y96554D01*
X55712Y96579D01*
X55694Y96605D01*
X55675Y96638D01*
X55654Y96674D01*
X55632Y96714D01*
X55613Y96758D01*
X55595Y96809D01*
X55577Y96860D01*
X55566Y96914D01*
X55555Y96976D01*
X55548Y97038D01*
X55544Y97104D01*
Y97107D01*
Y97114D01*
Y97126D01*
Y97144D01*
X55548Y97166D01*
Y97187D01*
X55559Y97246D01*
X55570Y97315D01*
X55588Y97387D01*
X55613Y97468D01*
X55650Y97544D01*
Y97548D01*
X55654Y97551D01*
X55661Y97562D01*
X55668Y97577D01*
X55690Y97613D01*
X55723Y97661D01*
X55763Y97711D01*
X55810Y97763D01*
X55868Y97813D01*
X55930Y97857D01*
X55934D01*
X55937Y97861D01*
X55948Y97868D01*
X55963Y97872D01*
X55999Y97890D01*
X56047Y97908D01*
X56108Y97930D01*
X56178Y97944D01*
X56254Y97959D01*
X56338Y97963D01*
X56356D01*
X56374Y97959D01*
D02*
G37*
G36*
X60553D02*
X60586D01*
X60626Y97955D01*
X60669Y97948D01*
X60720Y97941D01*
X60826Y97923D01*
X60935Y97894D01*
X61044Y97853D01*
X61095Y97828D01*
X61146Y97799D01*
X61150Y97795D01*
X61157Y97792D01*
X61172Y97781D01*
X61186Y97766D01*
X61208Y97751D01*
X61234Y97730D01*
X61263Y97704D01*
X61292Y97675D01*
X61321Y97642D01*
X61354Y97610D01*
X61419Y97526D01*
X61481Y97428D01*
X61536Y97318D01*
Y97315D01*
X61543Y97304D01*
X61547Y97286D01*
X61558Y97264D01*
X61565Y97235D01*
X61576Y97198D01*
X61590Y97158D01*
X61601Y97114D01*
X61612Y97067D01*
X61627Y97013D01*
X61645Y96900D01*
X61659Y96772D01*
X61667Y96641D01*
Y96638D01*
Y96623D01*
Y96601D01*
X61663Y96576D01*
Y96539D01*
X61659Y96503D01*
X61656Y96456D01*
X61649Y96408D01*
X61630Y96303D01*
X61605Y96186D01*
X61568Y96070D01*
X61518Y95957D01*
X61514Y95953D01*
X61510Y95942D01*
X61503Y95928D01*
X61488Y95910D01*
X61474Y95884D01*
X61456Y95855D01*
X61408Y95790D01*
X61347Y95717D01*
X61274Y95644D01*
X61190Y95571D01*
X61092Y95509D01*
X61088Y95506D01*
X61077Y95502D01*
X61063Y95495D01*
X61044Y95484D01*
X61015Y95473D01*
X60986Y95462D01*
X60950Y95447D01*
X60910Y95433D01*
X60866Y95418D01*
X60819Y95404D01*
X60717Y95382D01*
X60600Y95364D01*
X60480Y95356D01*
X60444D01*
X60418Y95360D01*
X60386Y95364D01*
X60346Y95367D01*
X60305Y95371D01*
X60258Y95382D01*
X60160Y95404D01*
X60051Y95437D01*
X59996Y95458D01*
X59945Y95484D01*
X59894Y95517D01*
X59843Y95549D01*
X59839Y95553D01*
X59832Y95557D01*
X59818Y95568D01*
X59799Y95586D01*
X59781Y95604D01*
X59756Y95629D01*
X59730Y95659D01*
X59701Y95688D01*
X59672Y95724D01*
X59643Y95768D01*
X59610Y95811D01*
X59581Y95859D01*
X59556Y95913D01*
X59526Y95968D01*
X59505Y96026D01*
X59483Y96092D01*
X59810Y96168D01*
Y96165D01*
X59814Y96157D01*
X59821Y96143D01*
X59829Y96125D01*
X59836Y96103D01*
X59847Y96074D01*
X59876Y96015D01*
X59912Y95950D01*
X59956Y95884D01*
X60011Y95822D01*
X60069Y95768D01*
X60076Y95761D01*
X60098Y95746D01*
X60134Y95728D01*
X60182Y95702D01*
X60243Y95680D01*
X60313Y95659D01*
X60396Y95644D01*
X60487Y95640D01*
X60517D01*
X60535Y95644D01*
X60560D01*
X60589Y95648D01*
X60659Y95659D01*
X60735Y95673D01*
X60815Y95699D01*
X60899Y95735D01*
X60975Y95782D01*
X60979D01*
X60982Y95790D01*
X61008Y95808D01*
X61041Y95837D01*
X61081Y95881D01*
X61128Y95935D01*
X61172Y95997D01*
X61212Y96074D01*
X61248Y96157D01*
Y96161D01*
X61252Y96168D01*
X61255Y96179D01*
X61259Y96197D01*
X61266Y96219D01*
X61274Y96245D01*
X61285Y96307D01*
X61299Y96379D01*
X61314Y96459D01*
X61321Y96547D01*
X61325Y96641D01*
Y96645D01*
Y96656D01*
Y96674D01*
Y96696D01*
X61321Y96721D01*
Y96754D01*
X61317Y96791D01*
X61314Y96831D01*
X61303Y96918D01*
X61285Y97013D01*
X61263Y97107D01*
X61234Y97202D01*
Y97206D01*
X61230Y97213D01*
X61223Y97224D01*
X61215Y97242D01*
X61194Y97286D01*
X61161Y97337D01*
X61121Y97395D01*
X61070Y97457D01*
X61012Y97511D01*
X60942Y97562D01*
X60939D01*
X60931Y97566D01*
X60921Y97573D01*
X60906Y97580D01*
X60888Y97588D01*
X60866Y97599D01*
X60815Y97620D01*
X60750Y97642D01*
X60677Y97661D01*
X60597Y97675D01*
X60513Y97679D01*
X60487D01*
X60466Y97675D01*
X60440D01*
X60415Y97672D01*
X60349Y97657D01*
X60273Y97639D01*
X60196Y97610D01*
X60116Y97570D01*
X60076Y97548D01*
X60040Y97519D01*
X60036Y97515D01*
X60032Y97511D01*
X60022Y97500D01*
X60007Y97490D01*
X59992Y97471D01*
X59974Y97449D01*
X59952Y97428D01*
X59934Y97399D01*
X59912Y97366D01*
X59887Y97329D01*
X59865Y97293D01*
X59843Y97249D01*
X59825Y97202D01*
X59807Y97151D01*
X59789Y97096D01*
X59774Y97038D01*
X59439Y97122D01*
Y97126D01*
X59443Y97140D01*
X59450Y97162D01*
X59461Y97191D01*
X59472Y97224D01*
X59486Y97264D01*
X59505Y97307D01*
X59526Y97355D01*
X59577Y97457D01*
X59643Y97559D01*
X59683Y97610D01*
X59723Y97661D01*
X59767Y97704D01*
X59818Y97748D01*
X59821Y97751D01*
X59829Y97759D01*
X59847Y97766D01*
X59865Y97781D01*
X59894Y97799D01*
X59923Y97817D01*
X59963Y97835D01*
X60003Y97853D01*
X60051Y97875D01*
X60102Y97894D01*
X60156Y97912D01*
X60214Y97930D01*
X60276Y97944D01*
X60342Y97952D01*
X60411Y97959D01*
X60484Y97963D01*
X60524D01*
X60553Y97959D01*
D02*
G37*
G36*
X58165Y97315D02*
X59261D01*
Y97031D01*
X58107Y95400D01*
X57856D01*
Y97031D01*
X57513D01*
Y97315D01*
X57856D01*
Y97919D01*
X58165D01*
Y97315D01*
D02*
G37*
G36*
X13775Y62861D02*
X12319D01*
X12315D01*
X12305D01*
X12286D01*
X12264D01*
X12239Y62858D01*
X12206D01*
X12137Y62854D01*
X12057Y62847D01*
X11977Y62836D01*
X11901Y62821D01*
X11868Y62814D01*
X11835Y62803D01*
X11828Y62799D01*
X11810Y62792D01*
X11784Y62774D01*
X11748Y62752D01*
X11711Y62727D01*
X11671Y62690D01*
X11631Y62647D01*
X11598Y62596D01*
X11595Y62588D01*
X11584Y62570D01*
X11573Y62537D01*
X11558Y62494D01*
X11540Y62443D01*
X11529Y62377D01*
X11518Y62308D01*
X11515Y62232D01*
Y62195D01*
X11518Y62173D01*
Y62141D01*
X11522Y62108D01*
X11536Y62028D01*
X11555Y61940D01*
X11584Y61857D01*
X11624Y61777D01*
X11649Y61740D01*
X11678Y61707D01*
X11682Y61704D01*
X11686Y61700D01*
X11697Y61693D01*
X11711Y61682D01*
X11733Y61671D01*
X11755Y61656D01*
X11788Y61642D01*
X11821Y61627D01*
X11861Y61613D01*
X11908Y61602D01*
X11962Y61587D01*
X12021Y61576D01*
X12086Y61566D01*
X12155Y61558D01*
X12235Y61551D01*
X12319D01*
X13775D01*
Y61216D01*
X12319D01*
X12315D01*
X12301D01*
X12283D01*
X12257D01*
X12224Y61220D01*
X12188D01*
X12144Y61223D01*
X12101Y61227D01*
X12003Y61238D01*
X11901Y61252D01*
X11802Y61274D01*
X11755Y61289D01*
X11711Y61303D01*
X11708D01*
X11700Y61307D01*
X11689Y61314D01*
X11675Y61322D01*
X11635Y61343D01*
X11584Y61376D01*
X11526Y61420D01*
X11467Y61471D01*
X11406Y61536D01*
X11351Y61616D01*
Y61620D01*
X11344Y61627D01*
X11340Y61638D01*
X11329Y61656D01*
X11318Y61678D01*
X11307Y61707D01*
X11296Y61737D01*
X11282Y61773D01*
X11267Y61813D01*
X11256Y61857D01*
X11245Y61904D01*
X11234Y61959D01*
X11227Y62013D01*
X11220Y62071D01*
X11213Y62203D01*
Y62235D01*
X11216Y62261D01*
Y62290D01*
X11220Y62326D01*
X11224Y62366D01*
X11227Y62406D01*
X11242Y62497D01*
X11264Y62596D01*
X11293Y62690D01*
X11333Y62781D01*
Y62785D01*
X11340Y62792D01*
X11347Y62803D01*
X11355Y62818D01*
X11384Y62858D01*
X11424Y62905D01*
X11475Y62960D01*
X11533Y63011D01*
X11606Y63061D01*
X11686Y63102D01*
X11689D01*
X11697Y63105D01*
X11711Y63109D01*
X11729Y63116D01*
X11751Y63123D01*
X11780Y63131D01*
X11813Y63142D01*
X11853Y63149D01*
X11897Y63156D01*
X11944Y63167D01*
X11995Y63174D01*
X12050Y63182D01*
X12112Y63189D01*
X12177Y63193D01*
X12246Y63196D01*
X12319D01*
X13775D01*
Y62861D01*
D02*
G37*
G36*
X13153Y60546D02*
X13160Y60539D01*
X13164Y60524D01*
X13174Y60506D01*
X13185Y60484D01*
X13200Y60459D01*
X13236Y60397D01*
X13276Y60324D01*
X13327Y60251D01*
X13386Y60175D01*
X13447Y60099D01*
X13451Y60095D01*
X13455Y60091D01*
X13466Y60080D01*
X13477Y60066D01*
X13513Y60033D01*
X13557Y59989D01*
X13608Y59946D01*
X13666Y59898D01*
X13724Y59858D01*
X13786Y59822D01*
Y59622D01*
X11256D01*
Y59931D01*
X13226D01*
X13222Y59935D01*
X13207Y59953D01*
X13185Y59975D01*
X13160Y60011D01*
X13127Y60051D01*
X13091Y60102D01*
X13051Y60160D01*
X13011Y60226D01*
Y60230D01*
X13007Y60233D01*
X12992Y60255D01*
X12974Y60291D01*
X12953Y60335D01*
X12927Y60386D01*
X12901Y60441D01*
X12876Y60495D01*
X12854Y60550D01*
X13153D01*
Y60546D01*
D02*
G37*
G36*
X11962Y58515D02*
X11959D01*
X11952Y58512D01*
X11937Y58508D01*
X11919Y58504D01*
X11897Y58501D01*
X11871Y58493D01*
X11817Y58475D01*
X11751Y58450D01*
X11689Y58417D01*
X11631Y58381D01*
X11580Y58337D01*
X11577Y58329D01*
X11562Y58315D01*
X11544Y58286D01*
X11526Y58249D01*
X11504Y58206D01*
X11486Y58151D01*
X11471Y58089D01*
X11467Y58024D01*
Y58002D01*
X11471Y57987D01*
X11475Y57947D01*
X11486Y57896D01*
X11504Y57838D01*
X11529Y57776D01*
X11566Y57714D01*
X11617Y57656D01*
X11624Y57649D01*
X11646Y57631D01*
X11678Y57609D01*
X11722Y57580D01*
X11777Y57551D01*
X11839Y57529D01*
X11912Y57511D01*
X11992Y57503D01*
X11995D01*
X12003D01*
X12013D01*
X12028Y57507D01*
X12068Y57511D01*
X12115Y57521D01*
X12173Y57536D01*
X12232Y57561D01*
X12290Y57598D01*
X12345Y57645D01*
X12352Y57652D01*
X12366Y57671D01*
X12388Y57700D01*
X12414Y57740D01*
X12439Y57791D01*
X12461Y57853D01*
X12476Y57922D01*
X12483Y57998D01*
Y58031D01*
X12479Y58056D01*
X12476Y58089D01*
X12468Y58126D01*
X12461Y58169D01*
X12450Y58217D01*
X12723Y58180D01*
Y58162D01*
X12720Y58148D01*
Y58100D01*
X12727Y58060D01*
X12734Y58013D01*
X12745Y57958D01*
X12763Y57896D01*
X12789Y57838D01*
X12822Y57776D01*
Y57773D01*
X12825Y57769D01*
X12840Y57751D01*
X12865Y57725D01*
X12898Y57696D01*
X12945Y57667D01*
X13000Y57642D01*
X13062Y57623D01*
X13098Y57616D01*
X13138D01*
X13142D01*
X13145D01*
X13167D01*
X13196Y57623D01*
X13236Y57631D01*
X13280Y57645D01*
X13327Y57663D01*
X13375Y57692D01*
X13418Y57733D01*
X13422Y57736D01*
X13437Y57754D01*
X13455Y57780D01*
X13477Y57813D01*
X13495Y57856D01*
X13513Y57907D01*
X13528Y57965D01*
X13531Y58031D01*
Y58060D01*
X13524Y58093D01*
X13517Y58137D01*
X13502Y58184D01*
X13484Y58231D01*
X13455Y58282D01*
X13418Y58329D01*
X13415Y58333D01*
X13397Y58348D01*
X13371Y58370D01*
X13335Y58395D01*
X13287Y58420D01*
X13229Y58446D01*
X13160Y58468D01*
X13080Y58482D01*
X13135Y58792D01*
X13138D01*
X13149Y58788D01*
X13164Y58785D01*
X13185Y58781D01*
X13211Y58774D01*
X13240Y58763D01*
X13309Y58741D01*
X13389Y58704D01*
X13469Y58661D01*
X13546Y58606D01*
X13615Y58537D01*
X13619Y58533D01*
X13622Y58526D01*
X13630Y58515D01*
X13641Y58501D01*
X13655Y58482D01*
X13670Y58457D01*
X13684Y58431D01*
X13702Y58399D01*
X13732Y58326D01*
X13761Y58242D01*
X13779Y58144D01*
X13786Y58093D01*
Y58002D01*
X13782Y57962D01*
X13775Y57915D01*
X13764Y57856D01*
X13746Y57791D01*
X13724Y57725D01*
X13695Y57660D01*
Y57656D01*
X13691Y57652D01*
X13680Y57631D01*
X13659Y57598D01*
X13633Y57561D01*
X13597Y57518D01*
X13557Y57474D01*
X13509Y57430D01*
X13455Y57394D01*
X13447Y57390D01*
X13429Y57380D01*
X13397Y57365D01*
X13356Y57347D01*
X13309Y57328D01*
X13255Y57314D01*
X13193Y57303D01*
X13131Y57299D01*
X13124D01*
X13102D01*
X13073Y57303D01*
X13033Y57310D01*
X12985Y57321D01*
X12934Y57339D01*
X12883Y57361D01*
X12832Y57390D01*
X12825Y57394D01*
X12810Y57405D01*
X12785Y57427D01*
X12756Y57456D01*
X12723Y57492D01*
X12687Y57536D01*
X12654Y57587D01*
X12621Y57649D01*
Y57645D01*
X12618Y57638D01*
X12614Y57627D01*
X12610Y57612D01*
X12596Y57572D01*
X12574Y57521D01*
X12545Y57463D01*
X12508Y57405D01*
X12461Y57350D01*
X12406Y57299D01*
X12399Y57296D01*
X12377Y57281D01*
X12341Y57259D01*
X12294Y57237D01*
X12235Y57216D01*
X12166Y57194D01*
X12086Y57179D01*
X11999Y57176D01*
X11995D01*
X11984D01*
X11966D01*
X11944Y57179D01*
X11915Y57183D01*
X11882Y57190D01*
X11846Y57197D01*
X11806Y57205D01*
X11718Y57234D01*
X11671Y57256D01*
X11627Y57278D01*
X11580Y57307D01*
X11533Y57339D01*
X11486Y57376D01*
X11442Y57420D01*
X11438Y57423D01*
X11431Y57430D01*
X11420Y57445D01*
X11406Y57463D01*
X11387Y57485D01*
X11369Y57514D01*
X11347Y57547D01*
X11329Y57587D01*
X11307Y57627D01*
X11285Y57674D01*
X11267Y57722D01*
X11249Y57776D01*
X11234Y57835D01*
X11224Y57896D01*
X11216Y57958D01*
X11213Y58027D01*
Y58060D01*
X11216Y58082D01*
X11220Y58111D01*
X11224Y58144D01*
X11231Y58180D01*
X11238Y58220D01*
X11260Y58308D01*
X11296Y58399D01*
X11318Y58446D01*
X11344Y58490D01*
X11376Y58533D01*
X11409Y58577D01*
X11413Y58581D01*
X11420Y58588D01*
X11431Y58599D01*
X11445Y58610D01*
X11464Y58628D01*
X11489Y58646D01*
X11515Y58668D01*
X11547Y58690D01*
X11584Y58712D01*
X11620Y58734D01*
X11708Y58774D01*
X11810Y58806D01*
X11864Y58817D01*
X11922Y58824D01*
X11962Y58515D01*
D02*
G37*
G36*
X66998Y90277D02*
X67045Y90270D01*
X67103Y90259D01*
X67169Y90241D01*
X67234Y90219D01*
X67300Y90190D01*
X67303D01*
X67307Y90186D01*
X67329Y90175D01*
X67362Y90153D01*
X67398Y90128D01*
X67442Y90092D01*
X67485Y90052D01*
X67529Y90004D01*
X67566Y89950D01*
X67569Y89942D01*
X67580Y89924D01*
X67595Y89891D01*
X67613Y89851D01*
X67631Y89804D01*
X67646Y89749D01*
X67656Y89688D01*
X67660Y89626D01*
Y89618D01*
Y89597D01*
X67656Y89568D01*
X67649Y89527D01*
X67638Y89480D01*
X67620Y89429D01*
X67598Y89378D01*
X67569Y89327D01*
X67566Y89320D01*
X67555Y89305D01*
X67533Y89280D01*
X67504Y89251D01*
X67467Y89218D01*
X67424Y89182D01*
X67373Y89149D01*
X67311Y89116D01*
X67314D01*
X67322Y89113D01*
X67333Y89109D01*
X67347Y89105D01*
X67387Y89091D01*
X67438Y89069D01*
X67496Y89040D01*
X67555Y89003D01*
X67609Y88956D01*
X67660Y88901D01*
X67664Y88894D01*
X67678Y88872D01*
X67700Y88836D01*
X67722Y88788D01*
X67744Y88730D01*
X67766Y88661D01*
X67780Y88581D01*
X67784Y88494D01*
Y88490D01*
Y88479D01*
Y88461D01*
X67780Y88439D01*
X67777Y88410D01*
X67769Y88377D01*
X67762Y88341D01*
X67755Y88301D01*
X67726Y88213D01*
X67704Y88166D01*
X67682Y88122D01*
X67653Y88075D01*
X67620Y88028D01*
X67584Y87980D01*
X67540Y87937D01*
X67536Y87933D01*
X67529Y87926D01*
X67514Y87915D01*
X67496Y87900D01*
X67475Y87882D01*
X67445Y87864D01*
X67413Y87842D01*
X67373Y87824D01*
X67333Y87802D01*
X67285Y87780D01*
X67238Y87762D01*
X67183Y87744D01*
X67125Y87729D01*
X67063Y87718D01*
X67001Y87711D01*
X66932Y87707D01*
X66899D01*
X66878Y87711D01*
X66848Y87715D01*
X66816Y87718D01*
X66779Y87726D01*
X66739Y87733D01*
X66652Y87755D01*
X66561Y87791D01*
X66514Y87813D01*
X66470Y87839D01*
X66426Y87871D01*
X66382Y87904D01*
X66379Y87908D01*
X66372Y87915D01*
X66361Y87926D01*
X66350Y87940D01*
X66332Y87959D01*
X66313Y87984D01*
X66291Y88010D01*
X66270Y88042D01*
X66248Y88079D01*
X66226Y88115D01*
X66186Y88203D01*
X66153Y88304D01*
X66142Y88359D01*
X66135Y88417D01*
X66444Y88457D01*
Y88454D01*
X66448Y88446D01*
X66452Y88432D01*
X66455Y88414D01*
X66459Y88392D01*
X66466Y88366D01*
X66484Y88312D01*
X66510Y88246D01*
X66543Y88184D01*
X66579Y88126D01*
X66623Y88075D01*
X66630Y88071D01*
X66645Y88057D01*
X66674Y88039D01*
X66710Y88020D01*
X66754Y87999D01*
X66808Y87980D01*
X66870Y87966D01*
X66936Y87962D01*
X66958D01*
X66972Y87966D01*
X67012Y87969D01*
X67063Y87980D01*
X67121Y87999D01*
X67183Y88024D01*
X67245Y88060D01*
X67303Y88112D01*
X67311Y88119D01*
X67329Y88141D01*
X67351Y88173D01*
X67380Y88217D01*
X67409Y88272D01*
X67431Y88333D01*
X67449Y88406D01*
X67456Y88486D01*
Y88490D01*
Y88497D01*
Y88508D01*
X67453Y88523D01*
X67449Y88563D01*
X67438Y88610D01*
X67424Y88668D01*
X67398Y88727D01*
X67362Y88785D01*
X67314Y88840D01*
X67307Y88847D01*
X67289Y88861D01*
X67260Y88883D01*
X67220Y88909D01*
X67169Y88934D01*
X67107Y88956D01*
X67038Y88971D01*
X66961Y88978D01*
X66928D01*
X66903Y88974D01*
X66870Y88971D01*
X66834Y88963D01*
X66790Y88956D01*
X66743Y88945D01*
X66779Y89218D01*
X66798D01*
X66812Y89214D01*
X66859D01*
X66899Y89222D01*
X66947Y89229D01*
X67001Y89240D01*
X67063Y89258D01*
X67121Y89284D01*
X67183Y89316D01*
X67187D01*
X67191Y89320D01*
X67209Y89334D01*
X67234Y89360D01*
X67263Y89393D01*
X67292Y89440D01*
X67318Y89495D01*
X67336Y89557D01*
X67343Y89593D01*
Y89633D01*
Y89637D01*
Y89640D01*
Y89662D01*
X67336Y89691D01*
X67329Y89731D01*
X67314Y89775D01*
X67296Y89822D01*
X67267Y89870D01*
X67227Y89913D01*
X67223Y89917D01*
X67205Y89931D01*
X67180Y89950D01*
X67147Y89972D01*
X67103Y89990D01*
X67052Y90008D01*
X66994Y90022D01*
X66928Y90026D01*
X66899D01*
X66867Y90019D01*
X66823Y90012D01*
X66776Y89997D01*
X66728Y89979D01*
X66677Y89950D01*
X66630Y89913D01*
X66626Y89910D01*
X66612Y89891D01*
X66590Y89866D01*
X66565Y89830D01*
X66539Y89782D01*
X66514Y89724D01*
X66492Y89655D01*
X66477Y89575D01*
X66168Y89629D01*
Y89633D01*
X66171Y89644D01*
X66175Y89658D01*
X66179Y89680D01*
X66186Y89706D01*
X66197Y89735D01*
X66219Y89804D01*
X66255Y89884D01*
X66299Y89964D01*
X66353Y90041D01*
X66423Y90110D01*
X66426Y90114D01*
X66434Y90117D01*
X66444Y90124D01*
X66459Y90135D01*
X66477Y90150D01*
X66503Y90164D01*
X66528Y90179D01*
X66561Y90197D01*
X66634Y90226D01*
X66717Y90255D01*
X66816Y90274D01*
X66867Y90281D01*
X66958D01*
X66998Y90277D01*
D02*
G37*
G36*
X65039D02*
X65087Y90270D01*
X65145Y90259D01*
X65210Y90241D01*
X65276Y90219D01*
X65342Y90190D01*
X65345D01*
X65349Y90186D01*
X65371Y90175D01*
X65403Y90153D01*
X65440Y90128D01*
X65483Y90092D01*
X65527Y90052D01*
X65571Y90004D01*
X65607Y89950D01*
X65611Y89942D01*
X65622Y89924D01*
X65636Y89891D01*
X65654Y89851D01*
X65673Y89804D01*
X65687Y89749D01*
X65698Y89688D01*
X65702Y89626D01*
Y89618D01*
Y89597D01*
X65698Y89568D01*
X65691Y89527D01*
X65680Y89480D01*
X65662Y89429D01*
X65640Y89378D01*
X65611Y89327D01*
X65607Y89320D01*
X65596Y89305D01*
X65574Y89280D01*
X65545Y89251D01*
X65509Y89218D01*
X65465Y89182D01*
X65414Y89149D01*
X65352Y89116D01*
X65356D01*
X65363Y89113D01*
X65374Y89109D01*
X65389Y89105D01*
X65429Y89091D01*
X65480Y89069D01*
X65538Y89040D01*
X65596Y89003D01*
X65651Y88956D01*
X65702Y88901D01*
X65706Y88894D01*
X65720Y88872D01*
X65742Y88836D01*
X65764Y88788D01*
X65786Y88730D01*
X65807Y88661D01*
X65822Y88581D01*
X65826Y88494D01*
Y88490D01*
Y88479D01*
Y88461D01*
X65822Y88439D01*
X65818Y88410D01*
X65811Y88377D01*
X65804Y88341D01*
X65797Y88301D01*
X65767Y88213D01*
X65746Y88166D01*
X65724Y88122D01*
X65695Y88075D01*
X65662Y88028D01*
X65625Y87980D01*
X65582Y87937D01*
X65578Y87933D01*
X65571Y87926D01*
X65556Y87915D01*
X65538Y87900D01*
X65516Y87882D01*
X65487Y87864D01*
X65454Y87842D01*
X65414Y87824D01*
X65374Y87802D01*
X65327Y87780D01*
X65280Y87762D01*
X65225Y87744D01*
X65167Y87729D01*
X65105Y87718D01*
X65043Y87711D01*
X64974Y87707D01*
X64941D01*
X64919Y87711D01*
X64890Y87715D01*
X64857Y87718D01*
X64821Y87726D01*
X64781Y87733D01*
X64694Y87755D01*
X64603Y87791D01*
X64555Y87813D01*
X64512Y87839D01*
X64468Y87871D01*
X64424Y87904D01*
X64421Y87908D01*
X64413Y87915D01*
X64402Y87926D01*
X64391Y87940D01*
X64373Y87959D01*
X64355Y87984D01*
X64333Y88010D01*
X64311Y88042D01*
X64289Y88079D01*
X64268Y88115D01*
X64228Y88203D01*
X64195Y88304D01*
X64184Y88359D01*
X64177Y88417D01*
X64486Y88457D01*
Y88454D01*
X64490Y88446D01*
X64493Y88432D01*
X64497Y88414D01*
X64501Y88392D01*
X64508Y88366D01*
X64526Y88312D01*
X64552Y88246D01*
X64584Y88184D01*
X64621Y88126D01*
X64664Y88075D01*
X64672Y88071D01*
X64686Y88057D01*
X64715Y88039D01*
X64752Y88020D01*
X64796Y87999D01*
X64850Y87980D01*
X64912Y87966D01*
X64978Y87962D01*
X64999D01*
X65014Y87966D01*
X65054Y87969D01*
X65105Y87980D01*
X65163Y87999D01*
X65225Y88024D01*
X65287Y88060D01*
X65345Y88112D01*
X65352Y88119D01*
X65371Y88141D01*
X65392Y88173D01*
X65422Y88217D01*
X65451Y88272D01*
X65473Y88333D01*
X65491Y88406D01*
X65498Y88486D01*
Y88490D01*
Y88497D01*
Y88508D01*
X65494Y88523D01*
X65491Y88563D01*
X65480Y88610D01*
X65465Y88668D01*
X65440Y88727D01*
X65403Y88785D01*
X65356Y88840D01*
X65349Y88847D01*
X65331Y88861D01*
X65301Y88883D01*
X65261Y88909D01*
X65210Y88934D01*
X65149Y88956D01*
X65079Y88971D01*
X65003Y88978D01*
X64970D01*
X64945Y88974D01*
X64912Y88971D01*
X64876Y88963D01*
X64832Y88956D01*
X64785Y88945D01*
X64821Y89218D01*
X64839D01*
X64854Y89214D01*
X64901D01*
X64941Y89222D01*
X64988Y89229D01*
X65043Y89240D01*
X65105Y89258D01*
X65163Y89284D01*
X65225Y89316D01*
X65229D01*
X65232Y89320D01*
X65250Y89334D01*
X65276Y89360D01*
X65305Y89393D01*
X65334Y89440D01*
X65360Y89495D01*
X65378Y89557D01*
X65385Y89593D01*
Y89633D01*
Y89637D01*
Y89640D01*
Y89662D01*
X65378Y89691D01*
X65371Y89731D01*
X65356Y89775D01*
X65338Y89822D01*
X65309Y89870D01*
X65269Y89913D01*
X65265Y89917D01*
X65247Y89931D01*
X65221Y89950D01*
X65189Y89972D01*
X65145Y89990D01*
X65094Y90008D01*
X65036Y90022D01*
X64970Y90026D01*
X64941D01*
X64908Y90019D01*
X64865Y90012D01*
X64817Y89997D01*
X64770Y89979D01*
X64719Y89950D01*
X64672Y89913D01*
X64668Y89910D01*
X64653Y89891D01*
X64632Y89866D01*
X64606Y89830D01*
X64581Y89782D01*
X64555Y89724D01*
X64533Y89655D01*
X64519Y89575D01*
X64209Y89629D01*
Y89633D01*
X64213Y89644D01*
X64217Y89658D01*
X64220Y89680D01*
X64228Y89706D01*
X64239Y89735D01*
X64260Y89804D01*
X64297Y89884D01*
X64341Y89964D01*
X64395Y90041D01*
X64464Y90110D01*
X64468Y90114D01*
X64475Y90117D01*
X64486Y90124D01*
X64501Y90135D01*
X64519Y90150D01*
X64544Y90164D01*
X64570Y90179D01*
X64603Y90197D01*
X64675Y90226D01*
X64759Y90255D01*
X64857Y90274D01*
X64908Y90281D01*
X64999D01*
X65039Y90277D01*
D02*
G37*
G36*
X62961Y90266D02*
X62994D01*
X63070Y90263D01*
X63150Y90252D01*
X63238Y90241D01*
X63318Y90223D01*
X63358Y90212D01*
X63390Y90201D01*
X63394D01*
X63398Y90197D01*
X63420Y90186D01*
X63452Y90172D01*
X63492Y90146D01*
X63536Y90114D01*
X63583Y90070D01*
X63627Y90019D01*
X63671Y89961D01*
Y89957D01*
X63674Y89953D01*
X63689Y89931D01*
X63704Y89895D01*
X63725Y89848D01*
X63744Y89793D01*
X63762Y89728D01*
X63773Y89658D01*
X63776Y89582D01*
Y89578D01*
Y89571D01*
Y89557D01*
X63773Y89538D01*
Y89513D01*
X63769Y89487D01*
X63754Y89425D01*
X63733Y89353D01*
X63704Y89276D01*
X63660Y89200D01*
X63631Y89163D01*
X63601Y89127D01*
X63598Y89123D01*
X63594Y89120D01*
X63583Y89109D01*
X63569Y89098D01*
X63551Y89083D01*
X63529Y89069D01*
X63500Y89051D01*
X63471Y89029D01*
X63434Y89011D01*
X63394Y88992D01*
X63350Y88971D01*
X63303Y88952D01*
X63248Y88938D01*
X63194Y88920D01*
X63132Y88909D01*
X63067Y88898D01*
X63074Y88894D01*
X63088Y88887D01*
X63110Y88872D01*
X63139Y88858D01*
X63205Y88818D01*
X63238Y88792D01*
X63267Y88770D01*
X63274Y88763D01*
X63292Y88745D01*
X63321Y88716D01*
X63358Y88679D01*
X63398Y88628D01*
X63445Y88574D01*
X63492Y88508D01*
X63543Y88435D01*
X63977Y87751D01*
X63561D01*
X63230Y88275D01*
Y88279D01*
X63223Y88286D01*
X63216Y88297D01*
X63205Y88312D01*
X63179Y88352D01*
X63147Y88403D01*
X63107Y88457D01*
X63067Y88516D01*
X63026Y88570D01*
X62990Y88621D01*
X62986Y88625D01*
X62976Y88639D01*
X62957Y88661D01*
X62932Y88687D01*
X62877Y88741D01*
X62848Y88767D01*
X62819Y88788D01*
X62815Y88792D01*
X62808Y88796D01*
X62793Y88803D01*
X62772Y88814D01*
X62750Y88825D01*
X62724Y88836D01*
X62666Y88854D01*
X62662D01*
X62655Y88858D01*
X62641D01*
X62622Y88861D01*
X62597Y88865D01*
X62568D01*
X62528Y88869D01*
X62098D01*
Y87751D01*
X61763D01*
Y90270D01*
X62932D01*
X62961Y90266D01*
D02*
G37*
G36*
X102733Y32138D02*
X102762Y32134D01*
X102795Y32130D01*
X102831Y32123D01*
X102871Y32116D01*
X102959Y32094D01*
X103050Y32057D01*
X103097Y32036D01*
X103140Y32010D01*
X103184Y31977D01*
X103228Y31945D01*
X103232Y31941D01*
X103239Y31934D01*
X103250Y31923D01*
X103261Y31908D01*
X103279Y31890D01*
X103297Y31865D01*
X103319Y31839D01*
X103341Y31806D01*
X103363Y31770D01*
X103384Y31734D01*
X103425Y31646D01*
X103457Y31544D01*
X103468Y31490D01*
X103475Y31431D01*
X103166Y31391D01*
Y31395D01*
X103162Y31402D01*
X103159Y31417D01*
X103155Y31435D01*
X103151Y31457D01*
X103144Y31482D01*
X103126Y31537D01*
X103101Y31602D01*
X103068Y31664D01*
X103031Y31723D01*
X102988Y31774D01*
X102980Y31777D01*
X102966Y31792D01*
X102937Y31810D01*
X102900Y31828D01*
X102857Y31850D01*
X102802Y31868D01*
X102740Y31883D01*
X102675Y31886D01*
X102653D01*
X102638Y31883D01*
X102598Y31879D01*
X102547Y31868D01*
X102489Y31850D01*
X102427Y31824D01*
X102365Y31788D01*
X102307Y31737D01*
X102300Y31730D01*
X102281Y31708D01*
X102260Y31675D01*
X102231Y31632D01*
X102201Y31577D01*
X102180Y31515D01*
X102161Y31442D01*
X102154Y31362D01*
Y31359D01*
Y31351D01*
Y31340D01*
X102158Y31326D01*
X102161Y31286D01*
X102172Y31238D01*
X102187Y31180D01*
X102212Y31122D01*
X102249Y31064D01*
X102296Y31009D01*
X102303Y31002D01*
X102322Y30987D01*
X102351Y30966D01*
X102391Y30940D01*
X102442Y30915D01*
X102504Y30893D01*
X102573Y30878D01*
X102649Y30871D01*
X102682D01*
X102707Y30874D01*
X102740Y30878D01*
X102777Y30885D01*
X102820Y30893D01*
X102867Y30904D01*
X102831Y30631D01*
X102813D01*
X102798Y30634D01*
X102751D01*
X102711Y30627D01*
X102664Y30620D01*
X102609Y30609D01*
X102547Y30591D01*
X102489Y30565D01*
X102427Y30532D01*
X102424D01*
X102420Y30529D01*
X102402Y30514D01*
X102376Y30489D01*
X102347Y30456D01*
X102318Y30409D01*
X102292Y30354D01*
X102274Y30292D01*
X102267Y30256D01*
Y30216D01*
Y30212D01*
Y30208D01*
Y30187D01*
X102274Y30157D01*
X102281Y30117D01*
X102296Y30074D01*
X102314Y30026D01*
X102343Y29979D01*
X102383Y29935D01*
X102387Y29932D01*
X102405Y29917D01*
X102431Y29899D01*
X102463Y29877D01*
X102507Y29859D01*
X102558Y29841D01*
X102616Y29826D01*
X102682Y29822D01*
X102711D01*
X102744Y29830D01*
X102787Y29837D01*
X102835Y29852D01*
X102882Y29870D01*
X102933Y29899D01*
X102980Y29935D01*
X102984Y29939D01*
X102999Y29957D01*
X103020Y29983D01*
X103046Y30019D01*
X103071Y30066D01*
X103097Y30125D01*
X103119Y30194D01*
X103133Y30274D01*
X103443Y30219D01*
Y30216D01*
X103439Y30205D01*
X103435Y30190D01*
X103432Y30168D01*
X103425Y30143D01*
X103413Y30114D01*
X103392Y30045D01*
X103355Y29965D01*
X103312Y29884D01*
X103257Y29808D01*
X103188Y29739D01*
X103184Y29735D01*
X103177Y29732D01*
X103166Y29724D01*
X103151Y29713D01*
X103133Y29699D01*
X103108Y29684D01*
X103082Y29670D01*
X103050Y29651D01*
X102977Y29622D01*
X102893Y29593D01*
X102795Y29575D01*
X102744Y29568D01*
X102653D01*
X102613Y29571D01*
X102565Y29579D01*
X102507Y29590D01*
X102442Y29608D01*
X102376Y29630D01*
X102311Y29659D01*
X102307D01*
X102303Y29662D01*
X102281Y29673D01*
X102249Y29695D01*
X102212Y29721D01*
X102169Y29757D01*
X102125Y29797D01*
X102081Y29844D01*
X102045Y29899D01*
X102041Y29906D01*
X102030Y29924D01*
X102016Y29957D01*
X101998Y29997D01*
X101979Y30045D01*
X101965Y30099D01*
X101954Y30161D01*
X101950Y30223D01*
Y30230D01*
Y30252D01*
X101954Y30281D01*
X101961Y30321D01*
X101972Y30369D01*
X101990Y30419D01*
X102012Y30470D01*
X102041Y30521D01*
X102045Y30529D01*
X102056Y30543D01*
X102078Y30569D01*
X102107Y30598D01*
X102143Y30631D01*
X102187Y30667D01*
X102238Y30700D01*
X102300Y30733D01*
X102296D01*
X102289Y30736D01*
X102278Y30740D01*
X102263Y30744D01*
X102223Y30758D01*
X102172Y30780D01*
X102114Y30809D01*
X102056Y30845D01*
X102001Y30893D01*
X101950Y30947D01*
X101947Y30955D01*
X101932Y30976D01*
X101910Y31013D01*
X101888Y31060D01*
X101866Y31118D01*
X101845Y31187D01*
X101830Y31268D01*
X101827Y31355D01*
Y31359D01*
Y31370D01*
Y31388D01*
X101830Y31410D01*
X101834Y31439D01*
X101841Y31471D01*
X101848Y31508D01*
X101856Y31548D01*
X101885Y31635D01*
X101907Y31683D01*
X101928Y31726D01*
X101957Y31774D01*
X101990Y31821D01*
X102027Y31868D01*
X102070Y31912D01*
X102074Y31916D01*
X102081Y31923D01*
X102096Y31934D01*
X102114Y31948D01*
X102136Y31967D01*
X102165Y31985D01*
X102198Y32006D01*
X102238Y32025D01*
X102278Y32047D01*
X102325Y32068D01*
X102373Y32087D01*
X102427Y32105D01*
X102485Y32119D01*
X102547Y32130D01*
X102609Y32138D01*
X102678Y32141D01*
X102711D01*
X102733Y32138D01*
D02*
G37*
G36*
X105889Y29579D02*
X104720D01*
X104691Y29582D01*
X104658D01*
X104582Y29586D01*
X104502Y29597D01*
X104414Y29608D01*
X104334Y29626D01*
X104294Y29637D01*
X104262Y29648D01*
X104258D01*
X104254Y29651D01*
X104233Y29662D01*
X104200Y29677D01*
X104160Y29702D01*
X104116Y29735D01*
X104069Y29779D01*
X104025Y29830D01*
X103981Y29888D01*
Y29892D01*
X103978Y29895D01*
X103963Y29917D01*
X103949Y29954D01*
X103927Y30001D01*
X103909Y30055D01*
X103890Y30121D01*
X103879Y30190D01*
X103876Y30267D01*
Y30270D01*
Y30277D01*
Y30292D01*
X103879Y30310D01*
Y30336D01*
X103883Y30361D01*
X103898Y30423D01*
X103919Y30496D01*
X103949Y30572D01*
X103992Y30649D01*
X104021Y30685D01*
X104051Y30722D01*
X104054Y30725D01*
X104058Y30729D01*
X104069Y30740D01*
X104083Y30751D01*
X104102Y30765D01*
X104123Y30780D01*
X104152Y30798D01*
X104182Y30820D01*
X104218Y30838D01*
X104258Y30856D01*
X104302Y30878D01*
X104349Y30896D01*
X104404Y30911D01*
X104458Y30929D01*
X104520Y30940D01*
X104586Y30951D01*
X104578Y30955D01*
X104564Y30962D01*
X104542Y30976D01*
X104513Y30991D01*
X104447Y31031D01*
X104414Y31056D01*
X104385Y31078D01*
X104378Y31086D01*
X104360Y31104D01*
X104331Y31133D01*
X104294Y31169D01*
X104254Y31220D01*
X104207Y31275D01*
X104160Y31340D01*
X104109Y31413D01*
X103676Y32098D01*
X104091D01*
X104422Y31573D01*
Y31570D01*
X104429Y31563D01*
X104436Y31552D01*
X104447Y31537D01*
X104473Y31497D01*
X104506Y31446D01*
X104546Y31391D01*
X104586Y31333D01*
X104626Y31278D01*
X104662Y31228D01*
X104666Y31224D01*
X104677Y31209D01*
X104695Y31187D01*
X104720Y31162D01*
X104775Y31108D01*
X104804Y31082D01*
X104833Y31060D01*
X104837Y31056D01*
X104844Y31053D01*
X104859Y31046D01*
X104880Y31035D01*
X104902Y31024D01*
X104928Y31013D01*
X104986Y30995D01*
X104990D01*
X104997Y30991D01*
X105011D01*
X105030Y30987D01*
X105055Y30984D01*
X105084D01*
X105124Y30980D01*
X105554D01*
Y32098D01*
X105889D01*
Y29579D01*
D02*
G37*
G36*
X100760Y32138D02*
X100789Y32134D01*
X100826Y32127D01*
X100865Y32119D01*
X100909Y32109D01*
X100953Y32094D01*
X101000Y32079D01*
X101048Y32057D01*
X101095Y32032D01*
X101142Y32003D01*
X101189Y31967D01*
X101233Y31927D01*
X101273Y31883D01*
X101277Y31879D01*
X101284Y31868D01*
X101295Y31850D01*
X101313Y31821D01*
X101331Y31788D01*
X101350Y31745D01*
X101375Y31694D01*
X101397Y31635D01*
X101419Y31570D01*
X101441Y31493D01*
X101462Y31410D01*
X101481Y31315D01*
X101499Y31213D01*
X101510Y31104D01*
X101517Y30984D01*
X101521Y30856D01*
Y30853D01*
Y30838D01*
Y30813D01*
Y30784D01*
X101517Y30744D01*
Y30700D01*
X101514Y30652D01*
X101510Y30598D01*
X101499Y30485D01*
X101481Y30365D01*
X101459Y30245D01*
X101444Y30190D01*
X101430Y30136D01*
Y30132D01*
X101426Y30125D01*
X101419Y30110D01*
X101411Y30092D01*
X101404Y30066D01*
X101390Y30041D01*
X101361Y29979D01*
X101324Y29913D01*
X101277Y29844D01*
X101222Y29775D01*
X101157Y29717D01*
X101153D01*
X101149Y29710D01*
X101138Y29702D01*
X101124Y29695D01*
X101106Y29681D01*
X101084Y29670D01*
X101029Y29640D01*
X100964Y29615D01*
X100887Y29590D01*
X100796Y29575D01*
X100698Y29568D01*
X100665D01*
X100625Y29571D01*
X100578Y29579D01*
X100523Y29590D01*
X100465Y29604D01*
X100403Y29622D01*
X100345Y29651D01*
X100341D01*
X100338Y29655D01*
X100320Y29666D01*
X100290Y29684D01*
X100254Y29710D01*
X100214Y29746D01*
X100170Y29786D01*
X100130Y29833D01*
X100090Y29888D01*
X100087Y29895D01*
X100072Y29913D01*
X100057Y29946D01*
X100032Y29994D01*
X100010Y30048D01*
X99981Y30110D01*
X99955Y30183D01*
X99934Y30263D01*
Y30267D01*
X99930Y30274D01*
X99926Y30285D01*
X99923Y30303D01*
X99919Y30325D01*
X99915Y30350D01*
X99908Y30383D01*
X99905Y30419D01*
X99897Y30459D01*
X99894Y30503D01*
X99890Y30554D01*
X99883Y30605D01*
X99879Y30663D01*
Y30722D01*
X99875Y30787D01*
Y30856D01*
Y30860D01*
Y30874D01*
Y30900D01*
Y30929D01*
X99879Y30969D01*
Y31013D01*
X99883Y31060D01*
X99886Y31111D01*
X99897Y31228D01*
X99915Y31348D01*
X99937Y31464D01*
X99952Y31519D01*
X99970Y31573D01*
Y31577D01*
X99974Y31584D01*
X99981Y31599D01*
X99988Y31617D01*
X99996Y31642D01*
X100010Y31668D01*
X100039Y31730D01*
X100076Y31795D01*
X100123Y31868D01*
X100178Y31934D01*
X100243Y31996D01*
X100247D01*
X100250Y32003D01*
X100261Y32010D01*
X100276Y32017D01*
X100294Y32028D01*
X100312Y32043D01*
X100367Y32068D01*
X100432Y32094D01*
X100509Y32119D01*
X100600Y32134D01*
X100698Y32141D01*
X100734D01*
X100760Y32138D01*
D02*
G37*
G36*
X106051Y47733D02*
X106080Y47729D01*
X106113Y47722D01*
X106149Y47715D01*
X106189Y47708D01*
X106277Y47678D01*
X106324Y47657D01*
X106368Y47635D01*
X106415Y47606D01*
X106462Y47573D01*
X106509Y47536D01*
X106553Y47493D01*
X106557Y47489D01*
X106564Y47482D01*
X106575Y47467D01*
X106589Y47449D01*
X106608Y47427D01*
X106626Y47398D01*
X106648Y47365D01*
X106666Y47325D01*
X106688Y47285D01*
X106710Y47238D01*
X106728Y47191D01*
X106746Y47136D01*
X106761Y47078D01*
X106772Y47016D01*
X106779Y46954D01*
X106782Y46885D01*
Y46852D01*
X106779Y46830D01*
X106775Y46801D01*
X106772Y46768D01*
X106764Y46732D01*
X106757Y46692D01*
X106735Y46605D01*
X106699Y46514D01*
X106677Y46466D01*
X106651Y46423D01*
X106619Y46379D01*
X106586Y46335D01*
X106582Y46332D01*
X106575Y46324D01*
X106564Y46313D01*
X106550Y46303D01*
X106531Y46284D01*
X106506Y46266D01*
X106480Y46244D01*
X106448Y46222D01*
X106411Y46200D01*
X106375Y46179D01*
X106287Y46139D01*
X106185Y46106D01*
X106131Y46095D01*
X106073Y46088D01*
X106033Y46397D01*
X106036D01*
X106044Y46401D01*
X106058Y46404D01*
X106076Y46408D01*
X106098Y46412D01*
X106124Y46419D01*
X106178Y46437D01*
X106244Y46463D01*
X106306Y46495D01*
X106364Y46532D01*
X106415Y46575D01*
X106418Y46583D01*
X106433Y46597D01*
X106451Y46626D01*
X106469Y46663D01*
X106491Y46707D01*
X106509Y46761D01*
X106524Y46823D01*
X106528Y46889D01*
Y46910D01*
X106524Y46925D01*
X106520Y46965D01*
X106509Y47016D01*
X106491Y47074D01*
X106466Y47136D01*
X106429Y47198D01*
X106378Y47256D01*
X106371Y47263D01*
X106349Y47282D01*
X106316Y47304D01*
X106273Y47333D01*
X106218Y47362D01*
X106156Y47383D01*
X106084Y47402D01*
X106003Y47409D01*
X106000D01*
X105993D01*
X105982D01*
X105967Y47405D01*
X105927Y47402D01*
X105880Y47391D01*
X105822Y47376D01*
X105763Y47351D01*
X105705Y47314D01*
X105650Y47267D01*
X105643Y47260D01*
X105629Y47242D01*
X105607Y47212D01*
X105581Y47172D01*
X105556Y47122D01*
X105534Y47060D01*
X105519Y46990D01*
X105512Y46914D01*
Y46881D01*
X105516Y46856D01*
X105519Y46823D01*
X105527Y46787D01*
X105534Y46743D01*
X105545Y46696D01*
X105272Y46732D01*
Y46750D01*
X105275Y46765D01*
Y46812D01*
X105268Y46852D01*
X105261Y46899D01*
X105250Y46954D01*
X105232Y47016D01*
X105206Y47074D01*
X105174Y47136D01*
Y47140D01*
X105170Y47143D01*
X105155Y47161D01*
X105130Y47187D01*
X105097Y47216D01*
X105050Y47245D01*
X104995Y47271D01*
X104933Y47289D01*
X104897Y47296D01*
X104857D01*
X104853D01*
X104850D01*
X104828D01*
X104799Y47289D01*
X104759Y47282D01*
X104715Y47267D01*
X104668Y47249D01*
X104620Y47220D01*
X104577Y47180D01*
X104573Y47176D01*
X104558Y47158D01*
X104540Y47132D01*
X104518Y47100D01*
X104500Y47056D01*
X104482Y47005D01*
X104467Y46947D01*
X104464Y46881D01*
Y46852D01*
X104471Y46819D01*
X104478Y46776D01*
X104493Y46728D01*
X104511Y46681D01*
X104540Y46630D01*
X104577Y46583D01*
X104580Y46579D01*
X104598Y46564D01*
X104624Y46543D01*
X104660Y46517D01*
X104708Y46492D01*
X104766Y46466D01*
X104835Y46444D01*
X104915Y46430D01*
X104860Y46121D01*
X104857D01*
X104846Y46124D01*
X104831Y46128D01*
X104809Y46131D01*
X104784Y46139D01*
X104755Y46150D01*
X104686Y46171D01*
X104606Y46208D01*
X104526Y46251D01*
X104449Y46306D01*
X104380Y46375D01*
X104376Y46379D01*
X104373Y46386D01*
X104366Y46397D01*
X104355Y46412D01*
X104340Y46430D01*
X104325Y46455D01*
X104311Y46481D01*
X104293Y46514D01*
X104264Y46586D01*
X104234Y46670D01*
X104216Y46768D01*
X104209Y46819D01*
Y46910D01*
X104213Y46950D01*
X104220Y46998D01*
X104231Y47056D01*
X104249Y47122D01*
X104271Y47187D01*
X104300Y47253D01*
Y47256D01*
X104304Y47260D01*
X104314Y47282D01*
X104336Y47314D01*
X104362Y47351D01*
X104398Y47394D01*
X104438Y47438D01*
X104486Y47482D01*
X104540Y47518D01*
X104548Y47522D01*
X104566Y47533D01*
X104598Y47547D01*
X104639Y47565D01*
X104686Y47584D01*
X104740Y47598D01*
X104802Y47609D01*
X104864Y47613D01*
X104871D01*
X104893D01*
X104922Y47609D01*
X104962Y47602D01*
X105010Y47591D01*
X105061Y47573D01*
X105112Y47551D01*
X105163Y47522D01*
X105170Y47518D01*
X105184Y47507D01*
X105210Y47486D01*
X105239Y47456D01*
X105272Y47420D01*
X105308Y47376D01*
X105341Y47325D01*
X105374Y47263D01*
Y47267D01*
X105377Y47274D01*
X105381Y47285D01*
X105385Y47300D01*
X105399Y47340D01*
X105421Y47391D01*
X105450Y47449D01*
X105487Y47507D01*
X105534Y47562D01*
X105588Y47613D01*
X105596Y47616D01*
X105618Y47631D01*
X105654Y47653D01*
X105701Y47675D01*
X105760Y47697D01*
X105829Y47718D01*
X105909Y47733D01*
X105996Y47737D01*
X106000D01*
X106011D01*
X106029D01*
X106051Y47733D01*
D02*
G37*
G36*
X106134Y45425D02*
X106739D01*
Y45116D01*
X106134D01*
Y44020D01*
X105851D01*
X104220Y45174D01*
Y45425D01*
X105851D01*
Y45767D01*
X106134D01*
Y45425D01*
D02*
G37*
G36*
X105960Y43838D02*
X105982Y43831D01*
X106011Y43820D01*
X106044Y43809D01*
X106084Y43795D01*
X106127Y43776D01*
X106175Y43755D01*
X106277Y43703D01*
X106378Y43638D01*
X106429Y43598D01*
X106480Y43558D01*
X106524Y43514D01*
X106568Y43463D01*
X106571Y43460D01*
X106579Y43452D01*
X106586Y43434D01*
X106600Y43416D01*
X106619Y43387D01*
X106637Y43358D01*
X106655Y43318D01*
X106673Y43278D01*
X106695Y43230D01*
X106713Y43179D01*
X106731Y43125D01*
X106750Y43066D01*
X106764Y43005D01*
X106772Y42939D01*
X106779Y42870D01*
X106782Y42797D01*
Y42757D01*
X106779Y42728D01*
Y42695D01*
X106775Y42655D01*
X106768Y42612D01*
X106761Y42560D01*
X106742Y42455D01*
X106713Y42346D01*
X106673Y42237D01*
X106648Y42186D01*
X106619Y42135D01*
X106615Y42131D01*
X106611Y42124D01*
X106600Y42109D01*
X106586Y42095D01*
X106571Y42073D01*
X106550Y42047D01*
X106524Y42018D01*
X106495Y41989D01*
X106462Y41960D01*
X106429Y41927D01*
X106346Y41862D01*
X106247Y41800D01*
X106138Y41745D01*
X106134D01*
X106124Y41738D01*
X106105Y41734D01*
X106084Y41723D01*
X106054Y41716D01*
X106018Y41705D01*
X105978Y41691D01*
X105934Y41680D01*
X105887Y41669D01*
X105832Y41654D01*
X105720Y41636D01*
X105592Y41621D01*
X105461Y41614D01*
X105457D01*
X105443D01*
X105421D01*
X105396Y41618D01*
X105359D01*
X105323Y41621D01*
X105275Y41625D01*
X105228Y41632D01*
X105123Y41651D01*
X105006Y41676D01*
X104890Y41712D01*
X104777Y41763D01*
X104773Y41767D01*
X104762Y41771D01*
X104748Y41778D01*
X104729Y41793D01*
X104704Y41807D01*
X104675Y41825D01*
X104609Y41873D01*
X104537Y41934D01*
X104464Y42007D01*
X104391Y42091D01*
X104329Y42189D01*
X104325Y42193D01*
X104322Y42204D01*
X104314Y42218D01*
X104304Y42237D01*
X104293Y42266D01*
X104282Y42295D01*
X104267Y42331D01*
X104253Y42371D01*
X104238Y42415D01*
X104224Y42462D01*
X104202Y42564D01*
X104183Y42681D01*
X104176Y42801D01*
Y42837D01*
X104180Y42863D01*
X104183Y42895D01*
X104187Y42935D01*
X104191Y42976D01*
X104202Y43023D01*
X104224Y43121D01*
X104256Y43230D01*
X104278Y43285D01*
X104304Y43336D01*
X104336Y43387D01*
X104369Y43438D01*
X104373Y43441D01*
X104376Y43449D01*
X104387Y43463D01*
X104405Y43481D01*
X104424Y43500D01*
X104449Y43525D01*
X104478Y43551D01*
X104507Y43580D01*
X104544Y43609D01*
X104587Y43638D01*
X104631Y43671D01*
X104678Y43700D01*
X104733Y43725D01*
X104788Y43755D01*
X104846Y43776D01*
X104911Y43798D01*
X104988Y43470D01*
X104984D01*
X104977Y43467D01*
X104962Y43460D01*
X104944Y43452D01*
X104922Y43445D01*
X104893Y43434D01*
X104835Y43405D01*
X104770Y43369D01*
X104704Y43325D01*
X104642Y43270D01*
X104587Y43212D01*
X104580Y43205D01*
X104566Y43183D01*
X104548Y43147D01*
X104522Y43099D01*
X104500Y43037D01*
X104478Y42968D01*
X104464Y42884D01*
X104460Y42794D01*
Y42764D01*
X104464Y42746D01*
Y42721D01*
X104467Y42692D01*
X104478Y42622D01*
X104493Y42546D01*
X104518Y42466D01*
X104555Y42382D01*
X104602Y42306D01*
Y42302D01*
X104609Y42298D01*
X104628Y42273D01*
X104657Y42240D01*
X104700Y42200D01*
X104755Y42153D01*
X104817Y42109D01*
X104893Y42069D01*
X104977Y42033D01*
X104981D01*
X104988Y42029D01*
X104999Y42026D01*
X105017Y42022D01*
X105039Y42015D01*
X105064Y42007D01*
X105126Y41996D01*
X105199Y41982D01*
X105279Y41967D01*
X105367Y41960D01*
X105461Y41956D01*
X105465D01*
X105476D01*
X105494D01*
X105516D01*
X105541Y41960D01*
X105574D01*
X105610Y41964D01*
X105650Y41967D01*
X105738Y41978D01*
X105832Y41996D01*
X105927Y42018D01*
X106022Y42047D01*
X106025D01*
X106033Y42051D01*
X106044Y42058D01*
X106062Y42066D01*
X106105Y42087D01*
X106156Y42120D01*
X106215Y42160D01*
X106277Y42211D01*
X106331Y42269D01*
X106382Y42338D01*
Y42342D01*
X106386Y42349D01*
X106393Y42360D01*
X106400Y42375D01*
X106407Y42393D01*
X106418Y42415D01*
X106440Y42466D01*
X106462Y42531D01*
X106480Y42604D01*
X106495Y42684D01*
X106499Y42768D01*
Y42794D01*
X106495Y42815D01*
Y42841D01*
X106491Y42866D01*
X106477Y42932D01*
X106458Y43008D01*
X106429Y43085D01*
X106389Y43165D01*
X106368Y43205D01*
X106338Y43241D01*
X106335Y43245D01*
X106331Y43249D01*
X106320Y43259D01*
X106309Y43274D01*
X106291Y43288D01*
X106269Y43307D01*
X106247Y43329D01*
X106218Y43347D01*
X106185Y43369D01*
X106149Y43394D01*
X106113Y43416D01*
X106069Y43438D01*
X106022Y43456D01*
X105971Y43474D01*
X105916Y43492D01*
X105858Y43507D01*
X105942Y43842D01*
X105945D01*
X105960Y43838D01*
D02*
G37*
%LPC*%
G36*
X356502Y140619D02*
X356499D01*
X356491D01*
X356477D01*
X356459Y140615D01*
X356437D01*
X356411Y140611D01*
X356353Y140600D01*
X356288Y140586D01*
X356218Y140560D01*
X356153Y140524D01*
X356091Y140477D01*
X356084Y140469D01*
X356066Y140451D01*
X356044Y140422D01*
X356015Y140382D01*
X355985Y140331D01*
X355964Y140273D01*
X355945Y140204D01*
X355938Y140127D01*
Y140105D01*
X355942Y140091D01*
X355945Y140054D01*
X355956Y140003D01*
X355975Y139949D01*
X356004Y139887D01*
X356040Y139829D01*
X356091Y139770D01*
X356098Y139763D01*
X356117Y139749D01*
X356149Y139723D01*
X356197Y139698D01*
X356251Y139672D01*
X356320Y139647D01*
X356397Y139632D01*
X356484Y139625D01*
X356491D01*
X356510D01*
X356542Y139629D01*
X356582Y139632D01*
X356630Y139639D01*
X356681Y139654D01*
X356735Y139669D01*
X356790Y139690D01*
X356797Y139694D01*
X356815Y139705D01*
X356841Y139719D01*
X356874Y139741D01*
X356906Y139767D01*
X356946Y139799D01*
X356979Y139836D01*
X357012Y139880D01*
X357016Y139887D01*
X357023Y139901D01*
X357037Y139927D01*
X357048Y139960D01*
X357063Y139996D01*
X357077Y140040D01*
X357085Y140087D01*
X357088Y140138D01*
Y140156D01*
X357085Y140171D01*
X357081Y140207D01*
X357070Y140254D01*
X357048Y140305D01*
X357023Y140364D01*
X356983Y140422D01*
X356961Y140451D01*
X356932Y140477D01*
X356928D01*
X356925Y140484D01*
X356903Y140498D01*
X356866Y140520D01*
X356819Y140549D01*
X356757Y140575D01*
X356684Y140597D01*
X356601Y140611D01*
X356502Y140619D01*
D02*
G37*
G36*
X41679Y54645D02*
Y53851D01*
X42808D01*
X41679Y54645D01*
D02*
G37*
G36*
X31295Y128559D02*
X30167D01*
X31295Y127766D01*
Y128559D01*
D02*
G37*
G36*
Y126601D02*
X30167D01*
X31295Y125807D01*
Y126601D01*
D02*
G37*
G36*
X87192Y268634D02*
X87170D01*
X87156Y268630D01*
X87120Y268626D01*
X87068Y268616D01*
X87014Y268597D01*
X86952Y268568D01*
X86894Y268532D01*
X86836Y268481D01*
X86828Y268474D01*
X86814Y268455D01*
X86788Y268423D01*
X86763Y268375D01*
X86737Y268321D01*
X86712Y268251D01*
X86697Y268175D01*
X86690Y268088D01*
Y268080D01*
Y268062D01*
X86694Y268029D01*
X86697Y267989D01*
X86704Y267942D01*
X86719Y267891D01*
X86734Y267837D01*
X86756Y267782D01*
X86759Y267775D01*
X86770Y267757D01*
X86785Y267731D01*
X86806Y267698D01*
X86832Y267666D01*
X86865Y267625D01*
X86901Y267593D01*
X86945Y267560D01*
X86952Y267556D01*
X86967Y267549D01*
X86992Y267534D01*
X87025Y267524D01*
X87061Y267509D01*
X87105Y267494D01*
X87152Y267487D01*
X87203Y267483D01*
X87221D01*
X87236Y267487D01*
X87272Y267491D01*
X87320Y267502D01*
X87371Y267524D01*
X87429Y267549D01*
X87487Y267589D01*
X87516Y267611D01*
X87542Y267640D01*
Y267644D01*
X87549Y267647D01*
X87564Y267669D01*
X87585Y267705D01*
X87615Y267753D01*
X87640Y267815D01*
X87662Y267887D01*
X87676Y267971D01*
X87684Y268070D01*
Y268073D01*
Y268080D01*
Y268095D01*
X87680Y268113D01*
Y268135D01*
X87676Y268161D01*
X87665Y268219D01*
X87651Y268284D01*
X87625Y268354D01*
X87589Y268419D01*
X87542Y268481D01*
X87534Y268488D01*
X87516Y268506D01*
X87487Y268528D01*
X87447Y268557D01*
X87396Y268586D01*
X87338Y268608D01*
X87269Y268626D01*
X87192Y268634D01*
D02*
G37*
G36*
X403393Y266449D02*
X402599D01*
Y265321D01*
X403393Y266449D01*
D02*
G37*
G36*
X242350Y267126D02*
X242328D01*
X242314Y267123D01*
X242270Y267119D01*
X242219Y267108D01*
X242161Y267090D01*
X242099Y267068D01*
X242041Y267032D01*
X241983Y266985D01*
X241975Y266977D01*
X241961Y266959D01*
X241935Y266926D01*
X241910Y266886D01*
X241884Y266835D01*
X241859Y266773D01*
X241844Y266701D01*
X241837Y266624D01*
Y266621D01*
Y266613D01*
Y266602D01*
X241841Y266588D01*
X241844Y266548D01*
X241855Y266493D01*
X241873Y266439D01*
X241899Y266377D01*
X241935Y266315D01*
X241986Y266257D01*
X241994Y266249D01*
X242012Y266235D01*
X242044Y266209D01*
X242088Y266180D01*
X242143Y266155D01*
X242208Y266129D01*
X242281Y266115D01*
X242361Y266107D01*
X242383D01*
X242398Y266111D01*
X242438Y266115D01*
X242489Y266125D01*
X242547Y266144D01*
X242605Y266169D01*
X242667Y266206D01*
X242722Y266253D01*
X242729Y266260D01*
X242743Y266278D01*
X242765Y266311D01*
X242791Y266351D01*
X242820Y266406D01*
X242842Y266468D01*
X242856Y266537D01*
X242863Y266613D01*
Y266621D01*
Y266635D01*
X242860Y266661D01*
X242856Y266693D01*
X242849Y266733D01*
X242838Y266777D01*
X242824Y266821D01*
X242805Y266868D01*
X242802Y266872D01*
X242794Y266890D01*
X242780Y266912D01*
X242758Y266937D01*
X242733Y266970D01*
X242700Y267003D01*
X242663Y267032D01*
X242620Y267061D01*
X242612Y267065D01*
X242598Y267072D01*
X242572Y267083D01*
X242540Y267094D01*
X242499Y267105D01*
X242452Y267116D01*
X242401Y267123D01*
X242350Y267126D01*
D02*
G37*
G36*
Y265856D02*
X242343D01*
X242321Y265852D01*
X242288Y265849D01*
X242245Y265842D01*
X242197Y265827D01*
X242150Y265809D01*
X242099Y265780D01*
X242055Y265743D01*
X242052Y265740D01*
X242037Y265722D01*
X242019Y265700D01*
X241997Y265667D01*
X241975Y265627D01*
X241957Y265580D01*
X241943Y265525D01*
X241939Y265467D01*
Y265463D01*
Y265459D01*
Y265438D01*
X241946Y265405D01*
X241953Y265365D01*
X241968Y265321D01*
X241990Y265274D01*
X242019Y265226D01*
X242059Y265179D01*
X242063Y265176D01*
X242081Y265161D01*
X242106Y265143D01*
X242139Y265121D01*
X242183Y265099D01*
X242230Y265081D01*
X242288Y265066D01*
X242350Y265063D01*
X242379D01*
X242412Y265070D01*
X242456Y265077D01*
X242503Y265092D01*
X242554Y265110D01*
X242601Y265139D01*
X242649Y265179D01*
X242652Y265183D01*
X242667Y265197D01*
X242685Y265223D01*
X242703Y265256D01*
X242725Y265296D01*
X242743Y265343D01*
X242758Y265394D01*
X242762Y265452D01*
Y265456D01*
Y265459D01*
X242758Y265481D01*
X242754Y265514D01*
X242747Y265554D01*
X242733Y265601D01*
X242714Y265649D01*
X242685Y265700D01*
X242649Y265743D01*
X242645Y265747D01*
X242627Y265761D01*
X242601Y265780D01*
X242569Y265798D01*
X242525Y265820D01*
X242474Y265838D01*
X242416Y265852D01*
X242350Y265856D01*
D02*
G37*
G36*
X56341Y97708D02*
X56323D01*
X56309Y97704D01*
X56272Y97701D01*
X56225Y97690D01*
X56174Y97668D01*
X56116Y97642D01*
X56058Y97602D01*
X56028Y97580D01*
X56003Y97551D01*
Y97548D01*
X55996Y97544D01*
X55981Y97522D01*
X55959Y97486D01*
X55930Y97439D01*
X55905Y97377D01*
X55883Y97304D01*
X55868Y97220D01*
X55861Y97122D01*
Y97118D01*
Y97111D01*
Y97096D01*
X55865Y97078D01*
Y97056D01*
X55868Y97031D01*
X55879Y96973D01*
X55894Y96907D01*
X55919Y96838D01*
X55956Y96772D01*
X56003Y96710D01*
X56010Y96703D01*
X56028Y96685D01*
X56058Y96663D01*
X56098Y96634D01*
X56148Y96605D01*
X56207Y96583D01*
X56276Y96565D01*
X56352Y96558D01*
X56374D01*
X56389Y96561D01*
X56425Y96565D01*
X56476Y96576D01*
X56531Y96594D01*
X56593Y96623D01*
X56651Y96660D01*
X56709Y96710D01*
X56716Y96718D01*
X56731Y96736D01*
X56756Y96769D01*
X56782Y96816D01*
X56807Y96871D01*
X56833Y96940D01*
X56847Y97016D01*
X56855Y97104D01*
Y97111D01*
Y97129D01*
X56851Y97162D01*
X56847Y97202D01*
X56840Y97249D01*
X56826Y97300D01*
X56811Y97355D01*
X56789Y97409D01*
X56786Y97417D01*
X56775Y97435D01*
X56760Y97460D01*
X56738Y97493D01*
X56713Y97526D01*
X56680Y97566D01*
X56644Y97599D01*
X56600Y97631D01*
X56593Y97635D01*
X56578Y97642D01*
X56553Y97657D01*
X56520Y97668D01*
X56483Y97682D01*
X56440Y97697D01*
X56392Y97704D01*
X56341Y97708D01*
D02*
G37*
G36*
X58959Y97031D02*
X58165D01*
Y95902D01*
X58959Y97031D01*
D02*
G37*
G36*
X62892Y89990D02*
X62098D01*
Y89156D01*
X62848D01*
X62892Y89160D01*
X62943Y89163D01*
X63001Y89167D01*
X63059Y89174D01*
X63117Y89185D01*
X63168Y89200D01*
X63176Y89204D01*
X63190Y89211D01*
X63212Y89222D01*
X63241Y89236D01*
X63274Y89258D01*
X63307Y89284D01*
X63340Y89316D01*
X63365Y89353D01*
X63369Y89356D01*
X63376Y89371D01*
X63387Y89393D01*
X63401Y89422D01*
X63412Y89455D01*
X63423Y89491D01*
X63431Y89535D01*
X63434Y89578D01*
Y89582D01*
Y89586D01*
X63431Y89608D01*
X63427Y89640D01*
X63420Y89684D01*
X63401Y89728D01*
X63380Y89779D01*
X63347Y89826D01*
X63303Y89873D01*
X63296Y89877D01*
X63278Y89891D01*
X63248Y89910D01*
X63201Y89931D01*
X63147Y89953D01*
X63074Y89972D01*
X62990Y89986D01*
X62892Y89990D01*
D02*
G37*
G36*
X105554Y30692D02*
X104804D01*
X104760Y30689D01*
X104709Y30685D01*
X104651Y30682D01*
X104593Y30674D01*
X104535Y30663D01*
X104484Y30649D01*
X104476Y30645D01*
X104462Y30638D01*
X104440Y30627D01*
X104411Y30612D01*
X104378Y30591D01*
X104345Y30565D01*
X104313Y30532D01*
X104287Y30496D01*
X104283Y30492D01*
X104276Y30478D01*
X104265Y30456D01*
X104251Y30427D01*
X104240Y30394D01*
X104229Y30358D01*
X104222Y30314D01*
X104218Y30270D01*
Y30267D01*
Y30263D01*
X104222Y30241D01*
X104225Y30208D01*
X104233Y30165D01*
X104251Y30121D01*
X104273Y30070D01*
X104305Y30023D01*
X104349Y29975D01*
X104356Y29972D01*
X104375Y29957D01*
X104404Y29939D01*
X104451Y29917D01*
X104506Y29895D01*
X104578Y29877D01*
X104662Y29863D01*
X104760Y29859D01*
X105554D01*
Y30692D01*
D02*
G37*
G36*
X100698Y31886D02*
X100676D01*
X100662Y31883D01*
X100625Y31876D01*
X100574Y31861D01*
X100520Y31835D01*
X100458Y31799D01*
X100429Y31777D01*
X100400Y31748D01*
X100371Y31719D01*
X100341Y31683D01*
Y31679D01*
X100334Y31672D01*
X100327Y31661D01*
X100320Y31642D01*
X100305Y31617D01*
X100294Y31584D01*
X100279Y31548D01*
X100265Y31504D01*
X100254Y31450D01*
X100239Y31391D01*
X100225Y31322D01*
X100214Y31249D01*
X100207Y31162D01*
X100199Y31071D01*
X100192Y30969D01*
Y30856D01*
Y30853D01*
Y30849D01*
Y30831D01*
Y30798D01*
X100196Y30754D01*
Y30707D01*
X100199Y30649D01*
X100203Y30587D01*
X100210Y30518D01*
X100229Y30380D01*
X100239Y30310D01*
X100254Y30245D01*
X100269Y30183D01*
X100290Y30125D01*
X100312Y30074D01*
X100338Y30030D01*
Y30026D01*
X100345Y30023D01*
X100352Y30012D01*
X100363Y29997D01*
X100396Y29965D01*
X100436Y29924D01*
X100491Y29888D01*
X100552Y29855D01*
X100585Y29841D01*
X100622Y29830D01*
X100662Y29826D01*
X100702Y29822D01*
X100724D01*
X100738Y29826D01*
X100778Y29833D01*
X100826Y29844D01*
X100880Y29866D01*
X100938Y29899D01*
X100967Y29921D01*
X100997Y29943D01*
X101022Y29972D01*
X101048Y30005D01*
Y30008D01*
X101055Y30016D01*
X101062Y30030D01*
X101073Y30048D01*
X101084Y30077D01*
X101099Y30110D01*
X101109Y30150D01*
X101124Y30198D01*
X101138Y30252D01*
X101153Y30314D01*
X101168Y30383D01*
X101179Y30459D01*
X101189Y30547D01*
X101197Y30641D01*
X101200Y30744D01*
X101204Y30856D01*
Y30864D01*
Y30882D01*
Y30915D01*
X101200Y30958D01*
Y31005D01*
X101197Y31064D01*
X101193Y31126D01*
X101186Y31191D01*
X101168Y31333D01*
X101157Y31402D01*
X101142Y31468D01*
X101128Y31530D01*
X101106Y31588D01*
X101084Y31639D01*
X101058Y31683D01*
Y31686D01*
X101051Y31690D01*
X101033Y31715D01*
X101000Y31748D01*
X100960Y31784D01*
X100906Y31821D01*
X100844Y31854D01*
X100775Y31879D01*
X100738Y31883D01*
X100698Y31886D01*
D02*
G37*
G36*
X105851Y45116D02*
X104722D01*
X105851Y44322D01*
Y45116D01*
D02*
G37*
%LPD*%
D15*
X183033Y241535D02*
X306931D01*
X183033D02*
Y293228D01*
X306931D01*
Y241535D02*
Y293228D01*
X339331Y122294D02*
X375355D01*
Y151452D01*
X339331D02*
X375355D01*
X339331Y122294D02*
Y151452D01*
X22594Y241382D02*
Y293075D01*
Y241382D02*
X146491D01*
Y293075D01*
X22594D02*
X146491D01*
X625229Y23338D02*
X687138D01*
X625229D02*
Y54369D01*
X687138D01*
Y23338D02*
Y54369D01*
X36218Y71178D02*
X50195D01*
X36218Y55823D02*
Y71178D01*
Y55823D02*
X50195D01*
Y71178D01*
X28290Y115410D02*
Y130789D01*
X36164D01*
Y115410D02*
Y130789D01*
X28290Y115410D02*
X36164D01*
X467344Y241535D02*
Y293228D01*
X343446D02*
X467344D01*
X343446Y241535D02*
Y293228D01*
Y241535D02*
X467344D01*
X503866Y293357D02*
X627763D01*
Y241664D02*
Y293357D01*
X503866Y241664D02*
X627763D01*
X503866D02*
Y293357D01*
X111400Y29976D02*
Y34306D01*
X100377D02*
X111400D01*
X100377Y29976D02*
Y34306D01*
Y29976D02*
X111400D01*
X55464Y84656D02*
Y90759D01*
Y84656D02*
X68063D01*
Y90759D01*
X55464D02*
X68063D01*
X56155Y94616D02*
X67178D01*
X56155D02*
Y101309D01*
X67178D01*
Y94616D02*
Y101309D01*
X4966Y70873D02*
X18942D01*
X4966Y55519D02*
Y70873D01*
Y55519D02*
X18942D01*
Y70873D01*
X104617Y37260D02*
X108948D01*
Y45969D01*
X104617D02*
X108948D01*
X104617Y37260D02*
Y45969D01*
M02*
