G04*
G04 #@! TF.GenerationSoftware,Altium Limited,Altium Designer,20.0.11 (256)*
G04*
G04 Layer_Color=16711935*
%FSLAX25Y25*%
%MOIN*%
G70*
G01*
G75*
%ADD15C,0.00787*%
%ADD16C,0.00394*%
%ADD17C,0.01000*%
%ADD18C,0.00500*%
%ADD21C,0.00300*%
%ADD203C,0.00100*%
G36*
X375181Y46783D02*
X371065D01*
Y46785D01*
X369093D01*
Y46791D01*
X367123D01*
Y46797D01*
X365338D01*
Y46796D01*
X363370D01*
Y46788D01*
X359433D01*
Y46780D01*
X355286D01*
Y46784D01*
X351339D01*
Y46803D01*
X349351D01*
Y47539D01*
X375181D01*
Y46783D01*
D02*
G37*
G36*
X378331Y40292D02*
Y38304D01*
Y36331D01*
Y34356D01*
Y32384D01*
Y30410D01*
Y28436D01*
Y26469D01*
Y24487D01*
Y22520D01*
Y20540D01*
Y18569D01*
X377582D01*
Y22520D01*
X377576D01*
Y26469D01*
X377563D01*
Y30610D01*
X377585D01*
Y32384D01*
X377582D01*
Y34356D01*
X377576D01*
Y38484D01*
X377582D01*
Y42421D01*
X377607D01*
Y44389D01*
X378331D01*
Y40292D01*
D02*
G37*
G36*
X347031Y40286D02*
Y38305D01*
Y36336D01*
Y34361D01*
Y32384D01*
Y30410D01*
Y28438D01*
Y26462D01*
Y24479D01*
Y22499D01*
Y20551D01*
Y18561D01*
X346193D01*
Y22499D01*
X346172D01*
Y26673D01*
X346178D01*
Y28641D01*
X346200D01*
Y30410D01*
X346200D01*
Y32384D01*
X346193D01*
Y34361D01*
X346184D01*
Y38484D01*
X346187D01*
Y40452D01*
X346188D01*
Y44389D01*
X347031D01*
Y40286D01*
D02*
G37*
G36*
X375181Y15377D02*
X371089D01*
Y15401D01*
X367126D01*
Y15423D01*
X365338D01*
Y15410D01*
X363370D01*
Y15400D01*
X361402D01*
Y15388D01*
X359433D01*
Y15387D01*
X355271D01*
Y15409D01*
X351332D01*
Y15438D01*
X349382D01*
Y16240D01*
X375181D01*
Y15377D01*
D02*
G37*
D15*
X246642Y223834D02*
X400737D01*
X246642Y182850D02*
Y223834D01*
Y182850D02*
X400737D01*
Y223834D01*
X22864Y181431D02*
Y222415D01*
X176959D01*
Y181431D02*
Y222415D01*
X22864Y181431D02*
X176959D01*
X624959Y178029D02*
Y228029D01*
X470864Y178029D02*
X624959D01*
X470864D02*
Y228029D01*
X624959D01*
D16*
X44637Y124162D02*
G03*
X44637Y124162I-1969J0D01*
G01*
X451965Y69483D02*
G03*
X451965Y69483I-1969J0D01*
G01*
X304251Y-9542D02*
G03*
X304251Y-9542I-1969J0D01*
G01*
X108741Y124642D02*
G03*
X108741Y124642I-12402J0D01*
G01*
X297068Y226762D02*
X302186D01*
X297068Y238258D02*
X302186D01*
Y226762D02*
Y238258D01*
X297068Y226762D02*
Y238258D01*
X271952Y226651D02*
X277071D01*
X271952Y238147D02*
X277071D01*
Y226651D02*
Y238147D01*
X271952Y226651D02*
Y238147D01*
X342772Y159624D02*
Y163167D01*
X336080Y159624D02*
Y163167D01*
Y159624D02*
X342772D01*
X336080Y163167D02*
X342772D01*
X371732Y159277D02*
X378425D01*
X371732Y162820D02*
X378425D01*
Y159277D02*
Y162820D01*
X371732Y159277D02*
Y162820D01*
X371338Y156126D02*
X378031D01*
X371338Y152386D02*
X378031D01*
X371338D02*
Y156126D01*
X378031Y152386D02*
Y156126D01*
X354333Y152704D02*
X361026D01*
X354333Y156248D02*
X361026D01*
Y152704D02*
Y156248D01*
X354333Y152704D02*
Y156248D01*
X630631Y167523D02*
Y174215D01*
X634174Y167523D02*
Y174215D01*
X630631Y167523D02*
X634174D01*
X630631Y174215D02*
X634174D01*
X506602Y97561D02*
X513492D01*
X506602Y93821D02*
X513492D01*
X506602D02*
Y97561D01*
X513492Y93821D02*
Y97561D01*
X79893Y106840D02*
Y164714D01*
X38909Y106840D02*
Y164714D01*
X79893D01*
X38909Y106840D02*
X79893D01*
X513394Y99161D02*
Y102901D01*
X506701Y99161D02*
Y102901D01*
Y99161D02*
X513394D01*
X506701Y102901D02*
X513394D01*
X506701Y104502D02*
Y108242D01*
X513394Y104502D02*
Y108242D01*
X506701D02*
X513394D01*
X506701Y104502D02*
X513394D01*
X513463Y109842D02*
Y113582D01*
X506770Y109842D02*
Y113582D01*
Y109842D02*
X513463D01*
X506770Y113582D02*
X513463D01*
X488374Y81499D02*
Y93310D01*
X500185Y81499D02*
Y93310D01*
X488374D02*
X500185D01*
X488374Y81499D02*
X500185D01*
X127701Y-3198D02*
X152701D01*
Y10306D01*
X127701D02*
X152701D01*
X127701Y-3198D02*
Y10306D01*
X60311Y57066D02*
X67398D01*
X60311Y70452D02*
X67398D01*
X60311Y57066D02*
Y70452D01*
X67398Y57066D02*
Y70452D01*
X34705Y56517D02*
Y69903D01*
X27619Y56517D02*
Y69903D01*
X34705D01*
X27619Y56517D02*
X34705D01*
X476120Y98948D02*
Y102688D01*
X483010Y98948D02*
Y102688D01*
X476120D02*
X483010D01*
X476120Y98948D02*
X483010D01*
Y105138D02*
Y108879D01*
X476120Y105138D02*
Y108879D01*
Y105138D02*
X483010D01*
X476120Y108879D02*
X483010D01*
X407891Y14960D02*
Y24803D01*
Y14960D02*
X420490D01*
X407891Y24803D02*
X420490D01*
Y14960D02*
Y24803D01*
X418552Y119727D02*
X427213D01*
X418552Y125042D02*
X427213D01*
X418552Y119727D02*
Y125042D01*
X427213Y119727D02*
Y125042D01*
X438916Y119897D02*
Y125212D01*
X430254Y119897D02*
Y125212D01*
X438916D01*
X430254Y119897D02*
X438916D01*
X450618Y119835D02*
Y125150D01*
X441957Y119835D02*
Y125150D01*
X450618D01*
X441957Y119835D02*
X450618D01*
X462320D02*
Y125149D01*
X453659Y119835D02*
Y125149D01*
X462320D01*
X453659Y119835D02*
X462320D01*
X474023D02*
Y125150D01*
X465361Y119835D02*
Y125150D01*
X474023D01*
X465361Y119835D02*
X474023D01*
X235734Y22313D02*
Y26053D01*
X229041Y22313D02*
Y26053D01*
Y22313D02*
X235734D01*
X229041Y26053D02*
X235734D01*
X59204Y38037D02*
X72590D01*
X59204Y45123D02*
X72590D01*
Y38037D02*
Y45123D01*
X59204Y38037D02*
Y45123D01*
X70727Y57066D02*
X77813D01*
X70727Y70452D02*
X77813D01*
X70727Y57066D02*
Y70452D01*
X77813Y57066D02*
Y70452D01*
X34956Y47068D02*
Y54155D01*
X48342Y47068D02*
Y54155D01*
X34956D02*
X48342D01*
X34956Y47068D02*
X48342D01*
X30176Y11375D02*
X37263D01*
X30176Y-2011D02*
X37263D01*
Y11375D01*
X30176Y-2011D02*
Y11375D01*
X201725Y58907D02*
Y62647D01*
X195032Y58907D02*
Y62647D01*
Y58907D02*
X201725D01*
X195032Y62647D02*
X201725D01*
X101082Y52341D02*
Y75176D01*
X80609Y52341D02*
Y75176D01*
X101082D01*
X80609Y52341D02*
X101082D01*
X626754Y170908D02*
X629117D01*
X626754Y166578D02*
X629117D01*
Y170908D01*
X626754Y166578D02*
Y170908D01*
X343166Y153024D02*
Y156764D01*
X336473Y153024D02*
Y156764D01*
Y153024D02*
X343166D01*
X336473Y156764D02*
X343166D01*
X354333Y166834D02*
X361026D01*
X354333Y163093D02*
X361026D01*
X354333D02*
Y166834D01*
X361026Y163093D02*
Y166834D01*
X354333Y161541D02*
X361026D01*
X354333Y157801D02*
X361026D01*
X354333D02*
Y161541D01*
X361026Y157801D02*
Y161541D01*
X441335Y82082D02*
X453540D01*
X441335Y65940D02*
X453540D01*
X441335D02*
Y82082D01*
X453540Y65940D02*
Y82082D01*
X423957Y79531D02*
X430649D01*
X423957Y75791D02*
X430649D01*
X423957D02*
Y79531D01*
X430649Y75791D02*
Y79531D01*
X423957Y72928D02*
X430649D01*
X423957Y69188D02*
X430649D01*
X423957D02*
Y72928D01*
X430649Y69188D02*
Y72928D01*
X423957Y66735D02*
X430649D01*
X423957Y62995D02*
X430649D01*
X423957D02*
Y66735D01*
X430649Y62995D02*
Y66735D01*
X386162Y15087D02*
X392855D01*
X386162Y11347D02*
X392855D01*
X386162D02*
Y15087D01*
X392855Y11347D02*
Y15087D01*
X386162Y22023D02*
X392855D01*
X386162Y18283D02*
X392855D01*
X386162D02*
Y22023D01*
X392855Y18283D02*
Y22023D01*
X326938Y47381D02*
X333631D01*
X326938Y51121D02*
X333631D01*
Y47381D02*
Y51121D01*
X326938Y47381D02*
Y51121D01*
X262244Y-2166D02*
X267756D01*
X262244Y-10631D02*
X267756D01*
Y-2166D01*
X262244Y-10631D02*
Y-2166D01*
X270682Y-2074D02*
X276194D01*
X270682Y-10538D02*
X276194D01*
Y-2074D01*
X270682Y-10538D02*
Y-2074D01*
X279120Y-2166D02*
X284631D01*
X279120Y-10631D02*
X284631D01*
Y-2166D01*
X279120Y-10631D02*
Y-2166D01*
X305826Y-13085D02*
Y-1274D01*
X294015Y-13085D02*
Y-1274D01*
Y-13085D02*
X305826D01*
X294015Y-1274D02*
X305826D01*
X315534Y-10631D02*
X321046D01*
X315534Y-2166D02*
X321046D01*
X315534Y-10631D02*
Y-2166D01*
X321046Y-10631D02*
Y-2166D01*
X323295Y-10600D02*
X328807D01*
X323295Y-2136D02*
X328807D01*
X323295Y-10600D02*
Y-2136D01*
X328807Y-10600D02*
Y-2136D01*
X331263Y-10729D02*
X338350D01*
X331263Y2657D02*
X338350D01*
X331263Y-10729D02*
Y2657D01*
X338350Y-10729D02*
Y2657D01*
X235734Y15332D02*
Y19072D01*
X229041Y15332D02*
Y19072D01*
Y15332D02*
X235734D01*
X229041Y19072D02*
X235734D01*
X236346Y43616D02*
X240086D01*
X236346Y50309D02*
X240086D01*
X236346Y43616D02*
Y50309D01*
X240086Y43616D02*
Y50309D01*
X216661Y43616D02*
X220401D01*
X216661Y50309D02*
X220401D01*
X216661Y43616D02*
Y50309D01*
X220401Y43616D02*
Y50309D01*
X188536Y105051D02*
Y112138D01*
X201922Y105051D02*
Y112138D01*
X188536D02*
X201922D01*
X188536Y105051D02*
X201922D01*
X188516Y75524D02*
Y82610D01*
X201902Y75524D02*
Y82610D01*
X188516D02*
X201902D01*
X188516Y75524D02*
X201902D01*
X188536Y65681D02*
X201922D01*
X188536Y72768D02*
X201922D01*
Y65681D02*
Y72768D01*
X188536Y65681D02*
Y72768D01*
X82994Y84853D02*
Y90562D01*
X74332Y84853D02*
Y90562D01*
Y84853D02*
X82994D01*
X74332Y90562D02*
X82994D01*
X82531Y95108D02*
Y100817D01*
X73870Y95108D02*
Y100817D01*
Y95108D02*
X82531D01*
X73870Y100817D02*
X82531D01*
X40942Y100817D02*
X49604D01*
X40942Y95108D02*
X49604D01*
X40942D02*
Y100817D01*
X49604Y95108D02*
Y100817D01*
X69948Y25612D02*
X83333D01*
X69948Y18526D02*
X83333D01*
X69948D02*
Y25612D01*
X83333Y18526D02*
Y25612D01*
X92499Y25612D02*
X105885D01*
X92499Y18525D02*
X105885D01*
X92499D02*
Y25612D01*
X105885Y18525D02*
Y25612D01*
X47340Y25827D02*
X60725D01*
X47340Y18741D02*
X60725D01*
X47340D02*
Y25827D01*
X60725Y18741D02*
Y25827D01*
X25919Y25827D02*
X39305D01*
X25919Y18741D02*
X39305D01*
X25919D02*
Y25827D01*
X39305Y18741D02*
Y25827D01*
X73151Y-2180D02*
Y11206D01*
X80238Y-2180D02*
Y11206D01*
X73151Y-2180D02*
X80238D01*
X73151Y11206D02*
X80238D01*
X51959Y-2180D02*
Y11206D01*
X59046Y-2180D02*
Y11206D01*
X51959Y-2180D02*
X59046D01*
X51959Y11206D02*
X59046D01*
X95649Y-2180D02*
Y11206D01*
X102735Y-2180D02*
Y11206D01*
X95649Y-2180D02*
X102735D01*
X95649Y11206D02*
X102735D01*
X464206Y72928D02*
X470899D01*
X464206Y69188D02*
X470899D01*
X464206D02*
Y72928D01*
X470899Y69188D02*
Y72928D01*
X187630Y98161D02*
X191370D01*
X187630Y91469D02*
X191370D01*
Y98161D01*
X187630Y91469D02*
Y98161D01*
X202808Y91469D02*
Y98161D01*
X199067Y91469D02*
Y98161D01*
X202808D01*
X199067Y91469D02*
X202808D01*
X285361Y43405D02*
Y50098D01*
X281621Y43405D02*
Y50098D01*
X285361D01*
X281621Y43405D02*
X285361D01*
X247960Y43616D02*
Y50309D01*
X244220Y43616D02*
Y50309D01*
X247960D01*
X244220Y43616D02*
X247960D01*
X234469Y152790D02*
Y159483D01*
X238209Y152790D02*
Y159483D01*
X234469Y152790D02*
X238209D01*
X234469Y159483D02*
X238209D01*
X257802Y43616D02*
Y50309D01*
X254062Y43616D02*
Y50309D01*
X257802D01*
X254062Y43616D02*
X257802D01*
X304089Y110783D02*
X310782D01*
X304089Y107043D02*
X310782D01*
X304089D02*
Y110783D01*
X310782Y107043D02*
Y110783D01*
X195032Y124441D02*
Y128181D01*
X201725Y124441D02*
Y128181D01*
X195032D02*
X201725D01*
X195032Y124441D02*
X201725D01*
X304089Y138323D02*
X310782D01*
X304089Y134583D02*
X310782D01*
X304089D02*
Y138323D01*
X310782Y134583D02*
Y138323D01*
X259936Y152790D02*
Y159483D01*
X263676Y152790D02*
Y159483D01*
X259936Y152790D02*
X263676D01*
X259936Y159483D02*
X263676D01*
X346877Y115639D02*
X353570D01*
X346877Y119182D02*
X353570D01*
Y115639D02*
Y119182D01*
X346877Y115639D02*
Y119182D01*
Y109118D02*
X353570D01*
X346877Y112661D02*
X353570D01*
Y109118D02*
Y112661D01*
X346877Y109118D02*
Y112661D01*
X-3396Y56407D02*
X3691D01*
X-3396Y69792D02*
X3691D01*
X-3396Y56407D02*
Y69792D01*
X3691Y56407D02*
Y69792D01*
X3703Y47068D02*
Y54155D01*
X17089Y47068D02*
Y54155D01*
X3703D02*
X17089D01*
X3703Y47068D02*
X17089D01*
X436340Y141608D02*
Y156962D01*
X455632D01*
Y141608D02*
Y156962D01*
X436340Y141608D02*
X455632D01*
X436340Y146608D02*
X441340Y141608D01*
D17*
X356775Y39370D02*
G03*
X356775Y39370I-2362J0D01*
G01*
D18*
X327011Y70365D02*
X333310D01*
X327011Y74066D02*
X333310D01*
Y70365D02*
Y74066D01*
X327011Y70365D02*
Y74066D01*
Y70365D02*
X333310D01*
X327011Y74066D02*
X333310D01*
Y70365D02*
Y74066D01*
X327011Y70365D02*
Y74066D01*
X326634Y20924D02*
X333169D01*
X326634Y24625D02*
X333169D01*
Y20924D02*
Y24625D01*
X326634Y20924D02*
Y24625D01*
Y20924D02*
X333169D01*
X326634Y24625D02*
X333169D01*
Y20924D02*
Y24625D01*
X326634Y20924D02*
Y24625D01*
X376264Y17519D02*
Y45472D01*
X348311Y17519D02*
X376264D01*
X348311D02*
Y45472D01*
X376264D01*
X412950Y6791D02*
X419879D01*
X412950Y10571D02*
X419879D01*
Y6791D02*
Y10571D01*
X412950Y6791D02*
Y10571D01*
Y6791D02*
X419879D01*
X412950Y10571D02*
X419879D01*
Y6791D02*
Y10571D01*
X412950Y6791D02*
Y10571D01*
X309825Y39227D02*
X316755D01*
X309825Y43007D02*
X316755D01*
Y39227D02*
Y43007D01*
X309825Y39227D02*
Y43007D01*
Y39227D02*
X316755D01*
X309825Y43007D02*
X316755D01*
Y39227D02*
Y43007D01*
X309825Y39227D02*
Y43007D01*
X316656Y29645D02*
Y33346D01*
X310356Y29645D02*
Y33346D01*
Y29645D02*
X316656D01*
X310356Y33346D02*
X316656D01*
Y29645D02*
Y33346D01*
X310356Y29645D02*
Y33346D01*
Y29645D02*
X316656D01*
X310356Y33346D02*
X316656D01*
X386658Y39266D02*
Y42967D01*
X392957Y39266D02*
Y42967D01*
X386658D02*
X392957D01*
X386658Y39266D02*
X392957D01*
X386658D02*
Y42967D01*
X392957Y39266D02*
Y42967D01*
X386658D02*
X392957D01*
X386658Y39266D02*
X392957D01*
X386615Y25395D02*
Y29096D01*
X393150Y25395D02*
Y29096D01*
X386615D02*
X393150D01*
X386615Y25395D02*
X393150D01*
X386615D02*
Y29096D01*
X393150Y25395D02*
Y29096D01*
X386615D02*
X393150D01*
X386615Y25395D02*
X393150D01*
X386607Y4569D02*
X393694D01*
X386607Y8506D02*
X393694D01*
Y4569D02*
Y8506D01*
X386607Y4569D02*
Y8506D01*
Y4569D02*
X393694D01*
X386607Y8506D02*
X393694D01*
Y4569D02*
Y8506D01*
X386607Y4569D02*
Y8506D01*
X369914Y-658D02*
X373693D01*
X369914Y6271D02*
X373693D01*
X369914Y-658D02*
Y6271D01*
X373693Y-658D02*
Y6271D01*
X369914Y-658D02*
X373693D01*
X369914Y6271D02*
X373693D01*
X369914Y-658D02*
Y6271D01*
X373693Y-658D02*
Y6271D01*
X327011Y77480D02*
Y81181D01*
X333310Y77480D02*
Y81181D01*
X327011D02*
X333310D01*
X327011Y77480D02*
X333310D01*
X327011D02*
Y81181D01*
X333310Y77480D02*
Y81181D01*
X327011D02*
X333310D01*
X327011Y77480D02*
X333310D01*
X326814Y56136D02*
Y59837D01*
X333350Y56136D02*
Y59837D01*
X326814D02*
X333350D01*
X326814Y56136D02*
X333350D01*
X326814D02*
Y59837D01*
X333350Y56136D02*
Y59837D01*
X326814D02*
X333350D01*
X326814Y56136D02*
X333350D01*
X326814Y63251D02*
Y66951D01*
X333350Y63251D02*
Y66951D01*
X326814D02*
X333350D01*
X326814Y63251D02*
X333350D01*
X326814D02*
Y66951D01*
X333350Y63251D02*
Y66951D01*
X326814D02*
X333350D01*
X326814Y63251D02*
X333350D01*
X326643Y29802D02*
Y33503D01*
X333178Y29802D02*
Y33503D01*
X326643D02*
X333178D01*
X326643Y29802D02*
X333178D01*
X326643D02*
Y33503D01*
X333178Y29802D02*
Y33503D01*
X326643D02*
X333178D01*
X326643Y29802D02*
X333178D01*
X333186Y38661D02*
Y42598D01*
X326100Y38661D02*
Y42598D01*
Y38661D02*
X333186D01*
X326100Y42598D02*
X333186D01*
Y38661D02*
Y42598D01*
X326100Y38661D02*
Y42598D01*
Y38661D02*
X333186D01*
X326100Y42598D02*
X333186D01*
X326476Y12047D02*
Y15747D01*
X333169Y12047D02*
Y15747D01*
X326476D02*
X333169D01*
X326476Y12047D02*
X333169D01*
X326476D02*
Y15747D01*
X333169Y12047D02*
Y15747D01*
X326476D02*
X333169D01*
X326476Y12047D02*
X333169D01*
X386615Y35855D02*
X393308D01*
X386615Y32311D02*
X393308D01*
X386615D02*
Y35855D01*
X393308Y32311D02*
Y35855D01*
X386615D02*
X393308D01*
X386615Y32311D02*
X393308D01*
X386615D02*
Y35855D01*
X393308Y32311D02*
Y35855D01*
X352702Y55309D02*
Y62238D01*
X356481Y55309D02*
Y62238D01*
X352702Y55309D02*
X356481D01*
X352702Y62238D02*
X356481D01*
X352702Y55309D02*
Y62238D01*
X356481Y55309D02*
Y62238D01*
X352702Y55309D02*
X356481D01*
X352702Y62238D02*
X356481D01*
X310377Y20846D02*
X316676D01*
X310377Y24547D02*
X316676D01*
Y20846D02*
Y24547D01*
X310377Y20846D02*
Y24547D01*
Y20846D02*
X316676D01*
X310377Y24547D02*
X316676D01*
Y20846D02*
Y24547D01*
X310377Y20846D02*
Y24547D01*
X365196Y55664D02*
Y62199D01*
X368897Y55664D02*
Y62199D01*
X365196Y55664D02*
X368897D01*
X365196Y62199D02*
X368897D01*
X365196Y55664D02*
Y62199D01*
X368897Y55664D02*
Y62199D01*
X365196Y55664D02*
X368897D01*
X365196Y62199D02*
X368897D01*
X376032Y55857D02*
Y62156D01*
X372331Y55857D02*
Y62156D01*
X376032D01*
X372331Y55857D02*
X376032D01*
Y62156D01*
X372331Y55857D02*
Y62156D01*
X376032D01*
X372331Y55857D02*
X376032D01*
X366316Y-658D02*
Y6271D01*
X362537Y-658D02*
Y6271D01*
X366316D01*
X362537Y-658D02*
X366316D01*
Y6271D01*
X362537Y-658D02*
Y6271D01*
X366316D01*
X362537Y-658D02*
X366316D01*
X419879Y29919D02*
Y33699D01*
X412950Y29919D02*
Y33699D01*
Y29919D02*
X419879D01*
X412950Y33699D02*
X419879D01*
Y29919D02*
Y33699D01*
X412950Y29919D02*
Y33699D01*
Y29919D02*
X419879D01*
X412950Y33699D02*
X419879D01*
X310309Y12007D02*
X317238D01*
X310309Y15787D02*
X317238D01*
Y12007D02*
Y15787D01*
X310309Y12007D02*
Y15787D01*
Y12007D02*
X317238D01*
X310309Y15787D02*
X317238D01*
Y12007D02*
Y15787D01*
X310309Y12007D02*
Y15787D01*
X362624Y55309D02*
Y62238D01*
X358844Y55309D02*
Y62238D01*
X362624D01*
X358844Y55309D02*
X362624D01*
Y62238D01*
X358844Y55309D02*
Y62238D01*
X362624D01*
X358844Y55309D02*
X362624D01*
X309825Y50946D02*
X316755D01*
X309825Y47166D02*
X316755D01*
X309825D02*
Y50946D01*
X316755Y47166D02*
Y50946D01*
X309825D02*
X316755D01*
X309825Y47166D02*
X316755D01*
X309825D02*
Y50946D01*
X316755Y47166D02*
Y50946D01*
D21*
X213694Y138638D02*
X217027Y135305D01*
X213694D02*
X217027Y138638D01*
X213694Y136972D02*
X217027D01*
X215361Y135305D02*
Y138638D01*
X193900Y40165D02*
X190568Y43497D01*
X193900D02*
X190568Y40165D01*
X193900Y41831D02*
X190568D01*
X192234Y43497D02*
Y40165D01*
D203*
X213444Y62189D02*
Y140889D01*
X292144D01*
Y62189D02*
Y140889D01*
X213444Y62189D02*
X292144D01*
X213444Y135889D02*
X218444Y140889D01*
X292144Y136538D02*
X296094D01*
Y135438D02*
Y136538D01*
X292144Y135438D02*
X296094D01*
X292144D02*
Y136538D01*
Y134570D02*
X296094D01*
Y133470D02*
Y134570D01*
X292144Y133470D02*
X296094D01*
X292144D02*
Y134570D01*
Y132601D02*
X296094D01*
Y131501D02*
Y132601D01*
X292144Y131501D02*
X296094D01*
X292144D02*
Y132601D01*
Y130633D02*
X296094D01*
Y129533D02*
Y130633D01*
X292144Y129533D02*
X296094D01*
X292144D02*
Y130633D01*
Y128664D02*
X296094D01*
Y127564D02*
Y128664D01*
X292144Y127564D02*
X296094D01*
X292144D02*
Y128664D01*
Y126696D02*
X296094D01*
Y125596D02*
Y126696D01*
X292144Y125596D02*
X296094D01*
X292144D02*
Y126696D01*
Y124727D02*
X296094D01*
Y123627D02*
Y124727D01*
X292144Y123627D02*
X296094D01*
X292144D02*
Y124727D01*
Y122759D02*
X296094D01*
Y121659D02*
Y122759D01*
X292144Y121659D02*
X296094D01*
X292144D02*
Y122759D01*
Y120790D02*
X296094D01*
Y119690D02*
Y120790D01*
X292144Y119690D02*
X296094D01*
X292144D02*
Y120790D01*
Y118822D02*
X296094D01*
Y117722D02*
Y118822D01*
X292144Y117722D02*
X296094D01*
X292144D02*
Y118822D01*
Y116853D02*
X296094D01*
Y115753D02*
Y116853D01*
X292144Y115753D02*
X296094D01*
X292144D02*
Y116853D01*
Y114885D02*
X296094D01*
Y113785D02*
Y114885D01*
X292144Y113785D02*
X296094D01*
X292144D02*
Y114885D01*
Y112916D02*
X296094D01*
Y111816D02*
Y112916D01*
X292144Y111816D02*
X296094D01*
X292144D02*
Y112916D01*
Y110948D02*
X296094D01*
Y109848D02*
Y110948D01*
X292144Y109848D02*
X296094D01*
X292144D02*
Y110948D01*
Y108979D02*
X296094D01*
Y107879D02*
Y108979D01*
X292144Y107879D02*
X296094D01*
X292144D02*
Y108979D01*
Y107011D02*
X296094D01*
Y105911D02*
Y107011D01*
X292144Y105911D02*
X296094D01*
X292144D02*
Y107011D01*
Y105042D02*
X296094D01*
Y103942D02*
Y105042D01*
X292144Y103942D02*
X296094D01*
X292144D02*
Y105042D01*
Y103074D02*
X296094D01*
Y101974D02*
Y103074D01*
X292144Y101974D02*
X296094D01*
X292144D02*
Y103074D01*
Y101105D02*
X296094D01*
Y100005D02*
Y101105D01*
X292144Y100005D02*
X296094D01*
X292144D02*
Y101105D01*
Y99137D02*
X296094D01*
Y98037D02*
Y99137D01*
X292144Y98037D02*
X296094D01*
X292144D02*
Y99137D01*
Y97168D02*
X296094D01*
Y96068D02*
Y97168D01*
X292144Y96068D02*
X296094D01*
X292144D02*
Y97168D01*
Y95200D02*
X296094D01*
Y94100D02*
Y95200D01*
X292144Y94100D02*
X296094D01*
X292144D02*
Y95200D01*
Y93231D02*
X296094D01*
Y92131D02*
Y93231D01*
X292144Y92131D02*
X296094D01*
X292144D02*
Y93231D01*
Y91263D02*
X296094D01*
Y90163D02*
Y91263D01*
X292144Y90163D02*
X296094D01*
X292144D02*
Y91263D01*
Y89294D02*
X296094D01*
Y88194D02*
Y89294D01*
X292144Y88194D02*
X296094D01*
X292144D02*
Y89294D01*
Y87326D02*
X296094D01*
Y86226D02*
Y87326D01*
X292144Y86226D02*
X296094D01*
X292144D02*
Y87326D01*
Y85357D02*
X296094D01*
Y84257D02*
Y85357D01*
X292144Y84257D02*
X296094D01*
X292144D02*
Y85357D01*
Y83389D02*
X296094D01*
Y82289D02*
Y83389D01*
X292144Y82289D02*
X296094D01*
X292144D02*
Y83389D01*
Y81420D02*
X296094D01*
Y80320D02*
Y81420D01*
X292144Y80320D02*
X296094D01*
X292144D02*
Y81420D01*
Y79452D02*
X296094D01*
Y78352D02*
Y79452D01*
X292144Y78352D02*
X296094D01*
X292144D02*
Y79452D01*
Y77483D02*
X296094D01*
Y76383D02*
Y77483D01*
X292144Y76383D02*
X296094D01*
X292144D02*
Y77483D01*
Y75515D02*
X296094D01*
Y74415D02*
Y75515D01*
X292144Y74415D02*
X296094D01*
X292144D02*
Y75515D01*
Y73546D02*
X296094D01*
Y72446D02*
Y73546D01*
X292144Y72446D02*
X296094D01*
X292144D02*
Y73546D01*
Y71578D02*
X296094D01*
Y70478D02*
Y71578D01*
X292144Y70478D02*
X296094D01*
X292144D02*
Y71578D01*
Y69609D02*
X296094D01*
Y68509D02*
Y69609D01*
X292144Y68509D02*
X296094D01*
X292144D02*
Y69609D01*
Y67641D02*
X296094D01*
Y66541D02*
Y67641D01*
X292144Y66541D02*
X296094D01*
X292144D02*
Y67641D01*
X287793Y58239D02*
Y62189D01*
X286693Y58239D02*
X287793D01*
X286693D02*
Y62189D01*
X287793D01*
X285825Y58239D02*
Y62189D01*
X284725Y58239D02*
X285825D01*
X284725D02*
Y62189D01*
X285825D01*
X283856Y58239D02*
Y62189D01*
X282756Y58239D02*
X283856D01*
X282756D02*
Y62189D01*
X283856D01*
X281888Y58239D02*
Y62189D01*
X280788Y58239D02*
X281888D01*
X280788D02*
Y62189D01*
X281888D01*
X279919Y58239D02*
Y62189D01*
X278819Y58239D02*
X279919D01*
X278819D02*
Y62189D01*
X279919D01*
X277951Y58239D02*
Y62189D01*
X276851Y58239D02*
X277951D01*
X276851D02*
Y62189D01*
X277951D01*
X275982Y58239D02*
Y62189D01*
X274882Y58239D02*
X275982D01*
X274882D02*
Y62189D01*
X275982D01*
X274014Y58239D02*
Y62189D01*
X272914Y58239D02*
X274014D01*
X272914D02*
Y62189D01*
X274014D01*
X272045Y58239D02*
Y62189D01*
X270945Y58239D02*
X272045D01*
X270945D02*
Y62189D01*
X272045D01*
X270077Y58239D02*
Y62189D01*
X268977Y58239D02*
X270077D01*
X268977D02*
Y62189D01*
X270077D01*
X268108Y58239D02*
Y62189D01*
X267008Y58239D02*
X268108D01*
X267008D02*
Y62189D01*
X268108D01*
X266140Y58239D02*
Y62189D01*
X265040Y58239D02*
X266140D01*
X265040D02*
Y62189D01*
X266140D01*
X264171Y58239D02*
Y62189D01*
X263071Y58239D02*
X264171D01*
X263071D02*
Y62189D01*
X264171D01*
X262203Y58239D02*
Y62189D01*
X261103Y58239D02*
X262203D01*
X261103D02*
Y62189D01*
X262203D01*
X260234Y58239D02*
Y62189D01*
X259134Y58239D02*
X260234D01*
X259134D02*
Y62189D01*
X260234D01*
X258266Y58239D02*
Y62189D01*
X257166Y58239D02*
X258266D01*
X257166D02*
Y62189D01*
X258266D01*
X256297Y58239D02*
Y62189D01*
X255197Y58239D02*
X256297D01*
X255197D02*
Y62189D01*
X256297D01*
X254329Y58239D02*
Y62189D01*
X253229Y58239D02*
X254329D01*
X253229D02*
Y62189D01*
X254329D01*
X252360Y58239D02*
Y62189D01*
X251260Y58239D02*
X252360D01*
X251260D02*
Y62189D01*
X252360D01*
X250392Y58239D02*
Y62189D01*
X249292Y58239D02*
X250392D01*
X249292D02*
Y62189D01*
X250392D01*
X248423Y58239D02*
Y62189D01*
X247323Y58239D02*
X248423D01*
X247323D02*
Y62189D01*
X248423D01*
X246455Y58239D02*
Y62189D01*
X245355Y58239D02*
X246455D01*
X245355D02*
Y62189D01*
X246455D01*
X244486Y58239D02*
Y62189D01*
X243386Y58239D02*
X244486D01*
X243386D02*
Y62189D01*
X244486D01*
X242518Y58239D02*
Y62189D01*
X241418Y58239D02*
X242518D01*
X241418D02*
Y62189D01*
X242518D01*
X240549Y58239D02*
Y62189D01*
X239449Y58239D02*
X240549D01*
X239449D02*
Y62189D01*
X240549D01*
X238581Y58239D02*
Y62189D01*
X237481Y58239D02*
X238581D01*
X237481D02*
Y62189D01*
X238581D01*
X236612Y58239D02*
Y62189D01*
X235512Y58239D02*
X236612D01*
X235512D02*
Y62189D01*
X236612D01*
X234644Y58239D02*
Y62189D01*
X233544Y58239D02*
X234644D01*
X233544D02*
Y62189D01*
X234644D01*
X232675Y58239D02*
Y62189D01*
X231575Y58239D02*
X232675D01*
X231575D02*
Y62189D01*
X232675D01*
X230707Y58239D02*
Y62189D01*
X229607Y58239D02*
X230707D01*
X229607D02*
Y62189D01*
X230707D01*
X228738Y58239D02*
Y62189D01*
X227638Y58239D02*
X228738D01*
X227638D02*
Y62189D01*
X228738D01*
X226770Y58239D02*
Y62189D01*
X225670Y58239D02*
X226770D01*
X225670D02*
Y62189D01*
X226770D01*
X224801Y58239D02*
Y62189D01*
X223701Y58239D02*
X224801D01*
X223701D02*
Y62189D01*
X224801D01*
X222833Y58239D02*
Y62189D01*
X221733Y58239D02*
X222833D01*
X221733D02*
Y62189D01*
X222833D01*
X220864Y58239D02*
Y62189D01*
X219764Y58239D02*
X220864D01*
X219764D02*
Y62189D01*
X220864D01*
X218896Y58239D02*
Y62189D01*
X217796Y58239D02*
X218896D01*
X217796D02*
Y62189D01*
X218896D01*
X209494Y66541D02*
X213444D01*
X209494D02*
Y67641D01*
X213444D01*
Y66541D02*
Y67641D01*
X209494Y68509D02*
X213444D01*
X209494D02*
Y69609D01*
X213444D01*
Y68509D02*
Y69609D01*
X209494Y70478D02*
X213444D01*
X209494D02*
Y71578D01*
X213444D01*
Y70478D02*
Y71578D01*
X209494Y72446D02*
X213444D01*
X209494D02*
Y73546D01*
X213444D01*
Y72446D02*
Y73546D01*
X209494Y74415D02*
X213444D01*
X209494D02*
Y75515D01*
X213444D01*
Y74415D02*
Y75515D01*
X209494Y76383D02*
X213444D01*
X209494D02*
Y77483D01*
X213444D01*
Y76383D02*
Y77483D01*
X209494Y78352D02*
X213444D01*
X209494D02*
Y79452D01*
X213444D01*
Y78352D02*
Y79452D01*
X209494Y80320D02*
X213444D01*
X209494D02*
Y81420D01*
X213444D01*
Y80320D02*
Y81420D01*
X209494Y82289D02*
X213444D01*
X209494D02*
Y83389D01*
X213444D01*
Y82289D02*
Y83389D01*
X209494Y84257D02*
X213444D01*
X209494D02*
Y85357D01*
X213444D01*
Y84257D02*
Y85357D01*
X209494Y86226D02*
X213444D01*
X209494D02*
Y87326D01*
X213444D01*
Y86226D02*
Y87326D01*
X209494Y88194D02*
X213444D01*
X209494D02*
Y89294D01*
X213444D01*
Y88194D02*
Y89294D01*
X209494Y90163D02*
X213444D01*
X209494D02*
Y91263D01*
X213444D01*
Y90163D02*
Y91263D01*
X209494Y92131D02*
X213444D01*
X209494D02*
Y93231D01*
X213444D01*
Y92131D02*
Y93231D01*
X209494Y94100D02*
X213444D01*
X209494D02*
Y95200D01*
X213444D01*
Y94100D02*
Y95200D01*
X209494Y96068D02*
X213444D01*
X209494D02*
Y97168D01*
X213444D01*
Y96068D02*
Y97168D01*
X209494Y98037D02*
X213444D01*
X209494D02*
Y99137D01*
X213444D01*
Y98037D02*
Y99137D01*
X209494Y100005D02*
X213444D01*
X209494D02*
Y101105D01*
X213444D01*
Y100005D02*
Y101105D01*
X209494Y101974D02*
X213444D01*
X209494D02*
Y103074D01*
X213444D01*
Y101974D02*
Y103074D01*
X209494Y103942D02*
X213444D01*
X209494D02*
Y105042D01*
X213444D01*
Y103942D02*
Y105042D01*
X209494Y105911D02*
X213444D01*
X209494D02*
Y107011D01*
X213444D01*
Y105911D02*
Y107011D01*
X209494Y107879D02*
X213444D01*
X209494D02*
Y108979D01*
X213444D01*
Y107879D02*
Y108979D01*
X209494Y109848D02*
X213444D01*
X209494D02*
Y110948D01*
X213444D01*
Y109848D02*
Y110948D01*
X209494Y111816D02*
X213444D01*
X209494D02*
Y112916D01*
X213444D01*
Y111816D02*
Y112916D01*
X209494Y113785D02*
X213444D01*
X209494D02*
Y114885D01*
X213444D01*
Y113785D02*
Y114885D01*
X209494Y115753D02*
X213444D01*
X209494D02*
Y116853D01*
X213444D01*
Y115753D02*
Y116853D01*
X209494Y117722D02*
X213444D01*
X209494D02*
Y118822D01*
X213444D01*
Y117722D02*
Y118822D01*
X209494Y119690D02*
X213444D01*
X209494D02*
Y120790D01*
X213444D01*
Y119690D02*
Y120790D01*
X209494Y121659D02*
X213444D01*
X209494D02*
Y122759D01*
X213444D01*
Y121659D02*
Y122759D01*
X209494Y123627D02*
X213444D01*
X209494D02*
Y124727D01*
X213444D01*
Y123627D02*
Y124727D01*
X209494Y125596D02*
X213444D01*
X209494D02*
Y126696D01*
X213444D01*
Y125596D02*
Y126696D01*
X209494Y127564D02*
X213444D01*
X209494D02*
Y128664D01*
X213444D01*
Y127564D02*
Y128664D01*
X209494Y129533D02*
X213444D01*
X209494D02*
Y130633D01*
X213444D01*
Y129533D02*
Y130633D01*
X209494Y131501D02*
X213444D01*
X209494D02*
Y132601D01*
X213444D01*
Y131501D02*
Y132601D01*
X209494Y133470D02*
X213444D01*
X209494D02*
Y134570D01*
X213444D01*
Y133470D02*
Y134570D01*
X209494Y135438D02*
X213444D01*
X209494D02*
Y136538D01*
X213444D01*
Y135438D02*
Y136538D01*
X217796Y140889D02*
Y144839D01*
X218896D01*
Y140889D02*
Y144839D01*
X217796Y140889D02*
X218896D01*
X219764D02*
Y144839D01*
X220864D01*
Y140889D02*
Y144839D01*
X219764Y140889D02*
X220864D01*
X221733D02*
Y144839D01*
X222833D01*
Y140889D02*
Y144839D01*
X221733Y140889D02*
X222833D01*
X223701D02*
Y144839D01*
X224801D01*
Y140889D02*
Y144839D01*
X223701Y140889D02*
X224801D01*
X225670D02*
Y144839D01*
X226770D01*
Y140889D02*
Y144839D01*
X225670Y140889D02*
X226770D01*
X227638D02*
Y144839D01*
X228738D01*
Y140889D02*
Y144839D01*
X227638Y140889D02*
X228738D01*
X229607D02*
Y144839D01*
X230707D01*
Y140889D02*
Y144839D01*
X229607Y140889D02*
X230707D01*
X231575D02*
Y144839D01*
X232675D01*
Y140889D02*
Y144839D01*
X231575Y140889D02*
X232675D01*
X233544D02*
Y144839D01*
X234644D01*
Y140889D02*
Y144839D01*
X233544Y140889D02*
X234644D01*
X235512D02*
Y144839D01*
X236612D01*
Y140889D02*
Y144839D01*
X235512Y140889D02*
X236612D01*
X237481D02*
Y144839D01*
X238581D01*
Y140889D02*
Y144839D01*
X237481Y140889D02*
X238581D01*
X239449D02*
Y144839D01*
X240549D01*
Y140889D02*
Y144839D01*
X239449Y140889D02*
X240549D01*
X241418D02*
Y144839D01*
X242518D01*
Y140889D02*
Y144839D01*
X241418Y140889D02*
X242518D01*
X243386D02*
Y144839D01*
X244486D01*
Y140889D02*
Y144839D01*
X243386Y140889D02*
X244486D01*
X245355D02*
Y144839D01*
X246455D01*
Y140889D02*
Y144839D01*
X245355Y140889D02*
X246455D01*
X247323D02*
Y144839D01*
X248423D01*
Y140889D02*
Y144839D01*
X247323Y140889D02*
X248423D01*
X249292D02*
Y144839D01*
X250392D01*
Y140889D02*
Y144839D01*
X249292Y140889D02*
X250392D01*
X251260D02*
Y144839D01*
X252360D01*
Y140889D02*
Y144839D01*
X251260Y140889D02*
X252360D01*
X253229D02*
Y144839D01*
X254329D01*
Y140889D02*
Y144839D01*
X253229Y140889D02*
X254329D01*
X255197D02*
Y144839D01*
X256297D01*
Y140889D02*
Y144839D01*
X255197Y140889D02*
X256297D01*
X257166D02*
Y144839D01*
X258266D01*
Y140889D02*
Y144839D01*
X257166Y140889D02*
X258266D01*
X259134D02*
Y144839D01*
X260234D01*
Y140889D02*
Y144839D01*
X259134Y140889D02*
X260234D01*
X261103D02*
Y144839D01*
X262203D01*
Y140889D02*
Y144839D01*
X261103Y140889D02*
X262203D01*
X263071D02*
Y144839D01*
X264171D01*
Y140889D02*
Y144839D01*
X263071Y140889D02*
X264171D01*
X265040D02*
Y144839D01*
X266140D01*
Y140889D02*
Y144839D01*
X265040Y140889D02*
X266140D01*
X267008D02*
Y144839D01*
X268108D01*
Y140889D02*
Y144839D01*
X267008Y140889D02*
X268108D01*
X268977D02*
Y144839D01*
X270077D01*
Y140889D02*
Y144839D01*
X268977Y140889D02*
X270077D01*
X270945D02*
Y144839D01*
X272045D01*
Y140889D02*
Y144839D01*
X270945Y140889D02*
X272045D01*
X272914D02*
Y144839D01*
X274014D01*
Y140889D02*
Y144839D01*
X272914Y140889D02*
X274014D01*
X274882D02*
Y144839D01*
X275982D01*
Y140889D02*
Y144839D01*
X274882Y140889D02*
X275982D01*
X276851D02*
Y144839D01*
X277951D01*
Y140889D02*
Y144839D01*
X276851Y140889D02*
X277951D01*
X278819D02*
Y144839D01*
X279919D01*
Y140889D02*
Y144839D01*
X278819Y140889D02*
X279919D01*
X280788D02*
Y144839D01*
X281888D01*
Y140889D02*
Y144839D01*
X280788Y140889D02*
X281888D01*
X282756D02*
Y144839D01*
X283856D01*
Y140889D02*
Y144839D01*
X282756Y140889D02*
X283856D01*
X284725D02*
Y144839D01*
X285825D01*
Y140889D02*
Y144839D01*
X284725Y140889D02*
X285825D01*
X286693D02*
Y144839D01*
X287793D01*
Y140889D02*
Y144839D01*
X286693Y140889D02*
X287793D01*
X499529Y96881D02*
Y108692D01*
X487717Y96881D02*
X499529D01*
X487717D02*
Y108692D01*
X499529D01*
X189421Y39861D02*
X194421Y44861D01*
X184973Y39861D02*
X186154D01*
X184973D02*
X186154D01*
X186941D02*
X188122D01*
X186941D02*
X188122D01*
X188910D02*
X190091D01*
X188910D02*
X190091D01*
X190878D02*
X192059D01*
X190878D02*
X192059D01*
X194421Y42224D02*
Y43405D01*
Y42224D02*
Y43405D01*
Y44192D02*
Y45373D01*
Y44192D02*
Y45373D01*
Y46161D02*
Y47342D01*
Y46161D02*
Y47342D01*
Y48129D02*
Y49310D01*
Y48129D02*
Y49310D01*
X190878Y51672D02*
X192059D01*
X190878D02*
X192059D01*
X188910D02*
X190091D01*
X188910D02*
X190091D01*
X186941D02*
X188122D01*
X186941D02*
X188122D01*
X184973D02*
X186154D01*
X184973D02*
X186154D01*
X182610Y48129D02*
Y49310D01*
Y48129D02*
Y49310D01*
Y46161D02*
Y47342D01*
Y46161D02*
Y47342D01*
Y44192D02*
Y45373D01*
Y44192D02*
Y45373D01*
Y42224D02*
Y43405D01*
Y42224D02*
Y43405D01*
Y51672D02*
X194421D01*
X182610Y39861D02*
Y51672D01*
Y39861D02*
X194421D01*
Y51672D01*
M02*
