G04*
G04 #@! TF.GenerationSoftware,Altium Limited,Altium Designer,20.2.6 (244)*
G04*
G04 Layer_Color=32768*
%FSLAX25Y25*%
%MOIN*%
G70*
G04*
G04 #@! TF.SameCoordinates,2322B5F6-C0F9-4DFB-907C-46C9DA4D7F26*
G04*
G04*
G04 #@! TF.FilePolarity,Positive*
G04*
G01*
G75*
%ADD13C,0.00600*%
%ADD17C,0.00394*%
%ADD213C,0.00197*%
G36*
X154257Y34502D02*
Y27202D01*
X153166D01*
Y24002D01*
X144648D01*
Y27202D01*
X143557D01*
Y34502D01*
X144648D01*
Y37702D01*
X153166D01*
Y34502D01*
X154257D01*
D02*
G37*
G36*
X216896Y61189D02*
X212444D01*
Y65640D01*
X207094D01*
Y137438D01*
X212444D01*
Y141889D01*
X216896D01*
Y147239D01*
X288693D01*
Y141889D01*
X293144D01*
Y137438D01*
X298494D01*
Y65640D01*
X293144D01*
Y61189D01*
X288693D01*
Y55839D01*
X216896D01*
Y61189D01*
D02*
G37*
G36*
X500528Y108223D02*
X501728D01*
Y97349D01*
X500528D01*
Y95881D01*
X486718D01*
Y97349D01*
X485518D01*
Y108223D01*
X486718D01*
Y109692D01*
X500528D01*
Y108223D01*
D02*
G37*
D13*
X154257Y27202D02*
Y34502D01*
X153166D02*
X154257D01*
X153166D02*
Y37702D01*
X144648D02*
X153166D01*
X144648Y34502D02*
Y37702D01*
X143557Y34502D02*
X144648D01*
X143557Y27202D02*
Y34502D01*
Y27202D02*
X144648D01*
Y24002D02*
Y27202D01*
Y24002D02*
X153166D01*
Y27202D01*
X154257D01*
X288693Y61189D02*
X293144D01*
X288693Y55839D02*
Y61189D01*
X216896Y55839D02*
X288693D01*
X216896D02*
Y61189D01*
X212444D02*
X216896D01*
X288693Y141889D02*
X293144D01*
X288693D02*
Y147239D01*
X216896D02*
X288693D01*
X216896Y141889D02*
Y147239D01*
X212444Y141889D02*
X216896D01*
X293144Y137438D02*
Y141889D01*
Y137438D02*
X298495D01*
Y65641D02*
Y137438D01*
X293144Y65641D02*
X298495D01*
X293144Y61189D02*
Y65641D01*
X212444Y137438D02*
Y141889D01*
X207095Y137438D02*
X212444D01*
X207095Y65641D02*
Y137438D01*
Y65641D02*
X212444D01*
Y61189D02*
Y65641D01*
X486718Y109692D02*
X500528D01*
X486718Y108223D02*
Y109692D01*
Y95881D02*
Y97349D01*
Y95881D02*
X500528D01*
Y97349D01*
Y108223D02*
Y109692D01*
Y108223D02*
X501728D01*
X485518D02*
X486718D01*
X485518Y97349D02*
Y108223D01*
Y97349D02*
X486718D01*
X500528D02*
X501728D01*
Y108223D01*
D17*
X383280Y155868D02*
Y160199D01*
X373831Y155868D02*
Y160199D01*
Y155868D02*
X383280D01*
X373831Y160199D02*
X383280D01*
X376686Y158034D02*
X380426D01*
X378556Y156164D02*
Y159904D01*
X373832Y150858D02*
Y155189D01*
X383280Y150858D02*
Y155189D01*
X373832D02*
X383280D01*
X373832Y150858D02*
X383280D01*
X376686Y153024D02*
X380426D01*
X378556Y151154D02*
Y154894D01*
X378162Y162799D02*
Y166343D01*
X376391Y164571D02*
X379934D01*
X123776Y229877D02*
Y233814D01*
X121807Y231846D02*
X125744D01*
X404674Y178913D02*
Y227771D01*
X242705D02*
X404674D01*
X242705Y178913D02*
Y227771D01*
Y178913D02*
X404674D01*
X142169Y74838D02*
Y78578D01*
X140299Y76708D02*
X144040D01*
X652925Y165653D02*
Y170771D01*
X640917Y165653D02*
Y170771D01*
Y165653D02*
X652925D01*
X640917Y170771D02*
X652925D01*
X645150Y168211D02*
X648693D01*
X646921Y166440D02*
Y169983D01*
X642197Y158612D02*
Y162943D01*
X651646Y158612D02*
Y162943D01*
X642197D02*
X651646D01*
X642197Y158612D02*
X651646D01*
X645051Y160777D02*
X648791D01*
X646921Y158907D02*
Y162647D01*
X196419Y142658D02*
Y147776D01*
X208426Y142658D02*
Y147776D01*
X196419D02*
X208426D01*
X196419Y142658D02*
X208426D01*
X200651Y145217D02*
X204194D01*
X202423Y143445D02*
Y146989D01*
X193979Y143225D02*
Y147556D01*
X184530Y143225D02*
Y147556D01*
Y143225D02*
X193979D01*
X184530Y147556D02*
X193979D01*
X187385Y145390D02*
X191125D01*
X189255Y143520D02*
Y147260D01*
X193213Y183043D02*
Y186980D01*
X191245Y185011D02*
X195182D01*
X185339Y188751D02*
X201087D01*
X185339Y181271D02*
X201087D01*
X185339D02*
Y188751D01*
X201087Y181271D02*
Y188751D01*
X210544Y200664D02*
Y204601D01*
X208576Y202633D02*
X212513D01*
X202671Y206373D02*
X218419D01*
X202671Y198892D02*
X218419D01*
X202671D02*
Y206373D01*
X218419Y198892D02*
Y206373D01*
X197591Y96634D02*
Y100374D01*
X195721Y98504D02*
X199461D01*
X192867Y96339D02*
X202315D01*
X192867Y100670D02*
X202315D01*
Y96339D02*
Y100670D01*
X192867Y96339D02*
Y100670D01*
X197591Y101631D02*
Y105371D01*
X195721Y103501D02*
X199461D01*
X192867Y101336D02*
X202315D01*
X192867Y105666D02*
X202315D01*
Y101336D02*
Y105666D01*
X192867Y101336D02*
Y105666D01*
X188162Y89403D02*
X191902D01*
X190032Y87533D02*
Y91273D01*
X187866Y84678D02*
Y94127D01*
X192197Y84678D02*
Y94127D01*
X187866Y84678D02*
X192197D01*
X187866Y94127D02*
X192197D01*
X198772Y84570D02*
X203103D01*
X198772Y94018D02*
X203103D01*
X198772Y84570D02*
Y94018D01*
X203103Y84570D02*
Y94018D01*
X200937Y87424D02*
Y91164D01*
X199067Y89294D02*
X202807D01*
X274512Y230431D02*
Y234368D01*
X272543Y232399D02*
X276480D01*
X337654Y161396D02*
X341197D01*
X339426Y159624D02*
Y163167D01*
X357679Y152704D02*
Y156248D01*
X355908Y154476D02*
X359451D01*
X630631Y170869D02*
X634174D01*
X632402Y169097D02*
Y172641D01*
X510047Y93821D02*
Y97561D01*
X508177Y95691D02*
X511917D01*
X505323Y97856D02*
X514772D01*
X505323Y93526D02*
X514772D01*
X505323D02*
Y97856D01*
X514772Y93526D02*
Y97856D01*
X57433Y128099D02*
X61370D01*
X59401Y126131D02*
Y130068D01*
X80858Y105659D02*
Y164714D01*
X37945Y105659D02*
Y164714D01*
X80858D01*
X37945Y105659D02*
X80858D01*
X628896Y178691D02*
Y227549D01*
X466927D02*
X628896D01*
X466927Y178691D02*
Y227549D01*
Y178691D02*
X628896D01*
X514772Y98866D02*
Y103197D01*
X505323Y98866D02*
Y103197D01*
Y98866D02*
X514772D01*
X505323Y103197D02*
X514772D01*
X508177Y101031D02*
X511917D01*
X510047Y99161D02*
Y102901D01*
X505323Y104206D02*
Y108537D01*
X514772Y104206D02*
Y108537D01*
X505323D02*
X514772D01*
X505323Y104206D02*
X514772D01*
X508177Y106372D02*
X511917D01*
X510047Y104502D02*
Y108242D01*
X514841Y109547D02*
Y113877D01*
X505392Y109547D02*
Y113877D01*
Y109547D02*
X514841D01*
X505392Y113877D02*
X514841D01*
X508246Y111712D02*
X511986D01*
X510116Y109842D02*
Y113582D01*
X485421Y80514D02*
Y94294D01*
X503138Y80514D02*
Y94294D01*
X485421D02*
X503138D01*
X485421Y80514D02*
X503138D01*
X492311Y87404D02*
X496248D01*
X494279Y85436D02*
Y89373D01*
X138233Y3554D02*
X142169D01*
X140201Y1586D02*
Y5523D01*
X60114Y55885D02*
X67595D01*
X60114Y71633D02*
X67595D01*
X60114Y55885D02*
Y71633D01*
X67595Y55885D02*
Y71633D01*
X63854Y61790D02*
Y65727D01*
X61886Y63759D02*
X65823D01*
X29193Y63210D02*
X33130D01*
X31162Y61242D02*
Y65179D01*
X34902Y55336D02*
Y71084D01*
X27422Y55336D02*
Y71084D01*
X34902D01*
X27422Y55336D02*
X34902D01*
X474841Y98652D02*
Y102983D01*
X484290Y98652D02*
Y102983D01*
X474841D02*
X484290D01*
X474841Y98652D02*
X484290D01*
X477695Y100818D02*
X481435D01*
X479565Y98948D02*
Y102688D01*
X484290Y104843D02*
Y109174D01*
X474841Y104843D02*
Y109174D01*
Y104843D02*
X484290D01*
X474841Y109174D02*
X484290D01*
X477695Y107009D02*
X481435D01*
X479565Y105138D02*
Y108879D01*
X414190Y17913D02*
Y21850D01*
X412222Y19881D02*
X416159D01*
X422883Y120416D02*
Y124353D01*
X420914Y122384D02*
X424851D01*
X432617Y122555D02*
X436553D01*
X434585Y120586D02*
Y124523D01*
X444319Y122492D02*
X448256D01*
X446287Y120524D02*
Y124461D01*
X456021Y122492D02*
X459958D01*
X457990Y120523D02*
Y124460D01*
X467723Y122492D02*
X471660D01*
X469692Y120524D02*
Y124461D01*
X65897Y39611D02*
Y43548D01*
X63929Y41580D02*
X67866D01*
X70530Y55885D02*
X78010D01*
X70530Y71633D02*
X78010D01*
X70530Y55885D02*
Y71633D01*
X78010Y55885D02*
Y71633D01*
X74270Y61790D02*
Y65727D01*
X72302Y63759D02*
X76239D01*
X33775Y46871D02*
Y54352D01*
X49523Y46871D02*
Y54352D01*
X33775D02*
X49523D01*
X33775Y46871D02*
X49523D01*
X39680Y50612D02*
X43617D01*
X41649Y48643D02*
Y52580D01*
X29979Y12556D02*
X37460D01*
X29979Y-3192D02*
X37460D01*
Y12556D01*
X29979Y-3192D02*
Y12556D01*
X33719Y2714D02*
Y6651D01*
X31751Y4682D02*
X35688D01*
X203103Y58612D02*
Y62943D01*
X193654Y58612D02*
Y62943D01*
Y58612D02*
X203103D01*
X193654Y62943D02*
X203103D01*
X196508Y60777D02*
X200248D01*
X198378Y58907D02*
Y62647D01*
X88877Y63759D02*
X92814D01*
X90846Y61790D02*
Y65727D01*
X102066Y49093D02*
Y78424D01*
X79625Y49093D02*
Y78424D01*
X102066D01*
X79625Y49093D02*
X102066D01*
X344544Y152728D02*
Y157059D01*
X335095Y152728D02*
Y157059D01*
Y152728D02*
X344544D01*
X335095Y157059D02*
X344544D01*
X337950Y154894D02*
X341690D01*
X339820Y153024D02*
Y156764D01*
X357679Y157801D02*
Y161541D01*
X355809Y159671D02*
X359549D01*
X352955Y161836D02*
X362404D01*
X352955Y157505D02*
X362404D01*
X352955D02*
Y161836D01*
X362404Y157505D02*
Y161836D01*
X447437Y72042D02*
Y75979D01*
X445469Y74011D02*
X449406D01*
X427303Y75791D02*
Y79531D01*
X425433Y77661D02*
X429173D01*
X422579Y79826D02*
X432027D01*
X422579Y75496D02*
X432027D01*
X422579D02*
Y79826D01*
X432027Y75496D02*
Y79826D01*
X427303Y69188D02*
Y72928D01*
X425433Y71058D02*
X429173D01*
X422579Y73224D02*
X432027D01*
X422579Y68893D02*
X432027D01*
X422579D02*
Y73224D01*
X432027Y68893D02*
Y73224D01*
X427303Y62995D02*
Y66735D01*
X425433Y64865D02*
X429173D01*
X422579Y67030D02*
X432027D01*
X422579Y62700D02*
X432027D01*
X422579D02*
Y67030D01*
X432027Y62700D02*
Y67030D01*
X389508Y11347D02*
Y15087D01*
X387638Y13217D02*
X391379D01*
X384784Y15383D02*
X394233D01*
X384784Y11052D02*
X394233D01*
X384784D02*
Y15383D01*
X394233Y11052D02*
Y15383D01*
X389508Y18283D02*
Y22023D01*
X387638Y20153D02*
X391379D01*
X384784Y22318D02*
X394233D01*
X384784Y17987D02*
X394233D01*
X384784D02*
Y22318D01*
X394233Y17987D02*
Y22318D01*
X330285Y47381D02*
Y51121D01*
X328415Y49251D02*
X332155D01*
X325560Y47086D02*
X335009D01*
X325560Y51417D02*
X335009D01*
Y47086D02*
Y51417D01*
X325560Y47086D02*
Y51417D01*
X262047Y-887D02*
X267953D01*
X262047Y-11910D02*
X267953D01*
Y-887D01*
X262047Y-11910D02*
Y-887D01*
X265000Y-8367D02*
Y-4430D01*
X263031Y-6398D02*
X266969D01*
X270485Y-794D02*
X276391D01*
X270485Y-11818D02*
X276391D01*
Y-794D01*
X270485Y-11818D02*
Y-794D01*
X273438Y-8275D02*
Y-4338D01*
X271469Y-6306D02*
X275406D01*
X278923Y-887D02*
X284828D01*
X278923Y-11910D02*
X284828D01*
Y-887D01*
X278923Y-11910D02*
Y-887D01*
X281875Y-8367D02*
Y-4430D01*
X279907Y-6398D02*
X283844D01*
X297952Y-7179D02*
X301889D01*
X299921Y-9148D02*
Y-5211D01*
X315337Y-11910D02*
X321243D01*
X315337Y-886D02*
X321243D01*
X315337Y-11910D02*
Y-886D01*
X321243Y-11910D02*
Y-886D01*
X318290Y-8367D02*
Y-4430D01*
X316322Y-6398D02*
X320259D01*
X323098Y-11880D02*
X329004D01*
X323098Y-856D02*
X329004D01*
X323098Y-11880D02*
Y-856D01*
X329004Y-11880D02*
Y-856D01*
X326051Y-8336D02*
Y-4399D01*
X324083Y-6368D02*
X328020D01*
X331066Y-11910D02*
X338547D01*
X331066Y3838D02*
X338547D01*
X331066Y-11910D02*
Y3838D01*
X338547Y-11910D02*
Y3838D01*
X334807Y-6005D02*
Y-2068D01*
X332838Y-4036D02*
X336775D01*
X236050Y42238D02*
X240381D01*
X236050Y51687D02*
X240381D01*
X236050Y42238D02*
Y51687D01*
X240381Y42238D02*
Y51687D01*
X238216Y45093D02*
Y48833D01*
X236346Y46963D02*
X240086D01*
X216365Y42238D02*
X220696D01*
X216365Y51687D02*
X220696D01*
X216365Y42238D02*
Y51687D01*
X220696Y42238D02*
Y51687D01*
X218531Y45093D02*
Y48833D01*
X216661Y46963D02*
X220401D01*
X186696Y106658D02*
Y114138D01*
X202444Y106658D02*
Y114138D01*
X186696D02*
X202444D01*
X186696Y106658D02*
X202444D01*
X192601Y110398D02*
X196538D01*
X194570Y108429D02*
Y112366D01*
X187335Y75327D02*
Y82807D01*
X203083Y75327D02*
Y82807D01*
X187335D02*
X203083D01*
X187335Y75327D02*
X203083D01*
X193240Y79067D02*
X197177D01*
X195209Y77098D02*
Y81035D01*
X195229Y67256D02*
Y71193D01*
X193260Y69224D02*
X197197D01*
X187355Y65484D02*
X203103D01*
X187355Y72965D02*
X203103D01*
Y65484D02*
Y72965D01*
X187355Y65484D02*
Y72965D01*
X76695Y87708D02*
X80632D01*
X78663Y85739D02*
Y89676D01*
X76232Y97963D02*
X80169D01*
X78201Y95994D02*
Y99931D01*
X45273Y95994D02*
Y99931D01*
X43304Y97963D02*
X47241D01*
X76640Y20100D02*
Y24037D01*
X74672Y22069D02*
X78609D01*
X68766Y25809D02*
X84514D01*
X68766Y18329D02*
X84514D01*
X68766D02*
Y25809D01*
X84514Y18329D02*
Y25809D01*
X99192Y20100D02*
Y24037D01*
X97224Y22069D02*
X101161D01*
X91318Y25809D02*
X107066D01*
X91318Y18329D02*
X107066D01*
X91318D02*
Y25809D01*
X107066Y18329D02*
Y25809D01*
X54032Y20315D02*
Y24252D01*
X52064Y22284D02*
X56001D01*
X46158Y26024D02*
X61906D01*
X46158Y18544D02*
X61906D01*
X46158D02*
Y26024D01*
X61906Y18544D02*
Y26024D01*
X32612Y20316D02*
Y24253D01*
X30643Y22284D02*
X34580D01*
X24737Y26024D02*
X40486D01*
X24737Y18544D02*
X40486D01*
X24737D02*
Y26024D01*
X40486Y18544D02*
Y26024D01*
X74726Y4513D02*
X78663D01*
X76695Y2544D02*
Y6481D01*
X72954Y-3361D02*
Y12387D01*
X80435Y-3361D02*
Y12387D01*
X72954Y-3361D02*
X80435D01*
X72954Y12387D02*
X80435D01*
X53534Y4513D02*
X57471D01*
X55502Y2544D02*
Y6481D01*
X51762Y-3361D02*
Y12387D01*
X59243Y-3361D02*
Y12387D01*
X51762Y-3361D02*
X59243D01*
X51762Y12387D02*
X59243D01*
X97224Y4513D02*
X101161D01*
X99192Y2544D02*
Y6481D01*
X95452Y-3361D02*
Y12387D01*
X102932Y-3361D02*
Y12387D01*
X95452Y-3361D02*
X102932D01*
X95452Y12387D02*
X102932D01*
X467553Y69188D02*
Y72928D01*
X465683Y71058D02*
X469423D01*
X462828Y73224D02*
X472277D01*
X462828Y68893D02*
X472277D01*
X462828D02*
Y73224D01*
X472277Y68893D02*
Y73224D01*
X281621Y46751D02*
X285361D01*
X283491Y44881D02*
Y48621D01*
X285657Y42027D02*
Y51476D01*
X281326Y42027D02*
Y51476D01*
X285657D01*
X281326Y42027D02*
X285657D01*
X244220Y46963D02*
X247960D01*
X246090Y45093D02*
Y48833D01*
X248255Y42238D02*
Y51687D01*
X243924Y42238D02*
Y51687D01*
X248255D01*
X243924Y42238D02*
X248255D01*
X234469Y156136D02*
X238209D01*
X236339Y154266D02*
Y158006D01*
X234174Y151412D02*
Y160861D01*
X238504Y151412D02*
Y160861D01*
X234174Y151412D02*
X238504D01*
X234174Y160861D02*
X238504D01*
X254062Y46963D02*
X257802D01*
X255932Y45093D02*
Y48833D01*
X258098Y42238D02*
Y51687D01*
X253767Y42238D02*
Y51687D01*
X258098D01*
X253767Y42238D02*
X258098D01*
X307435Y107043D02*
Y110783D01*
X305565Y108913D02*
X309306D01*
X302711Y111079D02*
X312160D01*
X302711Y106748D02*
X312160D01*
X302711D02*
Y111079D01*
X312160Y106748D02*
Y111079D01*
X193654Y124146D02*
Y128476D01*
X203103Y124146D02*
Y128476D01*
X193654D02*
X203103D01*
X193654Y124146D02*
X203103D01*
X196508Y126311D02*
X200248D01*
X198378Y124441D02*
Y128181D01*
X307435Y134583D02*
Y138323D01*
X305565Y136453D02*
X309306D01*
X302711Y138618D02*
X312160D01*
X302711Y134287D02*
X312160D01*
X302711D02*
Y138618D01*
X312160Y134287D02*
Y138618D01*
X259936Y156136D02*
X263676D01*
X261806Y154266D02*
Y158006D01*
X259640Y151412D02*
Y160861D01*
X263971Y151412D02*
Y160861D01*
X259640Y151412D02*
X263971D01*
X259640Y160861D02*
X263971D01*
X350224Y115639D02*
Y119182D01*
X348452Y117411D02*
X351995D01*
X350224Y109118D02*
Y112661D01*
X348452Y110889D02*
X351995D01*
X-3592Y55225D02*
X3888D01*
X-3592Y70973D02*
X3888D01*
X-3592Y55225D02*
Y70973D01*
X3888Y55225D02*
Y70973D01*
X148Y61131D02*
Y65068D01*
X-1821Y63099D02*
X2116D01*
X2522Y46871D02*
Y54352D01*
X18270Y46871D02*
Y54352D01*
X2522D02*
X18270D01*
X2522Y46871D02*
X18270D01*
X8427Y50612D02*
X12365D01*
X10396Y48643D02*
Y52580D01*
X94371Y124642D02*
X98308D01*
X96340Y122673D02*
Y126610D01*
D213*
X349925Y52007D02*
X374650D01*
Y46456D02*
Y52007D01*
Y46456D02*
X377248D01*
Y43857D02*
Y46456D01*
Y43857D02*
X382799D01*
Y19133D02*
Y43857D01*
X377248Y19133D02*
X382799D01*
X377248Y16535D02*
Y19133D01*
X374650Y16535D02*
X377248D01*
X374650Y10983D02*
Y16535D01*
X349925Y10983D02*
X374650D01*
X349925D02*
Y16535D01*
X347327D02*
X349925D01*
X347327D02*
Y19133D01*
X341776D02*
X347327D01*
X341776D02*
Y43857D01*
X347327D01*
Y46456D01*
X349925D01*
Y52007D01*
X371469Y160437D02*
X384855D01*
X371469Y168705D02*
X384855D01*
Y160437D02*
Y168705D01*
X371469Y160437D02*
Y168705D01*
X117634Y225743D02*
X129917D01*
X117634Y237948D02*
X129917D01*
X117634Y225743D02*
Y237948D01*
X129917Y225743D02*
Y237948D01*
X139217Y71590D02*
X145122D01*
X139217Y81826D02*
X145122D01*
X139217Y71590D02*
Y81826D01*
X145122Y71590D02*
Y81826D01*
X233382Y25432D02*
X258185D01*
X233382Y12834D02*
Y25432D01*
Y12834D02*
X258185D01*
Y25432D01*
X268409Y226258D02*
X280614D01*
X268409Y238541D02*
X280614D01*
Y226258D02*
Y238541D01*
X268409Y226258D02*
Y238541D01*
X346119Y157262D02*
Y165530D01*
X332733Y157262D02*
Y165530D01*
Y157262D02*
X346119D01*
X332733Y165530D02*
X346119D01*
X352364Y151523D02*
X362994D01*
X352364Y157429D02*
X362994D01*
Y151523D02*
Y157429D01*
X352364Y151523D02*
Y157429D01*
X324550Y69302D02*
X335771D01*
X324550Y75129D02*
X335771D01*
X324550Y69302D02*
Y75129D01*
X335771Y69302D02*
Y75129D01*
X628268Y164176D02*
Y177562D01*
X636536Y164176D02*
Y177562D01*
X628268Y164176D02*
X636536D01*
X628268Y177562D02*
X636536D01*
X324216Y19861D02*
X335586D01*
X324216Y25688D02*
X335586D01*
X324216Y19861D02*
Y25688D01*
X335586Y19861D02*
Y25688D01*
X127307Y-10343D02*
X153095D01*
Y17452D01*
X127307D02*
X153095D01*
X127307Y-10343D02*
Y17452D01*
X406710Y13779D02*
X421671D01*
X406710D02*
Y25984D01*
X421671D01*
Y13779D02*
Y25984D01*
X410568Y5768D02*
X422261D01*
X410568Y11594D02*
X422261D01*
X410568Y5768D02*
Y11594D01*
X422261Y5768D02*
Y11594D01*
X307444Y38203D02*
X319136D01*
X307444Y44030D02*
X319136D01*
X307444Y38203D02*
Y44030D01*
X319136Y38203D02*
Y44030D01*
X307896Y28582D02*
Y34409D01*
X319116Y28582D02*
Y34409D01*
X307896Y28582D02*
X319116D01*
X307896Y34409D02*
X319116D01*
X417568Y115101D02*
X428198D01*
X417568Y129668D02*
X428198D01*
X417568Y115101D02*
Y129668D01*
X428198Y115101D02*
Y129668D01*
X439900Y115271D02*
Y129838D01*
X429270Y115271D02*
Y129838D01*
X439900D01*
X429270Y115271D02*
X439900D01*
X451602Y115209D02*
Y129776D01*
X440972Y115209D02*
Y129776D01*
X451602D01*
X440972Y115209D02*
X451602D01*
X463305D02*
Y129775D01*
X452674Y115209D02*
Y129775D01*
X463305D01*
X452674Y115209D02*
X463305D01*
X475007D02*
Y129776D01*
X464377Y115209D02*
Y129776D01*
X475007D01*
X464377Y115209D02*
X475007D01*
X58220Y37643D02*
X73575D01*
X58220Y45517D02*
X73575D01*
Y37643D02*
Y45517D01*
X58220Y37643D02*
Y45517D01*
X626361Y171893D02*
X629510D01*
X626361Y165594D02*
X629510D01*
Y171893D01*
X626361Y165594D02*
Y171893D01*
X627935Y167562D02*
Y169924D01*
X626754Y168743D02*
X629117D01*
X433363Y84247D02*
X461512D01*
X433363Y63775D02*
X461512D01*
X433363D02*
Y84247D01*
X461512Y63775D02*
Y84247D01*
X395418Y38203D02*
Y44030D01*
X384197Y38203D02*
Y44030D01*
X395418D01*
X384197Y38203D02*
X395418D01*
X395568Y24332D02*
Y30159D01*
X384197Y24332D02*
Y30159D01*
X395568D01*
X384197Y24332D02*
X395568D01*
X384186Y3526D02*
X396115D01*
X384186Y9550D02*
X396115D01*
X384186Y3526D02*
Y9550D01*
X396115Y3526D02*
Y9550D01*
X368890Y8653D02*
X374717D01*
X368890Y-3040D02*
X374717D01*
X368890D02*
Y8653D01*
X374717Y-3040D02*
Y8653D01*
X335771Y76417D02*
Y82244D01*
X324550Y76417D02*
Y82244D01*
X335771D01*
X324550Y76417D02*
X335771D01*
X335767Y55073D02*
Y60900D01*
X324397Y55073D02*
Y60900D01*
X335767D01*
X324397Y55073D02*
X335767D01*
Y62188D02*
Y68014D01*
X324397Y62188D02*
Y68014D01*
X335767D01*
X324397Y62188D02*
X335767D01*
X335596Y28739D02*
Y34566D01*
X324226Y28739D02*
Y34566D01*
X335596D01*
X324226Y28739D02*
X335596D01*
X323678Y37617D02*
Y43641D01*
X335608Y37617D02*
Y43641D01*
X323678Y37617D02*
X335608D01*
X323678Y43641D02*
X335608D01*
X335590Y10984D02*
Y16810D01*
X324055Y10984D02*
Y16810D01*
X335590D01*
X324055Y10984D02*
X335590D01*
X314094Y-15053D02*
Y695D01*
X285747Y-15053D02*
Y695D01*
Y-15053D02*
X314094D01*
X285747Y695D02*
X314094D01*
X87128Y82590D02*
Y92826D01*
X70199Y82590D02*
Y92826D01*
Y82590D02*
X87128D01*
X70199Y92826D02*
X87128D01*
X84894Y94026D02*
Y101900D01*
X71508Y94026D02*
Y101900D01*
Y94026D02*
X84894D01*
X71508Y101900D02*
X84894D01*
X38580Y101900D02*
X51966D01*
X38580Y94025D02*
X51966D01*
X38580D02*
Y101900D01*
X51966Y94025D02*
Y101900D01*
X384194Y36898D02*
X395729D01*
X384194Y31268D02*
X395729D01*
Y36898D01*
X384194Y31268D02*
Y36898D01*
X351678Y52927D02*
Y64620D01*
X357505Y52927D02*
Y64620D01*
X351678D02*
X357505D01*
X351678Y52927D02*
X357505D01*
X307916Y19783D02*
X319137D01*
X307916Y25610D02*
X319137D01*
X307916Y19783D02*
Y25610D01*
X319137Y19783D02*
Y25610D01*
X364133Y53246D02*
Y64616D01*
X369960Y53246D02*
Y64616D01*
X364133D02*
X369960D01*
X364133Y53246D02*
X369960D01*
X377095Y53396D02*
Y64616D01*
X371268Y53396D02*
Y64616D01*
Y53396D02*
X377095D01*
X371268Y64616D02*
X377095D01*
X367340Y-3040D02*
Y8653D01*
X361513Y-3040D02*
Y8653D01*
Y-3040D02*
X367340D01*
X361513Y8653D02*
X367340D01*
X410568Y28895D02*
Y34722D01*
X422261Y28895D02*
Y34722D01*
X410568Y28895D02*
X422261D01*
X410568Y34722D02*
X422261D01*
X307927Y10984D02*
X319620D01*
X307927Y16810D02*
X319620D01*
X307927Y10984D02*
Y16810D01*
X319620Y10984D02*
Y16810D01*
X363648Y52927D02*
Y64620D01*
X357821Y52927D02*
Y64620D01*
Y52927D02*
X363648D01*
X357821Y64620D02*
X363648D01*
X307444Y51969D02*
X319136D01*
X307444Y46143D02*
X319136D01*
Y51969D01*
X307444Y46143D02*
Y51969D01*
X344909Y114458D02*
X355539D01*
X344909Y120363D02*
X355539D01*
Y114458D02*
Y120363D01*
X344909Y114458D02*
Y120363D01*
Y107937D02*
X355539D01*
X344909Y113842D02*
X355539D01*
Y107937D02*
Y113842D01*
X344909Y107937D02*
Y113842D01*
X110513Y106728D02*
Y142555D01*
X82166D02*
X110513D01*
X82166Y106728D02*
Y142555D01*
Y106728D02*
X110513D01*
X435159Y134620D02*
Y163951D01*
X456813D01*
Y134620D02*
Y163951D01*
X435159Y134620D02*
X456813D01*
M02*
