G04*
G04 #@! TF.GenerationSoftware,Altium Limited,Altium Designer,20.0.11 (256)*
G04*
G04 Layer_Physical_Order=2*
G04 Layer_Color=36540*
%FSLAX25Y25*%
%MOIN*%
G70*
G01*
G75*
%ADD17C,0.01000*%
%ADD33R,0.05906X0.05906*%
%ADD180C,0.06260*%
%ADD184C,0.10243*%
%ADD187C,0.01200*%
%ADD192R,0.06142X0.06142*%
%ADD193C,0.06142*%
%ADD195C,0.05906*%
%ADD196C,0.02000*%
%ADD197O,0.03543X0.06299*%
%ADD199C,0.01987*%
%ADD200C,0.01988*%
G36*
X642210Y288846D02*
X640664Y287899D01*
X638848Y286348D01*
X637298Y284533D01*
X636051Y282498D01*
X635137Y280292D01*
X634580Y277971D01*
X634392Y275590D01*
X634580Y273211D01*
X635137Y270889D01*
X636051Y268684D01*
X637298Y266648D01*
X638848Y264833D01*
X640664Y263282D01*
X642699Y262035D01*
X644905Y261121D01*
X647226Y260564D01*
X649606Y260377D01*
X651986Y260564D01*
X654308Y261121D01*
X656513Y262035D01*
X658549Y263282D01*
X660364Y264833D01*
X661914Y266648D01*
X662161Y267050D01*
X662642Y266915D01*
X662649Y8665D01*
X662168Y8529D01*
X661914Y8942D01*
X660364Y10758D01*
X658549Y12308D01*
X656513Y13556D01*
X654308Y14469D01*
X651986Y15026D01*
X649606Y15214D01*
X647226Y15026D01*
X644905Y14469D01*
X642699Y13556D01*
X640664Y12308D01*
X638848Y10758D01*
X637298Y8942D01*
X636051Y6907D01*
X635137Y4701D01*
X634580Y2380D01*
X634392Y0D01*
X634580Y-2380D01*
X635137Y-4701D01*
X636051Y-6907D01*
X637298Y-8942D01*
X638848Y-10758D01*
X640664Y-12308D01*
X642699Y-13556D01*
X643734Y-13984D01*
X643635Y-14484D01*
X289229D01*
X289088Y-14312D01*
X288964Y-13690D01*
X288612Y-13163D01*
X288085Y-12811D01*
X287463Y-12687D01*
X286841Y-12811D01*
X286314Y-13163D01*
X285962Y-13690D01*
X285838Y-14312D01*
X285697Y-14484D01*
X5972D01*
X5872Y-13984D01*
X6907Y-13556D01*
X8942Y-12308D01*
X10758Y-10758D01*
X12308Y-8942D01*
X13556Y-6907D01*
X14469Y-4701D01*
X15026Y-2380D01*
X15214Y0D01*
X15026Y2380D01*
X14469Y4701D01*
X13556Y6907D01*
X12308Y8942D01*
X10758Y10758D01*
X8942Y12308D01*
X6907Y13556D01*
X4701Y14469D01*
X2380Y15026D01*
X0Y15214D01*
X-2380Y15026D01*
X-4701Y14469D01*
X-6907Y13556D01*
X-8942Y12308D01*
X-10758Y10758D01*
X-12308Y8942D01*
X-13083Y7679D01*
X-13583Y7820D01*
Y267771D01*
X-13083Y267912D01*
X-12308Y266648D01*
X-10758Y264833D01*
X-8942Y263282D01*
X-6907Y262035D01*
X-4701Y261121D01*
X-2380Y260564D01*
X0Y260377D01*
X2380Y260564D01*
X4701Y261121D01*
X6907Y262035D01*
X8942Y263282D01*
X10758Y264833D01*
X12308Y266648D01*
X13556Y268684D01*
X14469Y270889D01*
X15026Y273211D01*
X15214Y275590D01*
X15026Y277971D01*
X14469Y280292D01*
X13556Y282498D01*
X12308Y284533D01*
X10758Y286348D01*
X8942Y287899D01*
X7396Y288846D01*
X7537Y289347D01*
X642069D01*
X642210Y288846D01*
D02*
G37*
%LPC*%
G36*
X591139Y276831D02*
X583679D01*
Y269371D01*
X591139D01*
Y276831D01*
D02*
G37*
G36*
X576622Y276863D02*
X575648Y276735D01*
X574741Y276359D01*
X573961Y275761D01*
X573363Y274982D01*
X572988Y274075D01*
X572859Y273101D01*
X572988Y272127D01*
X573363Y271220D01*
X573961Y270441D01*
X574741Y269843D01*
X575648Y269467D01*
X576622Y269339D01*
X577595Y269467D01*
X578503Y269843D01*
X579282Y270441D01*
X579880Y271220D01*
X580256Y272127D01*
X580384Y273101D01*
X580256Y274075D01*
X579880Y274982D01*
X579282Y275761D01*
X578503Y276359D01*
X577595Y276735D01*
X576622Y276863D01*
D02*
G37*
G36*
X565834D02*
X564860Y276735D01*
X563953Y276359D01*
X563174Y275761D01*
X562576Y274982D01*
X562200Y274075D01*
X562072Y273101D01*
X562200Y272127D01*
X562576Y271220D01*
X563174Y270441D01*
X563953Y269843D01*
X564860Y269467D01*
X565834Y269339D01*
X566808Y269467D01*
X567715Y269843D01*
X568494Y270441D01*
X569092Y271220D01*
X569468Y272127D01*
X569596Y273101D01*
X569468Y274075D01*
X569092Y274982D01*
X568494Y275761D01*
X567715Y276359D01*
X566808Y276735D01*
X565834Y276863D01*
D02*
G37*
G36*
X555047D02*
X554073Y276735D01*
X553166Y276359D01*
X552387Y275761D01*
X551789Y274982D01*
X551413Y274075D01*
X551285Y273101D01*
X551413Y272127D01*
X551789Y271220D01*
X552387Y270441D01*
X553166Y269843D01*
X554073Y269467D01*
X555047Y269339D01*
X556020Y269467D01*
X556928Y269843D01*
X557707Y270441D01*
X558305Y271220D01*
X558681Y272127D01*
X558809Y273101D01*
X558681Y274075D01*
X558305Y274982D01*
X557707Y275761D01*
X556928Y276359D01*
X556020Y276735D01*
X555047Y276863D01*
D02*
G37*
G36*
X544259D02*
X543286Y276735D01*
X542378Y276359D01*
X541599Y275761D01*
X541001Y274982D01*
X540625Y274075D01*
X540497Y273101D01*
X540625Y272127D01*
X541001Y271220D01*
X541599Y270441D01*
X542378Y269843D01*
X543286Y269467D01*
X544259Y269339D01*
X545233Y269467D01*
X546140Y269843D01*
X546920Y270441D01*
X547517Y271220D01*
X547893Y272127D01*
X548022Y273101D01*
X547893Y274075D01*
X547517Y274982D01*
X546920Y275761D01*
X546140Y276359D01*
X545233Y276735D01*
X544259Y276863D01*
D02*
G37*
G36*
X421556Y276734D02*
X420583Y276606D01*
X419675Y276230D01*
X418896Y275632D01*
X418298Y274853D01*
X417922Y273945D01*
X417794Y272972D01*
X417922Y271998D01*
X418298Y271091D01*
X418896Y270312D01*
X419675Y269714D01*
X420583Y269338D01*
X421556Y269210D01*
X422530Y269338D01*
X423438Y269714D01*
X424217Y270312D01*
X424815Y271091D01*
X425190Y271998D01*
X425318Y272972D01*
X425190Y273945D01*
X424815Y274853D01*
X424217Y275632D01*
X423438Y276230D01*
X422530Y276606D01*
X421556Y276734D01*
D02*
G37*
G36*
X410769D02*
X409795Y276606D01*
X408888Y276230D01*
X408109Y275632D01*
X407511Y274853D01*
X407135Y273945D01*
X407007Y272972D01*
X407135Y271998D01*
X407511Y271091D01*
X408109Y270312D01*
X408888Y269714D01*
X409795Y269338D01*
X410769Y269210D01*
X411743Y269338D01*
X412650Y269714D01*
X413429Y270312D01*
X414027Y271091D01*
X414403Y271998D01*
X414531Y272972D01*
X414403Y273945D01*
X414027Y274853D01*
X413429Y275632D01*
X412650Y276230D01*
X411743Y276606D01*
X410769Y276734D01*
D02*
G37*
G36*
X399982D02*
X399008Y276606D01*
X398100Y276230D01*
X397321Y275632D01*
X396724Y274853D01*
X396348Y273945D01*
X396219Y272972D01*
X396348Y271998D01*
X396724Y271091D01*
X397321Y270312D01*
X398100Y269714D01*
X399008Y269338D01*
X399982Y269210D01*
X400955Y269338D01*
X401863Y269714D01*
X402642Y270312D01*
X403240Y271091D01*
X403616Y271998D01*
X403744Y272972D01*
X403616Y273945D01*
X403240Y274853D01*
X402642Y275632D01*
X401863Y276230D01*
X400955Y276606D01*
X399982Y276734D01*
D02*
G37*
G36*
X389194D02*
X388221Y276606D01*
X387313Y276230D01*
X386534Y275632D01*
X385936Y274853D01*
X385560Y273945D01*
X385432Y272972D01*
X385560Y271998D01*
X385936Y271091D01*
X386534Y270312D01*
X387313Y269714D01*
X388221Y269338D01*
X389194Y269210D01*
X390168Y269338D01*
X391075Y269714D01*
X391854Y270312D01*
X392452Y271091D01*
X392828Y271998D01*
X392956Y272972D01*
X392828Y273945D01*
X392452Y274853D01*
X391854Y275632D01*
X391075Y276230D01*
X390168Y276606D01*
X389194Y276734D01*
D02*
G37*
G36*
X261143D02*
X260170Y276606D01*
X259262Y276230D01*
X258483Y275632D01*
X257885Y274853D01*
X257509Y273945D01*
X257381Y272972D01*
X257509Y271998D01*
X257885Y271091D01*
X258483Y270312D01*
X259262Y269714D01*
X260170Y269338D01*
X261143Y269210D01*
X262117Y269338D01*
X263024Y269714D01*
X263804Y270312D01*
X264402Y271091D01*
X264777Y271998D01*
X264906Y272972D01*
X264777Y273945D01*
X264402Y274853D01*
X263804Y275632D01*
X263024Y276230D01*
X262117Y276606D01*
X261143Y276734D01*
D02*
G37*
G36*
X250356D02*
X249382Y276606D01*
X248475Y276230D01*
X247696Y275632D01*
X247098Y274853D01*
X246722Y273945D01*
X246594Y272972D01*
X246722Y271998D01*
X247098Y271091D01*
X247696Y270312D01*
X248475Y269714D01*
X249382Y269338D01*
X250356Y269210D01*
X251330Y269338D01*
X252237Y269714D01*
X253016Y270312D01*
X253614Y271091D01*
X253990Y271998D01*
X254118Y272972D01*
X253990Y273945D01*
X253614Y274853D01*
X253016Y275632D01*
X252237Y276230D01*
X251330Y276606D01*
X250356Y276734D01*
D02*
G37*
G36*
X228781D02*
X227807Y276606D01*
X226900Y276230D01*
X226121Y275632D01*
X225523Y274853D01*
X225147Y273945D01*
X225019Y272972D01*
X225147Y271998D01*
X225523Y271091D01*
X226121Y270312D01*
X226900Y269714D01*
X227807Y269338D01*
X228781Y269210D01*
X229755Y269338D01*
X230662Y269714D01*
X231441Y270312D01*
X232039Y271091D01*
X232415Y271998D01*
X232543Y272972D01*
X232415Y273945D01*
X232039Y274853D01*
X231441Y275632D01*
X230662Y276230D01*
X229755Y276606D01*
X228781Y276734D01*
D02*
G37*
G36*
X109867Y276549D02*
X102407D01*
Y269090D01*
X109867D01*
Y276549D01*
D02*
G37*
G36*
X84562Y276582D02*
X83588Y276453D01*
X82681Y276078D01*
X81902Y275480D01*
X81304Y274700D01*
X80928Y273793D01*
X80800Y272819D01*
X80928Y271846D01*
X81304Y270938D01*
X81902Y270159D01*
X82681Y269561D01*
X83588Y269185D01*
X84562Y269057D01*
X85536Y269185D01*
X86443Y269561D01*
X87222Y270159D01*
X87820Y270938D01*
X88196Y271846D01*
X88324Y272819D01*
X88196Y273793D01*
X87820Y274700D01*
X87222Y275480D01*
X86443Y276078D01*
X85536Y276453D01*
X84562Y276582D01*
D02*
G37*
G36*
X73775D02*
X72801Y276453D01*
X71894Y276078D01*
X71114Y275480D01*
X70517Y274700D01*
X70141Y273793D01*
X70012Y272819D01*
X70141Y271846D01*
X70517Y270938D01*
X71114Y270159D01*
X71894Y269561D01*
X72801Y269185D01*
X73775Y269057D01*
X74748Y269185D01*
X75656Y269561D01*
X76435Y270159D01*
X77033Y270938D01*
X77408Y271846D01*
X77537Y272819D01*
X77408Y273793D01*
X77033Y274700D01*
X76435Y275480D01*
X75656Y276078D01*
X74748Y276453D01*
X73775Y276582D01*
D02*
G37*
G36*
X62987D02*
X62014Y276453D01*
X61106Y276078D01*
X60327Y275480D01*
X59729Y274700D01*
X59353Y273793D01*
X59225Y272819D01*
X59353Y271846D01*
X59729Y270938D01*
X60327Y270159D01*
X61106Y269561D01*
X62014Y269185D01*
X62987Y269057D01*
X63961Y269185D01*
X64868Y269561D01*
X65647Y270159D01*
X66245Y270938D01*
X66621Y271846D01*
X66749Y272819D01*
X66621Y273793D01*
X66245Y274700D01*
X65647Y275480D01*
X64868Y276078D01*
X63961Y276453D01*
X62987Y276582D01*
D02*
G37*
G36*
X615007Y274147D02*
X613713Y274019D01*
X612468Y273641D01*
X611321Y273028D01*
X610315Y272203D01*
X609490Y271197D01*
X608877Y270050D01*
X608499Y268805D01*
X608371Y267511D01*
X608499Y266216D01*
X608877Y264971D01*
X609490Y263824D01*
X610315Y262818D01*
X611321Y261993D01*
X612468Y261380D01*
X613713Y261002D01*
X615007Y260875D01*
X616302Y261002D01*
X617547Y261380D01*
X618694Y261993D01*
X619700Y262818D01*
X620525Y263824D01*
X621138Y264971D01*
X621516Y266216D01*
X621643Y267511D01*
X621516Y268805D01*
X621138Y270050D01*
X620525Y271197D01*
X619700Y272203D01*
X618694Y273028D01*
X617547Y273641D01*
X616302Y274019D01*
X615007Y274147D01*
D02*
G37*
G36*
X516622D02*
X515327Y274019D01*
X514082Y273641D01*
X512935Y273028D01*
X511929Y272203D01*
X511104Y271197D01*
X510491Y270050D01*
X510113Y268805D01*
X509986Y267511D01*
X510113Y266216D01*
X510491Y264971D01*
X511104Y263824D01*
X511929Y262818D01*
X512935Y261993D01*
X514082Y261380D01*
X515327Y261002D01*
X516622Y260875D01*
X517916Y261002D01*
X519161Y261380D01*
X520308Y261993D01*
X521314Y262818D01*
X522139Y263824D01*
X522752Y264971D01*
X523130Y266216D01*
X523257Y267511D01*
X523130Y268805D01*
X522752Y270050D01*
X522139Y271197D01*
X521314Y272203D01*
X520308Y273028D01*
X519161Y273641D01*
X517916Y274019D01*
X516622Y274147D01*
D02*
G37*
G36*
X454588Y274017D02*
X453293Y273890D01*
X452049Y273512D01*
X450901Y272899D01*
X449896Y272074D01*
X449071Y271068D01*
X448457Y269921D01*
X448080Y268676D01*
X447952Y267381D01*
X448080Y266087D01*
X448457Y264842D01*
X449071Y263695D01*
X449896Y262689D01*
X450901Y261864D01*
X452049Y261251D01*
X453293Y260873D01*
X454588Y260746D01*
X455883Y260873D01*
X457127Y261251D01*
X458275Y261864D01*
X459280Y262689D01*
X460106Y263695D01*
X460719Y264842D01*
X461096Y266087D01*
X461224Y267381D01*
X461096Y268676D01*
X460719Y269921D01*
X460106Y271068D01*
X459280Y272074D01*
X458275Y272899D01*
X457127Y273512D01*
X455883Y273890D01*
X454588Y274017D01*
D02*
G37*
G36*
X356202D02*
X354908Y273890D01*
X353663Y273512D01*
X352516Y272899D01*
X351510Y272074D01*
X350685Y271068D01*
X350072Y269921D01*
X349694Y268676D01*
X349566Y267381D01*
X349694Y266087D01*
X350072Y264842D01*
X350685Y263695D01*
X351510Y262689D01*
X352516Y261864D01*
X353663Y261251D01*
X354908Y260873D01*
X356202Y260746D01*
X357497Y260873D01*
X358742Y261251D01*
X359889Y261864D01*
X360894Y262689D01*
X361720Y263695D01*
X362333Y264842D01*
X362711Y266087D01*
X362838Y267381D01*
X362711Y268676D01*
X362333Y269921D01*
X361720Y271068D01*
X360894Y272074D01*
X359889Y272899D01*
X358742Y273512D01*
X357497Y273890D01*
X356202Y274017D01*
D02*
G37*
G36*
X294175D02*
X292880Y273890D01*
X291635Y273512D01*
X290488Y272899D01*
X289482Y272074D01*
X288657Y271068D01*
X288044Y269921D01*
X287666Y268676D01*
X287539Y267381D01*
X287666Y266087D01*
X288044Y264842D01*
X288657Y263695D01*
X289482Y262689D01*
X290488Y261864D01*
X291635Y261251D01*
X292880Y260873D01*
X294175Y260746D01*
X295469Y260873D01*
X296714Y261251D01*
X297862Y261864D01*
X298867Y262689D01*
X299692Y263695D01*
X300306Y264842D01*
X300683Y266087D01*
X300811Y267381D01*
X300683Y268676D01*
X300306Y269921D01*
X299692Y271068D01*
X298867Y272074D01*
X297862Y272899D01*
X296714Y273512D01*
X295469Y273890D01*
X294175Y274017D01*
D02*
G37*
G36*
X195789D02*
X194494Y273890D01*
X193250Y273512D01*
X192102Y272899D01*
X191097Y272074D01*
X190271Y271068D01*
X189658Y269921D01*
X189281Y268676D01*
X189153Y267381D01*
X189281Y266087D01*
X189658Y264842D01*
X190271Y263695D01*
X191097Y262689D01*
X192102Y261864D01*
X193250Y261251D01*
X194494Y260873D01*
X195789Y260746D01*
X197084Y260873D01*
X198328Y261251D01*
X199476Y261864D01*
X200481Y262689D01*
X201307Y263695D01*
X201920Y264842D01*
X202297Y266087D01*
X202425Y267381D01*
X202297Y268676D01*
X201920Y269921D01*
X201307Y271068D01*
X200481Y272074D01*
X199476Y272899D01*
X198328Y273512D01*
X197084Y273890D01*
X195789Y274017D01*
D02*
G37*
G36*
X133735Y273865D02*
X132441Y273737D01*
X131196Y273359D01*
X130049Y272746D01*
X129043Y271921D01*
X128218Y270916D01*
X127605Y269768D01*
X127227Y268523D01*
X127100Y267229D01*
X127227Y265934D01*
X127605Y264689D01*
X128218Y263542D01*
X129043Y262537D01*
X130049Y261711D01*
X131196Y261098D01*
X132441Y260720D01*
X133735Y260593D01*
X135030Y260720D01*
X136275Y261098D01*
X137422Y261711D01*
X138428Y262537D01*
X139253Y263542D01*
X139866Y264689D01*
X140244Y265934D01*
X140371Y267229D01*
X140244Y268523D01*
X139866Y269768D01*
X139253Y270916D01*
X138428Y271921D01*
X137422Y272746D01*
X136275Y273359D01*
X135030Y273737D01*
X133735Y273865D01*
D02*
G37*
G36*
X35350D02*
X34055Y273737D01*
X32810Y273359D01*
X31663Y272746D01*
X30657Y271921D01*
X29832Y270916D01*
X29219Y269768D01*
X28841Y268523D01*
X28714Y267229D01*
X28841Y265934D01*
X29219Y264689D01*
X29832Y263542D01*
X30657Y262537D01*
X31663Y261711D01*
X32810Y261098D01*
X34055Y260720D01*
X35350Y260593D01*
X36644Y260720D01*
X37889Y261098D01*
X39036Y261711D01*
X40042Y262537D01*
X40867Y263542D01*
X41480Y264689D01*
X41858Y265934D01*
X41985Y267229D01*
X41858Y268523D01*
X41480Y269768D01*
X40867Y270916D01*
X40042Y271921D01*
X39036Y272746D01*
X37889Y273359D01*
X36644Y273737D01*
X35350Y273865D01*
D02*
G37*
G36*
X582015Y265682D02*
X581041Y265554D01*
X580134Y265178D01*
X579355Y264580D01*
X578757Y263801D01*
X578381Y262894D01*
X578253Y261920D01*
X578381Y260946D01*
X578757Y260039D01*
X579355Y259260D01*
X580134Y258662D01*
X581041Y258286D01*
X582015Y258158D01*
X582989Y258286D01*
X583896Y258662D01*
X584675Y259260D01*
X585273Y260039D01*
X585649Y260946D01*
X585777Y261920D01*
X585649Y262894D01*
X585273Y263801D01*
X584675Y264580D01*
X583896Y265178D01*
X582989Y265554D01*
X582015Y265682D01*
D02*
G37*
G36*
X571228D02*
X570254Y265554D01*
X569347Y265178D01*
X568568Y264580D01*
X567970Y263801D01*
X567594Y262894D01*
X567466Y261920D01*
X567594Y260946D01*
X567970Y260039D01*
X568568Y259260D01*
X569347Y258662D01*
X570254Y258286D01*
X571228Y258158D01*
X572201Y258286D01*
X573109Y258662D01*
X573888Y259260D01*
X574486Y260039D01*
X574862Y260946D01*
X574990Y261920D01*
X574862Y262894D01*
X574486Y263801D01*
X573888Y264580D01*
X573109Y265178D01*
X572201Y265554D01*
X571228Y265682D01*
D02*
G37*
G36*
X560440D02*
X559467Y265554D01*
X558559Y265178D01*
X557780Y264580D01*
X557182Y263801D01*
X556807Y262894D01*
X556678Y261920D01*
X556807Y260946D01*
X557182Y260039D01*
X557780Y259260D01*
X558559Y258662D01*
X559467Y258286D01*
X560440Y258158D01*
X561414Y258286D01*
X562322Y258662D01*
X563101Y259260D01*
X563698Y260039D01*
X564074Y260946D01*
X564202Y261920D01*
X564074Y262894D01*
X563698Y263801D01*
X563101Y264580D01*
X562322Y265178D01*
X561414Y265554D01*
X560440Y265682D01*
D02*
G37*
G36*
X549653D02*
X548679Y265554D01*
X547772Y265178D01*
X546993Y264580D01*
X546395Y263801D01*
X546019Y262894D01*
X545891Y261920D01*
X546019Y260946D01*
X546395Y260039D01*
X546993Y259260D01*
X547772Y258662D01*
X548679Y258286D01*
X549653Y258158D01*
X550627Y258286D01*
X551534Y258662D01*
X552313Y259260D01*
X552911Y260039D01*
X553287Y260946D01*
X553415Y261920D01*
X553287Y262894D01*
X552911Y263801D01*
X552313Y264580D01*
X551534Y265178D01*
X550627Y265554D01*
X549653Y265682D01*
D02*
G37*
G36*
X387530Y265521D02*
X380071D01*
Y258061D01*
X387530D01*
Y265521D01*
D02*
G37*
G36*
X227117D02*
X219657D01*
Y258061D01*
X227117D01*
Y265521D01*
D02*
G37*
G36*
X426950Y265553D02*
X425977Y265425D01*
X425069Y265049D01*
X424290Y264451D01*
X423692Y263672D01*
X423316Y262765D01*
X423188Y261791D01*
X423316Y260817D01*
X423692Y259910D01*
X424290Y259131D01*
X425069Y258533D01*
X425977Y258157D01*
X426950Y258029D01*
X427924Y258157D01*
X428831Y258533D01*
X429610Y259131D01*
X430208Y259910D01*
X430584Y260817D01*
X430712Y261791D01*
X430584Y262765D01*
X430208Y263672D01*
X429610Y264451D01*
X428831Y265049D01*
X427924Y265425D01*
X426950Y265553D01*
D02*
G37*
G36*
X416163D02*
X415189Y265425D01*
X414282Y265049D01*
X413503Y264451D01*
X412905Y263672D01*
X412529Y262765D01*
X412401Y261791D01*
X412529Y260817D01*
X412905Y259910D01*
X413503Y259131D01*
X414282Y258533D01*
X415189Y258157D01*
X416163Y258029D01*
X417136Y258157D01*
X418044Y258533D01*
X418823Y259131D01*
X419421Y259910D01*
X419797Y260817D01*
X419925Y261791D01*
X419797Y262765D01*
X419421Y263672D01*
X418823Y264451D01*
X418044Y265049D01*
X417136Y265425D01*
X416163Y265553D01*
D02*
G37*
G36*
X405375D02*
X404402Y265425D01*
X403494Y265049D01*
X402715Y264451D01*
X402117Y263672D01*
X401742Y262765D01*
X401613Y261791D01*
X401742Y260817D01*
X402117Y259910D01*
X402715Y259131D01*
X403494Y258533D01*
X404402Y258157D01*
X405375Y258029D01*
X406349Y258157D01*
X407257Y258533D01*
X408036Y259131D01*
X408634Y259910D01*
X409009Y260817D01*
X409137Y261791D01*
X409009Y262765D01*
X408634Y263672D01*
X408036Y264451D01*
X407257Y265049D01*
X406349Y265425D01*
X405375Y265553D01*
D02*
G37*
G36*
X394588D02*
X393614Y265425D01*
X392707Y265049D01*
X391928Y264451D01*
X391330Y263672D01*
X390954Y262765D01*
X390826Y261791D01*
X390954Y260817D01*
X391330Y259910D01*
X391928Y259131D01*
X392707Y258533D01*
X393614Y258157D01*
X394588Y258029D01*
X395562Y258157D01*
X396469Y258533D01*
X397248Y259131D01*
X397846Y259910D01*
X398222Y260817D01*
X398350Y261791D01*
X398222Y262765D01*
X397846Y263672D01*
X397248Y264451D01*
X396469Y265049D01*
X395562Y265425D01*
X394588Y265553D01*
D02*
G37*
G36*
X266537D02*
X265563Y265425D01*
X264656Y265049D01*
X263877Y264451D01*
X263279Y263672D01*
X262903Y262765D01*
X262775Y261791D01*
X262903Y260817D01*
X263279Y259910D01*
X263877Y259131D01*
X264656Y258533D01*
X265563Y258157D01*
X266537Y258029D01*
X267511Y258157D01*
X268418Y258533D01*
X269197Y259131D01*
X269795Y259910D01*
X270171Y260817D01*
X270299Y261791D01*
X270171Y262765D01*
X269795Y263672D01*
X269197Y264451D01*
X268418Y265049D01*
X267511Y265425D01*
X266537Y265553D01*
D02*
G37*
G36*
X244962D02*
X243988Y265425D01*
X243081Y265049D01*
X242302Y264451D01*
X241704Y263672D01*
X241328Y262765D01*
X241200Y261791D01*
X241328Y260817D01*
X241704Y259910D01*
X242302Y259131D01*
X243081Y258533D01*
X243988Y258157D01*
X244962Y258029D01*
X245936Y258157D01*
X246843Y258533D01*
X247622Y259131D01*
X248220Y259910D01*
X248596Y260817D01*
X248724Y261791D01*
X248596Y262765D01*
X248220Y263672D01*
X247622Y264451D01*
X246843Y265049D01*
X245936Y265425D01*
X244962Y265553D01*
D02*
G37*
G36*
X234175D02*
X233201Y265425D01*
X232294Y265049D01*
X231515Y264451D01*
X230917Y263672D01*
X230541Y262765D01*
X230413Y261791D01*
X230541Y260817D01*
X230917Y259910D01*
X231515Y259131D01*
X232294Y258533D01*
X233201Y258157D01*
X234175Y258029D01*
X235149Y258157D01*
X236056Y258533D01*
X236835Y259131D01*
X237433Y259910D01*
X237809Y260817D01*
X237937Y261791D01*
X237809Y262765D01*
X237433Y263672D01*
X236835Y264451D01*
X236056Y265049D01*
X235149Y265425D01*
X234175Y265553D01*
D02*
G37*
G36*
X100743Y265400D02*
X99770Y265272D01*
X98862Y264896D01*
X98083Y264298D01*
X97485Y263519D01*
X97109Y262612D01*
X96981Y261638D01*
X97109Y260665D01*
X97485Y259757D01*
X98083Y258978D01*
X98862Y258380D01*
X99770Y258004D01*
X100743Y257876D01*
X101717Y258004D01*
X102624Y258380D01*
X103403Y258978D01*
X104001Y259757D01*
X104377Y260665D01*
X104505Y261638D01*
X104377Y262612D01*
X104001Y263519D01*
X103403Y264298D01*
X102624Y264896D01*
X101717Y265272D01*
X100743Y265400D01*
D02*
G37*
G36*
X89956D02*
X88982Y265272D01*
X88075Y264896D01*
X87296Y264298D01*
X86698Y263519D01*
X86322Y262612D01*
X86194Y261638D01*
X86322Y260665D01*
X86698Y259757D01*
X87296Y258978D01*
X88075Y258380D01*
X88982Y258004D01*
X89956Y257876D01*
X90930Y258004D01*
X91837Y258380D01*
X92616Y258978D01*
X93214Y259757D01*
X93590Y260665D01*
X93718Y261638D01*
X93590Y262612D01*
X93214Y263519D01*
X92616Y264298D01*
X91837Y264896D01*
X90930Y265272D01*
X89956Y265400D01*
D02*
G37*
G36*
X79168D02*
X78195Y265272D01*
X77287Y264896D01*
X76508Y264298D01*
X75910Y263519D01*
X75534Y262612D01*
X75406Y261638D01*
X75534Y260665D01*
X75910Y259757D01*
X76508Y258978D01*
X77287Y258380D01*
X78195Y258004D01*
X79168Y257876D01*
X80142Y258004D01*
X81050Y258380D01*
X81829Y258978D01*
X82427Y259757D01*
X82802Y260665D01*
X82930Y261638D01*
X82802Y262612D01*
X82427Y263519D01*
X81829Y264298D01*
X81050Y264896D01*
X80142Y265272D01*
X79168Y265400D01*
D02*
G37*
G36*
X68381D02*
X67407Y265272D01*
X66500Y264896D01*
X65721Y264298D01*
X65123Y263519D01*
X64747Y262612D01*
X64619Y261638D01*
X64747Y260665D01*
X65123Y259757D01*
X65721Y258978D01*
X66500Y258380D01*
X67407Y258004D01*
X68381Y257876D01*
X69355Y258004D01*
X70262Y258380D01*
X71041Y258978D01*
X71639Y259757D01*
X72015Y260665D01*
X72143Y261638D01*
X72015Y262612D01*
X71639Y263519D01*
X71041Y264298D01*
X70262Y264896D01*
X69355Y265272D01*
X68381Y265400D01*
D02*
G37*
G36*
X356091Y212635D02*
X355133Y212509D01*
X354240Y212139D01*
X353473Y211551D01*
X352885Y210784D01*
X352515Y209891D01*
X352389Y208933D01*
X352515Y207974D01*
X352885Y207081D01*
X353473Y206314D01*
X354240Y205726D01*
X355133Y205356D01*
X356091Y205230D01*
X357049Y205356D01*
X357942Y205726D01*
X358709Y206314D01*
X359297Y207081D01*
X359667Y207974D01*
X359793Y208933D01*
X359667Y209891D01*
X359297Y210784D01*
X358709Y211551D01*
X357942Y212139D01*
X357049Y212509D01*
X356091Y212635D01*
D02*
G37*
G36*
X334477D02*
X333519Y212509D01*
X332626Y212139D01*
X331859Y211551D01*
X331270Y210784D01*
X330900Y209891D01*
X330774Y208933D01*
X330900Y207974D01*
X331270Y207081D01*
X331859Y206314D01*
X332626Y205726D01*
X333519Y205356D01*
X334477Y205230D01*
X335435Y205356D01*
X336328Y205726D01*
X337095Y206314D01*
X337683Y207081D01*
X338053Y207974D01*
X338179Y208933D01*
X338053Y209891D01*
X337683Y210784D01*
X337095Y211551D01*
X336328Y212139D01*
X335435Y212509D01*
X334477Y212635D01*
D02*
G37*
G36*
X323689D02*
X322731Y212509D01*
X321838Y212139D01*
X321071Y211551D01*
X320483Y210784D01*
X320113Y209891D01*
X319987Y208933D01*
X320113Y207974D01*
X320483Y207081D01*
X321071Y206314D01*
X321838Y205726D01*
X322731Y205356D01*
X323689Y205230D01*
X324648Y205356D01*
X325541Y205726D01*
X326308Y206314D01*
X326896Y207081D01*
X327266Y207974D01*
X327392Y208933D01*
X327266Y209891D01*
X326896Y210784D01*
X326308Y211551D01*
X325541Y212139D01*
X324648Y212509D01*
X323689Y212635D01*
D02*
G37*
G36*
X312902D02*
X311944Y212509D01*
X311051Y212139D01*
X310284Y211551D01*
X309696Y210784D01*
X309326Y209891D01*
X309200Y208933D01*
X309326Y207974D01*
X309696Y207081D01*
X310284Y206314D01*
X311051Y205726D01*
X311944Y205356D01*
X312902Y205230D01*
X313860Y205356D01*
X314753Y205726D01*
X315520Y206314D01*
X316108Y207081D01*
X316478Y207974D01*
X316604Y208933D01*
X316478Y209891D01*
X316108Y210784D01*
X315520Y211551D01*
X314753Y212139D01*
X313860Y212509D01*
X312902Y212635D01*
D02*
G37*
G36*
X302075D02*
X301117Y212509D01*
X300224Y212139D01*
X299457Y211551D01*
X298869Y210784D01*
X298499Y209891D01*
X298373Y208933D01*
X298499Y207974D01*
X298869Y207081D01*
X299457Y206314D01*
X300224Y205726D01*
X301117Y205356D01*
X302075Y205230D01*
X303034Y205356D01*
X303927Y205726D01*
X304694Y206314D01*
X305282Y207081D01*
X305652Y207974D01*
X305778Y208933D01*
X305652Y209891D01*
X305282Y210784D01*
X304694Y211551D01*
X303927Y212139D01*
X303034Y212509D01*
X302075Y212635D01*
D02*
G37*
G36*
X291288D02*
X290330Y212509D01*
X289437Y212139D01*
X288670Y211551D01*
X288082Y210784D01*
X287712Y209891D01*
X287585Y208933D01*
X287712Y207974D01*
X288082Y207081D01*
X288670Y206314D01*
X289437Y205726D01*
X290330Y205356D01*
X291288Y205230D01*
X292246Y205356D01*
X293139Y205726D01*
X293906Y206314D01*
X294495Y207081D01*
X294864Y207974D01*
X294990Y208933D01*
X294864Y209891D01*
X294495Y210784D01*
X293906Y211551D01*
X293139Y212139D01*
X292246Y212509D01*
X291288Y212635D01*
D02*
G37*
G36*
X569526Y212413D02*
X568568Y212287D01*
X567674Y211917D01*
X566908Y211329D01*
X566319Y210562D01*
X565949Y209669D01*
X565823Y208711D01*
X565949Y207752D01*
X566319Y206859D01*
X566908Y206093D01*
X567674Y205504D01*
X568568Y205134D01*
X569526Y205008D01*
X570484Y205134D01*
X571377Y205504D01*
X572144Y206093D01*
X572732Y206859D01*
X573102Y207752D01*
X573228Y208711D01*
X573102Y209669D01*
X572732Y210562D01*
X572144Y211329D01*
X571377Y211917D01*
X570484Y212287D01*
X569526Y212413D01*
D02*
G37*
G36*
X558699D02*
X557741Y212287D01*
X556848Y211917D01*
X556081Y211329D01*
X555493Y210562D01*
X555123Y209669D01*
X554997Y208711D01*
X555123Y207752D01*
X555493Y206859D01*
X556081Y206093D01*
X556848Y205504D01*
X557741Y205134D01*
X558699Y205008D01*
X559657Y205134D01*
X560550Y205504D01*
X561317Y206093D01*
X561906Y206859D01*
X562276Y207752D01*
X562402Y208711D01*
X562276Y209669D01*
X561906Y210562D01*
X561317Y211329D01*
X560550Y211917D01*
X559657Y212287D01*
X558699Y212413D01*
D02*
G37*
G36*
X547912D02*
X546953Y212287D01*
X546061Y211917D01*
X545294Y211329D01*
X544705Y210562D01*
X544335Y209669D01*
X544209Y208711D01*
X544335Y207752D01*
X544705Y206859D01*
X545294Y206093D01*
X546061Y205504D01*
X546953Y205134D01*
X547912Y205008D01*
X548870Y205134D01*
X549763Y205504D01*
X550530Y206093D01*
X551118Y206859D01*
X551488Y207752D01*
X551614Y208711D01*
X551488Y209669D01*
X551118Y210562D01*
X550530Y211329D01*
X549763Y211917D01*
X548870Y212287D01*
X547912Y212413D01*
D02*
G37*
G36*
X537124D02*
X536166Y212287D01*
X535273Y211917D01*
X534506Y211329D01*
X533918Y210562D01*
X533548Y209669D01*
X533422Y208711D01*
X533548Y207752D01*
X533918Y206859D01*
X534506Y206093D01*
X535273Y205504D01*
X536166Y205134D01*
X537124Y205008D01*
X538083Y205134D01*
X538976Y205504D01*
X539743Y206093D01*
X540331Y206859D01*
X540701Y207752D01*
X540827Y208711D01*
X540701Y209669D01*
X540331Y210562D01*
X539743Y211329D01*
X538976Y211917D01*
X538083Y212287D01*
X537124Y212413D01*
D02*
G37*
G36*
X526298D02*
X525339Y212287D01*
X524446Y211917D01*
X523679Y211329D01*
X523091Y210562D01*
X522721Y209669D01*
X522595Y208711D01*
X522721Y207752D01*
X523091Y206859D01*
X523679Y206093D01*
X524446Y205504D01*
X525339Y205134D01*
X526298Y205008D01*
X527256Y205134D01*
X528149Y205504D01*
X528916Y206093D01*
X529504Y206859D01*
X529874Y207752D01*
X530000Y208711D01*
X529874Y209669D01*
X529504Y210562D01*
X528916Y211329D01*
X528149Y211917D01*
X527256Y212287D01*
X526298Y212413D01*
D02*
G37*
G36*
X515510D02*
X514552Y212287D01*
X513659Y211917D01*
X512892Y211329D01*
X512304Y210562D01*
X511934Y209669D01*
X511808Y208711D01*
X511934Y207752D01*
X512304Y206859D01*
X512892Y206093D01*
X513659Y205504D01*
X514552Y205134D01*
X515510Y205008D01*
X516468Y205134D01*
X517361Y205504D01*
X518128Y206093D01*
X518717Y206859D01*
X519087Y207752D01*
X519213Y208711D01*
X519087Y209669D01*
X518717Y210562D01*
X518128Y211329D01*
X517361Y211917D01*
X516468Y212287D01*
X515510Y212413D01*
D02*
G37*
G36*
X289565Y201423D02*
X282223D01*
Y194081D01*
X289565D01*
Y201423D01*
D02*
G37*
G36*
X361485Y201454D02*
X360526Y201328D01*
X359633Y200958D01*
X358867Y200370D01*
X358278Y199603D01*
X357908Y198710D01*
X357782Y197752D01*
X357908Y196793D01*
X358278Y195900D01*
X358867Y195133D01*
X359633Y194545D01*
X360526Y194175D01*
X361485Y194049D01*
X362443Y194175D01*
X363336Y194545D01*
X364103Y195133D01*
X364691Y195900D01*
X365061Y196793D01*
X365187Y197752D01*
X365061Y198710D01*
X364691Y199603D01*
X364103Y200370D01*
X363336Y200958D01*
X362443Y201328D01*
X361485Y201454D01*
D02*
G37*
G36*
X350697D02*
X349739Y201328D01*
X348846Y200958D01*
X348079Y200370D01*
X347491Y199603D01*
X347121Y198710D01*
X346995Y197752D01*
X347121Y196793D01*
X347491Y195900D01*
X348079Y195133D01*
X348846Y194545D01*
X349739Y194175D01*
X350697Y194049D01*
X351656Y194175D01*
X352549Y194545D01*
X353315Y195133D01*
X353904Y195900D01*
X354274Y196793D01*
X354400Y197752D01*
X354274Y198710D01*
X353904Y199603D01*
X353315Y200370D01*
X352549Y200958D01*
X351656Y201328D01*
X350697Y201454D01*
D02*
G37*
G36*
X339910D02*
X338952Y201328D01*
X338059Y200958D01*
X337292Y200370D01*
X336703Y199603D01*
X336334Y198710D01*
X336208Y197752D01*
X336334Y196793D01*
X336703Y195900D01*
X337292Y195133D01*
X338059Y194545D01*
X338952Y194175D01*
X339910Y194049D01*
X340868Y194175D01*
X341761Y194545D01*
X342528Y195133D01*
X343116Y195900D01*
X343486Y196793D01*
X343613Y197752D01*
X343486Y198710D01*
X343116Y199603D01*
X342528Y200370D01*
X341761Y200958D01*
X340868Y201328D01*
X339910Y201454D01*
D02*
G37*
G36*
X329123D02*
X328164Y201328D01*
X327271Y200958D01*
X326504Y200370D01*
X325916Y199603D01*
X325546Y198710D01*
X325420Y197752D01*
X325546Y196793D01*
X325916Y195900D01*
X326504Y195133D01*
X327271Y194545D01*
X328164Y194175D01*
X329123Y194049D01*
X330081Y194175D01*
X330974Y194545D01*
X331741Y195133D01*
X332329Y195900D01*
X332699Y196793D01*
X332825Y197752D01*
X332699Y198710D01*
X332329Y199603D01*
X331741Y200370D01*
X330974Y200958D01*
X330081Y201328D01*
X329123Y201454D01*
D02*
G37*
G36*
X318256D02*
X317298Y201328D01*
X316405Y200958D01*
X315638Y200370D01*
X315050Y199603D01*
X314680Y198710D01*
X314554Y197752D01*
X314680Y196793D01*
X315050Y195900D01*
X315638Y195133D01*
X316405Y194545D01*
X317298Y194175D01*
X318256Y194049D01*
X319215Y194175D01*
X320108Y194545D01*
X320875Y195133D01*
X321463Y195900D01*
X321833Y196793D01*
X321959Y197752D01*
X321833Y198710D01*
X321463Y199603D01*
X320875Y200370D01*
X320108Y200958D01*
X319215Y201328D01*
X318256Y201454D01*
D02*
G37*
G36*
X307469D02*
X306511Y201328D01*
X305618Y200958D01*
X304851Y200370D01*
X304262Y199603D01*
X303893Y198710D01*
X303766Y197752D01*
X303893Y196793D01*
X304262Y195900D01*
X304851Y195133D01*
X305618Y194545D01*
X306511Y194175D01*
X307469Y194049D01*
X308427Y194175D01*
X309320Y194545D01*
X310087Y195133D01*
X310676Y195900D01*
X311045Y196793D01*
X311172Y197752D01*
X311045Y198710D01*
X310676Y199603D01*
X310087Y200370D01*
X309320Y200958D01*
X308427Y201328D01*
X307469Y201454D01*
D02*
G37*
G36*
X513787Y201200D02*
X506446D01*
Y193859D01*
X513787D01*
Y201200D01*
D02*
G37*
G36*
X585707Y201232D02*
X584749Y201106D01*
X583856Y200736D01*
X583089Y200148D01*
X582501Y199381D01*
X582131Y198488D01*
X582004Y197529D01*
X582131Y196571D01*
X582501Y195678D01*
X583089Y194911D01*
X583856Y194323D01*
X584749Y193953D01*
X585707Y193827D01*
X586665Y193953D01*
X587558Y194323D01*
X588325Y194911D01*
X588913Y195678D01*
X589283Y196571D01*
X589409Y197529D01*
X589283Y198488D01*
X588913Y199381D01*
X588325Y200148D01*
X587558Y200736D01*
X586665Y201106D01*
X585707Y201232D01*
D02*
G37*
G36*
X574920D02*
X573961Y201106D01*
X573068Y200736D01*
X572301Y200148D01*
X571713Y199381D01*
X571343Y198488D01*
X571217Y197529D01*
X571343Y196571D01*
X571713Y195678D01*
X572301Y194911D01*
X573068Y194323D01*
X573961Y193953D01*
X574920Y193827D01*
X575878Y193953D01*
X576771Y194323D01*
X577538Y194911D01*
X578126Y195678D01*
X578496Y196571D01*
X578622Y197529D01*
X578496Y198488D01*
X578126Y199381D01*
X577538Y200148D01*
X576771Y200736D01*
X575878Y201106D01*
X574920Y201232D01*
D02*
G37*
G36*
X564132D02*
X563174Y201106D01*
X562281Y200736D01*
X561514Y200148D01*
X560926Y199381D01*
X560556Y198488D01*
X560430Y197529D01*
X560556Y196571D01*
X560926Y195678D01*
X561514Y194911D01*
X562281Y194323D01*
X563174Y193953D01*
X564132Y193827D01*
X565091Y193953D01*
X565983Y194323D01*
X566750Y194911D01*
X567339Y195678D01*
X567709Y196571D01*
X567835Y197529D01*
X567709Y198488D01*
X567339Y199381D01*
X566750Y200148D01*
X565983Y200736D01*
X565091Y201106D01*
X564132Y201232D01*
D02*
G37*
G36*
X553345D02*
X552387Y201106D01*
X551494Y200736D01*
X550727Y200148D01*
X550138Y199381D01*
X549768Y198488D01*
X549642Y197529D01*
X549768Y196571D01*
X550138Y195678D01*
X550727Y194911D01*
X551494Y194323D01*
X552387Y193953D01*
X553345Y193827D01*
X554303Y193953D01*
X555196Y194323D01*
X555963Y194911D01*
X556551Y195678D01*
X556921Y196571D01*
X557047Y197529D01*
X556921Y198488D01*
X556551Y199381D01*
X555963Y200148D01*
X555196Y200736D01*
X554303Y201106D01*
X553345Y201232D01*
D02*
G37*
G36*
X542479D02*
X541520Y201106D01*
X540627Y200736D01*
X539860Y200148D01*
X539272Y199381D01*
X538902Y198488D01*
X538776Y197529D01*
X538902Y196571D01*
X539272Y195678D01*
X539860Y194911D01*
X540627Y194323D01*
X541520Y193953D01*
X542479Y193827D01*
X543437Y193953D01*
X544330Y194323D01*
X545097Y194911D01*
X545685Y195678D01*
X546055Y196571D01*
X546181Y197529D01*
X546055Y198488D01*
X545685Y199381D01*
X545097Y200148D01*
X544330Y200736D01*
X543437Y201106D01*
X542479Y201232D01*
D02*
G37*
G36*
X531691D02*
X530733Y201106D01*
X529840Y200736D01*
X529073Y200148D01*
X528485Y199381D01*
X528115Y198488D01*
X527989Y197529D01*
X528115Y196571D01*
X528485Y195678D01*
X529073Y194911D01*
X529840Y194323D01*
X530733Y193953D01*
X531691Y193827D01*
X532650Y193953D01*
X533542Y194323D01*
X534309Y194911D01*
X534898Y195678D01*
X535268Y196571D01*
X535394Y197529D01*
X535268Y198488D01*
X534898Y199381D01*
X534309Y200148D01*
X533542Y200736D01*
X532650Y201106D01*
X531691Y201232D01*
D02*
G37*
G36*
X520904D02*
X519945Y201106D01*
X519053Y200736D01*
X518286Y200148D01*
X517697Y199381D01*
X517327Y198488D01*
X517201Y197529D01*
X517327Y196571D01*
X517697Y195678D01*
X518286Y194911D01*
X519053Y194323D01*
X519945Y193953D01*
X520904Y193827D01*
X521862Y193953D01*
X522755Y194323D01*
X523522Y194911D01*
X524110Y195678D01*
X524480Y196571D01*
X524606Y197529D01*
X524480Y198488D01*
X524110Y199381D01*
X523522Y200148D01*
X522755Y200736D01*
X521862Y201106D01*
X520904Y201232D01*
D02*
G37*
G36*
X389280Y212994D02*
X387397Y212809D01*
X385586Y212260D01*
X383917Y211368D01*
X382455Y210167D01*
X381254Y208705D01*
X380362Y207036D01*
X379813Y205225D01*
X379628Y203342D01*
X379813Y201459D01*
X380362Y199648D01*
X381254Y197979D01*
X382455Y196517D01*
X383917Y195316D01*
X385586Y194424D01*
X387397Y193875D01*
X389280Y193690D01*
X391163Y193875D01*
X392974Y194424D01*
X394643Y195316D01*
X396105Y196517D01*
X397306Y197979D01*
X398198Y199648D01*
X398747Y201459D01*
X398932Y203342D01*
X398747Y205225D01*
X398198Y207036D01*
X397306Y208705D01*
X396105Y210167D01*
X394643Y211368D01*
X392974Y212260D01*
X391163Y212809D01*
X389280Y212994D01*
D02*
G37*
G36*
X258099D02*
X256216Y212809D01*
X254405Y212260D01*
X252736Y211368D01*
X251274Y210167D01*
X250073Y208705D01*
X249181Y207036D01*
X248632Y205225D01*
X248447Y203342D01*
X248632Y201459D01*
X249181Y199648D01*
X250073Y197979D01*
X251274Y196517D01*
X252736Y195316D01*
X254405Y194424D01*
X256216Y193875D01*
X258099Y193690D01*
X259982Y193875D01*
X261793Y194424D01*
X263462Y195316D01*
X264924Y196517D01*
X266125Y197979D01*
X267017Y199648D01*
X267566Y201459D01*
X267751Y203342D01*
X267566Y205225D01*
X267017Y207036D01*
X266125Y208705D01*
X264924Y210167D01*
X263462Y211368D01*
X261793Y212260D01*
X259982Y212809D01*
X258099Y212994D01*
D02*
G37*
G36*
X613502Y212772D02*
X611619Y212587D01*
X609808Y212038D01*
X608140Y211146D01*
X606677Y209945D01*
X605477Y208483D01*
X604585Y206814D01*
X604035Y205003D01*
X603850Y203120D01*
X604035Y201237D01*
X604585Y199426D01*
X605477Y197757D01*
X606677Y196295D01*
X608140Y195094D01*
X609808Y194202D01*
X611619Y193653D01*
X613502Y193468D01*
X615385Y193653D01*
X617196Y194202D01*
X618865Y195094D01*
X620328Y196295D01*
X621528Y197757D01*
X622420Y199426D01*
X622969Y201237D01*
X623155Y203120D01*
X622969Y205003D01*
X622420Y206814D01*
X621528Y208483D01*
X620328Y209945D01*
X618865Y211146D01*
X617196Y212038D01*
X615385Y212587D01*
X613502Y212772D01*
D02*
G37*
G36*
X482321D02*
X480438Y212587D01*
X478627Y212038D01*
X476959Y211146D01*
X475496Y209945D01*
X474296Y208483D01*
X473404Y206814D01*
X472854Y205003D01*
X472669Y203120D01*
X472854Y201237D01*
X473404Y199426D01*
X474296Y197757D01*
X475496Y196295D01*
X476959Y195094D01*
X478627Y194202D01*
X480438Y193653D01*
X482321Y193468D01*
X484204Y193653D01*
X486015Y194202D01*
X487684Y195094D01*
X489147Y196295D01*
X490347Y197757D01*
X491239Y199426D01*
X491788Y201237D01*
X491974Y203120D01*
X491788Y205003D01*
X491239Y206814D01*
X490347Y208483D01*
X489147Y209945D01*
X487684Y211146D01*
X486015Y212038D01*
X484204Y212587D01*
X482321Y212772D01*
D02*
G37*
G36*
X132313Y200035D02*
X131355Y199909D01*
X130462Y199539D01*
X129695Y198951D01*
X129106Y198184D01*
X128737Y197291D01*
X128611Y196333D01*
X128737Y195374D01*
X129106Y194481D01*
X129695Y193714D01*
X130462Y193126D01*
X131355Y192756D01*
X132313Y192630D01*
X133271Y192756D01*
X134164Y193126D01*
X134931Y193714D01*
X135520Y194481D01*
X135889Y195374D01*
X136015Y196333D01*
X135889Y197291D01*
X135520Y198184D01*
X134931Y198951D01*
X134164Y199539D01*
X133271Y199909D01*
X132313Y200035D01*
D02*
G37*
G36*
X121526D02*
X120567Y199909D01*
X119674Y199539D01*
X118907Y198951D01*
X118319Y198184D01*
X117949Y197291D01*
X117823Y196333D01*
X117949Y195374D01*
X118319Y194481D01*
X118907Y193714D01*
X119674Y193126D01*
X120567Y192756D01*
X121526Y192630D01*
X122484Y192756D01*
X123377Y193126D01*
X124144Y193714D01*
X124732Y194481D01*
X125102Y195374D01*
X125228Y196333D01*
X125102Y197291D01*
X124732Y198184D01*
X124144Y198951D01*
X123377Y199539D01*
X122484Y199909D01*
X121526Y200035D01*
D02*
G37*
G36*
X110699D02*
X109740Y199909D01*
X108847Y199539D01*
X108081Y198951D01*
X107492Y198184D01*
X107122Y197291D01*
X106996Y196333D01*
X107122Y195374D01*
X107492Y194481D01*
X108081Y193714D01*
X108847Y193126D01*
X109740Y192756D01*
X110699Y192630D01*
X111657Y192756D01*
X112550Y193126D01*
X113317Y193714D01*
X113905Y194481D01*
X114275Y195374D01*
X114401Y196333D01*
X114275Y197291D01*
X113905Y198184D01*
X113317Y198951D01*
X112550Y199539D01*
X111657Y199909D01*
X110699Y200035D01*
D02*
G37*
G36*
X99911D02*
X98953Y199909D01*
X98060Y199539D01*
X97293Y198951D01*
X96705Y198184D01*
X96335Y197291D01*
X96209Y196333D01*
X96335Y195374D01*
X96705Y194481D01*
X97293Y193714D01*
X98060Y193126D01*
X98953Y192756D01*
X99911Y192630D01*
X100870Y192756D01*
X101763Y193126D01*
X102530Y193714D01*
X103118Y194481D01*
X103488Y195374D01*
X103614Y196333D01*
X103488Y197291D01*
X103118Y198184D01*
X102530Y198951D01*
X101763Y199539D01*
X100870Y199909D01*
X99911Y200035D01*
D02*
G37*
G36*
X89124D02*
X88166Y199909D01*
X87273Y199539D01*
X86506Y198951D01*
X85918Y198184D01*
X85548Y197291D01*
X85422Y196333D01*
X85548Y195374D01*
X85918Y194481D01*
X86506Y193714D01*
X87273Y193126D01*
X88166Y192756D01*
X89124Y192630D01*
X90082Y192756D01*
X90975Y193126D01*
X91742Y193714D01*
X92330Y194481D01*
X92700Y195374D01*
X92826Y196333D01*
X92700Y197291D01*
X92330Y198184D01*
X91742Y198951D01*
X90975Y199539D01*
X90082Y199909D01*
X89124Y200035D01*
D02*
G37*
G36*
X78297D02*
X77339Y199909D01*
X76446Y199539D01*
X75679Y198951D01*
X75091Y198184D01*
X74721Y197291D01*
X74595Y196333D01*
X74721Y195374D01*
X75091Y194481D01*
X75679Y193714D01*
X76446Y193126D01*
X77339Y192756D01*
X78297Y192630D01*
X79255Y192756D01*
X80149Y193126D01*
X80915Y193714D01*
X81504Y194481D01*
X81874Y195374D01*
X82000Y196333D01*
X81874Y197291D01*
X81504Y198184D01*
X80915Y198951D01*
X80149Y199539D01*
X79255Y199909D01*
X78297Y200035D01*
D02*
G37*
G36*
X67510D02*
X66552Y199909D01*
X65658Y199539D01*
X64892Y198951D01*
X64303Y198184D01*
X63933Y197291D01*
X63807Y196333D01*
X63933Y195374D01*
X64303Y194481D01*
X64892Y193714D01*
X65658Y193126D01*
X66552Y192756D01*
X67510Y192630D01*
X68468Y192756D01*
X69361Y193126D01*
X70128Y193714D01*
X70716Y194481D01*
X71086Y195374D01*
X71212Y196333D01*
X71086Y197291D01*
X70716Y198184D01*
X70128Y198951D01*
X69361Y199539D01*
X68468Y199909D01*
X67510Y200035D01*
D02*
G37*
G36*
X165502Y211576D02*
X163619Y211390D01*
X161808Y210841D01*
X160139Y209949D01*
X158677Y208749D01*
X157476Y207286D01*
X156584Y205617D01*
X156035Y203806D01*
X155850Y201923D01*
X156035Y200040D01*
X156584Y198229D01*
X157476Y196561D01*
X158677Y195098D01*
X160139Y193897D01*
X161808Y193006D01*
X163619Y192456D01*
X165502Y192271D01*
X167385Y192456D01*
X169196Y193006D01*
X170865Y193897D01*
X172327Y195098D01*
X173528Y196561D01*
X174420Y198229D01*
X174969Y200040D01*
X175154Y201923D01*
X174969Y203806D01*
X174420Y205617D01*
X173528Y207286D01*
X172327Y208749D01*
X170865Y209949D01*
X169196Y210841D01*
X167385Y211390D01*
X165502Y211576D01*
D02*
G37*
G36*
X34321D02*
X32438Y211390D01*
X30627Y210841D01*
X28958Y209949D01*
X27496Y208749D01*
X26295Y207286D01*
X25403Y205617D01*
X24854Y203806D01*
X24668Y201923D01*
X24854Y200040D01*
X25403Y198229D01*
X26295Y196561D01*
X27496Y195098D01*
X28958Y193897D01*
X30627Y193006D01*
X32438Y192456D01*
X34321Y192271D01*
X36204Y192456D01*
X38015Y193006D01*
X39683Y193897D01*
X41146Y195098D01*
X42347Y196561D01*
X43238Y198229D01*
X43788Y200040D01*
X43973Y201923D01*
X43788Y203806D01*
X43238Y205617D01*
X42347Y207286D01*
X41146Y208749D01*
X39683Y209949D01*
X38015Y210841D01*
X36204Y211390D01*
X34321Y211576D01*
D02*
G37*
G36*
X527989Y192332D02*
X527367Y192209D01*
X526840Y191856D01*
X526487Y191329D01*
X526364Y190707D01*
X526487Y190085D01*
X526840Y189558D01*
X527367Y189206D01*
X527989Y189082D01*
X528611Y189206D01*
X529138Y189558D01*
X529490Y190085D01*
X529614Y190707D01*
X529490Y191329D01*
X529138Y191856D01*
X528611Y192209D01*
X527989Y192332D01*
D02*
G37*
G36*
X540331Y175152D02*
X539709Y175028D01*
X539182Y174676D01*
X538830Y174148D01*
X538706Y173527D01*
X538830Y172905D01*
X539182Y172378D01*
X539709Y172025D01*
X540331Y171902D01*
X540953Y172025D01*
X541480Y172378D01*
X541832Y172905D01*
X541956Y173527D01*
X541832Y174148D01*
X541480Y174676D01*
X540953Y175028D01*
X540331Y175152D01*
D02*
G37*
G36*
X230025Y172172D02*
X229403Y172048D01*
X228876Y171696D01*
X228782Y171555D01*
X228282D01*
X228187Y171696D01*
X227660Y172048D01*
X227038Y172172D01*
X226416Y172048D01*
X225889Y171696D01*
X225537Y171169D01*
X225413Y170547D01*
X225537Y169925D01*
X225889Y169398D01*
X226416Y169046D01*
X227038Y168922D01*
X227660Y169046D01*
X228187Y169398D01*
X228282Y169540D01*
X228782D01*
X228876Y169398D01*
X229403Y169046D01*
X230025Y168922D01*
X230647Y169046D01*
X231174Y169398D01*
X231526Y169925D01*
X231650Y170547D01*
X231526Y171169D01*
X231174Y171696D01*
X230647Y172048D01*
X230025Y172172D01*
D02*
G37*
G36*
X222983Y171484D02*
X222361Y171360D01*
X221834Y171008D01*
X221739Y170866D01*
X221239D01*
X221144Y171008D01*
X220617Y171360D01*
X219995Y171484D01*
X219374Y171360D01*
X218847Y171008D01*
X218494Y170481D01*
X218371Y169859D01*
X218494Y169237D01*
X218847Y168710D01*
X219374Y168358D01*
X219995Y168234D01*
X220617Y168358D01*
X221144Y168710D01*
X221239Y168852D01*
X221739D01*
X221834Y168710D01*
X222361Y168358D01*
X222983Y168234D01*
X223605Y168358D01*
X224132Y168710D01*
X224484Y169237D01*
X224608Y169859D01*
X224484Y170481D01*
X224132Y171008D01*
X223605Y171360D01*
X222983Y171484D01*
D02*
G37*
G36*
X360437Y172298D02*
X359816Y172174D01*
X359289Y171822D01*
X358936Y171295D01*
X358813Y170673D01*
X358936Y170051D01*
X359289Y169524D01*
X359816Y169172D01*
X360437Y169048D01*
X361059Y169172D01*
X361586Y169524D01*
X361939Y170051D01*
X362062Y170673D01*
X361939Y171295D01*
X361586Y171822D01*
X361059Y172174D01*
X360437Y172298D01*
D02*
G37*
G36*
X540331Y171317D02*
X539709Y171193D01*
X539182Y170841D01*
X538830Y170313D01*
X538706Y169692D01*
X538830Y169070D01*
X539182Y168543D01*
X539709Y168190D01*
X540331Y168067D01*
X540953Y168190D01*
X541480Y168543D01*
X541832Y169070D01*
X541956Y169692D01*
X541832Y170313D01*
X541480Y170841D01*
X540953Y171193D01*
X540331Y171317D01*
D02*
G37*
G36*
X354650Y170890D02*
X354028Y170766D01*
X353501Y170414D01*
X353149Y169887D01*
X353025Y169265D01*
X353149Y168643D01*
X353501Y168116D01*
X354028Y167764D01*
X354650Y167640D01*
X355272Y167764D01*
X355799Y168116D01*
X356151Y168643D01*
X356275Y169265D01*
X356151Y169887D01*
X355799Y170414D01*
X355272Y170766D01*
X354650Y170890D01*
D02*
G37*
G36*
X607118Y172681D02*
X606190Y172559D01*
X605326Y172201D01*
X604584Y171631D01*
X604014Y170889D01*
X603656Y170025D01*
X603534Y169097D01*
X603656Y168170D01*
X604014Y167306D01*
X604584Y166563D01*
X605326Y165994D01*
X606190Y165636D01*
X607118Y165514D01*
X608045Y165636D01*
X608909Y165994D01*
X609651Y166563D01*
X610221Y167306D01*
X610579Y168170D01*
X610701Y169097D01*
X610579Y170025D01*
X610221Y170889D01*
X609651Y171631D01*
X608909Y172201D01*
X608045Y172559D01*
X607118Y172681D01*
D02*
G37*
G36*
X597118D02*
X596190Y172559D01*
X595326Y172201D01*
X594584Y171631D01*
X594014Y170889D01*
X593656Y170025D01*
X593534Y169097D01*
X593656Y168170D01*
X594014Y167306D01*
X594584Y166563D01*
X595326Y165994D01*
X596190Y165636D01*
X597118Y165514D01*
X598045Y165636D01*
X598909Y165994D01*
X599651Y166563D01*
X600221Y167306D01*
X600579Y168170D01*
X600701Y169097D01*
X600579Y170025D01*
X600221Y170889D01*
X599651Y171631D01*
X598909Y172201D01*
X598045Y172559D01*
X597118Y172681D01*
D02*
G37*
G36*
X336670Y168090D02*
X336049Y167966D01*
X335521Y167614D01*
X335169Y167087D01*
X335045Y166465D01*
X335169Y165843D01*
X335521Y165316D01*
X336049Y164964D01*
X336670Y164840D01*
X337292Y164964D01*
X337819Y165316D01*
X338172Y165843D01*
X338295Y166465D01*
X338172Y167087D01*
X337819Y167614D01*
X337292Y167966D01*
X336670Y168090D01*
D02*
G37*
G36*
X540331Y167218D02*
X539709Y167095D01*
X539182Y166743D01*
X538830Y166215D01*
X538706Y165594D01*
X538830Y164972D01*
X539182Y164445D01*
X539709Y164092D01*
X540331Y163969D01*
X540953Y164092D01*
X541480Y164445D01*
X541832Y164972D01*
X541956Y165594D01*
X541832Y166215D01*
X541480Y166743D01*
X540953Y167095D01*
X540331Y167218D01*
D02*
G37*
G36*
X377889Y166807D02*
X377268Y166684D01*
X376740Y166332D01*
X376388Y165804D01*
X376265Y165182D01*
X376388Y164561D01*
X376740Y164033D01*
X377268Y163681D01*
X377889Y163558D01*
X378511Y163681D01*
X379038Y164033D01*
X379391Y164561D01*
X379514Y165182D01*
X379391Y165804D01*
X379038Y166332D01*
X378511Y166684D01*
X377889Y166807D01*
D02*
G37*
G36*
X632618Y163551D02*
X631996Y163427D01*
X631469Y163075D01*
X631116Y162548D01*
X630993Y161926D01*
X631116Y161304D01*
X631469Y160777D01*
X631996Y160425D01*
X632618Y160301D01*
X633240Y160425D01*
X633767Y160777D01*
X634119Y161304D01*
X634243Y161926D01*
X634119Y162548D01*
X633767Y163075D01*
X633240Y163427D01*
X632618Y163551D01*
D02*
G37*
G36*
X628827D02*
X628206Y163427D01*
X627678Y163075D01*
X627326Y162548D01*
X627203Y161926D01*
X627326Y161304D01*
X627678Y160777D01*
X628206Y160425D01*
X628827Y160301D01*
X629449Y160425D01*
X629976Y160777D01*
X630329Y161304D01*
X630452Y161926D01*
X630329Y162548D01*
X629976Y163075D01*
X629449Y163427D01*
X628827Y163551D01*
D02*
G37*
G36*
X625037D02*
X624415Y163427D01*
X623888Y163075D01*
X623536Y162548D01*
X623412Y161926D01*
X623536Y161304D01*
X623888Y160777D01*
X624415Y160425D01*
X625037Y160301D01*
X625659Y160425D01*
X626186Y160777D01*
X626538Y161304D01*
X626662Y161926D01*
X626538Y162548D01*
X626186Y163075D01*
X625659Y163427D01*
X625037Y163551D01*
D02*
G37*
G36*
X268418Y166226D02*
X267796Y166102D01*
X267269Y165750D01*
X266917Y165223D01*
X266793Y164601D01*
X266917Y163979D01*
X267151Y163629D01*
X267135Y163239D01*
X267002Y163029D01*
X266602Y162762D01*
X266250Y162235D01*
X266126Y161613D01*
X266250Y160992D01*
X266602Y160464D01*
X267130Y160112D01*
X267751Y159988D01*
X268373Y160112D01*
X268900Y160464D01*
X269253Y160992D01*
X269376Y161613D01*
X269253Y162235D01*
X269019Y162585D01*
X269035Y162975D01*
X269168Y163185D01*
X269567Y163452D01*
X269919Y163979D01*
X270043Y164601D01*
X269919Y165223D01*
X269567Y165750D01*
X269040Y166102D01*
X268418Y166226D01*
D02*
G37*
G36*
X364391Y160990D02*
X363770Y160867D01*
X363243Y160514D01*
X362890Y159987D01*
X362767Y159365D01*
X362890Y158744D01*
X363243Y158217D01*
X363770Y157864D01*
X364391Y157741D01*
X365013Y157864D01*
X365540Y158217D01*
X365893Y158744D01*
X366016Y159365D01*
X365893Y159987D01*
X365540Y160514D01*
X365013Y160867D01*
X364391Y160990D01*
D02*
G37*
G36*
X151665Y158902D02*
X144559D01*
Y151796D01*
X151665D01*
Y158902D01*
D02*
G37*
G36*
X168112Y158932D02*
X167185Y158810D01*
X166321Y158452D01*
X165578Y157883D01*
X165009Y157141D01*
X164651Y156276D01*
X164529Y155349D01*
X164651Y154421D01*
X165009Y153557D01*
X165578Y152815D01*
X166321Y152245D01*
X167185Y151888D01*
X168112Y151765D01*
X169040Y151888D01*
X169904Y152245D01*
X170646Y152815D01*
X171215Y153557D01*
X171573Y154421D01*
X171696Y155349D01*
X171573Y156276D01*
X171215Y157141D01*
X170646Y157883D01*
X169904Y158452D01*
X169040Y158810D01*
X168112Y158932D01*
D02*
G37*
G36*
X288619Y150299D02*
X287997Y150176D01*
X287470Y149823D01*
X287291Y149555D01*
X286696Y149544D01*
X286620Y149659D01*
X286093Y150011D01*
X285471Y150135D01*
X284849Y150011D01*
X284322Y149659D01*
X284154Y149408D01*
X283559Y149398D01*
X283032Y149750D01*
X282410Y149874D01*
X281788Y149750D01*
X281261Y149398D01*
X280909Y148871D01*
X280785Y148249D01*
X280909Y147627D01*
X281261Y147100D01*
X281788Y146748D01*
X282410Y146624D01*
X283032Y146748D01*
X283559Y147100D01*
X283727Y147351D01*
X284322Y147361D01*
X284849Y147009D01*
X285471Y146885D01*
X286093Y147009D01*
X286620Y147361D01*
X286799Y147629D01*
X287394Y147640D01*
X287470Y147526D01*
X287997Y147173D01*
X288619Y147050D01*
X289241Y147173D01*
X289768Y147526D01*
X290120Y148053D01*
X290244Y148674D01*
X290120Y149296D01*
X289768Y149823D01*
X289241Y150176D01*
X288619Y150299D01*
D02*
G37*
G36*
X257448Y151277D02*
X256826Y151153D01*
X256298Y150801D01*
X255946Y150274D01*
X255823Y149652D01*
X255946Y149030D01*
X256298Y148503D01*
X256826Y148151D01*
X257448Y148027D01*
X258069Y148151D01*
X258596Y148503D01*
X258949Y149030D01*
X259072Y149652D01*
X258949Y150274D01*
X258596Y150801D01*
X258069Y151153D01*
X257448Y151277D01*
D02*
G37*
G36*
X292874Y149083D02*
X292252Y148960D01*
X291725Y148608D01*
X291373Y148080D01*
X291249Y147459D01*
X291373Y146837D01*
X291725Y146309D01*
X292252Y145957D01*
X292874Y145834D01*
X293496Y145957D01*
X294012Y145701D01*
X294050Y145511D01*
X294402Y144984D01*
X294929Y144632D01*
X295551Y144508D01*
X296173Y144632D01*
X296700Y144984D01*
X297053Y145511D01*
X297176Y146133D01*
X297053Y146755D01*
X296700Y147282D01*
X296173Y147634D01*
X295551Y147758D01*
X294930Y147634D01*
X294413Y147891D01*
X294375Y148080D01*
X294023Y148608D01*
X293496Y148960D01*
X292874Y149083D01*
D02*
G37*
G36*
X464330Y146823D02*
X463708Y146699D01*
X463181Y146346D01*
X462828Y145819D01*
X462705Y145198D01*
X462828Y144576D01*
X463181Y144049D01*
X463708Y143696D01*
X464330Y143573D01*
X464952Y143696D01*
X465479Y144049D01*
X465831Y144576D01*
X465954Y145198D01*
X465831Y145819D01*
X465479Y146346D01*
X464952Y146699D01*
X464330Y146823D01*
D02*
G37*
G36*
X434429Y144149D02*
X433807Y144025D01*
X433280Y143673D01*
X432928Y143146D01*
X432804Y142524D01*
X432928Y141902D01*
X433280Y141375D01*
X433807Y141023D01*
X434429Y140899D01*
X435051Y141023D01*
X435578Y141375D01*
X435930Y141902D01*
X436054Y142524D01*
X435930Y143146D01*
X435578Y143673D01*
X435051Y144025D01*
X434429Y144149D01*
D02*
G37*
G36*
X280874Y141849D02*
X280252Y141725D01*
X279725Y141373D01*
X279373Y140846D01*
X279249Y140224D01*
X279373Y139602D01*
X279725Y139075D01*
X280252Y138723D01*
X280874Y138599D01*
X281496Y138723D01*
X282023Y139075D01*
X282375Y139602D01*
X282499Y140224D01*
X282375Y140846D01*
X282023Y141373D01*
X281496Y141725D01*
X280874Y141849D01*
D02*
G37*
G36*
X236062Y141070D02*
X235440Y140946D01*
X234913Y140594D01*
X234561Y140067D01*
X234437Y139445D01*
X234561Y138823D01*
X234913Y138296D01*
X235440Y137944D01*
X236062Y137820D01*
X236684Y137944D01*
X237211Y138296D01*
X237563Y138823D01*
X237687Y139445D01*
X237563Y140067D01*
X237211Y140594D01*
X236684Y140946D01*
X236062Y141070D01*
D02*
G37*
G36*
X245905Y140702D02*
X245283Y140578D01*
X244756Y140226D01*
X244404Y139699D01*
X244280Y139077D01*
X244404Y138455D01*
X244756Y137928D01*
X245283Y137576D01*
X245905Y137452D01*
X246527Y137576D01*
X247054Y137928D01*
X247406Y138455D01*
X247530Y139077D01*
X247406Y139699D01*
X247054Y140226D01*
X246527Y140578D01*
X245905Y140702D01*
D02*
G37*
G36*
X15792Y139945D02*
X15170Y139821D01*
X14643Y139469D01*
X14290Y138941D01*
X14167Y138320D01*
X14290Y137698D01*
X14643Y137171D01*
X15170Y136818D01*
X15792Y136695D01*
X16413Y136818D01*
X16941Y137171D01*
X17293Y137698D01*
X17416Y138320D01*
X17293Y138941D01*
X16941Y139469D01*
X16413Y139821D01*
X15792Y139945D01*
D02*
G37*
G36*
X9792D02*
X9170Y139821D01*
X8643Y139469D01*
X8290Y138941D01*
X8167Y138320D01*
X8290Y137698D01*
X8643Y137171D01*
X9170Y136818D01*
X9792Y136695D01*
X10413Y136818D01*
X10941Y137171D01*
X11293Y137698D01*
X11417Y138320D01*
X11293Y138941D01*
X10941Y139469D01*
X10413Y139821D01*
X9792Y139945D01*
D02*
G37*
G36*
X3792D02*
X3170Y139821D01*
X2643Y139469D01*
X2290Y138941D01*
X2167Y138320D01*
X2290Y137698D01*
X2643Y137171D01*
X3170Y136818D01*
X3792Y136695D01*
X4413Y136818D01*
X4941Y137171D01*
X5293Y137698D01*
X5416Y138320D01*
X5293Y138941D01*
X4941Y139469D01*
X4413Y139821D01*
X3792Y139945D01*
D02*
G37*
G36*
X251810Y140702D02*
X251188Y140578D01*
X250661Y140226D01*
X250309Y139699D01*
X250185Y139077D01*
X250309Y138455D01*
X250661Y137928D01*
X251188Y137576D01*
X251810Y137452D01*
X252432Y137576D01*
X252959Y137928D01*
X253094Y138130D01*
X253224Y138120D01*
X253595Y137980D01*
X253696Y137471D01*
X254048Y136944D01*
X254575Y136592D01*
X255197Y136468D01*
X255819Y136592D01*
X256346Y136944D01*
X256698Y137471D01*
X256822Y138093D01*
X256698Y138715D01*
X256346Y139242D01*
X255819Y139594D01*
X255197Y139718D01*
X254575Y139594D01*
X254048Y139242D01*
X253913Y139040D01*
X253783Y139050D01*
X253412Y139190D01*
X253311Y139699D01*
X252959Y140226D01*
X252432Y140578D01*
X251810Y140702D01*
D02*
G37*
G36*
X138619Y139610D02*
X137997Y139487D01*
X137470Y139134D01*
X137118Y138607D01*
X136994Y137985D01*
X137118Y137364D01*
X137470Y136836D01*
X137997Y136484D01*
X138619Y136361D01*
X139241Y136484D01*
X139768Y136836D01*
X140120Y137364D01*
X140244Y137985D01*
X140120Y138607D01*
X139768Y139134D01*
X139241Y139487D01*
X138619Y139610D01*
D02*
G37*
G36*
X132619D02*
X131997Y139487D01*
X131470Y139134D01*
X131118Y138607D01*
X130994Y137985D01*
X131118Y137364D01*
X131470Y136836D01*
X131997Y136484D01*
X132619Y136361D01*
X133241Y136484D01*
X133768Y136836D01*
X134120Y137364D01*
X134244Y137985D01*
X134120Y138607D01*
X133768Y139134D01*
X133241Y139487D01*
X132619Y139610D01*
D02*
G37*
G36*
X126619D02*
X125997Y139487D01*
X125470Y139134D01*
X125118Y138607D01*
X124994Y137985D01*
X125118Y137364D01*
X125470Y136836D01*
X125997Y136484D01*
X126619Y136361D01*
X127241Y136484D01*
X127768Y136836D01*
X128120Y137364D01*
X128244Y137985D01*
X128120Y138607D01*
X127768Y139134D01*
X127241Y139487D01*
X126619Y139610D01*
D02*
G37*
G36*
X120619D02*
X119997Y139487D01*
X119470Y139134D01*
X119118Y138607D01*
X118994Y137985D01*
X119118Y137364D01*
X119470Y136836D01*
X119997Y136484D01*
X120619Y136361D01*
X121241Y136484D01*
X121768Y136836D01*
X122120Y137364D01*
X122244Y137985D01*
X122120Y138607D01*
X121768Y139134D01*
X121241Y139487D01*
X120619Y139610D01*
D02*
G37*
G36*
X200716Y138429D02*
X200094Y138305D01*
X199567Y137953D01*
X199215Y137426D01*
X199091Y136804D01*
X199215Y136182D01*
X199567Y135655D01*
X200094Y135303D01*
X200716Y135179D01*
X201338Y135303D01*
X201865Y135655D01*
X202217Y136182D01*
X202341Y136804D01*
X202217Y137426D01*
X201865Y137953D01*
X201338Y138305D01*
X200716Y138429D01*
D02*
G37*
G36*
X307417Y138078D02*
X306795Y137954D01*
X306267Y137602D01*
X305915Y137075D01*
X305792Y136453D01*
X305915Y135831D01*
X306267Y135304D01*
X306795Y134952D01*
X307417Y134828D01*
X308038Y134952D01*
X308565Y135304D01*
X308918Y135831D01*
X309042Y136453D01*
X308918Y137075D01*
X308565Y137602D01*
X308038Y137954D01*
X307417Y138078D01*
D02*
G37*
G36*
X258572Y137441D02*
X257951Y137317D01*
X257423Y136965D01*
X257071Y136437D01*
X256947Y135816D01*
X257071Y135194D01*
X257423Y134667D01*
X257951Y134314D01*
X258572Y134191D01*
X259194Y134314D01*
X259721Y134667D01*
X260074Y135194D01*
X260197Y135816D01*
X260074Y136437D01*
X259721Y136965D01*
X259194Y137317D01*
X258572Y137441D01*
D02*
G37*
G36*
X268208Y137265D02*
X267586Y137142D01*
X267059Y136789D01*
X266707Y136262D01*
X266583Y135640D01*
X266707Y135019D01*
X267059Y134491D01*
X267586Y134139D01*
X268208Y134016D01*
X268830Y134139D01*
X269357Y134491D01*
X269709Y135019D01*
X269833Y135640D01*
X269709Y136262D01*
X269357Y136789D01*
X268830Y137142D01*
X268208Y137265D01*
D02*
G37*
G36*
X356595Y136456D02*
X355973Y136333D01*
X355446Y135980D01*
X355094Y135453D01*
X354970Y134831D01*
X355094Y134210D01*
X355446Y133682D01*
X355973Y133330D01*
X356595Y133206D01*
X357217Y133330D01*
X357744Y133682D01*
X358096Y134210D01*
X358220Y134831D01*
X358096Y135453D01*
X357744Y135980D01*
X357217Y136333D01*
X356595Y136456D01*
D02*
G37*
G36*
X342853D02*
X342231Y136333D01*
X341704Y135980D01*
X341352Y135453D01*
X341228Y134831D01*
X341352Y134210D01*
X341704Y133682D01*
X342231Y133330D01*
X342853Y133206D01*
X343475Y133330D01*
X344002Y133682D01*
X344355Y134210D01*
X344478Y134831D01*
X344355Y135453D01*
X344002Y135980D01*
X343475Y136333D01*
X342853Y136456D01*
D02*
G37*
G36*
X239914Y134813D02*
X239292Y134689D01*
X238765Y134337D01*
X238413Y133809D01*
X238289Y133188D01*
X238409Y132584D01*
X238367Y132526D01*
X238033Y132234D01*
X237828Y132371D01*
X237206Y132495D01*
X236584Y132371D01*
X236057Y132019D01*
X235705Y131492D01*
X235581Y130870D01*
X235705Y130248D01*
X235837Y130051D01*
X235804Y129981D01*
X235506Y129646D01*
X235012Y129744D01*
X234390Y129620D01*
X233863Y129268D01*
X233511Y128741D01*
X233387Y128119D01*
X233511Y127497D01*
X233863Y126970D01*
X234390Y126618D01*
X235012Y126494D01*
X235634Y126618D01*
X236161Y126970D01*
X236513Y127497D01*
X236637Y128119D01*
X236513Y128741D01*
X236382Y128938D01*
X236415Y129008D01*
X236712Y129343D01*
X237206Y129245D01*
X237828Y129369D01*
X238355Y129721D01*
X238707Y130248D01*
X238831Y130870D01*
X238711Y131474D01*
X238753Y131531D01*
X239087Y131824D01*
X239292Y131686D01*
X239914Y131563D01*
X240536Y131686D01*
X241063Y132039D01*
X241415Y132566D01*
X241539Y133188D01*
X241415Y133809D01*
X241063Y134337D01*
X240536Y134689D01*
X239914Y134813D01*
D02*
G37*
G36*
X196160Y135475D02*
X195538Y135351D01*
X195010Y134999D01*
X194658Y134472D01*
X194535Y133850D01*
X194658Y133228D01*
X195010Y132701D01*
X195538Y132349D01*
X196160Y132225D01*
X196781Y132349D01*
X197309Y132701D01*
X197661Y133228D01*
X197784Y133850D01*
X197661Y134472D01*
X197309Y134999D01*
X196781Y135351D01*
X196160Y135475D01*
D02*
G37*
G36*
X372188Y134327D02*
X371566Y134204D01*
X371039Y133851D01*
X370687Y133324D01*
X370563Y132702D01*
X370687Y132080D01*
X371039Y131553D01*
X371566Y131201D01*
X372188Y131077D01*
X372810Y131201D01*
X373337Y131553D01*
X373689Y132080D01*
X373813Y132702D01*
X373689Y133324D01*
X373337Y133851D01*
X372810Y134204D01*
X372188Y134327D01*
D02*
G37*
G36*
X367375D02*
X366754Y134204D01*
X366227Y133851D01*
X365874Y133324D01*
X365751Y132702D01*
X365874Y132080D01*
X366227Y131553D01*
X366754Y131201D01*
X367375Y131077D01*
X367997Y131201D01*
X368524Y131553D01*
X368877Y132080D01*
X369000Y132702D01*
X368877Y133324D01*
X368524Y133851D01*
X367997Y134204D01*
X367375Y134327D01*
D02*
G37*
G36*
X18792Y133944D02*
X18170Y133821D01*
X17643Y133469D01*
X17290Y132941D01*
X17167Y132320D01*
X17290Y131698D01*
X17643Y131171D01*
X18170Y130818D01*
X18792Y130695D01*
X19413Y130818D01*
X19941Y131171D01*
X20293Y131698D01*
X20416Y132320D01*
X20293Y132941D01*
X19941Y133469D01*
X19413Y133821D01*
X18792Y133944D01*
D02*
G37*
G36*
X12792D02*
X12170Y133821D01*
X11643Y133469D01*
X11290Y132941D01*
X11167Y132320D01*
X11290Y131698D01*
X11643Y131171D01*
X12170Y130818D01*
X12792Y130695D01*
X13413Y130818D01*
X13941Y131171D01*
X14293Y131698D01*
X14416Y132320D01*
X14293Y132941D01*
X13941Y133469D01*
X13413Y133821D01*
X12792Y133944D01*
D02*
G37*
G36*
X6792D02*
X6170Y133821D01*
X5643Y133469D01*
X5290Y132941D01*
X5167Y132320D01*
X5290Y131698D01*
X5643Y131171D01*
X6170Y130818D01*
X6792Y130695D01*
X7413Y130818D01*
X7941Y131171D01*
X8293Y131698D01*
X8416Y132320D01*
X8293Y132941D01*
X7941Y133469D01*
X7413Y133821D01*
X6792Y133944D01*
D02*
G37*
G36*
X792D02*
X170Y133821D01*
X-357Y133469D01*
X-710Y132941D01*
X-833Y132320D01*
X-710Y131698D01*
X-357Y131171D01*
X170Y130818D01*
X792Y130695D01*
X1413Y130818D01*
X1941Y131171D01*
X2293Y131698D01*
X2417Y132320D01*
X2293Y132941D01*
X1941Y133469D01*
X1413Y133821D01*
X792Y133944D01*
D02*
G37*
G36*
X299654Y133676D02*
X299032Y133552D01*
X298505Y133200D01*
X298153Y132673D01*
X298029Y132051D01*
X298153Y131429D01*
X298505Y130902D01*
X299032Y130550D01*
X299654Y130426D01*
X300276Y130550D01*
X300803Y130902D01*
X301155Y131429D01*
X301279Y132051D01*
X301155Y132673D01*
X300803Y133200D01*
X300276Y133552D01*
X299654Y133676D01*
D02*
G37*
G36*
X141619Y133610D02*
X140997Y133487D01*
X140470Y133134D01*
X140118Y132607D01*
X139994Y131985D01*
X140118Y131364D01*
X140470Y130836D01*
X140997Y130484D01*
X141619Y130360D01*
X142241Y130484D01*
X142768Y130836D01*
X143120Y131364D01*
X143244Y131985D01*
X143120Y132607D01*
X142768Y133134D01*
X142241Y133487D01*
X141619Y133610D01*
D02*
G37*
G36*
X135619D02*
X134997Y133487D01*
X134470Y133134D01*
X134118Y132607D01*
X133994Y131985D01*
X134118Y131364D01*
X134470Y130836D01*
X134997Y130484D01*
X135619Y130360D01*
X136241Y130484D01*
X136768Y130836D01*
X137120Y131364D01*
X137244Y131985D01*
X137120Y132607D01*
X136768Y133134D01*
X136241Y133487D01*
X135619Y133610D01*
D02*
G37*
G36*
X129619D02*
X128997Y133487D01*
X128470Y133134D01*
X128118Y132607D01*
X127994Y131985D01*
X128118Y131364D01*
X128470Y130836D01*
X128997Y130484D01*
X129619Y130360D01*
X130241Y130484D01*
X130768Y130836D01*
X131120Y131364D01*
X131244Y131985D01*
X131120Y132607D01*
X130768Y133134D01*
X130241Y133487D01*
X129619Y133610D01*
D02*
G37*
G36*
X123619D02*
X122997Y133487D01*
X122470Y133134D01*
X122118Y132607D01*
X121994Y131985D01*
X122118Y131364D01*
X122470Y130836D01*
X122997Y130484D01*
X123619Y130360D01*
X124241Y130484D01*
X124768Y130836D01*
X125120Y131364D01*
X125244Y131985D01*
X125120Y132607D01*
X124768Y133134D01*
X124241Y133487D01*
X123619Y133610D01*
D02*
G37*
G36*
X117619D02*
X116997Y133487D01*
X116470Y133134D01*
X116118Y132607D01*
X115994Y131985D01*
X116118Y131364D01*
X116470Y130836D01*
X116997Y130484D01*
X117619Y130360D01*
X118241Y130484D01*
X118768Y130836D01*
X119120Y131364D01*
X119244Y131985D01*
X119120Y132607D01*
X118768Y133134D01*
X118241Y133487D01*
X117619Y133610D01*
D02*
G37*
G36*
X448536Y133102D02*
X447914Y132978D01*
X447387Y132626D01*
X447035Y132099D01*
X446911Y131477D01*
X447035Y130856D01*
X447387Y130328D01*
X447914Y129976D01*
X448536Y129852D01*
X449158Y129976D01*
X449685Y130328D01*
X450037Y130856D01*
X450161Y131477D01*
X450037Y132099D01*
X449685Y132626D01*
X449158Y132978D01*
X448536Y133102D01*
D02*
G37*
G36*
X171665Y136153D02*
X164559D01*
Y129048D01*
X171665D01*
Y136153D01*
D02*
G37*
G36*
X158112Y136184D02*
X157185Y136062D01*
X156321Y135704D01*
X155578Y135134D01*
X155009Y134392D01*
X154651Y133528D01*
X154529Y132601D01*
X154651Y131673D01*
X155009Y130809D01*
X155578Y130067D01*
X156321Y129497D01*
X157185Y129139D01*
X158112Y129017D01*
X159040Y129139D01*
X159904Y129497D01*
X160646Y130067D01*
X161215Y130809D01*
X161574Y131673D01*
X161696Y132601D01*
X161574Y133528D01*
X161215Y134392D01*
X160646Y135134D01*
X159904Y135704D01*
X159040Y136062D01*
X158112Y136184D01*
D02*
G37*
G36*
X148112D02*
X147185Y136062D01*
X146320Y135704D01*
X145578Y135134D01*
X145009Y134392D01*
X144651Y133528D01*
X144529Y132601D01*
X144651Y131673D01*
X145009Y130809D01*
X145578Y130067D01*
X146320Y129497D01*
X147185Y129139D01*
X148112Y129017D01*
X149040Y129139D01*
X149904Y129497D01*
X150646Y130067D01*
X151216Y130809D01*
X151574Y131673D01*
X151696Y132601D01*
X151574Y133528D01*
X151216Y134392D01*
X150646Y135134D01*
X149904Y135704D01*
X149040Y136062D01*
X148112Y136184D01*
D02*
G37*
G36*
X315335Y131708D02*
X314713Y131584D01*
X314186Y131232D01*
X313834Y130704D01*
X313710Y130083D01*
X313834Y129461D01*
X314186Y128934D01*
X314713Y128581D01*
X315335Y128458D01*
X315957Y128581D01*
X316484Y128934D01*
X316836Y129461D01*
X316960Y130083D01*
X316836Y130704D01*
X316484Y131232D01*
X315957Y131584D01*
X315335Y131708D01*
D02*
G37*
G36*
X307530Y130443D02*
X306908Y130319D01*
X306381Y129966D01*
X306029Y129439D01*
X305905Y128817D01*
X306029Y128196D01*
X306381Y127669D01*
X306908Y127316D01*
X307530Y127193D01*
X308152Y127316D01*
X308679Y127669D01*
X309031Y128196D01*
X309155Y128817D01*
X309031Y129439D01*
X308679Y129966D01*
X308152Y130319D01*
X307530Y130443D01*
D02*
G37*
G36*
X214418Y130124D02*
X213796Y130001D01*
X213269Y129648D01*
X212917Y129121D01*
X212793Y128499D01*
X212917Y127878D01*
X213269Y127350D01*
X213796Y126998D01*
X214418Y126875D01*
X215040Y126998D01*
X215567Y127350D01*
X215919Y127878D01*
X216043Y128499D01*
X215919Y129121D01*
X215567Y129648D01*
X215040Y130001D01*
X214418Y130124D01*
D02*
G37*
G36*
X202886Y135073D02*
X202265Y134950D01*
X201737Y134597D01*
X201385Y134070D01*
X201261Y133448D01*
X201385Y132826D01*
X201737Y132299D01*
X202265Y131947D01*
X202801Y131840D01*
X202920Y131570D01*
X202951Y131340D01*
X202790Y131232D01*
X202437Y130704D01*
X202314Y130083D01*
X202437Y129461D01*
X202790Y128934D01*
X203317Y128581D01*
X203939Y128458D01*
X204245Y128519D01*
X204501Y128060D01*
X204238Y127666D01*
X204114Y127045D01*
X204238Y126423D01*
X204590Y125896D01*
X205117Y125543D01*
X205739Y125420D01*
X206361Y125543D01*
X206888Y125896D01*
X207240Y126423D01*
X207364Y127045D01*
X207240Y127666D01*
X206888Y128194D01*
X206361Y128546D01*
X205739Y128670D01*
X205433Y128609D01*
X205177Y129068D01*
X205440Y129461D01*
X205564Y130083D01*
X205440Y130704D01*
X205088Y131232D01*
X204560Y131584D01*
X204024Y131691D01*
X203905Y131961D01*
X203874Y132191D01*
X204035Y132299D01*
X204388Y132826D01*
X204511Y133448D01*
X204388Y134070D01*
X204035Y134597D01*
X203508Y134950D01*
X202886Y135073D01*
D02*
G37*
G36*
X329896Y128487D02*
X329274Y128363D01*
X328747Y128011D01*
X328395Y127483D01*
X328271Y126862D01*
X328395Y126240D01*
X328747Y125713D01*
X329274Y125360D01*
X329896Y125237D01*
X330518Y125360D01*
X331045Y125713D01*
X331397Y126240D01*
X331521Y126862D01*
X331397Y127483D01*
X331045Y128011D01*
X330518Y128363D01*
X329896Y128487D01*
D02*
G37*
G36*
X138224Y128005D02*
X137602Y127882D01*
X137075Y127530D01*
X136723Y127002D01*
X136599Y126381D01*
X136723Y125759D01*
X137075Y125232D01*
X137602Y124879D01*
X138224Y124756D01*
X138846Y124879D01*
X139373Y125232D01*
X139725Y125759D01*
X139849Y126381D01*
X139725Y127002D01*
X139373Y127530D01*
X138846Y127882D01*
X138224Y128005D01*
D02*
G37*
G36*
X15792Y127945D02*
X15170Y127821D01*
X14643Y127469D01*
X14290Y126941D01*
X14167Y126320D01*
X14290Y125698D01*
X14643Y125171D01*
X15170Y124818D01*
X15792Y124695D01*
X16413Y124818D01*
X16941Y125171D01*
X17293Y125698D01*
X17416Y126320D01*
X17293Y126941D01*
X16941Y127469D01*
X16413Y127821D01*
X15792Y127945D01*
D02*
G37*
G36*
X9792D02*
X9170Y127821D01*
X8643Y127469D01*
X8290Y126941D01*
X8167Y126320D01*
X8290Y125698D01*
X8643Y125171D01*
X9170Y124818D01*
X9792Y124695D01*
X10413Y124818D01*
X10941Y125171D01*
X11293Y125698D01*
X11417Y126320D01*
X11293Y126941D01*
X10941Y127469D01*
X10413Y127821D01*
X9792Y127945D01*
D02*
G37*
G36*
X3792D02*
X3170Y127821D01*
X2643Y127469D01*
X2290Y126941D01*
X2167Y126320D01*
X2290Y125698D01*
X2643Y125171D01*
X3170Y124818D01*
X3792Y124695D01*
X4413Y124818D01*
X4941Y125171D01*
X5293Y125698D01*
X5416Y126320D01*
X5293Y126941D01*
X4941Y127469D01*
X4413Y127821D01*
X3792Y127945D01*
D02*
G37*
G36*
X440245Y127713D02*
X439623Y127590D01*
X439096Y127237D01*
X438744Y126710D01*
X438620Y126088D01*
X438744Y125467D01*
X439096Y124939D01*
X439623Y124587D01*
X440245Y124463D01*
X440867Y124587D01*
X441394Y124939D01*
X441746Y125467D01*
X441870Y126088D01*
X441746Y126710D01*
X441394Y127237D01*
X440867Y127590D01*
X440245Y127713D01*
D02*
G37*
G36*
X132619Y127610D02*
X131997Y127487D01*
X131470Y127134D01*
X131118Y126607D01*
X130994Y125985D01*
X131118Y125364D01*
X131470Y124836D01*
X131997Y124484D01*
X132619Y124361D01*
X133241Y124484D01*
X133768Y124836D01*
X134120Y125364D01*
X134244Y125985D01*
X134120Y126607D01*
X133768Y127134D01*
X133241Y127487D01*
X132619Y127610D01*
D02*
G37*
G36*
X126619D02*
X125997Y127487D01*
X125470Y127134D01*
X125118Y126607D01*
X124994Y125985D01*
X125118Y125364D01*
X125470Y124836D01*
X125997Y124484D01*
X126619Y124361D01*
X127241Y124484D01*
X127768Y124836D01*
X128120Y125364D01*
X128244Y125985D01*
X128120Y126607D01*
X127768Y127134D01*
X127241Y127487D01*
X126619Y127610D01*
D02*
G37*
G36*
X120619D02*
X119997Y127487D01*
X119470Y127134D01*
X119118Y126607D01*
X118994Y125985D01*
X119118Y125364D01*
X119470Y124836D01*
X119997Y124484D01*
X120619Y124361D01*
X121241Y124484D01*
X121768Y124836D01*
X122120Y125364D01*
X122244Y125985D01*
X122120Y126607D01*
X121768Y127134D01*
X121241Y127487D01*
X120619Y127610D01*
D02*
G37*
G36*
X429398Y127463D02*
X428776Y127340D01*
X428249Y126988D01*
X427897Y126460D01*
X427773Y125839D01*
X427897Y125217D01*
X428249Y124690D01*
X428776Y124337D01*
X429398Y124214D01*
X430020Y124337D01*
X430547Y124690D01*
X430899Y125217D01*
X431023Y125839D01*
X430899Y126460D01*
X430547Y126988D01*
X430020Y127340D01*
X429398Y127463D01*
D02*
G37*
G36*
X418357Y127356D02*
X417735Y127232D01*
X417207Y126880D01*
X416855Y126352D01*
X416732Y125731D01*
X416855Y125109D01*
X417207Y124582D01*
X417735Y124229D01*
X418357Y124106D01*
X418978Y124229D01*
X419506Y124582D01*
X419858Y125109D01*
X419981Y125731D01*
X419858Y126352D01*
X419506Y126880D01*
X418978Y127232D01*
X418357Y127356D01*
D02*
G37*
G36*
X464330Y127337D02*
X463708Y127213D01*
X463181Y126861D01*
X462828Y126333D01*
X462705Y125712D01*
X462828Y125090D01*
X463181Y124563D01*
X463708Y124211D01*
X464330Y124087D01*
X464952Y124211D01*
X465479Y124563D01*
X465831Y125090D01*
X465954Y125712D01*
X465831Y126333D01*
X465479Y126861D01*
X464952Y127213D01*
X464330Y127337D01*
D02*
G37*
G36*
X451906Y127279D02*
X451285Y127156D01*
X450757Y126804D01*
X450405Y126276D01*
X450281Y125655D01*
X450405Y125033D01*
X450757Y124506D01*
X451285Y124153D01*
X451906Y124030D01*
X452528Y124153D01*
X453055Y124506D01*
X453407Y125033D01*
X453531Y125655D01*
X453407Y126276D01*
X453055Y126804D01*
X452528Y127156D01*
X451906Y127279D01*
D02*
G37*
G36*
X290901Y126450D02*
X290279Y126326D01*
X289752Y125974D01*
X289400Y125447D01*
X289276Y124825D01*
X289400Y124203D01*
X289752Y123676D01*
X290279Y123324D01*
X290901Y123200D01*
X291523Y123324D01*
X292050Y123676D01*
X292402Y124203D01*
X292526Y124825D01*
X292402Y125447D01*
X292050Y125974D01*
X291523Y126326D01*
X290901Y126450D01*
D02*
G37*
G36*
X229500Y122000D02*
X228878Y121877D01*
X228351Y121524D01*
X228256Y121382D01*
X227756D01*
X227661Y121524D01*
X227134Y121877D01*
X226512Y122000D01*
X225890Y121877D01*
X225363Y121524D01*
X225269Y121382D01*
X224769D01*
X224674Y121524D01*
X224147Y121877D01*
X223525Y122000D01*
X222903Y121877D01*
X222376Y121524D01*
X222298Y121407D01*
X221696D01*
X221618Y121524D01*
X221091Y121877D01*
X220469Y122000D01*
X219848Y121877D01*
X219320Y121524D01*
X218968Y120997D01*
X218845Y120375D01*
X218968Y119753D01*
X219320Y119226D01*
X219848Y118874D01*
X220469Y118750D01*
X221091Y118874D01*
X221618Y119226D01*
X221696Y119343D01*
X222298D01*
X222376Y119226D01*
X222903Y118874D01*
X223525Y118750D01*
X224147Y118874D01*
X224674Y119226D01*
X224769Y119368D01*
X225269D01*
X225363Y119226D01*
X225890Y118874D01*
X226512Y118750D01*
X227134Y118874D01*
X227661Y119226D01*
X227756Y119368D01*
X228256D01*
X228351Y119226D01*
X228878Y118874D01*
X229500Y118750D01*
X230121Y118874D01*
X230649Y119226D01*
X231001Y119753D01*
X231125Y120375D01*
X231001Y120997D01*
X230649Y121524D01*
X230121Y121877D01*
X229500Y122000D01*
D02*
G37*
G36*
X477111Y122485D02*
X476489Y122362D01*
X475962Y122009D01*
X475610Y121482D01*
X475486Y120860D01*
X475610Y120238D01*
X475962Y119711D01*
X476489Y119359D01*
X477111Y119235D01*
X477733Y119359D01*
X478260Y119711D01*
X478612Y120238D01*
X478736Y120860D01*
X478612Y121482D01*
X478260Y122009D01*
X477733Y122362D01*
X477111Y122485D01*
D02*
G37*
G36*
X24792Y121944D02*
X24170Y121821D01*
X23643Y121469D01*
X23290Y120941D01*
X23167Y120320D01*
X23290Y119698D01*
X23643Y119171D01*
X24170Y118818D01*
X24792Y118695D01*
X25413Y118818D01*
X25941Y119171D01*
X26293Y119698D01*
X26417Y120320D01*
X26293Y120941D01*
X25941Y121469D01*
X25413Y121821D01*
X24792Y121944D01*
D02*
G37*
G36*
X18792D02*
X18170Y121821D01*
X17643Y121469D01*
X17290Y120941D01*
X17167Y120320D01*
X17290Y119698D01*
X17643Y119171D01*
X18170Y118818D01*
X18792Y118695D01*
X19413Y118818D01*
X19941Y119171D01*
X20293Y119698D01*
X20416Y120320D01*
X20293Y120941D01*
X19941Y121469D01*
X19413Y121821D01*
X18792Y121944D01*
D02*
G37*
G36*
X12792D02*
X12170Y121821D01*
X11643Y121469D01*
X11290Y120941D01*
X11167Y120320D01*
X11290Y119698D01*
X11643Y119171D01*
X12170Y118818D01*
X12792Y118695D01*
X13413Y118818D01*
X13941Y119171D01*
X14293Y119698D01*
X14416Y120320D01*
X14293Y120941D01*
X13941Y121469D01*
X13413Y121821D01*
X12792Y121944D01*
D02*
G37*
G36*
X6792D02*
X6170Y121821D01*
X5643Y121469D01*
X5290Y120941D01*
X5167Y120320D01*
X5290Y119698D01*
X5643Y119171D01*
X6170Y118818D01*
X6792Y118695D01*
X7413Y118818D01*
X7941Y119171D01*
X8293Y119698D01*
X8416Y120320D01*
X8293Y120941D01*
X7941Y121469D01*
X7413Y121821D01*
X6792Y121944D01*
D02*
G37*
G36*
X792D02*
X170Y121821D01*
X-357Y121469D01*
X-710Y120941D01*
X-833Y120320D01*
X-710Y119698D01*
X-357Y119171D01*
X170Y118818D01*
X792Y118695D01*
X1413Y118818D01*
X1941Y119171D01*
X2293Y119698D01*
X2417Y120320D01*
X2293Y120941D01*
X1941Y121469D01*
X1413Y121821D01*
X792Y121944D01*
D02*
G37*
G36*
X141619Y121610D02*
X140997Y121487D01*
X140470Y121134D01*
X140118Y120607D01*
X139994Y119985D01*
X140118Y119364D01*
X140470Y118836D01*
X140997Y118484D01*
X141619Y118360D01*
X142241Y118484D01*
X142768Y118836D01*
X143120Y119364D01*
X143244Y119985D01*
X143120Y120607D01*
X142768Y121134D01*
X142241Y121487D01*
X141619Y121610D01*
D02*
G37*
G36*
X129619D02*
X128997Y121487D01*
X128470Y121134D01*
X128118Y120607D01*
X127994Y119985D01*
X128118Y119364D01*
X128470Y118836D01*
X128997Y118484D01*
X129619Y118360D01*
X130241Y118484D01*
X130768Y118836D01*
X131120Y119364D01*
X131244Y119985D01*
X131120Y120607D01*
X130768Y121134D01*
X130241Y121487D01*
X129619Y121610D01*
D02*
G37*
G36*
X123619D02*
X122997Y121487D01*
X122470Y121134D01*
X122118Y120607D01*
X121994Y119985D01*
X122118Y119364D01*
X122470Y118836D01*
X122997Y118484D01*
X123619Y118360D01*
X124241Y118484D01*
X124768Y118836D01*
X125120Y119364D01*
X125244Y119985D01*
X125120Y120607D01*
X124768Y121134D01*
X124241Y121487D01*
X123619Y121610D01*
D02*
G37*
G36*
X117619D02*
X116997Y121487D01*
X116470Y121134D01*
X116118Y120607D01*
X115994Y119985D01*
X116118Y119364D01*
X116470Y118836D01*
X116997Y118484D01*
X117619Y118360D01*
X118241Y118484D01*
X118768Y118836D01*
X119120Y119364D01*
X119244Y119985D01*
X119120Y120607D01*
X118768Y121134D01*
X118241Y121487D01*
X117619Y121610D01*
D02*
G37*
G36*
X202547Y123300D02*
X201925Y123176D01*
X201398Y122824D01*
X201046Y122297D01*
X200922Y121675D01*
X201046Y121053D01*
X201398Y120526D01*
X201925Y120174D01*
X202547Y120050D01*
X202839Y120108D01*
X203278Y119828D01*
X203309Y119731D01*
X203415Y119198D01*
X203768Y118671D01*
X204295Y118319D01*
X204917Y118195D01*
X205538Y118319D01*
X206066Y118671D01*
X206418Y119198D01*
X206541Y119820D01*
X206418Y120442D01*
X206066Y120969D01*
X205538Y121321D01*
X204917Y121445D01*
X204624Y121387D01*
X204185Y121667D01*
X204154Y121764D01*
X204048Y122297D01*
X203696Y122824D01*
X203169Y123176D01*
X202547Y123300D01*
D02*
G37*
G36*
X137392Y119837D02*
X136770Y119714D01*
X136243Y119361D01*
X135891Y118834D01*
X135767Y118212D01*
X135891Y117591D01*
X136243Y117063D01*
X136770Y116711D01*
X137392Y116587D01*
X138014Y116711D01*
X138541Y117063D01*
X138893Y117591D01*
X139017Y118212D01*
X138893Y118834D01*
X138541Y119361D01*
X138014Y119714D01*
X137392Y119837D01*
D02*
G37*
G36*
X198169Y118625D02*
X197547Y118501D01*
X197020Y118149D01*
X196667Y117622D01*
X196544Y117000D01*
X196667Y116378D01*
X197020Y115851D01*
X197547Y115498D01*
X198169Y115375D01*
X198791Y115498D01*
X199318Y115851D01*
X199670Y116378D01*
X199794Y117000D01*
X199670Y117622D01*
X199318Y118149D01*
X198791Y118501D01*
X198169Y118625D01*
D02*
G37*
G36*
X453486Y118606D02*
X452864Y118483D01*
X452337Y118131D01*
X451985Y117603D01*
X451861Y116981D01*
X451985Y116360D01*
X452337Y115832D01*
X452864Y115480D01*
X453486Y115357D01*
X454108Y115480D01*
X454635Y115832D01*
X454987Y116360D01*
X455111Y116981D01*
X454987Y117603D01*
X454635Y118131D01*
X454108Y118483D01*
X453486Y118606D01*
D02*
G37*
G36*
X441264D02*
X440642Y118483D01*
X440115Y118131D01*
X439763Y117603D01*
X439639Y116981D01*
X439763Y116360D01*
X440115Y115832D01*
X440642Y115480D01*
X441264Y115357D01*
X441886Y115480D01*
X442413Y115832D01*
X442765Y116360D01*
X442889Y116981D01*
X442765Y117603D01*
X442413Y118131D01*
X441886Y118483D01*
X441264Y118606D01*
D02*
G37*
G36*
X418357Y118463D02*
X417735Y118339D01*
X417207Y117987D01*
X416855Y117460D01*
X416732Y116838D01*
X416855Y116216D01*
X417207Y115689D01*
X417735Y115337D01*
X418357Y115213D01*
X418978Y115337D01*
X419506Y115689D01*
X419858Y116216D01*
X419981Y116838D01*
X419858Y117460D01*
X419506Y117987D01*
X418978Y118339D01*
X418357Y118463D01*
D02*
G37*
G36*
X464600Y118319D02*
X463978Y118195D01*
X463451Y117843D01*
X463099Y117316D01*
X462975Y116694D01*
X463099Y116072D01*
X463451Y115545D01*
X463978Y115193D01*
X464600Y115069D01*
X465222Y115193D01*
X465749Y115545D01*
X466101Y116072D01*
X466225Y116694D01*
X466101Y117316D01*
X465749Y117843D01*
X465222Y118195D01*
X464600Y118319D01*
D02*
G37*
G36*
X429549Y118107D02*
X428927Y117983D01*
X428400Y117631D01*
X428048Y117104D01*
X427924Y116482D01*
X428048Y115860D01*
X428400Y115333D01*
X428927Y114981D01*
X429549Y114857D01*
X430171Y114981D01*
X430698Y115333D01*
X431050Y115860D01*
X431174Y116482D01*
X431050Y117104D01*
X430698Y117631D01*
X430171Y117983D01*
X429549Y118107D01*
D02*
G37*
G36*
X358698Y117906D02*
X358076Y117782D01*
X357549Y117430D01*
X357196Y116903D01*
X357073Y116281D01*
X357196Y115659D01*
X357549Y115132D01*
X358076Y114780D01*
X358698Y114656D01*
X359319Y114780D01*
X359846Y115132D01*
X360199Y115659D01*
X360322Y116281D01*
X360199Y116903D01*
X359846Y117430D01*
X359319Y117782D01*
X358698Y117906D01*
D02*
G37*
G36*
X507339Y116455D02*
X506717Y116331D01*
X506190Y115979D01*
X505838Y115451D01*
X505714Y114830D01*
X505838Y114208D01*
X506190Y113681D01*
X506717Y113328D01*
X507339Y113205D01*
X507961Y113328D01*
X508488Y113681D01*
X508840Y114208D01*
X508964Y114830D01*
X508840Y115451D01*
X508488Y115979D01*
X507961Y116331D01*
X507339Y116455D01*
D02*
G37*
G36*
X27792Y115945D02*
X27170Y115821D01*
X26643Y115469D01*
X26290Y114941D01*
X26167Y114320D01*
X26290Y113698D01*
X26643Y113171D01*
X27170Y112818D01*
X27792Y112695D01*
X28413Y112818D01*
X28941Y113171D01*
X29293Y113698D01*
X29416Y114320D01*
X29293Y114941D01*
X28941Y115469D01*
X28413Y115821D01*
X27792Y115945D01*
D02*
G37*
G36*
X21792D02*
X21170Y115821D01*
X20643Y115469D01*
X20290Y114941D01*
X20167Y114320D01*
X20290Y113698D01*
X20643Y113171D01*
X21170Y112818D01*
X21792Y112695D01*
X22413Y112818D01*
X22941Y113171D01*
X23293Y113698D01*
X23416Y114320D01*
X23293Y114941D01*
X22941Y115469D01*
X22413Y115821D01*
X21792Y115945D01*
D02*
G37*
G36*
X15792D02*
X15170Y115821D01*
X14643Y115469D01*
X14290Y114941D01*
X14167Y114320D01*
X14290Y113698D01*
X14643Y113171D01*
X15170Y112818D01*
X15792Y112695D01*
X16413Y112818D01*
X16941Y113171D01*
X17293Y113698D01*
X17416Y114320D01*
X17293Y114941D01*
X16941Y115469D01*
X16413Y115821D01*
X15792Y115945D01*
D02*
G37*
G36*
X9792D02*
X9170Y115821D01*
X8643Y115469D01*
X8290Y114941D01*
X8167Y114320D01*
X8290Y113698D01*
X8643Y113171D01*
X9170Y112818D01*
X9792Y112695D01*
X10413Y112818D01*
X10941Y113171D01*
X11293Y113698D01*
X11417Y114320D01*
X11293Y114941D01*
X10941Y115469D01*
X10413Y115821D01*
X9792Y115945D01*
D02*
G37*
G36*
X3792D02*
X3170Y115821D01*
X2643Y115469D01*
X2290Y114941D01*
X2167Y114320D01*
X2290Y113698D01*
X2643Y113171D01*
X3170Y112818D01*
X3792Y112695D01*
X4413Y112818D01*
X4941Y113171D01*
X5293Y113698D01*
X5416Y114320D01*
X5293Y114941D01*
X4941Y115469D01*
X4413Y115821D01*
X3792Y115945D01*
D02*
G37*
G36*
X138619Y115610D02*
X137997Y115487D01*
X137470Y115134D01*
X137118Y114607D01*
X136994Y113985D01*
X137118Y113364D01*
X137470Y112836D01*
X137997Y112484D01*
X138619Y112361D01*
X139241Y112484D01*
X139768Y112836D01*
X140120Y113364D01*
X140244Y113985D01*
X140120Y114607D01*
X139768Y115134D01*
X139241Y115487D01*
X138619Y115610D01*
D02*
G37*
G36*
X126619D02*
X125997Y115487D01*
X125470Y115134D01*
X125118Y114607D01*
X124994Y113985D01*
X125118Y113364D01*
X125470Y112836D01*
X125997Y112484D01*
X126619Y112361D01*
X127241Y112484D01*
X127768Y112836D01*
X128120Y113364D01*
X128244Y113985D01*
X128120Y114607D01*
X127768Y115134D01*
X127241Y115487D01*
X126619Y115610D01*
D02*
G37*
G36*
X120619D02*
X119997Y115487D01*
X119470Y115134D01*
X119118Y114607D01*
X118994Y113985D01*
X119118Y113364D01*
X119470Y112836D01*
X119997Y112484D01*
X120619Y112361D01*
X121241Y112484D01*
X121768Y112836D01*
X122120Y113364D01*
X122244Y113985D01*
X122120Y114607D01*
X121768Y115134D01*
X121241Y115487D01*
X120619Y115610D01*
D02*
G37*
G36*
X457990Y115578D02*
X457368Y115454D01*
X456841Y115102D01*
X456488Y114575D01*
X456365Y113953D01*
X456488Y113331D01*
X456841Y112804D01*
X457368Y112452D01*
X457990Y112328D01*
X458611Y112452D01*
X459138Y112804D01*
X459491Y113331D01*
X459614Y113953D01*
X459491Y114575D01*
X459138Y115102D01*
X458611Y115454D01*
X457990Y115578D01*
D02*
G37*
G36*
X132892Y115337D02*
X132270Y115214D01*
X131743Y114861D01*
X131391Y114334D01*
X131267Y113713D01*
X131391Y113091D01*
X131743Y112564D01*
X132270Y112211D01*
X132892Y112088D01*
X133514Y112211D01*
X134041Y112564D01*
X134393Y113091D01*
X134517Y113713D01*
X134393Y114334D01*
X134041Y114861D01*
X133514Y115214D01*
X132892Y115337D01*
D02*
G37*
G36*
X299439Y114707D02*
X298817Y114584D01*
X298290Y114231D01*
X297937Y113704D01*
X297814Y113082D01*
X297937Y112461D01*
X298290Y111933D01*
X298817Y111581D01*
X299439Y111458D01*
X300060Y111581D01*
X300588Y111933D01*
X300940Y112461D01*
X301063Y113082D01*
X300940Y113704D01*
X300588Y114231D01*
X300060Y114584D01*
X299439Y114707D01*
D02*
G37*
G36*
X303861Y114451D02*
X303239Y114327D01*
X302712Y113975D01*
X302360Y113447D01*
X302236Y112826D01*
X302360Y112204D01*
X302712Y111677D01*
X303239Y111325D01*
X303861Y111201D01*
X304483Y111325D01*
X305010Y111677D01*
X305362Y112204D01*
X305486Y112826D01*
X305362Y113447D01*
X305010Y113975D01*
X304483Y114327D01*
X303861Y114451D01*
D02*
G37*
G36*
X434429Y114156D02*
X433807Y114033D01*
X433280Y113681D01*
X432928Y113153D01*
X432804Y112532D01*
X432928Y111910D01*
X433280Y111383D01*
X433807Y111030D01*
X434429Y110907D01*
X435051Y111030D01*
X435578Y111383D01*
X435930Y111910D01*
X436054Y112532D01*
X435930Y113153D01*
X435578Y113681D01*
X435051Y114033D01*
X434429Y114156D01*
D02*
G37*
G36*
X446287Y113813D02*
X445665Y113689D01*
X445138Y113337D01*
X444786Y112810D01*
X444662Y112188D01*
X444786Y111566D01*
X445138Y111039D01*
X445665Y110687D01*
X446287Y110563D01*
X446909Y110687D01*
X447436Y111039D01*
X447788Y111566D01*
X447912Y112188D01*
X447788Y112810D01*
X447436Y113337D01*
X446909Y113689D01*
X446287Y113813D01*
D02*
G37*
G36*
X421273Y112188D02*
X420651Y112064D01*
X420124Y111712D01*
X419772Y111185D01*
X419648Y110563D01*
X419772Y109941D01*
X420124Y109414D01*
X420651Y109062D01*
X421273Y108938D01*
X421895Y109062D01*
X422422Y109414D01*
X422774Y109941D01*
X422898Y110563D01*
X422774Y111185D01*
X422422Y111712D01*
X421895Y112064D01*
X421273Y112188D01*
D02*
G37*
G36*
X517429Y112188D02*
X516808Y112064D01*
X516280Y111712D01*
X515928Y111185D01*
X515804Y110563D01*
X515928Y109941D01*
X516280Y109414D01*
X516808Y109062D01*
X517429Y108938D01*
X518051Y109062D01*
X518578Y109414D01*
X518931Y109941D01*
X519054Y110563D01*
X518931Y111185D01*
X518578Y111712D01*
X518051Y112064D01*
X517429Y112188D01*
D02*
G37*
G36*
X290848Y110054D02*
X290226Y109930D01*
X289699Y109578D01*
X289347Y109051D01*
X289223Y108429D01*
X289347Y107807D01*
X289699Y107280D01*
X290226Y106928D01*
X290848Y106804D01*
X291470Y106928D01*
X291997Y107280D01*
X292349Y107807D01*
X292473Y108429D01*
X292349Y109051D01*
X291997Y109578D01*
X291470Y109930D01*
X290848Y110054D01*
D02*
G37*
G36*
X30792Y109944D02*
X30170Y109821D01*
X29643Y109469D01*
X29290Y108941D01*
X29167Y108320D01*
X29290Y107698D01*
X29643Y107171D01*
X30170Y106818D01*
X30792Y106695D01*
X31413Y106818D01*
X31941Y107171D01*
X32293Y107698D01*
X32416Y108320D01*
X32293Y108941D01*
X31941Y109469D01*
X31413Y109821D01*
X30792Y109944D01*
D02*
G37*
G36*
X24792D02*
X24170Y109821D01*
X23643Y109469D01*
X23290Y108941D01*
X23167Y108320D01*
X23290Y107698D01*
X23643Y107171D01*
X24170Y106818D01*
X24792Y106695D01*
X25413Y106818D01*
X25941Y107171D01*
X26293Y107698D01*
X26417Y108320D01*
X26293Y108941D01*
X25941Y109469D01*
X25413Y109821D01*
X24792Y109944D01*
D02*
G37*
G36*
X18792D02*
X18170Y109821D01*
X17643Y109469D01*
X17290Y108941D01*
X17167Y108320D01*
X17290Y107698D01*
X17643Y107171D01*
X18170Y106818D01*
X18792Y106695D01*
X19413Y106818D01*
X19941Y107171D01*
X20293Y107698D01*
X20416Y108320D01*
X20293Y108941D01*
X19941Y109469D01*
X19413Y109821D01*
X18792Y109944D01*
D02*
G37*
G36*
X12792D02*
X12170Y109821D01*
X11643Y109469D01*
X11290Y108941D01*
X11167Y108320D01*
X11290Y107698D01*
X11643Y107171D01*
X12170Y106818D01*
X12792Y106695D01*
X13413Y106818D01*
X13941Y107171D01*
X14293Y107698D01*
X14416Y108320D01*
X14293Y108941D01*
X13941Y109469D01*
X13413Y109821D01*
X12792Y109944D01*
D02*
G37*
G36*
X6792D02*
X6170Y109821D01*
X5643Y109469D01*
X5290Y108941D01*
X5167Y108320D01*
X5290Y107698D01*
X5643Y107171D01*
X6170Y106818D01*
X6792Y106695D01*
X7413Y106818D01*
X7941Y107171D01*
X8293Y107698D01*
X8416Y108320D01*
X8293Y108941D01*
X7941Y109469D01*
X7413Y109821D01*
X6792Y109944D01*
D02*
G37*
G36*
X792D02*
X170Y109821D01*
X-357Y109469D01*
X-710Y108941D01*
X-833Y108320D01*
X-710Y107698D01*
X-357Y107171D01*
X170Y106818D01*
X792Y106695D01*
X1413Y106818D01*
X1941Y107171D01*
X2293Y107698D01*
X2417Y108320D01*
X2293Y108941D01*
X1941Y109469D01*
X1413Y109821D01*
X792Y109944D01*
D02*
G37*
G36*
X171665Y113707D02*
X164559D01*
Y106601D01*
X171665D01*
Y113707D01*
D02*
G37*
G36*
X158112Y113737D02*
X157185Y113615D01*
X156321Y113257D01*
X155578Y112688D01*
X155009Y111946D01*
X154651Y111081D01*
X154529Y110154D01*
X154651Y109227D01*
X155009Y108362D01*
X155578Y107620D01*
X156321Y107051D01*
X157185Y106693D01*
X158112Y106571D01*
X159040Y106693D01*
X159904Y107051D01*
X160646Y107620D01*
X161215Y108362D01*
X161574Y109227D01*
X161696Y110154D01*
X161574Y111081D01*
X161215Y111946D01*
X160646Y112688D01*
X159904Y113257D01*
X159040Y113615D01*
X158112Y113737D01*
D02*
G37*
G36*
X148112D02*
X147185Y113615D01*
X146320Y113257D01*
X145578Y112688D01*
X145009Y111946D01*
X144651Y111081D01*
X144529Y110154D01*
X144651Y109227D01*
X145009Y108362D01*
X145578Y107620D01*
X146320Y107051D01*
X147185Y106693D01*
X148112Y106571D01*
X149040Y106693D01*
X149904Y107051D01*
X150646Y107620D01*
X151216Y108362D01*
X151574Y109227D01*
X151696Y110154D01*
X151574Y111081D01*
X151216Y111946D01*
X150646Y112688D01*
X149904Y113257D01*
X149040Y113615D01*
X148112Y113737D01*
D02*
G37*
G36*
X141619Y109610D02*
X140997Y109487D01*
X140470Y109134D01*
X140118Y108607D01*
X139994Y107985D01*
X140118Y107364D01*
X140470Y106836D01*
X140997Y106484D01*
X141619Y106360D01*
X142241Y106484D01*
X142768Y106836D01*
X143120Y107364D01*
X143244Y107985D01*
X143120Y108607D01*
X142768Y109134D01*
X142241Y109487D01*
X141619Y109610D01*
D02*
G37*
G36*
X135619D02*
X134997Y109487D01*
X134470Y109134D01*
X134118Y108607D01*
X133994Y107985D01*
X134118Y107364D01*
X134470Y106836D01*
X134997Y106484D01*
X135619Y106360D01*
X136241Y106484D01*
X136768Y106836D01*
X137120Y107364D01*
X137244Y107985D01*
X137120Y108607D01*
X136768Y109134D01*
X136241Y109487D01*
X135619Y109610D01*
D02*
G37*
G36*
X127420D02*
X126798Y109487D01*
X126271Y109134D01*
X125919Y108607D01*
X125795Y107985D01*
X125919Y107364D01*
X126271Y106836D01*
X126798Y106484D01*
X127420Y106360D01*
X128042Y106484D01*
X128569Y106836D01*
X128921Y107364D01*
X129045Y107985D01*
X128921Y108607D01*
X128569Y109134D01*
X128042Y109487D01*
X127420Y109610D01*
D02*
G37*
G36*
X123619D02*
X122997Y109487D01*
X122470Y109134D01*
X122118Y108607D01*
X121994Y107985D01*
X122118Y107364D01*
X122470Y106836D01*
X122997Y106484D01*
X123619Y106360D01*
X124241Y106484D01*
X124768Y106836D01*
X125120Y107364D01*
X125244Y107985D01*
X125120Y108607D01*
X124768Y109134D01*
X124241Y109487D01*
X123619Y109610D01*
D02*
G37*
G36*
X117619D02*
X116997Y109487D01*
X116470Y109134D01*
X116118Y108607D01*
X115994Y107985D01*
X116118Y107364D01*
X116470Y106836D01*
X116997Y106484D01*
X117619Y106360D01*
X118241Y106484D01*
X118768Y106836D01*
X119120Y107364D01*
X119244Y107985D01*
X119120Y108607D01*
X118768Y109134D01*
X118241Y109487D01*
X117619Y109610D01*
D02*
G37*
G36*
X217666Y107944D02*
X217044Y107820D01*
X216516Y107468D01*
X216164Y106941D01*
X216041Y106319D01*
X216164Y105697D01*
X216516Y105170D01*
X217044Y104817D01*
X217666Y104694D01*
X218287Y104817D01*
X218814Y105170D01*
X219167Y105697D01*
X219290Y106319D01*
X219167Y106941D01*
X218814Y107468D01*
X218287Y107820D01*
X217666Y107944D01*
D02*
G37*
G36*
X485361Y106008D02*
X484740Y105884D01*
X484212Y105532D01*
X483860Y105005D01*
X483737Y104383D01*
X483743Y104349D01*
X471716Y92322D01*
X471474Y91959D01*
X471388Y91530D01*
Y90070D01*
X410045Y28726D01*
X358536D01*
X358516Y28755D01*
X357989Y29108D01*
X357367Y29231D01*
X356746Y29108D01*
X356218Y28755D01*
X356199Y28726D01*
X336837D01*
X324968Y40595D01*
X324975Y40629D01*
X324851Y41251D01*
X324499Y41778D01*
X323972Y42130D01*
X323350Y42254D01*
X322728Y42130D01*
X322201Y41778D01*
X321849Y41251D01*
X321725Y40629D01*
X321732Y40595D01*
X316557Y35420D01*
X316096Y35666D01*
X316121Y35793D01*
X315998Y36415D01*
X315646Y36942D01*
X315118Y37294D01*
X314496Y37418D01*
X313875Y37294D01*
X313348Y36942D01*
X312995Y36415D01*
X312872Y35793D01*
X312995Y35171D01*
X313348Y34644D01*
X313875Y34292D01*
X314496Y34168D01*
X314623Y34193D01*
X314869Y33733D01*
X309401Y28264D01*
X308940Y28510D01*
X308946Y28543D01*
X308822Y29164D01*
X308470Y29692D01*
X307943Y30044D01*
X307321Y30167D01*
X306699Y30044D01*
X306172Y29692D01*
X305820Y29164D01*
X305696Y28543D01*
X305820Y27921D01*
X306172Y27394D01*
X306699Y27041D01*
X307321Y26918D01*
X307354Y26924D01*
X307600Y26463D01*
X305682Y24545D01*
X305439Y24181D01*
X305353Y23753D01*
Y15065D01*
X305325Y15046D01*
X305305Y15017D01*
X244702D01*
X215743Y43976D01*
X215750Y44010D01*
X215627Y44632D01*
X215274Y45159D01*
X214747Y45511D01*
X214125Y45635D01*
X214091Y45628D01*
X203101Y56618D01*
X202738Y56861D01*
X202309Y56946D01*
X189944D01*
X183356Y63534D01*
Y67798D01*
X183386Y67817D01*
X183738Y68344D01*
X183861Y68966D01*
X183738Y69588D01*
X183386Y70115D01*
X183356Y70135D01*
Y77647D01*
X184886Y79176D01*
X185212Y79241D01*
X185740Y79593D01*
X185955Y79915D01*
X193499D01*
X193533Y79897D01*
X193870Y79417D01*
X193801Y79067D01*
X193924Y78445D01*
X194277Y77918D01*
X194804Y77566D01*
X195426Y77442D01*
X196047Y77566D01*
X196575Y77918D01*
X196927Y78445D01*
X197050Y79067D01*
X196927Y79689D01*
X196758Y79941D01*
X197026Y80441D01*
X203534D01*
X213081Y70895D01*
X213136Y70618D01*
X213488Y70091D01*
X214015Y69739D01*
X214637Y69615D01*
X215259Y69739D01*
X215786Y70091D01*
X216138Y70618D01*
X216262Y71240D01*
X216185Y71625D01*
X216337Y71990D01*
X216556Y72130D01*
X217003Y72219D01*
X217530Y72571D01*
X217882Y73099D01*
X218006Y73721D01*
X217882Y74342D01*
X217530Y74870D01*
X217400Y74957D01*
Y75558D01*
X217401Y75559D01*
X217753Y76086D01*
X217877Y76708D01*
X217753Y77330D01*
X217401Y77857D01*
X216874Y78209D01*
X216252Y78333D01*
X215630Y78209D01*
X215103Y77857D01*
X214751Y77330D01*
X214627Y76708D01*
X214751Y76086D01*
X215103Y75559D01*
X215233Y75472D01*
Y74870D01*
X215232Y74870D01*
X214880Y74342D01*
X214756Y73721D01*
X214785Y73577D01*
X214442Y73089D01*
X214092Y73051D01*
X204790Y82353D01*
X204427Y82595D01*
X203998Y82681D01*
X194393D01*
X193964Y82595D01*
X193601Y82353D01*
X193403Y82155D01*
X185711D01*
Y94864D01*
X185740Y94883D01*
X186092Y95410D01*
X186215Y96032D01*
X186092Y96654D01*
X185740Y97181D01*
X185212Y97533D01*
X184591Y97657D01*
X183969Y97533D01*
X183442Y97181D01*
X183089Y96654D01*
X182966Y96032D01*
X183089Y95410D01*
X183442Y94883D01*
X183471Y94864D01*
Y81911D01*
X183442Y81891D01*
X183089Y81364D01*
X182966Y80742D01*
X183019Y80476D01*
X181445Y78902D01*
X181202Y78539D01*
X181117Y78110D01*
Y70135D01*
X181088Y70115D01*
X180735Y69588D01*
X180612Y68966D01*
X180735Y68344D01*
X181088Y67817D01*
X181117Y67798D01*
Y63070D01*
X181202Y62641D01*
X181445Y62278D01*
X188688Y55035D01*
X189051Y54792D01*
X189480Y54707D01*
X201845D01*
X212507Y44044D01*
X212501Y44010D01*
X212624Y43388D01*
X212977Y42861D01*
X213504Y42509D01*
X214125Y42385D01*
X214160Y42392D01*
X243446Y13105D01*
X243810Y12862D01*
X244238Y12777D01*
X305305D01*
X305325Y12748D01*
X305852Y12396D01*
X306473Y12272D01*
X307095Y12396D01*
X307623Y12748D01*
X307975Y13275D01*
X308098Y13897D01*
X307975Y14519D01*
X307623Y15046D01*
X307593Y15065D01*
Y23289D01*
X323011Y38706D01*
X323689Y38706D01*
X335581Y26814D01*
X335944Y26572D01*
X336373Y26487D01*
X356199D01*
X356218Y26457D01*
X356746Y26105D01*
X357367Y25982D01*
X357989Y26105D01*
X358516Y26457D01*
X358536Y26487D01*
X410509D01*
X410937Y26572D01*
X411301Y26814D01*
X473300Y88814D01*
X473543Y89178D01*
X473628Y89606D01*
Y91066D01*
X485327Y102765D01*
X485361Y102758D01*
X485983Y102882D01*
X486510Y103234D01*
X486863Y103761D01*
X486986Y104383D01*
X486863Y105005D01*
X486510Y105532D01*
X485983Y105884D01*
X485361Y106008D01*
D02*
G37*
G36*
X315122Y105462D02*
X314500Y105338D01*
X313973Y104986D01*
X313621Y104458D01*
X313497Y103837D01*
X313621Y103215D01*
X313973Y102688D01*
X314500Y102335D01*
X315122Y102212D01*
X315744Y102335D01*
X316271Y102688D01*
X316623Y103215D01*
X316747Y103837D01*
X316623Y104458D01*
X316271Y104986D01*
X315744Y105338D01*
X315122Y105462D01*
D02*
G37*
G36*
X302662Y104017D02*
X302040Y103894D01*
X301513Y103541D01*
X301161Y103014D01*
X301037Y102392D01*
X301161Y101771D01*
X301513Y101243D01*
X302040Y100891D01*
X302662Y100768D01*
X303284Y100891D01*
X303811Y101243D01*
X304163Y101771D01*
X304287Y102392D01*
X304163Y103014D01*
X303811Y103541D01*
X303284Y103894D01*
X302662Y104017D01*
D02*
G37*
G36*
X312694Y102326D02*
X312072Y102203D01*
X311545Y101850D01*
X311193Y101323D01*
X311069Y100701D01*
X311193Y100080D01*
X311545Y99552D01*
X312072Y99200D01*
X312694Y99076D01*
X313316Y99200D01*
X313843Y99552D01*
X314195Y100080D01*
X314319Y100701D01*
X314195Y101323D01*
X313843Y101850D01*
X313316Y102203D01*
X312694Y102326D01*
D02*
G37*
G36*
X502930Y102117D02*
X502308Y101994D01*
X501781Y101641D01*
X501428Y101114D01*
X501305Y100492D01*
X501428Y99871D01*
X501781Y99343D01*
X502308Y98991D01*
X502930Y98867D01*
X503551Y98991D01*
X504079Y99343D01*
X504431Y99871D01*
X504555Y100492D01*
X504431Y101114D01*
X504079Y101641D01*
X503551Y101994D01*
X502930Y102117D01*
D02*
G37*
G36*
X287853Y100577D02*
X287231Y100453D01*
X286704Y100101D01*
X286351Y99574D01*
X286228Y98952D01*
X286296Y98611D01*
X285895Y98181D01*
X285885Y98183D01*
X285263Y98059D01*
X284736Y97707D01*
X284384Y97180D01*
X284260Y96558D01*
X284312Y96297D01*
X284303Y96278D01*
X283879Y95912D01*
X283491Y95989D01*
X282870Y95866D01*
X282342Y95513D01*
X281990Y94986D01*
X281893Y94496D01*
X281818Y94339D01*
X281405Y94122D01*
X281066Y94190D01*
X280445Y94066D01*
X279917Y93714D01*
X279565Y93186D01*
X279441Y92565D01*
X279565Y91943D01*
X279917Y91416D01*
X280445Y91063D01*
X281066Y90940D01*
X281688Y91063D01*
X282215Y91416D01*
X282568Y91943D01*
X282665Y92433D01*
X282740Y92590D01*
X283153Y92807D01*
X283491Y92739D01*
X284113Y92863D01*
X284640Y93216D01*
X284993Y93743D01*
X285116Y94365D01*
X285064Y94625D01*
X285073Y94645D01*
X285498Y95010D01*
X285885Y94933D01*
X286507Y95057D01*
X287034Y95409D01*
X287386Y95936D01*
X287510Y96558D01*
X287442Y96899D01*
X287842Y97329D01*
X287853Y97327D01*
X288474Y97451D01*
X289002Y97803D01*
X289354Y98330D01*
X289478Y98952D01*
X289354Y99574D01*
X289002Y100101D01*
X288474Y100453D01*
X287853Y100577D01*
D02*
G37*
G36*
X221091Y100305D02*
X220469Y100181D01*
X219942Y99829D01*
X219590Y99302D01*
X219466Y98680D01*
X219590Y98058D01*
X219942Y97531D01*
X220469Y97179D01*
X221091Y97055D01*
X221713Y97179D01*
X222240Y97531D01*
X222592Y98058D01*
X222716Y98680D01*
X222592Y99302D01*
X222240Y99829D01*
X221713Y100181D01*
X221091Y100305D01*
D02*
G37*
G36*
X457598Y99657D02*
X456976Y99533D01*
X456449Y99181D01*
X456097Y98654D01*
X455973Y98032D01*
X456097Y97410D01*
X456449Y96883D01*
X456976Y96531D01*
X457598Y96407D01*
X458220Y96531D01*
X458747Y96883D01*
X459099Y97410D01*
X459223Y98032D01*
X459099Y98654D01*
X458747Y99181D01*
X458220Y99533D01*
X457598Y99657D01*
D02*
G37*
G36*
X195745Y99103D02*
X195123Y98979D01*
X194596Y98627D01*
X194244Y98099D01*
X194120Y97478D01*
X194244Y96856D01*
X194596Y96329D01*
X195123Y95977D01*
X195745Y95853D01*
X196367Y95977D01*
X196894Y96329D01*
X197246Y96856D01*
X197370Y97478D01*
X197246Y98099D01*
X196894Y98627D01*
X196367Y98979D01*
X195745Y99103D01*
D02*
G37*
G36*
X312694Y97837D02*
X312072Y97714D01*
X311545Y97361D01*
X311193Y96834D01*
X311069Y96212D01*
X311193Y95591D01*
X311545Y95063D01*
X312072Y94711D01*
X312694Y94587D01*
X313316Y94711D01*
X313843Y95063D01*
X314195Y95591D01*
X314319Y96212D01*
X314195Y96834D01*
X313843Y97361D01*
X313316Y97714D01*
X312694Y97837D01*
D02*
G37*
G36*
X218235Y97448D02*
X217613Y97325D01*
X217086Y96972D01*
X216734Y96445D01*
X216610Y95823D01*
X216734Y95201D01*
X217086Y94674D01*
X217613Y94322D01*
X218235Y94198D01*
X218857Y94322D01*
X219384Y94674D01*
X219736Y95201D01*
X219860Y95823D01*
X219736Y96445D01*
X219384Y96972D01*
X218857Y97325D01*
X218235Y97448D01*
D02*
G37*
G36*
X444328Y100721D02*
X437223D01*
Y93615D01*
X444328D01*
Y100721D01*
D02*
G37*
G36*
X366923D02*
X359817D01*
Y93615D01*
X366923D01*
Y100721D01*
D02*
G37*
G36*
X345606D02*
X338501D01*
Y93615D01*
X345606D01*
Y100721D01*
D02*
G37*
G36*
X430775Y100751D02*
X429848Y100629D01*
X428984Y100271D01*
X428242Y99702D01*
X427672Y98960D01*
X427314Y98095D01*
X427192Y97168D01*
X427314Y96241D01*
X427672Y95376D01*
X428242Y94634D01*
X428984Y94065D01*
X429848Y93707D01*
X430775Y93585D01*
X431703Y93707D01*
X432567Y94065D01*
X433309Y94634D01*
X433879Y95376D01*
X434237Y96241D01*
X434359Y97168D01*
X434237Y98095D01*
X433879Y98960D01*
X433309Y99702D01*
X432567Y100271D01*
X431703Y100629D01*
X430775Y100751D01*
D02*
G37*
G36*
X373370D02*
X372443Y100629D01*
X371578Y100271D01*
X370836Y99702D01*
X370267Y98960D01*
X369909Y98095D01*
X369787Y97168D01*
X369909Y96241D01*
X370267Y95376D01*
X370836Y94634D01*
X371578Y94065D01*
X372443Y93707D01*
X373370Y93585D01*
X374297Y93707D01*
X375162Y94065D01*
X375904Y94634D01*
X376473Y95376D01*
X376831Y96241D01*
X376953Y97168D01*
X376831Y98095D01*
X376473Y98960D01*
X375904Y99702D01*
X375162Y100271D01*
X374297Y100629D01*
X373370Y100751D01*
D02*
G37*
G36*
X352054D02*
X351126Y100629D01*
X350262Y100271D01*
X349520Y99702D01*
X348951Y98960D01*
X348592Y98095D01*
X348470Y97168D01*
X348592Y96241D01*
X348951Y95376D01*
X349520Y94634D01*
X350262Y94065D01*
X351126Y93707D01*
X352054Y93585D01*
X352981Y93707D01*
X353846Y94065D01*
X354588Y94634D01*
X355157Y95376D01*
X355515Y96241D01*
X355637Y97168D01*
X355515Y98095D01*
X355157Y98960D01*
X354588Y99702D01*
X353846Y100271D01*
X352981Y100629D01*
X352054Y100751D01*
D02*
G37*
G36*
X479178Y95068D02*
X478556Y94944D01*
X478029Y94592D01*
X477677Y94064D01*
X477553Y93443D01*
X477677Y92821D01*
X478029Y92294D01*
X478556Y91941D01*
X479178Y91818D01*
X479800Y91941D01*
X480327Y92294D01*
X480680Y92821D01*
X480803Y93443D01*
X480680Y94064D01*
X480327Y94592D01*
X479800Y94944D01*
X479178Y95068D01*
D02*
G37*
G36*
X455893Y93434D02*
X455271Y93310D01*
X454744Y92958D01*
X454391Y92431D01*
X454268Y91809D01*
X454391Y91187D01*
X454744Y90660D01*
X455271Y90307D01*
X455893Y90184D01*
X456514Y90307D01*
X457042Y90660D01*
X457394Y91187D01*
X457517Y91809D01*
X457394Y92431D01*
X457042Y92958D01*
X456514Y93310D01*
X455893Y93434D01*
D02*
G37*
G36*
X386150Y89581D02*
X385528Y89458D01*
X385001Y89105D01*
X384649Y88578D01*
X384525Y87957D01*
X384649Y87335D01*
X385001Y86808D01*
X385528Y86455D01*
X386150Y86332D01*
X386772Y86455D01*
X387299Y86808D01*
X387652Y87335D01*
X387775Y87957D01*
X387652Y88578D01*
X387299Y89105D01*
X386772Y89458D01*
X386150Y89581D01*
D02*
G37*
G36*
X290162Y88100D02*
X289540Y87976D01*
X289013Y87624D01*
X288661Y87097D01*
X288537Y86475D01*
X288661Y85853D01*
X289013Y85326D01*
X289540Y84974D01*
X290162Y84850D01*
X290784Y84974D01*
X291311Y85326D01*
X291663Y85853D01*
X291787Y86475D01*
X291663Y87097D01*
X291311Y87624D01*
X290784Y87976D01*
X290162Y88100D01*
D02*
G37*
G36*
X299888Y90669D02*
X299266Y90546D01*
X298739Y90193D01*
X298387Y89666D01*
X298263Y89044D01*
X298387Y88423D01*
X298739Y87895D01*
X299266Y87543D01*
X299466Y87503D01*
X299730Y86998D01*
X299606Y86376D01*
X299730Y85754D01*
X300082Y85227D01*
X300609Y84875D01*
X301231Y84751D01*
X301853Y84875D01*
X302380Y85227D01*
X302732Y85754D01*
X302856Y86376D01*
X302732Y86998D01*
X302380Y87525D01*
X301853Y87877D01*
X301653Y87917D01*
X301389Y88423D01*
X301513Y89044D01*
X301389Y89666D01*
X301037Y90193D01*
X300510Y90546D01*
X299888Y90669D01*
D02*
G37*
G36*
X171665Y91260D02*
X164559D01*
Y84155D01*
X171665D01*
Y91260D01*
D02*
G37*
G36*
X158112Y91291D02*
X157185Y91169D01*
X156321Y90811D01*
X155578Y90241D01*
X155009Y89499D01*
X154651Y88635D01*
X154529Y87707D01*
X154651Y86780D01*
X155009Y85916D01*
X155578Y85173D01*
X156321Y84604D01*
X157185Y84246D01*
X158112Y84124D01*
X159040Y84246D01*
X159904Y84604D01*
X160646Y85173D01*
X161215Y85916D01*
X161574Y86780D01*
X161696Y87707D01*
X161574Y88635D01*
X161215Y89499D01*
X160646Y90241D01*
X159904Y90811D01*
X159040Y91169D01*
X158112Y91291D01*
D02*
G37*
G36*
X148112D02*
X147185Y91169D01*
X146320Y90811D01*
X145578Y90241D01*
X145009Y89499D01*
X144651Y88635D01*
X144529Y87707D01*
X144651Y86780D01*
X145009Y85916D01*
X145578Y85173D01*
X146320Y84604D01*
X147185Y84246D01*
X148112Y84124D01*
X149040Y84246D01*
X149904Y84604D01*
X150646Y85173D01*
X151216Y85916D01*
X151574Y86780D01*
X151696Y87707D01*
X151574Y88635D01*
X151216Y89499D01*
X150646Y90241D01*
X149904Y90811D01*
X149040Y91169D01*
X148112Y91291D01*
D02*
G37*
G36*
X450902Y85871D02*
X450280Y85747D01*
X449753Y85395D01*
X449401Y84868D01*
X449277Y84246D01*
X449401Y83624D01*
X449753Y83097D01*
X450280Y82745D01*
X450902Y82621D01*
X451524Y82745D01*
X452051Y83097D01*
X452403Y83624D01*
X452527Y84246D01*
X452403Y84868D01*
X452051Y85395D01*
X451524Y85747D01*
X450902Y85871D01*
D02*
G37*
G36*
X261428Y85093D02*
X260806Y84969D01*
X260279Y84617D01*
X259926Y84090D01*
X259803Y83468D01*
X259926Y82846D01*
X260279Y82319D01*
X260806Y81967D01*
X261428Y81843D01*
X262049Y81967D01*
X262577Y82319D01*
X262929Y82846D01*
X263053Y83468D01*
X262929Y84090D01*
X262577Y84617D01*
X262049Y84969D01*
X261428Y85093D01*
D02*
G37*
G36*
X370857Y84849D02*
X370235Y84725D01*
X369708Y84373D01*
X369356Y83846D01*
X369232Y83224D01*
X369356Y82603D01*
X369708Y82075D01*
X370235Y81723D01*
X370857Y81599D01*
X371479Y81723D01*
X372006Y82075D01*
X372358Y82603D01*
X372482Y83224D01*
X372358Y83846D01*
X372006Y84373D01*
X371479Y84725D01*
X370857Y84849D01*
D02*
G37*
G36*
X287120Y84464D02*
X286498Y84340D01*
X285971Y83988D01*
X285619Y83460D01*
X285495Y82839D01*
X285619Y82217D01*
X285971Y81690D01*
X286498Y81337D01*
X287120Y81214D01*
X287742Y81337D01*
X288269Y81690D01*
X288621Y82217D01*
X288745Y82839D01*
X288621Y83460D01*
X288269Y83988D01*
X287742Y84340D01*
X287120Y84464D01*
D02*
G37*
G36*
X504527Y91490D02*
X503905Y91366D01*
X503378Y91014D01*
X503026Y90487D01*
X502902Y89865D01*
X503026Y89243D01*
X503378Y88716D01*
X503905Y88364D01*
X504230Y88299D01*
X504333Y88279D01*
Y87769D01*
X504230Y87748D01*
X503905Y87684D01*
X503378Y87331D01*
X503026Y86804D01*
X502902Y86182D01*
X503026Y85561D01*
X503378Y85034D01*
X503905Y84681D01*
X503973Y84668D01*
Y84158D01*
X503905Y84144D01*
X503378Y83792D01*
X503026Y83265D01*
X502902Y82643D01*
X503026Y82021D01*
X503378Y81494D01*
X503905Y81142D01*
X504527Y81018D01*
X505149Y81142D01*
X505676Y81494D01*
X506028Y82021D01*
X506152Y82643D01*
X506028Y83265D01*
X505676Y83792D01*
X505149Y84144D01*
X505081Y84158D01*
Y84668D01*
X505149Y84681D01*
X505676Y85034D01*
X506028Y85561D01*
X506152Y86182D01*
X506028Y86804D01*
X505676Y87331D01*
X505149Y87684D01*
X504825Y87748D01*
X504721Y87769D01*
Y88279D01*
X504825Y88299D01*
X505149Y88364D01*
X505676Y88716D01*
X506028Y89243D01*
X506152Y89865D01*
X506028Y90487D01*
X505676Y91014D01*
X505149Y91366D01*
X504527Y91490D01*
D02*
G37*
G36*
X265246Y83351D02*
X264624Y83227D01*
X264097Y82875D01*
X263745Y82348D01*
X263621Y81726D01*
X263745Y81104D01*
X264097Y80577D01*
X264624Y80225D01*
X265246Y80101D01*
X265868Y80225D01*
X266395Y80577D01*
X266747Y81104D01*
X266871Y81726D01*
X266747Y82348D01*
X266395Y82875D01*
X265868Y83227D01*
X265246Y83351D01*
D02*
G37*
G36*
X377870Y83244D02*
X377248Y83120D01*
X376720Y82768D01*
X376368Y82240D01*
X376244Y81619D01*
X376368Y80997D01*
X376720Y80470D01*
X377248Y80117D01*
X377870Y79994D01*
X378491Y80117D01*
X379018Y80470D01*
X379371Y80997D01*
X379494Y81619D01*
X379371Y82240D01*
X379018Y82768D01*
X378491Y83120D01*
X377870Y83244D01*
D02*
G37*
G36*
X447555Y82707D02*
X446933Y82583D01*
X446406Y82231D01*
X446054Y81704D01*
X445930Y81082D01*
X446054Y80461D01*
X446406Y79933D01*
X446933Y79581D01*
X447555Y79457D01*
X448177Y79581D01*
X448704Y79933D01*
X449056Y80461D01*
X449180Y81082D01*
X449056Y81704D01*
X448704Y82231D01*
X448177Y82583D01*
X447555Y82707D01*
D02*
G37*
G36*
X388988Y81841D02*
X388366Y81717D01*
X387839Y81365D01*
X387487Y80838D01*
X387363Y80216D01*
X387487Y79594D01*
X387839Y79067D01*
X388366Y78715D01*
X388988Y78591D01*
X389610Y78715D01*
X390137Y79067D01*
X390489Y79594D01*
X390613Y80216D01*
X390489Y80838D01*
X390137Y81365D01*
X389610Y81717D01*
X388988Y81841D01*
D02*
G37*
G36*
X420324Y79286D02*
X419702Y79162D01*
X419175Y78810D01*
X418822Y78283D01*
X418699Y77661D01*
X418822Y77039D01*
X419175Y76512D01*
X419702Y76160D01*
X420324Y76036D01*
X420945Y76160D01*
X421473Y76512D01*
X421825Y77039D01*
X421948Y77661D01*
X421825Y78283D01*
X421473Y78810D01*
X420945Y79162D01*
X420324Y79286D01*
D02*
G37*
G36*
X336554Y78762D02*
X335933Y78638D01*
X335405Y78286D01*
X335053Y77759D01*
X334929Y77137D01*
X335053Y76515D01*
X335405Y75988D01*
X335933Y75636D01*
X336554Y75512D01*
X337176Y75636D01*
X337703Y75988D01*
X338056Y76515D01*
X338179Y77137D01*
X338056Y77759D01*
X337703Y78286D01*
X337176Y78638D01*
X336554Y78762D01*
D02*
G37*
G36*
X433506Y81077D02*
X432884Y80953D01*
X432357Y80601D01*
X432004Y80074D01*
X431881Y79452D01*
X432004Y78830D01*
X432357Y78303D01*
X432283Y77750D01*
X432079Y77613D01*
X431726Y77086D01*
X431602Y76464D01*
X431726Y75843D01*
X432079Y75315D01*
X432606Y74963D01*
X433227Y74840D01*
X433849Y74963D01*
X434376Y75315D01*
X434729Y75843D01*
X434852Y76464D01*
X434729Y77086D01*
X434376Y77613D01*
X434450Y78166D01*
X434655Y78303D01*
X435007Y78830D01*
X435131Y79452D01*
X435007Y80074D01*
X434655Y80601D01*
X434127Y80953D01*
X433506Y81077D01*
D02*
G37*
G36*
X448536Y76614D02*
X447914Y76491D01*
X447387Y76138D01*
X447035Y75611D01*
X446911Y74989D01*
X447035Y74367D01*
X447387Y73840D01*
X447914Y73488D01*
X448536Y73364D01*
X449158Y73488D01*
X449685Y73840D01*
X450037Y74367D01*
X450161Y74989D01*
X450037Y75611D01*
X449685Y76138D01*
X449158Y76491D01*
X448536Y76614D01*
D02*
G37*
G36*
X318473Y76151D02*
X317851Y76027D01*
X317324Y75675D01*
X316972Y75148D01*
X316848Y74526D01*
X316972Y73904D01*
X317324Y73377D01*
X317851Y73025D01*
X318473Y72901D01*
X319095Y73025D01*
X319622Y73377D01*
X319974Y73904D01*
X320098Y74526D01*
X319974Y75148D01*
X319622Y75675D01*
X319095Y76027D01*
X318473Y76151D01*
D02*
G37*
G36*
X251449D02*
X250828Y76027D01*
X250300Y75675D01*
X249948Y75148D01*
X249824Y74526D01*
X249948Y73904D01*
X250300Y73377D01*
X250828Y73025D01*
X251449Y72901D01*
X252071Y73025D01*
X252598Y73377D01*
X252951Y73904D01*
X253074Y74526D01*
X252951Y75148D01*
X252598Y75675D01*
X252071Y76027D01*
X251449Y76151D01*
D02*
G37*
G36*
X635789Y101365D02*
X620890D01*
X620430Y101175D01*
X620240Y100716D01*
Y74550D01*
X620430Y74090D01*
X620790Y73941D01*
Y73450D01*
X620980Y72991D01*
X621440Y72800D01*
X635840D01*
X636299Y72991D01*
X636489Y73450D01*
Y98250D01*
X636439Y98370D01*
Y100716D01*
X636249Y101175D01*
X635789Y101365D01*
D02*
G37*
G36*
X196151Y75284D02*
X195529Y75160D01*
X195002Y74808D01*
X194649Y74281D01*
X194526Y73659D01*
X194649Y73037D01*
X195002Y72510D01*
X195529Y72158D01*
X196151Y72034D01*
X196773Y72158D01*
X197300Y72510D01*
X197652Y73037D01*
X197775Y73659D01*
X197652Y74281D01*
X197300Y74808D01*
X196773Y75160D01*
X196151Y75284D01*
D02*
G37*
G36*
X324270Y76758D02*
X323648Y76635D01*
X323120Y76283D01*
X322768Y75755D01*
X322645Y75134D01*
X322768Y74512D01*
X323120Y73985D01*
X323058Y73425D01*
X322863Y73295D01*
X322511Y72768D01*
X322387Y72146D01*
X322511Y71524D01*
X322863Y70997D01*
X323390Y70645D01*
X324012Y70521D01*
X324634Y70645D01*
X325161Y70997D01*
X325513Y71524D01*
X325637Y72146D01*
X325513Y72768D01*
X325161Y73295D01*
X325224Y73855D01*
X325418Y73985D01*
X325771Y74512D01*
X325894Y75134D01*
X325771Y75755D01*
X325418Y76283D01*
X324891Y76635D01*
X324270Y76758D01*
D02*
G37*
G36*
X288269Y70909D02*
X287647Y70785D01*
X287120Y70433D01*
X286768Y69906D01*
X286644Y69284D01*
X286768Y68662D01*
X287120Y68135D01*
X287647Y67783D01*
X288269Y67659D01*
X288891Y67783D01*
X289418Y68135D01*
X289770Y68662D01*
X289894Y69284D01*
X289770Y69906D01*
X289418Y70433D01*
X288891Y70785D01*
X288269Y70909D01*
D02*
G37*
G36*
X104987Y70736D02*
X104365Y70612D01*
X103838Y70260D01*
X103486Y69733D01*
X103362Y69111D01*
X103486Y68489D01*
X103838Y67962D01*
X104365Y67610D01*
X104987Y67486D01*
X105609Y67610D01*
X106136Y67962D01*
X106488Y68489D01*
X106612Y69111D01*
X106488Y69733D01*
X106136Y70260D01*
X105609Y70612D01*
X104987Y70736D01*
D02*
G37*
G36*
X115254Y76481D02*
X114632Y76357D01*
X114105Y76005D01*
X113752Y75478D01*
X113629Y74856D01*
X113752Y74234D01*
X114105Y73707D01*
X114247Y73612D01*
Y73112D01*
X114105Y73017D01*
X113752Y72490D01*
X113629Y71868D01*
X113752Y71246D01*
X114100Y70726D01*
X114174Y70607D01*
Y70173D01*
X114151Y70158D01*
X113799Y69631D01*
X113675Y69009D01*
X113799Y68387D01*
X114151Y67860D01*
X114679Y67508D01*
X115300Y67384D01*
X115922Y67508D01*
X116449Y67860D01*
X116802Y68387D01*
X116925Y69009D01*
X116802Y69631D01*
X116454Y70152D01*
X116380Y70271D01*
Y70704D01*
X116403Y70719D01*
X116755Y71246D01*
X116879Y71868D01*
X116755Y72490D01*
X116403Y73017D01*
X116261Y73112D01*
Y73612D01*
X116403Y73707D01*
X116755Y74234D01*
X116879Y74856D01*
X116755Y75478D01*
X116403Y76005D01*
X115875Y76357D01*
X115254Y76481D01*
D02*
G37*
G36*
X111400D02*
X110779Y76357D01*
X110251Y76005D01*
X109899Y75478D01*
X109776Y74856D01*
X109899Y74234D01*
X110251Y73707D01*
X110394Y73612D01*
Y73112D01*
X110251Y73017D01*
X109899Y72490D01*
X109776Y71868D01*
X109899Y71246D01*
X110251Y70719D01*
X110329Y70667D01*
Y70167D01*
X110251Y70115D01*
X109899Y69588D01*
X109776Y68966D01*
X109899Y68344D01*
X110251Y67817D01*
X110779Y67465D01*
X111400Y67341D01*
X112022Y67465D01*
X112549Y67817D01*
X112902Y68344D01*
X113025Y68966D01*
X112902Y69588D01*
X112549Y70115D01*
X112472Y70167D01*
Y70667D01*
X112549Y70719D01*
X112902Y71246D01*
X113025Y71868D01*
X112902Y72490D01*
X112549Y73017D01*
X112407Y73112D01*
Y73612D01*
X112549Y73707D01*
X112902Y74234D01*
X113025Y74856D01*
X112902Y75478D01*
X112549Y76005D01*
X112022Y76357D01*
X111400Y76481D01*
D02*
G37*
G36*
X281444Y70517D02*
X280822Y70393D01*
X280295Y70041D01*
X279943Y69513D01*
X279819Y68892D01*
X279943Y68270D01*
X280295Y67743D01*
X280822Y67390D01*
X281444Y67267D01*
X282066Y67390D01*
X282593Y67743D01*
X282945Y68270D01*
X283069Y68892D01*
X282945Y69513D01*
X282593Y70041D01*
X282066Y70393D01*
X281444Y70517D01*
D02*
G37*
G36*
X367209Y70453D02*
X366587Y70329D01*
X366060Y69977D01*
X365708Y69450D01*
X365584Y68828D01*
X365708Y68206D01*
X366060Y67679D01*
X366587Y67327D01*
X367209Y67203D01*
X367831Y67327D01*
X368358Y67679D01*
X368710Y68206D01*
X368834Y68828D01*
X368710Y69450D01*
X368358Y69977D01*
X367831Y70329D01*
X367209Y70453D01*
D02*
G37*
G36*
X226102Y68833D02*
X225480Y68710D01*
X224953Y68357D01*
X224600Y67830D01*
X224477Y67208D01*
X224600Y66587D01*
X224953Y66059D01*
X225480Y65707D01*
X226102Y65583D01*
X226723Y65707D01*
X227251Y66059D01*
X227477Y66398D01*
X228008Y66292D01*
X228074Y65960D01*
X228426Y65433D01*
X228953Y65081D01*
X229575Y64957D01*
X230197Y65081D01*
X230724Y65433D01*
X231076Y65960D01*
X231200Y66582D01*
X231076Y67204D01*
X230724Y67731D01*
X230197Y68083D01*
X229575Y68207D01*
X228953Y68083D01*
X228426Y67731D01*
X228200Y67393D01*
X227669Y67498D01*
X227603Y67830D01*
X227251Y68357D01*
X226723Y68710D01*
X226102Y68833D01*
D02*
G37*
G36*
X222284Y67800D02*
X221662Y67676D01*
X221135Y67324D01*
X220783Y66797D01*
X220659Y66175D01*
X220783Y65553D01*
X221135Y65026D01*
X221662Y64674D01*
X222284Y64550D01*
X222906Y64674D01*
X223433Y65026D01*
X223785Y65553D01*
X223909Y66175D01*
X223785Y66797D01*
X223433Y67324D01*
X222906Y67676D01*
X222284Y67800D01*
D02*
G37*
G36*
X234205Y68502D02*
X233583Y68379D01*
X233056Y68026D01*
X232704Y67499D01*
X232580Y66877D01*
X232704Y66255D01*
X233056Y65728D01*
X233583Y65376D01*
X234205Y65252D01*
X234827Y65376D01*
X235354Y65728D01*
X235498Y65944D01*
X236029Y65838D01*
X236101Y65477D01*
X236453Y64950D01*
X236980Y64598D01*
X237602Y64474D01*
X238224Y64598D01*
X238751Y64950D01*
X239103Y65477D01*
X239227Y66099D01*
X239103Y66721D01*
X238751Y67248D01*
X238224Y67600D01*
X237602Y67724D01*
X236980Y67600D01*
X236453Y67248D01*
X236309Y67032D01*
X235778Y67138D01*
X235706Y67499D01*
X235354Y68026D01*
X234827Y68379D01*
X234205Y68502D01*
D02*
G37*
G36*
X217497Y66078D02*
X216875Y65954D01*
X216348Y65602D01*
X215996Y65074D01*
X215872Y64453D01*
X215996Y63831D01*
X216348Y63304D01*
X216875Y62951D01*
X217497Y62828D01*
X218119Y62951D01*
X218646Y63304D01*
X218998Y63831D01*
X219122Y64453D01*
X218998Y65074D01*
X218646Y65602D01*
X218119Y65954D01*
X217497Y66078D01*
D02*
G37*
G36*
X253877Y65804D02*
X253255Y65681D01*
X252728Y65328D01*
X252376Y64801D01*
X252252Y64179D01*
X252376Y63557D01*
X252728Y63030D01*
X253255Y62678D01*
X253877Y62554D01*
X254499Y62678D01*
X255026Y63030D01*
X255378Y63557D01*
X255502Y64179D01*
X255378Y64801D01*
X255026Y65328D01*
X254499Y65681D01*
X253877Y65804D01*
D02*
G37*
G36*
X246852Y65722D02*
X246230Y65598D01*
X245703Y65246D01*
X245350Y64719D01*
X245227Y64097D01*
X245350Y63475D01*
X245703Y62948D01*
X246230Y62596D01*
X246852Y62472D01*
X247473Y62596D01*
X248001Y62948D01*
X248353Y63475D01*
X248477Y64097D01*
X248353Y64719D01*
X248001Y65246D01*
X247473Y65598D01*
X246852Y65722D01*
D02*
G37*
G36*
X240623Y65090D02*
X240001Y64966D01*
X239474Y64614D01*
X239122Y64087D01*
X238998Y63465D01*
X239122Y62843D01*
X239474Y62316D01*
X240001Y61964D01*
X240623Y61840D01*
X241245Y61964D01*
X241772Y62316D01*
X242124Y62843D01*
X242248Y63465D01*
X242124Y64087D01*
X241772Y64614D01*
X241245Y64966D01*
X240623Y65090D01*
D02*
G37*
G36*
X171665Y68814D02*
X164559D01*
Y61708D01*
X171665D01*
Y68814D01*
D02*
G37*
G36*
X158112Y68844D02*
X157185Y68722D01*
X156321Y68364D01*
X155578Y67795D01*
X155009Y67053D01*
X154651Y66188D01*
X154529Y65261D01*
X154651Y64333D01*
X155009Y63469D01*
X155578Y62727D01*
X156321Y62157D01*
X157185Y61800D01*
X158112Y61677D01*
X159040Y61800D01*
X159904Y62157D01*
X160646Y62727D01*
X161215Y63469D01*
X161574Y64333D01*
X161696Y65261D01*
X161574Y66188D01*
X161215Y67053D01*
X160646Y67795D01*
X159904Y68364D01*
X159040Y68722D01*
X158112Y68844D01*
D02*
G37*
G36*
X148112D02*
X147185Y68722D01*
X146320Y68364D01*
X145578Y67795D01*
X145009Y67053D01*
X144651Y66188D01*
X144529Y65261D01*
X144651Y64333D01*
X145009Y63469D01*
X145578Y62727D01*
X146320Y62157D01*
X147185Y61800D01*
X148112Y61677D01*
X149040Y61800D01*
X149904Y62157D01*
X150646Y62727D01*
X151216Y63469D01*
X151574Y64333D01*
X151696Y65261D01*
X151574Y66188D01*
X151216Y67053D01*
X150646Y67795D01*
X149904Y68364D01*
X149040Y68722D01*
X148112Y68844D01*
D02*
G37*
G36*
X349818Y62969D02*
X349197Y62845D01*
X348670Y62493D01*
X348317Y61966D01*
X348194Y61344D01*
X348317Y60722D01*
X348670Y60195D01*
X349197Y59843D01*
X349818Y59719D01*
X350440Y59843D01*
X350968Y60195D01*
X351320Y60722D01*
X351443Y61344D01*
X351320Y61966D01*
X350968Y62493D01*
X350440Y62845D01*
X349818Y62969D01*
D02*
G37*
G36*
X198397Y62402D02*
X197775Y62278D01*
X197248Y61926D01*
X196896Y61399D01*
X196772Y60777D01*
X196896Y60155D01*
X197248Y59628D01*
X197775Y59276D01*
X198397Y59152D01*
X199019Y59276D01*
X199546Y59628D01*
X199899Y60155D01*
X200022Y60777D01*
X199899Y61399D01*
X199546Y61926D01*
X199019Y62278D01*
X198397Y62402D01*
D02*
G37*
G36*
X190300Y61996D02*
X189678Y61873D01*
X189151Y61520D01*
X188799Y60993D01*
X188675Y60371D01*
X188799Y59750D01*
X189151Y59222D01*
X189678Y58870D01*
X190300Y58746D01*
X190922Y58870D01*
X191449Y59222D01*
X191801Y59750D01*
X191925Y60371D01*
X191801Y60993D01*
X191449Y61520D01*
X190922Y61873D01*
X190300Y61996D01*
D02*
G37*
G36*
X374817Y60478D02*
X374195Y60355D01*
X373668Y60002D01*
X373316Y59475D01*
X373192Y58853D01*
X373316Y58232D01*
X373668Y57704D01*
X374195Y57352D01*
X374817Y57228D01*
X375439Y57352D01*
X375966Y57704D01*
X376318Y58232D01*
X376442Y58853D01*
X376318Y59475D01*
X375966Y60002D01*
X375439Y60355D01*
X374817Y60478D01*
D02*
G37*
G36*
X367209Y60281D02*
X366587Y60158D01*
X366060Y59806D01*
X365708Y59278D01*
X365584Y58657D01*
X365708Y58035D01*
X366060Y57507D01*
X366587Y57155D01*
X367209Y57032D01*
X367831Y57155D01*
X368358Y57507D01*
X368710Y58035D01*
X368834Y58657D01*
X368710Y59278D01*
X368358Y59806D01*
X367831Y60158D01*
X367209Y60281D01*
D02*
G37*
G36*
X319199Y59301D02*
X318577Y59177D01*
X318050Y58825D01*
X317698Y58298D01*
X317574Y57676D01*
X317698Y57054D01*
X318050Y56527D01*
X318577Y56175D01*
X319199Y56051D01*
X319821Y56175D01*
X320348Y56527D01*
X320700Y57054D01*
X320824Y57676D01*
X320700Y58298D01*
X320348Y58825D01*
X319821Y59177D01*
X319199Y59301D01*
D02*
G37*
G36*
X306507Y59135D02*
X305886Y59012D01*
X305358Y58659D01*
X305006Y58132D01*
X304883Y57511D01*
X305006Y56889D01*
X305358Y56362D01*
X305886Y56009D01*
X306507Y55886D01*
X307129Y56009D01*
X307656Y56362D01*
X308009Y56889D01*
X308132Y57511D01*
X308009Y58132D01*
X307656Y58659D01*
X307129Y59012D01*
X306507Y59135D01*
D02*
G37*
G36*
X289540D02*
X288918Y59012D01*
X288391Y58659D01*
X288039Y58132D01*
X287915Y57511D01*
X288039Y56889D01*
X288391Y56362D01*
X288918Y56009D01*
X289540Y55886D01*
X290162Y56009D01*
X290689Y56362D01*
X291041Y56889D01*
X291165Y57511D01*
X291041Y58132D01*
X290689Y58659D01*
X290162Y59012D01*
X289540Y59135D01*
D02*
G37*
G36*
X392399Y55664D02*
X391777Y55540D01*
X391250Y55188D01*
X390898Y54660D01*
X390774Y54039D01*
X390898Y53417D01*
X391250Y52890D01*
X391777Y52537D01*
X392399Y52414D01*
X393021Y52537D01*
X393548Y52890D01*
X393900Y53417D01*
X394024Y54039D01*
X393900Y54660D01*
X393548Y55188D01*
X393021Y55540D01*
X392399Y55664D01*
D02*
G37*
G36*
X218831Y54501D02*
X218209Y54377D01*
X217682Y54025D01*
X217330Y53498D01*
X217206Y52876D01*
X217330Y52254D01*
X217682Y51727D01*
X218209Y51375D01*
X218831Y51251D01*
X219453Y51375D01*
X219980Y51727D01*
X220332Y52254D01*
X220456Y52876D01*
X220332Y53498D01*
X219980Y54025D01*
X219453Y54377D01*
X218831Y54501D01*
D02*
G37*
G36*
X223708Y54393D02*
X223086Y54269D01*
X222559Y53917D01*
X222207Y53390D01*
X222083Y52768D01*
X222207Y52146D01*
X222559Y51619D01*
X223086Y51266D01*
X223708Y51143D01*
X224330Y51266D01*
X224857Y51619D01*
X225209Y52146D01*
X225333Y52768D01*
X225209Y53390D01*
X224857Y53917D01*
X224330Y54269D01*
X223708Y54393D01*
D02*
G37*
G36*
X321046Y54351D02*
X320425Y54227D01*
X319898Y53875D01*
X319545Y53348D01*
X319422Y52726D01*
X319545Y52104D01*
X319898Y51577D01*
X320425Y51225D01*
X321046Y51101D01*
X321668Y51225D01*
X322196Y51577D01*
X322548Y52104D01*
X322671Y52726D01*
X322548Y53348D01*
X322196Y53875D01*
X321668Y54227D01*
X321046Y54351D01*
D02*
G37*
G36*
X303439Y53901D02*
X302818Y53777D01*
X302290Y53425D01*
X301938Y52898D01*
X301815Y52276D01*
X301938Y51654D01*
X302290Y51127D01*
X302818Y50775D01*
X303439Y50651D01*
X304061Y50775D01*
X304588Y51127D01*
X304941Y51654D01*
X305064Y52276D01*
X304941Y52898D01*
X304588Y53425D01*
X304061Y53777D01*
X303439Y53901D01*
D02*
G37*
G36*
X399168Y53270D02*
X398546Y53146D01*
X398019Y52794D01*
X397667Y52267D01*
X397543Y51645D01*
X397667Y51023D01*
X398019Y50496D01*
X398546Y50144D01*
X399168Y50020D01*
X399790Y50144D01*
X400317Y50496D01*
X400669Y51023D01*
X400793Y51645D01*
X400669Y52267D01*
X400317Y52794D01*
X399790Y53146D01*
X399168Y53270D01*
D02*
G37*
G36*
X183935Y56115D02*
X183314Y55991D01*
X182787Y55639D01*
X182434Y55111D01*
X182311Y54490D01*
X182434Y53868D01*
X182624Y53584D01*
X182416Y53032D01*
X182271Y53003D01*
X181744Y52651D01*
X181392Y52124D01*
X181268Y51502D01*
X181392Y50880D01*
X181744Y50353D01*
X182271Y50001D01*
X182893Y49877D01*
X183515Y50001D01*
X184042Y50353D01*
X184394Y50880D01*
X184518Y51502D01*
X184394Y52124D01*
X184204Y52408D01*
X184412Y52960D01*
X184557Y52988D01*
X185084Y53341D01*
X185437Y53868D01*
X185560Y54490D01*
X185437Y55111D01*
X185084Y55639D01*
X184557Y55991D01*
X183935Y56115D01*
D02*
G37*
G36*
X409276Y52575D02*
X408654Y52452D01*
X408127Y52099D01*
X407775Y51572D01*
X407651Y50950D01*
X407775Y50328D01*
X408127Y49801D01*
X408654Y49449D01*
X409276Y49325D01*
X409898Y49449D01*
X410425Y49801D01*
X410777Y50328D01*
X410901Y50950D01*
X410777Y51572D01*
X410425Y52099D01*
X409898Y52452D01*
X409276Y52575D01*
D02*
G37*
G36*
X306834Y52267D02*
X306212Y52143D01*
X305685Y51791D01*
X305333Y51263D01*
X305209Y50642D01*
X305333Y50020D01*
X305685Y49493D01*
X306212Y49141D01*
X306834Y49017D01*
X307456Y49141D01*
X307983Y49493D01*
X308335Y50020D01*
X308459Y50642D01*
X308335Y51263D01*
X307983Y51791D01*
X307456Y52143D01*
X306834Y52267D01*
D02*
G37*
G36*
X22103Y52236D02*
X21481Y52113D01*
X20954Y51761D01*
X20601Y51233D01*
X20478Y50612D01*
X20601Y49990D01*
X20954Y49463D01*
X21481Y49110D01*
X22103Y48987D01*
X22724Y49110D01*
X23252Y49463D01*
X23604Y49990D01*
X23728Y50612D01*
X23604Y51233D01*
X23252Y51761D01*
X22724Y52113D01*
X22103Y52236D01*
D02*
G37*
G36*
X52062Y52236D02*
X51441Y52113D01*
X50913Y51761D01*
X50561Y51233D01*
X50437Y50612D01*
X50561Y49990D01*
X50913Y49463D01*
X51441Y49110D01*
X52062Y48987D01*
X52684Y49110D01*
X53211Y49463D01*
X53564Y49990D01*
X53687Y50612D01*
X53564Y51233D01*
X53211Y51761D01*
X52684Y52113D01*
X52062Y52236D01*
D02*
G37*
G36*
X174325Y51587D02*
X173703Y51463D01*
X173176Y51111D01*
X172824Y50584D01*
X172700Y49962D01*
X172824Y49340D01*
X173176Y48813D01*
X173703Y48461D01*
X174325Y48337D01*
X174947Y48461D01*
X175474Y48813D01*
X175826Y49340D01*
X175950Y49962D01*
X175826Y50584D01*
X175474Y51111D01*
X174947Y51463D01*
X174325Y51587D01*
D02*
G37*
G36*
X279051Y51567D02*
X278429Y51443D01*
X277902Y51091D01*
X277549Y50564D01*
X277426Y49942D01*
X277549Y49320D01*
X277902Y48793D01*
X278429Y48441D01*
X279051Y48317D01*
X279672Y48441D01*
X280200Y48793D01*
X280552Y49320D01*
X280676Y49942D01*
X280552Y50564D01*
X280200Y51091D01*
X279672Y51443D01*
X279051Y51567D01*
D02*
G37*
G36*
X402475Y51422D02*
X401853Y51298D01*
X401326Y50946D01*
X400973Y50419D01*
X400850Y49797D01*
X400973Y49175D01*
X401326Y48648D01*
X401853Y48296D01*
X402475Y48172D01*
X403096Y48296D01*
X403624Y48648D01*
X403976Y49175D01*
X404100Y49797D01*
X403976Y50419D01*
X403624Y50946D01*
X403096Y51298D01*
X402475Y51422D01*
D02*
G37*
G36*
X266520Y51303D02*
X265898Y51179D01*
X265371Y50827D01*
X265019Y50300D01*
X264895Y49678D01*
X265019Y49056D01*
X265371Y48529D01*
X265898Y48177D01*
X266520Y48053D01*
X267142Y48177D01*
X267669Y48529D01*
X268021Y49056D01*
X268145Y49678D01*
X268021Y50300D01*
X267669Y50827D01*
X267142Y51179D01*
X266520Y51303D01*
D02*
G37*
G36*
X178162Y50738D02*
X177540Y50615D01*
X177013Y50262D01*
X176660Y49735D01*
X176537Y49113D01*
X176660Y48491D01*
X177013Y47964D01*
X177540Y47612D01*
X178162Y47488D01*
X178783Y47612D01*
X179311Y47964D01*
X179663Y48491D01*
X179786Y49113D01*
X179663Y49735D01*
X179311Y50262D01*
X178783Y50615D01*
X178162Y50738D01*
D02*
G37*
G36*
X164126Y50116D02*
X163505Y49993D01*
X162977Y49640D01*
X162625Y49113D01*
X162502Y48491D01*
X162625Y47870D01*
X162977Y47343D01*
X163505Y46990D01*
X164126Y46867D01*
X164748Y46990D01*
X165275Y47343D01*
X165628Y47870D01*
X165751Y48491D01*
X165628Y49113D01*
X165275Y49640D01*
X164748Y49993D01*
X164126Y50116D01*
D02*
G37*
G36*
X406034Y48955D02*
X405412Y48831D01*
X404885Y48479D01*
X404533Y47952D01*
X404409Y47330D01*
X404533Y46708D01*
X404885Y46181D01*
X405412Y45829D01*
X406034Y45705D01*
X406656Y45829D01*
X407183Y46181D01*
X407535Y46708D01*
X407659Y47330D01*
X407535Y47952D01*
X407183Y48479D01*
X406656Y48831D01*
X406034Y48955D01*
D02*
G37*
G36*
X386812Y46267D02*
X386190Y46143D01*
X385663Y45791D01*
X385311Y45264D01*
X385187Y44642D01*
X385311Y44020D01*
X385663Y43493D01*
X386190Y43141D01*
X386812Y43017D01*
X387434Y43141D01*
X387961Y43493D01*
X388313Y44020D01*
X388437Y44642D01*
X388313Y45264D01*
X387961Y45791D01*
X387434Y46143D01*
X386812Y46267D01*
D02*
G37*
G36*
X227225Y44439D02*
X226603Y44315D01*
X226076Y43963D01*
X225724Y43436D01*
X225600Y42814D01*
X225724Y42192D01*
X226076Y41665D01*
X226603Y41313D01*
X227225Y41189D01*
X227847Y41313D01*
X228374Y41665D01*
X228726Y42192D01*
X228850Y42814D01*
X228726Y43436D01*
X228374Y43963D01*
X227847Y44315D01*
X227225Y44439D01*
D02*
G37*
G36*
X396550Y42742D02*
X395929Y42618D01*
X395401Y42266D01*
X395049Y41739D01*
X394925Y41117D01*
X395049Y40495D01*
X395401Y39968D01*
X395929Y39616D01*
X396550Y39492D01*
X397172Y39616D01*
X397699Y39968D01*
X398052Y40495D01*
X398175Y41117D01*
X398052Y41739D01*
X397699Y42266D01*
X397172Y42618D01*
X396550Y42742D01*
D02*
G37*
G36*
X100788Y42598D02*
X100166Y42474D01*
X99639Y42122D01*
X99287Y41594D01*
X99163Y40973D01*
X99287Y40351D01*
X99639Y39824D01*
X100166Y39472D01*
X100788Y39348D01*
X101410Y39472D01*
X101937Y39824D01*
X102289Y40351D01*
X102413Y40973D01*
X102289Y41594D01*
X101937Y42122D01*
X101410Y42474D01*
X100788Y42598D01*
D02*
G37*
G36*
X171665Y46094D02*
X164559D01*
Y38988D01*
X171665D01*
Y46094D01*
D02*
G37*
G36*
X158112Y46124D02*
X157185Y46002D01*
X156321Y45644D01*
X155578Y45075D01*
X155009Y44333D01*
X154651Y43468D01*
X154529Y42541D01*
X154651Y41613D01*
X155009Y40749D01*
X155578Y40007D01*
X156321Y39437D01*
X157185Y39079D01*
X158112Y38957D01*
X159040Y39079D01*
X159904Y39437D01*
X160646Y40007D01*
X161215Y40749D01*
X161574Y41613D01*
X161696Y42541D01*
X161574Y43468D01*
X161215Y44333D01*
X160646Y45075D01*
X159904Y45644D01*
X159040Y46002D01*
X158112Y46124D01*
D02*
G37*
G36*
X148112D02*
X147185Y46002D01*
X146320Y45644D01*
X145578Y45075D01*
X145009Y44333D01*
X144651Y43468D01*
X144529Y42541D01*
X144651Y41613D01*
X145009Y40749D01*
X145578Y40007D01*
X146320Y39437D01*
X147185Y39079D01*
X148112Y38957D01*
X149040Y39079D01*
X149904Y39437D01*
X150646Y40007D01*
X151216Y40749D01*
X151574Y41613D01*
X151696Y42541D01*
X151574Y43468D01*
X151216Y44333D01*
X150646Y45075D01*
X149904Y45644D01*
X149040Y46002D01*
X148112Y46124D01*
D02*
G37*
G36*
X198184Y42195D02*
X197562Y42071D01*
X197035Y41719D01*
X196683Y41192D01*
X196559Y40570D01*
X196683Y39948D01*
X197035Y39421D01*
X197562Y39069D01*
X198184Y38945D01*
X198806Y39069D01*
X199333Y39421D01*
X199685Y39948D01*
X199809Y40570D01*
X199685Y41192D01*
X199333Y41719D01*
X198806Y42071D01*
X198184Y42195D01*
D02*
G37*
G36*
X383409Y41978D02*
X382787Y41855D01*
X382260Y41503D01*
X381908Y40975D01*
X381784Y40354D01*
X381908Y39732D01*
X382260Y39205D01*
X382787Y38852D01*
X383409Y38729D01*
X384031Y38852D01*
X384558Y39205D01*
X384910Y39732D01*
X385034Y40354D01*
X384910Y40975D01*
X384558Y41503D01*
X384031Y41855D01*
X383409Y41978D01*
D02*
G37*
G36*
X373594D02*
X372973Y41855D01*
X372445Y41503D01*
X372093Y40975D01*
X371970Y40354D01*
X372093Y39732D01*
X372445Y39205D01*
X372973Y38852D01*
X373594Y38729D01*
X374216Y38852D01*
X374743Y39205D01*
X375096Y39732D01*
X375219Y40354D01*
X375096Y40975D01*
X374743Y41503D01*
X374216Y41855D01*
X373594Y41978D01*
D02*
G37*
G36*
X81274Y41154D02*
X80652Y41030D01*
X80125Y40678D01*
X79773Y40151D01*
X79649Y39529D01*
X79773Y38907D01*
X80125Y38380D01*
X80652Y38028D01*
X81274Y37904D01*
X81896Y38028D01*
X82423Y38380D01*
X82775Y38907D01*
X82899Y39529D01*
X82775Y40151D01*
X82423Y40678D01*
X81896Y41030D01*
X81274Y41154D01*
D02*
G37*
G36*
X76558Y44377D02*
X75936Y44253D01*
X75409Y43901D01*
X75057Y43374D01*
X74933Y42752D01*
X75057Y42130D01*
X75409Y41603D01*
X75936Y41251D01*
X76030Y40722D01*
X75964Y40678D01*
X75612Y40151D01*
X75488Y39529D01*
X75612Y38907D01*
X75964Y38380D01*
X76491Y38028D01*
X77113Y37904D01*
X77735Y38028D01*
X78262Y38380D01*
X78614Y38907D01*
X78738Y39529D01*
X78614Y40151D01*
X78262Y40678D01*
X77735Y41030D01*
X77641Y41559D01*
X77707Y41603D01*
X78060Y42130D01*
X78183Y42752D01*
X78060Y43374D01*
X77707Y43901D01*
X77180Y44253D01*
X76558Y44377D01*
D02*
G37*
G36*
X336554Y40145D02*
X335933Y40021D01*
X335405Y39669D01*
X335053Y39142D01*
X334929Y38520D01*
X335053Y37898D01*
X335405Y37371D01*
X335933Y37019D01*
X336554Y36895D01*
X337176Y37019D01*
X337703Y37371D01*
X338056Y37898D01*
X338179Y38520D01*
X338056Y39142D01*
X337703Y39669D01*
X337176Y40021D01*
X336554Y40145D01*
D02*
G37*
G36*
X373546Y37993D02*
X372924Y37869D01*
X372397Y37517D01*
X372044Y36990D01*
X371921Y36368D01*
X372044Y35746D01*
X372397Y35219D01*
X372924Y34866D01*
X373546Y34743D01*
X374167Y34866D01*
X374695Y35219D01*
X375047Y35746D01*
X375170Y36368D01*
X375047Y36990D01*
X374695Y37517D01*
X374167Y37869D01*
X373546Y37993D01*
D02*
G37*
G36*
X645919Y44028D02*
X635569D01*
Y33678D01*
X645919D01*
Y44028D01*
D02*
G37*
G36*
X246090Y34649D02*
X245468Y34525D01*
X244941Y34173D01*
X244589Y33646D01*
X244465Y33024D01*
X244589Y32402D01*
X244941Y31875D01*
X245468Y31523D01*
X246090Y31399D01*
X246712Y31523D01*
X247239Y31875D01*
X247591Y32402D01*
X247715Y33024D01*
X247591Y33646D01*
X247239Y34173D01*
X246712Y34525D01*
X246090Y34649D01*
D02*
G37*
G36*
X281135Y34537D02*
X280514Y34413D01*
X279986Y34061D01*
X279634Y33534D01*
X279510Y32912D01*
X279634Y32290D01*
X279986Y31763D01*
X280514Y31411D01*
X281135Y31287D01*
X281757Y31411D01*
X282284Y31763D01*
X282637Y32290D01*
X282760Y32912D01*
X282637Y33534D01*
X282284Y34061D01*
X281757Y34413D01*
X281135Y34537D01*
D02*
G37*
G36*
X115300Y34430D02*
X114679Y34306D01*
X114151Y33954D01*
X113799Y33427D01*
X113675Y32805D01*
X113799Y32183D01*
X114151Y31656D01*
X114679Y31304D01*
X115300Y31180D01*
X115922Y31304D01*
X116449Y31656D01*
X116802Y32183D01*
X116925Y32805D01*
X116802Y33427D01*
X116449Y33954D01*
X115922Y34306D01*
X115300Y34430D01*
D02*
G37*
G36*
X251995Y34104D02*
X251373Y33981D01*
X250846Y33629D01*
X250494Y33101D01*
X250370Y32480D01*
X250494Y31858D01*
X250846Y31331D01*
X251373Y30978D01*
X251995Y30855D01*
X252617Y30978D01*
X253144Y31331D01*
X253496Y31858D01*
X253620Y32480D01*
X253496Y33101D01*
X253144Y33629D01*
X252617Y33981D01*
X251995Y34104D01*
D02*
G37*
G36*
X87893Y31386D02*
X87271Y31263D01*
X86744Y30910D01*
X86392Y30383D01*
X86268Y29761D01*
X86392Y29140D01*
X86744Y28612D01*
X87271Y28260D01*
X87893Y28137D01*
X88515Y28260D01*
X89042Y28612D01*
X89394Y29140D01*
X89518Y29761D01*
X89394Y30383D01*
X89042Y30910D01*
X88515Y31263D01*
X87893Y31386D01*
D02*
G37*
G36*
X221210Y25808D02*
X220588Y25684D01*
X220061Y25332D01*
X219709Y24805D01*
X219585Y24183D01*
X219709Y23561D01*
X220061Y23034D01*
X220588Y22682D01*
X221210Y22558D01*
X221832Y22682D01*
X222359Y23034D01*
X222711Y23561D01*
X222835Y24183D01*
X222711Y24805D01*
X222359Y25332D01*
X221832Y25684D01*
X221210Y25808D01*
D02*
G37*
G36*
X288268Y25180D02*
X287647Y25056D01*
X287119Y24704D01*
X286767Y24177D01*
X286643Y23555D01*
X286767Y22933D01*
X287119Y22406D01*
X287647Y22054D01*
X288268Y21930D01*
X288890Y22054D01*
X289417Y22406D01*
X289770Y22933D01*
X289893Y23555D01*
X289770Y24177D01*
X289417Y24704D01*
X288890Y25056D01*
X288268Y25180D01*
D02*
G37*
G36*
X323830Y24636D02*
X323208Y24512D01*
X322681Y24160D01*
X322329Y23633D01*
X322205Y23011D01*
X322329Y22389D01*
X322681Y21862D01*
X323208Y21510D01*
X323830Y21386D01*
X324452Y21510D01*
X324979Y21862D01*
X325331Y22389D01*
X325455Y23011D01*
X325331Y23633D01*
X324979Y24160D01*
X324452Y24512D01*
X323830Y24636D01*
D02*
G37*
G36*
X150201Y22591D02*
X149579Y22468D01*
X149052Y22116D01*
X148700Y21588D01*
X148576Y20967D01*
X148700Y20345D01*
X149052Y19817D01*
X149579Y19465D01*
X150201Y19342D01*
X150823Y19465D01*
X151350Y19817D01*
X151702Y20345D01*
X151826Y20967D01*
X151702Y21588D01*
X151350Y22116D01*
X150823Y22468D01*
X150201Y22591D01*
D02*
G37*
G36*
X140211Y22473D02*
X139589Y22349D01*
X139062Y21997D01*
X138710Y21470D01*
X138586Y20848D01*
X138710Y20226D01*
X139062Y19699D01*
X139589Y19347D01*
X140211Y19223D01*
X140833Y19347D01*
X141360Y19699D01*
X141712Y20226D01*
X141836Y20848D01*
X141712Y21470D01*
X141360Y21997D01*
X140833Y22349D01*
X140211Y22473D01*
D02*
G37*
G36*
X135201D02*
X134579Y22349D01*
X134052Y21997D01*
X133700Y21470D01*
X133576Y20848D01*
X133700Y20226D01*
X134052Y19699D01*
X134579Y19347D01*
X135201Y19223D01*
X135823Y19347D01*
X136350Y19699D01*
X136702Y20226D01*
X136826Y20848D01*
X136702Y21470D01*
X136350Y21997D01*
X135823Y22349D01*
X135201Y22473D01*
D02*
G37*
G36*
X129865D02*
X129244Y22349D01*
X128717Y21997D01*
X128364Y21470D01*
X128241Y20848D01*
X128364Y20226D01*
X128717Y19699D01*
X129244Y19347D01*
X129865Y19223D01*
X130487Y19347D01*
X131014Y19699D01*
X131367Y20226D01*
X131490Y20848D01*
X131367Y21470D01*
X131014Y21997D01*
X130487Y22349D01*
X129865Y22473D01*
D02*
G37*
G36*
X221210Y18827D02*
X220588Y18703D01*
X220061Y18351D01*
X219709Y17824D01*
X219585Y17202D01*
X219709Y16580D01*
X220061Y16053D01*
X220588Y15701D01*
X221210Y15577D01*
X221832Y15701D01*
X222359Y16053D01*
X222711Y16580D01*
X222835Y17202D01*
X222711Y17824D01*
X222359Y18351D01*
X221832Y18703D01*
X221210Y18827D01*
D02*
G37*
G36*
X119365Y12971D02*
X118743Y12847D01*
X118216Y12495D01*
X117864Y11968D01*
X117740Y11346D01*
X117864Y10724D01*
X118216Y10197D01*
X118743Y9844D01*
X119365Y9721D01*
X119986Y9844D01*
X120514Y10197D01*
X120866Y10724D01*
X120990Y11346D01*
X120866Y11968D01*
X120514Y12495D01*
X119986Y12847D01*
X119365Y12971D01*
D02*
G37*
G36*
X70063Y11720D02*
X69441Y11597D01*
X68914Y11244D01*
X68562Y10717D01*
X68438Y10096D01*
X68562Y9474D01*
X68914Y8946D01*
X69441Y8594D01*
X70063Y8471D01*
X70685Y8594D01*
X71212Y8946D01*
X71564Y9474D01*
X71688Y10096D01*
X71564Y10717D01*
X71212Y11244D01*
X70685Y11597D01*
X70063Y11720D01*
D02*
G37*
G36*
X89811Y11714D02*
X89189Y11591D01*
X88662Y11238D01*
X88309Y10711D01*
X88186Y10089D01*
X88309Y9467D01*
X88662Y8940D01*
X89189Y8588D01*
X89811Y8464D01*
X90433Y8588D01*
X90960Y8940D01*
X91312Y9467D01*
X91436Y10089D01*
X91312Y10711D01*
X90960Y11238D01*
X90433Y11591D01*
X89811Y11714D01*
D02*
G37*
G36*
X351512Y5262D02*
X350890Y5138D01*
X350363Y4786D01*
X350011Y4259D01*
X349887Y3637D01*
X350011Y3015D01*
X350363Y2488D01*
X350890Y2136D01*
X351512Y2012D01*
X352134Y2136D01*
X352661Y2488D01*
X353013Y3015D01*
X353137Y3637D01*
X353013Y4259D01*
X352661Y4786D01*
X352134Y5138D01*
X351512Y5262D01*
D02*
G37*
G36*
X386637Y2768D02*
X386015Y2644D01*
X385488Y2292D01*
X385135Y1765D01*
X385012Y1143D01*
X385135Y521D01*
X385488Y-6D01*
X386015Y-358D01*
X386637Y-482D01*
X387258Y-358D01*
X387786Y-6D01*
X388138Y521D01*
X388262Y1143D01*
X388138Y1765D01*
X387786Y2292D01*
X387258Y2644D01*
X386637Y2768D01*
D02*
G37*
G36*
X181810Y936D02*
X181188Y812D01*
X180661Y460D01*
X180308Y-67D01*
X180185Y-689D01*
X180308Y-1311D01*
X180661Y-1838D01*
X181188Y-2190D01*
X181810Y-2314D01*
X182431Y-2190D01*
X182959Y-1838D01*
X183311Y-1311D01*
X183434Y-689D01*
X183311Y-67D01*
X182959Y460D01*
X182431Y812D01*
X181810Y936D01*
D02*
G37*
G36*
X175753D02*
X175132Y812D01*
X174605Y460D01*
X174252Y-67D01*
X174129Y-689D01*
X174252Y-1311D01*
X174605Y-1838D01*
X175132Y-2190D01*
X175753Y-2314D01*
X176375Y-2190D01*
X176902Y-1838D01*
X177255Y-1311D01*
X177378Y-689D01*
X177255Y-67D01*
X176902Y460D01*
X176375Y812D01*
X175753Y936D01*
D02*
G37*
G36*
X168818Y738D02*
X168196Y615D01*
X167669Y262D01*
X167316Y-265D01*
X167193Y-887D01*
X167316Y-1508D01*
X167669Y-2036D01*
X168196Y-2388D01*
X168818Y-2512D01*
X169439Y-2388D01*
X169967Y-2036D01*
X170319Y-1508D01*
X170442Y-887D01*
X170319Y-265D01*
X169967Y262D01*
X169439Y615D01*
X168818Y738D01*
D02*
G37*
G36*
X186126Y-1399D02*
X185504Y-1523D01*
X184977Y-1875D01*
X184625Y-2402D01*
X184501Y-3024D01*
X184625Y-3646D01*
X184977Y-4173D01*
X185504Y-4525D01*
X186126Y-4649D01*
X186748Y-4525D01*
X187275Y-4173D01*
X187627Y-3646D01*
X187751Y-3024D01*
X187627Y-2402D01*
X187275Y-1875D01*
X186748Y-1523D01*
X186126Y-1399D01*
D02*
G37*
G36*
X199069Y-1532D02*
X198447Y-1655D01*
X197920Y-2008D01*
X197568Y-2535D01*
X197444Y-3157D01*
X197568Y-3778D01*
X197920Y-4306D01*
X198447Y-4658D01*
X199069Y-4781D01*
X199691Y-4658D01*
X200218Y-4306D01*
X200570Y-3778D01*
X200694Y-3157D01*
X200570Y-2535D01*
X200218Y-2008D01*
X199691Y-1655D01*
X199069Y-1532D01*
D02*
G37*
G36*
X194802Y-1716D02*
X194180Y-1840D01*
X193653Y-2192D01*
X193301Y-2719D01*
X193177Y-3341D01*
X193301Y-3963D01*
X193653Y-4490D01*
X194180Y-4842D01*
X194802Y-4966D01*
X195424Y-4842D01*
X195951Y-4490D01*
X196303Y-3963D01*
X196427Y-3341D01*
X196303Y-2719D01*
X195951Y-2192D01*
X195424Y-1840D01*
X194802Y-1716D01*
D02*
G37*
G36*
X190471Y-1736D02*
X189849Y-1860D01*
X189322Y-2212D01*
X188970Y-2740D01*
X188846Y-3361D01*
X188970Y-3983D01*
X189322Y-4510D01*
X189849Y-4863D01*
X190471Y-4986D01*
X191093Y-4863D01*
X191620Y-4510D01*
X191972Y-3983D01*
X192096Y-3361D01*
X191972Y-2740D01*
X191620Y-2212D01*
X191093Y-1860D01*
X190471Y-1736D01*
D02*
G37*
G36*
X125345Y-2693D02*
X124724Y-2816D01*
X124196Y-3168D01*
X123844Y-3696D01*
X123721Y-4318D01*
X123844Y-4939D01*
X124196Y-5466D01*
X124724Y-5819D01*
X125345Y-5942D01*
X125967Y-5819D01*
X126494Y-5466D01*
X126847Y-4939D01*
X126970Y-4318D01*
X126847Y-3696D01*
X126494Y-3168D01*
X125967Y-2816D01*
X125345Y-2693D01*
D02*
G37*
G36*
X302497Y-6464D02*
X301876Y-6588D01*
X301348Y-6940D01*
X300996Y-7468D01*
X300872Y-8089D01*
X300996Y-8711D01*
X301348Y-9238D01*
X301490Y-9333D01*
Y-9833D01*
X301348Y-9928D01*
X300996Y-10455D01*
X300872Y-11077D01*
X300996Y-11699D01*
X301348Y-12226D01*
X301876Y-12578D01*
X302497Y-12702D01*
X303119Y-12578D01*
X303646Y-12226D01*
X303999Y-11699D01*
X304122Y-11077D01*
X303999Y-10455D01*
X303646Y-9928D01*
X303505Y-9833D01*
Y-9333D01*
X303646Y-9238D01*
X303999Y-8711D01*
X304122Y-8089D01*
X303999Y-7468D01*
X303646Y-6940D01*
X303119Y-6588D01*
X302497Y-6464D01*
D02*
G37*
%LPD*%
D17*
X184754Y81035D02*
X184832D01*
X472508Y91530D02*
X485361Y104383D01*
X214154Y71405D02*
X214822D01*
X203998Y81561D02*
X214154Y71405D01*
X194393Y81561D02*
X203998D01*
X184591Y80464D02*
Y80742D01*
X182237Y78110D02*
X184591Y80464D01*
Y81199D02*
X184754Y81035D01*
X184591Y81199D02*
Y96032D01*
X193867Y81035D02*
X194393Y81561D01*
X185332Y81035D02*
X193867D01*
X410509Y27606D02*
X472508Y89606D01*
X357367Y27606D02*
X410509D01*
X472508Y89606D02*
Y91530D01*
X336373Y27606D02*
X357367D01*
X323350Y40629D02*
X336373Y27606D01*
X189480Y55826D02*
X202309D01*
X306473Y23753D02*
X323350Y40629D01*
X306473Y13897D02*
Y23753D01*
X214125Y44010D02*
X244238Y13897D01*
X306473D01*
X182237Y63070D02*
X189480Y55826D01*
X202309D02*
X214125Y44010D01*
X182237Y63070D02*
Y68966D01*
Y78110D01*
D33*
X617118Y169097D02*
D03*
D180*
X255750Y261791D02*
D03*
X239569Y272972D02*
D03*
X95350Y272819D02*
D03*
D184*
X650744Y28853D02*
D03*
X630744D02*
D03*
Y48853D02*
D03*
X650744D02*
D03*
D187*
X323830Y23011D02*
X323922Y22919D01*
D192*
X137707Y207514D02*
D03*
D193*
X296682Y197752D02*
D03*
X345304Y208933D02*
D03*
X62116Y207514D02*
D03*
X72903D02*
D03*
X83691D02*
D03*
X94478D02*
D03*
X105344D02*
D03*
X116132D02*
D03*
X126919D02*
D03*
X580313Y208711D02*
D03*
D195*
X158112Y155349D02*
D03*
D196*
X619322Y129834D02*
D03*
Y133377D02*
D03*
Y126291D02*
D03*
X622865D02*
D03*
Y133377D02*
D03*
Y129834D02*
D03*
X615385Y126291D02*
D03*
Y133377D02*
D03*
Y129834D02*
D03*
D197*
X223675Y-8747D02*
D03*
X249659D02*
D03*
D199*
X650792Y251320D02*
D03*
X656292Y240320D02*
D03*
X650792Y229320D02*
D03*
X656292Y218320D02*
D03*
X650792Y207320D02*
D03*
X656292Y196320D02*
D03*
X650792Y185320D02*
D03*
X656292Y174320D02*
D03*
X650792Y163320D02*
D03*
X656292Y42320D02*
D03*
Y20320D02*
D03*
X639792Y251320D02*
D03*
X645292Y240320D02*
D03*
X639792Y229320D02*
D03*
X645292Y218320D02*
D03*
X639792Y207320D02*
D03*
X645292Y196320D02*
D03*
X639792Y185320D02*
D03*
X645292Y174320D02*
D03*
X639792Y163320D02*
D03*
Y31320D02*
D03*
X645292Y20320D02*
D03*
X628792Y273320D02*
D03*
X634292Y262320D02*
D03*
X628792Y251320D02*
D03*
X634292Y240320D02*
D03*
X628792Y229320D02*
D03*
X634292Y218320D02*
D03*
X628792Y207320D02*
D03*
X634292Y196320D02*
D03*
X628792Y185320D02*
D03*
X634292Y42320D02*
D03*
Y20320D02*
D03*
X628792Y9320D02*
D03*
Y-12680D02*
D03*
X623292Y262320D02*
D03*
X617792Y251320D02*
D03*
X623292Y240320D02*
D03*
X617792Y229320D02*
D03*
X623292Y218320D02*
D03*
Y196320D02*
D03*
X617792Y185320D02*
D03*
X623292Y174320D02*
D03*
X617792Y163320D02*
D03*
Y53320D02*
D03*
X623292Y42320D02*
D03*
X617792Y31320D02*
D03*
X623292Y20320D02*
D03*
X617792Y9320D02*
D03*
X623292Y-1680D02*
D03*
X617792Y-12680D02*
D03*
X606792Y273320D02*
D03*
Y251320D02*
D03*
X612292Y240320D02*
D03*
X606792Y229320D02*
D03*
X612292Y218320D02*
D03*
X606792Y185320D02*
D03*
X612292Y174320D02*
D03*
X606792Y53320D02*
D03*
X612292Y42320D02*
D03*
X606792Y31320D02*
D03*
X612292Y20320D02*
D03*
X606792Y9320D02*
D03*
X612292Y-1680D02*
D03*
X606792Y-12680D02*
D03*
X595792Y273320D02*
D03*
X601292Y262320D02*
D03*
X595792Y251320D02*
D03*
X601292Y240320D02*
D03*
X595792Y229320D02*
D03*
X601292Y218320D02*
D03*
X595792Y207320D02*
D03*
X601292Y196320D02*
D03*
X595792Y185320D02*
D03*
X601292Y174320D02*
D03*
X595792Y53320D02*
D03*
X601292Y42320D02*
D03*
X595792Y31320D02*
D03*
X601292Y20320D02*
D03*
X595792Y9320D02*
D03*
X601292Y-1680D02*
D03*
X595792Y-12680D02*
D03*
X590292Y262320D02*
D03*
X584792Y251320D02*
D03*
X590292Y240320D02*
D03*
X584792Y229320D02*
D03*
X590292Y218320D02*
D03*
Y196320D02*
D03*
X584792Y185320D02*
D03*
X590292Y174320D02*
D03*
X584792Y53320D02*
D03*
X590292Y42320D02*
D03*
X584792Y31320D02*
D03*
X590292Y20320D02*
D03*
X584792Y9320D02*
D03*
X590292Y-1680D02*
D03*
X584792Y-12680D02*
D03*
X573792Y251320D02*
D03*
X579292Y240320D02*
D03*
X573792Y229320D02*
D03*
X579292Y218320D02*
D03*
Y174320D02*
D03*
X573792Y53320D02*
D03*
X579292Y42320D02*
D03*
X573792Y31320D02*
D03*
X579292Y20320D02*
D03*
X573792Y9320D02*
D03*
X579292Y-1680D02*
D03*
X573792Y-12680D02*
D03*
X562792Y251320D02*
D03*
X568292Y240320D02*
D03*
X562792Y229320D02*
D03*
X568292Y218320D02*
D03*
X562792Y185320D02*
D03*
Y53320D02*
D03*
X568292Y42320D02*
D03*
X562792Y31320D02*
D03*
X568292Y20320D02*
D03*
X562792Y9320D02*
D03*
X568292Y-1680D02*
D03*
X562792Y-12680D02*
D03*
X551792Y251320D02*
D03*
X557292Y240320D02*
D03*
X551792Y229320D02*
D03*
X557292Y218320D02*
D03*
X551792Y185320D02*
D03*
Y53320D02*
D03*
X557292Y42320D02*
D03*
X551792Y31320D02*
D03*
X557292Y20320D02*
D03*
X551792Y9320D02*
D03*
X557292Y-1680D02*
D03*
X551792Y-12680D02*
D03*
X540792Y251320D02*
D03*
X546292Y240320D02*
D03*
X540792Y229320D02*
D03*
X546292Y218320D02*
D03*
X540792Y185320D02*
D03*
Y53320D02*
D03*
X546292Y42320D02*
D03*
X540792Y31320D02*
D03*
X546292Y20320D02*
D03*
X540792Y9320D02*
D03*
X546292Y-1680D02*
D03*
X540792Y-12680D02*
D03*
X529792Y273320D02*
D03*
X535292Y262320D02*
D03*
Y240320D02*
D03*
X529792Y229320D02*
D03*
X535292Y218320D02*
D03*
X529792Y75320D02*
D03*
Y53320D02*
D03*
X535292Y42320D02*
D03*
X529792Y31320D02*
D03*
X535292Y20320D02*
D03*
X529792Y9320D02*
D03*
X535292Y-1680D02*
D03*
X529792Y-12680D02*
D03*
X524292Y262320D02*
D03*
X518792Y251320D02*
D03*
X524292Y240320D02*
D03*
X518792Y229320D02*
D03*
X524292Y218320D02*
D03*
Y152320D02*
D03*
X518792Y141320D02*
D03*
Y119320D02*
D03*
Y97320D02*
D03*
Y75320D02*
D03*
X524292Y64320D02*
D03*
X518792Y53320D02*
D03*
X524292Y42320D02*
D03*
X518792Y31320D02*
D03*
X524292Y20320D02*
D03*
X518792Y9320D02*
D03*
X524292Y-1680D02*
D03*
X518792Y-12680D02*
D03*
X507792Y273320D02*
D03*
Y251320D02*
D03*
X513292Y240320D02*
D03*
Y218320D02*
D03*
X507792Y185320D02*
D03*
X513292Y152320D02*
D03*
X507792Y141320D02*
D03*
X513292Y130320D02*
D03*
X507792Y119320D02*
D03*
Y75320D02*
D03*
X513292Y64320D02*
D03*
X507792Y53320D02*
D03*
X513292Y42320D02*
D03*
X507792Y31320D02*
D03*
X513292Y20320D02*
D03*
X507792Y9320D02*
D03*
X513292Y-1680D02*
D03*
X507792Y-12680D02*
D03*
X496792Y273320D02*
D03*
X502292Y262320D02*
D03*
X496792Y251320D02*
D03*
X502292Y240320D02*
D03*
X496792Y229320D02*
D03*
X502292Y218320D02*
D03*
Y196320D02*
D03*
Y152320D02*
D03*
Y130320D02*
D03*
X496792Y75320D02*
D03*
X502292Y64320D02*
D03*
X496792Y53320D02*
D03*
X502292Y42320D02*
D03*
X496792Y31320D02*
D03*
X502292Y20320D02*
D03*
X496792Y9320D02*
D03*
X502292Y-1680D02*
D03*
X496792Y-12680D02*
D03*
X485792Y273320D02*
D03*
X491292Y262320D02*
D03*
X485792Y251320D02*
D03*
X491292Y240320D02*
D03*
X485792Y229320D02*
D03*
X491292Y196320D02*
D03*
X485792Y185320D02*
D03*
Y141320D02*
D03*
X491292Y130320D02*
D03*
X485792Y119320D02*
D03*
Y75320D02*
D03*
X491292Y64320D02*
D03*
X485792Y53320D02*
D03*
X491292Y42320D02*
D03*
X485792Y31320D02*
D03*
X491292Y20320D02*
D03*
X485792Y9320D02*
D03*
X491292Y-1680D02*
D03*
X485792Y-12680D02*
D03*
X474792Y273320D02*
D03*
X480292Y262320D02*
D03*
X474792Y251320D02*
D03*
X480292Y240320D02*
D03*
X474792Y229320D02*
D03*
Y185320D02*
D03*
X480292Y152320D02*
D03*
Y130320D02*
D03*
Y86320D02*
D03*
X474792Y75320D02*
D03*
X480292Y64320D02*
D03*
X474792Y53320D02*
D03*
X480292Y42320D02*
D03*
X474792Y31320D02*
D03*
X480292Y20320D02*
D03*
X474792Y9320D02*
D03*
X480292Y-1680D02*
D03*
X474792Y-12680D02*
D03*
X463792Y273320D02*
D03*
X469292Y262320D02*
D03*
X463792Y251320D02*
D03*
X469292Y240320D02*
D03*
X463792Y229320D02*
D03*
X469292Y196320D02*
D03*
X463792Y185320D02*
D03*
Y163320D02*
D03*
X469292Y152320D02*
D03*
Y64320D02*
D03*
X463792Y53320D02*
D03*
X469292Y42320D02*
D03*
X463792Y31320D02*
D03*
X469292Y20320D02*
D03*
X463792Y9320D02*
D03*
X469292Y-1680D02*
D03*
X463792Y-12680D02*
D03*
X452792Y251320D02*
D03*
X458292Y240320D02*
D03*
X452792Y229320D02*
D03*
X458292Y218320D02*
D03*
X452792Y207320D02*
D03*
Y185320D02*
D03*
X458292Y108320D02*
D03*
Y64320D02*
D03*
X452792Y53320D02*
D03*
X458292Y42320D02*
D03*
X452792Y31320D02*
D03*
X458292Y20320D02*
D03*
X452792Y9320D02*
D03*
X458292Y-1680D02*
D03*
X452792Y-12680D02*
D03*
X441792Y273320D02*
D03*
X447292Y262320D02*
D03*
X441792Y251320D02*
D03*
X447292Y240320D02*
D03*
X441792Y229320D02*
D03*
X447292Y218320D02*
D03*
X441792Y207320D02*
D03*
X447292Y152320D02*
D03*
X441792Y53320D02*
D03*
X447292Y42320D02*
D03*
X441792Y31320D02*
D03*
X447292Y20320D02*
D03*
X441792Y9320D02*
D03*
X447292Y-1680D02*
D03*
X441792Y-12680D02*
D03*
X430792Y273320D02*
D03*
X436292Y262320D02*
D03*
X430792Y251320D02*
D03*
X436292Y240320D02*
D03*
X430792Y229320D02*
D03*
X436292Y218320D02*
D03*
X430792Y207320D02*
D03*
X436292Y196320D02*
D03*
X430792Y185320D02*
D03*
Y163320D02*
D03*
X436292Y152320D02*
D03*
Y64320D02*
D03*
X430792Y53320D02*
D03*
X436292Y42320D02*
D03*
X430792Y31320D02*
D03*
X436292Y20320D02*
D03*
X430792Y9320D02*
D03*
X436292Y-1680D02*
D03*
X430792Y-12680D02*
D03*
X419792Y251320D02*
D03*
Y229320D02*
D03*
Y207320D02*
D03*
Y185320D02*
D03*
Y163320D02*
D03*
Y97320D02*
D03*
X425292Y20320D02*
D03*
Y-1680D02*
D03*
X419792Y-12680D02*
D03*
X414292Y42320D02*
D03*
X408792Y31320D02*
D03*
Y9320D02*
D03*
X414292Y-1680D02*
D03*
X408792Y-12680D02*
D03*
X397792Y251320D02*
D03*
X403292Y240320D02*
D03*
Y218320D02*
D03*
Y196320D02*
D03*
Y20320D02*
D03*
Y-1680D02*
D03*
X397792Y-12680D02*
D03*
X386792Y251320D02*
D03*
X392292Y240320D02*
D03*
X386792Y229320D02*
D03*
X392292Y218320D02*
D03*
X386792Y185320D02*
D03*
X392292Y174320D02*
D03*
X386792Y163320D02*
D03*
X392292Y152320D02*
D03*
Y130320D02*
D03*
X386792Y97320D02*
D03*
X392292Y64320D02*
D03*
Y-1680D02*
D03*
X386792Y-12680D02*
D03*
X375792Y273320D02*
D03*
Y251320D02*
D03*
X381292Y240320D02*
D03*
X375792Y229320D02*
D03*
X381292Y174320D02*
D03*
Y152320D02*
D03*
Y130320D02*
D03*
X375792Y9320D02*
D03*
X381292Y-1680D02*
D03*
X375792Y-12680D02*
D03*
X364792Y273320D02*
D03*
Y31320D02*
D03*
X370292Y20320D02*
D03*
X364792Y-12680D02*
D03*
X353792Y251320D02*
D03*
Y229320D02*
D03*
Y75320D02*
D03*
Y31320D02*
D03*
X359292Y-1680D02*
D03*
X353792Y-12680D02*
D03*
X342792Y273320D02*
D03*
X348292Y262320D02*
D03*
X342792Y229320D02*
D03*
Y75320D02*
D03*
X348292Y64320D02*
D03*
Y-1680D02*
D03*
X342792Y-12680D02*
D03*
X331792Y273320D02*
D03*
Y251320D02*
D03*
X337292Y240320D02*
D03*
X331792Y229320D02*
D03*
X337292Y174320D02*
D03*
X331792Y9320D02*
D03*
X320792Y251320D02*
D03*
X326292Y240320D02*
D03*
X320792Y229320D02*
D03*
Y185320D02*
D03*
X326292Y130320D02*
D03*
X320792Y97320D02*
D03*
Y9320D02*
D03*
X309792Y273320D02*
D03*
X315292Y262320D02*
D03*
X309792Y251320D02*
D03*
X315292Y240320D02*
D03*
X309792Y229320D02*
D03*
Y185320D02*
D03*
Y163320D02*
D03*
Y9320D02*
D03*
X304292Y262320D02*
D03*
X298792Y251320D02*
D03*
X304292Y240320D02*
D03*
X298792Y185320D02*
D03*
Y163320D02*
D03*
Y-12680D02*
D03*
X287792Y273320D02*
D03*
Y185320D02*
D03*
Y163320D02*
D03*
Y53320D02*
D03*
Y31320D02*
D03*
Y9320D02*
D03*
X276792Y273320D02*
D03*
Y251320D02*
D03*
X282292Y240320D02*
D03*
X276792Y207320D02*
D03*
Y185320D02*
D03*
Y97320D02*
D03*
X282292Y86320D02*
D03*
X276792Y53320D02*
D03*
Y9320D02*
D03*
X265792Y251320D02*
D03*
X271292Y108320D02*
D03*
Y86320D02*
D03*
Y64320D02*
D03*
X265792Y53320D02*
D03*
X271292Y42320D02*
D03*
X265792Y9320D02*
D03*
X254792Y251320D02*
D03*
X260292Y240320D02*
D03*
Y174320D02*
D03*
X254792Y163320D02*
D03*
Y97320D02*
D03*
X260292Y64320D02*
D03*
X254792Y31320D02*
D03*
X260292Y20320D02*
D03*
X254792Y9320D02*
D03*
X260292Y-1680D02*
D03*
X254792Y-12680D02*
D03*
X243792Y207320D02*
D03*
X249292Y196320D02*
D03*
X243792Y185320D02*
D03*
X249292Y174320D02*
D03*
X243792Y97320D02*
D03*
Y75320D02*
D03*
X249292Y20320D02*
D03*
X243792Y9320D02*
D03*
X238292Y218320D02*
D03*
X232792Y207320D02*
D03*
X238292Y196320D02*
D03*
X232792Y185320D02*
D03*
X238292Y174320D02*
D03*
X232792Y163320D02*
D03*
Y53320D02*
D03*
Y31320D02*
D03*
X227292Y108320D02*
D03*
Y86320D02*
D03*
X221792Y9320D02*
D03*
X210792Y273320D02*
D03*
X216292Y240320D02*
D03*
Y196320D02*
D03*
X210792Y185320D02*
D03*
X216292Y174320D02*
D03*
X210792Y163320D02*
D03*
X216292Y152320D02*
D03*
X210792Y141320D02*
D03*
X216292Y86320D02*
D03*
X210792Y53320D02*
D03*
Y9320D02*
D03*
X216292Y-1680D02*
D03*
X205292Y262320D02*
D03*
X199792Y251320D02*
D03*
X205292Y240320D02*
D03*
X199792Y185320D02*
D03*
X205292Y174320D02*
D03*
X199792Y163320D02*
D03*
X205292Y152320D02*
D03*
Y-1680D02*
D03*
X188792Y273320D02*
D03*
Y251320D02*
D03*
Y229320D02*
D03*
X194292Y218320D02*
D03*
Y174320D02*
D03*
X188792Y163320D02*
D03*
X194292Y152320D02*
D03*
X188792Y141320D02*
D03*
X177792Y273320D02*
D03*
X183292Y262320D02*
D03*
Y240320D02*
D03*
X177792Y229320D02*
D03*
X183292Y218320D02*
D03*
X177792Y207320D02*
D03*
Y163320D02*
D03*
X183292Y152320D02*
D03*
X177792Y141320D02*
D03*
X183292Y130320D02*
D03*
X177792Y31320D02*
D03*
X183292Y20320D02*
D03*
X177792Y9320D02*
D03*
X166792Y273320D02*
D03*
X172292Y262320D02*
D03*
Y240320D02*
D03*
X166792Y229320D02*
D03*
X172292Y218320D02*
D03*
Y152320D02*
D03*
X166792Y141320D02*
D03*
Y119320D02*
D03*
X172292Y20320D02*
D03*
X166792Y9320D02*
D03*
X172292Y-1680D02*
D03*
X155792Y273320D02*
D03*
X161292Y262320D02*
D03*
Y240320D02*
D03*
X155792Y229320D02*
D03*
X161292Y218320D02*
D03*
X155792Y207320D02*
D03*
Y185320D02*
D03*
Y141320D02*
D03*
Y53320D02*
D03*
Y9320D02*
D03*
X161292Y-1680D02*
D03*
X155792Y-12680D02*
D03*
X144792Y273320D02*
D03*
X150292Y262320D02*
D03*
Y240320D02*
D03*
X144792Y207320D02*
D03*
Y185320D02*
D03*
Y75320D02*
D03*
Y-12680D02*
D03*
X133792Y229320D02*
D03*
X139292Y218320D02*
D03*
Y86320D02*
D03*
X133792Y-12680D02*
D03*
X122792Y273320D02*
D03*
X128292Y240320D02*
D03*
X122792Y229320D02*
D03*
X128292Y218320D02*
D03*
X122792Y75320D02*
D03*
Y53320D02*
D03*
Y9320D02*
D03*
Y-12680D02*
D03*
X117292Y240320D02*
D03*
X111792Y229320D02*
D03*
X117292Y218320D02*
D03*
Y64320D02*
D03*
X111792Y53320D02*
D03*
X117292Y42320D02*
D03*
Y20320D02*
D03*
Y-1680D02*
D03*
X111792Y-12680D02*
D03*
X100792Y273320D02*
D03*
X106292Y262320D02*
D03*
Y240320D02*
D03*
X100792Y229320D02*
D03*
X106292Y218320D02*
D03*
Y152320D02*
D03*
Y130320D02*
D03*
X100792Y97320D02*
D03*
X106292Y-1680D02*
D03*
X100792Y-12680D02*
D03*
X89792Y273320D02*
D03*
X95292Y240320D02*
D03*
X89792Y229320D02*
D03*
X95292Y218320D02*
D03*
Y152320D02*
D03*
X89792Y141320D02*
D03*
Y97320D02*
D03*
X95292Y64320D02*
D03*
X89792Y-12680D02*
D03*
X78792Y251320D02*
D03*
X84292Y240320D02*
D03*
X78792Y229320D02*
D03*
X84292Y218320D02*
D03*
X78792Y207320D02*
D03*
X84292Y152320D02*
D03*
X78792Y141320D02*
D03*
X84292Y130320D02*
D03*
Y-1680D02*
D03*
X78792Y-12680D02*
D03*
X67792Y273320D02*
D03*
X73292Y262320D02*
D03*
X67792Y251320D02*
D03*
X73292Y240320D02*
D03*
X67792Y229320D02*
D03*
X73292Y218320D02*
D03*
X67792Y207320D02*
D03*
X73292Y152320D02*
D03*
Y130320D02*
D03*
Y64320D02*
D03*
X67792Y53320D02*
D03*
Y-12680D02*
D03*
X56792Y273320D02*
D03*
X62292Y262320D02*
D03*
X56792Y251320D02*
D03*
X62292Y240320D02*
D03*
X56792Y229320D02*
D03*
X62292Y218320D02*
D03*
X56792Y207320D02*
D03*
X62292Y86320D02*
D03*
Y64320D02*
D03*
X56792Y53320D02*
D03*
X62292Y-1680D02*
D03*
X56792Y-12680D02*
D03*
X45792Y273320D02*
D03*
X51292Y262320D02*
D03*
X45792Y251320D02*
D03*
X51292Y240320D02*
D03*
X45792Y229320D02*
D03*
X51292Y218320D02*
D03*
X45792Y207320D02*
D03*
Y141320D02*
D03*
X51292Y86320D02*
D03*
Y64320D02*
D03*
Y42320D02*
D03*
X45792Y-12680D02*
D03*
X34792Y251320D02*
D03*
X40292Y240320D02*
D03*
X34792Y229320D02*
D03*
X40292Y218320D02*
D03*
X34792Y97320D02*
D03*
X40292Y86320D02*
D03*
Y64320D02*
D03*
Y42320D02*
D03*
X34792Y31320D02*
D03*
X40292Y-1680D02*
D03*
X34792Y-12680D02*
D03*
X23792Y273320D02*
D03*
X29292Y262320D02*
D03*
X23792Y251320D02*
D03*
X29292Y240320D02*
D03*
X23792Y229320D02*
D03*
X29292Y218320D02*
D03*
X23792Y207320D02*
D03*
Y97320D02*
D03*
X29292Y86320D02*
D03*
Y64320D02*
D03*
X23792Y53320D02*
D03*
Y31320D02*
D03*
Y9320D02*
D03*
Y-12680D02*
D03*
X18292Y262320D02*
D03*
X12792Y251320D02*
D03*
X18292Y240320D02*
D03*
X12792Y229320D02*
D03*
X18292Y218320D02*
D03*
X12792Y207320D02*
D03*
X18292Y196320D02*
D03*
X12792Y185320D02*
D03*
Y97320D02*
D03*
X18292Y86320D02*
D03*
Y64320D02*
D03*
Y42320D02*
D03*
X12792Y31320D02*
D03*
X18292Y20320D02*
D03*
Y-1680D02*
D03*
X12792Y-12680D02*
D03*
X1792Y251320D02*
D03*
X7292Y240320D02*
D03*
X1792Y229320D02*
D03*
X7292Y218320D02*
D03*
X1792Y207320D02*
D03*
X7292Y196320D02*
D03*
X1792Y185320D02*
D03*
X7292Y174320D02*
D03*
X1792Y97320D02*
D03*
X7292Y86320D02*
D03*
Y64320D02*
D03*
Y42320D02*
D03*
X1792Y31320D02*
D03*
X7292Y20320D02*
D03*
X-9208Y251320D02*
D03*
X-3708Y240320D02*
D03*
X-9208Y229320D02*
D03*
X-3708Y218320D02*
D03*
X-9208Y207320D02*
D03*
X-3708Y196320D02*
D03*
X-9208Y185320D02*
D03*
X-3708Y174320D02*
D03*
X-9208Y163320D02*
D03*
Y141320D02*
D03*
Y119320D02*
D03*
Y97320D02*
D03*
X-3708Y86320D02*
D03*
X-9208Y75320D02*
D03*
X-3708Y64320D02*
D03*
X-9208Y53320D02*
D03*
X-3708Y42320D02*
D03*
X-9208Y31320D02*
D03*
X-3708Y20320D02*
D03*
X350883Y156812D02*
D03*
X361063Y137359D02*
D03*
X275391Y135831D02*
D03*
X289418Y43257D02*
D03*
X232068Y64631D02*
D03*
X214637Y71240D02*
D03*
X197591Y44783D02*
D03*
X485361Y104383D02*
D03*
X184591Y80742D02*
D03*
Y96032D02*
D03*
X323830Y23011D02*
D03*
X323350Y40629D02*
D03*
X357367Y27606D02*
D03*
X306473Y13897D02*
D03*
X214125Y44010D02*
D03*
X182237Y68966D02*
D03*
D200*
X57039Y142479D02*
D03*
X66488Y156653D02*
D03*
Y151928D02*
D03*
Y147204D02*
D03*
Y142479D02*
D03*
Y137755D02*
D03*
Y133031D02*
D03*
Y128306D02*
D03*
X61763Y156653D02*
D03*
Y151928D02*
D03*
Y147204D02*
D03*
Y142479D02*
D03*
Y137755D02*
D03*
Y133031D02*
D03*
Y128306D02*
D03*
X57039Y156653D02*
D03*
Y151928D02*
D03*
Y147204D02*
D03*
Y137755D02*
D03*
Y133031D02*
D03*
Y128306D02*
D03*
X52315Y156653D02*
D03*
Y151928D02*
D03*
Y147204D02*
D03*
Y142479D02*
D03*
Y137755D02*
D03*
Y133031D02*
D03*
Y128306D02*
D03*
M02*
