G04*
G04 #@! TF.GenerationSoftware,Altium Limited,Altium Designer,20.2.6 (244)*
G04*
G04 Layer_Color=16711935*
%FSLAX25Y25*%
%MOIN*%
G70*
G04*
G04 #@! TF.SameCoordinates,2322B5F6-C0F9-4DFB-907C-46C9DA4D7F26*
G04*
G04*
G04 #@! TF.FilePolarity,Negative*
G04*
G01*
G75*
%ADD129R,0.06706X0.06706*%
%ADD180C,0.12008*%
%ADD181R,0.06260X0.06260*%
%ADD182C,0.06260*%
%ADD183C,0.07060*%
%ADD184C,0.18812*%
%ADD185C,0.06942*%
%ADD186R,0.06942X0.06942*%
%ADD187O,0.04343X0.07099*%
%ADD188C,0.02800*%
%ADD189C,0.06706*%
%ADD190R,0.09150X0.09150*%
%ADD191C,0.10243*%
%ADD192C,0.29934*%
G36*
X632314Y116448D02*
X605543D01*
Y143614D01*
X632314D01*
Y116448D01*
D02*
G37*
%LPC*%
G36*
X613417Y135533D02*
Y124135D01*
X617240D01*
X624736Y124135D01*
X624735Y135533D01*
X613417Y135533D01*
D02*
G37*
%LPD*%
D129*
X617118Y169097D02*
D03*
X440775Y97168D02*
D03*
X342054D02*
D03*
X363370D02*
D03*
D180*
X36479Y198099D02*
D03*
X134864D02*
D03*
X294175Y267381D02*
D03*
X195789D02*
D03*
X133735Y267229D02*
D03*
X35350D02*
D03*
X356202Y267381D02*
D03*
X454588D02*
D03*
X516622Y267511D02*
D03*
X615007D02*
D03*
D181*
X107266Y203689D02*
D03*
X223387Y261791D02*
D03*
X106137Y272819D02*
D03*
X383801Y261791D02*
D03*
X587409Y273101D02*
D03*
D182*
X96479Y203689D02*
D03*
X85691D02*
D03*
X74904D02*
D03*
X101872Y192508D02*
D03*
X91085D02*
D03*
X234175Y261791D02*
D03*
X244962D02*
D03*
X255750D02*
D03*
X266537D02*
D03*
X228781Y272972D02*
D03*
X239569D02*
D03*
X250356D02*
D03*
X261143D02*
D03*
X68381Y261638D02*
D03*
X79168D02*
D03*
X89956D02*
D03*
X100743D02*
D03*
X62987Y272819D02*
D03*
X73775D02*
D03*
X84562D02*
D03*
X95350D02*
D03*
X421556Y272972D02*
D03*
X410769D02*
D03*
X399982D02*
D03*
X389194D02*
D03*
X426950Y261791D02*
D03*
X416163D02*
D03*
X405375D02*
D03*
X394588D02*
D03*
X576622Y273101D02*
D03*
X565834D02*
D03*
X555047D02*
D03*
X544259D02*
D03*
X582015Y261920D02*
D03*
X571228D02*
D03*
X560440D02*
D03*
X549653D02*
D03*
D183*
X64116Y203689D02*
D03*
X80297Y192508D02*
D03*
X69510D02*
D03*
D184*
X389280Y203342D02*
D03*
X258099D02*
D03*
X613502Y203120D02*
D03*
X482321D02*
D03*
D185*
X356091Y208933D02*
D03*
X345304D02*
D03*
X334477D02*
D03*
X323689D02*
D03*
X312902D02*
D03*
X302075D02*
D03*
X291288D02*
D03*
X361485Y197752D02*
D03*
X350697D02*
D03*
X339910D02*
D03*
X329123D02*
D03*
X318256D02*
D03*
X307469D02*
D03*
X296682D02*
D03*
X580313Y208711D02*
D03*
X569526D02*
D03*
X558699D02*
D03*
X547912D02*
D03*
X537124D02*
D03*
X526298D02*
D03*
X515510D02*
D03*
X585707Y197529D02*
D03*
X574920D02*
D03*
X564132D02*
D03*
X553345D02*
D03*
X542479D02*
D03*
X531691D02*
D03*
X520904D02*
D03*
D186*
X285894Y197752D02*
D03*
X510116Y197529D02*
D03*
D187*
X249659Y-8747D02*
D03*
X223675D02*
D03*
D188*
X615385Y129834D02*
D03*
Y133377D02*
D03*
Y126291D02*
D03*
X622865Y129834D02*
D03*
Y133377D02*
D03*
Y126291D02*
D03*
X619322D02*
D03*
Y133377D02*
D03*
Y129834D02*
D03*
D189*
X607118Y169097D02*
D03*
X597118D02*
D03*
X430775Y97168D02*
D03*
X352054D02*
D03*
X373370D02*
D03*
D190*
X640744Y38853D02*
D03*
D191*
X650744Y28853D02*
D03*
X630744D02*
D03*
Y48853D02*
D03*
X650744D02*
D03*
D192*
X649606Y0D02*
D03*
Y275590D02*
D03*
X0Y0D02*
D03*
Y275590D02*
D03*
M02*
