G04*
G04 #@! TF.GenerationSoftware,Altium Limited,Altium Designer,20.0.11 (256)*
G04*
G04 Layer_Physical_Order=3*
G04 Layer_Color=16440176*
%FSLAX25Y25*%
%MOIN*%
G70*
G01*
G75*
%ADD12C,0.00600*%
%ADD17C,0.01000*%
%ADD22C,0.00800*%
%ADD180C,0.06260*%
%ADD188C,0.03500*%
%ADD189C,0.02000*%
%ADD192R,0.06142X0.06142*%
%ADD193C,0.06142*%
%ADD199C,0.01987*%
G36*
X140062Y201923D02*
X140062Y189329D01*
X113272Y162539D01*
X52145Y162539D01*
X38815Y149209D01*
X38815Y106180D01*
X-5130Y106180D01*
X-5131Y158306D01*
X26693Y190130D01*
X44245D01*
X56038Y201923D01*
X140062Y201923D01*
D02*
G37*
G36*
X636489Y162057D02*
X583089Y110210D01*
X513492D01*
X513492Y80532D01*
X501828D01*
Y91833D01*
X501848Y91881D01*
X506481D01*
Y112931D01*
X506981Y113276D01*
X507339Y113205D01*
X507961Y113328D01*
X508488Y113681D01*
X508840Y114208D01*
X508964Y114830D01*
X508840Y115451D01*
X508488Y115979D01*
X508483Y115982D01*
X508634Y116482D01*
X580087Y116482D01*
X622542Y158937D01*
X622542Y165545D01*
X636489Y165545D01*
Y162057D01*
D02*
G37*
G36*
X250356Y276734D02*
X249382Y276606D01*
X248475Y276230D01*
X247696Y275632D01*
X247098Y274853D01*
X246722Y273945D01*
X246594Y272972D01*
X246722Y271998D01*
X247098Y271091D01*
X247696Y270312D01*
X248475Y269714D01*
X249382Y269338D01*
X250356Y269210D01*
X250356Y241138D01*
X168290Y159072D01*
X143715Y159072D01*
Y103130D01*
X129784Y103130D01*
X123116Y96462D01*
X87005Y60351D01*
X87005Y37815D01*
X75141Y37815D01*
X75141Y63998D01*
X113824Y102682D01*
X113824Y160811D01*
X131921Y178907D01*
X158011Y178907D01*
X217975Y238872D01*
X217975Y281309D01*
X250356D01*
Y276734D01*
D02*
G37*
%LPC*%
G36*
X504527Y90781D02*
X504177Y90711D01*
X503879Y90513D01*
X503681Y90215D01*
X503611Y89865D01*
Y89687D01*
X503681Y89336D01*
X503879Y89039D01*
X504177Y88841D01*
X504527Y88771D01*
X504878Y88841D01*
X505175Y89039D01*
X505373Y89336D01*
X505443Y89687D01*
Y89865D01*
X505373Y90215D01*
X505175Y90513D01*
X504878Y90711D01*
X504527Y90781D01*
D02*
G37*
G36*
X239569Y276734D02*
X238595Y276606D01*
X237687Y276230D01*
X236908Y275632D01*
X236311Y274853D01*
X235935Y273945D01*
X235806Y272972D01*
X235935Y271998D01*
X236311Y271091D01*
X236908Y270312D01*
X237687Y269714D01*
X238595Y269338D01*
X239569Y269210D01*
X240542Y269338D01*
X241450Y269714D01*
X242229Y270312D01*
X242827Y271091D01*
X243202Y271998D01*
X243331Y272972D01*
X243202Y273945D01*
X242827Y274853D01*
X242229Y275632D01*
X241450Y276230D01*
X240542Y276606D01*
X239569Y276734D01*
D02*
G37*
G36*
X227117Y265521D02*
X219657D01*
Y258061D01*
X227117D01*
Y265521D01*
D02*
G37*
G36*
X234175Y265553D02*
X233201Y265425D01*
X232294Y265049D01*
X231515Y264451D01*
X230917Y263672D01*
X230541Y262765D01*
X230413Y261791D01*
X230541Y260817D01*
X230917Y259910D01*
X231515Y259131D01*
X232294Y258533D01*
X233201Y258157D01*
X234175Y258029D01*
X235149Y258157D01*
X236056Y258533D01*
X236835Y259131D01*
X237433Y259910D01*
X237809Y260817D01*
X237937Y261791D01*
X237809Y262765D01*
X237433Y263672D01*
X236835Y264451D01*
X236056Y265049D01*
X235149Y265425D01*
X234175Y265553D01*
D02*
G37*
%LPD*%
D12*
X337360Y166475D02*
X337405Y166520D01*
X346896D02*
X354050Y159365D01*
X337405Y166520D02*
X346896D01*
X359005Y164910D02*
X377636D01*
X354650Y169265D02*
X359005Y164910D01*
X354050Y159365D02*
X364391D01*
X352610Y151452D02*
X356343Y147720D01*
X273070Y151452D02*
X352610D01*
X258572Y136954D02*
X273070Y151452D01*
X270085Y152652D02*
X353107D01*
X255526Y138093D02*
X270085Y152652D01*
X353107D02*
X356840Y148920D01*
X356343Y147720D02*
X405969D01*
X258572Y135816D02*
Y136954D01*
X356840Y148920D02*
X405472D01*
X405542Y148989D01*
X454343D01*
X478880Y173527D01*
X405969Y147720D02*
X406039Y147790D01*
X455666D01*
X477568Y169692D01*
X320752Y56123D02*
X325976D01*
X326098Y56000D01*
X397456Y49830D02*
X398802D01*
X399153Y50182D02*
Y51630D01*
X351583Y54800D02*
X356560Y49824D01*
X395765D02*
X396959Y48630D01*
X319199Y57676D02*
X320752Y56123D01*
X357057Y51024D02*
X396263D01*
X397456Y49830D01*
X326098Y56000D02*
X352080D01*
X398802Y49830D02*
X399153Y50182D01*
X352080Y56000D02*
X357057Y51024D01*
X399153Y51630D02*
X399168Y51645D01*
X402452Y49819D02*
X402475Y49797D01*
X396959Y48630D02*
X399445D01*
X325601Y54800D02*
X351583D01*
X325479Y54923D02*
X325601Y54800D01*
X356560Y49824D02*
X395765D01*
X321398Y54923D02*
X325479D01*
X321046Y54571D02*
X321398Y54923D01*
X321046Y52726D02*
Y54571D01*
X400634Y49819D02*
X402452D01*
X399445Y48630D02*
X400634Y49819D01*
X476443Y165594D02*
X540331D01*
X457439Y146590D02*
X476443Y165594D01*
X478880Y173527D02*
X540596D01*
X434432Y146590D02*
X457439D01*
X431682Y143839D02*
X434432Y146590D01*
X477568Y169692D02*
X540331D01*
X276407Y143839D02*
X431682D01*
X268208Y135640D02*
X276407Y143839D01*
X255197Y138093D02*
X255526D01*
X504527Y89687D02*
Y89865D01*
D17*
X360033Y170673D02*
X360437D01*
X333386Y182850D02*
Y187379D01*
Y154711D02*
Y182850D01*
X347856D02*
X360033Y170673D01*
X333386Y182850D02*
X347856D01*
X338834Y192827D02*
X342970D01*
X333386Y187379D02*
X338834Y192827D01*
X344780Y194638D02*
Y200199D01*
X342970Y192827D02*
X344780Y194638D01*
Y200199D02*
X352570Y207989D01*
X262506Y154711D02*
X333386D01*
X429613Y116838D02*
X464456D01*
X125489Y-4174D02*
X181851D01*
X183001Y-3024D01*
X125345Y-4318D02*
X125489Y-4174D01*
X186126Y-1051D02*
X198184Y11007D01*
X183001Y-3024D02*
X186126D01*
Y-1051D01*
X198184Y11007D02*
Y40570D01*
X115300Y27436D02*
Y32805D01*
X257448Y149652D02*
X262506Y154711D01*
X249152Y130034D02*
X285691D01*
X239335Y136453D02*
X242734D01*
X249152Y130034D01*
X285691D02*
X290735Y124990D01*
X236247Y139540D02*
X239335Y136453D01*
X279051Y47203D02*
Y49942D01*
X284885Y1143D02*
Y41368D01*
X279051Y47203D02*
X284885Y41368D01*
X204579Y124343D02*
X210281D01*
X196367Y132555D02*
X204579Y124343D01*
X196367Y132555D02*
Y133642D01*
X210281Y124343D02*
X214603Y128665D01*
X196160Y133850D02*
X196367Y133642D01*
X355148Y207989D02*
X356091Y208933D01*
X352570Y207989D02*
X355148D01*
X285071Y-14312D02*
X287463D01*
X284885Y-14126D02*
X285071Y-14312D01*
X284885Y1143D02*
X386637D01*
X284885Y-14045D02*
Y1143D01*
X386637D02*
X396550Y11057D01*
X94627Y29590D02*
X104987Y39950D01*
X92970Y29590D02*
X94627D01*
X92798Y29761D02*
X92970Y29590D01*
X87893Y29761D02*
X92798D01*
X104987Y39950D02*
Y69111D01*
X113498Y25634D02*
X115300Y27436D01*
X113498Y7530D02*
Y25634D01*
Y7530D02*
X125345Y-4318D01*
X224916Y128280D02*
X236247Y139610D01*
X278799Y49691D02*
X279051Y49942D01*
X266533Y49691D02*
X278799D01*
X229518Y50686D02*
Y66461D01*
X221027Y42195D02*
X229518Y50686D01*
X447555Y81082D02*
X457169D01*
X447339D02*
X447555D01*
X291086Y124620D02*
X297891D01*
X307417Y134146D02*
Y136453D01*
X297891Y124620D02*
X307417Y134146D01*
X236247Y139540D02*
Y139610D01*
X219402Y40570D02*
X221027Y42195D01*
X198184Y40570D02*
X219402D01*
X474988Y120860D02*
X477111D01*
X468684Y114557D02*
X474988Y120860D01*
X424608Y81946D02*
X446475D01*
X447339Y81082D01*
X464600Y116694D02*
X466737Y114557D01*
X468684D01*
X396550Y11057D02*
Y41117D01*
X405776D01*
X429371Y116660D02*
X429549Y116482D01*
X418534Y116660D02*
X429371D01*
X418357Y116838D02*
X418534Y116660D01*
X464456Y116838D02*
X464600Y116694D01*
X468684Y92598D02*
Y114557D01*
X225761Y37461D02*
X254303D01*
X246289Y149652D02*
X257448D01*
X457169Y81082D02*
X468684Y92598D01*
X236247Y139610D02*
X246289Y149652D01*
X254303Y37461D02*
X266520Y49678D01*
X405776Y41117D02*
X420324Y55664D01*
X214763Y128280D02*
X224916D01*
X420324Y77661D02*
X424608Y81946D01*
X266520Y49678D02*
X266533Y49691D01*
X420324Y55664D02*
Y77661D01*
X221027Y42195D02*
X225761Y37461D01*
D22*
X195426Y79067D02*
X214243D01*
X336554Y77137D02*
Y79067D01*
X188212Y58283D02*
X190300Y60371D01*
X190420Y60251D02*
X193757Y63588D01*
Y75327D01*
X295704Y142524D02*
X434429D01*
X286192Y133012D02*
X295704Y142524D01*
X255877Y133012D02*
X286192D01*
X251810Y137079D02*
Y139077D01*
Y137079D02*
X255877Y133012D01*
X352309Y87957D02*
X386150D01*
X380135Y80216D02*
X388988D01*
X449400Y106230D02*
X457598Y98032D01*
X306520Y106230D02*
X449400D01*
X302681Y102392D02*
X306520Y106230D01*
X364223Y35793D02*
X375760Y47330D01*
X314496Y35793D02*
X364223D01*
X303861Y112826D02*
X418689D01*
X420952Y110563D01*
X349818Y61344D02*
X355814Y55349D01*
X390768D01*
X392077Y54039D01*
X392399D01*
X126032Y18013D02*
Y32558D01*
X119365Y11346D02*
X126032Y18013D01*
X151758Y58283D02*
X188212D01*
X126032Y32558D02*
X151758Y58283D01*
X195426Y76995D02*
Y79067D01*
X193757Y75327D02*
X195426Y76995D01*
Y79067D02*
X195745Y79386D01*
Y97478D01*
X195745Y97478D01*
X191432Y123736D02*
Y133797D01*
Y123736D02*
X198169Y117000D01*
X216025Y77256D02*
Y77286D01*
X216408Y76873D02*
X216437D01*
X216025Y77256D02*
X216408Y76873D01*
X216437D02*
X218631Y79067D01*
X214243D02*
X216025Y77286D01*
X191432Y133797D02*
X225367Y167733D01*
X238414D01*
X218631Y79067D02*
X336554D01*
X238414Y167733D02*
X268433Y197752D01*
X285894D01*
X356970Y79067D02*
X367209Y68828D01*
X336554Y79067D02*
X356970D01*
X251449Y74526D02*
X310762D01*
X317863Y67425D02*
X364024D01*
X310762Y74526D02*
X317863Y67425D01*
X373108Y58342D02*
X374181D01*
X364024Y67425D02*
X373108Y58342D01*
X89773Y10127D02*
X89811Y10089D01*
X426627Y112532D02*
X434429D01*
X422264Y108169D02*
X426627Y112532D01*
X299076Y109897D02*
Y112685D01*
X363383Y110763D02*
X365977Y108169D01*
X304828Y108495D02*
X307096Y110763D01*
X363383D01*
X365977Y108169D02*
X422264D01*
X300478Y108495D02*
X304828D01*
X299076Y109897D02*
X300478Y108495D01*
X420952Y110563D02*
X421273D01*
X302662Y102392D02*
X302681D01*
X375760Y47330D02*
X406034D01*
X312796Y81439D02*
X357143D01*
X196151Y73659D02*
X216381D01*
X195851D02*
X196151D01*
X195851D02*
X196508Y73001D01*
X283002Y71285D02*
X284837Y69450D01*
X219010Y71285D02*
X283002D01*
X204609Y56883D02*
X219010Y71285D01*
X197147Y60777D02*
X198397D01*
X196508Y61416D02*
X197147Y60777D01*
X196508Y61416D02*
Y73001D01*
X281660Y91971D02*
X302265D01*
X281066Y92565D02*
X281660Y91971D01*
X177861Y56883D02*
X204609D01*
X169469Y48491D02*
X177861Y56883D01*
X285885Y96558D02*
X302890D01*
X314308Y85141D01*
X283692Y94164D02*
X302617D01*
X283491Y94365D02*
X283692Y94164D01*
X302617D02*
X313542Y83239D01*
X302265Y91971D02*
X312796Y81439D01*
X304410Y98952D02*
X316421Y86941D01*
X287853Y98952D02*
X304410D01*
X164126Y48491D02*
X169469D01*
X351293Y86941D02*
X352309Y87957D01*
X365547Y82947D02*
X365824Y83224D01*
X360726Y82947D02*
X365547D01*
X371234Y79933D02*
X372825Y81524D01*
X361194Y79933D02*
X371234D01*
X357889Y83239D02*
X361194Y79933D01*
X365824Y83224D02*
X370857D01*
X372825Y81524D02*
X377775D01*
X357143Y81439D02*
X361346Y77236D01*
X377155D02*
X380135Y80216D01*
X377775Y81524D02*
X377870Y81619D01*
X361346Y77236D02*
X377155D01*
X316421Y86941D02*
X351293D01*
X313542Y83239D02*
X357889D01*
X314308Y85141D02*
X358532D01*
X360726Y82947D01*
X284837Y69450D02*
X288454D01*
D180*
X244962Y261791D02*
D03*
X228781Y272972D02*
D03*
D188*
X464330Y145198D02*
X533375D01*
X115300Y69009D02*
Y76748D01*
X481435Y96954D02*
Y123661D01*
X360249Y116694D02*
X408759D01*
X418357Y125731D02*
X464311D01*
X357459Y116826D02*
X357653Y116631D01*
X297888Y116826D02*
X357459D01*
X297693Y116631D02*
X297888Y116826D01*
X208387Y116631D02*
X297693D01*
X115300Y76748D02*
X138328Y99776D01*
X191531D01*
X500724Y98286D02*
X502930Y100492D01*
X482768Y98286D02*
X500724D01*
X408759Y116694D02*
X417796Y125731D01*
X191531Y99776D02*
X208387Y116631D01*
X533375Y145198D02*
X585707Y197529D01*
X464311Y125731D02*
X464330Y125712D01*
X479385D01*
X481435Y96954D02*
X482768Y98286D01*
X479178Y94697D02*
X481435Y96954D01*
X479385Y125712D02*
X481435Y123661D01*
X479178Y93443D02*
Y94697D01*
X417796Y125731D02*
X418357D01*
D189*
X62618Y10096D02*
X70063D01*
X22103Y50612D02*
X62618Y10096D01*
X89773Y10127D02*
Y12901D01*
X52062Y50612D02*
X89773Y12901D01*
D192*
X285894Y197752D02*
D03*
D193*
X356091Y208933D02*
D03*
X67510Y196333D02*
D03*
X78297D02*
D03*
X89124D02*
D03*
X99911D02*
D03*
X110699D02*
D03*
X121526D02*
D03*
X132313D02*
D03*
X585707Y197529D02*
D03*
D199*
X354650Y169265D02*
D03*
X360437Y170673D02*
D03*
X377889Y165182D02*
D03*
X364391Y159365D02*
D03*
X336670Y166465D02*
D03*
X319199Y57676D02*
D03*
X321046Y52726D02*
D03*
X399168Y51645D02*
D03*
X402475Y49797D02*
D03*
X336554Y77137D02*
D03*
X186126Y-3024D02*
D03*
X115300Y32805D02*
D03*
X190300Y60371D02*
D03*
X236062Y139445D02*
D03*
X268208Y135640D02*
D03*
X214418Y128499D02*
D03*
X302662Y102392D02*
D03*
X229575Y66582D02*
D03*
X216381Y73721D02*
D03*
X299439Y113082D02*
D03*
X290901Y124825D02*
D03*
X216252Y76708D02*
D03*
X288269Y69284D02*
D03*
X258572Y135816D02*
D03*
X255197Y138093D02*
D03*
X251810Y139077D02*
D03*
X303861Y112826D02*
D03*
X540331Y165594D02*
D03*
Y173527D02*
D03*
X434429Y142524D02*
D03*
X464330Y145198D02*
D03*
X540331Y169692D02*
D03*
X358698Y116281D02*
D03*
X386150Y87957D02*
D03*
X388988Y80216D02*
D03*
X314496Y35793D02*
D03*
X374817Y58853D02*
D03*
X349818Y61344D02*
D03*
X392399Y54039D02*
D03*
X119365Y11346D02*
D03*
X195426Y79067D02*
D03*
X195745Y97478D02*
D03*
X198169Y117000D02*
D03*
X367209Y68828D02*
D03*
X251449Y74526D02*
D03*
X287463Y-14312D02*
D03*
X115254Y74856D02*
D03*
Y71868D02*
D03*
X87893Y29761D02*
D03*
X104987Y69111D02*
D03*
X115300Y69009D02*
D03*
X117619Y131985D02*
D03*
X70063Y10096D02*
D03*
X89811Y10089D02*
D03*
X22103Y50612D02*
D03*
X628827Y161926D02*
D03*
X625037D02*
D03*
X632618D02*
D03*
X504527Y82643D02*
D03*
Y86182D02*
D03*
Y89865D02*
D03*
X517429Y110563D02*
D03*
X279051Y49942D02*
D03*
X502930Y100492D02*
D03*
X406034Y47330D02*
D03*
X196151Y73659D02*
D03*
X198397Y60777D02*
D03*
X281066Y92565D02*
D03*
X198184Y40570D02*
D03*
X287853Y98952D02*
D03*
X285885Y96558D02*
D03*
X464330Y125712D02*
D03*
X196160Y133850D02*
D03*
X477111Y120860D02*
D03*
X370857Y83224D02*
D03*
X377870Y81619D02*
D03*
X396550Y41117D02*
D03*
X447555Y81082D02*
D03*
X479178Y93443D02*
D03*
X457598Y98032D02*
D03*
X429549Y116482D02*
D03*
X434429Y112532D02*
D03*
X429398Y125839D02*
D03*
X464600Y116694D02*
D03*
X418357Y116838D02*
D03*
Y125731D02*
D03*
X421273Y110563D02*
D03*
X420324Y77661D02*
D03*
X453486Y116981D02*
D03*
X451906Y125655D02*
D03*
X440245Y126088D02*
D03*
X441264Y116981D02*
D03*
X283491Y94365D02*
D03*
X307417Y136453D02*
D03*
X386637Y1143D02*
D03*
X257448Y149652D02*
D03*
X266520Y49678D02*
D03*
X164126Y48491D02*
D03*
X135619Y107985D02*
D03*
X141619D02*
D03*
X127420D02*
D03*
X132892Y113713D02*
D03*
X137392Y118212D02*
D03*
X138224Y126381D02*
D03*
X129619Y119985D02*
D03*
X141619D02*
D03*
X138619Y113985D02*
D03*
X30792Y108320D02*
D03*
X24792Y120320D02*
D03*
X27792Y114320D02*
D03*
X24792Y108320D02*
D03*
X18792Y132320D02*
D03*
Y120320D02*
D03*
X21792Y114320D02*
D03*
X18792Y108320D02*
D03*
X15792Y138320D02*
D03*
X12792Y132320D02*
D03*
X15792Y126320D02*
D03*
X12792Y120320D02*
D03*
X15792Y114320D02*
D03*
X12792Y108320D02*
D03*
X9792Y138320D02*
D03*
X6792Y132320D02*
D03*
X9792Y126320D02*
D03*
X6792Y120320D02*
D03*
X9792Y114320D02*
D03*
X6792Y108320D02*
D03*
X3792Y138320D02*
D03*
X792Y132320D02*
D03*
X3792Y126320D02*
D03*
X792Y120320D02*
D03*
X3792Y114320D02*
D03*
X792Y108320D02*
D03*
X76558Y42752D02*
D03*
X77113Y39529D02*
D03*
X81274D02*
D03*
X138619Y137985D02*
D03*
X141619Y131985D02*
D03*
X132619Y137985D02*
D03*
X135619Y131985D02*
D03*
X132619Y125985D02*
D03*
X126619Y137985D02*
D03*
X129619Y131985D02*
D03*
X126619Y125985D02*
D03*
X120619Y137985D02*
D03*
X123619Y131985D02*
D03*
X120619Y125985D02*
D03*
X123619Y119985D02*
D03*
X120619Y113985D02*
D03*
X117619Y119985D02*
D03*
Y107985D02*
D03*
X126619Y113985D02*
D03*
X123619Y107985D02*
D03*
X52062Y50612D02*
D03*
X125345Y-4318D02*
D03*
M02*
