M48
;Layer_Color=9474304
;FILE_FORMAT=2:5
INCH,LZ
;TYPE=PLATED
T1F00S00C0.00787
T2F00S00C0.01000
T4F00S00C0.03543
T5F00S00C0.04094
T6F00S00C0.06000
T7F00S00C0.06700
T8F00S00C0.12008
T9F00S00C0.12205
T10F00S00C0.12800
;TYPE=NON_PLATED
T11F00S00C0.12008
%
T01
X0630792Y001232
X0610792
X0590792
X0570792
X0550792
X0530792
X0510792
X0490792
X0470792
X0480792Y-000768
X0500792
X0520792
X0540792
X0560792
X0580792
X0600792
X0620792
X0460792
X0440792
X0420792
X0400792
X0380792
X0386637Y0001143
X0360792Y-000768
X0340792
X0351512Y0005262
X032383Y0023011
X0404708Y0023523
X0410792Y001232
X0430792
X0450792
X0306473Y0013897
X0302497Y-0008089
Y-0011077
X0287463Y-0014312
X0288268Y0023555
X0231404Y001891
X02264Y0017761
X0225542Y0021442
X0179696Y0015733
X0180095Y0012773
X018181Y-0000689
X0175979Y-0000914
X0168818Y-0000887
X0186126Y-0003024
X0190471Y-0003361
X0194802Y-0003341
X0198072Y-0004154
X0158019Y0022587
X0136936Y0022416
X0133144Y0024279
X0125489Y0011566
X0110792Y001232
X0089811Y0010089
X0070063Y0010096
X0060792Y-000768
X0080792
X0100792
X0120792
X0125345Y-0004318
X0040792Y-000768
X0020792
X0010792Y001232
X0000792Y003232
Y010832
Y012032
Y013232
X0006792
X0012792
X0018792
X0015792Y013832
X0009792
X0003792
Y012632
X0009792
X0015792
X0018792Y012032
X0024792
X0027792Y011432
X0021792
X0015792
X0009792
X0003792
X0006792Y012032
X0012792
Y010832
X0018792
X0024792
X0030792
Y009232
X0050792
X0070792
X0090792
Y013232
X0110792
X0117619Y0131985
X0123619
X0129619
X0135619
X0141619
X0138619Y0137985
X0132619
X0126619
X0120619
Y0125985
X0126619
X0132619
X0138224Y0126381
X0137392Y0118212
X0138619Y0113985
X0132892Y0113713
X0126619Y0113985
X0120619
X0123619Y0119985
X0129619
X0141619
Y0107985
X0135619
X012742
X0123619
X0117619
Y0119985
X0120792Y015232
X0140792
X0150792Y017232
X0130792
X0110792
X0090792
X0070792
X0066488Y0156653
Y0151928
Y0147204
Y0142479
Y0137755
Y0133031
Y0128306
X0061763
Y0133031
Y0137755
Y0142479
X0057039
Y0147204
X0061763
Y0151928
Y0156653
X0057039
Y0151928
X0052315
Y0156653
Y0147204
Y0142479
Y0137755
X0057039
Y0133031
Y0128306
X0052315
Y0133031
X0040792Y015232
X0050792Y017232
X0080792Y015232
X0100792
X0150792Y013232
Y009232
X0142924Y0085669
X0141619Y0068509
X0120792Y007232
X0115254Y0071868
X01153Y0069009
X011133Y0069111
X0115254Y0074856
X01153Y0032805
X010213Y004033
X0081274Y0039529
X0077113
X0076558Y0042752
X0070792Y005232
X0052062Y0050612
X0030792Y005232
X0022103Y0050612
X0010792Y005232
X0020792Y003232
X0087893Y0029761
X0135201Y0027702
X0140109Y0025308
X0140211Y0034576
X0151466Y0040596
X0010792Y009232
X0006792Y010832
X0180792Y011232
X0180896Y0095435
X0177861Y0095708
X0183497Y0093188
X0195219Y0094301
X0195426Y0079067
X0196151Y0073659
X0198397Y0060777
X01903Y0060371
X0183511Y0068966
X0184591Y0080742
X0170792Y009232
X0160792Y007232
X0170792Y005232
X0210792
X0218831Y0052876
X0223708Y0052768
X0227024Y0042814
X0214125Y004401
X0220792Y003232
X0246283Y0033048
X0252281Y003248
X0260792Y003232
X0281135Y0032912
X0279051Y0049942
X026652Y0049678
X0290792Y005232
X028954Y0057511
X0306507
X0306834Y0050642
X0303439Y0052276
X0300792Y003232
X0307321Y0028543
X0314496Y0035793
X0312694Y0096212
Y0100701
X0302662Y0102392
X0303861Y0112826
X0299439Y0113082
X0290848Y0108429
X0287853Y0098952
X0285885Y0096558
X0283491Y0094365
X0281066Y0092565
X0270792Y009232
X0265246Y0081726
X0261428Y0083468
X0251449Y0074526
X0249988Y0064453
X0253877Y0064179
X0246265Y006397
X0240623Y0063465
X0237602Y0066099
X0234229Y0067779
X0232169Y0064793
X0229575Y0066582
X0226102Y0067208
X0222284Y0066175
X0217497Y0064453
X0214637Y007124
X0216381Y0073721
X0216252Y0076708
X0218235Y0095823
X0221091Y009868
X0217666Y0106319
X0220792Y011232
X0220469Y0120375
X0223525
X0226512
X02295
X0235012Y0128119
X0237206Y013087
X0239914Y0133188
X0236062Y0139445
X0245905Y0139077
X025181
X0255197Y0138093
X0258572Y0135816
X0268208Y013564
X0275391Y0135831
X0280874Y0140224
X028241Y0148249
X0285471Y014851
X0288619Y0148674
X0292874Y0147459
X0295657Y0146372
X0299654Y0132051
X030753Y0128817
X0307417Y0136453
X0290901Y0124825
X0290162Y0086475
X028712Y0082839
X0301231Y0086376
X0299888Y0089044
X0281444Y0068892
X024333Y0068088
X0214418Y0128499
X0205739Y0127045
X0203939Y0130083
X0202886Y0133448
X0200716Y0136804
X019616Y013385
X0202547Y0121675
X0204917Y011982
X0198169Y0117
X0170792Y013232
X0180792Y015232
X0160792
X0170792Y017232
X0190792
X0210792
X0219995Y0169859
X0222983
X0227038Y0170547
X0230025
X0268418Y0164601
X0267751Y0161613
X0257448Y0149652
X0315335Y0130083
X0329896Y0126862
X0342853Y0134831
X0350792Y013232
X0356595Y0134831
X0360126Y0137187
X0363163Y0137608
X0363205Y0140595
X0367375Y0132702
X0372188
X037867Y0135106
X0378693Y013812
X0390792Y013232
X0410792
X0418357Y0125731
Y0116838
X0421273Y0110563
X0429549Y0116482
X0434429Y0112532
X0440792Y011232
X0441264Y0116981
X0446287Y0112188
X0453486Y0116981
X045799Y0113953
X04646Y0116694
X046433Y0125712
X0451906Y0125655
X0448536Y0131477
X0440245Y0126088
X0429398Y0125839
X0434429Y0142524
X0440792Y015232
X0420792
X0430792Y017232
X0410792
X0390792
X0360437Y0170673
X0364391Y0159365
X036736Y0157766
X0369472Y0155654
X0350883Y0156812
X033667Y0166465
X0358698Y0116281
X0370857Y0083224
X037787Y0081619
X0380792Y007232
X0388988Y0080216
X038615Y0087957
X0367209Y0068828
Y0058657
X0374817Y0058853
X0373594Y0040354
X0373546Y0036368
X0383409Y0040354
X0386812Y0044642
X039655Y0041117
X0399168Y0051645
X0402475Y0049797
X0406034Y004733
X0409276Y005095
X0392399Y0054039
X0430792Y005232
X0450792
X0448536Y0074989
X0447555Y0081082
X0450902Y0084246
X0455893Y0091809
X0457598Y0098032
X0433506Y0079452
X0433227Y0076464
X0420324Y0077661
X0440792Y003232
X0460792
X0360792
X0357367Y0027606
X0336554Y003852
X032335Y0040629
X0321046Y0052726
X0319199Y0057676
X0318473Y0074526
X032427Y0075134
X0324012Y0072146
X0340792Y007232
X0336554Y0077137
X0349818Y0061344
X0315122Y0103837
X046433Y0145198
X0480792Y015232
X0500792
X0520792
X0510792Y013232
X0490792
X0477111Y012086
X0485361Y0104383
X0479178Y0093443
X0480792Y007232
X0500792
X0504527Y0082643
Y0086182
Y0089865
X050293Y0100492
X0500792Y011232
X0507339Y011483
X0517429Y0110563
X0520792Y007232
X0530792Y005232
X0550792
X0570792
X0590792
X0610792
X0620792Y003232
X0600792
X0580792
X0560792
X0540792
X0520792
X0500792
X0480792
X0490792Y005232
X0510792
X0470792
X0540331Y0165594
Y0169692
Y0173527
X0590792Y017232
X0610792
X0625037Y0161926
X0628827
X0632618
X0650792Y017232
X0640792Y003232
Y019232
X0650792Y021232
X0630792
X0640792Y023232
X0650792Y025232
X0630792
X0610792
X0590792
X0570792
X0580792Y023232
X0600792
X0620792
Y019232
X0600792
X0590792Y021232
X0560792Y023232
X0540792
X0530792Y021232
X0510792
X0500792Y019232
X0480792
X0527989Y0190707
X0560792Y019232
X0510792Y025232
X0490792
X0470792
X0480792Y027232
X0500792
X0600792
X0460792
X0440792
X0450792Y025232
X0430792
X0410792
X0370792
X0350792
X0330792
X0340792Y027232
X0320792
X0380792
Y019232
X0360792
X0350792Y021232
X0330792
X0430792
X0450792
X0460792Y019232
X0420792
X0280792
X0270792Y021232
X0250792
X0230792
X0210792
X0190792
X019325Y0224501
X0190792Y025232
X0180792Y027232
X0160792
Y019232
X0180792
X0240792
X0290792Y025232
X0310792
X0300792Y027232
X0280792
X0140792
X0120792
X0100792
X0070792Y025232
X0050792
X0030792
X0010792
X0020792Y027232
Y023232
X0040792
X0030792Y021232
X0010792
X0130792
X0150792
X0140792Y019232
X0120792
X0126132Y0243545
X0000792Y023232
Y019232
T02
X0615385Y0126291
Y0129834
Y0133377
X0619322
X0622865
Y0129834
X0619322
Y0126291
X0622865
T04
X0342054Y0097168
X0352054
X036337
X037337
X0430775
X0440775
X0597118Y0169097
X0607118
X0617118
T05
X0510116Y0197529
X0520904
X0531691
X0542479
X0553345
X0564132
X057492
X0585707
X0580313Y0208711
X0569526
X0558699
X0547912
X0537124
X0526298
X051551
X0549653Y026192
X056044
X0571228
X0582015
X0576622Y0273101
X0587409
X0565834
X0555047
X0544259
X0421556Y0272972
X0410769
X0399982
X0389194
X0383801Y0261791
X0394588
X0405375
X0416163
X042695
X0356091Y0208933
X0345304
X0334477
X0323689
X0318256Y0197752
X0329123
X033991
X0350697
X0361485
X0307469
X0296682
X0285894
X0291288Y0208933
X0302075
X0312902
X0266537Y0261791
X025575
X0244962
X0234175
X0223387
X0228781Y0272972
X0239569
X0250356
X0261143
X0106137Y0272819
X009535
X0084562
X0073775
X0062987
X0068381Y0261638
X0079168
X0089956
X0100743
X0096479Y0203689
X0107266
X0101872Y0192508
X0091085
X0080297
X006951
X0074904Y0203689
X0064116
X0085691
T06
X0640744Y0038853
T07
X0630744Y0028853
X0650744
Y0048853
X0630744
T08
X038928Y0203342
X0258099
T09
X0482321Y020312
X0613502
T10
X0649606Y0
X0
X0649606Y027559
X0
T11
X0516622Y0267511
X0615007
X0454588Y0267381
X0356202
X0294175
X0195789
X0133735Y0267229
X0134864Y0198099
X0036479
X003535Y0267229
M30
