M48
;Layer_Color=9474304
;FILE_FORMAT=2:5
INCH,LZ
;TYPE=PLATED
T1F00S00C0.00787
T2F00S00C0.01000
T4F00S00C0.03543
T5F00S00C0.04094
T6F00S00C0.06000
T7F00S00C0.06700
T8F00S00C0.12008
T9F00S00C0.12205
T10F00S00C0.12800
;TYPE=NON_PLATED
T11F00S00C0.12008
%
T01
X0628792Y-001268
Y000932
X0634292Y002032
X0645292
X0656292
X0623292
X0612292
X0601292
X0590292
X0579292
X0568292
X0557292
X0546292
X0535292
X0524292
X0513292
X0502292
X0491292
X0480292
X0485792Y000932
X0496792
X0507792
X0518792
X0529792
X0540792
X0551792
X0562792
X0573792
X0584792
X0595792
X0606792
X0617792
X0623292Y-000168
X0612292
X0601292
X0590292
X0579292
X0568292
X0557292
X0546292
X0535292
X0524292
X0513292
X0502292
X0491292
X0480292
X0485792Y-001268
X0496792
X0507792
X0518792
X0529792
X0540792
X0551792
X0562792
X0573792
X0584792
X0595792
X0606792
X0617792
X0474792
Y000932
X0463792
X0452792
X0441792
X0430792
X0436292Y002032
X0447292
X0458292
X0469292
Y-000168
X0458292
X0447292
X0436292
X0425292
X0414292
X0403292
X0392292
X0386637Y0001143
X0381292Y-000168
X0386792Y-001268
X0397792
X0408792
X0419792
X0430792
X0441792
X0452792
X0463792
X0425292Y002032
X0403292
X0408792Y000932
X0375792
X0370292Y002032
X0359292Y-000168
X0348292
X0351512Y0003637
X0353792Y-001268
X0364792
X0375792
X0342792
X0331792Y000932
X0320792
X032383Y0023011
X0306473Y0013897
X0309792Y000932
X0287792
X0276792
X0265792
X0254792
X0243792
X0249292Y002032
X0260292
Y-000168
X0254792Y-001268
X0287463Y-0014312
X0298792Y-001268
X0302497Y-0011077
Y-0008089
X0288268Y0023555
X022121Y0024183
Y0017202
X0221792Y000932
X0210792
X0216292Y-000168
X0205292
X0199069Y-0003157
X0194802Y-0003341
X0190471Y-0003361
X0186126Y-0003024
X018181Y-0000689
X0175753
X0172292Y-000168
X0168818Y-0000887
X0161292Y-000168
X0166792Y000932
X0177792
X0183292Y002032
X0172292
X0150201Y0020967
X0140211Y0020848
X0135201
X0129865
X0117292Y002032
X0119365Y0011346
X0122792Y000932
X0125345Y-0004318
X0117292Y-000168
X0106292
X0111792Y-001268
X0122792
X0133792
X0144792
X0155792
Y000932
X0089811Y0010089
X0084292Y-000168
X0089792Y-001268
X0100792
X0078792
X0067792
X0056792
X0045792
X0034792
X0023792
X0012792
X0018292Y-000168
X0023792Y000932
X0018292Y002032
X0007292
X0040292Y-000168
X0062292
X0070063Y0010096
X-0003708Y002032
X0001792Y003132
X-0009208
X-0003708Y004232
X-0009208Y005332
X-0003708Y006432
X-0009208Y007532
X-0003708Y008632
X0001792Y009732
X-0009208
X0000792Y010832
Y012032
X-0009208Y011932
Y014132
X0000792Y013232
X-0009208Y016332
X-0003708Y017432
X0007292
X0009792Y013832
X0015792
X0018792Y013232
X0012792
X0006792
X0009792Y012632
X0015792
X0018792Y012032
X0024792
X0027792Y011432
X0021792
X0015792
X0009792
X0003792
X0006792Y012032
X0012792
Y010832
X0018792
X0024792
X0030792
X0034792Y009732
X0023792
X0012792
X0018292Y008632
X0029292
X0040292
X0051292
X0062292
Y006432
X0073292
X0067792Y005332
X0056792
X0052062Y0050612
X0051292Y004232
X0040292
X0034792Y003132
X0023792
X0012792
X0018292Y004232
X0007292
Y006432
X0018292
X0029292
X0040292
X0051292
X0023792Y005332
X0022103Y0050612
X0007292Y008632
X0006792Y010832
X0003792Y012632
Y013832
X0045792Y014132
X0052315Y0142479
X0057039
X0061763
X0066488
Y0147204
Y0151928
Y0156653
X0061763
Y0151928
Y0147204
X0057039
Y0151928
Y0156653
X0052315
Y0151928
Y0147204
Y0137755
X0057039
X0061763
X0066488
Y0133031
Y0128306
X0061763
Y0133031
X0057039
Y0128306
X0052315
Y0133031
X0073292Y013032
X0084292
X0089792Y014132
X0078792
X0084292Y015232
X0095292
X0106292
Y013032
X0117619Y0131985
X0123619
X0129619
X0135619
X0141619
X0138619Y0137985
X0132619
X0126619
X0120619
Y0125985
X0126619
X0132619
X0138224Y0126381
X0137392Y0118212
X0138619Y0113985
X0132892Y0113713
X0126619Y0113985
X0120619
X0123619Y0119985
X0129619
X0141619
Y0107985
X0135619
X012742
X0123619
X0117619
Y0119985
X0100792Y009732
X0089792
X0095292Y006432
X0104987Y0069111
X01114Y0068966
Y0071868
Y0074856
X0115254
Y0071868
X01153Y0069009
X0117292Y006432
X0122792Y007532
X0144792
X0139292Y008632
X0155792Y005332
X0122792
X0111792
X0117292Y004232
X01153Y0032805
X0100788Y0040973
X0081274Y0039529
X0077113
X0076558Y0042752
X0087893Y0029761
X0073292Y015232
X0155792Y014132
X0166792
X0177792
X0188792
X019616Y013385
X0202886Y0133448
X0203939Y0130083
X0205739Y0127045
X0204917Y011982
X0202547Y0121675
X0198169Y0117
X0195745Y0097478
X0184591Y0096032
Y0080742
X0195426Y0079067
X0196151Y0073659
X0198397Y0060777
X01903Y0060371
X0183935Y005449
X0182893Y0051502
X0178162Y0049113
X0174325Y0049962
X0164126Y0048491
X0177792Y003132
X0198184Y004057
X0197591Y0044783
X0214125Y004401
X0210792Y005332
X0218831Y0052876
X0223708Y0052768
X0232792Y005332
X0232068Y0064631
X0234205Y0066877
X0237602Y0066099
X0240623Y0063465
X0246852Y0064097
X0253877Y0064179
X0260292Y006432
X0271292
X0281444Y0068892
X0288269Y0069284
X028954Y0057511
X0287792Y005332
X0276792
X0279051Y0049942
X026652Y0049678
X0265792Y005332
X0271292Y004232
X0289418Y0043257
X0287792Y003132
X0281135Y0032912
X0254792Y003132
X0251995Y003248
X024609Y0033024
X0232792Y003132
X0227225Y0042814
X0226102Y0067208
X0229575Y0066582
X0222284Y0066175
X0217497Y0064453
X0214637Y007124
X0216381Y0073721
X0216252Y0076708
X0216292Y008632
X0227292
X0218235Y0095823
X0221091Y009868
X0217666Y0106319
X0227292Y010832
X0226512Y0120375
X02295
X0223525
X0220469
X0214418Y0128499
X0210792Y014132
X0200716Y0136804
X0205292Y015232
X0216292
X0210792Y016332
X0199792
X0188792
X0177792
X0183292Y015232
X0194292
Y017432
X0205292
X0216292
X0219995Y0169859
X0222983
X0227038Y0170547
X0230025
X0232792Y016332
X0238292Y017432
X0249292
X0260292
X0254792Y016332
X0267751Y0161613
X0268418Y0164601
X0287792Y016332
X0298792
X0309792
X0307417Y0136453
X030753Y0128817
X0299654Y0132051
X0290901Y0124825
X0290848Y0108429
X0287853Y0098952
X0285885Y0096558
X0283491Y0094365
X0281066Y0092565
X0282292Y008632
X0290162Y0086475
X028712Y0082839
X0301231Y0086376
X0299888Y0089044
X0302662Y0102392
X0303861Y0112826
X0299439Y0113082
X0312694Y0100701
Y0096212
X0276792Y009732
X0271292Y010832
Y008632
X0265246Y0081726
X0261428Y0083468
X0251449Y0074526
X0243792Y007532
Y009732
X0254792
X0255197Y0138093
X025181Y0139077
X0245905
X0236062Y0139445
X0237206Y013087
X0235012Y0128119
X0239914Y0133188
X0258572Y0135816
X0268208Y013564
X0275391Y0135831
X0280874Y0140224
X028241Y0148249
X0285471Y014851
X0288619Y0148674
X0292874Y0147459
X0295551Y0146133
X0257448Y0149652
X0172292Y015232
X0183292Y013032
X0166792Y011932
X0182237Y0068966
X0306507Y0057511
X0306834Y0050642
X0303439Y0052276
X0314496Y0035793
X0307321Y0028543
X032335Y0040629
X0321046Y0052726
X0319199Y0057676
X0318473Y0074526
X032427Y0075134
X0324012Y0072146
X0336554Y0077137
X0342792Y007532
X0353792
X0348292Y006432
X0349818Y0061344
X0367209Y0058657
X0374817Y0058853
X0367209Y0068828
X0370857Y0083224
X037787Y0081619
X0388988Y0080216
X038615Y0087957
X0386792Y009732
X0419792
X0421273Y0110563
X0418357Y0116838
Y0125731
X0429398Y0125839
X0429549Y0116482
X0434429Y0112532
X0441264Y0116981
X0446287Y0112188
X0453486Y0116981
X045799Y0113953
X0458292Y010832
X0457598Y0098032
X0455893Y0091809
X0450902Y0084246
X0447555Y0081082
X0448536Y0074989
X0433227Y0076464
X0433506Y0079452
X0420324Y0077661
X0436292Y006432
X0441792Y005332
X0452792
X0463792
X0469292Y006432
X0458292
Y004232
X0469292
X0463792Y003132
X0452792
X0441792
X0430792
X0436292Y004232
X0447292
X0430792Y005332
X0409276Y005095
X0406034Y004733
X0402475Y0049797
X0399168Y0051645
X0392399Y0054039
X0392292Y006432
X0386812Y0044642
X0383409Y0040354
X0373594
X0373546Y0036368
X0364792Y003132
X0353792
X0357367Y0027606
X0336554Y003852
X039655Y0041117
X0414292Y004232
X0408792Y003132
X0392292Y013032
X0381292
X0372188Y0132702
X0367375
X0361063Y0137359
X0356595Y0134831
X0342853
X0329896Y0126862
X0326292Y013032
X0315335Y0130083
X0315122Y0103837
X0320792Y009732
X0358698Y0116281
X0350883Y0156812
X0364391Y0159365
X0360437Y0170673
X035465Y0169265
X033667Y0166465
X0337292Y017432
X0381292
X0392292
X0386792Y016332
X0377889Y0165182
X0381292Y015232
X0392292
X0419792Y016332
X0430792
X0436292Y015232
X0447292
X0469292
X046433Y0145198
X0463792Y016332
X046433Y0125712
X04646Y0116694
X0451906Y0125655
X0448536Y0131477
X0440245Y0126088
X0434429Y0142524
X0485792Y014132
X0491292Y013032
X0502292
X0513292
X0518792Y014132
X0507792
X0513292Y015232
X0524292
X0502292
X0480292
Y013032
X0477111Y012086
X0485792Y011932
X0485361Y0104383
X0479178Y0093443
X0480292Y008632
X0485792Y007532
X0496792
X0507792
X0504527Y0082643
Y0086182
Y0089865
X050293Y0100492
X0507339Y011483
X0507792Y011932
X0518792
X0517429Y0110563
X0518792Y009732
Y007532
X0529792
X0524292Y006432
X0513292
X0502292
X0491292
X0480292
X0485792Y005332
X0496792
X0507792
X0518792
X0529792
X0540792
X0551792
X0562792
X0573792
X0584792
X0595792
X0606792
X0617792
X0623292Y004232
X0612292
X0601292
X0590292
X0579292
X0568292
X0557292
X0546292
X0535292
X0524292
X0513292
X0502292
X0491292
X0480292
X0485792Y003132
X0496792
X0507792
X0518792
X0529792
X0540792
X0551792
X0562792
X0573792
X0584792
X0595792
X0606792
X0617792
Y016332
X0625037Y0161926
X0623292Y017432
X0612292
X0601292
X0590292
X0579292
X0540331Y0173527
Y0169692
Y0165594
X0474792Y007532
Y005332
Y003132
X0639792
X0634292Y004232
X0656292
X0650792Y016332
X0639792
X0632618Y0161926
X0628827
X0645292Y017432
X0656292
X0650792Y018532
X0639792
X0628792
X0634292Y019632
X0645292
X0656292
X0650792Y020732
X0639792
X0628792
X0634292Y021832
X0645292
X0656292
X0650792Y022932
X0639792
X0628792
X0634292Y024032
X0645292
X0656292
X0650792Y025132
X0639792
X0628792
X0634292Y026232
X0628792Y027332
X0623292Y026232
X0617792Y025132
X0606792
X0595792
X0584792
X0573792
X0562792
X0551792
X0540792
X0546292Y024032
X0557292
X0568292
X0579292
X0590292
X0601292
X0612292
X0623292
X0617792Y022932
X0606792
X0595792
X0584792
X0573792
X0562792
X0551792
X0540792
X0529792
X0518792
X0524292Y024032
X0535292
Y026232
X0524292
X0529792Y027332
X0507792
X0496792
X0485792
X0474792
X0480292Y026232
X0491292
X0502292
X0507792Y025132
X0518792
X0513292Y024032
X0502292
X0491292
X0480292
X0485792Y025132
X0496792
Y022932
X0485792
X0474792
Y025132
X0502292Y021832
X0513292
X0524292
X0535292
X0546292
X0557292
X0568292
X0579292
X0590292
X0601292
X0612292
X0623292
Y019632
X0617792Y018532
X0606792
X0595792
X0584792
X0590292Y019632
X0601292
X0595792Y020732
X0562792Y018532
X0551792
X0540792
X0527989Y0190707
X0507792Y018532
X0502292Y019632
X0491292
X0485792Y018532
X0474792
X0590292Y026232
X0601292
X0606792Y027332
X0595792
X0463792
X0469292Y026232
X0463792Y025132
X0452792
X0441792
X0430792
X0419792
Y022932
X0430792
X0441792
X0452792
X0463792
X0469292Y024032
X0458292
X0447292
X0436292
Y026232
X0447292
X0441792Y027332
X0430792
X0397792Y025132
X0386792
X0375792
X0381292Y024032
X0392292
X0403292
Y021832
X0392292
X0386792Y022932
X0375792
X0353792
X0342792
X0331792
X0320792
X0326292Y024032
X0337292
X0331792Y025132
X0320792
X0315292Y026232
Y024032
X0353792Y025132
X0348292Y026232
X0342792Y027332
X0331792
X0364792
X0375792
X0386792Y018532
X0403292Y019632
X0419792Y020732
X0430792
X0441792
X0452792
X0458292Y021832
X0447292
X0436292
Y019632
X0430792Y018532
X0419792
X0452792
X0463792
X0469292Y019632
X0320792Y018532
X0309792
X0298792
X0287792
X0276792
Y020732
X0243792
X0232792
X0238292Y021832
Y019632
X0249292
X0243792Y018532
X0232792
X0210792
X0199792
X0216292Y019632
Y024032
X0205292
X0199792Y025132
X0188792
X0183292Y026232
X0172292
X0161292
X0166792Y027332
X0177792
X0188792
X0210792
X0205292Y026232
X0183292Y024032
X0172292
X0161292
X0166792Y022932
X0177792
X0188792
X0194292Y021832
X0183292
X0172292
X0161292
X0177792Y020732
X0260292Y024032
X0265792Y025132
X0276792
X0282292Y024032
X0304292
X0309792Y025132
X0298792
X0304292Y026232
X0309792Y027332
X0287792
X0276792
X0254792Y025132
X0309792Y022932
X0155792
X0150292Y024032
Y026232
X0155792Y027332
X0144792
X0122792
X0100792
X0089792
X0067792
X0056792
X0045792
X0051292Y026232
X0062292
X0073292
X0078792Y025132
X0067792
X0056792
X0045792
X0034792
X0023792
X0012792
X0018292Y026232
X0029292
X0023792Y027332
X0029292Y024032
X0040292
X0051292
X0062292
X0073292
X0084292
X0095292
X0106292
X0117292
X0128292
X0133792Y022932
X0122792
X0111792
X0100792
X0089792
X0078792
X0067792
X0056792
X0045792
X0034792
X0023792
X0012792
X0018292Y024032
X0007292
Y021832
X0018292
X0029292
X0040292
X0051292
X0062292
X0073292
X0084292
X0095292
X0106292
X0117292
X0128292
X0139292
X0144792Y020732
X0155792
Y018532
X0144792
X0078792Y020732
X0067792
X0056792
X0045792
X0023792
X0012792
X0018292Y019632
X0007292
X0012792Y018532
X0106292Y026232
X0001792Y025132
X-0009208
X-0003708Y024032
X0001792Y022932
X-0009208
X-0003708Y021832
X0001792Y020732
X-0009208
X-0003708Y019632
X0001792Y018532
X-0009208
T02
X0615385Y0126291
Y0129834
Y0133377
X0619322
X0622865
Y0129834
X0619322
Y0126291
X0622865
T04
X0148112Y0042541
X0158112
Y0065261
X0148112
Y0087707
X0158112
Y0110154
X0148112
Y0132601
X0158112
Y0155349
X0148112
X0168112
Y0132601
Y0110154
Y0087707
Y0065261
Y0042541
X0342054Y0097168
X0352054
X036337
X037337
X0430775
X0440775
X0597118Y0169097
X0607118
X0617118
T05
X0510116Y0197529
X0520904
X0531691
X0542479
X0553345
X0564132
X057492
X0585707
X0580313Y0208711
X0569526
X0558699
X0547912
X0537124
X0526298
X051551
X0549653Y026192
X056044
X0571228
X0582015
X0576622Y0273101
X0587409
X0565834
X0555047
X0544259
X0421556Y0272972
X0410769
X0399982
X0389194
X0383801Y0261791
X0394588
X0405375
X0416163
X042695
X0356091Y0208933
X0345304
X0334477
X0323689
X0318256Y0197752
X0329123
X033991
X0350697
X0361485
X0307469
X0296682
X0285894
X0291288Y0208933
X0302075
X0312902
X0266537Y0261791
X025575
X0244962
X0234175
X0223387
X0228781Y0272972
X0239569
X0250356
X0261143
X0106137Y0272819
X009535
X0084562
X0073775
X0062987
X0068381Y0261638
X0079168
X0089956
X0100743
X0105344Y0207514
X0116132
X0126919
X0137707
X0132313Y0196333
X0121526
X0110699
X0099911
X0089124
X0078297
X006751
X0072903Y0207514
X0062116
X0083691
X0094478
T06
X0640744Y0038853
T07
X0630744Y0028853
X0650744
Y0048853
X0630744
T08
X038928Y0203342
X0258099
X0165502Y0201923
X0034321
T09
X0482321Y020312
X0613502
T10
X0649606Y0
X0
X0649606Y027559
X0
T11
X0516622Y0267511
X0615007
X0454588Y0267381
X0356202
X0294175
X0195789
X0133735Y0267229
X003535
M30
